<svg width="48" height="48" viewBox="0 0 48 48" fill="none" xmlns="http://www.w3.org/2000/svg">
<path d="M23.5303 0.560018C10.8388 0.560017 0.550258 10.8485 0.550257 23.54C0.550256 36.2315 10.8387 46.52 23.5303 46.52C36.2218 46.52 46.5103 36.2315 46.5103 23.54C46.5103 10.8485 36.2218 0.56002 23.5303 0.560018Z" fill="#7F4F21"/>
<path d="M23.5301 6.66075e-05C36.5001 6.77414e-05 47.0601 10.5601 47.0601 23.5401C47.0601 36.5201 36.5001 47.0701 23.5301 47.0701C10.5601 47.0701 5.81436e-05 36.5101 5.92775e-05 23.5401C6.04114e-05 10.5701 10.5601 0.0100638 23.5301 0.0100649L23.5301 6.66075e-05ZM23.5301 45.9801C35.9001 45.9801 45.9701 35.9101 45.9701 23.5401C45.9701 11.1701 35.9001 1.10007 23.5301 1.10007C11.1601 1.10006 1.09006 11.1701 1.09006 23.5401C1.09006 35.9101 11.1501 45.9801 23.5301 45.9801Z" fill="#7F4F21"/>
<path d="M39.4702 23.5402L30.9502 31.1802L30.1602 30.6102L37.9202 24.0202L7.58022 24.0202L7.58022 23.0502L37.9202 23.0502L30.1602 16.4602L30.9502 15.9002L39.4702 23.5402Z" fill="white"/>
</svg>
