<svg width="48" height="48" viewBox="0 0 48 48" fill="none" xmlns="http://www.w3.org/2000/svg">
<path d="M23.53 47.7099C10.55 47.7099 0 37.1499 0 24.1799C0 11.2099 10.56 0.649902 23.53 0.649902C36.5 0.649902 47.06 11.2099 47.06 24.1799C47.06 37.1499 36.5 47.7099 23.53 47.7099ZM23.53 1.7399C11.16 1.7399 1.09 11.8099 1.09 24.1799C1.09 36.5499 11.16 46.6199 23.53 46.6199C35.9 46.6199 45.97 36.5499 45.97 24.1799C45.97 11.8099 35.9 1.7399 23.53 1.7399Z" fill="#7F4F21"/>
<path d="M7.58984 24.1798L16.1098 16.5398L16.8998 17.1098L9.13984 23.6898H39.4798V24.6598H9.13984L16.8998 31.2598L16.1098 31.8198L7.58984 24.1798Z" fill="#7F4F21"/>
</svg>
