<svg width="48" height="48" viewBox="0 0 48 48" fill="none" xmlns="http://www.w3.org/2000/svg">
<path d="M23.53 47.06C10.56 47.06 0 36.5022 0 23.525C0 10.5478 10.56 0 23.53 0C36.5 0 47.06 10.5578 47.06 23.525C47.06 36.4922 36.5 47.05 23.53 47.05V47.06ZM23.53 1.08977C11.16 1.08977 1.09 11.1576 1.09 23.525C1.09 35.8924 11.16 45.9602 23.53 45.9602C35.9 45.9602 45.97 35.8924 45.97 23.525C45.97 11.1576 35.91 1.08977 23.53 1.08977Z" fill="#7F4F21"/>
<path d="M39.4798 23.5249L30.9598 31.1632L30.1698 30.5934L37.9198 24.0147H7.58984V23.045H37.9198L30.1698 16.4464L30.9598 15.8865L39.4798 23.5249Z" fill="#7F4F21"/>
</svg>
