<svg width="48" height="48" viewBox="0 0 48 48" fill="none" xmlns="http://www.w3.org/2000/svg">
<path d="M23.5298 46.51C36.2213 46.51 46.5098 36.2216 46.5098 23.5301C46.5098 10.8385 36.2213 0.550049 23.5298 0.550049C10.8383 0.550049 0.549805 10.8385 0.549805 23.5301C0.549805 36.2216 10.8383 46.51 23.5298 46.51Z" fill="#7F4F21"/>
<path d="M23.53 47.07C10.56 47.07 0 36.51 0 23.53C0 10.55 10.56 0 23.53 0C36.5 0 47.06 10.56 47.06 23.53C47.06 36.5 36.5 47.06 23.53 47.06V47.07ZM23.53 1.09C11.16 1.09 1.09 11.16 1.09 23.53C1.09 35.9 11.16 45.97 23.53 45.97C35.9 45.97 45.97 35.9 45.97 23.53C45.97 11.16 35.91 1.09 23.53 1.09Z" fill="#7F4F21"/>
<path d="M7.58984 23.5299L16.1098 15.8899L16.8998 16.4599L9.13984 23.0499H39.4798V24.0199H9.13984L16.8998 30.6099L16.1098 31.1699L7.58984 23.5299Z" fill="white"/>
</svg>
