<svg width="56" height="56" viewBox="0 0 56 56" fill="none" xmlns="http://www.w3.org/2000/svg">
<path d="M24.2002 38.9199C23.4802 38.9199 23.3902 38.5799 23.3402 38.4099C23.2902 38.2299 23.3402 38.0399 23.4402 37.8799C23.5502 37.7199 23.7202 37.6299 23.9002 37.6099C24.1602 37.6099 27.0202 37.6099 29.7902 37.6099C31.9102 37.6099 34.1702 37.6099 35.7302 37.6099C38.6102 37.6099 41.0002 35.9299 41.9702 33.2399C42.5502 31.6299 42.4102 29.7899 41.5902 28.1999C40.7702 26.6099 39.3402 25.4299 37.6902 24.9699C37.0602 24.7899 36.4102 24.6999 35.7602 24.6999C34.4902 24.6999 32.9702 24.6999 31.3502 24.6999C24.7302 24.6999 14.5102 24.6999 14.5102 24.6999C14.5102 24.6999 18.4702 28.7499 19.6702 29.9599C19.9002 30.1899 20.1002 30.5399 19.8002 30.9199C19.6802 31.0699 19.4902 31.1599 19.2902 31.1599C19.1902 31.1599 19.0402 31.1399 18.9002 31.0299C18.8202 30.9699 18.7402 30.8899 18.6602 30.8199C16.6102 28.7799 14.5702 26.7299 12.5202 24.6899C12.0402 24.2099 12.0402 23.9099 12.5202 23.4199L13.5302 22.4099C15.2502 20.6799 16.9802 18.9599 18.7102 17.2399C18.9002 17.0499 19.1202 16.9399 19.3302 16.9399C19.5102 16.9399 19.6602 17.0199 19.7902 17.1799C19.9902 17.4299 19.9902 17.7399 19.7902 17.9899C19.5702 18.2199 14.4902 23.3999 14.4902 23.3999H23.8802C27.8402 23.3999 32.5102 23.3999 35.5902 23.3999C36.7402 23.3999 37.6602 23.5499 38.4902 23.8699C41.0502 24.8599 42.6602 26.6499 43.3902 29.3199C43.3902 29.3299 43.3902 29.3499 43.4002 29.3599C43.4802 29.6099 43.7402 31.1599 43.6202 32.0099C43.6202 32.0299 43.6202 32.0399 43.6202 32.0599C43.6002 32.3599 43.4302 32.8999 43.3402 33.2199C42.5902 35.6999 41.0702 37.3799 38.7002 38.3799C37.8202 38.7499 36.8202 38.9299 35.6702 38.9299C33.9202 38.9299 32.1702 38.9299 30.4202 38.9299C29.0202 38.9299 24.1902 38.9299 24.1902 38.9299L24.2002 38.9199Z" fill="#B28247"/>
<path d="M27.93 55.86C12.53 55.86 0 43.33 0 27.93C0 12.53 12.53 0 27.93 0C43.33 0 55.86 12.53 55.86 27.93C55.86 43.33 43.33 55.86 27.93 55.86ZM27.93 1.3C13.24 1.3 1.3 13.24 1.3 27.93C1.3 42.62 13.25 54.56 27.93 54.56C42.61 54.56 54.56 42.61 54.56 27.93C54.56 13.25 42.61 1.3 27.93 1.3Z" fill="#B28247"/>
</svg>
