<svg width="56" height="56" viewBox="0 0 56 56" fill="none" xmlns="http://www.w3.org/2000/svg">
<circle cx="28" cy="28" r="27" fill="#B28247"/>
<path d="M27.93 55.86C12.53 55.86 0 43.33 0 27.93C0 12.53 12.53 0 27.93 0C43.33 0 55.86 12.53 55.86 27.93C55.86 43.33 43.33 55.86 27.93 55.86ZM27.93 1.3C13.24 1.3 1.3 13.24 1.3 27.93C1.3 42.62 13.25 54.56 27.93 54.56C42.61 54.56 54.56 42.61 54.56 27.93C54.56 13.25 42.61 1.3 27.93 1.3Z" fill="#B28247"/>
<path d="M24.04 38.98C23.32 38.98 23.23 38.64 23.18 38.47C23.13 38.29 23.18 38.1 23.28 37.94C23.39 37.78 23.56 37.69 23.74 37.67C24 37.67 26.86 37.67 29.63 37.67C31.75 37.67 34.01 37.67 35.57 37.67C38.45 37.67 40.84 35.99 41.81 33.3C42.39 31.69 42.25 29.85 41.43 28.26C40.61 26.67 39.18 25.49 37.53 25.03C36.9 24.85 36.25 24.76 35.6 24.76C34.33 24.76 32.81 24.76 31.19 24.76C24.57 24.76 14.35 24.76 14.35 24.76C14.35 24.76 18.31 28.81 19.51 30.02C19.74 30.25 19.94 30.6 19.64 30.98C19.52 31.13 19.33 31.22 19.13 31.22C19.03 31.22 18.88 31.2 18.74 31.09C18.66 31.03 18.58 30.95 18.5 30.88C16.45 28.84 14.41 26.79 12.36 24.75C11.88 24.27 11.88 23.97 12.36 23.48L13.37 22.47C15.09 20.74 16.82 19.02 18.55 17.3C18.74 17.11 18.96 17 19.17 17C19.35 17 19.5 17.08 19.63 17.24C19.83 17.49 19.83 17.8 19.63 18.05C19.41 18.28 14.33 23.46 14.33 23.46H23.72C27.68 23.46 32.35 23.46 35.43 23.46C36.58 23.46 37.5 23.61 38.33 23.93C40.89 24.92 42.5 26.71 43.23 29.38C43.23 29.39 43.23 29.41 43.24 29.42C43.32 29.67 43.58 31.22 43.46 32.07C43.46 32.09 43.46 32.1 43.46 32.12C43.44 32.42 43.27 32.96 43.18 33.28C42.43 35.76 40.91 37.44 38.54 38.44C37.66 38.81 36.66 38.99 35.51 38.99C33.76 38.99 32.01 38.99 30.26 38.99C28.86 38.99 24.03 38.99 24.03 38.99L24.04 38.98Z" fill="white"/>
</svg>
