<svg width="342" height="21" viewBox="0 0 342 21" fill="none" xmlns="http://www.w3.org/2000/svg">
<path d="M277.59 8.19008C277.28 10.5501 276.76 12.5101 276.03 14.0701C277.71 15.9601 280.23 16.3801 283.36 16.4001C283.85 16.4001 287.59 16.4001 288.27 16.3801C288.13 16.5801 287.98 16.9401 287.93 17.1501H283.34C280.03 17.1501 277.48 16.6901 275.67 14.7701C275.02 15.9301 274.28 16.8101 273.43 17.4901C273.31 17.3201 273 17.0301 272.8 16.9101C273.7 16.2501 274.48 15.3101 275.13 14.1201C274.5 13.2901 273.99 12.2201 273.58 10.8701L274.24 10.5801C274.55 11.7201 274.97 12.6201 275.48 13.3701C276.04 12.1001 276.47 10.5801 276.72 8.81008H273.93C274.7 7.59008 275.71 5.68008 276.5 4.10008H273.2V3.35008H277.72C276.97 4.83008 275.99 6.70008 275.2 8.06008H276.93L277.08 8.03008L277.57 8.18008L277.59 8.19008ZM282.28 4.50008H278.8V3.79008H282.28V2.33008H283.06V3.79008H286.73V6.05008H288.04V6.75008H286.73V9.06008H283.06V10.6201H287.14V11.3201H283.06V13.0201H287.84V13.7301H283.06V15.7501H282.28V13.7301H277.78V13.0201H282.28V11.3201H278.54V10.6201H282.28V9.06008H278.66V8.35008H282.28V6.75008H277.61V6.05008H282.28V4.50008ZM283.06 4.50008V6.05008H285.97V4.50008H283.06ZM285.97 6.74008H283.06V8.34008H285.97V6.74008Z" fill="#EB6519"/>
<path d="M297.11 11.4002C296.72 10.7502 295.61 9.24021 294.85 8.26021V17.6102H294.03V8.49021C293.23 10.7302 292.08 13.0302 290.95 14.3402C290.83 14.1002 290.59 13.8002 290.44 13.6302C291.77 12.1502 293.19 9.30021 293.87 6.75021H291.07V5.95021H294.03V2.22021H294.85V5.94021H297.28V6.74021H294.85V7.20021C295.46 7.91021 297.26 10.1402 297.69 10.6802L297.11 11.3902V11.4002ZM306.09 6.76021H304.24V16.3302C304.24 17.0802 304.04 17.3302 303.54 17.4902C303.05 17.6302 302.1 17.6402 300.65 17.6402C300.6 17.4002 300.45 17.0302 300.34 16.7702C301.53 16.8002 302.67 16.7902 302.97 16.7902C303.29 16.7702 303.39 16.6902 303.39 16.3602V7.85021C302.01 10.5202 299.87 13.2702 297.85 14.8202C297.75 14.6202 297.49 14.3102 297.29 14.1402C299.45 12.6302 301.79 9.58021 303.09 6.76021H298.01V5.96021H303.4V2.24021H304.23V5.96021H306.08V6.76021H306.09Z" fill="#EB6519"/>
<path d="M323.78 16.3304V17.0604H308.72V16.3304H315.77V14.5304H309.99V13.8204H315.77V12.3904H310.52V7.20037H315.77V5.94037H308.8V5.23037H315.77V3.72037C313.92 3.86037 312 3.94037 310.26 3.99037C310.26 3.79037 310.16 3.50037 310.09 3.33037C314 3.19037 318.91 2.89037 321.46 2.38037L321.99 3.01037C320.56 3.30037 318.64 3.52037 316.58 3.67037V5.23037H323.69V5.94037H316.58V7.20037H322.05V12.3804H316.58V13.8104H322.7V14.5204H316.58V16.3204H323.77L323.78 16.3304ZM311.3 9.48037H315.77V7.88037H311.3V9.48037ZM315.77 11.7204V10.1104H311.3V11.7204H315.77ZM316.59 7.88037V9.48037H321.25V7.88037H316.59ZM321.25 10.1104H316.59V11.7204H321.25V10.1104Z" fill="#EB6519"/>
<path d="M326.26 17.2703C326.96 16.5903 327.25 15.3303 327.38 14.1303L328.01 14.2803C327.86 15.5503 327.6 16.8803 326.87 17.6303L326.26 17.2703ZM326.5 12.5303C327.38 12.4803 328.52 12.4103 329.78 12.3403V10.7203H326.82V10.0103H329.78V8.58025H327.03V2.90025H333.44V8.58025H330.53V10.0103H333.66V10.7203H330.53V12.2803C331.62 12.2103 332.76 12.1403 333.9 12.0603L333.88 12.7403C331.19 12.9403 328.44 13.1603 326.55 13.2803L326.5 12.5203V12.5303ZM327.74 7.92025H329.83V3.56025H327.74V7.92025ZM328.66 4.35025C328.95 5.20025 329.19 6.32025 329.24 7.02025L328.68 7.16025C328.66 6.45025 328.44 5.32025 328.14 4.47025L328.67 4.35025H328.66ZM329.41 14.0903C329.7 15.0103 329.9 16.2303 329.9 17.0103L329.27 17.1103C329.27 16.3103 329.07 15.1003 328.79 14.1703L329.4 14.0903H329.41ZM330.97 13.9003C331.39 14.7503 331.79 15.8603 331.94 16.6003L331.29 16.7403C331.17 16.0103 330.8 14.9003 330.39 14.0503L330.97 13.9003ZM332.72 3.57025H330.48V7.92025H332.72V3.56025V3.57025ZM330.92 7.12025C331.16 6.37025 331.53 5.11025 331.69 4.28025L332.27 4.52025C332 5.44025 331.66 6.61025 331.35 7.31025L330.93 7.12025H330.92ZM332.52 13.5303C333.17 14.2903 333.81 15.3303 334.1 16.0103L333.51 16.3003C333.24 15.6003 332.59 14.5503 331.98 13.7803L332.52 13.5303ZM337.98 6.83025V10.3103H341.11V17.5303H340.33V16.7103H335.37V17.5903H334.61V10.3003H337.19V2.26025H337.99V6.05025H341.83V6.83025H337.99H337.98ZM340.33 11.0803H335.37V15.9603H340.33V11.0803Z" fill="#EB6519"/>
<path d="M0 17.6603L0.17 16.8803L1.71 16.3703C1.84 16.3303 1.97 16.2703 2.07 16.1803C2.18 16.0903 2.25 15.9603 2.28 15.8103L4.8 4.40031C4.84 4.24031 4.82 4.12031 4.76 4.04031C4.7 3.95031 4.61 3.89031 4.48 3.86031L2.94 3.34031L3.11 2.57031H9.6C10.92 2.57031 11.93 2.71031 12.64 2.99031C13.35 3.27031 13.85 3.63031 14.12 4.07031C14.39 4.51031 14.54 4.99031 14.54 5.50031C14.54 6.57031 14.16 7.47031 13.4 8.18031C12.64 8.89031 11.69 9.39031 10.55 9.66031V9.71031C11.67 9.80031 12.59 10.1103 13.29 10.6403C13.99 11.1803 14.34 11.9103 14.34 12.8303C14.34 13.7503 14.14 14.5303 13.74 15.1503C13.34 15.7703 12.81 16.2703 12.15 16.6303C11.49 17.0003 10.76 17.2603 9.95 17.4203C9.15 17.5803 8.34 17.6603 7.54 17.6603H0ZM7.53 16.2903C8.77 16.2903 9.69 16.0003 10.29 15.4303C10.89 14.8503 11.2 13.9603 11.2 12.7403C11.2 12.1303 11.06 11.6703 10.77 11.3503C10.49 11.0403 10.1 10.8303 9.61 10.7203C9.12 10.6103 8.56 10.5503 7.92 10.5503H6.1L6.38 9.28031H7.5C8.4 9.28031 9.14 9.16031 9.72 8.93031C10.3 8.70031 10.73 8.34031 11.01 7.86031C11.29 7.38031 11.43 6.77031 11.43 6.03031C11.43 5.50031 11.32 5.08031 11.1 4.78031C10.88 4.48031 10.57 4.26031 10.17 4.12031C9.77 3.99031 9.29 3.92031 8.74 3.92031H7.74L5 16.2803H7.54L7.53 16.2903Z" fill="#EB6519"/>
<path d="M22.69 18.0103C21.53 18.0103 20.56 17.8303 19.78 17.4703C19 17.1103 18.42 16.6303 18.03 16.0403C17.64 15.4503 17.45 14.8303 17.45 14.1703C17.45 13.9103 17.48 13.6203 17.54 13.3003C17.6 12.9803 17.66 12.7003 17.71 12.4703L19.5 4.40031C19.54 4.24031 19.52 4.12031 19.46 4.04031C19.4 3.95031 19.3 3.89031 19.16 3.86031L17.65 3.34031L17.81 2.57031H24.58L24.42 3.34031L22.89 3.86031C22.77 3.89031 22.65 3.95031 22.54 4.04031C22.43 4.13031 22.36 4.25031 22.32 4.41031L20.68 11.9303C20.63 12.1403 20.58 12.4003 20.53 12.7103C20.48 13.0203 20.46 13.3103 20.46 13.5803C20.46 14.0103 20.54 14.4403 20.7 14.8703C20.86 15.3003 21.16 15.6503 21.61 15.9303C22.05 16.2103 22.68 16.3503 23.49 16.3503C24.26 16.3503 24.9 16.2203 25.43 15.9703C25.95 15.7203 26.38 15.3903 26.73 14.9903C27.07 14.5903 27.34 14.1703 27.53 13.7203C27.72 13.2703 27.86 12.8503 27.96 12.4503L29.72 4.47031C29.76 4.34031 29.74 4.22031 29.68 4.13031C29.62 4.04031 29.53 3.97031 29.41 3.94031L27.86 3.34031L28.03 2.57031H33.57L33.4 3.34031L31.86 3.94031C31.72 3.98031 31.61 4.05031 31.5 4.13031C31.4 4.22031 31.33 4.33031 31.29 4.47031L29.41 12.9303C29.2 13.8803 28.85 14.6703 28.35 15.3203C27.85 15.9703 27.28 16.4903 26.63 16.8903C25.98 17.2803 25.31 17.5703 24.62 17.7503C23.93 17.9303 23.28 18.0203 22.68 18.0203L22.69 18.0103Z" fill="#EB6519"/>
<path d="M32.11 16.8803L33.7 16.3703C33.84 16.3303 33.96 16.2703 34.07 16.1803C34.17 16.0903 34.24 15.9603 34.27 15.8103L36.8 4.41031C36.84 4.25031 36.82 4.13031 36.76 4.04031C36.7 3.95031 36.61 3.89031 36.49 3.86031L34.88 3.34031L35.06 2.57031H41.94L41.77 3.34031L40.31 3.81031C40.17 3.86031 40.03 3.93031 39.89 4.02031C39.75 4.11031 39.67 4.24031 39.62 4.40031L37.08 15.8003C37.05 15.9603 37.07 16.0903 37.13 16.1803C37.19 16.2703 37.29 16.3303 37.41 16.3603L39 16.8703L38.83 17.6503H31.93L32.11 16.8703V16.8803Z" fill="#EB6519"/>
<path d="M40.78 16.8803L42.32 16.3703C42.45 16.3303 42.57 16.2703 42.68 16.1803C42.78 16.0903 42.85 15.9603 42.89 15.8103L45.42 4.41031C45.45 4.26031 45.43 4.14031 45.37 4.05031C45.31 3.96031 45.22 3.90031 45.1 3.86031L43.56 3.34031L43.72 2.57031H50.56L50.4 3.34031L48.83 3.86031C48.7 3.90031 48.57 3.96031 48.47 4.05031C48.36 4.14031 48.29 4.26031 48.26 4.40031L45.64 16.2703H50.93C51.06 16.2703 51.18 16.2203 51.28 16.1103C51.39 16.0003 51.47 15.8903 51.51 15.7703L52.85 12.7503H53.99L52.88 17.6603H40.61L40.78 16.8803Z" fill="#EB6519"/>
<path d="M54.14 17.6603L54.31 16.8803L55.86 16.3703C55.99 16.3303 56.11 16.2703 56.21 16.1803C56.32 16.0903 56.39 15.9603 56.42 15.8103L58.95 4.41031C58.99 4.25031 58.97 4.13031 58.91 4.04031C58.85 3.95031 58.76 3.89031 58.63 3.86031L57.08 3.34031L57.25 2.57031H64.1C64.78 2.57031 65.5 2.67031 66.27 2.86031C67.03 3.05031 67.74 3.37031 68.41 3.82031C69.07 4.27031 69.62 4.88031 70.04 5.67031C70.46 6.46031 70.67 7.43031 70.67 8.60031C70.67 10.1003 70.43 11.4203 69.96 12.5503C69.49 13.6803 68.84 14.6203 68.01 15.3803C67.18 16.1403 66.22 16.7103 65.12 17.0903C64.03 17.4703 62.86 17.6703 61.63 17.6703H54.14V17.6603ZM61.84 16.2903C62.78 16.2903 63.6 16.1003 64.31 15.7103C65.02 15.3303 65.62 14.8003 66.1 14.1203C66.58 13.4403 66.94 12.6603 67.19 11.7703C67.44 10.8803 67.56 9.93031 67.56 8.92031C67.56 7.91031 67.4 7.05031 67.07 6.31031C66.75 5.56031 66.27 4.98031 65.64 4.56031C65.01 4.14031 64.23 3.93031 63.3 3.93031H61.86L59.12 16.2903H61.83H61.84Z" fill="#EB6519"/>
<path d="M70.86 16.8803L72.45 16.3703C72.59 16.3303 72.71 16.2703 72.82 16.1803C72.92 16.0903 72.99 15.9603 73.02 15.8103L75.55 4.41031C75.59 4.25031 75.57 4.13031 75.51 4.04031C75.45 3.95031 75.36 3.89031 75.24 3.86031L73.63 3.34031L73.81 2.57031H80.69L80.52 3.34031L79.06 3.81031C78.92 3.86031 78.78 3.93031 78.64 4.02031C78.5 4.11031 78.42 4.24031 78.37 4.40031L75.83 15.8003C75.8 15.9603 75.82 16.0903 75.88 16.1803C75.94 16.2703 76.04 16.3303 76.16 16.3603L77.75 16.8703L77.58 17.6503H70.68L70.86 16.8703V16.8803Z" fill="#EB6519"/>
<path d="M79.54 16.8803L81.09 16.3003C81.23 16.2503 81.34 16.1803 81.45 16.0903C81.56 16.0003 81.62 15.8803 81.65 15.7303L84.17 4.41029C84.21 4.26029 84.19 4.14029 84.12 4.05029C84.05 3.96029 83.96 3.90029 83.84 3.86029L82.23 3.32029L82.4 2.55029H87.08L91.71 12.3803L92.29 13.7903H92.4L94.47 4.45029C94.51 4.30029 94.5 4.18029 94.43 4.10029C94.36 4.02029 94.27 3.95029 94.15 3.92029L92.59 3.32029L92.76 2.55029H98.32L98.14 3.32029L96.62 3.92029C96.49 3.96029 96.37 4.03029 96.27 4.11029C96.16 4.20029 96.09 4.31029 96.06 4.45029L93.67 15.2603L92.82 17.7603H91.27L86.22 7.07029L85.6 5.56029H85.49L83.24 15.7403C83.2 15.9203 83.22 16.0503 83.29 16.1303C83.36 16.2103 83.44 16.2703 83.54 16.3103L85.08 16.8903L84.91 17.6703H79.4L79.57 16.8903L79.54 16.8803Z" fill="#EB6519"/>
<path d="M104.33 17.9902C103.15 17.9902 102.1 17.7502 101.17 17.2802C100.24 16.8002 99.51 16.1002 98.97 15.1702C98.43 14.2402 98.16 13.1102 98.16 11.7602C98.16 10.4102 98.38 9.22023 98.82 8.07023C99.26 6.92023 99.88 5.90023 100.69 5.03023C101.49 4.16023 102.45 3.47023 103.55 2.98023C104.65 2.49023 105.86 2.24023 107.19 2.24023C108.38 2.24023 109.41 2.34023 110.28 2.53023C111.15 2.72023 111.87 2.90023 112.43 3.05023L112.72 3.14023L111.89 6.99023H110.78L110.65 4.92023C110.65 4.81023 110.6 4.72023 110.5 4.63023C110.4 4.54023 110.28 4.46023 110.14 4.40023C109.7 4.22023 109.16 4.04023 108.53 3.89023C107.9 3.74023 107.26 3.66023 106.62 3.66023C105.88 3.66023 105.18 3.85023 104.53 4.23023C103.88 4.61023 103.3 5.15023 102.81 5.86023C102.32 6.56023 101.93 7.40023 101.65 8.36023C101.37 9.32023 101.23 10.3802 101.23 11.5402C101.23 12.5302 101.38 13.4102 101.67 14.1802C101.96 14.9502 102.39 15.5602 102.96 16.0002C103.53 16.4402 104.22 16.6602 105.06 16.6602C105.66 16.6602 106.16 16.5902 106.58 16.4402C106.99 16.2902 107.31 16.1602 107.54 16.0502L108.31 12.5502C108.35 12.3902 108.33 12.2702 108.26 12.1902C108.19 12.1002 108.1 12.0402 107.99 12.0102L106.18 11.4902L106.36 10.7302H113.27L113.11 11.4902L111.66 12.0102C111.54 12.0502 111.43 12.1202 111.32 12.2002C111.21 12.2902 111.14 12.4002 111.11 12.5502L110.74 14.2002C110.6 14.8302 110.48 15.3802 110.39 15.8302C110.3 16.2802 110.24 16.6502 110.19 16.9302C109.35 17.2102 108.43 17.4702 107.44 17.6802C106.45 17.8902 105.42 18.0102 104.36 18.0102L104.33 17.9902Z" fill="#EB6519"/>
<path d="M119.71 16.8803L121.26 16.3003C121.4 16.2503 121.52 16.1803 121.62 16.0903C121.73 16.0003 121.79 15.8803 121.82 15.7303L124.33 4.39029C124.37 4.24029 124.35 4.12029 124.29 4.03029C124.23 3.94029 124.13 3.88029 124.01 3.84029L122.47 3.32029L122.64 2.55029H128.39L129.67 11.6403L129.88 13.6103H129.99L136.34 2.55029H142.01L141.84 3.32029L140.29 3.84029C140.16 3.87029 140.05 3.93029 139.94 4.02029C139.84 4.11029 139.77 4.23029 139.73 4.38029L137.19 15.7803C137.16 15.9403 137.18 16.0703 137.23 16.1603C137.29 16.2503 137.38 16.3103 137.52 16.3503L139.06 16.8603L138.89 17.6403H132.12L132.28 16.8603L133.79 16.3503C133.93 16.3103 134.05 16.2503 134.16 16.1603C134.26 16.0703 134.33 15.9403 134.37 15.7903L136.91 4.45029H136.77L135.83 6.16029L130.55 15.2603L129.01 17.6503H127.77L126.16 6.15029L125.99 4.40029H125.87L123.35 15.7303C123.31 15.8903 123.31 16.0203 123.37 16.1003C123.43 16.1903 123.52 16.2503 123.65 16.2903L125.18 16.8703L125.02 17.6503H119.53L119.7 16.8703L119.71 16.8803Z" fill="#EB6519"/>
<path d="M139.59 17.6603L139.75 16.8803L140.86 16.4003C140.99 16.3403 141.11 16.2603 141.24 16.1403C141.36 16.0303 141.47 15.9103 141.54 15.7903L148.21 4.86033L150.02 2.34033H151.62L153.9 15.8203C153.92 15.9503 153.97 16.0803 154.05 16.2003C154.13 16.3203 154.23 16.4003 154.37 16.4503L155.51 16.8803L155.34 17.6603H149.24L149.4 16.8803L151.19 16.2903L149.61 7.15033L149.44 5.72033L149.31 5.62033L143 16.2403L144.74 16.8703L144.57 17.6503H139.59V17.6603ZM145.1 12.4103L145.93 11.0603H150.45L150.7 12.4103H145.1Z" fill="#EB6519"/>
<path d="M157.59 16.8903L159.28 16.3803C159.43 16.3403 159.55 16.2703 159.65 16.1803C159.75 16.0903 159.81 15.9703 159.85 15.8103L162.48 3.94029H159.25C159.13 3.94029 159.02 3.98029 158.94 4.05029C158.85 4.12029 158.78 4.22029 158.72 4.33029L157.56 6.64029H156.45L157.37 2.55029H171L170.07 6.64029H168.97L168.85 4.33029C168.85 4.20029 168.81 4.10029 168.75 4.04029C168.69 3.97029 168.6 3.94029 168.48 3.94029H165.3L162.65 15.8103C162.63 15.9703 162.65 16.0903 162.71 16.1803C162.77 16.2703 162.87 16.3403 162.99 16.3703L164.68 16.8803L164.53 17.6503H157.42L157.59 16.8803V16.8903Z" fill="#EB6519"/>
<path d="M169.17 17.6603L169.34 16.8803L170.88 16.3703C171.01 16.3303 171.13 16.2703 171.24 16.1803C171.34 16.0903 171.41 15.9603 171.45 15.8103L173.98 4.41031C174.02 4.25031 174 4.13031 173.93 4.04031C173.86 3.95031 173.77 3.89031 173.66 3.86031L172.1 3.34031L172.27 2.57031H184.44L183.57 6.51031H182.44L182.29 4.36031C182.29 4.23031 182.25 4.13031 182.19 4.07031C182.13 4.00031 182.04 3.97031 181.92 3.97031H176.91L174.18 16.2903H180.28C180.39 16.2903 180.5 16.2503 180.59 16.1803C180.68 16.1103 180.76 16.0103 180.81 15.8903L181.97 13.4703H183.08L182.15 17.6803H169.17V17.6603ZM175.28 10.4903L175.59 9.14031H178.8C178.94 9.14031 179.05 9.11031 179.13 9.04031C179.21 8.97031 179.28 8.88031 179.35 8.76031L180.28 7.05031H181.23L180 12.5803H179.06L178.86 10.8903C178.85 10.7603 178.82 10.6603 178.77 10.6003C178.73 10.5303 178.63 10.5003 178.48 10.5003H175.27L175.28 10.4903Z" fill="#EB6519"/>
<path d="M184.06 16.8801L185.6 16.3701C185.73 16.3301 185.85 16.2701 185.95 16.1801C186.06 16.0901 186.13 15.9601 186.16 15.8101L188.69 4.41008C188.73 4.25008 188.71 4.13008 188.65 4.05008C188.59 3.96008 188.5 3.90008 188.37 3.87008L186.83 3.35008L186.98 2.58008H193.68C195.02 2.58008 196.04 2.75008 196.76 3.08008C197.48 3.41008 197.97 3.83008 198.24 4.34008C198.51 4.85008 198.65 5.38008 198.65 5.93008C198.65 6.61008 198.52 7.20008 198.26 7.73008C198 8.25008 197.66 8.71008 197.23 9.10008C196.8 9.49008 196.33 9.80008 195.82 10.0401C195.31 10.2801 194.8 10.4601 194.3 10.5801L197.08 15.6901C197.16 15.8501 197.26 16.0001 197.39 16.1401C197.52 16.2801 197.66 16.3801 197.81 16.4301L199.42 16.9001L199.25 17.6801H196.23C195.8 17.6801 195.47 17.6401 195.25 17.5601C195.03 17.4801 194.86 17.3401 194.74 17.1501C194.62 16.9601 194.47 16.7001 194.3 16.3801C194.07 15.9401 193.84 15.4901 193.6 15.0501C193.36 14.6001 193.13 14.1601 192.9 13.7201C192.67 13.2801 192.44 12.8501 192.23 12.4301C192.01 12.0101 191.81 11.6101 191.61 11.2201L189.91 10.7901L190.16 9.67008C190.27 9.71008 190.44 9.73008 190.68 9.76008C190.92 9.79008 191.17 9.80008 191.43 9.82008C191.69 9.84008 191.9 9.85008 192.05 9.85008C192.82 9.85008 193.47 9.68008 194 9.35008C194.52 9.02008 194.91 8.58008 195.17 8.03008C195.43 7.49008 195.56 6.90008 195.56 6.26008C195.56 5.47008 195.33 4.89008 194.86 4.52008C194.39 4.15008 193.7 3.96008 192.78 3.96008H191.63L188.98 15.8301C188.95 15.9901 188.97 16.1201 189.03 16.2101C189.09 16.3001 189.18 16.3601 189.31 16.4001L190.9 16.9101L190.73 17.6901H183.89L184.06 16.9101V16.8801Z" fill="#EB6519"/>
<path d="M199.81 16.8803L201.4 16.3703C201.54 16.3303 201.66 16.2703 201.77 16.1803C201.87 16.0903 201.94 15.9603 201.97 15.8103L204.5 4.41031C204.54 4.25031 204.52 4.13031 204.46 4.04031C204.4 3.95031 204.31 3.89031 204.19 3.86031L202.58 3.34031L202.76 2.57031H209.64L209.47 3.34031L208.01 3.81031C207.87 3.86031 207.73 3.93031 207.59 4.02031C207.45 4.11031 207.37 4.24031 207.32 4.40031L204.78 15.8003C204.75 15.9603 204.77 16.0903 204.83 16.1803C204.89 16.2703 204.99 16.3303 205.11 16.3603L206.7 16.8703L206.53 17.6503H199.63L199.81 16.8703V16.8803Z" fill="#EB6519"/>
<path d="M207.2 17.6603L207.36 16.8803L208.47 16.4003C208.6 16.3403 208.72 16.2603 208.85 16.1403C208.97 16.0303 209.08 15.9103 209.15 15.7903L215.82 4.86033L217.63 2.34033H219.23L221.51 15.8203C221.53 15.9503 221.58 16.0803 221.66 16.2003C221.74 16.3203 221.84 16.4003 221.98 16.4503L223.12 16.8803L222.95 17.6603H216.85L217.01 16.8803L218.8 16.2903L217.22 7.15033L217.05 5.72033L216.92 5.62033L210.61 16.2403L212.35 16.8703L212.18 17.6503H207.2V17.6603ZM212.71 12.4103L213.54 11.0603H218.06L218.31 12.4103H212.71Z" fill="#EB6519"/>
<path d="M223.57 16.8803L225.11 16.3703C225.24 16.3303 225.36 16.2703 225.47 16.1803C225.57 16.0903 225.64 15.9603 225.68 15.8103L228.21 4.41031C228.24 4.26031 228.22 4.14031 228.16 4.05031C228.1 3.96031 228.01 3.90031 227.89 3.86031L226.35 3.34031L226.51 2.57031H233.35L233.19 3.34031L231.62 3.86031C231.49 3.90031 231.36 3.96031 231.26 4.05031C231.15 4.14031 231.08 4.26031 231.05 4.40031L228.43 16.2703H233.72C233.85 16.2703 233.97 16.2203 234.07 16.1103C234.18 16.0003 234.26 15.8903 234.3 15.7703L235.64 12.7503H236.78L235.67 17.6603H223.4L223.57 16.8803Z" fill="#EB6519"/>
<path d="M242.37 18.01C241.57 18.01 240.7 17.9 239.78 17.68C238.86 17.46 238 17.22 237.22 16.95L238.05 12.78H239.16L239.34 14.96C239.34 15.07 239.38 15.17 239.46 15.27C239.54 15.37 239.65 15.46 239.78 15.55C240.07 15.76 240.43 15.94 240.86 16.1C241.29 16.26 241.72 16.39 242.14 16.47C242.56 16.55 242.89 16.6 243.12 16.6C243.72 16.6 244.28 16.5 244.8 16.3C245.32 16.1 245.73 15.79 246.04 15.38C246.35 14.97 246.5 14.46 246.5 13.85C246.5 13.31 246.33 12.87 245.99 12.54C245.65 12.21 245.22 11.92 244.69 11.68C244.22 11.47 243.76 11.27 243.3 11.08C242.84 10.89 242.38 10.69 241.93 10.47C241.45 10.25 241.02 9.98 240.64 9.67C240.26 9.36 239.96 8.99 239.74 8.56C239.52 8.13 239.41 7.64 239.41 7.08C239.41 6.31 239.59 5.63 239.94 5.04C240.29 4.45 240.77 3.94 241.36 3.53C241.96 3.11 242.62 2.8 243.35 2.58C244.08 2.36 244.82 2.25 245.57 2.25C246.42 2.25 247.24 2.34 248.05 2.52C248.86 2.7 249.63 2.89 250.37 3.11L249.52 7.06H248.42L248.25 5.01C248.24 4.9 248.18 4.79 248.08 4.68C247.98 4.57 247.85 4.48 247.68 4.39C247.42 4.22 247.13 4.08 246.79 3.97C246.46 3.86 246.13 3.78 245.82 3.74C245.51 3.69 245.25 3.67 245.03 3.67C244.21 3.67 243.54 3.91 243 4.39C242.47 4.87 242.2 5.48 242.2 6.22C242.2 6.75 242.37 7.19 242.72 7.54C243.06 7.89 243.54 8.2 244.13 8.46C244.56 8.66 245 8.85 245.44 9.03C245.88 9.21 246.33 9.41 246.78 9.63C247.23 9.85 247.66 10.11 248.06 10.41C248.46 10.71 248.78 11.07 249.04 11.49C249.3 11.91 249.42 12.41 249.42 13.01C249.42 13.83 249.23 14.55 248.84 15.18C248.45 15.81 247.93 16.33 247.27 16.75C246.61 17.17 245.86 17.49 245.01 17.71C244.17 17.93 243.28 18.04 242.36 18.04L242.37 18.01Z" fill="#EB6519"/>
<path d="M261.86 0V21" stroke="#EB6519" stroke-width="0.75" stroke-miterlimit="10"/>
</svg>
