<?xml version="1.0" encoding="UTF-8"?>
<svg id="_圖層_2" data-name="圖層 2" xmlns="http://www.w3.org/2000/svg" viewBox="0 0 800.7 78.46">
  <defs>
    <style>
      .cls-1 {
        fill: #f7f8b8;
      }

      .cls-2 {
        fill: #fff;
      }
    </style>
  </defs>
  <g id="_圖層_4" data-name="圖層 4">
    <g>
      <path class="cls-2" d="M2.09,40.61c1.61,.23,3.77,.31,7.38,.31h11.24c2.97,0,4.57-.08,6.02-.31l5.86,5.15q-.32,.47-.88,1.48c-3.45,5.86-6.26,9.53-10.03,13.2-4.41,4.22-9.23,7.5-15.73,10.7-2.17-4.14-2.97-5.39-5.94-8.75,8.91-3.51,14.29-7.18,18.94-12.96H9.47c-2.97,0-5.22,.08-7.38,.39v-9.21Zm68.7,2.34c-.88,.78-1.2,1.09-2.25,2.03-3.85,3.51-6.9,5.93-9.95,8.04,5.3,3.75,10.67,6.4,16.85,8.28-2.65,3.28-4.09,5.78-6.02,9.92-4.98-2.11-8.51-4.06-12.44-6.87-6.66-4.76-10.83-9.29-14.37-15.46,.16,3.05,.16,4.22,.16,6.87v8.67c0,3.67-.96,5.78-3.21,6.95-1.85,1.02-4.01,1.33-8.35,1.33-2.25,0-3.13,0-7.38-.31-.64-3.9-1.2-5.78-2.65-9.68,3.61,.47,5.78,.62,7.78,.62,3.45,0,3.85-.23,3.85-1.87v-24.44h-15.65c-4.49,0-6.5,.08-8.35,.23,.24-2.42,.32-3.75,.32-8.51V15.38c0-4.22-.08-6.48-.4-8.75,2.49,.23,5.38,.31,9.47,.31h11.56c1.44-3.36,2.01-5.08,2.33-6.72l11.96,.86q-.24,.55-.88,1.72c-.08,.16-.4,.86-.88,1.8-.4,.86-.4,.94-1.12,2.34h16.21c4.09,0,7.06-.08,9.47-.31-.32,2.42-.4,4.22-.4,8.43v13.67c0,4.45,.08,6.01,.32,8.51-2.65-.16-4.74-.23-8.35-.23h-14.69c2.25,3.75,4.17,6.33,7.38,9.61,5.46-3.67,8.67-6.56,10.67-9.53l8.99,5.86ZM19.18,18.66H56.5v-3.9H19.18v3.9Zm0,11.01H56.5v-3.9H19.18v3.9Z"/>
      <path class="cls-2" d="M87.73,11.95c-1.52,.08-2.25,.16-3.29,.31V2.34c2.09,.39,3.69,.47,7.22,.47h13.4c3.69,0,5.62-.08,7.38-.39V11.87l-3.13-.16v53.18c0,4.29,.08,6.4,.4,8.51h-9.71c.32-2.34,.4-4.76,.4-8.51v-4.92c-1.36,.39-5.62,1.64-12.68,3.59q-1.28,.31-2.57,.78l-1.85-10.15c.88,0,2.01-.16,4.41-.55V11.95Zm8.51,7.57h4.66v-7.57h-4.66v7.57Zm0,15.31h4.66v-7.26h-4.66v7.26Zm0,17.1c1.77-.47,1.93-.47,4.66-1.17v-7.89h-4.66v9.06ZM157.72,13.35c-4.33,5.78-7.06,9.06-13.08,15.23,2.81-.16,3.93-.23,6.02-.39-.48-1.25-.72-1.8-1.61-3.67l6.34-2.34c2.41,5,3.61,8.51,4.82,14.06l-7.22,2.5c-.24-2.11-.32-2.73-.56-4.22-3.13,.47-3.77,.55-7.14,.94-3.21,.39-3.53,.47-7.14,.78-1.04,.08-1.69,.16-2.01,.23l.16,1.09-4.33,1.33h1.28c-.16,1.25-.16,1.72-.16,3.36v2.19c0,9.29-.56,13.67-2.33,17.8-1.44,3.44-4.33,6.56-8.11,8.98-1.61,1.02-3.21,1.8-6.5,3.12-1.85-3.51-3.05-5.23-5.54-7.89,3.77-.94,5.46-1.64,7.62-3.05,2.25-1.48,3.61-2.97,4.74-5.39h-2.73v.08h-8.35c.24-1.56,.32-2.5,.32-3.67v-10.78c0-1.33-.08-2.42-.24-3.67h8.35c-.16,1.17-.24,2.34-.24,4.06v5.7h4.41c.08-2.03,.08-2.19,.08-6.09,0-2.11-.08-3.36-.24-4.76h5.22q-.24-1.95-.4-3.28c-7.14,.86-7.62,.94-13.24,1.33q-3.69,.31-5.22,.55l-1.36-8.2q.8,.08,3.21,.08c2.57-2.73,3.21-3.44,4.49-4.84-2.17-2.89-4.41-5.47-7.7-8.75l5.22-6.25,1.04,.94c2.09-2.81,4.25-6.72,5.7-10.46l8.03,3.44c-3.37,5.54-5.78,8.98-8.59,12.26,.8,.94,1.04,1.17,1.85,2.11,2.97-3.75,3.85-5.15,5.78-8.51l3.29,1.87,3.29-3.98c1.12,1.09,1.44,1.48,2.41,2.42,2.17-2.65,4.09-6.01,5.54-9.45l8.03,3.51c-2.97,4.84-5.14,7.89-8.43,11.64,.88,1.02,1.12,1.33,2.09,2.58,2.65-3.36,3.61-4.76,6.18-8.82l6.98,4.29Zm-22.63,15.46c1.77-1.72,2.81-2.89,3.93-4.22-1.93-2.58-4.17-5.23-6.5-7.57-3.85,4.84-7.7,9.14-10.75,12.1q2.49-.16,5.94-.47c-.4-1.48-.64-2.03-1.36-3.83l6.1-1.8c1.04,2.73,1.36,3.51,2.09,5.78h.56Zm9.95,38.03c0,2.03,.16,4.37,.48,6.48h-10.03c.32-2.19,.4-3.51,.4-6.33v-23.35c0-1.02,0-2.58-.08-4.76h8.99c-.24,1.41-.32,2.65-.32,4.69v6.09h4.65v-5.23c0-1.72-.08-2.97-.24-4.37h8.75c-.16,1.41-.24,2.65-.24,4.29v12.49c0,1.64,.08,2.89,.32,4.29h-8.83c.16-1.17,.16-1.41,.24-3.12h-4.09v8.82Z"/>
      <path class="cls-2" d="M189.51,26.32c2.97,0,4.49-.08,5.54-.16-.48,5.39-.96,9.92-1.12,11.32-.96,6.72-2.41,11.71-5.14,17.65,6.18,5.54,12.68,7.18,28.81,7.18,10.11,0,19.02-.31,26.81-1.02-1.45,3.98-1.93,6.01-2.41,10.23-5.7,.08-20.95,.23-24.24,.23-17.34,0-26-2.26-33.55-8.82-3.13,4.29-6.02,7.26-10.11,10.7-2.41-4.37-3.45-5.78-6.58-8.82,4.9-3.9,7.14-6.09,9.79-9.68-1.77-2.58-3.13-4.76-4.49-7.34q-2.17-3.98-3.05-5.54l8.27-4.61c1.44,4.14,2.25,5.78,4.01,8.98,1.45-3.83,2.01-6.09,2.89-11.48h-7.95c-2.25,0-4.33,.08-6.1,.23v-9.14c3.93-3.83,7.7-8.51,11-13.67h-6.82c-2.01,0-3.45,.08-5.46,.31V3.28c1.93,.23,3.37,.31,5.86,.31h9.15c3.13,0,4.41-.08,5.7-.31l4.65,6.09c-.56,.7-1.77,2.58-3.77,5.78-1.36,2.11-1.85,2.81-7.95,11.17h6.26Zm21.59-13.98h-8.91c-2.01,0-4.01,.08-5.62,.23V4.68c2.01,.23,3.45,.31,6.34,.31h8.19c0-2.26-.08-3.05-.4-4.76h10.59c-.32,1.41-.4,2.26-.48,4.76h11.56c2.41,0,4.33-.08,6.18-.31-.16,1.56-.24,2.97-.24,5v5.62c2.33-.08,3.53-.16,5.22-.47v8.9c-1.77-.23-2.97-.31-5.22-.31v5.54c0,1.72,.08,3.36,.24,4.76-1.93-.16-3.53-.23-5.46-.23h-12.28v3.67h12.28c2.81,0,4.49-.08,6.58-.31v8.12c-1.77-.16-3.77-.23-6.58-.23h-12.28v3.59h14.69c3.37,0,5.14-.08,7.06-.39v8.28c-2.01-.16-4.17-.23-7.06-.23h-14.69c.08,2.26,.16,3.12,.4,4.69h-10.59c.32-1.72,.4-2.42,.48-4.69h-10.59c-3.45,0-4.9,.08-6.74,.23v-8.2c1.93,.23,4.01,.31,6.82,.31h10.51v-3.59h-8.67c-2.25,0-4.33,.08-6.18,.31v-8.2c1.93,.23,3.61,.31,6.18,.31h8.67v-3.67h-9.07c-2.17,0-3.13,.08-4.98,.23v-7.65c1.69,.23,2.73,.31,5.54,.31h8.51v-3.44h-11.8c-3.37,0-4.41,0-6.58,.23v-7.73c1.85,.23,2.81,.31,6.98,.31h11.4v-3.44Zm17.74,3.44v-3.44h-8.03v3.44h8.03Zm-8.03,10.62h8.03v-3.44h-8.03v3.44Z"/>
      <path class="cls-2" d="M253.4,13.2c1.93,.31,3.45,.39,6.5,.39h17.18c3.37,0,4.81-.08,6.5-.31v9.14c-1.93-.23-2.49-.23-6.18-.23h-17.5c-2.89,0-4.66,.08-6.5,.31V13.2Zm31.06,19.6c1.69,.23,2.57,.31,4.9,.31-2.41-2.26-5.14-4.37-7.62-5.86v6.33c-1.68-.23-2.49-.23-4.9-.23h-15.73c-2.41,0-3.61,.08-5.06,.23v-8.12c1.53,.16,2.57,.23,5.06,.23h15.73c2.65,0,3.53,0,4.9-.23v1.56c5.94-4.45,7.78-9.21,7.78-19.68,0-1.8-.08-3.05-.4-4.76,2.01,.23,3.77,.31,6.34,.31h13.56c2.81,0,4.57-.08,6.66-.31-.16,1.72-.24,3.51-.24,6.17v11.32c0,.94,.48,1.17,2.09,1.17q2.73,0,3.05-9.14c2.81,1.48,4.9,2.26,8.11,3.2-.48,7.34-1.04,10.23-2.49,12.1-1.45,1.95-3.45,2.42-9.95,2.42-8.59,0-10.19-.86-10.19-5.39V11.95h-7.14c-.32,7.34-1.45,11.64-4.49,16.32-1.28,1.95-2.25,3.12-4.09,4.84h23.27c2.89,0,4.41-.08,5.46-.23l4.98,4.69q-.48,.94-1.61,3.36c-3.29,7.42-6.18,11.95-10.43,16.71,4.9,2.5,9.71,4.14,17.02,5.62-2.25,3.75-3.45,6.25-4.74,10-9.39-2.89-14.85-5.31-19.98-8.75-5.54,3.9-10.83,6.56-18.38,8.98-1.28-2.89-2.25-4.53-3.93-6.95,0,3.2,.08,3.9,.24,5.7h-9.39v-2.42h-7.62v3.51h-9.71c.24-2.58,.4-5.08,.4-7.73v-11.95c0-2.5-.08-3.9-.32-6.01,1.93,.16,3.45,.23,6.1,.23h15.33c2.97,0,3.85,0,5.14-.23-.16,1.56-.16,2.65-.16,5.47v10.7c5.54-1.48,10.11-3.28,14.21-5.78-1.77-1.64-2.89-2.89-4.01-4.22q-5.3-6.48-6.18-7.42l8.27-4.29h-3.37c-2.73,0-4.49,.08-6.42,.31v-9.61ZM255.89,2.19c2.25,.23,3.53,.31,6.98,.31h12.04c3.45,0,4.74-.08,6.98-.31V10.39c-2.25-.16-3.77-.23-6.98-.23h-12.04c-3.05,0-5.06,.08-6.98,.23V2.19Zm.16,34.36c1.53,.16,2.57,.23,5.06,.23h15.73c2.57,0,3.53-.08,4.9-.23v8.12c-1.68-.23-2.41-.23-5.06-.23h-15.65c-2.49,0-3.37,0-4.98,.23v-8.12Zm9.07,25.3h7.7v-6.4h-7.7v6.4Zm30.1-19.76c2.97,4.76,4.81,7.03,8.59,10.07,3.05-3.05,4.74-5.39,7.22-10.07h-15.81Z"/>
    </g>
    <g>
      <path class="cls-1" d="M360.13,74.54c.12-.81,.16-1.51,.16-2.6v-10.9c0-.97-.04-1.69-.16-2.6,.86,.04,1.49,.06,2.55,.06h4.2c1.95,0,3.31,.46,4.28,1.43,.82,.81,1.25,2.01,1.25,3.46,0,1.53-.46,2.78-1.35,3.71-.98,.99-2.35,1.45-4.28,1.45h-3.84v3.36c0,1.09,.04,1.85,.16,2.62h-2.97Zm6.65-8.3c1.85,0,2.85-.99,2.85-2.76,0-.81-.22-1.47-.66-1.93-.46-.5-1.13-.73-2.19-.73h-3.84v5.42h3.84Z"/>
      <path class="cls-1" d="M387.12,62.97c-.14,.87-.16,1.49-.16,2.62v6.32c0,1.11,.04,1.79,.16,2.62h-2.73v-1.07c0-.3,0-.36,.02-.87-1.11,1.57-2.21,2.16-4.12,2.16-1.02,0-1.75-.18-2.41-.58-1.1-.7-1.63-1.83-1.63-3.48v-5.1c0-1.11-.06-1.87-.16-2.62h2.91c-.12,.91-.14,1.59-.14,2.62v4.47c0,1.17,.3,1.91,.92,2.3,.3,.16,.72,.28,1.1,.28,1.45,0,2.59-.99,3.49-2.98v-4.07c0-.99-.06-1.75-.16-2.62h2.89Z"/>
      <path class="cls-1" d="M399.22,65.51c-.84-.24-1.26-.32-1.79-.32-1,0-1.77,.32-2.33,.99-.5,.58-.7,1.05-.82,2.01v3.73c0,1.09,.04,1.67,.14,2.62h-2.87c.1-.99,.14-1.57,.14-2.62v-6.32c0-1.23-.02-1.79-.14-2.62h2.73v1.89c.72-1.43,1.97-2.11,3.78-2.11,.48,0,.96,.06,1.87,.22l-.7,2.54Z"/>
      <path class="cls-1" d="M405.51,70.91c.34,1.37,1.08,1.91,2.65,1.91s2.41-.58,2.41-1.53c0-.4-.2-.79-.52-1.01-.38-.26-.5-.28-2.11-.64-1.59-.34-2.21-.54-2.89-.87-1.14-.54-1.77-1.51-1.77-2.68,0-.7,.22-1.37,.62-1.87,.82-1.05,2.19-1.57,4.02-1.57,1.65,0,2.95,.4,3.78,1.17,.52,.5,.8,1.01,1.08,1.99l-2.65,.34c-.22-1.11-.9-1.59-2.21-1.59s-2.09,.56-2.09,1.41c0,.38,.22,.73,.62,.95,.44,.22,.86,.34,2.01,.6,2.05,.44,2.87,.73,3.54,1.23,.78,.56,1.16,1.39,1.16,2.5,0,.83-.38,1.71-.98,2.28-.92,.87-2.33,1.31-4.16,1.31-2.07,0-3.62-.62-4.48-1.79-.36-.48-.54-.89-.78-1.79l2.75-.34Z"/>
      <path class="cls-1" d="M428.05,62.97c-.14,.87-.16,1.49-.16,2.62v6.32c0,1.11,.04,1.79,.16,2.62h-2.73v-1.07c0-.3,0-.36,.02-.87-1.11,1.57-2.21,2.16-4.12,2.16-1.02,0-1.75-.18-2.41-.58-1.1-.7-1.63-1.83-1.63-3.48v-5.1c0-1.11-.06-1.87-.16-2.62h2.91c-.12,.91-.14,1.59-.14,2.62v4.47c0,1.17,.3,1.91,.92,2.3,.3,.16,.72,.28,1.1,.28,1.45,0,2.59-.99,3.49-2.98v-4.07c0-.99-.06-1.75-.16-2.62h2.89Z"/>
      <path class="cls-1" d="M434.51,69.42c.1,1.11,.28,1.67,.74,2.26,.58,.72,1.49,1.13,2.51,1.13s1.83-.36,2.41-1.01c.24-.28,.38-.5,.58-1.05l2.37,.77c-.46,.97-.72,1.35-1.23,1.85-1.04,1.03-2.45,1.55-4.14,1.55-3.56,0-5.8-2.38-5.8-6.14s2.23-6.16,5.66-6.16c2.35,0,4.2,1.17,5,3.18,.38,.97,.52,1.69,.58,3.06,0,.04,0,.1,.04,.56h-8.74Zm6.13-1.99c-.14-.89-.38-1.43-.88-1.93-.54-.54-1.23-.81-2.17-.81-1.57,0-2.71,1.05-3.01,2.74h6.07Z"/>
      <path class="cls-1" d="M458.34,63.96c0,.22,0,.44-.02,.7,1.1-1.41,2.29-1.97,4.1-1.97,1.61,0,2.89,.48,3.82,1.41,1.06,1.09,1.59,2.6,1.59,4.63,0,3.71-2.03,5.94-5.44,5.94-1.77,0-3.09-.62-4.06-1.93q0,.24,.02,.64c.02,.14,.02,.5,.02,.87v1.53c0,1.19,.04,1.83,.14,2.68h-2.83c.1-.95,.14-1.63,.14-2.66v-10.13c0-1.17-.04-1.83-.14-2.7h2.67v.99Zm3.6,.89c-1.99,0-3.49,1.65-3.49,3.81,0,2.3,1.49,3.91,3.58,3.91,1.97,0,3.19-1.49,3.19-3.87s-1.24-3.85-3.27-3.85Z"/>
      <path class="cls-1" d="M473.83,69.42c.1,1.11,.28,1.67,.74,2.26,.58,.72,1.49,1.13,2.51,1.13s1.83-.36,2.41-1.01c.24-.28,.38-.5,.58-1.05l2.37,.77c-.46,.97-.72,1.35-1.23,1.85-1.04,1.03-2.45,1.55-4.14,1.55-3.56,0-5.8-2.38-5.8-6.14s2.23-6.16,5.66-6.16c2.35,0,4.2,1.17,5,3.18,.38,.97,.52,1.69,.58,3.06,0,.04,0,.1,.04,.56h-8.74Zm6.13-1.99c-.14-.89-.38-1.43-.88-1.93-.54-.54-1.23-.81-2.17-.81-1.57,0-2.71,1.05-3.01,2.74h6.07Z"/>
      <path class="cls-1" d="M494.15,65.51c-.84-.24-1.26-.32-1.79-.32-1,0-1.77,.32-2.33,.99-.5,.58-.7,1.05-.82,2.01v3.73c0,1.09,.04,1.67,.14,2.62h-2.87c.1-.99,.14-1.57,.14-2.62v-6.32c0-1.23-.02-1.79-.14-2.62h2.73v1.89c.72-1.43,1.97-2.11,3.78-2.11,.48,0,.96,.06,1.87,.22l-.7,2.54Z"/>
      <path class="cls-1" d="M499.05,65.09c-.76,0-1.29,.04-1.91,.12v-2.36c.56,.08,1.16,.12,1.89,.12h.82v-1.07c0-2.5,1.26-3.67,4-3.67,.9,0,1.57,.1,2.49,.4l-.54,2.11c-.6-.34-1.1-.48-1.79-.48-1.16,0-1.57,.48-1.57,1.87v.83h.94c.8,0,1.43-.04,2.27-.12v2.36c-.7-.08-1.24-.12-2.23-.12h-.98v6.83c0,1.15,.04,1.73,.14,2.62h-2.87c.1-.95,.14-1.57,.14-2.62v-6.83h-.8Z"/>
      <path class="cls-1" d="M511.71,69.42c.1,1.11,.28,1.67,.74,2.26,.58,.72,1.49,1.13,2.51,1.13s1.83-.36,2.41-1.01c.24-.28,.38-.5,.58-1.05l2.37,.77c-.46,.97-.72,1.35-1.23,1.85-1.04,1.03-2.45,1.55-4.14,1.55-3.56,0-5.8-2.38-5.8-6.14s2.23-6.16,5.66-6.16c2.35,0,4.2,1.17,5,3.18,.38,.97,.52,1.69,.58,3.06,0,.04,0,.1,.04,.56h-8.74Zm6.13-1.99c-.14-.89-.38-1.43-.88-1.93-.54-.54-1.23-.81-2.17-.81-1.57,0-2.71,1.05-3.01,2.74h6.07Z"/>
      <path class="cls-1" d="M532.33,66.84c-.22-.62-.36-.91-.62-1.23-.48-.6-1.19-.93-2.07-.93-1.97,0-3.19,1.55-3.19,4.05s1.25,4.07,3.27,4.07c1,0,1.81-.4,2.31-1.13,.18-.28,.28-.5,.4-1.01l2.49,.5c-.28,.81-.48,1.23-.84,1.71-.96,1.33-2.51,2.03-4.42,2.03-3.53,0-5.82-2.4-5.82-6.12,0-1.89,.6-3.52,1.71-4.65,.98-1.01,2.39-1.53,4.04-1.53,1.97,0,3.54,.77,4.5,2.18,.26,.4,.42,.72,.7,1.47l-2.45,.58Z"/>
      <path class="cls-1" d="M542.96,59.87c-.08,.7-.14,1.57-.14,2.48v.62h.84c.94,0,1.39-.02,2.03-.12v2.38c-.66-.1-1.04-.12-1.97-.12h-.9v6.24c0,.99,.36,1.35,1.33,1.35,.52,0,.84-.1,1.47-.44l.36,2.13c-.86,.32-1.47,.42-2.51,.42-2.31,0-3.23-.83-3.23-2.94v-6.77h-.76c-.74,0-1.13,.02-1.79,.12v-2.38c.58,.1,.96,.12,1.81,.12h.74v-.62c0-.87-.06-1.75-.14-2.48h2.87Z"/>
      <path class="cls-1" d="M552.29,58.5v2.56h-2.95v-2.56h2.95Zm-.02,4.47c-.1,.75-.14,1.41-.14,2.64v6.28c0,1.11,.04,1.79,.14,2.64h-2.93c.12-.91,.16-1.61,.16-2.62v-6.32c0-1.11-.04-1.79-.16-2.62h2.93Z"/>
      <path class="cls-1" d="M556.17,68.78c0-3.75,2.33-6.14,5.98-6.14s5.95,2.38,5.95,6.1-2.35,6.18-5.93,6.18-6.01-2.38-6.01-6.14Zm2.59,0c0,2.48,1.29,4.01,3.37,4.01s3.37-1.51,3.37-3.97c0-2.6-1.23-4.09-3.35-4.09s-3.39,1.53-3.39,4.05Z"/>
      <path class="cls-1" d="M571.98,74.54c.12-.87,.16-1.49,.16-2.62v-6.32c0-1.11-.04-1.79-.16-2.62h2.73v1.07c0,.3,0,.36-.04,.87,1.23-1.57,2.29-2.14,4.1-2.14,1.55,0,2.69,.5,3.41,1.49,.48,.66,.68,1.47,.68,2.82v4.83c0,1.11,.04,1.87,.16,2.62h-2.91c.1-.91,.14-1.59,.14-2.62v-4.47c0-.85-.1-1.39-.34-1.77-.32-.52-.92-.83-1.69-.83-1.45,0-2.63,1.01-3.51,3v4.07c0,.99,.04,1.75,.16,2.62h-2.89Z"/>
      <path class="cls-1" d="M603.57,73.23c-.8,.77-1.31,1.05-2.13,1.27-.58,.16-1.23,.24-1.87,.24-2.45,0-3.94-1.27-3.94-3.38,0-1.41,.88-2.68,2.27-3.26,1.31-.54,2.79-.75,5.66-.81v-1.03c0-1.17-.78-1.77-2.31-1.77-.8,0-1.63,.22-2.09,.58-.38,.28-.56,.56-.8,1.29l-2.57-.46c.46-1.17,.82-1.69,1.59-2.24,.98-.73,2.11-1.03,3.84-1.03,1.93,0,3.09,.34,3.96,1.19,.68,.64,.94,1.41,.94,2.78v5.42c0,1.07,.04,1.61,.16,2.52h-2.71v-1.31Zm0-4.19c-3.84,.08-5.34,.75-5.34,2.32,0,.95,.7,1.53,1.83,1.53,1.06,0,2.11-.4,2.79-1.07,.48-.48,.72-1.07,.72-1.77v-1.01Z"/>
      <path class="cls-1" d="M610.54,74.54c.12-.87,.16-1.49,.16-2.62v-6.32c0-1.11-.04-1.79-.16-2.62h2.73v1.07c0,.3,0,.36-.04,.87,1.23-1.57,2.29-2.14,4.1-2.14,1.55,0,2.69,.5,3.41,1.49,.48,.66,.68,1.47,.68,2.82v4.83c0,1.11,.04,1.87,.16,2.62h-2.91c.1-.91,.14-1.59,.14-2.62v-4.47c0-.85-.1-1.39-.34-1.77-.32-.52-.92-.83-1.69-.83-1.45,0-2.63,1.01-3.51,3v4.07c0,.99,.04,1.75,.16,2.62h-2.89Z"/>
      <path class="cls-1" d="M634.96,73.55c0-.24,0-.46,.02-.73-1.04,1.47-2.11,1.99-4.06,1.99-1.41,0-2.47-.32-3.35-1.03-1.35-1.05-2.09-2.88-2.09-5.06,0-3.69,2.11-6.02,5.42-6.02,1.24,0,2.27,.3,3.05,.93,.36,.28,.58,.52,1.02,1.11q0-.24-.02-.64c-.02-.14-.02-.52-.02-.87v-2.01c0-1.21-.04-1.87-.14-2.72h2.83c-.1,.97-.14,1.67-.14,2.7v10.61c0,1.19,.04,1.83,.14,2.72h-2.67v-.99Zm-3.58-.89c1.06,0,2.09-.5,2.69-1.33,.5-.66,.78-1.65,.78-2.7,0-.99-.38-2.03-.96-2.68-.62-.68-1.65-1.13-2.61-1.13-1.95,0-3.19,1.53-3.19,3.93s1.29,3.91,3.29,3.91Z"/>
      <path class="cls-1" d="M658.29,65.51c-.84-.24-1.26-.32-1.79-.32-1,0-1.77,.32-2.33,.99-.5,.58-.7,1.05-.82,2.01v3.73c0,1.09,.04,1.67,.14,2.62h-2.87c.1-.99,.14-1.57,.14-2.62v-6.32c0-1.23-.02-1.79-.14-2.62h2.73v1.89c.72-1.43,1.97-2.11,3.78-2.11,.48,0,.96,.06,1.87,.22l-.7,2.54Z"/>
      <path class="cls-1" d="M664.4,69.42c.1,1.11,.28,1.67,.74,2.26,.58,.72,1.49,1.13,2.51,1.13s1.83-.36,2.41-1.01c.24-.28,.38-.5,.58-1.05l2.37,.77c-.46,.97-.72,1.35-1.23,1.85-1.04,1.03-2.45,1.55-4.14,1.55-3.56,0-5.8-2.38-5.8-6.14s2.23-6.16,5.66-6.16c2.35,0,4.2,1.17,5,3.18,.38,.97,.52,1.69,.58,3.06,0,.04,0,.1,.04,.56h-8.74Zm6.13-1.99c-.14-.89-.38-1.43-.88-1.93-.54-.54-1.23-.81-2.17-.81-1.57,0-2.71,1.05-3.01,2.74h6.07Z"/>
      <path class="cls-1" d="M684.63,73.23c-.8,.77-1.31,1.05-2.13,1.27-.58,.16-1.23,.24-1.87,.24-2.45,0-3.94-1.27-3.94-3.38,0-1.41,.88-2.68,2.27-3.26,1.31-.54,2.79-.75,5.66-.81v-1.03c0-1.17-.78-1.77-2.31-1.77-.8,0-1.63,.22-2.09,.58-.38,.28-.56,.56-.8,1.29l-2.57-.46c.46-1.17,.82-1.69,1.59-2.24,.98-.73,2.11-1.03,3.84-1.03,1.93,0,3.09,.34,3.96,1.19,.68,.64,.94,1.41,.94,2.78v5.42c0,1.07,.04,1.61,.16,2.52h-2.71v-1.31Zm0-4.19c-3.84,.08-5.34,.75-5.34,2.32,0,.95,.7,1.53,1.83,1.53,1.06,0,2.11-.4,2.79-1.07,.48-.48,.72-1.07,.72-1.77v-1.01Z"/>
      <path class="cls-1" d="M694.52,58.5c-.1,.79-.14,1.43-.14,2.64v10.78c0,1.07,.04,1.73,.14,2.62h-2.91c.1-.87,.14-1.45,.14-2.62v-10.8c0-1.21-.04-1.85-.14-2.62h2.91Z"/>
      <path class="cls-1" d="M701.88,58.5v2.56h-2.95v-2.56h2.95Zm-.02,4.47c-.1,.75-.14,1.41-.14,2.64v6.28c0,1.11,.04,1.79,.14,2.64h-2.93c.12-.91,.16-1.61,.16-2.62v-6.32c0-1.11-.04-1.79-.16-2.62h2.93Z"/>
      <path class="cls-1" d="M715.3,74.68c-.82-.1-1.43-.14-2.65-.14h-4.62c-1.43,0-1.87,.02-2.47,.06v-2.14c.64-.62,1.04-1.09,1.53-1.71l3.88-4.91c.2-.24,.32-.4,.56-.64h-.18c-.16,.02-.4,.02-.72,.02h-2.05c-1.06,0-1.81,.04-2.61,.14v-2.52c.9,.1,1.57,.14,2.61,.14h3.9c1.47,0,1.83,0,2.43-.06v1.99c-.6,.64-1.13,1.23-1.53,1.73l-3.8,4.81c-.04,.08-.08,.1-.24,.28q-.12,.16-.44,.54c.44-.02,.88-.02,1.2-.02h2.57c1.17,0,1.87-.04,2.63-.14v2.56Z"/>
      <path class="cls-1" d="M721.05,69.42c.1,1.11,.28,1.67,.74,2.26,.58,.72,1.49,1.13,2.51,1.13s1.83-.36,2.41-1.01c.24-.28,.38-.5,.58-1.05l2.37,.77c-.46,.97-.72,1.35-1.23,1.85-1.04,1.03-2.45,1.55-4.14,1.55-3.56,0-5.8-2.38-5.8-6.14s2.23-6.16,5.66-6.16c2.35,0,4.2,1.17,5,3.18,.38,.97,.52,1.69,.58,3.06,0,.04,0,.1,.04,.56h-8.74Zm6.13-1.99c-.14-.89-.38-1.43-.88-1.93-.54-.54-1.23-.81-2.17-.81-1.57,0-2.71,1.05-3.01,2.74h6.07Z"/>
      <path class="cls-1" d="M743.07,65.09c-.76,0-1.29,.04-1.91,.12v-2.36c.56,.08,1.16,.12,1.89,.12h.82v-1.07c0-2.5,1.26-3.67,4-3.67,.9,0,1.57,.1,2.49,.4l-.54,2.11c-.6-.34-1.1-.48-1.79-.48-1.16,0-1.57,.48-1.57,1.87v.83h.94c.8,0,1.43-.04,2.27-.12v2.36c-.7-.08-1.24-.12-2.23-.12h-.98v6.83c0,1.15,.04,1.73,.14,2.62h-2.87c.1-.95,.14-1.57,.14-2.62v-6.83h-.8Z"/>
      <path class="cls-1" d="M761.3,73.23c-.8,.77-1.31,1.05-2.13,1.27-.58,.16-1.23,.24-1.87,.24-2.45,0-3.94-1.27-3.94-3.38,0-1.41,.88-2.68,2.27-3.26,1.31-.54,2.79-.75,5.66-.81v-1.03c0-1.17-.78-1.77-2.31-1.77-.8,0-1.63,.22-2.09,.58-.38,.28-.56,.56-.8,1.29l-2.57-.46c.46-1.17,.82-1.69,1.59-2.24,.98-.73,2.11-1.03,3.84-1.03,1.93,0,3.09,.34,3.96,1.19,.68,.64,.94,1.41,.94,2.78v5.42c0,1.07,.04,1.61,.16,2.52h-2.71v-1.31Zm0-4.19c-3.84,.08-5.34,.75-5.34,2.32,0,.95,.7,1.53,1.83,1.53,1.06,0,2.11-.4,2.79-1.07,.48-.48,.72-1.07,.72-1.77v-1.01Z"/>
      <path class="cls-1" d="M771.23,58.5v2.56h-2.95v-2.56h2.95Zm-.02,4.47c-.1,.75-.14,1.41-.14,2.64v6.28c0,1.11,.04,1.79,.14,2.64h-2.93c.12-.91,.16-1.61,.16-2.62v-6.32c0-1.11-.04-1.79-.16-2.62h2.93Z"/>
      <path class="cls-1" d="M779.81,59.87c-.08,.7-.14,1.57-.14,2.48v.62h.84c.94,0,1.39-.02,2.03-.12v2.38c-.66-.1-1.04-.12-1.97-.12h-.9v6.24c0,.99,.36,1.35,1.33,1.35,.52,0,.84-.1,1.47-.44l.36,2.13c-.86,.32-1.47,.42-2.51,.42-2.31,0-3.23-.83-3.23-2.94v-6.77h-.76c-.74,0-1.13,.02-1.79,.12v-2.38c.58,.1,.96,.12,1.81,.12h.74v-.62c0-.87-.06-1.75-.14-2.48h2.87Z"/>
      <path class="cls-1" d="M789.05,58.5c-.1,.77-.14,1.51-.14,2.66v2.88c0,.26,0,.36-.04,.87,1.25-1.57,2.33-2.14,4.16-2.14,2.57,0,4.04,1.47,4.04,4.07v5.08c0,1.11,.04,1.87,.16,2.62h-2.91c.1-.91,.14-1.59,.14-2.62v-4.47c0-.93-.2-1.59-.58-1.99-.36-.38-.84-.58-1.39-.58-1.51,0-2.67,.97-3.58,2.98v4.07c0,.99,.04,1.75,.16,2.62h-2.89c.12-.87,.16-1.47,.16-2.62v-10.78c0-1.21-.04-1.83-.14-2.64h2.85Z"/>
    </g>
    <g>
      <path class="cls-2" d="M360.53,42.5c.26-1.94,.35-3.96,.35-6.6V13.61c0-2.43-.09-4.42-.35-6.48,2.09,.08,3.96,.12,6.96,.12h9.79c9.13,0,14.22,4.21,14.22,11.76s-5.35,12.46-14.14,12.46h-5.96v4.25c0,2.6,.13,4.83,.35,6.77h-11.22Zm16.14-19.44c2.52,0,4.04-1.4,4.04-3.76s-1.44-3.63-4.04-3.63h-5.26v7.39h5.26Z"/>
      <path class="cls-2" d="M414.06,7.26c3.74,0,6.83,.99,8.87,2.93,1.74,1.65,2.65,4,2.65,6.97s-.96,5.57-2.78,7.14c-.96,.83-1.78,1.24-3.7,1.9,2.17,.62,3.09,1.36,4.22,3.51q.35,.62,2.74,6.23c1.04,2.43,1.87,4.25,3,6.56h-12.09c-.35-1.77-.78-3.14-2-6.36-1.61-4.21-1.91-4.75-3.09-5.49-.74-.45-1.61-.66-2.78-.66h-3.13v5.74c0,3.01,.09,4.75,.35,6.77h-11.18c.26-1.94,.35-3.34,.35-6.73V13.65c0-2.85-.09-4.54-.35-6.52,1.91,.08,3.87,.12,7.05,.12h11.87Zm-2.61,14.24c2.04,0,3.26-1.16,3.26-3.05s-1.17-2.89-3.26-2.89h-5.48v5.94h5.48Z"/>
      <path class="cls-2" d="M431.15,24.84c0-11.18,7.18-18.36,18.44-18.36s18.31,7.14,18.31,18.2-7.39,18.69-18.31,18.69-18.44-7.22-18.44-18.53Zm25.88-.04c0-6.19-2.78-9.86-7.48-9.86s-7.57,3.67-7.57,9.86,2.87,10.03,7.57,10.03,7.48-3.8,7.48-10.03Z"/>
      <path class="cls-2" d="M507.09,7.26c-.26,1.94-.35,3.38-.35,6.6v13.91c0,4.75-1.48,8.63-4.26,11.27-1.35,1.32-2.91,2.27-4.57,2.89-2.65,.95-5.52,1.44-8.53,1.44-11.44,0-17.35-5.32-17.35-15.68V13.86c0-3.14-.09-4.83-.35-6.6h11.18c-.26,1.57-.35,3.3-.35,6.6v13.99c0,4.91,2.09,7.06,6.83,7.06s6.92-2.19,6.92-7.1V13.86c0-3.34-.09-4.58-.35-6.6h11.18Z"/>
      <path class="cls-2" d="M512.35,13.65c0-3.14-.09-4.58-.39-6.52,1.96,.12,2.87,.12,7,.12h9.87c5.44,0,9.96,1.53,13.05,4.42,3.17,2.93,4.78,7.39,4.78,13s-1.74,10.28-5,13.37c-3.04,2.89-7.48,4.46-12.74,4.46h-9.96c-3.78,0-4.87,0-6.96,.12,.26-1.86,.35-3.3,.35-6.4V13.65Zm15.57,20.14c5.22,0,7.96-3.18,7.96-9.24s-2.57-8.58-8.18-8.58h-4.83v17.83h5.05Z"/>
      <path class="cls-2" d="M596.16,27.44c0-.99,.09-2.68,.3-7.18-.35,1.28-.61,2.23-.74,2.89-.48,1.86-.78,3.1-.96,3.63l-2.96,9.29q-.43,1.32-.7,2.1c-.74,2.35-.96,3.14-1.13,4.33h-9.09c-.17-1.16-.3-1.61-.96-3.59-.39-1.24-.43-1.4-.87-2.85l-3-9.62c-.04-.16-.61-2.23-1.65-6.19,.3,4.95,.35,6.27,.35,7.14v8.46c0,2.89,.09,4.79,.35,6.64h-10.09c.26-2.02,.35-3.84,.35-6.64V13.9c0-2.43-.13-4.83-.35-6.64h13.7c.17,1.61,.39,2.48,1.65,6.4l5.09,16.1,5.05-16.1q.35-1.11,.52-1.69c.78-2.48,1-3.38,1.13-4.7h13.7c-.26,1.98-.35,3.88-.35,6.64v21.96c0,3.26,.09,4.91,.35,6.64h-10.09c.26-2.1,.35-3.26,.35-6.64l.04-8.42Z"/>
      <path class="cls-2" d="M609.73,24.84c0-11.18,7.18-18.36,18.44-18.36s18.31,7.14,18.31,18.2-7.39,18.69-18.31,18.69-18.44-7.22-18.44-18.53Zm25.88-.04c0-6.19-2.78-9.86-7.48-9.86s-7.57,3.67-7.57,9.86,2.87,10.03,7.57,10.03,7.48-3.8,7.48-10.03Z"/>
      <path class="cls-2" d="M681.49,27.44c0-.99,.09-2.68,.3-7.18-.35,1.28-.61,2.23-.74,2.89-.48,1.86-.78,3.1-.96,3.63l-2.96,9.29q-.43,1.32-.7,2.1c-.74,2.35-.96,3.14-1.13,4.33h-9.09c-.17-1.16-.3-1.61-.96-3.59-.39-1.24-.43-1.4-.87-2.85l-3-9.62c-.04-.16-.61-2.23-1.65-6.19,.3,4.95,.35,6.27,.35,7.14v8.46c0,2.89,.09,4.79,.35,6.64h-10.09c.26-2.02,.35-3.84,.35-6.64V13.9c0-2.43-.13-4.83-.35-6.64h13.7c.17,1.61,.39,2.48,1.65,6.4l5.09,16.1,5.05-16.1q.35-1.11,.52-1.69c.78-2.48,1-3.38,1.13-4.7h13.7c-.26,1.98-.35,3.88-.35,6.64v21.96c0,3.26,.09,4.91,.35,6.64h-10.09c.26-2.1,.35-3.26,.35-6.64l.04-8.42Z"/>
      <path class="cls-2" d="M718.06,33.92c3.17,0,4.83-.08,6.92-.29v9.16c-2-.21-3.78-.29-7-.29h-14.88c-3.74,0-4.87,0-6.96,.12,.26-1.77,.35-3.26,.35-6.4V13.61c0-2.89-.09-4.5-.35-6.48,2.04,.12,3.13,.12,6.92,.12h14.35c2.7,0,4.57-.08,7-.29v9.12c-2.09-.21-3.87-.29-7-.29h-10.39v4.62h8.48c2.78,0,4.61-.08,7.09-.29v8.91c-2.09-.21-3.87-.29-7.09-.29h-8.53v5.16h11.09Z"/>
      <path class="cls-2" d="M751.07,23.64c.83,1.2,1.39,2.15,1.96,3.34-.13-1.2-.22-2.48-.22-3.59V13.86c0-2.64-.09-4.5-.35-6.6h11.09c-.26,2.02-.35,3.76-.35,6.64v21.96c0,2.6,.13,4.83,.35,6.64h-11.13c-1.26-2.27-2-3.43-3.61-5.74l-6.96-10.07c-.7-1.03-1.61-2.52-2.26-3.8,.13,1.36,.22,2.89,.22,4.04v8.96c0,2.89,.09,4.62,.35,6.6h-11.09c.26-1.77,.35-3.38,.35-6.64V13.9c0-2.6-.09-4.62-.35-6.64h11.13c.39,1.16,1.48,3.01,3.35,5.65l7.53,10.73Z"/>
      <path class="cls-2" d="M789.09,35.73c0,2.68,.09,4.58,.35,6.77h-11.44c.26-2.15,.35-4.04,.35-6.77V16.05h-4.7c-2.83,0-4.74,.08-6.96,.29V6.97c2.26,.21,4.22,.29,6.87,.29h20.14c2.96,0,4.83-.08,7-.29v9.37c-2.22-.21-3.87-.29-7-.29h-4.61v19.69Z"/>
    </g>
  </g>
</svg>