<svg width="272" height="21" viewBox="0 0 272 21" fill="none" xmlns="http://www.w3.org/2000/svg">
<path d="M203.53 10.3697H209.29V17.4597H208.47V16.6597H204.31V17.6297H203.53V10.3697ZM204.31 11.1497V15.8797H208.47V11.1497H204.31ZM214.97 8.32973H206.08V2.96973H214.97V8.31973V8.32973ZM214.15 3.76973H206.87V7.53973H214.15V3.76973ZM217.55 10.3697V17.5097H216.75V16.6597H212.19V17.6297H211.39V10.3697H217.54H217.55ZM216.75 15.8797V11.1497H212.19V15.8797H216.75Z" fill="#F7F8B8"/>
<path d="M222.54 9.11975C222.54 9.57975 222.54 10.0597 222.52 10.5297H225.44V17.5797H224.66V11.2697H222.48C222.38 13.4597 222.1 15.7397 221.32 17.6297C221.13 17.5297 220.79 17.3897 220.54 17.3097C221.59 14.8797 221.75 11.6497 221.75 9.11975V2.50975H222.53V7.06975H224.67V2.23975H225.4V7.81975H222.53V9.12975L222.54 9.11975ZM236 14.0197H232.7V17.6197H231.9V14.0197H226.05V13.2497H231.9V11.0397H232.7V13.2497H236V14.0197ZM230.34 10.6197C229.83 11.5397 229.08 12.4597 228.01 13.2397C227.86 13.0897 227.57 12.8297 227.38 12.7097C228.33 12.0797 229 11.3497 229.49 10.6197H226.91V3.98975H229.36C229.61 3.44975 229.89 2.72975 230.04 2.23975L230.99 2.38975C230.74 2.91975 230.48 3.50975 230.24 3.98975H235.14V10.6197H230.35H230.34ZM227.71 6.94975H230.67V4.71975H227.71V6.94975ZM229.92 9.88975C230.29 9.08975 230.5 8.30975 230.6 7.64975H227.71V9.88975H229.92ZM234.32 7.64975H231.36C231.27 8.27975 231.07 9.05975 230.71 9.88975H234.31V7.64975H234.32ZM234.32 4.72975H231.45V6.95975H234.32V4.72975Z" fill="#F7F8B8"/>
<path d="M244.64 14.84C243.42 15.74 241.05 16.59 239.27 16.98C239.15 16.78 238.91 16.49 238.73 16.35C240.53 16.03 242.84 15.31 244 14.51L244.65 14.83L244.64 14.84ZM253.55 12.75V13.48H246.55V17.64H245.75V13.48H238.83V12.75H245.75V11.19H240.45V10.49H245.75V8.95996H239.6V8.25996H243.61C243.44 7.71996 243.01 6.92996 242.61 6.33996L243.34 6.13996C243.78 6.72996 244.22 7.54996 244.39 8.07996L243.81 8.26996H248.57L247.99 8.07996C248.37 7.54996 248.84 6.68996 249.1 6.11996L249.9 6.35996C249.53 7.03996 249.07 7.74996 248.69 8.25996H252.87V8.95996H246.55V10.49H252.04V11.19H246.55V12.75H253.55ZM253.48 6.11996H238.91V5.40996H244.13V2.20996H244.91V5.40996H247.39V2.20996H248.17V5.40996H253.47V6.11996H253.48ZM241.9 5.31996C241.65 4.61996 241 3.51996 240.39 2.69996L241.09 2.45996C241.72 3.23996 242.36 4.32996 242.64 5.02996L241.91 5.31996H241.9ZM248.29 14.45C250.02 14.98 252.3 15.79 253.53 16.34L253.11 16.95C251.92 16.39 249.63 15.54 247.87 14.96L248.29 14.45ZM252.15 2.73996C251.67 3.65996 251.08 4.70996 250.57 5.40996L249.91 5.15996C250.39 4.42996 251.01 3.28996 251.34 2.48996L252.16 2.74996L252.15 2.73996Z" fill="#F7F8B8"/>
<path d="M257.83 13.0799C257.59 14.6299 257.24 16.3599 256.88 17.4999C256.73 17.4199 256.39 17.2999 256.2 17.2399C256.61 16.0999 256.93 14.4499 257.12 12.9399L257.83 13.0799ZM261.38 12.4299C261.33 12.1099 261.23 11.7199 261.13 11.2699C257.41 11.8099 256.95 11.9299 256.66 12.0899C256.61 11.8999 256.49 11.5099 256.39 11.2899C256.7 11.2199 257.09 10.7799 257.6 10.1699C257.89 9.82994 258.54 8.99994 259.25 7.88994C257.14 8.13994 256.79 8.22994 256.55 8.32994C256.51 8.13994 256.38 7.72994 256.29 7.52994C256.55 7.45994 256.85 7.09994 257.19 6.57994C257.6 6.08994 258.84 4.07994 259.59 2.18994L260.35 2.52994C259.53 4.25994 258.55 6.00994 257.53 7.35994L259.74 7.11994C260.2 6.40994 260.64 5.61994 261.01 4.85994L261.74 5.26994C260.57 7.33994 259.17 9.42994 257.78 11.0299L260.98 10.6099C260.79 9.97994 260.61 9.31994 260.4 8.75994L261.06 8.61994C261.47 9.78994 261.89 11.3599 262.08 12.2199L261.38 12.4199V12.4299ZM259.36 12.8399C259.56 14.0999 259.78 15.7099 259.85 16.7999L259.17 16.9199C259.12 15.8299 258.91 14.2199 258.71 12.9399L259.36 12.8399ZM260.89 12.4999C261.26 13.5199 261.71 14.8299 261.86 15.6599L261.23 15.8799C261.06 15.0099 260.65 13.6699 260.28 12.6699L260.89 12.4999ZM265.85 15.6299C264.64 16.3299 263.06 17.0899 261.91 17.5999C261.77 17.4299 261.55 17.1599 261.38 17.0099C262.52 16.5299 264.17 15.7499 265.09 15.1599L265.86 15.6399L265.85 15.6299ZM266.48 4.01994H262.42V3.35994H266.48V2.21994H267.26V3.35994H271.03V4.01994H267.26V5.20994H270.61V5.85994H267.26V7.07994H271.65V7.75994H261.72V7.07994H266.48V5.85994H262.79V5.20994H266.48V4.01994ZM262.88 14.8499V8.74994H270.55V14.8499H262.88ZM263.64 10.5499H269.76V9.37994H263.64V10.5499ZM263.64 12.3699H269.76V11.1599H263.64V12.3699ZM263.64 14.2199H269.76V12.9799H263.64V14.2199ZM268.3 15.1399C269.49 15.7899 270.83 16.5799 271.68 17.1599L271.02 17.6499C270.22 17.0499 268.95 16.2599 267.77 15.5799L268.3 15.1399Z" fill="#F7F8B8"/>
<path d="M11.83 14.26H12.38L12.05 15.68C11.61 16.03 11.1 16.38 10.51 16.73C9.93 17.08 9.29 17.38 8.59 17.62C7.9 17.86 7.15 17.98 6.34 17.98C5.02 17.98 3.88 17.72 2.93 17.21C1.98 16.69 1.25 15.96 0.75 15C0.25 14.04 0 12.91 0 11.6C0 10.29 0.21 9.1 0.64 7.97C1.07 6.84 1.67 5.85 2.44 4.99C3.21 4.14 4.13 3.47 5.19 2.98C6.25 2.49 7.4 2.25 8.66 2.25C9.23 2.25 9.82 2.3 10.45 2.4C11.07 2.5 11.66 2.62 12.21 2.75C12.76 2.89 13.23 3.01 13.6 3.13L12.8 6.99H11.7L11.53 4.94C11.53 4.84 11.48 4.75 11.41 4.67C11.34 4.59 11.26 4.53 11.18 4.48C10.8 4.25 10.34 4.06 9.78 3.89C9.22 3.72 8.65 3.64 8.06 3.64C7.33 3.64 6.66 3.84 6.05 4.23C5.45 4.62 4.92 5.17 4.48 5.87C4.04 6.57 3.69 7.37 3.44 8.29C3.19 9.21 3.07 10.19 3.07 11.22C3.07 12.25 3.22 13.18 3.53 13.93C3.84 14.68 4.31 15.24 4.95 15.63C5.59 16.01 6.4 16.21 7.38 16.21C8.01 16.21 8.61 16.1 9.17 15.87C9.73 15.64 10.23 15.38 10.68 15.07C11.13 14.76 11.51 14.49 11.83 14.25V14.26Z" fill="#F7F8B8"/>
<path d="M20.55 18C19.23 18 18.1 17.76 17.16 17.28C16.22 16.8 15.51 16.11 15.02 15.21C14.53 14.31 14.28 13.22 14.27 11.95C14.27 10.7 14.47 9.48998 14.88 8.33998C15.29 7.17998 15.87 6.14998 16.62 5.22998C17.38 4.30998 18.3 3.57998 19.39 3.03998C20.48 2.49998 21.71 2.22998 23.07 2.22998C24.43 2.22998 25.6 2.47998 26.53 2.97998C27.46 3.47998 28.17 4.16998 28.64 5.06998C29.11 5.96998 29.35 7.02998 29.36 8.24998C29.36 9.16998 29.24 10.09 29 11.02C28.76 11.95 28.4 12.83 27.92 13.67C27.44 14.51 26.85 15.25 26.15 15.9C25.45 16.55 24.63 17.06 23.69 17.44C22.75 17.82 21.71 18.01 20.55 18.01V18ZM20.87 16.66C21.62 16.66 22.28 16.48 22.86 16.13C23.44 15.77 23.94 15.29 24.37 14.69C24.8 14.09 25.16 13.41 25.44 12.66C25.73 11.91 25.94 11.14 26.07 10.33C26.21 9.51998 26.28 8.74998 26.28 7.99998C26.28 7.09998 26.15 6.31998 25.9 5.64998C25.65 4.97998 25.26 4.46998 24.74 4.10998C24.22 3.74998 23.55 3.56998 22.72 3.56998C21.96 3.56998 21.28 3.75998 20.69 4.11998C20.1 4.48998 19.59 4.97998 19.17 5.58998C18.75 6.19998 18.4 6.87998 18.13 7.63998C17.86 8.38998 17.66 9.15998 17.53 9.93998C17.4 10.72 17.34 11.46 17.34 12.15C17.34 13.02 17.46 13.8 17.7 14.48C17.94 15.16 18.32 15.69 18.83 16.07C19.35 16.45 20.02 16.65 20.86 16.65L20.87 16.66Z" fill="#F7F8B8"/>
<path d="M29.55 16.8798L31.1 16.2998C31.24 16.2498 31.35 16.1798 31.46 16.0898C31.56 15.9998 31.63 15.8798 31.66 15.7298L34.18 4.4098C34.22 4.2598 34.2 4.1398 34.13 4.0498C34.06 3.9598 33.97 3.8998 33.85 3.8598L32.24 3.3198L32.41 2.5498H37.09L41.72 12.3798L42.3 13.7898H42.41L44.48 4.4498C44.52 4.2998 44.51 4.1798 44.44 4.0998C44.37 4.0198 44.28 3.9498 44.16 3.9198L42.6 3.3198L42.77 2.5498H48.33L48.15 3.3198L46.62 3.9198C46.49 3.9598 46.37 4.0298 46.27 4.1098C46.16 4.1998 46.09 4.3098 46.06 4.4498L43.67 15.2598L42.82 17.7598H41.27L36.22 7.06981L35.6 5.5598H35.49L33.24 15.7398C33.2 15.9198 33.22 16.0498 33.29 16.1298C33.36 16.2098 33.44 16.2698 33.54 16.3098L35.08 16.8898L34.91 17.6698H29.4L29.57 16.8898L29.55 16.8798Z" fill="#F7F8B8"/>
<path d="M52.4 18.01C51.6 18.01 50.73 17.9 49.81 17.68C48.89 17.46 48.03 17.22 47.24 16.95L48.07 12.78H49.18L49.36 14.96C49.36 15.07 49.4 15.17 49.48 15.27C49.56 15.37 49.66 15.46 49.8 15.55C50.09 15.76 50.45 15.94 50.88 16.1C51.31 16.26 51.74 16.39 52.16 16.47C52.58 16.55 52.91 16.6 53.14 16.6C53.74 16.6 54.31 16.5 54.82 16.3C55.33 16.1 55.75 15.79 56.06 15.38C56.37 14.97 56.52 14.46 56.52 13.85C56.52 13.31 56.35 12.87 56.01 12.54C55.67 12.21 55.24 11.92 54.71 11.68C54.24 11.47 53.78 11.27 53.32 11.08C52.86 10.89 52.4 10.69 51.95 10.47C51.47 10.25 51.04 9.98 50.66 9.67C50.28 9.36 49.98 8.99 49.76 8.56C49.54 8.13 49.43 7.64 49.43 7.08C49.43 6.31 49.61 5.63 49.96 5.04C50.31 4.45 50.79 3.94 51.38 3.53C51.97 3.12 52.64 2.8 53.38 2.58C54.11 2.36 54.85 2.25 55.6 2.25C56.45 2.25 57.27 2.34 58.08 2.52C58.89 2.7 59.66 2.89 60.4 3.11L59.55 7.06H58.45L58.28 5.01C58.27 4.9 58.21 4.79 58.11 4.68C58.01 4.57 57.88 4.48 57.71 4.39C57.45 4.22 57.16 4.08 56.83 3.97C56.5 3.86 56.17 3.78 55.86 3.74C55.55 3.69 55.29 3.67 55.07 3.67C54.25 3.67 53.58 3.91 53.04 4.39C52.5 4.87 52.24 5.48 52.24 6.22C52.24 6.75 52.41 7.19 52.76 7.54C53.1 7.89 53.58 8.2 54.17 8.46C54.6 8.66 55.04 8.85 55.48 9.03C55.92 9.21 56.37 9.41 56.82 9.63C57.27 9.85 57.7 10.11 58.1 10.41C58.5 10.71 58.82 11.07 59.08 11.49C59.33 11.91 59.46 12.41 59.46 13.01C59.46 13.83 59.27 14.55 58.88 15.18C58.49 15.81 57.97 16.33 57.31 16.75C56.65 17.17 55.9 17.49 55.05 17.71C54.21 17.93 53.32 18.04 52.4 18.04V18.01Z" fill="#F7F8B8"/>
<path d="M63.02 16.8898L64.71 16.3798C64.86 16.3398 64.98 16.2698 65.08 16.1798C65.18 16.0898 65.24 15.9698 65.28 15.8098L67.91 3.9398H64.68C64.56 3.9398 64.45 3.9798 64.37 4.0498C64.28 4.1198 64.21 4.2198 64.15 4.3298L62.99 6.6398H61.88L62.8 2.5498H76.43L75.5 6.6398H74.4L74.28 4.3298C74.28 4.1998 74.24 4.0998 74.18 4.0398C74.12 3.9698 74.03 3.9398 73.91 3.9398H70.73L68.08 15.8098C68.06 15.9698 68.08 16.0898 68.14 16.1798C68.2 16.2698 68.3 16.3398 68.42 16.3698L70.1 16.8798L69.95 17.6498H62.84L63.01 16.8798L63.02 16.8898Z" fill="#F7F8B8"/>
<path d="M74.77 16.8801L76.31 16.3701C76.44 16.3301 76.56 16.2701 76.66 16.1801C76.77 16.0901 76.84 15.9601 76.87 15.8101L79.4 4.41008C79.44 4.25008 79.42 4.13008 79.36 4.05008C79.3 3.96008 79.21 3.90008 79.08 3.87008L77.54 3.35008L77.69 2.58008H84.39C85.73 2.58008 86.75 2.75008 87.47 3.08008C88.19 3.41008 88.68 3.83008 88.95 4.34008C89.22 4.85008 89.36 5.38008 89.36 5.93008C89.36 6.61008 89.23 7.20008 88.97 7.73008C88.71 8.25008 88.37 8.71008 87.94 9.10008C87.51 9.49008 87.04 9.80008 86.53 10.0401C86.02 10.2801 85.51 10.4601 85 10.5801L87.78 15.6901C87.86 15.8501 87.96 16.0001 88.09 16.1401C88.22 16.2801 88.36 16.3801 88.51 16.4301L90.12 16.9001L89.95 17.6801H86.93C86.5 17.6801 86.17 17.6401 85.95 17.5601C85.73 17.4801 85.56 17.3401 85.44 17.1501C85.32 16.9601 85.17 16.7001 85 16.3801C84.77 15.9401 84.54 15.4901 84.3 15.0501C84.06 14.6001 83.83 14.1601 83.6 13.7201C83.37 13.2801 83.14 12.8501 82.93 12.4301C82.71 12.0101 82.51 11.6101 82.31 11.2201L80.61 10.7901L80.86 9.67008C80.97 9.71008 81.14 9.73008 81.38 9.76008C81.62 9.79008 81.87 9.80008 82.13 9.82008C82.39 9.84008 82.6 9.85008 82.75 9.85008C83.53 9.85008 84.17 9.68008 84.7 9.35008C85.22 9.02008 85.61 8.58008 85.87 8.03008C86.13 7.48008 86.26 6.90008 86.26 6.26008C86.26 5.47008 86.03 4.89008 85.56 4.52008C85.09 4.15008 84.4 3.96008 83.48 3.96008H82.33L79.69 15.8301C79.66 15.9901 79.68 16.1201 79.74 16.2101C79.8 16.3001 79.89 16.3601 80.02 16.4001L81.61 16.9101L81.44 17.6901H74.6L74.77 16.9101V16.8801Z" fill="#F7F8B8"/>
<path d="M97.69 18.0098C96.53 18.0098 95.56 17.8298 94.78 17.4698C94 17.1098 93.42 16.6298 93.03 16.0398C92.64 15.4498 92.45 14.8298 92.45 14.1698C92.45 13.9098 92.48 13.6198 92.54 13.2998C92.6 12.9798 92.66 12.6998 92.71 12.4698L94.5 4.39982C94.54 4.23982 94.52 4.11982 94.46 4.03982C94.4 3.94982 94.3 3.88982 94.16 3.85982L92.65 3.33982L92.81 2.56982H99.58L99.42 3.33982L97.89 3.85982C97.77 3.88982 97.65 3.94982 97.54 4.03982C97.43 4.12982 97.36 4.24982 97.32 4.40982L95.68 11.9298C95.63 12.1398 95.58 12.3998 95.53 12.7098C95.48 13.0198 95.45 13.3098 95.45 13.5798C95.45 14.0098 95.53 14.4398 95.69 14.8698C95.85 15.2998 96.15 15.6498 96.6 15.9298C97.04 16.2098 97.67 16.3498 98.48 16.3498C99.25 16.3498 99.89 16.2198 100.42 15.9698C100.95 15.7198 101.37 15.3898 101.72 14.9898C102.07 14.5898 102.33 14.1698 102.52 13.7198C102.71 13.2698 102.85 12.8498 102.95 12.4498L104.71 4.46982C104.75 4.33982 104.73 4.21982 104.67 4.12982C104.61 4.03982 104.52 3.96982 104.4 3.93982L102.85 3.33982L103.02 2.56982H108.56L108.39 3.33982L106.85 3.93982C106.71 3.97982 106.6 4.04982 106.49 4.12982C106.39 4.21982 106.32 4.32982 106.28 4.46982L104.4 12.9298C104.19 13.8798 103.84 14.6698 103.34 15.3198C102.84 15.9698 102.27 16.4898 101.62 16.8898C100.97 17.2798 100.3 17.5698 99.61 17.7498C98.92 17.9298 98.27 18.0198 97.67 18.0198L97.69 18.0098Z" fill="#F7F8B8"/>
<path d="M120.14 14.26H120.69L120.36 15.68C119.92 16.03 119.41 16.38 118.82 16.73C118.24 17.08 117.6 17.38 116.9 17.62C116.21 17.86 115.46 17.98 114.65 17.98C113.33 17.98 112.19 17.72 111.24 17.21C110.29 16.69 109.56 15.96 109.06 15C108.56 14.04 108.31 12.91 108.31 11.6C108.31 10.29 108.52 9.1 108.95 7.97C109.38 6.84 109.98 5.85 110.75 4.99C111.52 4.14 112.44 3.47 113.5 2.98C114.56 2.49 115.71 2.25 116.97 2.25C117.54 2.25 118.13 2.3 118.76 2.4C119.38 2.5 119.97 2.62 120.52 2.75C121.07 2.89 121.54 3.01 121.91 3.13L121.11 6.99H120.01L119.84 4.94C119.84 4.84 119.79 4.75 119.72 4.67C119.65 4.59 119.57 4.53 119.49 4.48C119.11 4.25 118.65 4.06 118.09 3.89C117.53 3.72 116.96 3.64 116.37 3.64C115.64 3.64 114.97 3.84 114.36 4.23C113.76 4.62 113.23 5.17 112.79 5.87C112.35 6.57 112 7.37 111.75 8.29C111.5 9.21 111.38 10.19 111.38 11.22C111.38 12.25 111.53 13.18 111.84 13.93C112.15 14.68 112.62 15.24 113.26 15.63C113.9 16.01 114.71 16.21 115.69 16.21C116.32 16.21 116.92 16.1 117.48 15.87C118.04 15.64 118.54 15.38 118.99 15.07C119.44 14.76 119.82 14.49 120.14 14.25V14.26Z" fill="#F7F8B8"/>
<path d="M124.05 16.8898L125.74 16.3798C125.89 16.3398 126.01 16.2698 126.11 16.1798C126.21 16.0898 126.27 15.9698 126.31 15.8098L128.94 3.9398H125.71C125.59 3.9398 125.48 3.9798 125.4 4.0498C125.32 4.1198 125.24 4.2198 125.18 4.3298L124.02 6.6398H122.91L123.83 2.5498H137.46L136.53 6.6398H135.43L135.31 4.3298C135.31 4.1998 135.27 4.0998 135.21 4.0398C135.15 3.9698 135.06 3.9398 134.94 3.9398H131.76L129.11 15.8098C129.09 15.9698 129.11 16.0898 129.17 16.1798C129.23 16.2698 129.33 16.3398 129.45 16.3698L131.14 16.8798L130.99 17.6498H123.87L124.04 16.8798L124.05 16.8898Z" fill="#F7F8B8"/>
<path d="M135.83 16.8798L137.42 16.3698C137.56 16.3298 137.68 16.2698 137.79 16.1798C137.89 16.0898 137.96 15.9598 137.99 15.8098L140.52 4.40982C140.56 4.24982 140.54 4.12982 140.48 4.03982C140.42 3.94982 140.33 3.88982 140.21 3.85982L138.6 3.33982L138.78 2.56982H145.66L145.49 3.33982L144.03 3.80982C143.89 3.85982 143.75 3.92982 143.61 4.01982C143.47 4.10982 143.39 4.23982 143.34 4.39982L140.8 15.7998C140.77 15.9598 140.79 16.0898 140.85 16.1798C140.91 16.2698 141.01 16.3298 141.13 16.3598L142.72 16.8698L142.55 17.6498H135.65L135.83 16.8698V16.8798Z" fill="#F7F8B8"/>
<path d="M152 18C150.68 18 149.55 17.76 148.61 17.28C147.67 16.8 146.96 16.11 146.47 15.21C145.98 14.31 145.73 13.22 145.72 11.95C145.72 10.7 145.92 9.48998 146.33 8.33998C146.74 7.17998 147.32 6.14998 148.07 5.22998C148.83 4.30998 149.75 3.57998 150.84 3.03998C151.93 2.49998 153.16 2.22998 154.52 2.22998C155.88 2.22998 157.05 2.47998 157.98 2.97998C158.91 3.47998 159.62 4.16998 160.09 5.06998C160.56 5.96998 160.8 7.02998 160.81 8.24998C160.81 9.16998 160.69 10.09 160.45 11.02C160.21 11.95 159.85 12.83 159.37 13.67C158.89 14.51 158.3 15.25 157.6 15.9C156.9 16.55 156.08 17.06 155.14 17.44C154.2 17.82 153.16 18.01 152 18.01V18ZM152.32 16.66C153.07 16.66 153.73 16.48 154.31 16.13C154.89 15.77 155.39 15.29 155.82 14.69C156.25 14.09 156.61 13.41 156.89 12.66C157.18 11.91 157.39 11.14 157.52 10.33C157.66 9.51998 157.73 8.74998 157.73 7.99998C157.73 7.09998 157.6 6.31998 157.35 5.64998C157.1 4.97998 156.71 4.46998 156.19 4.10998C155.67 3.74998 155 3.56998 154.17 3.56998C153.41 3.56998 152.73 3.75998 152.14 4.11998C151.55 4.48998 151.04 4.97998 150.62 5.58998C150.2 6.19998 149.85 6.87998 149.58 7.63998C149.31 8.38998 149.11 9.15998 148.98 9.93998C148.85 10.72 148.79 11.46 148.79 12.15C148.79 13.02 148.91 13.8 149.15 14.48C149.39 15.16 149.77 15.69 150.28 16.07C150.8 16.45 151.47 16.65 152.31 16.65L152.32 16.66Z" fill="#F7F8B8"/>
<path d="M160.99 16.8798L162.54 16.2998C162.68 16.2498 162.79 16.1798 162.9 16.0898C163 15.9998 163.07 15.8798 163.1 15.7298L165.62 4.4098C165.66 4.2598 165.64 4.1398 165.57 4.0498C165.5 3.9598 165.41 3.8998 165.29 3.8598L163.68 3.3198L163.85 2.5498H168.53L173.16 12.3798L173.74 13.7898H173.85L175.92 4.4498C175.96 4.2998 175.95 4.1798 175.88 4.0998C175.81 4.0198 175.72 3.9498 175.6 3.9198L174.04 3.3198L174.21 2.5498H179.77L179.59 3.3198L178.06 3.9198C177.93 3.9598 177.81 4.0298 177.71 4.1098C177.6 4.1998 177.53 4.3098 177.5 4.4498L175.11 15.2598L174.26 17.7598H172.71L167.66 7.06981L167.04 5.5598H166.93L164.68 15.7398C164.64 15.9198 164.66 16.0498 164.73 16.1298C164.8 16.2098 164.88 16.2698 164.98 16.3098L166.52 16.8898L166.35 17.6698H160.84L161.01 16.8898L160.99 16.8798Z" fill="#F7F8B8"/>
<path d="M192.17 0H191.42V21H192.17V0Z" fill="#F7F8B8"/>
</svg>
