<?xml version="1.0" encoding="UTF-8"?>
<svg id="_圖層_2" data-name="圖層 2" xmlns="http://www.w3.org/2000/svg" viewBox="0 0 494.25 80.76">
  <defs>
    <style>
      .cls-1 {
        fill: #f7f8b8;
      }

      .cls-2 {
        fill: #fff;
      }
    </style>
  </defs>
  <g id="_圖層_4" data-name="圖層 4">
    <g>
      <path class="cls-1" d="M0,76.36c.14-.9,.18-1.69,.18-2.91v-12.22c0-1.08-.04-1.9-.18-2.92,.97,.05,1.67,.07,2.86,.07H7.57c2.19,0,3.72,.52,4.8,1.6,.92,.9,1.4,2.26,1.4,3.89,0,1.72-.52,3.12-1.51,4.16-1.1,1.11-2.64,1.63-4.8,1.63H3.15v3.77c0,1.22,.05,2.08,.18,2.94H0Zm7.46-9.31c2.07,0,3.2-1.11,3.2-3.1,0-.9-.25-1.65-.74-2.17-.52-.56-1.26-.81-2.46-.81H3.15v6.08H7.46Z"/>
      <path class="cls-1" d="M30.27,63.39c-.16,.97-.18,1.67-.18,2.94v7.1c0,1.24,.05,2.01,.18,2.94h-3.07v-1.2c0-.34,0-.41,.02-.97-1.24,1.76-2.48,2.42-4.62,2.42-1.15,0-1.96-.2-2.7-.66-1.24-.79-1.83-2.06-1.83-3.91v-5.72c0-1.24-.07-2.1-.18-2.94h3.27c-.14,1.02-.16,1.78-.16,2.94v5.02c0,1.31,.34,2.15,1.04,2.58,.34,.18,.81,.32,1.24,.32,1.62,0,2.91-1.11,3.92-3.34v-4.56c0-1.11-.07-1.97-.18-2.94h3.25Z"/>
      <path class="cls-1" d="M43.84,66.23c-.95-.27-1.42-.36-2.01-.36-1.13,0-1.98,.36-2.61,1.11-.56,.66-.79,1.18-.92,2.26v4.18c0,1.22,.05,1.88,.16,2.94h-3.22c.11-1.11,.16-1.76,.16-2.94v-7.1c0-1.38-.02-2.01-.16-2.94h3.06v2.12c.81-1.6,2.21-2.37,4.24-2.37,.54,0,1.08,.07,2.1,.25l-.79,2.85Z"/>
      <path class="cls-1" d="M50.9,72.29c.38,1.54,1.22,2.15,2.97,2.15s2.7-.66,2.7-1.72c0-.45-.23-.88-.59-1.13-.43-.29-.56-.32-2.37-.72-1.78-.38-2.48-.61-3.25-.97-1.28-.61-1.98-1.69-1.98-3.01,0-.79,.25-1.54,.7-2.1,.92-1.18,2.46-1.76,4.51-1.76,1.85,0,3.31,.45,4.24,1.31,.59,.57,.9,1.13,1.22,2.24l-2.97,.38c-.25-1.24-1.01-1.78-2.48-1.78s-2.34,.63-2.34,1.58c0,.43,.25,.81,.7,1.06,.5,.25,.97,.38,2.25,.68,2.3,.5,3.22,.81,3.97,1.38,.88,.63,1.31,1.56,1.31,2.8,0,.93-.43,1.92-1.1,2.55-1.04,.97-2.61,1.47-4.66,1.47-2.32,0-4.06-.7-5.03-2.01-.41-.54-.61-.99-.88-2.01l3.09-.38Z"/>
      <path class="cls-1" d="M76.19,63.39c-.16,.97-.18,1.67-.18,2.94v7.1c0,1.24,.05,2.01,.18,2.94h-3.07v-1.2c0-.34,0-.41,.02-.97-1.24,1.76-2.48,2.42-4.62,2.42-1.15,0-1.96-.2-2.7-.66-1.24-.79-1.83-2.06-1.83-3.91v-5.72c0-1.24-.07-2.1-.18-2.94h3.27c-.14,1.02-.16,1.78-.16,2.94v5.02c0,1.31,.34,2.15,1.04,2.58,.34,.18,.81,.32,1.24,.32,1.62,0,2.91-1.11,3.92-3.34v-4.56c0-1.11-.07-1.97-.18-2.94h3.25Z"/>
      <path class="cls-1" d="M83.43,70.62c.11,1.24,.32,1.88,.83,2.53,.65,.81,1.67,1.27,2.82,1.27s2.05-.41,2.7-1.13c.27-.32,.43-.56,.65-1.18l2.66,.86c-.52,1.08-.81,1.51-1.37,2.08-1.17,1.15-2.75,1.74-4.64,1.74-3.99,0-6.51-2.67-6.51-6.89s2.5-6.91,6.35-6.91c2.64,0,4.71,1.31,5.61,3.57,.43,1.08,.59,1.9,.65,3.43,0,.05,0,.11,.05,.63h-9.8Zm6.87-2.24c-.16-.99-.43-1.6-.99-2.17-.61-.61-1.37-.9-2.43-.9-1.76,0-3.04,1.18-3.38,3.07h6.81Z"/>
      <path class="cls-1" d="M110.17,64.49c0,.25,0,.5-.02,.79,1.24-1.58,2.57-2.21,4.6-2.21,1.8,0,3.24,.54,4.28,1.58,1.19,1.22,1.78,2.92,1.78,5.2,0,4.16-2.28,6.67-6.11,6.67-1.98,0-3.47-.7-4.55-2.17q0,.27,.02,.72c.02,.16,.02,.56,.02,.97v1.72c0,1.33,.05,2.06,.16,3.01h-3.18c.11-1.06,.16-1.83,.16-2.98v-11.37c0-1.31-.04-2.06-.16-3.03h3v1.11Zm4.03,.99c-2.23,0-3.92,1.85-3.92,4.27,0,2.58,1.67,4.38,4.01,4.38,2.21,0,3.58-1.67,3.58-4.34s-1.4-4.32-3.67-4.32Z"/>
      <path class="cls-1" d="M127.55,70.62c.11,1.24,.32,1.88,.83,2.53,.65,.81,1.67,1.27,2.82,1.27s2.05-.41,2.7-1.13c.27-.32,.43-.56,.65-1.18l2.66,.86c-.52,1.08-.81,1.51-1.37,2.08-1.17,1.15-2.75,1.74-4.64,1.74-3.99,0-6.51-2.67-6.51-6.89s2.5-6.91,6.35-6.91c2.64,0,4.71,1.31,5.61,3.57,.43,1.08,.59,1.9,.65,3.43,0,.05,0,.11,.05,.63h-9.8Zm6.87-2.24c-.16-.99-.43-1.6-.99-2.17-.61-.61-1.37-.9-2.43-.9-1.76,0-3.04,1.18-3.38,3.07h6.81Z"/>
      <path class="cls-1" d="M150.34,66.23c-.95-.27-1.42-.36-2.01-.36-1.13,0-1.98,.36-2.61,1.11-.56,.66-.79,1.18-.92,2.26v4.18c0,1.22,.05,1.88,.16,2.94h-3.22c.11-1.11,.16-1.76,.16-2.94v-7.1c0-1.38-.02-2.01-.16-2.94h3.06v2.12c.81-1.6,2.21-2.37,4.24-2.37,.54,0,1.08,.07,2.1,.25l-.79,2.85Z"/>
      <path class="cls-1" d="M155.85,65.76c-.86,0-1.44,.05-2.14,.14v-2.64c.63,.09,1.31,.14,2.12,.14h.92v-1.2c0-2.8,1.42-4.11,4.48-4.11,1.01,0,1.76,.11,2.79,.45l-.61,2.37c-.68-.38-1.24-.54-2.01-.54-1.31,0-1.76,.54-1.76,2.1v.93h1.06c.9,0,1.6-.05,2.55-.14v2.64c-.79-.09-1.4-.14-2.5-.14h-1.1v7.66c0,1.29,.05,1.94,.16,2.94h-3.22c.11-1.06,.16-1.76,.16-2.94v-7.66h-.9Z"/>
      <path class="cls-1" d="M170.05,70.62c.11,1.24,.32,1.88,.83,2.53,.65,.81,1.67,1.27,2.82,1.27s2.05-.41,2.7-1.13c.27-.32,.43-.56,.65-1.18l2.66,.86c-.52,1.08-.81,1.51-1.37,2.08-1.17,1.15-2.75,1.74-4.64,1.74-3.99,0-6.51-2.67-6.51-6.89s2.5-6.91,6.35-6.91c2.64,0,4.71,1.31,5.61,3.57,.43,1.08,.59,1.9,.65,3.43,0,.05,0,.11,.05,.63h-9.8Zm6.87-2.24c-.16-.99-.43-1.6-.99-2.17-.61-.61-1.37-.9-2.43-.9-1.76,0-3.04,1.18-3.38,3.07h6.81Z"/>
      <path class="cls-1" d="M193.18,67.73c-.25-.7-.41-1.02-.7-1.38-.54-.68-1.33-1.04-2.32-1.04-2.21,0-3.58,1.74-3.58,4.54s1.4,4.56,3.67,4.56c1.13,0,2.03-.45,2.59-1.27,.2-.32,.32-.57,.45-1.13l2.79,.56c-.32,.9-.54,1.38-.95,1.92-1.08,1.49-2.82,2.28-4.96,2.28-3.97,0-6.53-2.69-6.53-6.87,0-2.12,.68-3.95,1.92-5.22,1.1-1.13,2.68-1.72,4.53-1.72,2.21,0,3.97,.86,5.05,2.44,.29,.45,.47,.81,.79,1.65l-2.75,.66Z"/>
      <path class="cls-1" d="M205.1,59.91c-.09,.79-.16,1.76-.16,2.78v.7h.95c1.06,0,1.56-.02,2.28-.14v2.67c-.74-.11-1.17-.14-2.21-.14h-1.01v7.01c0,1.11,.41,1.51,1.49,1.51,.59,0,.95-.11,1.65-.5l.41,2.39c-.97,.36-1.65,.47-2.82,.47-2.59,0-3.63-.93-3.63-3.3v-7.59h-.86c-.83,0-1.26,.02-2.01,.14v-2.67c.65,.11,1.08,.14,2.03,.14h.83v-.7c0-.97-.07-1.97-.16-2.78h3.22Z"/>
      <path class="cls-1" d="M215.57,58.37v2.87h-3.31v-2.87h3.31Zm-.02,5.02c-.11,.84-.16,1.58-.16,2.96v7.05c0,1.24,.04,2.01,.16,2.96h-3.29c.14-1.02,.18-1.81,.18-2.94v-7.1c0-1.24-.05-2.01-.18-2.94h3.29Z"/>
      <path class="cls-1" d="M219.92,69.9c0-4.2,2.61-6.89,6.71-6.89s6.67,2.67,6.67,6.85-2.64,6.94-6.65,6.94-6.74-2.67-6.74-6.89Zm2.91,0c0,2.78,1.44,4.5,3.79,4.5s3.79-1.69,3.79-4.45c0-2.92-1.37-4.59-3.76-4.59s-3.81,1.72-3.81,4.54Z"/>
      <path class="cls-1" d="M237.66,76.36c.14-.97,.18-1.67,.18-2.94v-7.1c0-1.24-.05-2.01-.18-2.94h3.07v1.2c0,.34,0,.41-.05,.97,1.37-1.76,2.57-2.4,4.6-2.4,1.74,0,3.02,.56,3.83,1.67,.54,.75,.77,1.65,.77,3.16v5.42c0,1.24,.04,2.1,.18,2.94h-3.27c.11-1.02,.16-1.78,.16-2.94v-5.02c0-.95-.11-1.56-.38-1.99-.36-.59-1.04-.93-1.89-.93-1.62,0-2.95,1.13-3.94,3.37v4.56c0,1.11,.04,1.97,.18,2.94h-3.25Z"/>
      <path class="cls-1" d="M273.1,74.89c-.9,.86-1.46,1.17-2.39,1.42-.65,.18-1.37,.27-2.1,.27-2.75,0-4.42-1.42-4.42-3.8,0-1.58,.99-3.01,2.55-3.66,1.46-.61,3.13-.84,6.35-.9v-1.15c0-1.31-.88-1.99-2.59-1.99-.9,0-1.83,.25-2.34,.66-.43,.32-.63,.63-.9,1.45l-2.88-.52c.52-1.31,.92-1.9,1.78-2.51,1.1-.81,2.37-1.15,4.3-1.15,2.16,0,3.47,.38,4.44,1.33,.77,.72,1.06,1.58,1.06,3.12v6.08c0,1.2,.05,1.81,.18,2.82h-3.04v-1.47Zm0-4.7c-4.3,.09-5.99,.84-5.99,2.6,0,1.06,.79,1.72,2.05,1.72,1.19,0,2.37-.45,3.13-1.2,.54-.54,.81-1.2,.81-1.99v-1.13Z"/>
      <path class="cls-1" d="M280.92,76.36c.14-.97,.18-1.67,.18-2.94v-7.1c0-1.24-.05-2.01-.18-2.94h3.07v1.2c0,.34,0,.41-.05,.97,1.37-1.76,2.57-2.4,4.6-2.4,1.74,0,3.02,.56,3.83,1.67,.54,.75,.77,1.65,.77,3.16v5.42c0,1.24,.04,2.1,.18,2.94h-3.27c.11-1.02,.16-1.78,.16-2.94v-5.02c0-.95-.11-1.56-.38-1.99-.36-.59-1.04-.93-1.89-.93-1.62,0-2.95,1.13-3.94,3.37v4.56c0,1.11,.04,1.97,.18,2.94h-3.25Z"/>
      <path class="cls-1" d="M308.31,75.25c0-.27,0-.52,.02-.81-1.17,1.65-2.37,2.24-4.55,2.24-1.58,0-2.77-.36-3.76-1.15-1.51-1.18-2.34-3.23-2.34-5.67,0-4.14,2.37-6.76,6.08-6.76,1.4,0,2.55,.34,3.43,1.04,.41,.32,.65,.59,1.15,1.24q0-.27-.02-.72c-.02-.16-.02-.59-.02-.97v-2.26c0-1.36-.04-2.1-.16-3.05h3.18c-.11,1.08-.16,1.88-.16,3.03v11.91c0,1.33,.05,2.06,.16,3.05h-3v-1.11Zm-4.01-.99c1.19,0,2.34-.56,3.02-1.49,.56-.75,.88-1.85,.88-3.03,0-1.11-.43-2.28-1.08-3.01-.7-.77-1.85-1.27-2.93-1.27-2.19,0-3.58,1.72-3.58,4.41s1.44,4.38,3.7,4.38Z"/>
      <path class="cls-1" d="M334.48,66.23c-.95-.27-1.42-.36-2.01-.36-1.13,0-1.98,.36-2.61,1.11-.56,.66-.79,1.18-.92,2.26v4.18c0,1.22,.05,1.88,.16,2.94h-3.22c.11-1.11,.16-1.76,.16-2.94v-7.1c0-1.38-.02-2.01-.16-2.94h3.06v2.12c.81-1.6,2.21-2.37,4.24-2.37,.54,0,1.08,.07,2.1,.25l-.79,2.85Z"/>
      <path class="cls-1" d="M341.34,70.62c.11,1.24,.32,1.88,.83,2.53,.65,.81,1.67,1.27,2.82,1.27s2.05-.41,2.7-1.13c.27-.32,.43-.56,.65-1.18l2.66,.86c-.52,1.08-.81,1.51-1.37,2.08-1.17,1.15-2.75,1.74-4.64,1.74-3.99,0-6.51-2.67-6.51-6.89s2.5-6.91,6.35-6.91c2.64,0,4.71,1.31,5.61,3.57,.43,1.08,.59,1.9,.65,3.43,0,.05,0,.11,.05,.63h-9.8Zm6.87-2.24c-.16-.99-.43-1.6-.99-2.17-.61-.61-1.37-.9-2.43-.9-1.76,0-3.04,1.18-3.38,3.07h6.81Z"/>
      <path class="cls-1" d="M364.04,74.89c-.9,.86-1.46,1.17-2.39,1.42-.65,.18-1.37,.27-2.1,.27-2.75,0-4.42-1.42-4.42-3.8,0-1.58,.99-3.01,2.55-3.66,1.46-.61,3.13-.84,6.35-.9v-1.15c0-1.31-.88-1.99-2.59-1.99-.9,0-1.83,.25-2.34,.66-.43,.32-.63,.63-.9,1.45l-2.88-.52c.52-1.31,.92-1.9,1.78-2.51,1.1-.81,2.37-1.15,4.3-1.15,2.16,0,3.47,.38,4.44,1.33,.77,.72,1.06,1.58,1.06,3.12v6.08c0,1.2,.05,1.81,.18,2.82h-3.04v-1.47Zm0-4.7c-4.3,.09-5.99,.84-5.99,2.6,0,1.06,.79,1.72,2.05,1.72,1.19,0,2.37-.45,3.13-1.2,.54-.54,.81-1.2,.81-1.99v-1.13Z"/>
      <path class="cls-1" d="M375.13,58.37c-.11,.88-.16,1.6-.16,2.96v12.09c0,1.2,.05,1.94,.16,2.94h-3.27c.11-.97,.16-1.63,.16-2.94v-12.11c0-1.36-.04-2.08-.16-2.94h3.27Z"/>
      <path class="cls-1" d="M383.38,58.37v2.87h-3.31v-2.87h3.31Zm-.02,5.02c-.11,.84-.16,1.58-.16,2.96v7.05c0,1.24,.04,2.01,.16,2.96h-3.29c.14-1.02,.18-1.81,.18-2.94v-7.1c0-1.24-.05-2.01-.18-2.94h3.29Z"/>
      <path class="cls-1" d="M398.44,76.52c-.92-.11-1.6-.16-2.97-.16h-5.18c-1.6,0-2.1,.02-2.77,.07v-2.4c.72-.7,1.17-1.22,1.71-1.92l4.35-5.51c.22-.27,.36-.45,.63-.72h-.2c-.18,.02-.45,.02-.81,.02h-2.3c-1.19,0-2.03,.05-2.93,.16v-2.82c1.01,.11,1.76,.16,2.93,.16h4.37c1.64,0,2.05,0,2.73-.07v2.24c-.68,.72-1.26,1.38-1.71,1.94l-4.26,5.4c-.04,.09-.09,.11-.27,.32q-.14,.18-.5,.61c.5-.02,.99-.02,1.35-.02h2.88c1.31,0,2.1-.05,2.95-.16v2.87Z"/>
      <path class="cls-1" d="M404.89,70.62c.11,1.24,.32,1.88,.83,2.53,.65,.81,1.67,1.27,2.82,1.27s2.05-.41,2.7-1.13c.27-.32,.43-.56,.65-1.18l2.66,.86c-.52,1.08-.81,1.51-1.37,2.08-1.17,1.15-2.75,1.74-4.64,1.74-3.99,0-6.51-2.67-6.51-6.89s2.5-6.91,6.35-6.91c2.64,0,4.71,1.31,5.61,3.57,.43,1.08,.59,1.9,.65,3.43,0,.05,0,.11,.05,.63h-9.8Zm6.87-2.24c-.16-.99-.43-1.6-.99-2.17-.61-.61-1.37-.9-2.43-.9-1.76,0-3.04,1.18-3.38,3.07h6.81Z"/>
      <path class="cls-1" d="M429.6,65.76c-.86,0-1.44,.05-2.14,.14v-2.64c.63,.09,1.31,.14,2.12,.14h.92v-1.2c0-2.8,1.42-4.11,4.48-4.11,1.01,0,1.76,.11,2.79,.45l-.61,2.37c-.68-.38-1.24-.54-2.01-.54-1.31,0-1.76,.54-1.76,2.1v.93h1.06c.9,0,1.6-.05,2.55-.14v2.64c-.79-.09-1.4-.14-2.5-.14h-1.1v7.66c0,1.29,.05,1.94,.16,2.94h-3.22c.11-1.06,.16-1.76,.16-2.94v-7.66h-.9Z"/>
      <path class="cls-1" d="M450.04,74.89c-.9,.86-1.46,1.17-2.39,1.42-.65,.18-1.38,.27-2.1,.27-2.75,0-4.42-1.42-4.42-3.8,0-1.58,.99-3.01,2.55-3.66,1.46-.61,3.13-.84,6.35-.9v-1.15c0-1.31-.88-1.99-2.59-1.99-.9,0-1.83,.25-2.34,.66-.43,.32-.63,.63-.9,1.45l-2.88-.52c.52-1.31,.92-1.9,1.78-2.51,1.1-.81,2.37-1.15,4.3-1.15,2.16,0,3.47,.38,4.44,1.33,.77,.72,1.06,1.58,1.06,3.12v6.08c0,1.2,.05,1.81,.18,2.82h-3.04v-1.47Zm0-4.7c-4.3,.09-5.99,.84-5.99,2.6,0,1.06,.79,1.72,2.05,1.72,1.19,0,2.37-.45,3.13-1.2,.54-.54,.81-1.2,.81-1.99v-1.13Z"/>
      <path class="cls-1" d="M461.18,58.37v2.87h-3.31v-2.87h3.31Zm-.02,5.02c-.11,.84-.16,1.58-.16,2.96v7.05c0,1.24,.04,2.01,.16,2.96h-3.29c.14-1.02,.18-1.81,.18-2.94v-7.1c0-1.24-.05-2.01-.18-2.94h3.29Z"/>
      <path class="cls-1" d="M470.81,59.91c-.09,.79-.16,1.76-.16,2.78v.7h.95c1.06,0,1.56-.02,2.28-.14v2.67c-.74-.11-1.17-.14-2.21-.14h-1.01v7.01c0,1.11,.41,1.51,1.49,1.51,.59,0,.95-.11,1.65-.5l.41,2.39c-.97,.36-1.65,.47-2.82,.47-2.59,0-3.63-.93-3.63-3.3v-7.59h-.86c-.83,0-1.26,.02-2.01,.14v-2.67c.65,.11,1.08,.14,2.03,.14h.83v-.7c0-.97-.07-1.97-.16-2.78h3.22Z"/>
      <path class="cls-1" d="M481.18,58.37c-.11,.86-.16,1.69-.16,2.98v3.23c0,.29,0,.41-.05,.97,1.4-1.76,2.61-2.4,4.66-2.4,2.88,0,4.53,1.65,4.53,4.56v5.69c0,1.24,.04,2.1,.18,2.94h-3.27c.11-1.02,.16-1.78,.16-2.94v-5.02c0-1.04-.23-1.78-.65-2.24-.41-.43-.95-.66-1.55-.66-1.69,0-3,1.08-4.01,3.34v4.56c0,1.11,.04,1.97,.18,2.94h-3.25c.14-.97,.18-1.65,.18-2.94v-12.09c0-1.36-.05-2.06-.16-2.96h3.2Z"/>
    </g>
    <g>
      <path class="cls-2" d="M.44,40.42c.29-2.18,.39-4.44,.39-7.41V8.01C.83,5.28,.73,3.06,.44,.74c2.34,.09,4.44,.14,7.81,.14h10.98c10.25,0,15.96,4.72,15.96,13.2s-6,13.98-15.86,13.98h-6.68v4.77c0,2.92,.15,5.42,.39,7.59H.44ZM18.54,18.61c2.83,0,4.54-1.57,4.54-4.21s-1.61-4.07-4.54-4.07h-5.9v8.29h5.9Z"/>
      <path class="cls-2" d="M60.5,.88c4.2,0,7.66,1.11,9.95,3.29,1.95,1.85,2.98,4.49,2.98,7.82s-1.07,6.25-3.12,8.01c-1.07,.93-2,1.39-4.15,2.13,2.44,.69,3.46,1.53,4.73,3.94q.39,.69,3.07,6.99c1.17,2.73,2.1,4.77,3.37,7.36h-13.56c-.39-1.99-.88-3.52-2.25-7.13-1.81-4.72-2.15-5.32-3.46-6.16-.83-.51-1.81-.74-3.12-.74h-3.51v6.44c0,3.38,.1,5.32,.39,7.59h-12.54c.29-2.18,.39-3.75,.39-7.55V8.06c0-3.19-.1-5.09-.39-7.31,2.15,.09,4.34,.14,7.91,.14h13.32Zm-2.93,15.97c2.29,0,3.66-1.3,3.66-3.43s-1.32-3.24-3.66-3.24h-6.15v6.67h6.15Z"/>
      <path class="cls-2" d="M79.68,20.6c0-12.55,8.05-20.6,20.69-20.6s20.54,8.01,20.54,20.42-8.29,20.97-20.54,20.97-20.69-8.1-20.69-20.79Zm29.03-.05c0-6.94-3.12-11.07-8.39-11.07s-8.49,4.12-8.49,11.07,3.22,11.25,8.49,11.25,8.39-4.26,8.39-11.25Z"/>
      <path class="cls-2" d="M164.87,.88c-.29,2.18-.39,3.8-.39,7.41v15.6c0,5.32-1.66,9.68-4.78,12.64-1.51,1.48-3.27,2.55-5.12,3.24-2.98,1.06-6.2,1.62-9.56,1.62-12.83,0-19.47-5.97-19.47-17.59V8.29c0-3.52-.1-5.42-.39-7.41h12.54c-.29,1.76-.39,3.7-.39,7.41v15.7c0,5.51,2.34,7.92,7.66,7.92s7.76-2.45,7.76-7.96V8.29c0-3.75-.1-5.14-.39-7.41h12.54Z"/>
      <path class="cls-2" d="M170.77,8.06c0-3.52-.1-5.14-.44-7.31,2.2,.14,3.22,.14,7.86,.14h11.08c6.1,0,11.17,1.71,14.64,4.95,3.56,3.29,5.37,8.29,5.37,14.58s-1.95,11.53-5.61,15c-3.42,3.24-8.39,5-14.3,5h-11.17c-4.24,0-5.47,0-7.81,.14,.29-2.08,.39-3.7,.39-7.18V8.06Zm17.47,22.59c5.86,0,8.93-3.56,8.93-10.37s-2.88-9.63-9.17-9.63h-5.42V30.65h5.66Z"/>
      <path class="cls-2" d="M264.79,23.52c0-1.11,.1-3.01,.34-8.06-.39,1.44-.68,2.5-.83,3.24-.54,2.08-.88,3.47-1.07,4.07l-3.32,10.42q-.49,1.48-.78,2.36c-.83,2.64-1.07,3.52-1.27,4.86h-10.2c-.2-1.3-.34-1.81-1.07-4.03-.44-1.39-.49-1.57-.98-3.19l-3.37-10.79c-.05-.19-.68-2.5-1.85-6.95,.34,5.56,.39,7.04,.39,8.01v9.49c0,3.24,.1,5.37,.39,7.45h-11.32c.29-2.27,.39-4.31,.39-7.45V8.33c0-2.73-.15-5.42-.39-7.45h15.37c.2,1.81,.44,2.78,1.85,7.18l5.71,18.06,5.66-18.06q.39-1.25,.59-1.9c.88-2.78,1.12-3.8,1.27-5.28h15.37c-.29,2.22-.39,4.35-.39,7.45v24.63c0,3.66,.1,5.51,.39,7.45h-11.32c.29-2.36,.39-3.66,.39-7.45l.05-9.45Z"/>
      <path class="cls-2" d="M280.01,20.6c0-12.55,8.05-20.6,20.69-20.6s20.54,8.01,20.54,20.42-8.29,20.97-20.54,20.97-20.69-8.1-20.69-20.79Zm29.03-.05c0-6.94-3.12-11.07-8.39-11.07s-8.49,4.12-8.49,11.07,3.22,11.25,8.49,11.25,8.39-4.26,8.39-11.25Z"/>
      <path class="cls-2" d="M360.51,23.52c0-1.11,.1-3.01,.34-8.06-.39,1.44-.68,2.5-.83,3.24-.54,2.08-.88,3.47-1.07,4.07l-3.32,10.42q-.49,1.48-.78,2.36c-.83,2.64-1.07,3.52-1.27,4.86h-10.2c-.2-1.3-.34-1.81-1.07-4.03-.44-1.39-.49-1.57-.98-3.19l-3.37-10.79c-.05-.19-.68-2.5-1.85-6.95,.34,5.56,.39,7.04,.39,8.01v9.49c0,3.24,.1,5.37,.39,7.45h-11.32c.29-2.27,.39-4.31,.39-7.45V8.33c0-2.73-.15-5.42-.39-7.45h15.37c.2,1.81,.44,2.78,1.85,7.18l5.71,18.06,5.66-18.06q.39-1.25,.59-1.9c.88-2.78,1.12-3.8,1.27-5.28h15.37c-.29,2.22-.39,4.35-.39,7.45v24.63c0,3.66,.1,5.51,.39,7.45h-11.32c.29-2.36,.39-3.66,.39-7.45l.05-9.45Z"/>
      <path class="cls-2" d="M401.55,30.79c3.56,0,5.42-.09,7.76-.32v10.28c-2.25-.23-4.25-.32-7.86-.32h-16.69c-4.2,0-5.47,0-7.81,.14,.29-1.99,.39-3.66,.39-7.18V8.01c0-3.24-.1-5.05-.39-7.27,2.29,.14,3.51,.14,7.76,.14h16.1c3.03,0,5.12-.09,7.86-.32V10.79c-2.34-.23-4.34-.32-7.86-.32h-11.66v5.19h9.52c3.12,0,5.17-.09,7.95-.32v10c-2.34-.23-4.34-.32-7.95-.32h-9.56v5.79h12.44Z"/>
      <path class="cls-2" d="M438.58,19.26c.93,1.34,1.56,2.41,2.2,3.75-.15-1.34-.24-2.78-.24-4.03V8.29c0-2.96-.1-5.05-.39-7.41h12.44c-.29,2.27-.39,4.21-.39,7.45v24.63c0,2.92,.15,5.42,.39,7.45h-12.49c-1.42-2.55-2.25-3.84-4.05-6.44l-7.81-11.3c-.78-1.16-1.81-2.82-2.54-4.26,.15,1.53,.24,3.24,.24,4.54v10.05c0,3.24,.1,5.19,.39,7.41h-12.44c.29-1.99,.39-3.8,.39-7.45V8.33c0-2.92-.1-5.19-.39-7.45h12.49c.44,1.3,1.66,3.38,3.76,6.34l8.44,12.04Z"/>
      <path class="cls-2" d="M481.22,32.83c0,3.01,.1,5.14,.39,7.59h-12.83c.29-2.41,.39-4.54,.39-7.59V10.74h-5.27c-3.17,0-5.32,.09-7.81,.32V.56c2.54,.23,4.73,.32,7.71,.32h22.59c3.32,0,5.42-.09,7.86-.32V11.07c-2.49-.23-4.34-.32-7.86-.32h-5.17v22.08Z"/>
    </g>
  </g>
</svg>