<?xml version="1.0" encoding="UTF-8"?>
<svg id="_圖層_2" data-name="圖層 2" xmlns="http://www.w3.org/2000/svg" viewBox="0 0 336.6 224.4">
  <defs>
    <style>
      .cls-1 {
        fill: #fff;
      }

      .cls-2 {
        fill: none;
        stroke: #fff;
        stroke-miterlimit: 10;
      }
    </style>
  </defs>
  <g id="_圖層_4" data-name="圖層 4">
    <path class="cls-1" d="M2.12,41.21c1.63,.24,3.83,.32,7.49,.32h11.4c3.01,0,4.64-.08,6.11-.32l5.95,5.23q-.33,.48-.9,1.51c-3.5,5.94-6.35,9.67-10.18,13.39-4.48,4.28-9.37,7.61-15.97,10.86-2.2-4.2-3.01-5.47-6.03-8.88,9.04-3.57,14.5-7.29,19.22-13.16H9.61c-3.01,0-5.29,.08-7.49,.4v-9.35Zm69.73,2.38c-.9,.79-1.22,1.11-2.28,2.06-3.91,3.57-7.01,6.02-10.1,8.16,5.38,3.8,10.83,6.5,17.11,8.4-2.69,3.33-4.15,5.86-6.11,10.07-5.05-2.14-8.63-4.12-12.63-6.97-6.76-4.84-11-9.43-14.58-15.69,.16,3.09,.16,4.28,.16,6.97v8.8c0,3.73-.98,5.86-3.26,7.05-1.87,1.03-4.07,1.35-8.47,1.35-2.28,0-3.18,0-7.49-.32-.65-3.96-1.22-5.86-2.69-9.83,3.67,.48,5.87,.63,7.9,.63,3.5,0,3.91-.24,3.91-1.9v-24.81h-15.88c-4.56,0-6.6,.08-8.47,.24,.24-2.46,.33-3.8,.33-8.64V15.61c0-4.28-.08-6.58-.41-8.88,2.52,.24,5.46,.32,9.61,.32h11.73c1.47-3.41,2.04-5.15,2.36-6.82l12.14,.87q-.24,.55-.9,1.74c-.08,.16-.41,.87-.9,1.82-.41,.87-.41,.95-1.14,2.38h16.45c4.15,0,7.17-.08,9.61-.32-.33,2.46-.41,4.28-.41,8.56v13.87c0,4.52,.08,6.1,.33,8.64-2.69-.16-4.81-.24-8.47-.24h-14.91c2.28,3.8,4.24,6.42,7.49,9.75,5.54-3.73,8.8-6.66,10.83-9.67l9.12,5.94ZM19.47,18.94H57.35v-3.96H19.47v3.96Zm0,11.18H57.35v-3.96H19.47v3.96Z"/>
    <path class="cls-1" d="M89.04,12.13c-1.55,.08-2.28,.16-3.34,.32V2.38c2.12,.4,3.75,.48,7.33,.48h13.6c3.75,0,5.7-.08,7.49-.4V12.05l-3.18-.16v53.97c0,4.36,.08,6.5,.41,8.64h-9.86c.33-2.38,.41-4.83,.41-8.64v-4.99c-1.38,.4-5.7,1.66-12.87,3.65q-1.3,.32-2.61,.79l-1.87-10.3c.9,0,2.04-.16,4.48-.55V12.13Zm8.64,7.69h4.72v-7.69h-4.72v7.69Zm0,15.53h4.72v-7.37h-4.72v7.37Zm0,17.36c1.79-.48,1.96-.48,4.72-1.19v-8h-4.72v9.19ZM160.08,13.55c-4.4,5.87-7.17,9.19-13.28,15.46,2.85-.16,3.99-.24,6.11-.4-.49-1.27-.73-1.82-1.63-3.73l6.44-2.38c2.44,5.07,3.67,8.64,4.89,14.27l-7.33,2.54c-.24-2.14-.33-2.77-.57-4.28-3.18,.48-3.83,.55-7.25,.95-3.26,.4-3.58,.48-7.25,.79-1.06,.08-1.71,.16-2.04,.24l.16,1.11-4.4,1.35h1.3c-.16,1.27-.16,1.74-.16,3.41v2.22c0,9.43-.57,13.87-2.36,18.07-1.47,3.49-4.4,6.66-8.23,9.11-1.63,1.03-3.26,1.82-6.6,3.17-1.87-3.57-3.1-5.31-5.62-8.01,3.83-.95,5.54-1.66,7.74-3.09,2.28-1.51,3.67-3.01,4.81-5.47h-2.77v.08h-8.47c.24-1.59,.33-2.54,.33-3.73v-10.94c0-1.35-.08-2.46-.24-3.72h8.47c-.16,1.19-.24,2.38-.24,4.12v5.79h4.48c.08-2.06,.08-2.22,.08-6.18,0-2.14-.08-3.41-.24-4.83h5.29q-.24-1.98-.41-3.33c-7.25,.87-7.74,.95-13.44,1.35q-3.75,.32-5.29,.55l-1.38-8.32q.81,.08,3.26,.08c2.61-2.77,3.26-3.49,4.56-4.91-2.2-2.93-4.48-5.55-7.82-8.88l5.29-6.34,1.06,.95c2.12-2.85,4.32-6.82,5.78-10.62l8.15,3.49c-3.42,5.63-5.87,9.11-8.72,12.44,.82,.95,1.06,1.19,1.87,2.14,3.01-3.8,3.91-5.23,5.86-8.64l3.34,1.9,3.34-4.04c1.14,1.11,1.47,1.51,2.44,2.46,2.2-2.69,4.15-6.1,5.62-9.59l8.15,3.57c-3.01,4.91-5.21,8-8.55,11.81,.9,1.03,1.14,1.35,2.12,2.62,2.69-3.41,3.67-4.83,6.27-8.96l7.09,4.36Zm-22.97,15.69c1.79-1.74,2.85-2.93,3.99-4.28-1.95-2.62-4.24-5.31-6.6-7.69-3.91,4.91-7.82,9.27-10.92,12.28q2.53-.16,6.03-.48c-.41-1.51-.65-2.06-1.39-3.88l6.19-1.82c1.06,2.77,1.38,3.57,2.12,5.87h.57Zm10.1,38.6c0,2.06,.16,4.44,.49,6.58h-10.18c.33-2.22,.41-3.57,.41-6.42v-23.7c0-1.03,0-2.62-.08-4.83h9.12c-.24,1.43-.33,2.69-.33,4.76v6.18h4.72v-5.31c0-1.74-.08-3.01-.24-4.44h8.88c-.16,1.43-.24,2.69-.24,4.36v12.68c0,1.66,.08,2.93,.33,4.36h-8.96c.16-1.19,.16-1.43,.24-3.17h-4.15v8.96Z"/>
    <path class="cls-1" d="M192.34,26.71c3.01,0,4.56-.08,5.62-.16-.49,5.47-.98,10.07-1.14,11.49-.98,6.82-2.44,11.89-5.21,17.91,6.27,5.63,12.87,7.29,29.24,7.29,10.26,0,19.31-.32,27.21-1.03-1.47,4.04-1.96,6.1-2.44,10.38-5.78,.08-21.26,.24-24.6,.24-17.6,0-26.39-2.3-34.05-8.96-3.18,4.36-6.11,7.37-10.26,10.86-2.44-4.44-3.5-5.86-6.68-8.96,4.97-3.96,7.25-6.18,9.94-9.83-1.79-2.62-3.18-4.83-4.56-7.45q-2.2-4.04-3.1-5.63l8.39-4.68c1.47,4.2,2.28,5.86,4.07,9.11,1.47-3.88,2.04-6.18,2.93-11.65h-8.06c-2.28,0-4.4,.08-6.19,.24v-9.27c3.99-3.88,7.82-8.64,11.16-13.87h-6.92c-2.04,0-3.5,.08-5.54,.32V3.33c1.96,.24,3.42,.32,5.95,.32h9.29c3.18,0,4.48-.08,5.78-.32l4.72,6.18c-.57,.71-1.79,2.62-3.83,5.86-1.39,2.14-1.87,2.85-8.06,11.33h6.35Zm21.91-14.19h-9.04c-2.04,0-4.07,.08-5.7,.24V4.75c2.04,.24,3.5,.32,6.43,.32h8.31c0-2.3-.08-3.09-.41-4.84h10.75c-.33,1.43-.41,2.3-.49,4.84h11.73c2.44,0,4.4-.08,6.27-.32-.16,1.59-.24,3.01-.24,5.07v5.71c2.36-.08,3.58-.16,5.29-.48v9.04c-1.79-.24-3.01-.32-5.29-.32v5.63c0,1.74,.08,3.41,.24,4.84-1.95-.16-3.58-.24-5.54-.24h-12.46v3.72h12.46c2.85,0,4.56-.08,6.68-.32v8.24c-1.79-.16-3.83-.24-6.68-.24h-12.46v3.65h14.91c3.42,0,5.21-.08,7.17-.4v8.4c-2.04-.16-4.24-.24-7.17-.24h-14.91c.08,2.3,.16,3.17,.41,4.76h-10.75c.33-1.74,.41-2.46,.49-4.76h-10.75c-3.5,0-4.97,.08-6.84,.24v-8.32c1.96,.24,4.07,.32,6.92,.32h10.67v-3.65h-8.8c-2.28,0-4.4,.08-6.27,.32v-8.32c1.96,.24,3.67,.32,6.27,.32h8.8v-3.72h-9.21c-2.2,0-3.18,.08-5.05,.24v-7.77c1.71,.24,2.77,.32,5.62,.32h8.64v-3.49h-11.97c-3.42,0-4.48,0-6.68,.24v-7.85c1.87,.24,2.85,.32,7.09,.32h11.57v-3.49Zm18,3.49v-3.49h-8.15v3.49h8.15Zm-8.15,10.78h8.15v-3.49h-8.15v3.49Z"/>
    <path class="cls-1" d="M257.19,13.39c1.96,.32,3.5,.4,6.6,.4h17.43c3.42,0,4.89-.08,6.6-.32v9.27c-1.96-.24-2.53-.24-6.27-.24h-17.76c-2.93,0-4.72,.08-6.6,.32V13.39Zm31.52,19.89c1.71,.24,2.61,.32,4.97,.32-2.44-2.3-5.21-4.44-7.74-5.94v6.42c-1.71-.24-2.53-.24-4.97-.24h-15.97c-2.44,0-3.67,.08-5.13,.24v-8.24c1.55,.16,2.61,.24,5.13,.24h15.97c2.69,0,3.58,0,4.97-.24v1.59c6.03-4.52,7.9-9.35,7.9-19.97,0-1.82-.08-3.09-.41-4.83,2.04,.24,3.83,.32,6.44,.32h13.77c2.85,0,4.64-.08,6.76-.32-.16,1.74-.25,3.57-.25,6.26v11.49c0,.95,.49,1.19,2.12,1.19q2.77,0,3.1-9.27c2.85,1.51,4.97,2.3,8.23,3.25-.49,7.45-1.06,10.38-2.53,12.28-1.47,1.98-3.5,2.46-10.1,2.46-8.72,0-10.35-.87-10.35-5.47V12.13h-7.25c-.33,7.45-1.47,11.81-4.56,16.56-1.3,1.98-2.28,3.17-4.15,4.91h23.62c2.93,0,4.48-.08,5.54-.24l5.05,4.76q-.49,.95-1.63,3.41c-3.34,7.53-6.27,12.13-10.59,16.96,4.97,2.54,9.86,4.2,17.27,5.71-2.28,3.8-3.5,6.34-4.81,10.14-9.53-2.93-15.07-5.39-20.28-8.88-5.62,3.96-11,6.66-18.65,9.11-1.3-2.93-2.28-4.6-3.99-7.05,0,3.25,.08,3.96,.25,5.79h-9.53v-2.46h-7.74v3.57h-9.86c.24-2.62,.41-5.15,.41-7.85v-12.13c0-2.54-.08-3.96-.33-6.1,1.96,.16,3.5,.24,6.19,.24h15.56c3.01,0,3.91,0,5.21-.24-.16,1.59-.16,2.69-.16,5.55v10.86c5.62-1.51,10.26-3.33,14.42-5.87-1.79-1.66-2.93-2.93-4.07-4.28q-5.38-6.58-6.27-7.53l8.39-4.36h-3.42c-2.77,0-4.56,.08-6.52,.32v-9.75Zm-29-31.07c2.28,.24,3.58,.32,7.09,.32h12.22c3.5,0,4.81-.08,7.09-.32V10.54c-2.28-.16-3.83-.24-7.09-.24h-12.22c-3.1,0-5.13,.08-7.09,.24V2.22Zm.16,34.87c1.55,.16,2.61,.24,5.13,.24h15.97c2.61,0,3.58-.08,4.97-.24v8.24c-1.71-.24-2.44-.24-5.13-.24h-15.88c-2.53,0-3.42,0-5.05,.24v-8.24Zm9.21,25.68h7.82v-6.5h-7.82v6.5Zm30.55-20.05c3.01,4.84,4.89,7.13,8.72,10.22,3.1-3.09,4.81-5.47,7.33-10.22h-16.05Z"/>
    <g>
      <path class="cls-1" d="M33.07,197.69c.66,.11,1.09,.13,2.12,.13h2.04c.8,0,1.38-.03,2.01-.13-.08,.82-.11,1.46-.11,2.89v5.54c.37,.8,.74,1.22,1.46,1.7,1.11,.72,2.7,.95,6.15,.95,5.14,0,8.3-.13,11-.42-.48,1.27-.61,1.8-.8,3.02-2.97,.08-5.54,.11-8.56,.11-3.87,0-5.86-.19-7.26-.64-1.3-.45-2.33-1.19-3.37-2.47-1.11,1.09-1.94,1.83-2.99,2.6-.4,.32-.8,.64-.98,.8l-1.27-3.02c.9-.34,2.46-1.43,3.87-2.65v-5.54h-1.48c-.74,0-1.17,.03-1.83,.13v-3Zm2.09-9.78c2.04,1.83,2.86,2.7,4.53,4.85l-2.25,2.15c-1.62-2.28-2.6-3.39-4.4-5.06l2.12-1.93Zm10.6,2.12c.56-.85,1.03-1.78,1.4-2.7l3.07,.45c-.5,.93-.82,1.46-1.35,2.25h4.35c.82,0,1.38-.03,1.91-.11-.05,.58-.08,1.17-.08,1.86v3.63c0,.9,0,1.48,.08,1.99-.66-.03-1.09-.05-1.91-.05h-8.96v1.91h9.73c.95,0,1.35-.03,1.86-.08-.05,.56-.08,1.11-.08,2.01v4c0,.66,.03,1.25,.08,1.83-.58-.05-1.11-.08-1.8-.08h-10.71c-.77,0-1.35,.03-1.93,.08,.05-.56,.08-1.17,.08-1.83v-13.41c0-.61-.05-1.19-.11-1.86,.66,.08,1.3,.11,2.07,.11h2.31Zm-1.48,4.9h8v-2.39h-8v2.39Zm0,9.46h8.72v-2.7h-8.72v2.7Z"/>
      <path class="cls-1" d="M59.47,197.58c.66,.11,1.09,.13,2.12,.13h2.07c.98,0,1.3-.03,1.99-.11-.08,.77-.08,1.22-.08,2.86v5.65c.61,1.03,1.03,1.46,1.88,1.83,1.17,.5,2.68,.72,5.41,.72,4.72,0,7.9-.16,11.45-.53-.5,1.46-.58,1.7-.8,3.13-2.65,.11-6.12,.16-9.33,.16-4.27,0-6.07-.19-7.47-.82-.95-.42-1.75-1.09-2.6-2.12-.87,.87-2.07,1.86-3.29,2.7-.34,.24-.42,.32-.58,.48l-1.3-3.02c1.01-.42,2.52-1.46,3.84-2.62v-5.7h-1.54c-.72,0-1.14,.03-1.78,.13v-2.86Zm2.28-9.78c1.94,1.78,2.94,2.89,4.45,4.85l-2.33,2.07c-1.51-2.17-2.44-3.26-4.32-5.01l2.2-1.91Zm21.07,6.28q-.32,.27-.66,.58c-1.22,1.17-2.97,2.6-4.21,3.47,1.64,2.09,3.26,3.42,6.15,5.09-.56,.87-.93,1.7-1.25,2.81-2.12-1.27-3.66-2.62-4.98-4.29,.03,.32,.03,.37,.03,.74,0,2.2-.27,3.53-.82,4.35s-1.35,1.09-3.18,1.09c-.87,0-1.41-.03-2.46-.11-.19-1.11-.24-1.22-.74-2.6,1.14,.19,1.86,.26,2.78,.26,1.33,0,1.64-.5,1.64-2.73,0-.34-.03-.64-.05-1.33-2.39,1.78-4.53,3.02-7.74,4.48-.5-1.06-.66-1.3-1.43-2.36,2.89-1.03,4.61-1.86,6.76-3.15,.64-.4,.93-.61,2.09-1.48-.13-.58-.21-.82-.42-1.46-1.86,1.3-3.68,2.23-7.05,3.6-.37-.93-.8-1.64-1.43-2.36,3.82-1.27,5.43-2.01,7.47-3.42-.26-.4-.37-.56-.8-1.06-1.54,.8-2.84,1.35-5.65,2.36-.74-1.4-.93-1.67-1.56-2.36,3.79-.98,5.86-1.83,7.47-3.07h-3.42c-1.22,0-2.04,.05-2.86,.16v-2.84c.74,.11,1.72,.16,3.13,.16h10.71c1.4,0,2.33-.05,3.13-.16v2.84c-.87-.11-1.67-.16-2.92-.16h-3.58c-1.03,.9-1.4,1.19-2.28,1.78,1.03,1.25,1.38,1.78,1.91,2.92,1.72-1.3,2.94-2.46,3.82-3.63l2.41,1.88Z"/>
      <path class="cls-1" d="M89.44,201.96c-1.3,0-2.09,.05-2.84,.16v-2.89c.72,.13,1.48,.16,2.84,.16h17.36c1.33,0,2.07-.03,2.81-.16v2.89c-.8-.11-1.56-.16-2.81-.16h-4.88v6.04c0,.64,.34,.74,2.54,.74,1.96,0,2.57-.16,2.76-.72,.13-.34,.24-1.35,.24-2.25v-.45c1.14,.5,1.62,.64,2.73,.82-.11,2.65-.42,3.82-1.22,4.48-.74,.64-1.86,.8-5.25,.8-3.98,0-4.74-.37-4.74-2.28v-7.18h-2.92c-.21,2.46-.5,3.55-1.35,5.04-1.3,2.28-2.99,3.45-7.26,5.09-.45-1.01-.93-1.83-1.62-2.73,2.23-.66,3.02-.98,4.03-1.54,1.72-.95,2.81-2.49,3.13-4.43,.08-.42,.11-.69,.19-1.43h-3.74Zm6.92-12.51c0-.77-.05-1.38-.16-1.93h3.26c-.11,.5-.13,1.14-.13,1.93v.64h7.34c1.35,0,2.04-.03,2.94-.11-.08,.58-.11,1.09-.11,2.01v2.17c0,.85,.03,1.46,.11,2.04h-2.86v-3.53h-17.25v3.53h-2.89c.08-.61,.13-1.19,.13-2.07v-2.15c0-.87-.03-1.4-.11-2.01,.85,.08,1.59,.11,2.89,.11h6.84v-.64Zm-5.96,5.14c.72,.11,1.33,.13,2.52,.13h10.39c1.19,0,1.8-.03,2.54-.13v2.84c-.74-.11-1.38-.13-2.54-.13h-10.39c-1.17,0-1.8,.03-2.52,.13v-2.84Z"/>
      <path class="cls-1" d="M115.68,200.76c-1.09,0-1.94,.05-2.81,.16v-2.73c.82,.11,1.67,.16,2.81,.16h7.31v-1.7h-5.7c-1.03,0-1.62,.03-2.36,.13v-2.57c.72,.11,1.25,.13,2.36,.13h5.7v-1.64h-6.36c-1.19,0-2.07,.05-2.84,.13v-2.65c.85,.11,1.67,.16,2.84,.16h3.1c-.61-1.01-1.01-1.51-1.56-2.12l2.68-.93c.85,1.14,1.43,2.07,1.96,3.05h3.37c.69-.9,1.22-1.8,1.72-2.92l2.89,.74c-.45,.74-.95,1.43-1.54,2.17h3.29c1.25,0,2.04-.05,2.84-.16v2.65c-.8-.08-1.64-.13-2.84-.13h-6.68v1.64h5.99c1.11,0,1.64-.03,2.39-.13v2.57c-.74-.11-1.32-.13-2.39-.13h-5.99v1.7h7.61c1.25,0,2.04-.05,2.84-.16v2.73c-.8-.13-1.54-.16-2.84-.16h-7.66q-.03,.16-.08,.8s-.05,.37-.16,1.03h7.58c1.27,0,1.99-.03,2.84-.13v2.73c-.9-.11-1.86-.16-3.05-.16h-5.99c1.11,1.27,2.52,2.25,4.24,2.94,1.7,.66,3.1,.95,5.51,1.11-.69,1.25-.9,1.8-1.19,3.05-3.05-.53-4.9-1.14-6.81-2.2-1.83-1.06-3.23-2.33-4.37-3.98-.8,1.3-1.86,2.46-3.26,3.45-1.78,1.25-3.58,1.91-7.32,2.68-.27-1.11-.5-1.59-1.27-2.89,4.27-.42,7.13-1.72,9.04-4.16h-5.27c-1.19,0-2.15,.05-3.05,.16v-2.73c.85,.11,1.67,.13,2.84,.13h6.6c.11-.45,.13-.58,.13-.74,.03-.34,.05-.58,.08-.66,.03-.03,.03-.05,.03-.08l-.05-.32s.03,0,.03-.03h-7.16Z"/>
      <path class="cls-1" d="M153.53,208.64c-1.4,0-2.09,.03-2.81,.08,.08-.58,.11-1.19,.11-2.49v-3.98c0-1.17-.03-1.8-.08-2.6,.74,.08,1.25,.08,2.68,.08h12.72c1.51,0,1.96-.03,2.68-.08-.05,.64-.08,1.56-.08,2.76v3.63c0,1.56,.03,2.17,.11,2.68-.69-.05-1.4-.08-2.81-.08h-1.22c2.17,.69,4.19,1.01,7.26,1.22-.74,.82-1.14,1.43-1.64,2.33-3.92-.66-5.72-1.17-8.35-2.33l1.22-1.22h-6.94l1.14,1.09c-2.78,1.4-4.21,1.83-8.22,2.49-.61-1.06-.87-1.43-1.59-2.28,3.13-.24,5.2-.64,6.84-1.3h-1.01Zm15.51-15.05s-.05,.4-.16,1.14h.48c1.27,0,1.88-.03,2.62-.13v1.99c-.74-.11-1.35-.13-2.52-.13h-.87q-.13,.77-.34,1.78c-.03,.21-.05,.42-.08,.77-.85-.05-1.78-.08-2.65-.08h-13.28c-.87,0-1.54,.03-2.15,.08,.4-1.01,.5-1.35,.82-2.54h-.74c-1.11,0-1.7,.03-2.36,.13v-1.99c.66,.11,1.22,.13,2.44,.13h1.03c.29-1.54,.32-1.72,.34-2.52,.61,.05,1.19,.08,2.09,.08h13.01c1.06,0,1.14,0,1.94-.03v-.87h-17.63v2.2h-2.86c.11-.53,.13-.98,.13-1.93v-.98c0-.61-.03-1.03-.11-1.59,.82,.08,1.46,.11,2.89,.11h7.1c0-.82-.03-1.22-.13-1.75h3.15c-.11,.53-.13,.95-.13,1.75h7.58c1.46,0,2.04-.03,2.81-.11-.05,.48-.08,.8-.08,1.62v1.03c0,.87,.03,1.35,.13,1.86h-2.49Zm-15.32,2.86c-.11,.34-.13,.45-.24,.85h4.45c.08-.34,.13-.48,.21-.85h-4.43Zm12.22,5.75v-.85h-12.38v.85h12.38Zm0,2.31v-.85h-12.38v.85h12.38Zm0,2.31v-.85h-12.38v.85h12.38Zm-7.45-12.09c.05-.34,.08-.42,.13-.77h-4.37c-.05,.34-.08,.45-.13,.77h4.37Zm2.28,1.72c-.11,.45-.13,.53-.21,.85h4.93c.13-.4,.16-.53,.24-.85h-4.96Zm.42-2.49c-.05,.34-.05,.45-.11,.77h4.98c.05-.29,.05-.4,.11-.77h-4.98Z"/>
      <path class="cls-1" d="M178.39,197.19h-1.46c-.72,0-1.3,.03-1.99,.08,.08-.77,.11-1.43,.11-2.62v-3.58c0-1.33-.03-1.96-.11-2.62,.72,.08,1.22,.11,2.31,.11h3.23c1.19,0,1.78-.03,2.49-.13-.05,.74-.08,1.46-.08,2.7v3.76c0,1.43,0,1.88,.05,2.39-.64-.05-1.06-.08-1.88-.08h-.27v3.26h.61c.98,0,1.48-.03,1.91-.11v2.65c-.45-.08-.87-.11-1.91-.11h-.61v4.32c1.27-.4,1.32-.4,2.6-.82v2.57c-2.81,.98-4.88,1.62-7.63,2.33-.77,.19-.95,.24-1.46,.42l-.42-2.92c.45-.03,.64-.05,1.17-.16v-7.05c0-1.09-.05-1.67-.13-2.33h2.57c-.08,.61-.11,1.27-.11,2.31v6.57q.5-.13,1.01-.24v-10.71Zm-.82-2.41h2.89v-3.76h-2.89v3.76Zm15.13,6.81c-.82-.72-1.27-1.03-2.46-1.64l1.48-1.33c1.38,.69,2.09,1.14,3.02,1.91l-.9,.93,1.88-.24c1.14-.13,1.91-.26,2.6-.48l.16,2.68c-.64,0-1.48,.08-2.54,.19l-1.19,.16,1.77,1.14c-.37,.32-.4,.32-1.09,1.06-.64,.69-1.27,1.25-2.17,1.94,.87,.72,1.78,1.22,2.2,1.22,.64,0,.93-.74,1.01-2.6,.87,.72,1.38,.98,2.28,1.3-.21,1.46-.37,2.09-.69,2.73-.48,.93-1.19,1.38-2.2,1.38-1.4,0-3.21-.93-4.9-2.54-2.01,1.11-3.71,1.75-6.73,2.54-.34-1.06-.56-1.54-1.25-2.57,2.76-.48,4.19-.9,6.36-1.91-.72-1.03-1.11-1.78-1.56-2.86l-1.54,.19c-.87,.11-1.72,.26-2.25,.4l-.19-2.65c.11,.03,.21,.03,.24,.03,.5,0,1.01-.05,1.99-.16l1.01-.13c-.13-.56-.19-.8-.29-1.4-.16-.8-.21-1.03-.37-1.48l2.81-.29v.19c0,.61,.19,1.78,.42,2.7l3.1-.37Zm3.5-7.87c-.4,.29-.45,.34-1.19,.93-.66,.53-1.14,.9-1.78,1.33,.98,.66,1.7,.95,2.25,.95s.64-.34,.72-2.12c.66,.5,1.25,.8,2.15,1.09-.32,2.68-.98,3.6-2.52,3.6s-3.39-.82-5.04-2.17c-1.62,.74-2.73,1.11-5.88,1.94-.45-1.11-.61-1.4-1.27-2.25,2.2-.32,3.68-.69,5.54-1.38-.61-.82-.9-1.3-1.3-2.15l-1.94,.21c-.85,.11-1.54,.24-2.15,.37l-.18-2.49c.66,0,1.3-.05,2.09-.13l1.41-.16c-.19-.72-.27-1.11-.45-2.07-.19-.95-.24-1.11-.34-1.48l2.89-.19v.19c0,.9,.19,2.07,.53,3.23l3.66-.4c-.77-.77-1.46-1.25-2.65-1.88l1.67-1.46c1.14,.61,2.01,1.19,2.97,2.01l-1.41,1.25,1.35-.16c1.01-.11,1.72-.24,2.36-.4l.13,2.46c-.53,0-1.62,.08-2.31,.19l-.93,.11,1.62,1.03Zm-5.78,10.55c.37,.77,.64,1.19,1.19,1.91,1.25-.85,1.8-1.35,2.57-2.36l-3.76,.45Zm.18-11.13c.34,.61,.53,.85,.95,1.38,1.11-.64,1.72-1.09,2.36-1.75l-3.31,.37Z"/>
      <path class="cls-1" d="M201.63,192.26c0-1.01-.05-2.25-.16-3.21,.9,.11,1.7,.13,3.13,.13h16.65c1.3,0,2.15-.03,3.13-.13-.11,.95-.16,1.86-.16,3.18v15.93c0,1.54,.03,2.23,.16,3.05h-3.08v-1.46h-16.72v1.46h-3.1c.13-.85,.16-1.56,.16-3.1v-15.85Zm2.94,14.76h16.7v-15.16h-4.48v8.14c0,.56,.05,.61,.61,.61,.45,0,.74-.13,.82-.37,.13-.42,.21-1.7,.21-3.29,.87,.48,1.64,.77,2.49,.95-.16,3.05-.29,3.9-.8,4.51-.53,.64-1.38,.85-3.37,.85-2.31,0-2.81-.42-2.81-2.28v-9.12h-2.62c-.05,2.7-.08,3.26-.26,4.66-.48,3.58-1.86,6.02-4.64,8.16-.56-.87-1.17-1.56-1.86-2.09v4.43Zm0-4.77c2.97-2.01,3.98-4.66,3.98-10.39h-3.98v10.39Z"/>
      <path class="cls-1" d="M240.94,196.79c.66,2.39,2.07,4.96,3.82,6.94,1.96,2.23,4.16,3.74,7.31,5.04-.9,1.06-1.27,1.62-1.93,3.05-2.84-1.46-4.67-2.81-6.55-4.85-1.72-1.83-3.02-3.95-4-6.41-.8,2.73-2.2,5.01-4.32,7.1-1.8,1.78-3.71,3.02-6.33,4.16-.45-1.01-1.01-1.83-1.86-2.78,1.91-.77,2.97-1.33,4.29-2.25,3.55-2.52,5.33-5.49,5.96-9.99h-6.26c-1.67,0-2.44,.05-3.31,.19v-3.37c.82,.13,1.78,.19,3.34,.19h6.49c.05-1.33,.08-1.75,.08-3.13,0-1.11-.08-1.91-.18-2.65h3.5c-.13,.93-.16,1.33-.19,3.1,0,1.09-.03,1.7-.05,2.68h7.02c1.51,0,2.44-.05,3.34-.19v3.37c-1.06-.13-1.86-.19-3.31-.19h-6.86Z"/>
      <path class="cls-1" d="M255.78,191.43c-.85,0-1.32,.03-1.99,.13v-2.86c.64,.11,1.32,.16,2.41,.16h3.74c1.06,0,1.7-.03,2.36-.16v2.84c-.66-.08-1.22-.11-1.96-.11h-.8v5.17h.61c.69,0,1.09-.03,1.67-.13v2.7c-.53-.08-1.06-.11-1.67-.11h-.61v5.22c1.11-.48,1.43-.61,2.6-1.19l.08,2.81c-2.31,1.14-3.34,1.59-7.45,3.26-.13,.05-.27,.11-.53,.21l-.72-3c.9-.19,1.46-.37,3.26-1.01v-6.31h-.87c-.77,0-1.19,.03-1.8,.13v-2.73c.64,.11,1.03,.13,1.86,.13h.82v-5.17h-1.01Zm12.8,14.42h-2.94c-1.51,0-2.07,.03-2.76,.11v-2.7c.66,.11,1.19,.13,2.73,.13h2.97v-2.17h-2.52c-1.78,0-2.39,.03-3.18,.08q.05-.61,.11-3.29v-5.99c0-1.8-.03-2.68-.13-3.55,1.01,.11,1.86,.13,3.58,.13h7.31c1.96,0,2.76-.03,3.42-.13-.08,.77-.11,2.01-.11,3.63v5.65c0,1.86,.03,2.78,.11,3.55-.87-.08-1.3-.08-2.89-.08h-3.05v2.17h3.39c1.46,0,2.04-.03,2.81-.13v2.73c-.77-.11-1.43-.13-2.78-.13h-3.42v2.73h4.27c1.4,0,2.09-.03,2.81-.13v2.84c-.85-.11-1.56-.13-3-.13h-11.16c-1.4,0-2.09,.03-2.99,.13v-2.84c.72,.11,1.3,.13,2.68,.13h4.74v-2.73Zm-2.94-14.68v2.65h2.94v-2.65h-2.94Zm0,4.88v2.68h2.94v-2.68h-2.94Zm5.59-2.23h3.07v-2.65h-3.07v2.65Zm0,4.9h3.07v-2.68h-3.07v2.68Z"/>
      <path class="cls-1" d="M287.35,194.14c-2.07,1.33-3.74,2.15-6.12,3.05-.34-1.22-.56-1.75-1.14-2.81,2.73-.87,4.74-1.83,6.71-3.18,1.72-1.17,3-2.33,3.95-3.6h3.13c1.19,1.4,2.46,2.47,4.4,3.63,2.09,1.27,4.29,2.28,6.73,3.02-.66,1.35-.77,1.62-1.11,2.94-2.28-.9-4.32-1.91-6.23-3.05v1.51c-.61-.08-1.35-.11-2.15-.11h-5.96c-.85,0-1.46,.03-2.2,.11v-1.51Zm-7.26,15.51c1.62-2.04,2.36-3.5,3.1-6.18l2.57,1.03c-1.09,3.5-1.62,4.66-3.18,7.02l-2.49-1.88Zm2.89-12.64c.64,.08,1.09,.11,2.04,.11h12.19c1.14,0,1.7-.03,2.33-.11l1.8,1.83c-.42,.34-.53,.45-.95,.9l-2.97,3c-.77,.8-.95,.98-1.48,1.64l-2.33-1.8c.66-.45,1.22-.9,1.67-1.35l1.64-1.64h-11.13c-1.43,0-2.09,.03-2.81,.13v-2.7Zm6.55,11.21c0,.9,.32,1.01,3.23,1.01,3.9,0,3.95-.03,3.98-3.13,1.14,.4,1.59,.5,2.7,.61-.24,2.94-.42,3.6-1.19,4.24-.48,.4-.98,.58-2.04,.69-.69,.08-2.36,.16-3.58,.16-2.44,0-3.87-.11-4.53-.34-1.06-.37-1.38-.93-1.38-2.39v-3.15c0-1.14-.03-1.64-.13-2.36h3.08c-.11,.61-.13,.9-.13,1.75v2.92Zm5.96-15.03h.66c-1.35-.93-2.65-2.04-3.82-3.31-1.19,1.35-2.2,2.31-3.55,3.31h6.71Zm-1.78,14.15c-1.62-2.07-2.46-2.94-4.4-4.43l2.01-1.43c1.93,1.51,2.78,2.31,4.51,4.16l-2.12,1.7Zm8.53,3.95c-1.25-2.92-1.91-4.14-3.71-6.65l2.33-1.3c1.62,2.17,2.52,3.6,3.9,6.18l-2.52,1.78Z"/>
    </g>
    <rect class="cls-2" x="1.41" y="178.05" width="334.68" height="45.85"/>
    <path class="cls-1" d="M43.4,98.14h28.05v39.82h-9.97v-3.97h-18.08v24.86h-10.05v-24.86H15.42v4.36H5.83v-40.21h27.51v-13.79h10.05v13.79Zm-27.98,26.5h17.92v-17.14H15.42v17.14Zm27.98,0h18.08v-17.14h-18.08v17.14Z"/>
    <path class="cls-1" d="M88.84,96.47c-1.55,.08-2.28,.16-3.34,.32v-10.07c2.12,.4,3.75,.48,7.33,.48h13.6c3.75,0,5.7-.08,7.49-.4v9.59l-3.18-.16v53.97c0,4.36,.08,6.5,.41,8.64h-9.86c.33-2.38,.41-4.83,.41-8.64v-4.99c-1.38,.4-5.7,1.66-12.87,3.65q-1.3,.32-2.61,.79l-1.87-10.3c.9,0,2.04-.16,4.48-.55v-42.32Zm8.64,7.69h4.72v-7.69h-4.72v7.69Zm0,15.53h4.72v-7.37h-4.72v7.37Zm0,17.36c1.79-.48,1.96-.48,4.72-1.19v-8h-4.72v9.19Zm62.4-39.15c-4.4,5.87-7.17,9.19-13.28,15.46,2.85-.16,3.99-.24,6.11-.4-.49-1.27-.73-1.82-1.63-3.73l6.44-2.38c2.44,5.07,3.67,8.64,4.89,14.27l-7.33,2.54c-.24-2.14-.33-2.77-.57-4.28-3.18,.48-3.83,.55-7.25,.95-3.26,.4-3.58,.48-7.25,.79-1.06,.08-1.71,.16-2.04,.24l.16,1.11-4.4,1.35h1.3c-.16,1.27-.16,1.74-.16,3.41v2.22c0,9.43-.57,13.87-2.36,18.07-1.47,3.49-4.4,6.66-8.23,9.11-1.63,1.03-3.26,1.82-6.6,3.17-1.87-3.57-3.1-5.31-5.62-8.01,3.83-.95,5.54-1.66,7.74-3.09,2.28-1.51,3.67-3.01,4.81-5.47h-2.77v.08h-8.47c.24-1.59,.33-2.54,.33-3.73v-10.94c0-1.35-.08-2.46-.24-3.72h8.47c-.16,1.19-.24,2.38-.24,4.12v5.79h4.48c.08-2.06,.08-2.22,.08-6.18,0-2.14-.08-3.41-.24-4.83h5.29q-.24-1.98-.41-3.33c-7.25,.87-7.74,.95-13.44,1.35q-3.75,.32-5.29,.55l-1.38-8.32q.81,.08,3.26,.08c2.61-2.77,3.26-3.49,4.56-4.91-2.2-2.93-4.48-5.55-7.82-8.88l5.29-6.34,1.06,.95c2.12-2.85,4.32-6.82,5.78-10.62l8.15,3.49c-3.42,5.63-5.87,9.11-8.72,12.44,.82,.95,1.06,1.19,1.87,2.14,3.01-3.8,3.91-5.23,5.86-8.64l3.34,1.9,3.34-4.04c1.14,1.11,1.47,1.51,2.44,2.46,2.2-2.69,4.15-6.1,5.62-9.59l8.15,3.57c-3.01,4.91-5.21,8-8.55,11.81,.9,1.03,1.14,1.35,2.12,2.62,2.69-3.41,3.67-4.83,6.27-8.96l7.09,4.36Zm-22.97,15.69c1.79-1.74,2.85-2.93,3.99-4.28-1.95-2.62-4.24-5.31-6.6-7.69-3.91,4.91-7.82,9.27-10.92,12.28q2.53-.16,6.03-.48c-.41-1.51-.65-2.06-1.39-3.88l6.19-1.82c1.06,2.77,1.38,3.57,2.12,5.87h.57Zm10.1,38.6c0,2.06,.16,4.44,.49,6.58h-10.18c.33-2.22,.41-3.57,.41-6.42v-23.7c0-1.03,0-2.62-.08-4.83h9.12c-.24,1.43-.33,2.69-.33,4.76v6.18h4.72v-5.31c0-1.74-.08-3.01-.24-4.44h8.88c-.16,1.43-.24,2.69-.24,4.36v12.68c0,1.66,.08,2.93,.33,4.36h-8.96c.16-1.19,.16-1.43,.24-3.17h-4.15v8.96Z"/>
    <path class="cls-1" d="M192.14,111.06c3.01,0,4.56-.08,5.62-.16-.49,5.47-.98,10.07-1.14,11.49-.98,6.82-2.44,11.89-5.21,17.91,6.27,5.63,12.87,7.29,29.24,7.29,10.26,0,19.31-.32,27.21-1.03-1.47,4.04-1.96,6.1-2.44,10.38-5.78,.08-21.26,.24-24.6,.24-17.6,0-26.39-2.3-34.05-8.96-3.18,4.36-6.11,7.37-10.26,10.86-2.44-4.44-3.5-5.86-6.68-8.96,4.97-3.96,7.25-6.18,9.94-9.83-1.79-2.62-3.18-4.83-4.56-7.45q-2.2-4.04-3.1-5.63l8.39-4.68c1.47,4.2,2.28,5.86,4.07,9.11,1.47-3.88,2.04-6.18,2.93-11.65h-8.06c-2.28,0-4.4,.08-6.19,.24v-9.27c3.99-3.88,7.82-8.64,11.16-13.87h-6.92c-2.04,0-3.5,.08-5.54,.32v-9.75c1.96,.24,3.42,.32,5.95,.32h9.29c3.18,0,4.48-.08,5.78-.32l4.72,6.18c-.57,.71-1.79,2.62-3.83,5.86-1.39,2.14-1.87,2.85-8.06,11.33h6.35Zm21.91-14.19h-9.04c-2.04,0-4.07,.08-5.7,.24v-8.01c2.04,.24,3.5,.32,6.43,.32h8.31c0-2.3-.08-3.09-.41-4.84h10.75c-.33,1.43-.41,2.3-.49,4.84h11.73c2.44,0,4.4-.08,6.27-.32-.16,1.59-.24,3.01-.24,5.07v5.71c2.36-.08,3.58-.16,5.29-.48v9.04c-1.79-.24-3.01-.32-5.29-.32v5.63c0,1.74,.08,3.41,.24,4.84-1.95-.16-3.58-.24-5.54-.24h-12.46v3.72h12.46c2.85,0,4.56-.08,6.68-.32v8.24c-1.79-.16-3.83-.24-6.68-.24h-12.46v3.65h14.91c3.42,0,5.21-.08,7.17-.4v8.4c-2.04-.16-4.24-.24-7.17-.24h-14.91c.08,2.3,.16,3.17,.41,4.76h-10.75c.33-1.74,.41-2.46,.49-4.76h-10.75c-3.5,0-4.97,.08-6.84,.24v-8.32c1.96,.24,4.07,.32,6.92,.32h10.67v-3.65h-8.8c-2.28,0-4.4,.08-6.27,.32v-8.32c1.96,.24,3.67,.32,6.27,.32h8.8v-3.72h-9.21c-2.2,0-3.18,.08-5.05,.24v-7.77c1.71,.24,2.77,.32,5.62,.32h8.64v-3.49h-11.97c-3.42,0-4.48,0-6.68,.24v-7.85c1.87,.24,2.85,.32,7.09,.32h11.57v-3.49Zm18,3.49v-3.49h-8.15v3.49h8.15Zm-8.15,10.78h8.15v-3.49h-8.15v3.49Z"/>
    <path class="cls-1" d="M256.99,97.74c1.96,.32,3.5,.4,6.6,.4h17.43c3.42,0,4.89-.08,6.6-.32v9.27c-1.96-.24-2.53-.24-6.27-.24h-17.76c-2.93,0-4.72,.08-6.6,.32v-9.43Zm31.52,19.89c1.71,.24,2.61,.32,4.97,.32-2.44-2.3-5.21-4.44-7.74-5.94v6.42c-1.71-.24-2.53-.24-4.97-.24h-15.97c-2.44,0-3.67,.08-5.13,.24v-8.24c1.55,.16,2.61,.24,5.13,.24h15.97c2.69,0,3.58,0,4.97-.24v1.59c6.03-4.52,7.9-9.35,7.9-19.97,0-1.82-.08-3.09-.41-4.83,2.04,.24,3.83,.32,6.44,.32h13.77c2.85,0,4.64-.08,6.76-.32-.16,1.74-.25,3.57-.25,6.26v11.49c0,.95,.49,1.19,2.12,1.19q2.77,0,3.1-9.27c2.85,1.51,4.97,2.3,8.23,3.25-.49,7.45-1.06,10.38-2.53,12.28-1.47,1.98-3.5,2.46-10.1,2.46-8.72,0-10.35-.87-10.35-5.47v-12.68h-7.25c-.33,7.45-1.47,11.81-4.56,16.56-1.3,1.98-2.28,3.17-4.15,4.91h23.62c2.93,0,4.48-.08,5.54-.24l5.05,4.76q-.49,.95-1.63,3.41c-3.34,7.53-6.27,12.13-10.59,16.96,4.97,2.54,9.86,4.2,17.27,5.71-2.28,3.8-3.5,6.34-4.81,10.14-9.53-2.93-15.07-5.39-20.28-8.88-5.62,3.96-11,6.66-18.65,9.11-1.3-2.93-2.28-4.6-3.99-7.05,0,3.25,.08,3.96,.25,5.79h-9.53v-2.46h-7.74v3.57h-9.86c.24-2.62,.41-5.15,.41-7.85v-12.13c0-2.54-.08-3.96-.33-6.1,1.96,.16,3.5,.24,6.19,.24h15.56c3.01,0,3.91,0,5.21-.24-.16,1.59-.16,2.69-.16,5.55v10.86c5.62-1.51,10.26-3.33,14.42-5.87-1.79-1.66-2.93-2.93-4.07-4.28q-5.38-6.58-6.27-7.53l8.39-4.36h-3.42c-2.77,0-4.56,.08-6.52,.32v-9.75Zm-29-31.07c2.28,.24,3.58,.32,7.09,.32h12.22c3.5,0,4.81-.08,7.09-.32v8.32c-2.28-.16-3.83-.24-7.09-.24h-12.22c-3.1,0-5.13,.08-7.09,.24v-8.32Zm.16,34.87c1.55,.16,2.61,.24,5.13,.24h15.97c2.61,0,3.58-.08,4.97-.24v8.24c-1.71-.24-2.44-.24-5.13-.24h-15.88c-2.53,0-3.42,0-5.05,.24v-8.24Zm9.21,25.68h7.82v-6.5h-7.82v6.5Zm30.55-20.05c3.01,4.84,4.89,7.13,8.72,10.22,3.1-3.09,4.81-5.47,7.33-10.22h-16.05Z"/>
  </g>
</svg>