<?xml version="1.0" encoding="utf-8"?>
<!-- Generator: Adobe Illustrator 27.0.0, SVG Export Plug-In . SVG Version: 6.00 Build 0)  -->
<svg version="1.1" id="_圖層_2" xmlns="http://www.w3.org/2000/svg" xmlns:xlink="http://www.w3.org/1999/xlink" x="0px" y="0px"
	 viewBox="0 0 336.6 224.4" style="enable-background:new 0 0 336.6 224.4;" xml:space="preserve">
<style type="text/css">
	.st0{fill:#FFFFFF;}
</style>
<g>
	<path class="st0" d="M2.2,41.2c1.6,0.2,3.8,0.3,7.5,0.3h11.4c3,0,4.6-0.1,6.1-0.3l5.9,5.2c-0.3,0.5-0.3,0.5-0.9,1.5
		c-3.5,5.9-6.4,9.7-10.2,13.4c-4.5,4.3-9.4,7.6-16,10.9c-2.2-4.2-3-5.5-6-8.9c9-3.6,14.5-7.3,19.2-13.2H9.7c-3,0-5.3,0.1-7.5,0.4
		V41.2z M71.9,43.6c-0.9,0.8-1.2,1.1-2.3,2.1c-3.9,3.6-7,6-10.1,8.2c5.4,3.8,10.8,6.5,17.1,8.4c-2.7,3.3-4.2,5.9-6.1,10.1
		c-5.1-2.1-8.6-4.1-12.6-7c-6.8-4.8-11-9.4-14.6-15.7c0.2,3.1,0.2,4.3,0.2,7v8.8c0,3.7-1,5.9-3.3,7.1c-1.9,1-4.1,1.3-8.5,1.3
		c-2.3,0-3.2,0-7.5-0.3c-0.7-4-1.2-5.9-2.7-9.8c3.7,0.5,5.9,0.6,7.9,0.6c3.5,0,3.9-0.2,3.9-1.9V37.6H17.5c-4.6,0-6.6,0.1-8.5,0.2
		c0.2-2.5,0.3-3.8,0.3-8.6V15.6c0-4.3-0.1-6.6-0.4-8.9c2.5,0.2,5.5,0.3,9.6,0.3h11.7c1.5-3.4,2-5.2,2.4-6.8l12.1,0.9
		c-0.2,0.6-0.2,0.6-0.9,1.7C43.8,3,43.5,3.7,43,4.7c-0.4,0.9-0.4,1-1.1,2.4h16.5c4.2,0,7.2-0.1,9.6-0.3c-0.3,2.5-0.4,4.3-0.4,8.6
		v13.9c0,4.5,0.1,6.1,0.3,8.6c-2.7-0.2-4.8-0.2-8.5-0.2H44.4c2.3,3.8,4.2,6.4,7.5,9.7c5.5-3.7,8.8-6.7,10.8-9.7L71.9,43.6z
		 M19.5,18.9h37.9v-4H19.5V18.9z M19.5,30.1h37.9v-4H19.5V30.1z"/>
</g>
<g>
	<path class="st0" d="M89.1,12.1c-1.5,0.1-2.3,0.2-3.3,0.3V2.4c2.1,0.4,3.7,0.5,7.3,0.5h13.6c3.7,0,5.7-0.1,7.5-0.4V12l-3.2-0.2v54
		c0,4.4,0.1,6.5,0.4,8.6h-9.9c0.3-2.4,0.4-4.8,0.4-8.6v-5c-1.4,0.4-5.7,1.7-12.9,3.6c-1.3,0.3-1.3,0.3-2.6,0.8L84.6,55
		c0.9,0,2-0.2,4.5-0.6V12.1z M97.7,19.8h4.7v-7.7h-4.7V19.8z M97.7,35.3h4.7V28h-4.7V35.3z M97.7,52.7c1.8-0.5,2-0.5,4.7-1.2v-8
		h-4.7V52.7z M160.1,13.6c-4.4,5.9-7.2,9.2-13.3,15.5c2.9-0.2,4-0.2,6.1-0.4c-0.5-1.3-0.7-1.8-1.6-3.7l6.4-2.4
		c2.4,5.1,3.7,8.6,4.9,14.3l-7.3,2.5c-0.2-2.1-0.3-2.8-0.6-4.3c-3.2,0.5-3.8,0.6-7.3,1c-3.3,0.4-3.6,0.5-7.3,0.8
		c-1.1,0.1-1.7,0.2-2,0.2l0.2,1.1l-4.4,1.3h1.3c-0.2,1.3-0.2,1.7-0.2,3.4v2.2c0,9.4-0.6,13.9-2.4,18.1c-1.5,3.5-4.4,6.7-8.2,9.1
		c-1.6,1-3.3,1.8-6.6,3.2c-1.9-3.6-3.1-5.3-5.6-8c3.8-1,5.5-1.7,7.7-3.1c2.3-1.5,3.7-3,4.8-5.5h-2.8V59h-8.5
		c0.2-1.6,0.3-2.5,0.3-3.7V44.3c0-1.3-0.1-2.5-0.2-3.7h8.5c-0.2,1.2-0.2,2.4-0.2,4.1v5.8h4.5c0.1-2.1,0.1-2.2,0.1-6.2
		c0-2.1-0.1-3.4-0.2-4.8h5.3c-0.2-2-0.2-2-0.4-3.3c-7.3,0.9-7.7,1-13.4,1.3c-3.7,0.3-3.7,0.3-5.3,0.6l-1.4-8.3
		c0.8,0.1,0.8,0.1,3.3,0.1c2.6-2.8,3.3-3.5,4.6-4.9c-2.2-2.9-4.5-5.5-7.8-8.9l5.3-6.3l1.1,1c2.1-2.9,4.3-6.8,5.8-10.6l8.1,3.5
		c-3.4,5.6-5.9,9.1-8.7,12.4c0.8,1,1.1,1.2,1.9,2.1c3-3.8,3.9-5.2,5.9-8.6l3.3,1.9l3.3-4c1.1,1.1,1.5,1.5,2.4,2.5
		c2.2-2.7,4.2-6.1,5.6-9.6l8.1,3.6c-3,4.9-5.2,8-8.6,11.8c0.9,1,1.1,1.3,2.1,2.6c2.7-3.4,3.7-4.8,6.3-9L160.1,13.6z M137.2,29.2
		c1.8-1.7,2.9-2.9,4-4.3c-2-2.6-4.2-5.3-6.6-7.7c-3.9,4.9-7.8,9.3-10.9,12.3c2.5-0.2,2.5-0.2,6-0.5c-0.4-1.5-0.7-2.1-1.4-3.9
		l6.2-1.8c1.1,2.8,1.4,3.6,2.1,5.9H137.2z M147.3,67.8c0,2.1,0.2,4.4,0.5,6.6h-10.2c0.3-2.2,0.4-3.6,0.4-6.4V44.3c0-1,0-2.6-0.1-4.8
		h9.1c-0.2,1.4-0.3,2.7-0.3,4.8v6.2h4.7v-5.3c0-1.7-0.1-3-0.2-4.4h8.9c-0.2,1.4-0.2,2.7-0.2,4.4v12.7c0,1.7,0.1,2.9,0.3,4.4h-9
		c0.2-1.2,0.2-1.4,0.2-3.2h-4.2V67.8z"/>
</g>
<g>
	<path class="st0" d="M192.4,26.7c3,0,4.6-0.1,5.6-0.2c-0.5,5.5-1,10.1-1.1,11.5c-1,6.8-2.4,11.9-5.2,17.9
		c6.3,5.6,12.9,7.3,29.2,7.3c10.3,0,19.3-0.3,27.2-1c-1.5,4-2,6.1-2.4,10.4c-5.8,0.1-21.3,0.2-24.6,0.2c-17.6,0-26.4-2.3-34-9
		c-3.2,4.4-6.1,7.4-10.3,10.9c-2.4-4.4-3.5-5.9-6.7-9c5-4,7.2-6.2,9.9-9.8c-1.8-2.6-3.2-4.8-4.6-7.5c-2.2-4-2.2-4-3.1-5.6l8.4-4.7
		c1.5,4.2,2.3,5.9,4.1,9.1c1.5-3.9,2-6.2,2.9-11.7h-8.1c-2.3,0-4.4,0.1-6.2,0.2v-9.3c4-3.9,7.8-8.6,11.2-13.9h-6.9
		c-2,0-3.5,0.1-5.5,0.3V3.3c2,0.2,3.4,0.3,5.9,0.3h9.3c3.2,0,4.5-0.1,5.8-0.3l4.7,6.2c-0.6,0.7-1.8,2.6-3.8,5.9
		c-1.4,2.1-1.9,2.9-8.1,11.3H192.4z M214.3,12.5h-9c-2,0-4.1,0.1-5.7,0.2v-8c2,0.2,3.5,0.3,6.4,0.3h8.3c0-2.3-0.1-3.1-0.4-4.8h10.8
		c-0.3,1.4-0.4,2.3-0.5,4.8h11.7c2.4,0,4.4-0.1,6.3-0.3c-0.2,1.6-0.2,3-0.2,5.1v5.7c2.4-0.1,3.6-0.2,5.3-0.5v9
		c-1.8-0.2-3-0.3-5.3-0.3v5.6c0,1.7,0.1,3.4,0.2,4.8c-2-0.2-3.6-0.2-5.5-0.2h-12.5v3.7h12.5c2.9,0,4.6-0.1,6.7-0.3v8.2
		c-1.8-0.2-3.8-0.2-6.7-0.2h-12.5v3.6h14.9c3.4,0,5.2-0.1,7.2-0.4v8.4c-2-0.2-4.2-0.2-7.2-0.2h-14.9c0.1,2.3,0.2,3.2,0.4,4.8h-10.8
		c0.3-1.7,0.4-2.5,0.5-4.8h-10.8c-3.5,0-5,0.1-6.8,0.2v-8.3c2,0.2,4.1,0.3,6.9,0.3h10.7v-3.6h-8.8c-2.3,0-4.4,0.1-6.3,0.3v-8.3
		c2,0.2,3.7,0.3,6.3,0.3h8.8V34h-9.2c-2.2,0-3.2,0.1-5.1,0.2v-7.8c1.7,0.2,2.8,0.3,5.6,0.3h8.6v-3.5h-12c-3.4,0-4.5,0-6.7,0.2v-7.8
		c1.9,0.2,2.9,0.3,7.1,0.3h11.6V12.5z M232.3,16v-3.5h-8.1V16H232.3z M224.2,26.8h8.1v-3.5h-8.1V26.8z"/>
</g>
<g>
	<path class="st0" d="M257.2,13.4c2,0.3,3.5,0.4,6.6,0.4h17.4c3.4,0,4.9-0.1,6.6-0.3v9.3c-2-0.2-2.5-0.2-6.3-0.2h-17.8
		c-2.9,0-4.7,0.1-6.6,0.3V13.4z M288.8,33.3c1.7,0.2,2.6,0.3,5,0.3c-2.4-2.3-5.2-4.4-7.7-5.9v6.4c-1.7-0.2-2.5-0.2-5-0.2h-16
		c-2.4,0-3.7,0.1-5.1,0.2v-8.2c1.5,0.2,2.6,0.2,5.1,0.2h16c2.7,0,3.6,0,5-0.2v1.6c6-4.5,7.9-9.4,7.9-20c0-1.8-0.1-3.1-0.4-4.8
		c2,0.2,3.8,0.3,6.4,0.3h13.8c2.9,0,4.6-0.1,6.8-0.3c-0.2,1.7-0.2,3.6-0.2,6.3v11.5c0,1,0.5,1.2,2.1,1.2c2.8,0,2.8,0,3.1-9.3
		c2.9,1.5,5,2.3,8.2,3.2c-0.5,7.5-1.1,10.4-2.5,12.3c-1.5,2-3.5,2.5-10.1,2.5c-8.7,0-10.3-0.9-10.3-5.5V12.1h-7.3
		c-0.3,7.4-1.5,11.8-4.6,16.6c-1.3,2-2.3,3.2-4.2,4.9h23.6c2.9,0,4.5-0.1,5.5-0.2l5.1,4.8c-0.5,1-0.5,1-1.6,3.4
		c-3.3,7.5-6.3,12.1-10.6,17c5,2.5,9.9,4.2,17.3,5.7c-2.3,3.8-3.5,6.3-4.8,10.1c-9.5-2.9-15.1-5.4-20.3-8.9c-5.6,4-11,6.7-18.7,9.1
		c-1.3-2.9-2.3-4.6-4-7.1c0,3.2,0.1,4,0.2,5.8H277v-2.5h-7.7v3.6h-9.9c0.2-2.6,0.4-5.2,0.4-7.8V54.5c0-2.5-0.1-4-0.3-6.1
		c2,0.2,3.5,0.2,6.2,0.2h15.6c3,0,3.9,0,5.2-0.2c-0.2,1.6-0.2,2.7-0.2,5.5v10.9c5.6-1.5,10.3-3.3,14.4-5.9c-1.8-1.7-2.9-2.9-4.1-4.3
		c-5.4-6.6-5.4-6.6-6.3-7.5l8.4-4.4h-3.4c-2.8,0-4.6,0.1-6.5,0.3V33.3z M259.8,2.2c2.3,0.2,3.6,0.3,7.1,0.3h12.2
		c3.5,0,4.8-0.1,7.1-0.3v8.3c-2.3-0.2-3.8-0.2-7.1-0.2h-12.2c-3.1,0-5.1,0.1-7.1,0.2V2.2z M259.9,37.1c1.5,0.2,2.6,0.2,5.1,0.2h16
		c2.6,0,3.6-0.1,5-0.2v8.2c-1.7-0.2-2.4-0.2-5.1-0.2H265c-2.5,0-3.4,0-5.1,0.2V37.1z M269.1,62.8h7.8v-6.5h-7.8V62.8z M299.7,42.7
		c3,4.8,4.9,7.1,8.7,10.2c3.1-3.1,4.8-5.5,7.3-10.2H299.7z"/>
</g>
<g>
	<g>
		<path class="st0" d="M33.1,197.7c0.7,0.1,1.1,0.1,2.1,0.1h2c0.8,0,1.4,0,2-0.1c-0.1,0.8-0.1,1.5-0.1,2.9v5.5
			c0.4,0.8,0.7,1.2,1.5,1.7c1.1,0.7,2.7,1,6.1,1c5.1,0,8.3-0.1,11-0.4c-0.5,1.3-0.6,1.8-0.8,3c-3,0.1-5.5,0.1-8.6,0.1
			c-3.9,0-5.9-0.2-7.3-0.6c-1.3-0.5-2.3-1.2-3.4-2.5c-1.1,1.1-1.9,1.8-3,2.6c-0.4,0.3-0.8,0.6-1,0.8l-1.3-3c0.9-0.3,2.5-1.4,3.9-2.7
			v-5.5H35c-0.7,0-1.2,0-1.8,0.1V197.7z M35.2,187.9c2,1.8,2.9,2.7,4.5,4.9l-2.3,2.1c-1.6-2.3-2.6-3.4-4.4-5.1L35.2,187.9z
			 M45.8,190c0.6-0.8,1-1.8,1.4-2.7l3.1,0.5c-0.5,0.9-0.8,1.5-1.4,2.3h4.3c0.8,0,1.4,0,1.9-0.1c-0.1,0.6-0.1,1.2-0.1,1.9v3.6
			c0,0.9,0,1.5,0.1,2c-0.7,0-1.1-0.1-1.9-0.1h-9v1.9h9.7c1,0,1.4,0,1.9-0.1c-0.1,0.6-0.1,1.1-0.1,2v4c0,0.7,0,1.2,0.1,1.8
			c-0.6-0.1-1.1-0.1-1.8-0.1H43.4c-0.8,0-1.4,0-1.9,0.1c0.1-0.6,0.1-1.2,0.1-1.8v-13.4c0-0.6-0.1-1.2-0.1-1.9
			c0.7,0.1,1.3,0.1,2.1,0.1H45.8z M44.3,194.9h8v-2.4h-8V194.9z M44.3,204.4h8.7v-2.7h-8.7V204.4z"/>
	</g>
	<g>
		<path class="st0" d="M59.5,197.6c0.7,0.1,1.1,0.1,2.1,0.1h2.1c1,0,1.3,0,2-0.1c-0.1,0.8-0.1,1.2-0.1,2.9v5.6c0.6,1,1,1.5,1.9,1.8
			c1.2,0.5,2.7,0.7,5.4,0.7c4.7,0,7.9-0.2,11.4-0.5c-0.5,1.5-0.6,1.7-0.8,3.1c-2.7,0.1-6.1,0.2-9.3,0.2c-4.3,0-6.1-0.2-7.5-0.8
			c-1-0.4-1.7-1.1-2.6-2.1c-0.9,0.9-2.1,1.9-3.3,2.7c-0.3,0.2-0.4,0.3-0.6,0.5l-1.3-3c1-0.4,2.5-1.5,3.8-2.6v-5.7h-1.5
			c-0.7,0-1.1,0-1.8,0.1V197.6z M61.8,187.8c1.9,1.8,2.9,2.9,4.5,4.9l-2.3,2.1c-1.5-2.2-2.4-3.3-4.3-5L61.8,187.8z M82.9,194.1
			c-0.3,0.3-0.3,0.3-0.7,0.6c-1.2,1.2-3,2.6-4.2,3.5c1.6,2.1,3.3,3.4,6.1,5.1c-0.6,0.9-0.9,1.7-1.2,2.8c-2.1-1.3-3.7-2.6-5-4.3
			c0,0.3,0,0.4,0,0.7c0,2.2-0.3,3.5-0.8,4.3s-1.4,1.1-3.2,1.1c-0.9,0-1.4,0-2.5-0.1c-0.2-1.1-0.2-1.2-0.7-2.6
			c1.1,0.2,1.9,0.3,2.8,0.3c1.3,0,1.6-0.5,1.6-2.7c0-0.3,0-0.6-0.1-1.3c-2.4,1.8-4.5,3-7.7,4.5c-0.5-1.1-0.7-1.3-1.4-2.4
			c2.9-1,4.6-1.9,6.8-3.2c0.6-0.4,0.9-0.6,2.1-1.5c-0.1-0.6-0.2-0.8-0.4-1.5c-1.9,1.3-3.7,2.2-7.1,3.6c-0.4-0.9-0.8-1.6-1.4-2.4
			c3.8-1.3,5.4-2,7.5-3.4c-0.3-0.4-0.4-0.6-0.8-1.1c-1.5,0.8-2.8,1.4-5.6,2.4c-0.7-1.4-0.9-1.7-1.6-2.4c3.8-1,5.9-1.8,7.5-3.1h-3.4
			c-1.2,0-2,0.1-2.9,0.2v-2.8c0.7,0.1,1.7,0.2,3.1,0.2h10.7c1.4,0,2.3-0.1,3.1-0.2v2.8c-0.9-0.1-1.7-0.2-2.9-0.2H77
			c-1,0.9-1.4,1.2-2.3,1.8c1,1.2,1.4,1.8,1.9,2.9c1.7-1.3,2.9-2.5,3.8-3.6L82.9,194.1z"/>
	</g>
	<g>
		<path class="st0" d="M89.5,202c-1.3,0-2.1,0.1-2.8,0.2v-2.9c0.7,0.1,1.5,0.2,2.8,0.2h17.4c1.3,0,2.1,0,2.8-0.2v2.9
			c-0.8-0.1-1.6-0.2-2.8-0.2H102v6c0,0.6,0.3,0.7,2.5,0.7c2,0,2.6-0.2,2.8-0.7c0.1-0.3,0.2-1.4,0.2-2.3c0-0.1,0-0.3,0-0.5
			c1.1,0.5,1.6,0.6,2.7,0.8c-0.1,2.7-0.4,3.8-1.2,4.5c-0.7,0.6-1.9,0.8-5.2,0.8c-4,0-4.7-0.4-4.7-2.3V202h-2.9
			c-0.2,2.5-0.5,3.6-1.4,5c-1.3,2.3-3,3.4-7.3,5.1c-0.5-1-0.9-1.8-1.6-2.7c2.2-0.7,3-1,4-1.5c1.7-1,2.8-2.5,3.1-4.4
			c0.1-0.4,0.1-0.7,0.2-1.4H89.5z M96.4,189.4c0-0.8-0.1-1.4-0.2-1.9h3.3c-0.1,0.5-0.1,1.1-0.1,1.9v0.6h7.3c1.4,0,2,0,2.9-0.1
			c-0.1,0.6-0.1,1.1-0.1,2v2.2c0,0.8,0,1.5,0.1,2h-2.9v-3.5H89.6v3.5h-2.9c0.1-0.6,0.1-1.2,0.1-2.1V192c0-0.9,0-1.4-0.1-2
			c0.8,0.1,1.6,0.1,2.9,0.1h6.8V189.4z M90.5,194.6c0.7,0.1,1.3,0.1,2.5,0.1h10.4c1.2,0,1.8,0,2.5-0.1v2.8c-0.7-0.1-1.4-0.1-2.5-0.1
			H93c-1.2,0-1.8,0-2.5,0.1V194.6z"/>
	</g>
	<g>
		<path class="st0" d="M115.7,200.8c-1.1,0-1.9,0.1-2.8,0.2v-2.7c0.8,0.1,1.7,0.2,2.8,0.2h7.3v-1.7h-5.7c-1,0-1.6,0-2.4,0.1v-2.6
			c0.7,0.1,1.2,0.1,2.4,0.1h5.7v-1.6h-6.4c-1.2,0-2.1,0.1-2.8,0.1v-2.7c0.8,0.1,1.7,0.2,2.8,0.2h3.1c-0.6-1-1-1.5-1.6-2.1l2.7-0.9
			c0.8,1.1,1.4,2.1,2,3h3.4c0.7-0.9,1.2-1.8,1.7-2.9l2.9,0.7c-0.5,0.7-1,1.4-1.5,2.2h3.3c1.2,0,2-0.1,2.8-0.2v2.7
			c-0.8-0.1-1.6-0.1-2.8-0.1h-6.7v1.6h6c1.1,0,1.6,0,2.4-0.1v2.6c-0.7-0.1-1.3-0.1-2.4-0.1h-6v1.7h7.6c1.2,0,2-0.1,2.8-0.2v2.7
			c-0.8-0.1-1.5-0.2-2.8-0.2h-7.7c0,0.2,0,0.2-0.1,0.8c0,0-0.1,0.4-0.2,1h7.6c1.3,0,2,0,2.8-0.1v2.7c-0.9-0.1-1.9-0.2-3-0.2h-6
			c1.1,1.3,2.5,2.3,4.2,2.9c1.7,0.7,3.1,1,5.5,1.1c-0.7,1.2-0.9,1.8-1.2,3c-3-0.5-4.9-1.1-6.8-2.2c-1.8-1.1-3.2-2.3-4.4-4
			c-0.8,1.3-1.9,2.5-3.3,3.4c-1.8,1.2-3.6,1.9-7.3,2.7c-0.3-1.1-0.5-1.6-1.3-2.9c4.3-0.4,7.1-1.7,9-4.2h-5.3c-1.2,0-2.1,0.1-3,0.2
			v-2.7c0.8,0.1,1.7,0.1,2.8,0.1h6.6c0.1-0.5,0.1-0.6,0.1-0.7c0-0.3,0.1-0.6,0.1-0.7c0,0,0-0.1,0-0.1l-0.1-0.3c0,0,0,0,0,0H115.7z"
			/>
	</g>
	<g>
		<path class="st0" d="M153.6,208.6c-1.4,0-2.1,0-2.8,0.1c0.1-0.6,0.1-1.2,0.1-2.5v-4c0-1.2,0-1.8-0.1-2.6c0.7,0.1,1.2,0.1,2.7,0.1
			h12.7c1.5,0,2,0,2.7-0.1c-0.1,0.6-0.1,1.6-0.1,2.8v3.6c0,1.6,0,2.2,0.1,2.7c-0.7-0.1-1.4-0.1-2.8-0.1h-1.2c2.2,0.7,4.2,1,7.3,1.2
			c-0.7,0.8-1.1,1.4-1.6,2.3c-3.9-0.7-5.7-1.2-8.3-2.3l1.2-1.2h-6.9l1.1,1.1c-2.8,1.4-4.2,1.8-8.2,2.5c-0.6-1.1-0.9-1.4-1.6-2.3
			c3.1-0.2,5.2-0.6,6.8-1.3H153.6z M169.1,193.6c0,0-0.1,0.4-0.2,1.1h0.5c1.3,0,1.9,0,2.6-0.1v2c-0.7-0.1-1.4-0.1-2.5-0.1h-0.9
			c-0.1,0.8-0.1,0.8-0.3,1.8c0,0.2-0.1,0.4-0.1,0.8c-0.8-0.1-1.8-0.1-2.7-0.1h-13.3c-0.9,0-1.5,0-2.1,0.1c0.4-1,0.5-1.4,0.8-2.5
			h-0.7c-1.1,0-1.7,0-2.4,0.1v-2c0.7,0.1,1.2,0.1,2.4,0.1h1c0.3-1.5,0.3-1.7,0.3-2.5c0.6,0.1,1.2,0.1,2.1,0.1h13c1.1,0,1.1,0,1.9,0
			v-0.9h-17.6v2.2h-2.9c0.1-0.5,0.1-1,0.1-1.9v-1c0-0.6,0-1-0.1-1.6c0.8,0.1,1.5,0.1,2.9,0.1h7.1c0-0.8,0-1.2-0.1-1.7h3.2
			c-0.1,0.5-0.1,1-0.1,1.7h7.6c1.5,0,2,0,2.8-0.1c-0.1,0.5-0.1,0.8-0.1,1.6v1c0,0.9,0,1.4,0.1,1.9H169.1z M153.8,196.4
			c-0.1,0.3-0.1,0.5-0.2,0.8h4.5c0.1-0.3,0.1-0.5,0.2-0.8H153.8z M166,202.2v-0.8h-12.4v0.8H166z M166,204.5v-0.8h-12.4v0.8H166z
			 M166,206.8V206h-12.4v0.8H166z M158.5,194.7c0.1-0.3,0.1-0.4,0.1-0.8h-4.4c-0.1,0.3-0.1,0.5-0.1,0.8H158.5z M160.8,196.4
			c-0.1,0.5-0.1,0.5-0.2,0.8h4.9c0.1-0.4,0.2-0.5,0.2-0.8H160.8z M161.2,194c-0.1,0.3-0.1,0.5-0.1,0.8h5c0.1-0.3,0.1-0.4,0.1-0.8
			H161.2z"/>
	</g>
	<g>
		<path class="st0" d="M178.4,197.2H177c-0.7,0-1.3,0-2,0.1c0.1-0.8,0.1-1.4,0.1-2.6v-3.6c0-1.3,0-2-0.1-2.6
			c0.7,0.1,1.2,0.1,2.3,0.1h3.2c1.2,0,1.8,0,2.5-0.1c-0.1,0.7-0.1,1.5-0.1,2.7v3.8c0,1.4,0,1.9,0.1,2.4c-0.6-0.1-1.1-0.1-1.9-0.1
			h-0.3v3.3h0.6c1,0,1.5,0,1.9-0.1v2.7c-0.5-0.1-0.9-0.1-1.9-0.1h-0.6v4.3c1.3-0.4,1.3-0.4,2.6-0.8v2.6c-2.8,1-4.9,1.6-7.6,2.3
			c-0.8,0.2-1,0.2-1.5,0.4l-0.4-2.9c0.5,0,0.6-0.1,1.2-0.2v-7.1c0-1.1-0.1-1.7-0.1-2.3h2.6c-0.1,0.6-0.1,1.3-0.1,2.3v6.6
			c0.5-0.1,0.5-0.1,1-0.2V197.2z M177.6,194.8h2.9V191h-2.9V194.8z M192.8,201.6c-0.8-0.7-1.3-1-2.5-1.6l1.5-1.3
			c1.4,0.7,2.1,1.1,3,1.9l-0.9,0.9l1.9-0.2c1.1-0.1,1.9-0.3,2.6-0.5l0.2,2.7c-0.6,0-1.5,0.1-2.5,0.2l-1.2,0.2l1.8,1.1
			c-0.4,0.3-0.4,0.3-1.1,1.1c-0.6,0.7-1.3,1.2-2.2,1.9c0.9,0.7,1.8,1.2,2.2,1.2c0.6,0,0.9-0.7,1-2.6c0.9,0.7,1.4,1,2.3,1.3
			c-0.2,1.5-0.4,2.1-0.7,2.7c-0.5,0.9-1.2,1.4-2.2,1.4c-1.4,0-3.2-0.9-4.9-2.5c-2,1.1-3.7,1.7-6.7,2.5c-0.3-1.1-0.6-1.5-1.2-2.6
			c2.8-0.5,4.2-0.9,6.4-1.9c-0.7-1-1.1-1.8-1.6-2.9l-1.5,0.2c-0.9,0.1-1.7,0.3-2.3,0.4l-0.2-2.7c0.1,0,0.2,0,0.2,0
			c0.5,0,1-0.1,2-0.2l1-0.1c-0.1-0.6-0.2-0.8-0.3-1.4c-0.2-0.8-0.2-1-0.4-1.5l2.8-0.3c0,0.1,0,0.1,0,0.2c0,0.6,0.2,1.8,0.4,2.7
			L192.8,201.6z M196.3,193.7c-0.4,0.3-0.5,0.3-1.2,0.9c-0.7,0.5-1.1,0.9-1.8,1.3c1,0.7,1.7,1,2.3,1c0.5,0,0.6-0.3,0.7-2.1
			c0.7,0.5,1.2,0.8,2.1,1.1c-0.3,2.7-1,3.6-2.5,3.6c-1.5,0-3.4-0.8-5-2.2c-1.6,0.7-2.7,1.1-5.9,1.9c-0.5-1.1-0.6-1.4-1.3-2.3
			c2.2-0.3,3.7-0.7,5.5-1.4c-0.6-0.8-0.9-1.3-1.3-2.1l-1.9,0.2c-0.8,0.1-1.5,0.2-2.1,0.4l-0.2-2.5c0.7,0,1.3-0.1,2.1-0.1l1.4-0.2
			c-0.2-0.7-0.3-1.1-0.5-2.1c-0.2-1-0.2-1.1-0.3-1.5l2.9-0.2c0,0.1,0,0.2,0,0.2c0,0.9,0.2,2.1,0.5,3.2l3.7-0.4
			c-0.8-0.8-1.5-1.2-2.7-1.9l1.7-1.5c1.1,0.6,2,1.2,3,2l-1.4,1.2l1.4-0.2c1-0.1,1.7-0.2,2.4-0.4l0.1,2.5c-0.5,0-1.6,0.1-2.3,0.2
			l-0.9,0.1L196.3,193.7z M190.5,204.3c0.4,0.8,0.6,1.2,1.2,1.9c1.2-0.8,1.8-1.4,2.6-2.4L190.5,204.3z M190.7,193.1
			c0.3,0.6,0.5,0.8,1,1.4c1.1-0.6,1.7-1.1,2.4-1.7L190.7,193.1z"/>
	</g>
	<g>
		<path class="st0" d="M201.7,192.3c0-1-0.1-2.3-0.2-3.2c0.9,0.1,1.7,0.1,3.1,0.1h16.6c1.3,0,2.1,0,3.1-0.1c-0.1,1-0.2,1.9-0.2,3.2
			v15.9c0,1.5,0,2.2,0.2,3h-3.1v-1.5h-16.7v1.5h-3.1c0.1-0.8,0.2-1.6,0.2-3.1V192.3z M204.6,207h16.7v-15.2h-4.5v8.1
			c0,0.6,0.1,0.6,0.6,0.6c0.5,0,0.7-0.1,0.8-0.4c0.1-0.4,0.2-1.7,0.2-3.3c0.9,0.5,1.6,0.8,2.5,1c-0.2,3-0.3,3.9-0.8,4.5
			c-0.5,0.6-1.4,0.8-3.4,0.8c-2.3,0-2.8-0.4-2.8-2.3v-9.1h-2.6c-0.1,2.7-0.1,3.3-0.3,4.7c-0.5,3.6-1.9,6-4.6,8.2
			c-0.6-0.9-1.2-1.6-1.9-2.1V207z M204.6,202.3c3-2,4-4.7,4-10.4h-4V202.3z"/>
	</g>
	<g>
		<path class="st0" d="M241,196.8c0.7,2.4,2.1,5,3.8,6.9c2,2.2,4.2,3.7,7.3,5c-0.9,1.1-1.3,1.6-1.9,3c-2.8-1.5-4.7-2.8-6.5-4.9
			c-1.7-1.8-3-3.9-4-6.4c-0.8,2.7-2.2,5-4.3,7.1c-1.8,1.8-3.7,3-6.3,4.2c-0.5-1-1-1.8-1.9-2.8c1.9-0.8,3-1.3,4.3-2.3
			c3.6-2.5,5.3-5.5,6-10h-6.3c-1.7,0-2.4,0.1-3.3,0.2v-3.4c0.8,0.1,1.8,0.2,3.3,0.2h6.5c0.1-1.3,0.1-1.7,0.1-3.1
			c0-1.1-0.1-1.9-0.2-2.7h3.5c-0.1,0.9-0.2,1.3-0.2,3.1c0,1.1,0,1.7-0.1,2.7h7c1.5,0,2.4-0.1,3.3-0.2v3.4c-1.1-0.1-1.9-0.2-3.3-0.2
			H241z"/>
	</g>
	<g>
		<path class="st0" d="M255.8,191.4c-0.8,0-1.3,0-2,0.1v-2.9c0.6,0.1,1.3,0.2,2.4,0.2h3.7c1.1,0,1.7,0,2.4-0.2v2.8
			c-0.7-0.1-1.2-0.1-2-0.1h-0.8v5.2h0.6c0.7,0,1.1,0,1.7-0.1v2.7c-0.5-0.1-1.1-0.1-1.7-0.1h-0.6v5.2c1.1-0.5,1.4-0.6,2.6-1.2
			l0.1,2.8c-2.3,1.1-3.3,1.6-7.4,3.3c-0.1,0.1-0.3,0.1-0.5,0.2l-0.7-3c0.9-0.2,1.5-0.4,3.3-1v-6.3H256c-0.8,0-1.2,0-1.8,0.1v-2.7
			c0.6,0.1,1,0.1,1.9,0.1h0.8v-5.2H255.8z M268.6,205.9h-2.9c-1.5,0-2.1,0-2.8,0.1v-2.7c0.7,0.1,1.2,0.1,2.7,0.1h3v-2.2h-2.5
			c-1.8,0-2.4,0-3.2,0.1c0.1-0.6,0.1-0.6,0.1-3.3v-6c0-1.8,0-2.7-0.1-3.6c1,0.1,1.9,0.1,3.6,0.1h7.3c2,0,2.8,0,3.4-0.1
			c-0.1,0.8-0.1,2-0.1,3.6v5.6c0,1.9,0,2.8,0.1,3.6c-0.9-0.1-1.3-0.1-2.9-0.1h-3v2.2h3.4c1.5,0,2,0,2.8-0.1v2.7
			c-0.8-0.1-1.4-0.1-2.8-0.1h-3.4v2.7h4.3c1.4,0,2.1,0,2.8-0.1v2.8c-0.8-0.1-1.6-0.1-3-0.1h-11.2c-1.4,0-2.1,0-3,0.1v-2.8
			c0.7,0.1,1.3,0.1,2.7,0.1h4.7V205.9z M265.7,191.2v2.7h2.9v-2.7H265.7z M265.7,196v2.7h2.9V196H265.7z M271.3,193.8h3.1v-2.7h-3.1
			V193.8z M271.3,198.7h3.1V196h-3.1V198.7z"/>
	</g>
	<g>
		<path class="st0" d="M287.4,194.1c-2.1,1.3-3.7,2.1-6.1,3c-0.3-1.2-0.6-1.7-1.1-2.8c2.7-0.9,4.7-1.8,6.7-3.2
			c1.7-1.2,3-2.3,3.9-3.6h3.1c1.2,1.4,2.5,2.5,4.4,3.6c2.1,1.3,4.3,2.3,6.7,3c-0.7,1.4-0.8,1.6-1.1,2.9c-2.3-0.9-4.3-1.9-6.2-3v1.5
			c-0.6-0.1-1.4-0.1-2.1-0.1h-6c-0.8,0-1.5,0-2.2,0.1V194.1z M280.1,209.6c1.6-2,2.4-3.5,3.1-6.2l2.6,1c-1.1,3.5-1.6,4.7-3.2,7
			L280.1,209.6z M283,197c0.6,0.1,1.1,0.1,2,0.1h12.2c1.1,0,1.7,0,2.3-0.1l1.8,1.8c-0.4,0.3-0.5,0.5-1,0.9l-3,3
			c-0.8,0.8-1,1-1.5,1.6l-2.3-1.8c0.7-0.5,1.2-0.9,1.7-1.4l1.6-1.6h-11.1c-1.4,0-2.1,0-2.8,0.1V197z M289.6,208.2c0,0.9,0.3,1,3.2,1
			c3.9,0,3.9,0,4-3.1c1.1,0.4,1.6,0.5,2.7,0.6c-0.2,2.9-0.4,3.6-1.2,4.2c-0.5,0.4-1,0.6-2,0.7c-0.7,0.1-2.4,0.2-3.6,0.2
			c-2.4,0-3.9-0.1-4.5-0.3c-1.1-0.4-1.4-0.9-1.4-2.4v-3.2c0-1.1,0-1.6-0.1-2.4h3.1c-0.1,0.6-0.1,0.9-0.1,1.7V208.2z M295.5,193.2
			c0.2,0,0.2,0,0.7,0c-1.4-0.9-2.7-2-3.8-3.3c-1.2,1.4-2.2,2.3-3.6,3.3c0.4,0,0.5,0,0.8,0H295.5z M293.8,207.3
			c-1.6-2.1-2.5-2.9-4.4-4.4l2-1.4c1.9,1.5,2.8,2.3,4.5,4.2L293.8,207.3z M302.3,211.3c-1.2-2.9-1.9-4.1-3.7-6.7l2.3-1.3
			c1.6,2.2,2.5,3.6,3.9,6.2L302.3,211.3z"/>
	</g>
</g>
<g>
	<path class="st0" d="M336.7,224.4H1v-46.9h335.7V224.4z M2,223.4h333.7v-44.9H2V223.4z"/>
</g>
<g>
	<path class="st0" d="M88.9,96.5c-1.5,0.1-2.3,0.2-3.3,0.3V86.7c2.1,0.4,3.7,0.5,7.3,0.5h13.6c3.7,0,5.7-0.1,7.5-0.4v9.6l-3.2-0.2
		v54c0,4.4,0.1,6.5,0.4,8.6h-9.9c0.3-2.4,0.4-4.8,0.4-8.6v-5c-1.4,0.4-5.7,1.7-12.9,3.6c-1.3,0.3-1.3,0.3-2.6,0.8l-1.9-10.3
		c0.9,0,2-0.2,4.5-0.6V96.5z M97.5,104.2h4.7v-7.7h-4.7V104.2z M97.5,119.7h4.7v-7.4h-4.7V119.7z M97.5,137.1c1.8-0.5,2-0.5,4.7-1.2
		v-8h-4.7V137.1z M159.9,97.9c-4.4,5.9-7.2,9.2-13.3,15.5c2.9-0.2,4-0.2,6.1-0.4c-0.5-1.3-0.7-1.8-1.6-3.7l6.4-2.4
		c2.4,5.1,3.7,8.6,4.9,14.3l-7.3,2.5c-0.2-2.1-0.3-2.8-0.6-4.3c-3.2,0.5-3.8,0.6-7.3,1c-3.3,0.4-3.6,0.5-7.3,0.8
		c-1.1,0.1-1.7,0.2-2,0.2l0.2,1.1l-4.4,1.3h1.3c-0.2,1.3-0.2,1.7-0.2,3.4v2.2c0,9.4-0.6,13.9-2.4,18.1c-1.5,3.5-4.4,6.7-8.2,9.1
		c-1.6,1-3.3,1.8-6.6,3.2c-1.9-3.6-3.1-5.3-5.6-8c3.8-1,5.5-1.7,7.7-3.1c2.3-1.5,3.7-3,4.8-5.5h-2.8v0.1h-8.5
		c0.2-1.6,0.3-2.5,0.3-3.7v-10.9c0-1.3-0.1-2.5-0.2-3.7h8.5c-0.2,1.2-0.2,2.4-0.2,4.1v5.8h4.5c0.1-2.1,0.1-2.2,0.1-6.2
		c0-2.1-0.1-3.4-0.2-4.8h5.3c-0.2-2-0.2-2-0.4-3.3c-7.3,0.9-7.7,1-13.4,1.3c-3.7,0.3-3.7,0.3-5.3,0.6l-1.4-8.3
		c0.8,0.1,0.8,0.1,3.3,0.1c2.6-2.8,3.3-3.5,4.6-4.9c-2.2-2.9-4.5-5.5-7.8-8.9l5.3-6.3l1.1,1c2.1-2.9,4.3-6.8,5.8-10.6l8.1,3.5
		c-3.4,5.6-5.9,9.1-8.7,12.4c0.8,1,1.1,1.2,1.9,2.1c3-3.8,3.9-5.2,5.9-8.6l3.3,1.9l3.3-4c1.1,1.1,1.5,1.5,2.4,2.5
		c2.2-2.7,4.2-6.1,5.6-9.6l8.1,3.6c-3,4.9-5.2,8-8.6,11.8c0.9,1,1.1,1.3,2.1,2.6c2.7-3.4,3.7-4.8,6.3-9L159.9,97.9z M137,113.6
		c1.8-1.7,2.9-2.9,4-4.3c-2-2.6-4.2-5.3-6.6-7.7c-3.9,4.9-7.8,9.3-10.9,12.3c2.5-0.2,2.5-0.2,6-0.5c-0.4-1.5-0.7-2.1-1.4-3.9
		l6.2-1.8c1.1,2.8,1.4,3.6,2.1,5.9H137z M147.1,152.2c0,2.1,0.2,4.4,0.5,6.6h-10.2c0.3-2.2,0.4-3.6,0.4-6.4v-23.7c0-1,0-2.6-0.1-4.8
		h9.1c-0.2,1.4-0.3,2.7-0.3,4.8v6.2h4.7v-5.3c0-1.7-0.1-3-0.2-4.4h8.9c-0.2,1.4-0.2,2.7-0.2,4.4V142c0,1.7,0.1,2.9,0.3,4.4h-9
		c0.2-1.2,0.2-1.4,0.2-3.2h-4.2V152.2z"/>
</g>
<g>
	<path class="st0" d="M192.2,111.1c3,0,4.6-0.1,5.6-0.2c-0.5,5.5-1,10.1-1.1,11.5c-1,6.8-2.4,11.9-5.2,17.9
		c6.3,5.6,12.9,7.3,29.2,7.3c10.3,0,19.3-0.3,27.2-1c-1.5,4-2,6.1-2.4,10.4c-5.8,0.1-21.3,0.2-24.6,0.2c-17.6,0-26.4-2.3-34-9
		c-3.2,4.4-6.1,7.4-10.3,10.9c-2.4-4.4-3.5-5.9-6.7-9c5-4,7.2-6.2,9.9-9.8c-1.8-2.6-3.2-4.8-4.6-7.5c-2.2-4-2.2-4-3.1-5.6l8.4-4.7
		c1.5,4.2,2.3,5.9,4.1,9.1c1.5-3.9,2-6.2,2.9-11.7h-8.1c-2.3,0-4.4,0.1-6.2,0.2V111c4-3.9,7.8-8.6,11.2-13.9h-6.9
		c-2,0-3.5,0.1-5.5,0.3v-9.7c2,0.2,3.4,0.3,5.9,0.3h9.3c3.2,0,4.5-0.1,5.8-0.3l4.7,6.2c-0.6,0.7-1.8,2.6-3.8,5.9
		c-1.4,2.1-1.9,2.9-8.1,11.3H192.2z M214.1,96.9h-9c-2,0-4.1,0.1-5.7,0.2v-8c2,0.2,3.5,0.3,6.4,0.3h8.3c0-2.3-0.1-3.1-0.4-4.8h10.8
		c-0.3,1.4-0.4,2.3-0.5,4.8h11.7c2.4,0,4.4-0.1,6.3-0.3c-0.2,1.6-0.2,3-0.2,5.1v5.7c2.4-0.1,3.6-0.2,5.3-0.5v9
		c-1.8-0.2-3-0.3-5.3-0.3v5.6c0,1.7,0.1,3.4,0.2,4.8c-2-0.2-3.6-0.2-5.5-0.2H224v3.7h12.5c2.9,0,4.6-0.1,6.7-0.3v8.2
		c-1.8-0.2-3.8-0.2-6.7-0.2H224v3.6h14.9c3.4,0,5.2-0.1,7.2-0.4v8.4c-2-0.2-4.2-0.2-7.2-0.2H224c0.1,2.3,0.2,3.2,0.4,4.8h-10.8
		c0.3-1.7,0.4-2.5,0.5-4.8h-10.8c-3.5,0-5,0.1-6.8,0.2v-8.3c2,0.2,4.1,0.3,6.9,0.3h10.7v-3.6h-8.8c-2.3,0-4.4,0.1-6.3,0.3v-8.3
		c2,0.2,3.7,0.3,6.3,0.3h8.8v-3.7h-9.2c-2.2,0-3.2,0.1-5.1,0.2v-7.8c1.7,0.2,2.8,0.3,5.6,0.3h8.6v-3.5h-12c-3.4,0-4.5,0-6.7,0.2V100
		c1.9,0.2,2.9,0.3,7.1,0.3h11.6V96.9z M232.1,100.4v-3.5H224v3.5H232.1z M224,111.1h8.1v-3.5H224V111.1z"/>
</g>
<g>
	<path class="st0" d="M257,97.7c2,0.3,3.5,0.4,6.6,0.4h17.4c3.4,0,4.9-0.1,6.6-0.3v9.3c-2-0.2-2.5-0.2-6.3-0.2h-17.8
		c-2.9,0-4.7,0.1-6.6,0.3V97.7z M288.6,117.6c1.7,0.2,2.6,0.3,5,0.3c-2.4-2.3-5.2-4.4-7.7-5.9v6.4c-1.7-0.2-2.5-0.2-5-0.2h-16
		c-2.4,0-3.7,0.1-5.1,0.2v-8.2c1.5,0.2,2.6,0.2,5.1,0.2h16c2.7,0,3.6,0,5-0.2v1.6c6-4.5,7.9-9.4,7.9-20c0-1.8-0.1-3.1-0.4-4.8
		c2,0.2,3.8,0.3,6.4,0.3h13.8c2.9,0,4.6-0.1,6.8-0.3c-0.2,1.7-0.2,3.6-0.2,6.3v11.5c0,1,0.5,1.2,2.1,1.2c2.8,0,2.8,0,3.1-9.3
		c2.9,1.5,5,2.3,8.2,3.2c-0.5,7.5-1.1,10.4-2.5,12.3c-1.5,2-3.5,2.5-10.1,2.5c-8.7,0-10.3-0.9-10.3-5.5V96.5h-7.3
		c-0.3,7.4-1.5,11.8-4.6,16.6c-1.3,2-2.3,3.2-4.2,4.9h23.6c2.9,0,4.5-0.1,5.5-0.2l5.1,4.8c-0.5,1-0.5,1-1.6,3.4
		c-3.3,7.5-6.3,12.1-10.6,17c5,2.5,9.9,4.2,17.3,5.7c-2.3,3.8-3.5,6.3-4.8,10.1c-9.5-2.9-15.1-5.4-20.3-8.9c-5.6,4-11,6.7-18.7,9.1
		c-1.3-2.9-2.3-4.6-4-7.1c0,3.2,0.1,4,0.2,5.8h-9.5v-2.5H269v3.6h-9.9c0.2-2.6,0.4-5.2,0.4-7.8v-12.1c0-2.5-0.1-4-0.3-6.1
		c2,0.2,3.5,0.2,6.2,0.2H281c3,0,3.9,0,5.2-0.2c-0.2,1.6-0.2,2.7-0.2,5.5v10.9c5.6-1.5,10.3-3.3,14.4-5.9c-1.8-1.7-2.9-2.9-4.1-4.3
		c-5.4-6.6-5.4-6.6-6.3-7.5l8.4-4.4h-3.4c-2.8,0-4.6,0.1-6.5,0.3V117.6z M259.6,86.6c2.3,0.2,3.6,0.3,7.1,0.3h12.2
		c3.5,0,4.8-0.1,7.1-0.3v8.3c-2.3-0.2-3.8-0.2-7.1-0.2h-12.2c-3.1,0-5.1,0.1-7.1,0.2V86.6z M259.7,121.4c1.5,0.2,2.6,0.2,5.1,0.2h16
		c2.6,0,3.6-0.1,5-0.2v8.2c-1.7-0.2-2.4-0.2-5.1-0.2h-15.9c-2.5,0-3.4,0-5.1,0.2V121.4z M268.9,147.1h7.8v-6.5h-7.8V147.1z
		 M299.5,127.1c3,4.8,4.9,7.1,8.7,10.2c3.1-3.1,4.8-5.5,7.3-10.2H299.5z"/>
</g>
<g>
	<g>
		<path class="st0" d="M7.4,157.6l-8.1-5.3c5.1-4.1,8.5-10.4,10.2-18.6l8.7,2.8C15.9,146.4,12.3,153.5,7.4,157.6z M35.2,151.1h11.1
			c1.7,0,2.7-0.6,3.2-1.7c0.5-1.1,0.8-3.5,1-7.2c1.9,1.5,4.8,2.7,8.6,3.6c-0.6,6.2-2,10.2-4.1,12c-1.7,1.3-4.3,2-7.8,2H34
			c-5.7,0-9.4-1.1-11.1-3.2c-1.2-1.7-1.9-4.4-1.9-8.3v-15h9.4c-1.8-1.3-2.9-2.1-3.5-2.4l5.7-4.6v-4.2H16.4v3.1H7V92.9h25.7v-9h9.8v9
			h26.5v31.8h-9.8v-2.6H42.6v6.9h-3.3c4.3,3.2,7.3,5.9,9,8.1l-7.4,6.1c-2-2.9-5.4-6.1-10.1-9.6v14.7c0,1.5,0.4,2.3,1.3,2.6
			C32.7,151,33.7,151.1,35.2,151.1z M16.4,113.4h16.3v-11.6H16.4V113.4z M59.2,101.7H42.6v11.6h16.6V101.7z M54.1,136.3l8.3-4
			c6.3,6.3,10.8,12.4,13.6,18.2c0.4,0.8,0.7,1.6,1,2.3l-9,4.5c-1.6-5.1-5.2-10.9-10.7-17.5C56.2,138.5,55.1,137.3,54.1,136.3z"/>
	</g>
</g>
</svg>
