<?xml version="1.0" encoding="UTF-8"?>
<svg id="_圖層_2" data-name="圖層 2" xmlns="http://www.w3.org/2000/svg" viewBox="0 0 330.75 46.18">
  <defs>
    <style>
      .cls-1 {
        fill: #fff;
      }

      .cls-2 {
        fill: none;
        stroke: #fff;
        stroke-miterlimit: 10;
      }
    </style>
  </defs>
  <g id="_圖層_4" data-name="圖層 4">
    <g>
      <path class="cls-1" d="M31.69,19.85c.65,.1,1.07,.13,2.09,.13h2.01c.78,0,1.36-.03,1.98-.13-.08,.81-.1,1.44-.1,2.85v5.46c.37,.78,.73,1.2,1.44,1.67,1.1,.7,2.66,.94,6.06,.94,5.07,0,8.17-.13,10.84-.42-.47,1.25-.6,1.78-.78,2.98-2.92,.08-5.46,.1-8.43,.1-3.81,0-5.77-.18-7.15-.63-1.28-.44-2.3-1.18-3.32-2.43-1.1,1.07-1.91,1.8-2.95,2.56-.39,.31-.78,.63-.97,.78l-1.25-2.98c.89-.34,2.43-1.41,3.81-2.61v-5.46h-1.46c-.73,0-1.15,.03-1.8,.13v-2.95Zm2.06-9.64c2.01,1.8,2.82,2.66,4.47,4.78l-2.22,2.12c-1.59-2.25-2.56-3.34-4.33-4.99l2.09-1.91Zm10.45,2.09c.55-.84,1.02-1.75,1.38-2.66l3.03,.44c-.5,.91-.81,1.44-1.33,2.22h4.28c.81,0,1.36-.03,1.88-.1-.05,.57-.08,1.15-.08,1.83v3.58c0,.89,0,1.46,.08,1.96-.65-.03-1.07-.05-1.88-.05h-8.83v1.88h9.58c.94,0,1.33-.03,1.83-.08-.05,.55-.08,1.1-.08,1.98v3.94c0,.65,.03,1.23,.08,1.8-.58-.05-1.1-.08-1.78-.08h-10.55c-.76,0-1.33,.03-1.91,.08,.05-.55,.08-1.15,.08-1.8V14.03c0-.6-.05-1.18-.1-1.83,.65,.08,1.28,.1,2.04,.1h2.27Zm-1.46,4.83h7.89v-2.35h-7.89v2.35Zm0,9.32h8.59v-2.66h-8.59v2.66Z"/>
      <path class="cls-1" d="M57.7,19.75c.65,.1,1.07,.13,2.09,.13h2.04c.97,0,1.28-.03,1.96-.1-.08,.76-.08,1.2-.08,2.82v5.56c.6,1.02,1.02,1.44,1.85,1.8,1.15,.5,2.64,.71,5.33,.71,4.65,0,7.78-.16,11.28-.52-.5,1.44-.57,1.67-.78,3.08-2.61,.1-6.03,.16-9.19,.16-4.2,0-5.98-.18-7.36-.81-.94-.42-1.72-1.07-2.56-2.09-.86,.86-2.04,1.83-3.24,2.66-.34,.23-.42,.31-.57,.47l-1.28-2.98c.99-.42,2.48-1.44,3.79-2.59v-5.61h-1.51c-.71,0-1.12,.03-1.75,.13v-2.82Zm2.25-9.64c1.91,1.75,2.9,2.85,4.39,4.78l-2.3,2.04c-1.49-2.14-2.4-3.21-4.26-4.94l2.17-1.88Zm20.76,6.19q-.31,.26-.65,.57c-1.2,1.15-2.93,2.56-4.15,3.42,1.62,2.06,3.21,3.37,6.06,5.01-.55,.86-.91,1.67-1.23,2.77-2.09-1.25-3.6-2.59-4.91-4.23,.03,.31,.03,.37,.03,.73,0,2.17-.26,3.47-.81,4.28s-1.33,1.07-3.13,1.07c-.86,0-1.38-.03-2.43-.1-.18-1.1-.24-1.2-.73-2.56,1.12,.18,1.83,.26,2.74,.26,1.31,0,1.62-.5,1.62-2.69,0-.34-.03-.63-.05-1.31-2.35,1.75-4.46,2.98-7.63,4.41-.5-1.04-.65-1.28-1.41-2.32,2.85-1.02,4.54-1.83,6.66-3.11,.63-.39,.91-.6,2.06-1.46-.13-.57-.21-.81-.42-1.44-1.83,1.28-3.63,2.19-6.95,3.55-.37-.91-.78-1.62-1.41-2.32,3.76-1.25,5.35-1.98,7.36-3.37-.26-.39-.37-.55-.78-1.04-1.51,.78-2.79,1.33-5.56,2.32-.73-1.38-.91-1.65-1.54-2.32,3.73-.97,5.77-1.8,7.36-3.03h-3.37c-1.2,0-2.01,.05-2.82,.16v-2.79c.73,.1,1.7,.16,3.08,.16h10.55c1.38,0,2.3-.05,3.08-.16v2.79c-.86-.1-1.65-.16-2.87-.16h-3.53c-1.02,.89-1.38,1.18-2.25,1.75,1.02,1.23,1.36,1.75,1.88,2.87,1.7-1.28,2.9-2.43,3.76-3.58l2.38,1.85Z"/>
      <path class="cls-1" d="M87.23,24.06c-1.28,0-2.06,.05-2.79,.16v-2.85c.7,.13,1.46,.16,2.79,.16h17.1c1.31,0,2.04-.03,2.77-.16v2.85c-.78-.1-1.54-.16-2.77-.16h-4.8v5.95c0,.63,.34,.73,2.51,.73,1.93,0,2.53-.16,2.72-.71,.13-.34,.23-1.33,.23-2.22v-.44c1.12,.5,1.59,.63,2.69,.81-.1,2.61-.42,3.76-1.2,4.41-.73,.63-1.83,.78-5.17,.78-3.92,0-4.67-.37-4.67-2.25v-7.08h-2.87c-.21,2.43-.5,3.5-1.33,4.96-1.28,2.25-2.95,3.39-7.15,5.01-.44-.99-.91-1.8-1.59-2.69,2.19-.65,2.98-.97,3.97-1.51,1.7-.94,2.77-2.45,3.08-4.36,.08-.42,.1-.68,.18-1.41h-3.68Zm6.82-12.33c0-.76-.05-1.36-.16-1.91h3.21c-.1,.5-.13,1.12-.13,1.91v.63h7.23c1.33,0,2.01-.03,2.9-.1-.08,.57-.1,1.07-.1,1.98v2.14c0,.84,.03,1.44,.1,2.01h-2.82v-3.47h-17v3.47h-2.85c.08-.6,.13-1.18,.13-2.04v-2.12c0-.86-.03-1.38-.1-1.98,.84,.08,1.57,.1,2.85,.1h6.74v-.63Zm-5.88,5.07c.71,.1,1.31,.13,2.48,.13h10.24c1.18,0,1.78-.03,2.51-.13v2.79c-.73-.1-1.36-.13-2.51-.13h-10.24c-1.15,0-1.77,.03-2.48,.13v-2.79Z"/>
      <path class="cls-1" d="M113.08,22.88c-1.07,0-1.91,.05-2.77,.16v-2.69c.81,.1,1.65,.16,2.77,.16h7.21v-1.67h-5.61c-1.02,0-1.59,.03-2.32,.13v-2.53c.7,.1,1.23,.13,2.32,.13h5.61v-1.62h-6.27c-1.18,0-2.04,.05-2.79,.13v-2.61c.84,.1,1.65,.16,2.79,.16h3.06c-.6-.99-.99-1.49-1.54-2.09l2.64-.91c.84,1.12,1.41,2.04,1.93,3h3.32c.68-.89,1.2-1.78,1.7-2.87l2.85,.73c-.44,.73-.94,1.41-1.51,2.14h3.24c1.23,0,2.01-.05,2.79-.16v2.61c-.78-.08-1.62-.13-2.79-.13h-6.58v1.62h5.9c1.1,0,1.62-.03,2.35-.13v2.53c-.73-.1-1.31-.13-2.35-.13h-5.9v1.67h7.49c1.23,0,2.01-.05,2.79-.16v2.69c-.78-.13-1.52-.16-2.79-.16h-7.55q-.03,.16-.08,.78s-.05,.37-.16,1.02h7.47c1.25,0,1.96-.03,2.79-.13v2.69c-.89-.1-1.83-.16-3-.16h-5.9c1.1,1.25,2.48,2.22,4.18,2.9,1.67,.65,3.06,.94,5.43,1.1-.68,1.23-.89,1.78-1.18,3-3-.52-4.83-1.12-6.71-2.17-1.8-1.04-3.19-2.3-4.31-3.92-.78,1.28-1.83,2.43-3.21,3.39-1.75,1.23-3.53,1.88-7.21,2.64-.26-1.1-.5-1.57-1.25-2.85,4.2-.42,7.02-1.7,8.9-4.1h-5.2c-1.17,0-2.11,.05-3,.16v-2.69c.84,.1,1.65,.13,2.79,.13h6.5c.1-.44,.13-.57,.13-.73,.03-.34,.05-.57,.08-.65,.03-.03,.03-.05,.03-.08l-.05-.31s.03,0,.03-.03h-7.05Z"/>
      <path class="cls-1" d="M150.37,30.64c-1.38,0-2.06,.03-2.77,.08,.08-.57,.1-1.18,.1-2.45v-3.92c0-1.15-.03-1.78-.08-2.56,.73,.08,1.23,.08,2.64,.08h12.53c1.49,0,1.93-.03,2.64-.08-.05,.63-.08,1.54-.08,2.72v3.58c0,1.54,.03,2.14,.1,2.64-.68-.05-1.38-.08-2.77-.08h-1.2c2.14,.68,4.13,.99,7.15,1.2-.73,.81-1.12,1.41-1.62,2.3-3.86-.65-5.64-1.15-8.23-2.3l1.2-1.2h-6.84l1.12,1.07c-2.74,1.38-4.15,1.8-8.1,2.45-.6-1.04-.86-1.41-1.57-2.25,3.08-.24,5.12-.63,6.74-1.28h-.99Zm15.28-14.83s-.05,.39-.16,1.12h.47c1.25,0,1.85-.03,2.59-.13v1.96c-.73-.1-1.33-.13-2.48-.13h-.86q-.13,.76-.34,1.75c-.03,.21-.05,.42-.08,.76-.84-.05-1.75-.08-2.61-.08h-13.08c-.86,0-1.51,.03-2.11,.08,.39-.99,.5-1.33,.81-2.51h-.73c-1.1,0-1.67,.03-2.32,.13v-1.96c.65,.1,1.2,.13,2.4,.13h1.02c.29-1.51,.31-1.7,.34-2.48,.6,.05,1.18,.08,2.06,.08h12.82c1.04,0,1.12,0,1.91-.03v-.86h-17.37v2.17h-2.82c.1-.52,.13-.97,.13-1.91v-.97c0-.6-.03-1.02-.1-1.57,.81,.08,1.44,.1,2.85,.1h7c0-.81-.03-1.2-.13-1.72h3.11c-.1,.52-.13,.94-.13,1.72h7.47c1.44,0,2.01-.03,2.77-.1-.05,.47-.08,.78-.08,1.59v1.02c0,.86,.03,1.33,.13,1.83h-2.45Zm-15.09,2.82c-.1,.34-.13,.44-.24,.84h4.39c.08-.34,.13-.47,.21-.84h-4.36Zm12.04,5.67v-.84h-12.19v.84h12.19Zm0,2.27v-.84h-12.19v.84h12.19Zm0,2.27v-.84h-12.19v.84h12.19Zm-7.34-11.91c.05-.34,.08-.42,.13-.76h-4.31c-.05,.34-.08,.44-.13,.76h4.31Zm2.25,1.7c-.1,.44-.13,.52-.21,.84h4.86c.13-.39,.16-.52,.24-.84h-4.88Zm.42-2.46c-.05,.34-.05,.44-.1,.76h4.91c.05-.29,.05-.39,.1-.76h-4.91Z"/>
      <path class="cls-1" d="M174.87,19.36h-1.44c-.71,0-1.28,.03-1.96,.08,.08-.76,.1-1.41,.1-2.59v-3.53c0-1.31-.03-1.93-.1-2.59,.7,.08,1.2,.1,2.27,.1h3.19c1.18,0,1.75-.03,2.45-.13-.05,.73-.08,1.44-.08,2.66v3.71c0,1.41,0,1.85,.05,2.35-.63-.05-1.04-.08-1.85-.08h-.26v3.21h.6c.97,0,1.46-.03,1.88-.1v2.61c-.44-.08-.86-.1-1.88-.1h-.6v4.26c1.25-.39,1.31-.39,2.56-.81v2.53c-2.77,.97-4.8,1.59-7.52,2.3-.76,.18-.94,.23-1.44,.42l-.42-2.87c.44-.03,.63-.05,1.15-.16v-6.95c0-1.07-.05-1.65-.13-2.3h2.53c-.08,.6-.1,1.25-.1,2.27v6.48q.5-.13,.99-.23v-10.55Zm-.81-2.38h2.85v-3.71h-2.85v3.71Zm14.91,6.71c-.81-.7-1.25-1.02-2.43-1.62l1.46-1.31c1.36,.68,2.06,1.12,2.98,1.88l-.89,.91,1.85-.24c1.12-.13,1.88-.26,2.56-.47l.16,2.64c-.63,0-1.46,.08-2.51,.18l-1.17,.16,1.75,1.12c-.37,.31-.39,.31-1.07,1.04-.63,.68-1.25,1.23-2.14,1.91,.86,.7,1.75,1.2,2.17,1.2,.63,0,.91-.73,.99-2.56,.86,.7,1.36,.97,2.25,1.28-.21,1.44-.37,2.06-.68,2.69-.47,.91-1.18,1.36-2.17,1.36-1.38,0-3.16-.91-4.83-2.51-1.99,1.1-3.66,1.72-6.63,2.51-.34-1.04-.55-1.51-1.23-2.53,2.72-.47,4.13-.89,6.27-1.88-.7-1.02-1.1-1.75-1.54-2.82l-1.51,.18c-.86,.1-1.7,.26-2.22,.39l-.18-2.61c.1,.03,.21,.03,.24,.03,.5,0,.99-.05,1.96-.16l.99-.13c-.13-.55-.18-.78-.29-1.38-.16-.78-.21-1.02-.37-1.46l2.77-.29v.18c0,.6,.18,1.75,.42,2.66l3.06-.37Zm3.45-7.76c-.39,.29-.44,.34-1.18,.91-.65,.52-1.12,.89-1.75,1.31,.97,.65,1.67,.94,2.22,.94s.63-.34,.7-2.09c.65,.5,1.23,.78,2.11,1.07-.31,2.64-.97,3.55-2.48,3.55s-3.34-.81-4.96-2.14c-1.59,.73-2.69,1.1-5.8,1.91-.44-1.1-.6-1.38-1.25-2.22,2.17-.31,3.63-.68,5.46-1.36-.6-.81-.89-1.28-1.28-2.11l-1.91,.21c-.84,.1-1.51,.23-2.12,.37l-.18-2.45c.65,0,1.28-.05,2.06-.13l1.38-.16c-.18-.71-.26-1.1-.44-2.04-.18-.94-.24-1.1-.34-1.46l2.85-.18v.18c0,.89,.18,2.04,.52,3.19l3.6-.39c-.76-.76-1.44-1.23-2.61-1.85l1.65-1.44c1.12,.6,1.99,1.18,2.93,1.99l-1.38,1.23,1.33-.16c.99-.1,1.7-.23,2.32-.39l.13,2.43c-.52,0-1.59,.08-2.27,.18l-.91,.1,1.59,1.02Zm-5.69,10.39c.37,.76,.63,1.18,1.17,1.88,1.23-.84,1.78-1.33,2.53-2.32l-3.71,.44Zm.18-10.97c.34,.6,.52,.84,.94,1.36,1.1-.63,1.7-1.07,2.32-1.72l-3.27,.37Z"/>
      <path class="cls-1" d="M197.77,14.5c0-.99-.05-2.22-.16-3.16,.89,.1,1.67,.13,3.08,.13h16.4c1.28,0,2.11-.03,3.08-.13-.1,.94-.16,1.83-.16,3.13v15.69c0,1.51,.03,2.19,.16,3h-3.03v-1.44h-16.48v1.44h-3.06c.13-.84,.16-1.54,.16-3.06V14.5Zm2.9,14.55h16.45V14.11h-4.41v8.02c0,.55,.05,.6,.6,.6,.44,0,.73-.13,.81-.37,.13-.42,.21-1.67,.21-3.24,.86,.47,1.62,.76,2.45,.94-.16,3-.29,3.84-.78,4.44-.52,.63-1.36,.84-3.32,.84-2.27,0-2.77-.42-2.77-2.25V14.11h-2.59c-.05,2.66-.08,3.21-.26,4.6-.47,3.53-1.83,5.93-4.57,8.04-.55-.86-1.15-1.54-1.83-2.06v4.36Zm0-4.7c2.93-1.98,3.92-4.6,3.92-10.24h-3.92v10.24Z"/>
      <path class="cls-1" d="M236.5,18.97c.65,2.35,2.04,4.88,3.76,6.84,1.93,2.19,4.1,3.68,7.21,4.96-.89,1.04-1.25,1.59-1.91,3-2.79-1.44-4.6-2.77-6.45-4.78-1.7-1.8-2.98-3.89-3.94-6.32-.78,2.69-2.17,4.94-4.26,7-1.78,1.75-3.66,2.98-6.24,4.1-.44-.99-.99-1.8-1.83-2.74,1.88-.76,2.92-1.31,4.23-2.22,3.5-2.48,5.25-5.41,5.88-9.84h-6.16c-1.65,0-2.4,.05-3.26,.18v-3.32c.81,.13,1.75,.18,3.29,.18h6.4c.05-1.31,.08-1.72,.08-3.08,0-1.1-.08-1.88-.18-2.61h3.45c-.13,.91-.16,1.31-.18,3.06,0,1.07-.03,1.67-.05,2.64h6.92c1.49,0,2.4-.05,3.29-.18v3.32c-1.04-.13-1.83-.18-3.27-.18h-6.76Z"/>
      <path class="cls-1" d="M251.12,13.69c-.84,0-1.31,.03-1.96,.13v-2.82c.63,.1,1.31,.16,2.38,.16h3.68c1.04,0,1.67-.03,2.32-.16v2.79c-.65-.08-1.2-.1-1.93-.1h-.78v5.09h.6c.68,0,1.07-.03,1.65-.13v2.66c-.52-.08-1.04-.1-1.65-.1h-.6v5.14c1.1-.47,1.41-.6,2.56-1.18l.08,2.77c-2.27,1.12-3.29,1.57-7.34,3.21-.13,.05-.26,.1-.52,.21l-.7-2.95c.89-.18,1.44-.37,3.21-.99v-6.22h-.86c-.76,0-1.17,.03-1.78,.13v-2.69c.63,.1,1.02,.13,1.83,.13h.81v-5.09h-.99Zm12.61,14.21h-2.9c-1.49,0-2.04,.03-2.72,.1v-2.66c.65,.1,1.18,.13,2.69,.13h2.92v-2.14h-2.48c-1.75,0-2.35,.03-3.13,.08q.05-.6,.1-3.24v-5.9c0-1.78-.03-2.64-.13-3.5,.99,.1,1.83,.13,3.53,.13h7.21c1.93,0,2.72-.03,3.37-.13-.08,.76-.1,1.99-.1,3.58v5.56c0,1.83,.03,2.74,.1,3.5-.86-.08-1.28-.08-2.85-.08h-3v2.14h3.34c1.44,0,2.01-.03,2.77-.13v2.69c-.76-.1-1.41-.13-2.74-.13h-3.37v2.69h4.2c1.38,0,2.06-.03,2.77-.13v2.79c-.84-.1-1.54-.13-2.95-.13h-10.99c-1.38,0-2.06,.03-2.95,.13v-2.79c.7,.1,1.28,.13,2.64,.13h4.67v-2.69Zm-2.9-14.47v2.61h2.9v-2.61h-2.9Zm0,4.81v2.64h2.9v-2.64h-2.9Zm5.51-2.19h3.03v-2.61h-3.03v2.61Zm0,4.83h3.03v-2.64h-3.03v2.64Z"/>
      <path class="cls-1" d="M282.22,16.35c-2.04,1.31-3.68,2.12-6.03,3-.34-1.2-.55-1.72-1.12-2.77,2.69-.86,4.67-1.8,6.61-3.13,1.7-1.15,2.95-2.3,3.89-3.55h3.08c1.17,1.38,2.43,2.43,4.34,3.58,2.06,1.25,4.23,2.25,6.63,2.98-.65,1.33-.76,1.59-1.1,2.9-2.25-.89-4.26-1.88-6.14-3v1.49c-.6-.08-1.33-.1-2.11-.1h-5.88c-.84,0-1.44,.03-2.17,.1v-1.49Zm-7.15,15.28c1.59-2.01,2.32-3.45,3.06-6.08l2.53,1.02c-1.07,3.45-1.59,4.6-3.13,6.92l-2.45-1.85Zm2.85-12.46c.63,.08,1.07,.1,2.01,.1h12.01c1.12,0,1.67-.03,2.3-.1l1.78,1.8c-.42,.34-.52,.44-.94,.89l-2.93,2.95c-.76,.78-.94,.97-1.46,1.62l-2.3-1.78c.65-.44,1.2-.89,1.65-1.33l1.62-1.62h-10.97c-1.41,0-2.06,.03-2.77,.13v-2.66Zm6.45,11.05c0,.89,.31,.99,3.19,.99,3.84,0,3.89-.03,3.92-3.08,1.12,.39,1.57,.5,2.66,.6-.24,2.9-.42,3.55-1.17,4.18-.47,.39-.97,.57-2.01,.68-.68,.08-2.32,.16-3.53,.16-2.4,0-3.81-.1-4.46-.34-1.04-.37-1.36-.91-1.36-2.35v-3.11c0-1.12-.03-1.62-.13-2.32h3.03c-.1,.6-.13,.89-.13,1.72v2.87Zm5.88-14.81h.65c-1.33-.91-2.61-2.01-3.76-3.26-1.17,1.33-2.17,2.27-3.5,3.26h6.61Zm-1.75,13.95c-1.59-2.04-2.43-2.9-4.34-4.36l1.99-1.41c1.91,1.49,2.74,2.27,4.44,4.1l-2.09,1.67Zm8.41,3.89c-1.23-2.87-1.88-4.07-3.66-6.55l2.3-1.28c1.59,2.14,2.48,3.55,3.84,6.08l-2.48,1.75Z"/>
    </g>
    <rect class="cls-2" x=".5" y=".5" width="329.75" height="45.18"/>
  </g>
</svg>