<?xml version="1.0" encoding="utf-8"?>
<!-- Generator: Adobe Illustrator 27.0.0, SVG Export Plug-In . SVG Version: 6.00 Build 0)  -->
<svg version="1.1" id="_圖層_2" xmlns="http://www.w3.org/2000/svg" xmlns:xlink="http://www.w3.org/1999/xlink" x="0px" y="0px"
	 viewBox="0 0 1122.7 292.6" style="enable-background:new 0 0 1122.7 292.6;" xml:space="preserve">
<style type="text/css">
	.st0{fill:#F2E8D1;}
	.st1{fill:#604C3F;}
	.st2{fill:#EA5514;}
	.st3{fill:#EB6519;}
	.st4{fill:none;stroke:#604C3F;stroke-miterlimit:10;}
</style>
<g>
	<rect x="1.2" class="st0" width="1121.5" height="292.6"/>
	<g>
		<path class="st1" d="M72.5,77.3h12v2.7H57.8v-2.7h11.7v-4.7h-8.5V70h8.5v-4.3h-7.1v-2.6c-1.4,1-2.8,1.8-4.1,2.5
			c-0.4-0.8-1.2-1.8-1.8-2.4c3.8-1.7,8.1-4.8,11.2-8h-5v-2.8h10.1c2.8,4.2,8.1,8.4,13.3,10.4c-0.6,0.6-1.6,1.8-2,2.7
			c-1.4-0.6-2.8-1.4-4.1-2.3v2.5h-7.3V70h8.6v2.6h-8.6V77.3z M62.4,63.1h17.2c-3.3-2.2-6.3-5-8.6-7.8C68.8,58,65.6,60.8,62.4,63.1z"
			/>
		<path class="st1" d="M101.3,71c-0.5-1-1.5-2.9-2.4-4.4v14.1h-2.8V67.2c-1,3-2.3,5.9-3.6,7.8c-0.3-0.8-1-2-1.4-2.6
			c1.9-2.6,3.8-7.3,4.8-11.4h-4v-2.7h4.3v-6.6h2.8v6.6h3.7V61h-3.7V63c0.9,1.2,3.4,4.9,4,5.8L101.3,71z M114.2,70.6
			c1.8,2.5,4.5,5,6.8,6.4c-0.6,0.5-1.6,1.6-2.1,2.3c-2-1.6-4.4-4.2-6.2-6.8v8.2h-2.9V73c-1.9,2.7-4.6,5.1-7.1,6.6
			c-0.5-0.7-1.3-1.8-2-2.3c2.9-1.3,5.9-3.9,7.8-6.6h-4.9V59.8h6.3v-2.2h-7.2v-2.5h7.2v-3.5h2.9v3.5h7.3v2.5h-7.3v2.2h6.5v10.8H114.2
			z M106.3,64.2h3.6v-2.3h-3.6V64.2z M106.3,68.5h3.6v-2.3h-3.6V68.5z M112.8,61.9v2.3h3.7v-2.3H112.8z M116.6,66.2h-3.7v2.3h3.7
			V66.2z"/>
		<path class="st1" d="M127.8,75.2h5.1V59h-4.2v-2.3c2.2-0.4,3.7-1,5.1-1.8h2.8v20.4h4.6v3h-13.3V75.2z"/>
		<path class="st1" d="M163.5,72h-3v6.3h-3.4V72H147v-2.4l9.3-14.6h4.2v14.3h3V72z M157.1,69.1V63c0-1.3,0.1-3.2,0.2-4.5h-0.1
			c-0.6,1.2-1.2,2.4-1.9,3.6l-4.6,7H157.1z"/>
		<path class="st1" d="M183.8,58.5c-0.7,1.7-1.5,3.7-2.2,5.2h4.2v2.7h-16.6v-2.7h4.5c-0.3-1.4-1-3.5-1.8-5.1l2.6-0.7
			c0.8,1.6,1.6,3.7,1.9,5.1l-2.3,0.7h4.7c0.8-1.7,1.7-4.1,2.1-5.8L183.8,58.5z M185.1,57.9h-15v-2.6h6.3c-0.3-1-0.8-2.1-1.2-3
			l2.7-0.8c0.6,1.2,1.2,2.7,1.6,3.8h5.6V57.9z M170.9,69h13.5v11.4h-2.9v-1.2h-7.8v1.5h-2.8V69z M173.7,71.6v4.9h7.8v-4.9H173.7z
			 M197.8,54.4c-1.1,3-2.5,6.6-3.8,9.4c2.7,2.9,3.3,5.4,3.3,7.5c0,2-0.4,3.6-1.5,4.3c-0.5,0.4-1.2,0.6-2,0.7
			c-0.8,0.1-1.7,0.1-2.6,0.1c0-0.8-0.3-2-0.7-2.8c0.8,0.1,1.6,0.1,2.1,0.1c0.5,0,0.9-0.1,1.2-0.3c0.6-0.4,0.8-1.3,0.8-2.3
			c0-1.9-0.8-4.1-3.4-6.8c1-2.5,2.2-5.8,3-8.3h-4.4v24.8h-2.6V53.2h8.1l0.4-0.1L197.8,54.4z"/>
		<path class="st1" d="M214.1,52.6c-0.8,2.2-1.9,4.4-3.1,6.6v21.5h-3V63.8c-0.8,1.2-1.7,2.2-2.6,3.1c-0.3-0.7-1.1-2.3-1.7-3
			c3-3,5.8-7.6,7.5-12.2L214.1,52.6z M232.7,76.6v2.8H213v-2.8h11c1.1-4.2,2.3-10.6,2.9-15.3l3.1,0.5c-0.9,4.8-2.1,10.7-3.2,14.8
			H232.7z M231.5,60h-17.3v-2.9h17.3V60z M218.2,75.4c-0.3-3.3-1.1-9-2-13.3l2.6-0.6c1,4.3,2,9.8,2.3,13L218.2,75.4z M221.8,57
			c-0.2-1.3-0.9-3.4-1.5-5l2.8-0.7c0.6,1.6,1.3,3.5,1.6,4.9L221.8,57z"/>
		<path class="st1" d="M240.4,68.2V54.9h3.7v13.6c0,5.3,2.1,7,5,7c3,0,5.1-1.7,5.1-7V54.9h3.6v13.3c0,7.6-3.5,10.4-8.7,10.4
			S240.4,75.8,240.4,68.2z"/>
		<path class="st1" d="M267,54.9h7.1c5.2,0,8.9,1.8,8.9,7c0,5.1-3.7,7.5-8.8,7.5h-3.5v8.9H267V54.9z M273.9,66.4
			c3.7,0,5.5-1.4,5.5-4.5c0-3.1-1.9-4.1-5.7-4.1h-3v8.6H273.9z"/>
		<path class="st1" d="M300.9,63.3c0,0,0,0.8,0,1.2c-0.2,10.3-0.3,13.9-1.1,15c-0.5,0.8-1.1,1-1.9,1.1c-0.8,0.1-2,0.1-3.3,0.1
			c-0.1-0.8-0.3-1.9-0.8-2.6c1.1,0.1,2.2,0.1,2.7,0.1c0.4,0,0.7-0.1,1-0.4c0.5-0.6,0.7-3.6,0.8-11.8h-3.2c-0.4,5.9-1.4,11.2-4,14.8
			c-0.5-0.7-1.4-1.6-2.2-2c3.2-4.3,3.5-11.8,3.7-19.4h-3.3v-2.7h12.6v2.7h-6.5c0,1.3-0.1,2.7-0.1,4H300.9z M296.2,51.6
			c0.6,1.3,1.3,3,1.6,4.1l-2.7,0.8c-0.3-1.1-0.9-3-1.5-4.3L296.2,51.6z M314,78.2c1.3,0,1.6-0.6,1.7-3.5c0.6,0.4,1.7,0.9,2.4,1
			c-0.3,3.8-1.1,5-4,5h-6c-3.4,0-4.3-0.8-4.3-4v-7l-1.7,0.8l-1-2.4l2.7-1.3v-4.5c-0.3,0.4-0.6,0.8-1,1.2c-0.5-0.5-1.6-1.6-2.3-2.1
			c2.2-2.3,3.8-5.9,4.6-9.7l2.9,0.6c-0.3,1.3-0.7,2.5-1.1,3.7h10.7v2.7H306c-0.5,1.2-1.2,2.4-1.9,3.4h2.4v3.6l2.4-1.1v-4.8h2.5v3.7
			l2.9-1.4l0.5-0.4l2,0.6l-0.1,0.4c-0.1,3.4-0.3,8-0.7,10.9l-2.2-0.4c0.2-2,0.3-5.2,0.3-8.1l-2.8,1.3v9.2H309v-8l-2.4,1.2v8.3
			c0,1.2,0.3,1.5,1.9,1.5H314z"/>
		<path class="st1" d="M334.1,52.6c-0.9,2.2-1.9,4.5-3.1,6.6v21.4h-3V63.9c-0.8,1.1-1.7,2.2-2.6,3.1c-0.3-0.7-1.1-2.4-1.7-3
			c3-3,5.8-7.6,7.6-12.3L334.1,52.6z M343.7,59.6v4h8.6v2.7h-8.6v4.2h9.1v2.8h-9.1v7.4h-3V59.6h-1.8c-1.3,2.5-2.8,4.7-4.3,6.4
			c-0.5-0.5-1.6-1.6-2.3-2c2.8-2.9,5.3-7.5,6.9-12.1l2.8,0.8c-0.5,1.4-1,2.8-1.7,4.1h12.8v2.8H343.7z"/>
		<path class="st1" d="M367.2,69.3c-0.3-1-1.1-2.5-1.9-3.9v15.4H363V66c-0.8,3.2-1.9,6.2-3,8.1c-0.2-0.9-0.8-2.2-1.2-2.9
			c1.6-2.4,3-6.9,3.8-10.8h-3.1v-2.7h3.5v-6h2.3v6h2.7v1.5c3.6-2,6.9-4.9,8.6-7.7l2.9,1c-0.2,0.3-0.4,0.7-0.7,1
			c2.4,2.1,6.1,4.1,9.3,5.2c-0.5,0.7-1,2-1.2,2.8c-1.5-0.7-3-1.5-4.6-2.4V61h-9.4v-1.8c-1,0.8-2.2,1.5-3.3,2.1
			c-0.4-0.5-1-1.2-1.6-1.7v0.8h-2.7v1.8c0.8,1.1,2.8,4.3,3.2,5.1L367.2,69.3z M374.7,71.8c-0.2,0.8-0.5,1.5-0.8,2.2
			c1.2,0.8,2.6,1.8,3.4,2.5l-1.6,2c-0.6-0.7-1.8-1.7-2.9-2.4c-1.2,2-2.8,3.6-4.6,4.9c-0.4-0.5-1.3-1.5-1.9-1.9
			c2.8-1.7,4.9-4.4,5.9-7.7L374.7,71.8z M369.5,63h7.3v7.7h-7.3V63z M371.7,68.7h2.8V65h-2.8V68.7z M382.1,58.7
			c-1.7-1-3.4-2.3-4.8-3.5c-1.1,1.3-2.4,2.4-3.7,3.5H382.1z M383.5,71.6c-0.2,1-0.4,1.8-0.7,2.7c1.9,1.3,4.1,2.9,5.2,4l-1.8,2
			c-1-1-2.8-2.5-4.5-3.8c-0.9,1.7-2.2,3.1-3.7,4.3c-0.4-0.5-1.3-1.5-1.9-1.9c2.5-1.6,4.1-4.3,4.8-7.6L383.5,71.6z M378.5,63h7.5v7.7
			h-7.5V63z M380.7,68.7h3V65h-3V68.7z"/>
		<path class="st1" d="M399.8,56.9h6.3v2.4H394v-2.4H399.8c-0.5-1.2-1.5-3-2.3-4.3l2.3-1.1c0.9,1.3,1.9,3,2.4,4.1L399.8,56.9z
			 M405,61.1v2.3h-9.7v-2.3H405z M395.3,65.3h9.7v2.3h-9.7V65.3z M405,78.9h-7.1v1.4h-2.5V69.6h9.7V78.9z M397.9,72v4.5h4.6V72
			H397.9z M422.6,61.6H419V77c0,1.9-0.4,2.7-1.6,3.2c-1.1,0.5-2.9,0.6-5.7,0.6c-0.2-0.8-0.6-2.2-1-3.1c2.1,0.1,4,0.1,4.6,0.1
			s0.8-0.2,0.8-0.8V61.6h-9.6v-2.9h9.6v-6.9h3v6.9h3.6V61.6z M411,72.7c-0.5-2-1.9-5.2-3.4-7.5l2.5-1c1.6,2.3,3,5.3,3.6,7.4
			L411,72.7z"/>
		<path class="st1" d="M457.5,77.4v2.4h-28.4v-2.4h12.5v-2.3h-10.2v-2.3h10.2V71h-9.2v-9.9h9.2v-1.6h-12.4v-2.4h12.4v-1.9
			c-3.2,0.2-6.4,0.3-9.4,0.3c0-0.7-0.4-1.7-0.6-2.3c7.3-0.2,16-0.8,21.1-1.7l1.5,2.3c-2.7,0.5-6.1,0.8-9.7,1.1v2.1h12.7v2.4h-12.7
			v1.6h9.7V71h-9.7v1.8h10.9v2.3h-10.9v2.3H457.5z M435.3,65.2h6.3v-2h-6.3V65.2z M441.6,69V67h-6.3V69H441.6z M444.6,63.2v2h6.7v-2
			H444.6z M451.2,67h-6.7V69h6.7V67z"/>
		<path class="st1" d="M463.3,79.7c1.2-1.3,1.8-3.6,2.1-5.7l2,0.5c-0.3,2.3-0.9,4.7-2.2,6.2L463.3,79.7z M463.9,70.5
			c1.6-0.1,3.6-0.1,5.8-0.2v-2.1h-5.1v-2.3h5.1v-1.8h-5V52.7h12.8v11.4h-5.2v1.8h5.3v2.3h-5.3v1.9c1.9-0.1,3.9-0.2,5.8-0.3l-0.1,2.3
			c-5,0.3-10.3,0.6-14,0.8L463.9,70.5z M467,62h3.1v-7.3H467V62z M468.6,55.8c0.5,1.5,1,3.4,1,4.6l-1.4,0.4
			c-0.1-1.3-0.4-3.2-0.9-4.7L468.6,55.8z M470,74c0.5,1.7,0.8,4,0.8,5.5l-2,0.3c0-1.5-0.3-3.7-0.7-5.5L470,74z M473,73.7
			c0.7,1.6,1.3,3.7,1.6,5.1l-1.9,0.4c-0.2-1.4-0.8-3.5-1.5-5.2L473,73.7z M475.2,54.7H472V62h3.2V54.7z M472.2,60.6
			c0.5-1.3,1-3.5,1.3-4.9l1.6,0.6c-0.6,1.6-1.2,3.5-1.7,4.7L472.2,60.6z M476,73c1.1,1.5,2.2,3.5,2.6,4.8l-1.9,0.8
			c-0.4-1.4-1.5-3.4-2.5-4.9L476,73z M486.3,61.1v5.4h5.3v14.1h-2.8v-1.2h-7v1.4H479V66.5h4.4V51.6h2.9v6.7h6.5v2.7H486.3z
			 M488.8,69.2h-7v7.5h7V69.2z"/>
		<path class="st1" d="M504.9,69v8.2c0,1.5-0.3,2.3-1.1,2.7c-0.9,0.5-2.1,0.6-4.1,0.6c-0.1-0.7-0.4-2-0.8-2.7c1.3,0,2.4,0,2.8,0
			c0.4,0,0.5-0.1,0.5-0.6v-7.4l-3.3,1l-0.7-2.9c1.1-0.3,2.5-0.7,4-1.1v-6.4h-3.7v-2.7h3.7v-6.1h2.7v6.1h3.4v2.7h-3.4v5.6l3-0.9
			l0.4,2.7L504.9,69z M519.1,77.6c0.9,0.1,1.7,0.2,2.6,0.2s5,0,6.2,0c-0.3,0.6-0.7,1.9-0.8,2.6h-5.5c-4.4,0-7.7-0.8-9.8-5
			c-0.9,2.2-2,4-3.6,5.4c-0.4-0.5-1.6-1.4-2.2-1.8c2.8-2.2,4.1-5.7,4.6-10.2l2.7,0.3c-0.2,1.2-0.3,2.3-0.6,3.3
			c0.8,2.3,2,3.7,3.6,4.4v-9.3h-7.6v-2.4h18.3v2.4h-7.9v3.3h6.4v2.3h-6.4V77.6z M525.4,63.2h-15.2V52.6h15.2V63.2z M522.6,54.8h-9.7
			v2.1h9.7V54.8z M522.6,58.9h-9.7V61h9.7V58.9z"/>
		<path class="st1" d="M562.3,67h-6.6v13.7h-3V67h-9c-0.3,5.1-1.7,10.2-8.1,13.8c-0.4-0.7-1.4-1.7-2.1-2.3c5.5-3,6.9-7.3,7.2-11.5
			h-6.9v-2.8h7v-6.4c-1.9,0.5-3.8,1-5.7,1.4c-0.2-0.7-0.6-1.8-1-2.4c5-1.1,10.4-2.9,13.6-4.8l2.2,2.4c-1.8,0.9-3.8,1.7-6.1,2.5v7.3
			h8.9v-12h3v12h6.6V67z"/>
		<path class="st1" d="M571.6,70.6c2.4-0.9,3.9-2.4,4-4.3c-0.1,0-0.3,0-0.4,0c-1.4,0-2.7-0.9-2.7-2.5c0-1.6,1.2-2.5,2.7-2.5
			c2,0,3,1.6,3,4c0,3.5-2.2,6.3-5.8,7.4L571.6,70.6z"/>
		<path class="st2" d="M589.8,73.9c0.9,1,2.3,1.7,3.8,1.7c2.8,0,5.3-2.3,5.5-9c-1.4,1.7-3.4,2.7-5.1,2.7c-3.9,0-6.5-2.4-6.5-7.3
			c0-4.6,3.2-7.7,7-7.7c4.5,0,8.1,3.6,8.1,11.3c0,9.2-4.2,12.9-8.7,12.9c-2.7,0-4.6-1.1-6-2.5L589.8,73.9z M599.1,64
			c-0.3-4.6-2.1-6.7-4.6-6.7c-2,0-3.6,1.8-3.6,4.9c0,3,1.3,4.7,3.8,4.7C596.1,66.8,597.7,66,599.1,64z"/>
		<path class="st2" d="M617,66.6c-0.6,2.8-1.5,5.8-2.6,8.2c0.6,0.3,1.3,0.9,2.3,1.5c2.2,1.3,5.1,1.5,8.8,1.5c3.9,0,9.2-0.3,12.7-0.7
			c-0.3,0.8-0.8,2.3-0.9,3c-2.5,0.2-8.3,0.3-12,0.3c-4.2,0-6.9-0.3-9.2-1.7c-1.3-0.7-2.4-1.8-3.1-1.8s-1.8,2.1-2.7,4l-2-2.7
			c1.1-1.4,2.2-2.7,3.2-3.3c0.9-1.7,1.6-4,2.1-6.2h-4.1c0.8-1.9,1.7-4.4,2.5-6.9h-3.2v-2.7h6.9c-0.7,2.3-1.6,4.9-2.4,7h1.8l0.4-0.1
			L617,66.6z M612.2,57.8c-0.4-1.4-1.1-3.6-1.7-5.3l2.6-0.8c0.6,1.7,1.3,3.8,1.7,5.1L612.2,57.8z M624.9,60.1
			c0.2-0.7,0.3-1.4,0.5-2.1h-8v-2.4h4.8c-0.4-0.9-1.1-2.1-1.8-3l2.3-1c0.8,1,1.7,2.4,2.1,3.3l-1.3,0.6h5.4c0.8-1.2,1.7-2.8,2.2-4
			l2.9,0.8c-0.7,1.1-1.5,2.2-2.2,3.2h5.6V58h-8.8c-0.3,0.7-0.6,1.4-1,2.1h7.2v15h-15v-15H624.9z M631.9,62.3h-9.3v2.2h9.3V62.3z
			 M631.9,66.5h-9.3v2.2h9.3V66.5z M631.9,70.7h-9.3v2.3h9.3V70.7z"/>
		<path class="st2" d="M648.6,66.3c0,4.3-0.4,10.4-3,14.6c-0.5-0.5-1.6-1.4-2.2-1.7c2.3-3.8,2.6-9.1,2.6-12.9v-7.1h26.2v2.4h-23.5
			V66.3z M657.5,58h-10v-5.1h10V58z M659.6,68.1v12.6h-2.4v-2.3c-3.1,0.3-6.3,0.6-8.7,0.9l-0.3-2.2l2.3-0.2v-8.8h-1.3v-2h4.6v-1.5
			H650v-1.9h10.3v1.9h-4v1.5h4.6v2H659.6z M654.8,54.5h-4.6v1.8h4.6V54.5z M657.2,68.1h-4.3v1.6h4.3V68.1z M657.2,71.3h-4.3V73h4.3
			V71.3z M657.2,76.3v-1.7h-4.3v2.1L657.2,76.3z M671,67.1c-0.6,3-1.6,5.6-2.9,7.7c1.4,1.6,3,2.9,5,3.7c-0.6,0.5-1.4,1.6-1.8,2.3
			c-1.8-0.9-3.4-2.3-4.7-3.9c-1.4,1.6-3,2.8-5,3.8c-0.3-0.5-1.2-1.6-1.8-2.1c2.1-1,3.8-2.3,5.2-3.9c-0.8-1.3-1.5-2.8-2.1-4.3
			c-0.4,0.6-0.8,1.2-1.2,1.7c-0.4-0.5-1.4-1.3-2-1.7c1.8-2,3-5.1,3.7-8.4l2.5,0.5c-0.2,0.8-0.3,1.6-0.6,2.3h7v2.3H671z M670.1,58
			H660v-5.1h10.1V58z M667.3,54.5h-4.7v1.8h4.7V54.5z M664.3,67.7c0.5,1.8,1.3,3.4,2.2,4.9c0.9-1.6,1.5-3.4,1.9-5.5h-3.8L664.3,67.7
			z"/>
		<path class="st2" d="M684,56.9h5.5v2.3h-10.8v-2.3H684c-0.5-1.2-1.4-3-2.2-4.3l2.1-1.2c0.9,1.3,1.8,3,2.3,4.2L684,56.9z
			 M688.6,78.9h-6.4v1.4h-2.3V69.6h8.8V78.9z M688.4,61.1v2.3h-8.5v-2.3H688.4z M679.9,65.3h8.6v2.3h-8.6V65.3z M682.2,72v4.5h4V72
			H682.2z M707.7,77.4v2.3h-17.9v-2.3h7.5v-2h-5.9v-2.2h5.9v-1.7h-6.4v-2.3h6.4v-1.5h-6v-6.2h6v-1.2h-3.7v-3.9H690v-2.3h3.6v-2.3
			h2.7v2.3h5v-2.3h2.8v2.3h3.5v2.3h-3.5v3.9h-3.8v1.2h6.4v6.2h-6.4v1.5h6.8v2.3h-6.8v1.7h6.4v2.2h-6.4v2H707.7z M697.3,65.6v-2.3
			h-3.5v2.3H697.3z M696.2,58.2h5v-1.9h-5V58.2z M700.1,63.4v2.3h3.7v-2.3H700.1z"/>
		<path class="st2" d="M742.3,75.5v3h-28.4v-3h12.4V58.1h-10.7v-3h25.1v3h-11.1v17.4H742.3z"/>
		<path class="st2" d="M777.2,55v2.7h-23.4v5.9c0,5-0.5,12.4-3.2,17.2c-0.5-0.5-1.8-1.3-2.4-1.7c2.6-4.5,2.8-11,2.8-15.6V55h12.2
			c-0.3-0.9-0.8-2-1.2-2.8l2.9-0.8c0.6,1.1,1.3,2.6,1.7,3.6H777.2z M775.1,67.4l2.1,0.9c-1.5,2.3-3.1,4.8-4.7,6.4l-2.3-1.1
			c0.8-1,1.8-2.3,2.6-3.6H767v7.4c0,1.6-0.3,2.4-1.7,2.8c-1.2,0.4-3.2,0.4-6,0.4c-0.1-0.8-0.6-1.9-1-2.7c2.1,0.1,4.3,0.1,4.9,0.1
			s0.8-0.2,0.8-0.6v-7.4h-9.3v-2.5h10c-1.9-1-4.1-2-5.8-2.8l1.8-1.7c1.3,0.6,2.9,1.3,4.4,2c1.4-0.8,3-1.9,4.2-3h-12.9v-2.4h15.5
			l0.6-0.2l1.9,1.5c-1.8,1.9-4.3,3.8-6.9,5.3c0.8,0.4,1.5,0.7,2,1.1l-0.3,0.3h5.2L775.1,67.4z"/>
		<path class="st1" d="M812.2,79.5H800v1.3h-2.8V66.2c-0.6,0.5-1.3,1.1-1.9,1.6c-0.3-0.5-0.9-1.5-1.4-2.2v11.2h-5.4v2.4h-2.5v-9.4
			c-0.4,0.7-0.9,1.4-1.4,2.1c-0.3-0.6-1.1-2.1-1.6-2.7c2.2-3,3.6-7.7,4.4-12.7h-3.6v-2.7h10.4v2.7h-4c-0.4,2.3-0.9,4.5-1.5,6.6h5.1
			V65c2.8-1.9,5-4.5,6.6-7.7h-3.1v3h-2.5v-5.5h6.8c0.3-1,0.7-2.1,1-3.2l2.8,0.6c-0.3,0.9-0.5,1.7-0.8,2.6h7.3v5.4h-2.7v-2.9h-5.6
			c-0.7,1.6-1.5,3-2.4,4.4h3.5c-0.4-0.8-0.8-1.8-1.2-2.5l2.5-1c0.6,1.1,1.3,2.5,1.7,3.5h3.9v2.5h-4.5v2.7h4.2V69h-4.2v2.9h4.2v2.3
			h-4.2V77h5.4V79.5z M791.3,65.6h-2.8v8.6h2.8V65.6z M804.1,64.1H800v2.7h4.2V64.1z M804.1,69H800v2.9h4.2V69z M800,77h4.2v-2.9
			H800V77z"/>
		<path class="st1" d="M828.3,52.6c-0.9,2.3-2,4.5-3.2,6.6v21.5h-2.8V63.5c-0.9,1.2-1.8,2.3-2.8,3.3c-0.3-0.7-1.1-2.3-1.7-3
			c3.1-2.9,6-7.5,7.7-12.2L828.3,52.6z M833.9,71.5c-1.4,2.7-3.4,5.7-5.1,7.7c-0.5-0.5-1.6-1.3-2.3-1.7c1.7-1.8,3.6-4.5,4.8-6.9
			L833.9,71.5z M838.7,69.5v11.3h-3V69.5h-8.8v-2.7h8.8v-3.3h-6.5V53.1h16.4v10.4h-6.9v3.3h8.6v2.7H838.7z M831.9,60.8h10.7v-5.1
			h-10.7V60.8z M842.4,70.7c1.9,2.2,4.1,5,5.1,6.9l-2.4,1.5c-1-1.9-3.1-5-5-7.1L842.4,70.7z"/>
		<path class="st1" d="M880.7,70.9c-1.9,1.4-4.2,2.8-6.3,3.8c2.2,1.5,5,2.6,8.2,3.1c-0.6,0.7-1.5,1.9-1.8,2.7
			c-7.2-1.6-11.8-5.4-14.5-11.3h-4.8V77l7.8-1.7c-0.1,0.8-0.2,2-0.2,2.6c-8.1,2-9.8,2.4-10.6,2.8l-0.2,0.2c-0.2-0.8-0.8-2.3-1.3-3
			c0.7-0.3,1.6-1,1.6-2.3v-6.3h-4.9v-2.6h5.5V52.8h19.6v2.4h-16.6v2.3h15.7v2.3h-15.7v2.2h15.7v2.3h-15.7v2.3h19.8v2.6h-3.6
			L880.7,70.9z M869.4,69.3c0.8,1.5,1.8,2.8,3,3.9c2.1-1.2,4.4-2.7,5.9-3.9H869.4z"/>
		<path class="st1" d="M895.1,74.4c-1.1,2.4-3,4.8-4.7,6.4c-0.5-0.5-1.7-1.3-2.3-1.7c1.7-1.4,3.3-3.4,4.3-5.4L895.1,74.4z
			 M903.6,73.1h-15.5v-2.6h3V58.2h-2.6v-2.6h2.6V52h2.7v3.7h5V52h2.7v3.7h2.3v2.6h-2.3v12.4h2.2V73.1z M893.8,58.2v2.4h5v-2.4H893.8
			z M893.8,65.5h5v-2.6h-5V65.5z M893.8,70.6h5v-2.7h-5V70.6z M899.1,73.5c1.2,1.4,2.8,3.4,3.4,4.6l-2.4,1.4
			c-0.6-1.3-2.1-3.3-3.3-4.8L899.1,73.5z M916.3,77.3c0,1.6-0.3,2.4-1.3,2.9c-1,0.5-2.5,0.6-4.8,0.5c-0.1-0.8-0.5-2.1-0.9-2.8
			c1.5,0.1,3.1,0,3.5,0c0.5,0,0.7-0.2,0.7-0.7v-7h-5.8c-0.3,3.8-1.1,7.8-2.9,10.7c-0.5-0.5-1.7-1.4-2.3-1.7
			c2.5-4.2,2.7-10.1,2.7-14.6V53.1h11.2V77.3z M913.4,67.5v-4.6h-5.6v1.7c0,0.9,0,1.9-0.1,3H913.4z M907.8,55.8v4.5h5.6v-4.5H907.8z
			"/>
		<path class="st1" d="M934.5,54c-1,2.7-2.1,6.1-3.2,8.7c2.3,2.6,2.7,4.8,2.7,6.8c0,1.9-0.4,3.2-1.4,3.9c-0.5,0.3-1.1,0.5-1.7,0.6
			c-0.6,0.1-1.5,0.1-2.2,0.1c0-0.8-0.3-1.9-0.7-2.7c0.7,0.1,1.3,0.1,1.7,0.1c0.4,0,0.8-0.1,1-0.3c0.4-0.3,0.6-1.1,0.6-2
			c0-1.7-0.5-3.7-2.7-6.1c0.8-2.2,1.7-5.2,2.3-7.4h-3.8v25.2h-2.8V53h7.6l0.4-0.1L934.5,54z M941.4,59.5c-0.1,1.5-0.1,3-0.2,4.4h9
			v1.3c-0.3,9.5-0.7,13.1-1.6,14.3c-0.6,0.8-1.3,1.1-2.3,1.2c-0.9,0.2-2.6,0.1-4.2,0.1c0-0.9-0.4-2.1-0.9-2.9c1.6,0.2,3,0.2,3.7,0.2
			c0.5,0,0.8-0.1,1.1-0.4c0.6-0.7,0.9-3.6,1.2-10.9h-6.3c-0.7,6-2.7,11-8.2,14.1c-0.4-0.7-1.2-1.7-1.9-2.2
			c6.9-3.7,7.5-10.6,7.7-18.9h-4.6v-2.8h8.2c-0.2-1.2-0.9-3.1-1.4-4.5l2.7-0.7c0.6,1.5,1.3,3.4,1.6,4.5l-2.4,0.7h9.4v2.8H941.4z"/>
		<path class="st1" d="M969.7,60.1c-1.5,8.4-5,14.4-9.5,17.7c-0.5-0.7-1.7-1.8-2.4-2.3c3.8-2.5,6.8-7.1,8.3-13h-7.2v-3h8.3l0.5-0.1
			L969.7,60.1z M985,59.3c-2.2,2.4-5,5.1-7.2,7c2.5,3.8,5.9,6.9,9.7,8.7c-0.7,0.6-1.7,1.8-2.2,2.7c-4.7-2.5-8.5-7-11.2-12.4v11.6
			c0,1.8-0.4,2.8-1.5,3.3c-1.1,0.5-2.8,0.7-5.2,0.7c-0.2-0.9-0.6-2.4-1.1-3.3c1.8,0.1,3.4,0.1,4,0.1c0.5,0,0.7-0.2,0.7-0.7V51.6h3.1
			v7.6c0.6,1.6,1.3,3.2,2.2,4.7c2-1.9,4.4-4.5,5.9-6.6L985,59.3z"/>
		<path class="st1" d="M992.5,65.8c0.8-2.1,1.4-5.6,1.6-8.2l2.1,0.3c-0.2,2.6-0.7,6.3-1.5,8.6L992.5,65.8z M1021.8,76.9v2.8h-19.5
			v-2.8h8.8v-7.2h-6.4v-2.8h6.4v-6h-4.1c-0.6,1.8-1.3,3.4-2,4.7c-0.6-0.4-1.9-1.1-2.6-1.4c0.4-0.6,0.8-1.4,1.2-2.2l-1.8,0.9
			c-0.3-1.3-1.1-3.3-1.9-5v22.8h-3V51.6h3v5.9l1.9-0.8c0.8,1.5,1.7,3.4,2.1,4.8c1-2.5,1.7-5.5,2.1-8.4l2.9,0.5
			c-0.2,1.6-0.6,3.1-1,4.6h3.3v-6.4h3v6.4h6.9v2.8h-6.9v6h6.2v2.8h-6.2v7.2H1021.8z"/>
		<path class="st1" d="M1041.4,77.8c0,1.3-0.3,2-1.2,2.4c-0.9,0.4-2.3,0.4-4.3,0.4c-0.1-0.7-0.5-1.7-0.9-2.3c1.3,0.1,2.6,0.1,3,0
			c0.4,0,0.5-0.1,0.5-0.5v-4.2c-1.9,1.2-3.8,2.4-5.4,3.4l-0.8-2.1c-0.3,2.1-1,4.3-2.3,5.9c-0.4-0.6-1.5-1.7-2.1-2
			c1.8-2.4,1.9-5.8,1.9-8.5v-7.5h11.4V77.8z M1039.4,53.9c1.5,2.2,3.2,5.2,4,7.1l-2.5,1.1c-0.2-0.6-0.5-1.3-0.9-2.1
			c-8.3,0.8-9.5,1-10.4,1.3c-0.2-0.6-0.6-2-0.9-2.7c0.5-0.1,1-0.6,1.7-1.3c0.6-0.7,2.6-3.2,3.9-5.7l3,0.9c-1.2,2-2.8,3.9-4.2,5.6
			l5.7-0.4c-0.6-1-1.1-2-1.7-2.9L1039.4,53.9z M1032.7,70.3c0,1.2-0.1,2.6-0.3,4c1.7-0.7,3.9-1.9,6.2-3v-1.2l-1.4,1.4
			c-1-0.9-3-2.4-4.5-3.4l1.5-1.4c1.4,0.9,3.3,2.2,4.4,3v-4.5h-5.9V70.3z M1048.1,65.3c-3.2,0-4.1-1.1-4.1-4.2v-9.5h2.9v4.1h8.2v2.5
			h-8.2v2.9c0,1.1,0.2,1.6,1.2,1.6h5.3c0.8,0,2.1-0.1,2.7-0.2c0.1,0.8,0.2,1.9,0.3,2.5c-0.6,0.2-1.8,0.2-3,0.2H1048.1z M1053.1,77.9
			c1.2,0,1.4-0.6,1.6-3.8c0.6,0.5,1.8,1,2.6,1.1c-0.3,4.2-1.1,5.3-3.9,5.3h-5.1c-3.3,0-4.2-0.9-4.2-3.8V66.3h2.9v3.5h8.5v2.6h-8.5
			v4.2c0,1.1,0.3,1.3,1.7,1.3H1053.1z"/>
		<path class="st1" d="M1069.5,61.3c2.8,0,5,2.2,5,5c0,2.7-2.2,5-5,5c-2.7,0-5-2.2-5-5C1064.6,63.5,1066.8,61.3,1069.5,61.3z
			 M1069.5,69.3c1.7,0,3-1.4,3-3s-1.4-3-3-3c-1.7,0-3,1.4-3,3S1067.9,69.3,1069.5,69.3z"/>
	</g>
	<g>
		<g>
			<path class="st3" d="M192.5,123.2c0,3.1-1.2,4.9-3.2,4.9c-1.8,0-3-1.7-3.1-4.8c0-3.1,1.3-4.8,3.2-4.8
				C191.3,118.5,192.5,120.3,192.5,123.2z M187.4,123.4c0,2.4,0.7,3.8,1.9,3.8c1.3,0,1.9-1.5,1.9-3.9c0-2.3-0.6-3.8-1.9-3.8
				C188.2,119.5,187.4,120.8,187.4,123.4z"/>
			<path class="st3" d="M196.3,119.9L196.3,119.9l-1.6,0.9l-0.2-1l2-1.1h1.1v9.3h-1.2V119.9z"/>
		</g>
		<line class="st4" x1="875.8" y1="161.3" x2="899.4" y2="161.3"/>
		<line class="st4" x1="785.7" y1="161.3" x2="809.3" y2="161.3"/>
		<line class="st4" x1="695.5" y1="161.3" x2="719.1" y2="161.3"/>
		<line class="st4" x1="605.4" y1="161.3" x2="629" y2="161.3"/>
		<line class="st4" x1="515.3" y1="161.3" x2="538.9" y2="161.3"/>
		<line class="st4" x1="425.1" y1="161.3" x2="448.8" y2="161.3"/>
		<line class="st4" x1="335" y1="161.3" x2="358.6" y2="161.3"/>
		<line class="st4" x1="244.9" y1="161.3" x2="268.5" y2="161.3"/>
		<g>
			<g>
				<path class="st1" d="M201.3,149c-0.4,2.5-1,5.4-1.6,7.2c-0.3-0.1-0.8-0.3-1.2-0.5c0.7-1.8,1.2-4.5,1.5-6.9L201.3,149z
					 M207.2,141.5c0.8,1.9,1.6,4.4,2,5.9l-1.3,0.4c-0.1-0.5-0.3-1.1-0.5-1.8c-6.8,1-7.6,1.2-8.1,1.5c-0.1-0.3-0.3-1-0.5-1.4
					c0.5-0.1,1.2-0.8,2-1.9c0.5-0.6,1.6-2,2.9-3.8c-3.6,0.4-4.3,0.5-4.6,0.7c-0.1-0.3-0.3-1-0.5-1.3c0.5-0.1,1-0.7,1.6-1.6
					c0.6-0.9,2.8-4.2,4.1-7.4l1.3,0.6c-1.4,2.9-3.2,5.8-4.9,8.1l3.8-0.4c0.8-1.2,1.5-2.5,2.2-3.7l1.2,0.7c-2,3.5-4.4,7-6.8,9.6
					l5.9-0.8c-0.3-1-0.7-2.1-1.1-3L207.2,141.5z M204.4,148.8c0.4,2,0.7,4.7,0.9,6.5l-1.2,0.2c-0.1-1.8-0.4-4.4-0.8-6.5L204.4,148.8
					z M207.1,148.1c0.7,1.8,1.4,4,1.7,5.5l-1.1,0.4c-0.3-1.5-1-3.8-1.7-5.6L207.1,148.1z M217.3,136.1v5.2h6.1v1.3h-13.2v-1.3h5.7
					v-5.2h-6.5v-1.3h6.5v-4h1.4v4h7v1.3H217.3z M210.8,146.1h11.8v10.4h-1.3v-1.1h-9.1v1.2h-1.3V146.1z M212.1,147.4v6.8h9.1v-6.8
					H212.1z"/>
				<path class="st1" d="M207.2,176.7c-0.4-0.9-1.7-2.8-2.6-4.3v14.1h-1.3v-14.7c-1.1,3.5-2.5,7.1-4,9.2c-0.2-0.3-0.6-0.9-0.9-1.1
					c1.8-2.5,3.8-7.3,4.6-11.5h-4.1v-1.3h4.3v-6.3h1.3v6.3h3.5v1.3h-3.5v2.4c0.8,1,2.9,4.1,3.4,4.9L207.2,176.7z M224.9,181.7h-2
					v3.1c0,0.8-0.2,1.2-0.8,1.5c-0.7,0.2-1.8,0.2-3.7,0.2c-0.1-0.3-0.3-0.8-0.5-1.2c1.5,0.1,2.8,0,3.2,0c0.4,0,0.5-0.1,0.5-0.5v-3.1
					h-10.8v4.8h-1.3v-4.8h-2v-1.1h2v-7.2h5.9v-2.1H208v-1.2h4.2v-2.4h-3v-1.1h3v-2.3h-3.5v-1.1h3.5v-2.5h1.3v2.5h5.4v-2.5h1.3v2.5
					h3.7v1.1h-3.7v2.3h3.3v1.1h-3.3v2.4h4.4v1.2h-7.9v2.1h6.2v7.2h2V181.7z M210.8,174.5v2.4h4.6v-2.4H210.8z M210.8,180.6h4.6V178
					h-4.6V180.6z M213.5,166.7h5.4v-2.3h-5.4V166.7z M213.5,170.1h5.4v-2.4h-5.4V170.1z M216.7,174.5v2.4h4.9v-2.4H216.7z
					 M221.6,180.6V178h-4.9v2.6H221.6z"/>
				<path class="st1" d="M198.9,195.5h9.2v1.2h-9.2V195.5z M207.6,214.6h-6.2v1.4h-1.3v-9.5h7.5V214.6z M207.5,200.3h-7.4v-1.2h7.4
					V200.3z M200.1,202.8h7.4v1.2h-7.4V202.8z M201.3,207.8v5.6h5v-5.6H201.3z M203.9,194.8c-0.5-1-1.4-2.6-2.2-3.7l1.1-0.6
					c0.9,1.1,1.8,2.6,2.2,3.6L203.9,194.8z M213.3,211.5c1.5-0.4,3-0.9,4.5-1.3l0.1,1.2c-3.2,1-6.6,2-9.2,2.8l-0.5-1.3
					c1-0.3,2.3-0.6,3.7-1v-8.3h-3.4v-1.3h8.1v1.3h-3.4V211.5z M218.8,197.8c0.5,10.5,2.1,17.4,3.9,17.4c0.5,0,0.8-1.5,0.9-4.9
					c0.3,0.3,0.8,0.6,1.1,0.7c-0.3,4.1-0.7,5.5-2.2,5.5c-3,0-4.5-7.9-5.1-18.7h-8.6v-1.3h8.5c-0.1-1.8-0.1-3.8-0.1-5.7h1.4
					c0,2,0,3.9,0.1,5.7h5.9v1.3H218.8z M222.4,195.7c-0.5-1-1.6-2.6-2.6-3.8l1-0.6c1,1.1,2.2,2.6,2.6,3.6L222.4,195.7z"/>
				<path class="st1" d="M208.9,228.3c-1.5,7.3-5,12.3-9,15.1c-0.2-0.3-0.7-0.9-1.1-1.1c3.8-2.4,7-6.9,8.4-12.9h-7.6V228h8.1
					l0.3-0.1L208.9,228.3z M222.1,227c-1.8,2.2-4.3,4.9-6.3,6.7c2.6,3.6,5.8,6.7,9.2,8.3c-0.4,0.3-0.8,0.8-1,1.2
					c-4.6-2.4-8.9-7.5-11.6-13.1v14.2c0,1.1-0.3,1.6-1,1.8c-0.7,0.3-1.9,0.3-4,0.3c-0.1-0.4-0.3-1.1-0.6-1.5c1.7,0.1,3.1,0.1,3.5,0
					c0.5,0,0.6-0.1,0.6-0.6v-23.7h1.4v6.8c0.7,1.8,1.7,3.5,2.8,5.2c1.9-1.8,4.3-4.5,5.7-6.5L222.1,227z"/>
			</g>
		</g>
		<g>
			<path class="st3" d="M282.6,123.2c0,3.1-1.2,4.9-3.2,4.9c-1.8,0-3-1.7-3.1-4.8c0-3.1,1.3-4.8,3.2-4.8
				C281.5,118.5,282.6,120.3,282.6,123.2z M277.6,123.4c0,2.4,0.7,3.8,1.9,3.8c1.3,0,1.9-1.5,1.9-3.9c0-2.3-0.6-3.8-1.9-3.8
				C278.4,119.5,277.6,120.8,277.6,123.4z"/>
			<path class="st3" d="M283.7,127.9v-0.8l1-1c2.4-2.2,3.4-3.4,3.4-4.8c0-0.9-0.5-1.8-1.8-1.8c-0.8,0-1.5,0.4-2,0.8l-0.4-0.9
				c0.6-0.5,1.6-0.9,2.6-0.9c2,0,2.8,1.4,2.8,2.7c0,1.7-1.2,3.1-3.2,5l-0.7,0.7v0h4.2v1H283.7z"/>
		</g>
		<g>
			<g>
				<path class="st1" d="M299.2,148.9c0,0,0,0.5-0.1,0.6c-0.4,4-0.7,5.7-1.4,6.3c-0.4,0.4-0.9,0.5-1.7,0.5c-0.7,0.1-2.2,0-3.8-0.1
					c0-0.4-0.2-0.9-0.4-1.2c1.7,0.1,3.3,0.2,3.8,0.2c0.5,0,0.8,0,1-0.3c0.5-0.4,0.8-1.7,1.1-4.9h-6.9c0.3-1.6,0.7-4,0.9-5.9h6v-3.6
					h-5.1v-0.3c-1.2,0.6-2.3,1.1-3.5,1.5c-0.2-0.3-0.5-0.8-0.8-1.1c2-0.6,4.2-1.7,6-3c-0.8-0.9-2.2-2.1-3.5-2.9l0.9-0.8
					c1.3,0.8,2.8,2,3.6,3c1.3-1.1,2.5-2.3,3.3-3.7h-7.1v-1.2h7.9l0.3-0.1l0.8,0.5c-1.3,2.9-3.6,5.2-6.3,6.9h4.8v5.9h-6.3
					c-0.1,1.2-0.3,2.5-0.5,3.5H299.2z M313.8,134.6c-1.3,1.2-3,2.5-4.4,3.4c1.6,1,3.4,1.8,5.3,2.3c-0.3,0.3-0.6,0.8-0.8,1.1
					c-1.6-0.5-3.2-1.2-4.6-2v4.6c0,0.6,0.1,0.8,0.5,0.8h2.6c0.3,0,1,0,1.3-0.1c0,0.3,0.1,0.7,0.1,1c-0.3,0.1-0.9,0.1-1.4,0.1h-2.7
					c-1.3,0-1.6-0.5-1.6-1.8v-3.5h-4.6v1.2c0,1.7-0.6,3.6-3.1,5c-0.2-0.2-0.6-0.7-0.9-0.9c2.3-1.2,2.8-2.8,2.8-4.2v-2.3h6.4v0h0.6
					c-3.3-2-6-4.8-7.6-8.2l1.1-0.4c0.6,1.4,1.5,2.6,2.5,3.8c1.4-1,3.2-2.5,4.2-3.6l1.1,0.7c-1.3,1.3-3.1,2.7-4.5,3.7
					c0.7,0.7,1.5,1.4,2.4,2c1.5-1,3.2-2.4,4.3-3.5L313.8,134.6z M311.7,147.9c-0.9,2.1-2.3,3.8-4,5.2c1.6,1.1,3.1,2,4.2,2.8
					l-0.7,0.9c-1.1-0.8-2.6-1.9-4.4-3c-2,1.4-4.3,2.3-6.6,3c-0.1-0.3-0.4-0.8-0.7-1.1c2.1-0.5,4.3-1.4,6.2-2.6c-1.6-1-3.3-2-4.8-2.9
					l0.7-0.7c1.6,0.9,3.3,1.9,5,3c1.4-1,2.5-2.3,3.3-3.7h-9.3v-1.1h10l0.2-0.1L311.7,147.9z"/>
				<path class="st1" d="M294.1,173c-1.1-1-3.3-2.3-5.2-3.1l0.8-1c1.8,0.7,4.1,2,5.2,2.9L294.1,173z M289.8,185.2
					c1.5-2.2,3.8-6.1,5.4-9.2l1,0.9c-1.5,3-3.6,6.7-5.3,9.3L289.8,185.2z M295.7,165.3c-1.1-1.1-3.4-2.4-5.4-3.2l0.8-1
					c1.9,0.8,4.3,2,5.4,3L295.7,165.3z M300.5,165.2c-1.2,2.5-2.6,4.8-4.1,6.5c-0.2-0.3-0.8-0.7-1.1-1c2.4-2.4,4.3-6.2,5.5-10.1
					l1.3,0.3c-0.3,1-0.7,2-1.1,3H313v0.7c-0.1,10-0.1,13.2-0.7,14.1c-0.4,0.5-0.8,0.7-1.5,0.8c-0.6,0-1.7,0-2.8,0
					c0-0.4-0.2-0.9-0.4-1.3c1.2,0.1,2.3,0.1,2.7,0.1c0.4,0,0.6,0,0.8-0.4c0.4-0.6,0.5-3.7,0.5-12.7H300.5z M311.3,184.4
					c1.7,0,2-0.6,2.2-3.5c0.3,0.2,0.9,0.4,1.3,0.5c-0.3,3.3-0.8,4.3-3.5,4.3h-8.4c-3.1,0-4-0.6-4-2.9v-13.9h9.8v8.3h-8.5v5.6
					c0,1.3,0.4,1.6,2.6,1.6H311.3z M300.2,170v5.8h7.3V170H300.2z"/>
			</g>
		</g>
		<g>
			<path class="st3" d="M372.7,123.2c0,3.1-1.2,4.9-3.2,4.9c-1.8,0-3-1.7-3.1-4.8c0-3.1,1.3-4.8,3.2-4.8
				C371.6,118.5,372.7,120.3,372.7,123.2z M367.7,123.4c0,2.4,0.7,3.8,1.9,3.8c1.3,0,1.9-1.5,1.9-3.9c0-2.3-0.6-3.8-1.9-3.8
				C368.5,119.5,367.7,120.8,367.7,123.4z"/>
			<path class="st3" d="M374.2,126.5c0.4,0.2,1.2,0.6,2,0.6c1.6,0,2.1-1,2.1-1.8c0-1.3-1.2-1.9-2.4-1.9h-0.7v-0.9h0.7
				c0.9,0,2.1-0.5,2.1-1.6c0-0.7-0.5-1.4-1.6-1.4c-0.7,0-1.5,0.3-1.9,0.6l-0.3-0.9c0.5-0.4,1.4-0.7,2.4-0.7c1.8,0,2.6,1.1,2.6,2.2
				c0,1-0.6,1.8-1.7,2.2v0c1.1,0.2,2.1,1.1,2.1,2.4c0,1.5-1.2,2.8-3.4,2.8c-1,0-2-0.3-2.4-0.6L374.2,126.5z"/>
		</g>
		<g>
			<g>
				<path class="st1" d="M385.8,150.7h5.2v1.2h-5.2v4.6h-1.3v-4.6H379v-1.2h5.4v-3h-4.3v-9.8h4.3V135h-5.1v-1.2h5.1v-3h1.3v3h5.1
					v1.2h-5.1v2.8h4.4v9.8h-4.4V150.7z M381.4,142.2h7.5V139h-7.5V142.2z M381.4,146.5h7.5v-3.3h-7.5V146.5z M394.4,136.7
					c-0.8,1.5-1.6,2.8-2.5,3.9c-0.2-0.2-0.8-0.6-1.1-0.8c1.9-2.2,3.5-5.5,4.5-8.8l1.3,0.3c-0.4,1.4-0.9,2.7-1.5,4h9.6v1.3H394.4z
					 M402.4,154.9c1,0,1.3-0.6,1.3-4.2c0.3,0.2,0.8,0.4,1.2,0.5c-0.2,4.5-0.7,5.1-2.6,5.1h-6.9c-2.2,0-3.1-0.7-3.1-2.1
					c0-1.2,0.3-2.7,7.9-11.8h-7.3V141h8.6l0.3,0l0.9,0.3c-0.1,0.1-0.1,0.2-0.2,0.3c-8.3,9.9-8.8,11.4-8.8,12.3c0,0.7,0.7,1,1.7,1
					H402.4z"/>
				<path class="st1" d="M386.2,182.9c-0.5-0.9-1.8-2.8-2.7-4.2c-0.5,2.8-1.6,5.4-3.5,7.7c-0.2-0.3-0.6-0.7-0.9-0.9
					c3.5-4.3,3.9-9.6,3.9-14.9v-9.6h1.2v9.6c0,2.2-0.1,4.4-0.4,6.5c0.9,1.1,2.9,4,3.4,4.7L386.2,182.9z M380.6,173.2
					c-0.3-1.8-0.9-4.9-1.6-7.3l1-0.2c0.7,2.4,1.4,5.5,1.7,7.2L380.6,173.2z M387.8,166.3c-0.6,2-1.4,4.7-2,6.3l-1-0.3
					c0.6-1.7,1.3-4.5,1.7-6.4L387.8,166.3z M393.6,180c-1.6,1.9-3.7,4-5.5,5.5c-0.2-0.2-0.7-0.7-1-0.9c1.8-1.3,3.9-3.3,5.3-5.1
					L393.6,180z M404.6,177.4v1.2h-8.1v7.8h-1.3v-7.8h-7.8v-1.2h7.8v-2.8h1.3v2.8H404.6z M394.9,174.6h-6.7v-5.7h6.7V174.6z
					 M393.7,170h-4.3v3.5h4.3V170z M401.2,167.2h-10.4v-5.5h10.4V167.2z M399.9,162.8h-7.8v3.2h7.8V162.8z M397,168.9h6.9v5.7H397
					V168.9z M398.9,179.5c2,1.5,4.4,3.6,5.5,5l-0.9,0.9c-1.1-1.5-3.4-3.6-5.4-5.2L398.9,179.5z M398.2,173.5h4.4V170h-4.4V173.5z"/>
			</g>
		</g>
		<g>
			<path class="st3" d="M462.8,123.2c0,3.1-1.2,4.9-3.2,4.9c-1.8,0-3-1.7-3.1-4.8c0-3.1,1.3-4.8,3.2-4.8
				C461.7,118.5,462.8,120.3,462.8,123.2z M457.8,123.4c0,2.4,0.7,3.8,1.9,3.8c1.3,0,1.9-1.5,1.9-3.9c0-2.3-0.6-3.8-1.9-3.8
				C458.6,119.5,457.8,120.8,457.8,123.4z"/>
			<path class="st3" d="M467.9,127.9v-2.5h-4.3v-0.8l4.1-5.9h1.4v5.8h1.3v1H469v2.5H467.9z M467.9,124.4v-3.1c0-0.5,0-1,0-1.5h0
				c-0.3,0.5-0.5,0.9-0.8,1.4l-2.3,3.1v0H467.9z"/>
		</g>
		<g>
			<g>
				<path class="st1" d="M473.6,142.8c-1.1-0.8-3-2-4.6-2.8l0.7-1c1.5,0.8,3.6,2,4.6,2.7L473.6,142.8z M469.7,155.4
					c1.4-2.3,3.4-6.1,4.8-9.3l1,0.8c-1.3,3-3.2,6.7-4.6,9.3L469.7,155.4z M475,135.6c-1.1-0.9-3-2.4-4.6-3.4l0.8-0.9
					c1.5,1,3.6,2.4,4.6,3.3L475,135.6z M494.9,140.1v1.2h-19.1v-1.2h9.2v-2.6h-7.5v-1.1h7.5V134h-8.2v-1.2h8.2v-2h1.4v2h8.1v1.2
					h-8.1v2.3h7.1v1.1h-7.1v2.6H494.9z M492.6,154.9c0,0.9-0.2,1.2-0.8,1.5c-0.7,0.2-1.8,0.2-3.7,0.2c-0.1-0.4-0.3-0.9-0.5-1.2
					c1.5,0,2.8,0,3.1,0c0.4,0,0.5-0.1,0.5-0.5V152h-11.4c-0.3,1.7-0.8,3.5-1.8,5c-0.2-0.3-0.7-0.8-1-1c1.5-2.2,1.7-5.2,1.7-7.4v-5.2
					h13.9V154.9z M491.2,150.9v-2.7h-11.2v0.4c0,0.7,0,1.5-0.1,2.3H491.2z M480.1,144.4v2.7h11.2v-2.7H480.1z"/>
				<path class="st1" d="M469.9,169c1.5,0.9,3.3,2.3,4.2,3.3l-0.9,1.1c-0.9-1-2.6-2.5-4.2-3.4L469.9,169z M473.1,176.3l1,0.8
					c-1.1,2.9-2.5,6.4-3.7,8.9l-1.1-0.8C470.4,183.1,472,179.4,473.1,176.3z M470.6,161c1.5,0.9,3.1,2.4,3.9,3.4l-0.8,1
					c-0.8-1.1-2.4-2.6-3.9-3.5L470.6,161z M481.4,181.7c-1.4,1.6-3.7,3-5.6,4c-0.2-0.3-0.4-0.7-0.6-1c1.9-0.9,4.2-2.3,5.1-3.6
					L481.4,181.7z M475.4,169.5c1.1-0.1,2.4-0.2,3.8-0.3v-1.9h-3.3v-1.1h3.3v-1.9h-3.6v-1.1h3.6v-1.8h1.2v1.8h3.6v1.1h-3.6v1.9h3.2
					v1.1h-3.2v1.8l3.7-0.3l0,1.1l-3.8,0.4v2h-1.2v-1.9c-1.3,0.1-2.6,0.3-3.6,0.4L475.4,169.5z M490.3,175.7c1.4,1.4,2.9,3.2,3.6,4.4
					l-1,0.7c-0.3-0.5-0.6-1-1.1-1.6l-6.6,0.4v4.9c0,0.7-0.1,1-0.7,1.3c-0.6,0.2-1.6,0.2-3.2,0.2c-0.1-0.4-0.3-0.8-0.5-1.1
					c1.3,0,2.3,0.1,2.6,0s0.4-0.1,0.4-0.4v-4.8c-6,0.4-6.9,0.5-7.5,0.7c-0.1-0.3-0.3-0.9-0.5-1.1c0.7-0.1,1.7-0.3,2.9-0.8
					c0.8-0.3,2.7-1.1,4.9-2.2c-5.1,0.3-5.9,0.4-6.3,0.5c-0.1-0.3-0.3-0.9-0.4-1.2c0.5,0,1.1-0.2,1.8-0.6c0.7-0.3,3.1-1.7,4.8-3.1
					l1.1,0.7c-1.3,1-2.8,1.9-4.2,2.7l5.4-0.2c0.7-0.4,1.4-0.8,2-1.2l1.3,0.7c-2.9,1.8-5.8,3.2-8.7,4.3l10.7-0.6
					c-0.5-0.7-1.1-1.3-1.6-1.8L490.3,175.7z M489.1,163.7c-0.4,3.6-1.4,6.5-4,8.2c-0.2-0.3-0.6-0.7-0.9-0.9c2.4-1.5,3.3-4.2,3.6-7.3
					H485v-1.1h8.8c0,0,0,0.5,0,0.7c-0.3,5.2-0.5,7.1-1.1,7.7c-0.4,0.4-0.7,0.5-1.3,0.6c-0.5,0-1.4,0-2.2,0c0-0.4-0.2-0.9-0.3-1.2
					c0.9,0.1,1.8,0.1,2.1,0.1c0.3,0,0.6,0,0.7-0.2c0.3-0.5,0.6-2.1,0.8-6.4H489.1z M488.4,181.1c1.8,1.2,4.2,2.8,5.4,3.8l-0.7,1
					c-1.2-1-3.6-2.8-5.4-4L488.4,181.1z"/>
			</g>
		</g>
		<g>
			<path class="st3" d="M553,123.2c0,3.1-1.2,4.9-3.2,4.9c-1.8,0-3-1.7-3.1-4.8c0-3.1,1.3-4.8,3.2-4.8
				C551.9,118.5,553,120.3,553,123.2z M547.9,123.4c0,2.4,0.7,3.8,1.9,3.8c1.3,0,1.9-1.5,1.9-3.9c0-2.3-0.6-3.8-1.9-3.8
				C548.7,119.5,547.9,120.8,547.9,123.4z"/>
			<path class="st3" d="M559.6,119.7h-3.5l-0.4,2.4c0.2,0,0.4-0.1,0.8-0.1c0.7,0,1.4,0.2,2,0.5c0.7,0.4,1.3,1.2,1.3,2.4
				c0,1.8-1.4,3.2-3.4,3.2c-1,0-1.9-0.3-2.3-0.6l0.3-1c0.4,0.2,1.1,0.5,2,0.5c1.2,0,2.2-0.8,2.2-2c0-1.2-0.8-2.1-2.7-2.1
				c-0.5,0-0.9,0.1-1.3,0.1l0.6-4.4h4.4V119.7z"/>
		</g>
		<g>
			<g>
				<path class="st1" d="M562.9,135.1v7c0,4.3-0.3,10.4-2.7,14.6c-0.3-0.3-0.8-0.7-1.1-0.8c2.3-4.1,2.5-9.8,2.5-13.9v-8.3H573
					c-0.4-0.8-1-1.8-1.5-2.5l1.3-0.5c0.7,0.9,1.5,2,1.9,2.9h10.3v1.3H562.9z M577,145.9c1.2,5.5,3.5,9,5.7,9c0.7,0,1-1.3,1.1-4.3
					c0.3,0.3,0.8,0.5,1.1,0.6c-0.3,3.8-0.8,5-2.4,5c-3,0-5.6-4.2-6.9-10.4h-7.6v6l5.9-1.5c0,0.4,0,0.9,0,1.2
					c-6.3,1.6-7.1,1.9-7.5,2.2c-0.1-0.3-0.4-0.9-0.6-1.3c0.3-0.1,0.8-0.5,0.8-1.5v-12.7c5.1-0.3,11.3-0.8,14.7-1.5l1.1,1
					c-1.8,0.4-4,0.7-6.4,1c0.1,2,0.3,4,0.6,5.8h7.3v1.3H577z M575.4,144.7c-0.3-1.8-0.5-3.7-0.7-5.7c-2.2,0.2-4.6,0.4-6.7,0.5v5.2
					H575.4z M570.6,154.3h7.5v1.2h-7.5V154.3z"/>
				<path class="st1" d="M572.8,184.4H585v1.2h-25.7v-1.2h12.2v-3.1h-9.2v-1.2h9.2v-1.7h1.4v1.7h9.6v1.2h-9.6V184.4z M563.3,169.4
					c-0.9-0.8-2.6-1.9-4-2.6l0.8-0.9c1.4,0.7,3.2,1.8,4,2.6L563.3,169.4z M560,177.8c1.2-1.5,2.9-4,4.2-6.3l0.9,0.8
					c-1.3,2.1-2.8,4.6-4.1,6.3L560,177.8z M565.2,164.8c-0.9-0.9-2.6-2-4-2.9l0.8-0.9c1.4,0.7,3.2,1.9,4,2.7L565.2,164.8z
					 M575.8,161.1c-0.2,0.2-0.3,0.5-0.5,0.7c2.1,2.1,6.2,4.1,9.8,4.9c-0.3,0.3-0.7,0.8-0.9,1.2c-3.5-0.9-7.4-3-9.6-5.2
					c-2.3,2.3-5.5,4.3-8.7,5.5c-0.2-0.3-0.6-0.8-0.9-1.1c3.7-1.3,7.6-3.6,9.6-6.4L575.8,161.1z M571.1,172.8
					c-1.1,1.6-2.9,3.3-4.7,4.4c-0.2-0.2-0.6-0.5-0.9-0.7c1.8-1.1,3.5-2.8,4.5-4.2L571.1,172.8z M573.9,177.5v-6.4h-7.3V170h7.3v-2.4
					h-4.5v-1.1h10.5v1.1h-4.6v2.4h7.5v1.2h-7.5v6.4H573.9z M582.9,177.1c-1-1.1-3.1-2.9-4.8-4.1l0.9-0.7c1.7,1.2,3.8,3,4.8,4
					L582.9,177.1z"/>
			</g>
		</g>
		<g>
			<path class="st3" d="M643.1,123.2c0,3.1-1.2,4.9-3.2,4.9c-1.8,0-3-1.7-3.1-4.8c0-3.1,1.3-4.8,3.2-4.8
				C642,118.5,643.1,120.3,643.1,123.2z M638.1,123.4c0,2.4,0.7,3.8,1.9,3.8c1.3,0,1.9-1.5,1.9-3.9c0-2.3-0.6-3.8-1.9-3.8
				C638.9,119.5,638.1,120.8,638.1,123.4z"/>
			<path class="st3" d="M649.5,119.6c-0.3,0-0.6,0-0.9,0.1c-2,0.3-3,1.8-3.2,3.3h0c0.4-0.6,1.2-1.1,2.2-1.1c1.6,0,2.8,1.2,2.8,3
				c0,1.7-1.2,3.3-3.1,3.3c-2,0-3.3-1.5-3.3-3.9c0-1.8,0.7-3.3,1.6-4.2c0.8-0.8,1.8-1.2,3-1.4c0.4-0.1,0.7-0.1,0.9-0.1V119.6z
				 M649.2,124.9c0-1.3-0.8-2.1-1.9-2.1c-0.8,0-1.5,0.5-1.8,1.1c-0.1,0.1-0.1,0.3-0.1,0.6c0,1.5,0.7,2.6,2,2.6
				C648.4,127.1,649.2,126.2,649.2,124.9z"/>
		</g>
		<g>
			<g>
				<path class="st1" d="M658.8,132.6c-0.9,2.4-2.2,5.2-3.3,7.6c2.4,2.5,3,4.7,3,6.6c0,1.4-0.3,2.6-1.1,3.1
					c-0.4,0.3-0.9,0.5-1.5,0.5c-0.7,0.1-1.5,0.1-2.1,0c0-0.4-0.2-0.9-0.4-1.3c0.8,0.1,1.5,0.1,2.1,0.1c0.4,0,0.8-0.1,1.1-0.3
					c0.5-0.3,0.7-1.3,0.7-2.2c0-1.7-0.7-3.8-3.1-6.3c1.1-2.3,2.2-5,2.9-7.1h-5.2v23.3h-1.3v-24.6h7.1l0.2-0.1L658.8,132.6z
					 M664.8,137.1c-0.1,1.7-0.1,3.3-0.3,4.9h8.7v0.7c-0.4,9.1-0.7,12.2-1.6,13.2c-0.5,0.5-0.9,0.7-1.8,0.8c-0.8,0.1-2.4,0-4-0.1
					c0-0.4-0.2-1-0.4-1.4c1.7,0.2,3.4,0.2,4,0.2c0.5,0,0.8,0,1.1-0.3c0.7-0.7,1-3.7,1.3-11.8h-7.4c-0.7,5.7-2.3,10.6-7.3,13.3
					c-0.2-0.3-0.7-0.7-1-1c6.4-3.5,7-10.8,7.3-18.5h-5v-1.3h16.6v1.3H664.8z M666.6,135.6c-0.3-1.1-0.9-2.9-1.4-4.3l1.3-0.3
					c0.5,1.4,1.2,3.2,1.4,4.2L666.6,135.6z"/>
				<path class="st1" d="M659.5,168.5c-1.5,7.3-5,12.3-9,15.1c-0.2-0.3-0.7-0.9-1.1-1.1c3.8-2.4,7-6.9,8.4-12.9h-7.6v-1.4h8.1
					l0.3-0.1L659.5,168.5z M672.7,167.2c-1.8,2.2-4.3,4.9-6.3,6.7c2.6,3.6,5.8,6.7,9.2,8.3c-0.4,0.3-0.8,0.8-1,1.2
					c-4.6-2.4-8.9-7.5-11.6-13.1v14.2c0,1.1-0.3,1.6-1,1.8c-0.7,0.3-1.9,0.3-4,0.3c-0.1-0.4-0.3-1.1-0.6-1.5c1.7,0.1,3.1,0.1,3.5,0
					c0.5,0,0.6-0.1,0.6-0.6v-23.7h1.4v6.8c0.7,1.8,1.7,3.5,2.8,5.2c1.9-1.8,4.3-4.5,5.7-6.5L672.7,167.2z"/>
			</g>
		</g>
		<g>
			<path class="st3" d="M733.2,123.2c0,3.1-1.2,4.9-3.2,4.9c-1.8,0-3-1.7-3.1-4.8c0-3.1,1.3-4.8,3.2-4.8
				C732.1,118.5,733.2,120.3,733.2,123.2z M728.2,123.4c0,2.4,0.7,3.8,1.9,3.8c1.3,0,1.9-1.5,1.9-3.9c0-2.3-0.6-3.8-1.9-3.8
				C729,119.5,728.2,120.8,728.2,123.4z"/>
			<path class="st3" d="M740.4,118.7v0.8l-4,8.4h-1.3l4-8.2v0h-4.5v-1H740.4z"/>
		</g>
		<g>
			<g>
				<path class="st1" d="M749,132.6c-0.9,2.4-2.2,5.2-3.3,7.6c2.4,2.5,3,4.7,3,6.6c0,1.4-0.3,2.6-1.1,3.1c-0.4,0.3-0.9,0.5-1.5,0.5
					c-0.7,0.1-1.5,0.1-2.1,0c0-0.4-0.2-0.9-0.4-1.3c0.8,0.1,1.5,0.1,2.1,0.1c0.4,0,0.8-0.1,1.1-0.3c0.5-0.3,0.7-1.3,0.7-2.2
					c0-1.7-0.7-3.8-3.1-6.3c1.1-2.3,2.2-5,2.9-7.1H742v23.3h-1.3v-24.6h7.1l0.2-0.1L749,132.6z M754.9,137.1
					c-0.1,1.7-0.1,3.3-0.3,4.9h8.7v0.7c-0.4,9.1-0.7,12.2-1.6,13.2c-0.5,0.5-0.9,0.7-1.8,0.8c-0.8,0.1-2.4,0-4-0.1
					c0-0.4-0.2-1-0.4-1.4c1.7,0.2,3.4,0.2,4,0.2c0.5,0,0.8,0,1.1-0.3c0.7-0.7,1-3.7,1.3-11.8h-7.4c-0.7,5.7-2.3,10.6-7.3,13.3
					c-0.2-0.3-0.7-0.7-1-1c6.4-3.5,7-10.8,7.3-18.5h-5v-1.3h16.6v1.3H754.9z M756.8,135.6c-0.3-1.1-0.9-2.9-1.4-4.3l1.3-0.3
					c0.5,1.4,1.2,3.2,1.4,4.2L756.8,135.6z"/>
				<path class="st1" d="M749.7,168.5c-1.5,7.3-5,12.3-9,15.1c-0.2-0.3-0.7-0.9-1.1-1.1c3.8-2.4,7-6.9,8.4-12.9h-7.6v-1.4h8.1
					l0.3-0.1L749.7,168.5z M762.9,167.2c-1.8,2.2-4.3,4.9-6.3,6.7c2.6,3.6,5.8,6.7,9.2,8.3c-0.4,0.3-0.8,0.8-1,1.2
					c-4.6-2.4-8.9-7.5-11.6-13.1v14.2c0,1.1-0.3,1.6-1,1.8c-0.7,0.3-1.9,0.3-4,0.3c-0.1-0.4-0.3-1.1-0.6-1.5c1.7,0.1,3.1,0.1,3.5,0
					c0.5,0,0.6-0.1,0.6-0.6v-23.7h1.4v6.8c0.7,1.8,1.7,3.5,2.8,5.2c1.9-1.8,4.3-4.5,5.7-6.5L762.9,167.2z"/>
				<path class="st1" d="M739.7,195.5h9.2v1.2h-9.2V195.5z M748.3,214.6h-6.2v1.4h-1.3v-9.5h7.5V214.6z M748.3,200.3h-7.4v-1.2h7.4
					V200.3z M740.9,202.8h7.4v1.2h-7.4V202.8z M742.1,207.8v5.6h5v-5.6H742.1z M744.7,194.8c-0.5-1-1.4-2.6-2.2-3.7l1.1-0.6
					c0.9,1.1,1.8,2.6,2.2,3.6L744.7,194.8z M754,211.5c1.5-0.4,3-0.9,4.5-1.3l0.1,1.2c-3.2,1-6.6,2-9.2,2.8l-0.5-1.3
					c1-0.3,2.3-0.6,3.7-1v-8.3h-3.4v-1.3h8.1v1.3H754V211.5z M759.5,197.8c0.5,10.5,2.1,17.4,3.9,17.4c0.5,0,0.8-1.5,0.9-4.9
					c0.3,0.3,0.8,0.6,1.1,0.7c-0.3,4.1-0.7,5.5-2.2,5.5c-3,0-4.5-7.9-5.1-18.7h-8.6v-1.3h8.5c-0.1-1.8-0.1-3.8-0.1-5.7h1.4
					c0,2,0,3.9,0.1,5.7h5.9v1.3H759.5z M763.1,195.7c-0.5-1-1.6-2.6-2.6-3.8l1-0.6c1,1.1,2.2,2.6,2.6,3.6L763.1,195.7z"/>
				<path class="st1" d="M749.7,228.3c-1.5,7.3-5,12.3-9,15.1c-0.2-0.3-0.7-0.9-1.1-1.1c3.8-2.4,7-6.9,8.4-12.9h-7.6V228h8.1
					l0.3-0.1L749.7,228.3z M762.9,227c-1.8,2.2-4.3,4.9-6.3,6.7c2.6,3.6,5.8,6.7,9.2,8.3c-0.4,0.3-0.8,0.8-1,1.2
					c-4.6-2.4-8.9-7.5-11.6-13.1v14.2c0,1.1-0.3,1.6-1,1.8c-0.7,0.3-1.9,0.3-4,0.3c-0.1-0.4-0.3-1.1-0.6-1.5c1.7,0.1,3.1,0.1,3.5,0
					c0.5,0,0.6-0.1,0.6-0.6v-23.7h1.4v6.8c0.7,1.8,1.7,3.5,2.8,5.2c1.9-1.8,4.3-4.5,5.7-6.5L762.9,227z"/>
			</g>
		</g>
		<g>
			<path class="st3" d="M823.3,123.2c0,3.1-1.2,4.9-3.2,4.9c-1.8,0-3-1.7-3.1-4.8c0-3.1,1.3-4.8,3.2-4.8
				C822.2,118.5,823.3,120.3,823.3,123.2z M818.3,123.4c0,2.4,0.7,3.8,1.9,3.8c1.3,0,1.9-1.5,1.9-3.9c0-2.3-0.6-3.8-1.9-3.8
				C819.1,119.5,818.3,120.8,818.3,123.4z"/>
			<path class="st3" d="M824.4,125.6c0-1.2,0.7-2,1.8-2.5l0,0c-1-0.5-1.5-1.3-1.5-2.1c0-1.5,1.2-2.5,2.9-2.5c1.8,0,2.7,1.1,2.7,2.3
				c0,0.8-0.4,1.6-1.5,2.2v0c1.2,0.5,1.9,1.3,1.9,2.4c0,1.6-1.4,2.7-3.1,2.7C825.6,128.1,824.4,127,824.4,125.6z M829.4,125.5
				c0-1.1-0.8-1.7-2-2c-1.1,0.3-1.7,1-1.7,1.9c0,0.9,0.7,1.8,1.9,1.8C828.6,127.2,829.4,126.5,829.4,125.5z M825.9,120.9
				c0,0.9,0.7,1.4,1.8,1.7c0.8-0.3,1.4-0.8,1.4-1.7c0-0.7-0.4-1.5-1.6-1.5C826.5,119.4,825.9,120.1,825.9,120.9z"/>
		</g>
		<g>
			<g>
				<path class="st1" d="M855,136h-10.3c3.6,2.1,7.9,4.9,10.2,6.7l-0.9,0.9c-2.4-2-7-5-10.9-7.3v6h-1.3V136h-0.2
					c-2.6,3.4-7.3,6.5-11.1,8.1c-0.2-0.3-0.6-0.8-0.9-1.1c3.6-1.3,7.9-4,10.4-7h-10v-1.3h11.8v-3.9h1.3v3.9H855V136z M830.7,154.4
					h23.9v1.3h-23.9V154.4z M850.2,143.3v9.1h-15.3v-9.1H850.2z M848.8,144.4h-12.6v2.9h12.6V144.4z M848.8,148.4h-12.6v2.9h12.6
					V148.4z"/>
				<path class="st1" d="M829.4,184.2c0.7-1.7,1.1-4.5,1.4-6.3l0.9,0.3c-0.3,1.9-0.7,4.7-1.3,6.4L829.4,184.2z M840.2,175.7
					c-0.3,7.1-0.5,9.4-1.1,10.1c-0.3,0.4-0.7,0.6-1.4,0.6c-0.5,0-1.3,0-2.2,0c0-0.3-0.1-0.9-0.3-1.2c0.9,0.1,1.8,0.1,2.1,0.1
					c0.3,0,0.5,0,0.7-0.3c0.4-0.5,0.7-2.7,0.9-8.8h-8.1v-14.2h9.3v1.2h-4v3.1h3.3v1.2h-3.3v3h3.3v1.2h-3.3v3.3h3.9V175.7z
					 M832.1,163.4v3.1h3v-3.1H832.1z M835.1,167.6h-3v3h3V167.6z M832.1,175.1h3v-3.3h-3V175.1z M833.3,178.3
					c0.2,1.6,0.4,3.7,0.5,5.2l-0.9,0.1c0-1.4-0.2-3.5-0.5-5.2L833.3,178.3z M834.9,177.8c0.5,1.5,1.1,3.4,1.3,4.6l-0.9,0.3
					c-0.2-1.3-0.8-3.2-1.3-4.6L834.9,177.8z M837.6,181.3c-0.4-1-1.2-2.6-1.9-3.8l0.8-0.3c0.7,1.2,1.6,2.8,1.9,3.7L837.6,181.3z
					 M847,184.7c-0.7-0.7-1.9-1.8-3.1-2.6c-0.8,1.8-1.9,3.3-3.1,4.4c-0.2-0.2-0.7-0.7-1-0.9c2-1.6,3.4-4.2,4-7.2l1.3,0.2
					c-0.2,0.8-0.4,1.6-0.7,2.4c1.3,0.8,2.7,2,3.4,2.7L847,184.7z M848.8,160.9c-0.2,0.3-0.3,0.5-0.5,0.8c1.7,2.2,4.8,4.7,7.2,6
					c-0.3,0.3-0.6,0.8-0.7,1.1c-2.4-1.5-5.3-3.9-7.1-6.1c-1.7,2.4-4.2,4.7-6.9,6.4c-0.2-0.2-0.7-0.6-1-0.8c3.3-2,6.2-5,7.7-7.8
					L848.8,160.9z M841.6,171.1h5.4v6.3h-5.4V171.1z M842.7,176.3h3.1v-4.2h-3.1V176.3z M852.2,168.4h-8.7v-1.2h8.7V168.4z
					 M852.2,178.5c-0.2,1.1-0.5,2-0.9,3c1.5,1.1,3.1,2.4,3.9,3.4l-0.9,1c-0.8-0.9-2.2-2.2-3.6-3.3c-0.8,1.6-1.8,2.9-3,3.9
					c-0.2-0.2-0.7-0.6-1.1-0.9c2.2-1.6,3.6-4.1,4.2-7.3L852.2,178.5z M854.2,177.4h-5.6v-6.3h5.6V177.4z M853,172.2h-3.3v4.2h3.3
					V172.2z"/>
			</g>
		</g>
		<g>
			<path class="st3" d="M913.5,123.2c0,3.1-1.2,4.9-3.2,4.9c-1.8,0-3-1.7-3.1-4.8c0-3.1,1.3-4.8,3.2-4.8
				C912.4,118.5,913.5,120.3,913.5,123.2z M908.4,123.4c0,2.4,0.7,3.8,1.9,3.8c1.3,0,1.9-1.5,1.9-3.9c0-2.3-0.6-3.8-1.9-3.8
				C909.2,119.5,908.4,120.8,908.4,123.4z"/>
			<path class="st3" d="M915.4,127.1c0.3,0,0.6,0,1,0c0.7-0.1,1.4-0.4,1.9-0.9c0.6-0.6,1.1-1.4,1.2-2.5h0c-0.5,0.6-1.3,1-2.2,1
				c-1.7,0-2.7-1.3-2.7-2.8c0-1.8,1.3-3.3,3.2-3.3s3.1,1.5,3.1,3.9c0,2-0.7,3.5-1.6,4.3c-0.7,0.7-1.7,1.1-2.7,1.2
				c-0.5,0.1-0.9,0.1-1.2,0.1V127.1z M915.8,121.7c0,1.2,0.7,2,1.8,2c0.8,0,1.5-0.4,1.8-1c0.1-0.1,0.1-0.3,0.1-0.5
				c0-1.6-0.6-2.8-1.9-2.8C916.6,119.5,915.8,120.4,915.8,121.7z"/>
		</g>
		<g>
			<g>
				<path class="st1" d="M929.2,132.6c-0.9,2.4-2.2,5.2-3.3,7.6c2.4,2.5,3,4.7,3,6.6c0,1.4-0.3,2.6-1.1,3.1
					c-0.4,0.3-0.9,0.5-1.5,0.5c-0.7,0.1-1.5,0.1-2.1,0c0-0.4-0.2-0.9-0.4-1.3c0.8,0.1,1.5,0.1,2.1,0.1c0.4,0,0.8-0.1,1.1-0.3
					c0.5-0.3,0.7-1.3,0.7-2.2c0-1.7-0.7-3.8-3.1-6.3c1.1-2.3,2.2-5,2.9-7.1h-5.2v23.3H921v-24.6h7.1l0.2-0.1L929.2,132.6z
					 M935.2,137.1c-0.1,1.7-0.1,3.3-0.3,4.9h8.7v0.7c-0.4,9.1-0.7,12.2-1.6,13.2c-0.5,0.5-0.9,0.7-1.8,0.8c-0.8,0.1-2.4,0-4-0.1
					c0-0.4-0.2-1-0.4-1.4c1.7,0.2,3.4,0.2,4,0.2c0.5,0,0.8,0,1.1-0.3c0.7-0.7,1-3.7,1.3-11.8h-7.4c-0.7,5.7-2.3,10.6-7.3,13.3
					c-0.2-0.3-0.7-0.7-1-1c6.4-3.5,7-10.8,7.3-18.5h-5v-1.3h16.6v1.3H935.2z M937,135.6c-0.3-1.1-0.9-2.9-1.4-4.3l1.3-0.3
					c0.5,1.4,1.2,3.2,1.4,4.2L937,135.6z"/>
				<path class="st1" d="M929.9,168.5c-1.5,7.3-5,12.3-9,15.1c-0.2-0.3-0.7-0.9-1.1-1.1c3.8-2.4,7-6.9,8.4-12.9h-7.6v-1.4h8.1
					l0.3-0.1L929.9,168.5z M943.1,167.2c-1.8,2.2-4.3,4.9-6.3,6.7c2.6,3.6,5.8,6.7,9.2,8.3c-0.4,0.3-0.8,0.8-1,1.2
					c-4.6-2.4-8.9-7.5-11.6-13.1v14.2c0,1.1-0.3,1.6-1,1.8c-0.7,0.3-1.9,0.3-4,0.3c-0.1-0.4-0.3-1.1-0.6-1.5c1.7,0.1,3.1,0.1,3.5,0
					c0.5,0,0.6-0.1,0.6-0.6v-23.7h1.4v6.8c0.7,1.8,1.7,3.5,2.8,5.2c1.9-1.8,4.3-4.5,5.7-6.5L943.1,167.2z"/>
				<path class="st1" d="M928,191.1c-0.9,2.1-1.9,4.2-3.1,6.1v19.1h-1.3v-17c-1.1,1.6-2.3,3.1-3.5,4.3c-0.2-0.3-0.6-1-0.9-1.3
					c3-2.8,5.8-7.1,7.5-11.6L928,191.1z M945.5,204.5v1.3h-8.5v10.6h-1.4v-10.6H927v-1.3h8.7v-3.9h-6.5V192h14.5v8.6h-6.7v3.9H945.5
					z M933.2,207.9c-1.5,2.4-3.4,5.2-5.2,7c-0.2-0.2-0.8-0.6-1.1-0.8c1.7-1.8,3.6-4.3,5-6.6L933.2,207.9z M930.5,199.3h11.9v-6
					h-11.9V199.3z M940.1,207.5c2,2.1,4.3,4.9,5.3,6.6l-1.1,0.7c-1.1-1.8-3.4-4.7-5.3-6.8L940.1,207.5z"/>
				<path class="st1" d="M929.5,226.6h-9.7v-1.2h9.7V226.6z M920.9,230.2v-1.2h7.6v1.2H920.9z M928.5,233.9h-7.6v-1.2h7.6V233.9z
					 M928.5,244.5h-6.4v1.4h-1.2v-9.5h7.6V244.5z M922.1,237.6v5.6h5.1v-5.6H922.1z M925.2,224.7c-0.4-1-1.3-2.6-2.2-3.7l1.1-0.6
					c0.9,1.2,1.8,2.6,2.2,3.6L925.2,224.7z M943.8,238.7c-1.1,1.8-2.7,3.3-4.8,4.5c2.1,0.9,4.5,1.6,6.8,2c-0.3,0.3-0.7,0.8-0.8,1.1
					c-2.5-0.5-5-1.3-7.3-2.4c-2.4,1.2-5.3,2-8,2.4c-0.1-0.4-0.4-0.9-0.7-1.2c2.5-0.4,5.1-1,7.4-2c-1.7-1-3-2.1-4.1-3.4l0.8-0.3H930
					v-1.1h12.8l0.2-0.1L943.8,238.7z M937.7,227.5c-0.2-0.7-0.5-1.5-0.8-2.2l1.2-0.4c0.3,0.8,0.7,1.8,1,2.5h5.7v1.1h-6v1.7h5.2v1
					h-5.2v1.7h5.2v1h-5.2v1.8h6.6v1.1h-12.4v0.7h-1.2v-7.7c-0.6,0.9-1.2,1.6-1.8,2.2c-0.2-0.3-0.6-0.8-0.9-1
					c1.7-1.5,3.1-3.8,3.8-6.2l1.2,0.3c-0.3,0.8-0.6,1.6-1,2.4H937.7z M934.8,223.6h-5.1v-1.2h5.1v-2h1.3v4.9h-1.3V223.6z
					 M937.6,228.6h-4.5v1.7h4.5V228.6z M937.6,231.4h-4.5v1.7h4.5V231.4z M937.6,234.1h-4.5v1.8h4.5V234.1z M933.7,239.4
					c1,1.2,2.4,2.2,4.1,3.2c1.7-0.9,3.1-1.9,4.1-3.2H933.7z M940.7,225.4h-1.3v-4.9h1.3v2h4.7v1.2h-4.7V225.4z"/>
			</g>
		</g>
	</g>
</g>
</svg>
