<svg width="321" height="21" viewBox="0 0 321 21" fill="none" xmlns="http://www.w3.org/2000/svg">
<path d="M240.86 0V21" stroke="#EB6519" stroke-width="0.75" stroke-miterlimit="10"/>
<path d="M0 17.6603L0.17 16.8803L1.71 16.3703C1.84 16.3303 1.97 16.2703 2.07 16.1803C2.18 16.0903 2.25 15.9603 2.28 15.8103L4.8 4.40031C4.84 4.24031 4.82 4.12031 4.76 4.04031C4.7 3.95031 4.61 3.89031 4.48 3.86031L2.94 3.34031L3.11 2.57031H9.6C10.92 2.57031 11.93 2.71031 12.64 2.99031C13.35 3.27031 13.85 3.63031 14.12 4.07031C14.39 4.51031 14.54 4.99031 14.54 5.50031C14.54 6.57031 14.16 7.47031 13.4 8.18031C12.64 8.89031 11.69 9.39031 10.55 9.66031V9.71031C11.67 9.80031 12.59 10.1103 13.29 10.6403C13.99 11.1803 14.34 11.9103 14.34 12.8303C14.34 13.7503 14.14 14.5303 13.74 15.1503C13.34 15.7703 12.81 16.2703 12.15 16.6303C11.49 17.0003 10.76 17.2603 9.95 17.4203C9.15 17.5803 8.34 17.6603 7.54 17.6603H0ZM7.53 16.2903C8.77 16.2903 9.69 16.0003 10.29 15.4303C10.89 14.8503 11.2 13.9603 11.2 12.7403C11.2 12.1303 11.06 11.6703 10.77 11.3503C10.49 11.0403 10.1 10.8303 9.61 10.7203C9.12 10.6103 8.56 10.5503 7.92 10.5503H6.1L6.38 9.28031H7.5C8.4 9.28031 9.14 9.16031 9.72 8.93031C10.3 8.70031 10.73 8.34031 11.01 7.86031C11.29 7.38031 11.43 6.77031 11.43 6.03031C11.43 5.50031 11.32 5.08031 11.1 4.78031C10.88 4.48031 10.57 4.26031 10.17 4.12031C9.77 3.99031 9.29 3.92031 8.74 3.92031H7.74L5 16.2803H7.54L7.53 16.2903Z" fill="#EB6519"/>
<path d="M13.78 17.6603L13.94 16.8803L15.05 16.4003C15.18 16.3403 15.3 16.2603 15.43 16.1403C15.55 16.0303 15.66 15.9103 15.73 15.7903L22.4 4.86033L24.21 2.34033H25.81L28.09 15.8203C28.11 15.9503 28.16 16.0803 28.24 16.2003C28.32 16.3203 28.42 16.4003 28.56 16.4503L29.7 16.8803L29.53 17.6603H23.43L23.59 16.8803L25.38 16.2903L23.8 7.15033L23.63 5.72033L23.5 5.62033L17.19 16.2403L18.93 16.8703L18.76 17.6503H13.78V17.6603ZM19.29 12.4103L20.12 11.0603H24.64L24.89 12.4103H19.29Z" fill="#EB6519"/>
<path d="M35.62 18.01C34.82 18.01 33.95 17.9 33.03 17.68C32.11 17.46 31.25 17.22 30.47 16.95L31.3 12.78H32.41L32.59 14.96C32.59 15.07 32.63 15.17 32.71 15.27C32.79 15.37 32.9 15.46 33.03 15.55C33.32 15.76 33.68 15.94 34.11 16.1C34.54 16.26 34.97 16.39 35.39 16.47C35.81 16.55 36.14 16.6 36.37 16.6C36.97 16.6 37.53 16.5 38.05 16.3C38.57 16.1 38.98 15.79 39.29 15.38C39.6 14.97 39.75 14.46 39.75 13.85C39.75 13.31 39.58 12.87 39.24 12.54C38.9 12.21 38.47 11.92 37.94 11.68C37.47 11.47 37.01 11.27 36.55 11.08C36.09 10.89 35.63 10.69 35.18 10.47C34.7 10.25 34.27 9.98 33.89 9.67C33.51 9.36 33.21 8.99 32.99 8.56C32.77 8.13 32.66 7.64 32.66 7.08C32.66 6.31 32.84 5.63 33.19 5.04C33.54 4.45 34.02 3.94 34.61 3.53C35.21 3.11 35.87 2.8 36.6 2.58C37.33 2.36 38.07 2.25 38.82 2.25C39.67 2.25 40.49 2.34 41.3 2.52C42.11 2.7 42.88 2.89 43.62 3.11L42.77 7.06H41.67L41.5 5.01C41.49 4.9 41.43 4.79 41.33 4.68C41.23 4.57 41.1 4.48 40.93 4.39C40.67 4.22 40.38 4.08 40.04 3.97C39.71 3.86 39.38 3.78 39.07 3.74C38.76 3.69 38.5 3.67 38.28 3.67C37.46 3.67 36.79 3.91 36.25 4.39C35.72 4.87 35.45 5.48 35.45 6.22C35.45 6.75 35.62 7.19 35.97 7.54C36.31 7.89 36.79 8.2 37.38 8.46C37.81 8.66 38.25 8.85 38.69 9.03C39.13 9.21 39.58 9.41 40.03 9.63C40.48 9.85 40.91 10.11 41.31 10.41C41.71 10.71 42.03 11.07 42.29 11.49C42.55 11.91 42.67 12.41 42.67 13.01C42.67 13.83 42.48 14.55 42.09 15.18C41.7 15.81 41.18 16.33 40.52 16.75C39.86 17.17 39.11 17.49 38.26 17.71C37.42 17.93 36.53 18.04 35.61 18.04L35.62 18.01Z" fill="#EB6519"/>
<path d="M43.3701 17.6603L43.5401 16.8803L45.0801 16.3703C45.2101 16.3303 45.3301 16.2703 45.4401 16.1803C45.5401 16.0903 45.6101 15.9603 45.6501 15.8103L48.1801 4.41031C48.2201 4.25031 48.2001 4.13031 48.1301 4.04031C48.0601 3.95031 47.9701 3.89031 47.8601 3.86031L46.3001 3.34031L46.4701 2.57031H58.6401L57.7701 6.51031H56.6401L56.4901 4.36031C56.4901 4.23031 56.4501 4.13031 56.3901 4.07031C56.3301 4.00031 56.2401 3.97031 56.1201 3.97031H51.1101L48.3801 16.2903H54.4801C54.5901 16.2903 54.7001 16.2503 54.7901 16.1803C54.8801 16.1103 54.9601 16.0103 55.0101 15.8903L56.1701 13.4703H57.2801L56.3501 17.6803H43.3701V17.6603ZM49.4801 10.4903L49.7901 9.14031H53.0001C53.1401 9.14031 53.2501 9.11031 53.3301 9.04031C53.4101 8.97031 53.4801 8.88031 53.5501 8.76031L54.4801 7.05031H55.4301L54.2001 12.5803H53.2601L53.0601 10.8903C53.0501 10.7603 53.0201 10.6603 52.9701 10.6003C52.9301 10.5303 52.8301 10.5003 52.6801 10.5003H49.4701L49.4801 10.4903Z" fill="#EB6519"/>
<path d="M64.45 17.6603L64.62 16.8803L66.16 16.3703C66.29 16.3303 66.41 16.2703 66.52 16.1803C66.62 16.0903 66.69 15.9603 66.73 15.8103L69.26 4.41031C69.3 4.25031 69.28 4.13031 69.21 4.04031C69.14 3.95031 69.05 3.89031 68.94 3.86031L67.38 3.34031L67.55 2.57031H79.72L78.85 6.51031H77.72L77.57 4.36031C77.57 4.23031 77.53 4.13031 77.47 4.07031C77.41 4.00031 77.32 3.97031 77.2 3.97031H72.19L69.46 16.2903H75.56C75.67 16.2903 75.78 16.2503 75.87 16.1803C75.96 16.1103 76.04 16.0103 76.09 15.8903L77.25 13.4703H78.36L77.43 17.6803H64.45V17.6603ZM70.56 10.4903L70.87 9.14031H74.08C74.22 9.14031 74.33 9.11031 74.41 9.04031C74.49 8.97031 74.56 8.88031 74.63 8.76031L75.56 7.05031H76.51L75.28 12.5803H74.34L74.14 10.8903C74.13 10.7603 74.1 10.6603 74.05 10.6003C74.01 10.5303 73.91 10.5003 73.76 10.5003H70.55L70.56 10.4903Z" fill="#EB6519"/>
<path d="M79.35 16.8803L80.9 16.3003C81.04 16.2503 81.15 16.1803 81.26 16.0903C81.37 16.0003 81.43 15.8803 81.46 15.7303L83.98 4.41029C84.02 4.26029 84 4.14029 83.93 4.05029C83.86 3.96029 83.77 3.90029 83.65 3.86029L82.04 3.32029L82.21 2.55029H86.89L91.52 12.3803L92.1 13.7903H92.21L94.28 4.45029C94.32 4.30029 94.31 4.18029 94.24 4.10029C94.17 4.02029 94.08 3.95029 93.96 3.92029L92.4 3.32029L92.57 2.55029H98.13L97.95 3.32029L96.43 3.92029C96.3 3.96029 96.18 4.03029 96.08 4.11029C95.97 4.20029 95.9 4.31029 95.87 4.45029L93.48 15.2603L92.63 17.7603H91.08L86.03 7.07029L85.41 5.56029H85.3L83.05 15.7403C83.01 15.9203 83.03 16.0503 83.1 16.1303C83.17 16.2103 83.25 16.2703 83.35 16.3103L84.89 16.8903L84.72 17.6703H79.21L79.38 16.8903L79.35 16.8803Z" fill="#EB6519"/>
<path d="M104.14 17.9902C102.96 17.9902 101.91 17.7502 100.98 17.2802C100.05 16.8002 99.32 16.1002 98.78 15.1702C98.24 14.2402 97.97 13.1102 97.97 11.7602C97.97 10.4102 98.19 9.22023 98.63 8.07023C99.07 6.92023 99.69 5.90023 100.5 5.03023C101.3 4.16023 102.26 3.47023 103.36 2.98023C104.46 2.49023 105.67 2.24023 107 2.24023C108.19 2.24023 109.22 2.34023 110.09 2.53023C110.96 2.72023 111.68 2.90023 112.24 3.05023L112.53 3.14023L111.7 6.99023H110.59L110.46 4.92023C110.46 4.81023 110.41 4.72023 110.31 4.63023C110.21 4.54023 110.09 4.46023 109.95 4.40023C109.51 4.22023 108.97 4.04023 108.34 3.89023C107.71 3.74023 107.07 3.66023 106.43 3.66023C105.69 3.66023 104.99 3.85023 104.34 4.23023C103.69 4.61023 103.11 5.15023 102.62 5.86023C102.13 6.56023 101.74 7.40023 101.46 8.36023C101.18 9.32023 101.04 10.3802 101.04 11.5402C101.04 12.5302 101.19 13.4102 101.48 14.1802C101.77 14.9502 102.2 15.5602 102.77 16.0002C103.34 16.4402 104.03 16.6602 104.87 16.6602C105.47 16.6602 105.97 16.5902 106.39 16.4402C106.8 16.2902 107.12 16.1602 107.35 16.0502L108.12 12.5502C108.16 12.3902 108.14 12.2702 108.07 12.1902C108 12.1002 107.91 12.0402 107.8 12.0102L105.99 11.4902L106.17 10.7302H113.08L112.92 11.4902L111.47 12.0102C111.35 12.0502 111.24 12.1202 111.13 12.2002C111.02 12.2902 110.95 12.4002 110.92 12.5502L110.55 14.2002C110.41 14.8302 110.29 15.3802 110.2 15.8302C110.11 16.2802 110.05 16.6502 110 16.9302C109.16 17.2102 108.24 17.4702 107.25 17.6802C106.26 17.8902 105.23 18.0102 104.17 18.0102L104.14 17.9902Z" fill="#EB6519"/>
<path d="M113.17 16.8803L114.76 16.3703C114.9 16.3303 115.02 16.2703 115.13 16.1803C115.23 16.0903 115.3 15.9603 115.33 15.8103L117.86 4.41031C117.9 4.25031 117.88 4.13031 117.82 4.04031C117.76 3.95031 117.67 3.89031 117.55 3.86031L115.94 3.34031L116.12 2.57031H123L122.83 3.34031L121.37 3.81031C121.23 3.86031 121.09 3.93031 120.95 4.02031C120.81 4.11031 120.73 4.24031 120.68 4.40031L118.14 15.8003C118.11 15.9603 118.13 16.0903 118.19 16.1803C118.25 16.2703 118.35 16.3303 118.47 16.3603L120.06 16.8703L119.89 17.6503H112.99L113.17 16.8703V16.8803Z" fill="#EB6519"/>
<path d="M121.85 16.8803L123.4 16.3003C123.54 16.2503 123.65 16.1803 123.76 16.0903C123.87 16.0003 123.93 15.8803 123.96 15.7303L126.48 4.41029C126.52 4.26029 126.5 4.14029 126.43 4.05029C126.36 3.96029 126.27 3.90029 126.15 3.86029L124.54 3.32029L124.71 2.55029H129.39L134.02 12.3803L134.6 13.7903H134.71L136.78 4.45029C136.82 4.30029 136.81 4.18029 136.74 4.10029C136.67 4.02029 136.58 3.95029 136.46 3.92029L134.9 3.32029L135.07 2.55029H140.63L140.45 3.32029L138.93 3.92029C138.8 3.96029 138.68 4.03029 138.58 4.11029C138.47 4.20029 138.4 4.31029 138.37 4.45029L135.98 15.2603L135.13 17.7603H133.58L128.53 7.07029L127.91 5.56029H127.8L125.55 15.7403C125.51 15.9203 125.53 16.0503 125.6 16.1303C125.67 16.2103 125.75 16.2703 125.85 16.3103L127.39 16.8903L127.22 17.6703H121.71L121.88 16.8903L121.85 16.8803Z" fill="#EB6519"/>
<path d="M139.08 17.6603L139.25 16.8803L140.79 16.3703C140.92 16.3303 141.04 16.2703 141.15 16.1803C141.25 16.0903 141.32 15.9603 141.36 15.8103L143.89 4.41031C143.93 4.25031 143.91 4.13031 143.84 4.04031C143.77 3.95031 143.68 3.89031 143.57 3.86031L142.01 3.34031L142.18 2.57031H154.35L153.48 6.51031H152.35L152.2 4.36031C152.2 4.23031 152.16 4.13031 152.1 4.07031C152.04 4.00031 151.95 3.97031 151.83 3.97031H146.82L144.09 16.2903H150.19C150.3 16.2903 150.41 16.2503 150.5 16.1803C150.59 16.1103 150.67 16.0103 150.72 15.8903L151.88 13.4703H152.99L152.06 17.6803H139.08V17.6603ZM145.19 10.4903L145.5 9.14031H148.71C148.85 9.14031 148.96 9.11031 149.04 9.04031C149.12 8.97031 149.19 8.88031 149.26 8.76031L150.19 7.05031H151.14L149.91 12.5803H148.97L148.77 10.8903C148.76 10.7603 148.73 10.6603 148.68 10.6003C148.64 10.5303 148.54 10.5003 148.39 10.5003H145.18L145.19 10.4903Z" fill="#EB6519"/>
<path d="M153.8 17.6603L153.97 16.8803L155.51 16.3703C155.64 16.3303 155.76 16.2703 155.87 16.1803C155.97 16.0903 156.04 15.9603 156.08 15.8103L158.61 4.41031C158.65 4.25031 158.63 4.13031 158.56 4.04031C158.49 3.95031 158.4 3.89031 158.29 3.86031L156.73 3.34031L156.9 2.57031H169.07L168.2 6.51031H167.07L166.92 4.36031C166.92 4.23031 166.88 4.13031 166.82 4.07031C166.76 4.00031 166.67 3.97031 166.55 3.97031H161.54L158.81 16.2903H164.91C165.02 16.2903 165.13 16.2503 165.22 16.1803C165.31 16.1103 165.39 16.0103 165.44 15.8903L166.6 13.4703H167.71L166.78 17.6803H153.8V17.6603ZM159.91 10.4903L160.22 9.14031H163.43C163.57 9.14031 163.68 9.11031 163.76 9.04031C163.84 8.97031 163.91 8.88031 163.98 8.76031L164.91 7.05031H165.86L164.63 12.5803H163.69L163.49 10.8903C163.48 10.7603 163.45 10.6603 163.4 10.6003C163.36 10.5303 163.26 10.5003 163.11 10.5003H159.9L159.91 10.4903Z" fill="#EB6519"/>
<path d="M168.69 16.8801L170.23 16.3701C170.36 16.3301 170.48 16.2701 170.58 16.1801C170.69 16.0901 170.76 15.9601 170.79 15.8101L173.32 4.41008C173.36 4.25008 173.34 4.13008 173.28 4.05008C173.22 3.96008 173.13 3.90008 173 3.87008L171.46 3.35008L171.61 2.58008H178.31C179.65 2.58008 180.67 2.75008 181.39 3.08008C182.11 3.41008 182.6 3.83008 182.87 4.34008C183.14 4.85008 183.28 5.38008 183.28 5.93008C183.28 6.61008 183.15 7.20008 182.89 7.73008C182.63 8.25008 182.29 8.71008 181.86 9.10008C181.43 9.49008 180.96 9.80008 180.45 10.0401C179.94 10.2801 179.43 10.4601 178.93 10.5801L181.71 15.6901C181.79 15.8501 181.89 16.0001 182.02 16.1401C182.15 16.2801 182.29 16.3801 182.44 16.4301L184.05 16.9001L183.88 17.6801H180.86C180.43 17.6801 180.1 17.6401 179.88 17.5601C179.66 17.4801 179.49 17.3401 179.37 17.1501C179.25 16.9601 179.1 16.7001 178.93 16.3801C178.7 15.9401 178.47 15.4901 178.23 15.0501C177.99 14.6001 177.76 14.1601 177.53 13.7201C177.3 13.2801 177.07 12.8501 176.86 12.4301C176.64 12.0101 176.44 11.6101 176.24 11.2201L174.54 10.7901L174.79 9.67008C174.9 9.71008 175.07 9.73008 175.31 9.76008C175.55 9.79008 175.8 9.80008 176.06 9.82008C176.32 9.84008 176.53 9.85008 176.68 9.85008C177.45 9.85008 178.1 9.68008 178.63 9.35008C179.15 9.02008 179.54 8.58008 179.8 8.03008C180.06 7.49008 180.19 6.90008 180.19 6.26008C180.19 5.47008 179.96 4.89008 179.49 4.52008C179.02 4.15008 178.33 3.96008 177.41 3.96008H176.26L173.61 15.8301C173.58 15.9901 173.6 16.1201 173.66 16.2101C173.72 16.3001 173.81 16.3601 173.94 16.4001L175.53 16.9101L175.36 17.6901H168.52L168.69 16.9101V16.8801Z" fill="#EB6519"/>
<path d="M184.44 16.8803L186.03 16.3703C186.17 16.3303 186.29 16.2703 186.4 16.1803C186.5 16.0903 186.57 15.9603 186.6 15.8103L189.13 4.41031C189.17 4.25031 189.15 4.13031 189.09 4.04031C189.03 3.95031 188.94 3.89031 188.82 3.86031L187.21 3.34031L187.39 2.57031H194.27L194.1 3.34031L192.64 3.81031C192.5 3.86031 192.36 3.93031 192.22 4.02031C192.08 4.11031 192 4.24031 191.95 4.40031L189.41 15.8003C189.38 15.9603 189.4 16.0903 189.46 16.1803C189.52 16.2703 189.62 16.3303 189.74 16.3603L191.33 16.8703L191.16 17.6503H184.26L184.44 16.8703V16.8803Z" fill="#EB6519"/>
<path d="M193.12 16.8803L194.67 16.3003C194.81 16.2503 194.92 16.1803 195.03 16.0903C195.14 16.0003 195.2 15.8803 195.23 15.7303L197.75 4.41029C197.79 4.26029 197.77 4.14029 197.7 4.05029C197.63 3.96029 197.54 3.90029 197.42 3.86029L195.81 3.32029L195.98 2.55029H200.66L205.29 12.3803L205.87 13.7903H205.98L208.05 4.45029C208.09 4.30029 208.08 4.18029 208.01 4.10029C207.94 4.02029 207.85 3.95029 207.73 3.92029L206.17 3.32029L206.34 2.55029H211.9L211.72 3.32029L210.2 3.92029C210.07 3.96029 209.95 4.03029 209.85 4.11029C209.74 4.20029 209.67 4.31029 209.64 4.45029L207.25 15.2603L206.4 17.7603H204.85L199.8 7.07029L199.18 5.56029H199.07L196.82 15.7403C196.78 15.9203 196.8 16.0503 196.87 16.1303C196.94 16.2103 197.02 16.2703 197.12 16.3103L198.66 16.8903L198.49 17.6703H192.98L193.15 16.8903L193.12 16.8803Z" fill="#EB6519"/>
<path d="M217.91 17.9902C216.73 17.9902 215.68 17.7502 214.75 17.2802C213.82 16.8002 213.09 16.1002 212.55 15.1702C212.01 14.2402 211.74 13.1102 211.74 11.7602C211.74 10.4102 211.96 9.22023 212.4 8.07023C212.84 6.92023 213.46 5.90023 214.27 5.03023C215.07 4.16023 216.03 3.47023 217.13 2.98023C218.23 2.49023 219.44 2.24023 220.77 2.24023C221.96 2.24023 222.99 2.34023 223.86 2.53023C224.73 2.72023 225.45 2.90023 226.01 3.05023L226.3 3.14023L225.47 6.99023H224.36L224.23 4.92023C224.23 4.81023 224.18 4.72023 224.08 4.63023C223.98 4.54023 223.86 4.46023 223.72 4.40023C223.28 4.22023 222.74 4.04023 222.11 3.89023C221.48 3.74023 220.84 3.66023 220.2 3.66023C219.46 3.66023 218.76 3.85023 218.11 4.23023C217.46 4.61023 216.88 5.15023 216.39 5.86023C215.9 6.56023 215.51 7.40023 215.23 8.36023C214.95 9.32023 214.81 10.3802 214.81 11.5402C214.81 12.5302 214.96 13.4102 215.25 14.1802C215.54 14.9502 215.97 15.5602 216.54 16.0002C217.11 16.4402 217.8 16.6602 218.64 16.6602C219.24 16.6602 219.74 16.5902 220.16 16.4402C220.57 16.2902 220.89 16.1602 221.12 16.0502L221.89 12.5502C221.93 12.3902 221.91 12.2702 221.84 12.1902C221.77 12.1002 221.68 12.0402 221.57 12.0102L219.76 11.4902L219.94 10.7302H226.85L226.69 11.4902L225.24 12.0102C225.12 12.0502 225.01 12.1202 224.9 12.2002C224.79 12.2902 224.72 12.4002 224.69 12.5502L224.32 14.2002C224.18 14.8302 224.06 15.3802 223.97 15.8302C223.88 16.2802 223.82 16.6502 223.77 16.9302C222.93 17.2102 222.01 17.4702 221.02 17.6802C220.03 17.8902 219 18.0102 217.94 18.0102L217.91 17.9902Z" fill="#EB6519"/>
<path d="M255.72 4.19984V15.8598C255.72 16.4898 255.55 16.7398 255.13 16.8798C254.69 17.0298 253.89 17.0498 252.55 17.0498C252.52 16.8298 252.38 16.4698 252.24 16.2298C253.34 16.2598 254.28 16.2498 254.55 16.2298C254.84 16.2298 254.92 16.1498 254.92 15.8598V4.19984H252V3.41984H257.98V4.19984H255.72ZM261.47 15.3998C260.4 16.2698 258.67 17.1198 257.17 17.6098C257.05 17.4398 256.8 17.1698 256.63 17.0198C258.11 16.5398 259.86 15.7298 260.69 14.9798L261.47 15.3998ZM261.71 5.73984C261.88 5.17984 262.07 4.44984 262.2 3.83984H258.26V3.08984H267.44V3.83984H263.14C262.95 4.48984 262.73 5.17984 262.54 5.73984H266.79V14.4598H258.83V5.73984H261.7H261.71ZM265.98 6.43984H259.62V8.38984H265.98V6.43984ZM265.98 9.08984H259.62V11.0798H265.98V9.08984ZM265.98 11.7398H259.62V13.7598H265.98V11.7398ZM264.28 14.9998C265.44 15.5998 266.93 16.5098 267.71 17.1398L267.03 17.6698C266.32 17.0198 264.84 16.0898 263.63 15.4598L264.28 14.9998Z" fill="#EB6519"/>
<path d="M271.71 13.0899C271.47 14.5299 271.13 16.1299 270.77 17.1899C270.62 17.1199 270.26 16.9899 270.07 16.9199C270.48 15.8499 270.77 14.3399 270.97 12.9599L271.7 13.0999L271.71 13.0899ZM275.69 12.2899C275.62 11.9699 275.52 11.6099 275.4 11.1899C271.25 11.8199 270.78 11.9399 270.47 12.0899C270.42 11.8999 270.28 11.5099 270.22 11.2699C270.53 11.2199 270.92 10.7799 271.41 10.1299C271.72 9.80994 272.35 8.95994 273.04 7.88994C270.95 8.15994 270.59 8.24994 270.37 8.34994C270.32 8.15994 270.2 7.73994 270.1 7.52994C270.35 7.45994 270.66 7.08994 271.03 6.57994C271.39 6.04994 272.64 4.07994 273.39 2.18994L274.17 2.54994C273.35 4.26994 272.37 5.99994 271.35 7.35994L273.51 7.15994C273.99 6.40994 274.45 5.60994 274.84 4.80994L275.59 5.21994C274.4 7.32994 273.02 9.39994 271.61 11.0199L275.18 10.5299C274.96 9.91994 274.7 9.26994 274.47 8.72994L275.13 8.52994C275.66 9.66994 276.22 11.1499 276.4 12.0299L275.69 12.2999V12.2899ZM273.43 12.8999C273.62 13.9899 273.82 15.3799 273.87 16.3199L273.17 16.4599C273.14 15.5299 272.95 14.1099 272.74 13.0399L273.42 12.8999H273.43ZM275.49 15.5499C275.34 14.7899 274.96 13.6099 274.64 12.7099L275.27 12.5199C275.61 13.4199 276.02 14.5799 276.15 15.3099L275.49 15.5499ZM284.67 8.13994C284.19 10.5499 283.31 12.5399 282.17 14.1399C283.04 15.3299 284.11 16.2799 285.37 16.8399C285.18 17.0099 284.93 17.3199 284.79 17.5199C283.57 16.9099 282.53 15.9699 281.66 14.7999C280.66 16.0199 279.48 16.9799 278.29 17.6199C278.17 17.4299 277.93 17.1299 277.75 16.9699C278.97 16.3599 280.18 15.3899 281.18 14.0999C280.26 12.5699 279.57 10.7499 279.11 8.72994H278.82C278.53 12.3999 277.83 15.2199 276.12 17.4699C275.98 17.3499 275.58 17.0999 275.39 16.9899C277.8 14.0999 278.18 9.67994 278.25 3.86994H276.41V3.08994H282.6L282.74 3.03994L283.3 3.13994C283.11 4.46994 282.79 6.43994 282.5 7.96994H284.01L284.16 7.93994L284.67 8.13994ZM279.04 3.86994C279.01 5.32994 278.96 6.70994 278.87 7.96994H281.69C281.94 6.69994 282.22 5.02994 282.39 3.86994H279.04ZM279.82 8.72994C280.25 10.4499 280.86 12.0599 281.69 13.3999C282.59 12.1099 283.3 10.5299 283.71 8.72994H279.82Z" fill="#EB6519"/>
<path d="M287.78 3.00975H295.74V3.73975H293.19V6.23975H295.3V17.3597H294.59V16.3097H288.86V17.5797H288.15V6.23975H290.31V3.73975H287.79V3.00975H287.78ZM294.58 15.5897V10.7497H293.39C292.69 10.7497 292.49 10.6297 292.49 9.87975V6.98975H291.03V8.27975C291.03 9.36975 290.71 10.7297 289.33 11.6997C289.23 11.5597 289.01 11.3597 288.85 11.2697C290.14 10.3897 290.4 9.20975 290.4 8.27975V6.98975H288.85V15.5797H294.58V15.5897ZM289.67 12.8197H293.75V13.5197H289.67V12.8197ZM292.47 3.73975H291.01V6.23975H292.47V3.73975ZM294.58 6.98975H293.12V9.87975C293.12 10.0797 293.15 10.1197 293.41 10.1197H294.31C294.48 10.1197 294.55 10.1197 294.58 10.0997V6.98975ZM301.43 16.7097C302.28 16.7097 302.42 16.2497 302.48 13.7197C302.7 13.8597 303.02 14.0097 303.26 14.0597C303.14 16.7597 302.87 17.4797 301.47 17.4797H298.36C297 17.4797 296.59 17.2097 296.59 15.9797V8.63975H301.86V3.76975H296.52V2.98975H302.64V9.42975H297.39V15.9897C297.39 16.5697 297.56 16.6997 298.39 16.6997H301.42L301.43 16.7097Z" fill="#EB6519"/>
<path d="M309.74 2.42973C309.35 3.64973 308.89 4.87973 308.38 6.02973V17.6097H307.58V7.64973C307.09 8.56973 306.54 9.41973 305.98 10.1297C305.9 9.93973 305.64 9.56973 305.49 9.35973C306.92 7.58973 308.18 4.91973 308.96 2.21973L309.74 2.41973V2.42973ZM313.41 7.71973C313.05 8.27973 312.61 8.83973 312.1 9.32973H319.78V16.6397C319.78 17.0797 319.7 17.2897 319.39 17.4197C319.08 17.5397 318.61 17.5597 317.88 17.5597C317.85 17.3597 317.73 17.0497 317.61 16.8497C318.15 16.8697 318.65 16.8697 318.8 16.8497C318.95 16.8497 319 16.7997 319 16.6497V15.0197H315.86V17.2097H315.09V15.0197H311.69C311.5 15.9597 311.2 16.8897 310.62 17.6697C310.5 17.4997 310.2 17.2297 309.99 17.1397C310.98 15.7797 311.11 13.9597 311.11 12.5497V10.2197C310.53 10.6597 309.92 11.0897 309.33 11.4097C309.23 11.2697 308.96 10.9297 308.8 10.7797C310.21 10.0697 311.62 8.95973 312.52 7.71973H309.75V6.93973H312.86V4.96973H310.21V4.18973H312.86V2.31973H313.64V4.18973H316.97V2.31973H317.75V4.18973H320.2V4.96973H317.75V6.93973H320.62V7.71973H313.4H313.41ZM315.09 14.3297V12.5097H311.89V12.5797C311.89 13.1097 311.87 13.7197 311.79 14.3297H315.09ZM311.89 11.8297H315.09V10.0497H311.89V11.8297ZM313.64 6.92973H316.97V4.95973H313.64V6.92973ZM318.99 10.0397H315.85V11.8197H318.99V10.0397ZM318.99 14.3197V12.4997H315.85V14.3197H318.99Z" fill="#EB6519"/>
</svg>
