<?xml version="1.0" encoding="UTF-8"?>
<svg id="_圖層_2" data-name="圖層 2" xmlns="http://www.w3.org/2000/svg" viewBox="0 0 942.67 266.76">
  <defs>
    <style>
      .cls-1 {
        fill: #f2e8d1;
      }

      .cls-2 {
        fill: #eb6519;
      }

      .cls-3 {
        fill: #ea5514;
      }

      .cls-4 {
        fill: #604c3f;
      }

      .cls-5 {
        fill: none;
        stroke: #604c3f;
        stroke-miterlimit: 10;
      }
    </style>
  </defs>
  <g id="_按鈕" data-name="按鈕">
    <g>
      <rect class="cls-1" x="0" width="942.67" height="266.76"/>
      <g>
        <path class="cls-4" d="M104.48,70.25c-2.44-1.37-4.84-3.56-7.22-6.56-.56-.69-1-1.22-1.31-1.59-3.63,4.69-7.41,7.72-11.34,9.09-.13,0-.19-.03-.19-.09s.03-.12,.09-.19c3.5-2.12,6.59-5.66,9.28-10.59-.5-.06-.94-.19-1.31-.38-.13-.25-.13-.38,0-.38,1.81,0,3.87,1.03,6.19,3.09,3,2.62,5.97,4.16,8.91,4.59,.12,.13,.12,.25,0,.38-1.25,.44-2.13,1.25-2.62,2.44-.13,.19-.28,.25-.47,.19Zm-18.09,9.84h7.41v-4.59h-3.66c-.5,0-1.03,.03-1.59,.09l-.47-.66c.31,0,.59,.03,.84,.09h4.88v-4.97h-4.22l-.47-.66c.25,0,.5,.03,.75,.09h7.69c.12-.12,.38-.41,.75-.84,.38-.44,.59-.72,.66-.84,.06-.06,.16-.06,.28,0h.09c1.12,.63,1.91,1.22,2.34,1.78,.19,.25,.16,.41-.09,.47h-4.5c.12,.31-.06,.63-.56,.94v4.03h2.16l.09-.09c.69-1,1.19-1.62,1.5-1.88h.28c1.62,.94,2.53,1.63,2.72,2.06,.06,.19,0,.31-.19,.38h-6.56v4.59h4.5c.56-.88,1.16-1.56,1.78-2.06h.28c1.37,.87,2.31,1.56,2.81,2.06,.19,.25,.16,.41-.09,.47h-18.19c-.5,.06-1,.09-1.5,.09l-.56-.66c.31,.06,.59,.09,.84,.09Z"/>
        <path class="cls-4" d="M114.19,64.82h-2.25l-.47-.66c.31,0,.59,.03,.84,.09h1.88v-3.94l-.09-1.5c0-.06,.06-.09,.19-.09,1.25,.19,2.16,.44,2.72,.75,.12,.06,.12,.19,0,.38-.06,.13-.19,.25-.38,.38,.19-.12,.12-.09-.19,.09v3.94h.47c.06-.06,.16-.19,.28-.38,.44-.5,.72-.78,.84-.84,.12-.12,.22-.12,.28,0,.38,.25,.91,.72,1.59,1.41,.12,.13,.06,.25-.19,.38h-3.28v15.56c-.63,.62-1.41,.81-2.34,.56-.06-.06-.06-.31,0-.75,.06-.94,.09-1.88,.09-2.81v-6.28c-1,1.5-2,2.72-3,3.66-.44,.38-.5,.31-.19-.19,1.69-3.62,2.75-6.87,3.19-9.75Zm2.53,2.91c-.31-.19-.28-.25,.09-.19,1.44,.13,2.31,.75,2.62,1.88,.19,.88-.03,1.47-.66,1.78-.94,.19-1.47-.12-1.59-.94v-.47c.06-1.31-.09-2-.47-2.06Zm14.72,11.91c-2.5-1.81-3.91-4.5-4.22-8.06h-.28v9.19c-.56,.5-1.34,.66-2.34,.47-.06-.06-.06-.31,0-.75,.06-.88,.09-1.78,.09-2.72v-2.72c-2.13,1.81-4.47,3.13-7.03,3.94-.63,.25-.69,.19-.19-.19,2.75-1.81,5.03-4.22,6.84-7.22h-2.16v1.22c-1,.69-1.66,.69-1.97,0v-8.72c.75,.13,1.41,.38,1.97,.75h2.53v-2.25h-5.25l-.47-.66c.31,0,.59,.03,.84,.09h4.88v-2.25l-.09-1.41c0-.06,.06-.09,.19-.09,1,.06,1.91,.31,2.72,.75,.12,0,.12,.13,0,.38-.06,.06-.16,.13-.28,.19-.13,.06-.22,.13-.28,.19v2.25h2.72c.44-.5,.94-1.06,1.5-1.69h.28c.81,.5,1.5,1.12,2.06,1.88,.19,.19,.16,.31-.09,.38h-6.47v2.25h1.78c.5-.69,.84-1.03,1.03-1.03,1.5,.5,2.44,1.03,2.81,1.59,0,.13-.19,.28-.56,.47l-.28,.19v6.28c-1.19,.75-1.94,.75-2.25,0v-.75h-1.69c.87,2.69,2.78,4.63,5.72,5.81,.25,.06,.41,.16,.47,.28-.06,.06-.22,.13-.47,.19-.63,.06-1.22,.5-1.78,1.31-.13,.25-.22,.41-.28,.47Zm-9.28-11.62h2.53v-2.72h-2.53v2.72Zm0,3h2.53v-2.44h-2.53v2.44Zm4.78-3h2.53v-2.72h-2.53v2.72Zm0,3h2.53v-2.44h-2.53v2.44Z"/>
        <path class="cls-4" d="M147.44,77.85v.56h-9v-.56c2.19,.13,3.16-.69,2.91-2.44v-9.19c.06-1.12-.25-1.69-.94-1.69-.31,0-.97,.19-1.97,.56v-.56l6-2.62h.47v13.69c-.25,1.63,.59,2.38,2.53,2.25Z"/>
        <path class="cls-4" d="M161.09,72.32h1.59v2.62h-1.59v3.47h-3.47v-3.47h-5.91v-2.72c1.56-2.44,4.06-5.87,7.5-10.31h1.88v10.41Zm-3.38,0v-7.12h-.09l-4.97,7.12h5.06Z"/>
        <path class="cls-4" d="M174.17,69.5h1.69c.44-.5,.94-1.06,1.5-1.69h.28c.81,.5,1.5,1.12,2.06,1.88,.19,.19,.16,.31-.09,.38h-12.94l-.47-.66c.25,0,.5,.03,.75,.09h6.19c.62-1.94,1.03-3.94,1.22-6h-5.91c-.5,0-1,.03-1.5,.09l-.56-.66c.31,0,.59,.03,.84,.09h7.78l.09-.09c.69-1,1.19-1.62,1.5-1.88h.28c1.62,.94,2.53,1.63,2.72,2.06,.06,.19,0,.31-.19,.38h-2.44l.19,.09c.12,0,.28,.09,.47,.28v.38l-.09,.09c-.19,.13-.41,.19-.66,.19-1,2.06-1.91,3.72-2.72,4.97Zm-6,10.59l.28-6.38v-2.44c.81,.19,1.56,.5,2.25,.94v.28h3.75c.31-.44,.59-.75,.84-.94,.19-.06,.31-.09,.38-.09,.44,.06,1.12,.5,2.06,1.31,.12,.13,.16,.25,.09,.38-.19,.25-.41,.44-.66,.56l.28,5.16c-.06,.5-.59,.81-1.59,.94-.81,.06-1.22-.19-1.22-.75v-.84h-3.94v1.41c-.06,.44-.47,.75-1.22,.94-.81,.06-1.25-.09-1.31-.47Zm.66-15.75c1.94,.63,2.97,1.56,3.09,2.81,.06,.75-.34,1.25-1.22,1.5-.81,.06-1.25-.31-1.31-1.12,0-1.25-.25-2.22-.75-2.91-.06-.12,0-.22,.19-.28Zm1.41-5.91c2.19,.19,3.41,1,3.66,2.44,0,.88-.5,1.41-1.5,1.59-.94,.06-1.41-.38-1.41-1.31,.12-1.12-.16-1.94-.84-2.44-.06-.12-.03-.22,.09-.28Zm.47,14.53v4.78h3.94v-4.78h-3.94Zm14.44-10.69h-2.72v3.75l.19,14.53c-.06,.44-.59,.69-1.59,.75-.75,0-1.12-.25-1.12-.75l.28-14.53v-5.53c.94,.19,1.69,.53,2.25,1.03v.19h2.62c.12-.56,.31-1,.56-1.31,0-.06,.16-.09,.47-.09,.87,.44,1.72,.97,2.53,1.59,.06,.06,.06,.19,0,.38-.25,.13-.5,.22-.75,.28-1.19,1.69-2.16,3.34-2.91,4.97,3.12,1.75,4.41,4.16,3.84,7.22-.25,1.69-1.19,2.69-2.81,3-.19-.06-.31-.16-.38-.28-.19-.69-.97-1.31-2.34-1.88-.06-.19-.06-.34,0-.47,2.06,.31,3.19-.56,3.38-2.62-.06-1.75-.88-3.41-2.44-4.97,.06-.56,.28-1.78,.66-3.66,.12-.81,.22-1.34,.28-1.59Z"/>
        <path class="cls-4" d="M198.32,73.35c0,1.94,.03,4.28,.09,7.03-.06,.31-.53,.56-1.41,.75-.81,.06-1.25-.06-1.31-.38,.06-3,.09-5.41,.09-7.22v-6.19c-.94,1.12-1.94,2.09-3,2.91-.13-.06-.16-.12-.09-.19,2.19-3,3.87-6.91,5.06-11.72,.12-.06,.22-.09,.28-.09,1.12,.5,2.25,1.09,3.38,1.78,.12,.06,.12,.16,0,.28-.06,.06-.19,.09-.38,.09-.31,.06-.53,.19-.66,.38-.69,1.44-1.59,2.88-2.72,4.31,.75,.31,1.12,.53,1.12,.66s-.09,.25-.28,.38l-.19,.19v7.03Zm13.59-5.06l-3.38,11.34h2.62c.69-.88,1.22-1.47,1.59-1.78,.06-.12,.16-.12,.28,0,1.62,.81,2.53,1.44,2.72,1.88,.06,.25,0,.38-.19,.38h-14.16c-.06,0-.59,.03-1.59,.09l-.47-.66c.25,.06,.5,.09,.75,.09h7.22c.06-.5,.19-1.16,.38-1.97,.75-4.56,1.19-8.25,1.31-11.06v-.09c.06-.19,.19-.28,.38-.28,1,.19,2.16,.47,3.47,.84,.12,.06,.12,.22,0,.47-.5,.19-.81,.44-.94,.75Zm-11.25-3.47h9.84c.56-.87,1.16-1.62,1.78-2.25h.28c1.37,.94,2.31,1.66,2.81,2.16,.19,.25,.16,.44-.09,.56h-13.41c-.69,0-1.22,.03-1.59,.09l-.47-.66h.47c.19,.06,.31,.09,.38,.09Zm1.12,2.53c2.56,2,3.91,4.44,4.03,7.31-.06,1.12-.5,1.91-1.31,2.34-.88,.25-1.44-.16-1.69-1.22-.06-.31-.06-.91,0-1.78,.25-2.62-.16-4.78-1.22-6.47,0-.19,.06-.25,.19-.19Zm1.88-8.34c2.69,.38,4.25,1.28,4.69,2.72,.19,.88-.13,1.59-.94,2.16-.88,.44-1.53,.28-1.97-.47-.13-.25-.22-.69-.28-1.31-.19-1.31-.72-2.25-1.59-2.81-.13-.12-.09-.22,.09-.28Z"/>
        <path class="cls-4" d="M235.22,62.19v.56c-1.38,.06-2,.75-1.88,2.06v7.69c-.06,2.19-.5,3.72-1.31,4.59-1.06,1-2.62,1.53-4.69,1.59-2.13,0-3.75-.44-4.88-1.31-1.19-.87-1.75-2.34-1.69-4.41v-7.97c.12-1.56-.53-2.31-1.97-2.25v-.56h8.16v.56c-1.75-.19-2.53,.56-2.34,2.25v7.97c-.06,3.13,1.09,4.69,3.47,4.69,2.94,0,4.34-1.72,4.22-5.16v-7.31c.12-1.62-.66-2.44-2.34-2.44v-.56h5.25Z"/>
        <path class="cls-4" d="M238.47,78.41v-.56c.69-.12,1.12-.25,1.31-.38h.09c.44-.25,.66-.87,.66-1.88v-10.59c.12-1.56-.56-2.31-2.06-2.25v-.56h7.78c4.12,.06,6.22,1.53,6.28,4.41-.06,1.56-.81,2.78-2.25,3.66-.63,.38-1.34,.63-2.16,.75-.56,.06-1.81,.09-3.75,.09v4.5c-.19,1.5,.53,2.25,2.16,2.25v.56h-8.06Zm5.91-14.53v6.38c2.87,.31,4.22-.87,4.03-3.56,.06-2.5-.91-3.72-2.91-3.66-.75,0-1.12,.28-1.12,.84Z"/>
        <path class="cls-4" d="M258.4,70.82v-6.56h-.94c-.5,0-1.03,.03-1.59,.09l-.47-.66c.31,0,.59,.03,.84,.09h5.91c0-.06,.06-.12,.19-.19,.56-.81,.97-1.31,1.22-1.5,.06-.06,.12-.06,.19,0h.09c.87,.44,1.59,1.03,2.16,1.78,.06,.19,.03,.31-.09,.38h-4.5c0,.06-.06,.22-.19,.47-.19,.25-.28,.44-.28,.56v2.72h1.22c.5-.62,.81-.94,.94-.94,.94,.25,1.81,.69,2.62,1.31,0,.13-.16,.31-.47,.56-.25,.19-.38,.31-.38,.38v5.44c-.13,3.69-1.47,5.66-4.03,5.91-.19,0-.28-.09-.28-.28-.25-.88-.88-1.47-1.88-1.78-.13-.13-.09-.19,.09-.19,2.69,.81,3.97-1.06,3.84-5.62v-4.22h-1.69v.75c-.06,5.13-1.75,8.88-5.06,11.25-.06,.06-.13,0-.19-.19,1.75-2.06,2.66-5.25,2.72-9.56Zm.38-12.09c2.19,.38,3.31,1.28,3.38,2.72,0,.81-.38,1.38-1.12,1.69-.75,.25-1.28,.03-1.59-.66-.06-.25-.06-.62,0-1.12,.12-1-.13-1.78-.75-2.34-.06-.12-.03-.22,.09-.28Zm9.84,4.78h5.72c.12-.12,.38-.41,.75-.84,.38-.44,.62-.72,.75-.84,0-.06,.06-.06,.19,0h.09c1.12,.63,1.94,1.22,2.44,1.78,.12,.25,.06,.41-.19,.47h-10.12c-.94,1.25-1.97,2.31-3.09,3.19-.19-.06-.25-.12-.19-.19,1.37-2.25,2.34-5.03,2.91-8.34,.06-.12,.19-.19,.38-.19,.06,0,.19,.06,.38,.19,1.31,.56,2.22,.97,2.72,1.22,.12,.06,.12,.16,0,.28h-.09c-.44,.19-.72,.41-.84,.66-.5,.88-1.09,1.75-1.78,2.62Zm8.53,6.28v2.62c0,2.38-.78,3.75-2.34,4.12-.19,0-.28-.06-.28-.19-.38-.94-1-1.56-1.88-1.88v3.09c-1.19,.63-1.94,.63-2.25,0v-6.75l-1.5,.56v6.38c-.13,1,.87,1.47,3,1.41h.94c2.56,.44,4.34-.97,5.34-4.22,.12-.06,.22-.03,.28,.09-.63,1.69-.63,2.97,0,3.84,.12,.19,.19,.34,.19,.47-.19,1.12-1.12,1.72-2.81,1.78h-5.44c-2.56,.06-3.81-.69-3.75-2.25v-6.66l-.56,.28-.75-.56,.66-.19,.66-.19v-3.56l-.09-1.12c0-.06,.03-.09,.09-.09,1,.13,1.91,.31,2.72,.56,.12,.06,.12,.19,0,.38-.06,.06-.16,.13-.28,.19-.06,.06-.13,.09-.19,.09v2.72l1.5-.47v-4.22l-.09-1.22c0-.06,.03-.09,.09-.09,.19,0,.44,.03,.75,.09,1.06,.06,1.78,.16,2.16,.28,.12,.06,.12,.19,0,.38-.13,.19-.34,.38-.66,.56v3.38l1.69-.66,.47-1.12c.06-.12,.22-.12,.47,0,.5,.06,1.31,.34,2.44,.84,.19,.06,.22,.19,.09,.38-.06,.13-.16,.28-.28,.47-.19,.19-.31,.34-.38,.47Zm-2.25,1.5v-2.06l-2.25,.75v4.22c1.56,.56,2.31-.41,2.25-2.91Z"/>
        <path class="cls-4" d="M287.52,76.35c0,.69,.03,1.44,.09,2.25v1.69c-.06,.38-.5,.66-1.31,.84-.88,.19-1.34,.09-1.41-.28v-1.03c.06-1.12,.09-2.16,.09-3.09v-9.75c-.94,.94-1.94,1.78-3,2.53-.13,0-.16-.06-.09-.19,2.25-2.87,4.03-6.41,5.34-10.59,.06-.12,.19-.19,.38-.19,.12,.06,.38,.19,.75,.38,1.06,.5,1.84,.91,2.34,1.22,.19,.25,.19,.41,0,.47-.5,.06-.84,.25-1.03,.56-.88,1.31-1.88,2.66-3,4.03,.62,0,1.03,.06,1.22,.19,.19,.06,.22,.22,.09,.47,0,.06-.13,.19-.38,.38l-.09,.09v10.03Zm6.09-11.06h6.66c.56-.87,1.12-1.62,1.69-2.25h.38c1.12,.75,2.06,1.47,2.81,2.16,.19,.25,.16,.44-.09,.56h-8.16c.06,0,.09,.03,.09,.09,0,.13-.09,.25-.28,.38l-.19,.09v4.5h3.09l.09-.09c.69-1,1.19-1.62,1.5-1.88,.12-.12,.22-.12,.28,0,1.62,.94,2.53,1.63,2.72,2.06,.06,.19,0,.31-.19,.38h-7.5v5.25h4.5c.25-.44,.72-1,1.41-1.69,.12-.12,.25-.12,.38,0,1.06,.5,1.84,1.09,2.34,1.78,.19,.19,.16,.31-.09,.38h-8.53c0,.69,.03,1.53,.09,2.53v.75c-.06,.31-.5,.56-1.31,.75-.88,.12-1.34,.03-1.41-.28v-1.31c.06-.94,.09-1.66,.09-2.16v-10.97c0-.25-.03-.44-.09-.56h-.75c-1.31,1.5-2.75,2.75-4.31,3.75-.13-.06-.19-.12-.19-.19,2.37-2.81,4.25-6.34,5.62-10.59,.06-.19,.19-.25,.38-.19,.94,.38,2.09,.91,3.47,1.59,.06,.06,.03,.16-.09,.28l-.56,.28c-.31,.06-.53,.16-.66,.28-.88,1.44-1.94,2.88-3.19,4.31Z"/>
        <path class="cls-4" d="M311.67,71.94c-1.25,1.5-2.31,2.62-3.19,3.38-.13,.06-.22,0-.28-.19,1.62-3,2.78-6.44,3.47-10.31h-2.62l-.56-.66c.25,0,.5,.03,.75,.09h2.44v-5.72c.94,.06,1.78,.28,2.53,.66,.12,.13,.12,.25,0,.38,.06,0,.06,.03,0,.09-.06,.13-.22,.22-.47,.28l-.09,.09v4.22h1.03c.06-.06,.25-.28,.56-.66,.25-.31,.41-.5,.47-.56,.12-.12,.22-.12,.28,0,.56,.38,1.09,.84,1.59,1.41,.12,.19,.06,.31-.19,.38h-3.75v16.03c-1.06,.75-1.72,.69-1.97-.19v-8.72Zm2.16-3.66c1.56,.19,2.47,.84,2.72,1.97,.12,.75-.06,1.31-.56,1.69-.63,.25-1.09,.09-1.41-.47-.13-.12-.19-.41-.19-.84,0-.87-.19-1.59-.56-2.16-.06-.12-.06-.19,0-.19Zm3.09,5.72v-4.97l-.09-1.31c0-.12,.03-.19,.09-.19,1,.25,1.66,.5,1.97,.75,.06,.06,.09,.16,.09,.28h1.22c.12-.25,.31-.47,.56-.66,.19-.19,.34-.22,.47-.09,.12,.06,.31,.16,.56,.28,.44,.25,.78,.47,1.03,.66l.09,.09v.19c-.13,.19-.28,.34-.47,.47v4.5c-1.12,.75-1.81,.69-2.06-.19v-.56h-1.69v.84c.44,.13,1.12,.34,2.06,.66,.19,.13,.31,.19,.38,.19v.38c-.31,.06-.59,.19-.84,.38-.19,.38-.44,.72-.75,1.03,1.5,.13,2.44,.59,2.81,1.41,.06,1.69-.63,2.22-2.06,1.59-.06-.19-.13-.53-.19-1.03-.13-.87-.38-1.44-.75-1.69-1.63,1.94-3.13,3.25-4.5,3.94-.19,.06-.25,0-.19-.19,1.5-1.75,2.66-3.78,3.47-6.09-.75,.25-1.16,.03-1.22-.66Zm6.94-13.69c1.56,2.44,4.09,3.81,7.59,4.12,.12,.06,.12,.16,0,.28-.75,.31-1.31,1.06-1.69,2.25-.06,.19-.16,.25-.28,.19-2.81-1.19-4.81-3.38-6-6.56-.13,0-.19,.06-.19,.19-2.19,2.81-4.75,5.13-7.69,6.94-.25,0-.31-.06-.19-.19,2.69-3.06,4.53-6.03,5.53-8.91,0-.06,.09-.09,.28-.09,.5,.13,1.28,.38,2.34,.75,.38,.13,.66,.22,.84,.28,.12,.13,.09,.28-.09,.47s-.34,.28-.47,.28Zm-5.16,12.47h1.69v-3.75h-1.69v3.75Zm1.03-7.03h3.19c.38-.5,.78-.97,1.22-1.41,.12-.12,.22-.12,.28,0,.94,.69,1.5,1.25,1.69,1.69,.06,.06,0,.16-.19,.28h-6.28l-.66-.66c.25,0,.5,.03,.75,.09Zm3.94,8.06v-4.78l-.09-1.31c0-.12,.03-.19,.09-.19,1,.25,1.66,.5,1.97,.75,.06,.06,.09,.16,.09,.28h1.22c.06-.19,.22-.38,.47-.56l.09-.09c.19-.19,.38-.19,.56,0,.44,.13,.94,.41,1.5,.84,.06,.13,.06,.22,0,.28,0,.13-.09,.25-.28,.38l-.09,.09v4.5c-1.12,.75-1.81,.69-2.06-.19v-.56h-1.69v.75c0,.06-.06,.16-.19,.28,.75,.13,1.59,.38,2.53,.75v.28c-.06,.06-.22,.13-.47,.19-.19,.06-.31,.13-.38,.19-.19,.38-.44,.72-.75,1.03,2.31,.19,3.75,.84,4.31,1.97,.31,.75,.22,1.41-.28,1.97-.56,.5-1.12,.5-1.69,0-.25-.25-.47-.72-.66-1.41-.38-1.12-.97-1.91-1.78-2.34-1.38,1.62-2.81,3-4.31,4.12-.19,.06-.25,0-.19-.19,1.25-1.69,2.34-3.84,3.28-6.47-.75,.19-1.16,0-1.22-.56Zm3.47-1.03v-3.75h-1.69v3.75h1.69Z"/>
        <path class="cls-4" d="M335.91,63.32h5.91c.25-.44,.66-.94,1.22-1.5h.28c.81,.63,1.37,1.19,1.69,1.69,0,.19-.06,.28-.19,.28h-7.69c-.5,0-1,.03-1.5,.09l-.56-.66c.31,0,.59,.03,.84,.09Zm1.03,3.19h3.66c.38-.5,.78-.97,1.22-1.41,.12-.12,.22-.12,.28,0,.94,.69,1.5,1.25,1.69,1.69,0,.06-.06,.16-.19,.28h-7.03l-.47-.66c.31,0,.59,.03,.84,.09Zm4.12,12.09h-2.72v2.06c-1.06,.69-1.75,.69-2.06,0v-6.84l-.09-1.41c0-.12,.03-.19,.09-.19,.94,.19,1.84,.53,2.72,1.03h1.78c.06-.06,.16-.19,.28-.38l.28-.28h.19c.56,.13,1.22,.47,1.97,1.03,.12,.06,.12,.16,0,.28l-.28,.28-.19,.09v5.81c-1,.69-1.66,.69-1.97,0v-1.5Zm-3.94-8.81h3.47c.56-.75,.97-1.25,1.22-1.5h.28c.81,.63,1.37,1.19,1.69,1.69,0,.19-.06,.28-.19,.28h-5.16c-.06,0-.59,.03-1.59,.09l-.47-.66c.25,0,.5,.03,.75,.09Zm.75-11.25c1.81,.31,2.87,1.09,3.19,2.34,.19,.81-.13,1.41-.94,1.78-.81,.19-1.41-.09-1.78-.84-.06-.19-.03-.44,.09-.75,.19-.69-.06-1.44-.75-2.25-.06-.19,0-.28,.19-.28Zm.47,19.78h2.72v-4.5h-2.34c-.06,.13-.19,.19-.38,.19v4.31Zm13.22-.56v-11.72h-4.88c-.06,0-.59,.03-1.59,.09l-.47-.66c.25,0,.5,.03,.75,.09h6.19v-6.75c1.69,.06,2.75,.25,3.19,.56,.19,.13,.19,.28,0,.47s-.41,.34-.66,.47v5.25h.75c.25-.44,.66-.94,1.22-1.5h.28c.81,.63,1.37,1.19,1.69,1.69,0,.19-.06,.28-.19,.28h-3.75v12.66c-.06,1.75-1.28,2.72-3.66,2.91-.19,0-.31-.09-.38-.28-.19-1.25-1.06-2.16-2.62-2.72-.13-.13-.09-.25,.09-.38,2.75,.44,4.09,.28,4.03-.47Zm-5.62-8.44c1.88,.38,2.97,1.12,3.28,2.25,.12,.88-.19,1.47-.94,1.78-.81,.19-1.41-.09-1.78-.84-.06-.19-.06-.44,0-.75,.12-.69-.13-1.41-.75-2.16-.06-.12,0-.22,.19-.28Z"/>
        <path class="cls-4" d="M373.75,63.32v1.5h6.19c.75-.94,1.25-1.53,1.5-1.78h.28c1.12,.63,1.94,1.25,2.44,1.88,.12,.19,.06,.31-.19,.38h-10.22v2.25h3.19c.06-.06,.09-.12,.09-.19,.31-.38,.59-.62,.84-.75h.28c.62,.06,1.5,.5,2.62,1.31,.06,.13,.09,.25,.09,.38-.06,.13-.28,.28-.66,.47l.19,5.25c-.13,.44-.66,.69-1.59,.75-.75,0-1.12-.25-1.12-.75h-3.94v2.81h3.47c.12-.19,.44-.59,.94-1.22,.25-.31,.41-.5,.47-.56h.38c1.19,.69,1.97,1.31,2.34,1.88,.19,.19,.16,.31-.09,.38h-7.5v2.62h6c.25-.44,.72-.97,1.41-1.59,0-.06,.06-.06,.19,0h.09c.94,.31,1.75,.87,2.44,1.69,.12,.19,.06,.31-.19,.38h-20.16c-.5,.06-1,.09-1.5,.09l-.56-.66c.31,.06,.59,.09,.84,.09h8.91v-2.62h-5.44c-.5,0-1,.03-1.5,.09l-.56-.66c.06,0,.34,.03,.84,.09h6.66v-2.81h-4.03v.56c-1.19,1.25-2.06,1.31-2.62,.19l.19-6.47c0-.56-.06-1.16-.19-1.78,0-.06,.06-.09,.19-.09,.94,.25,1.75,.63,2.44,1.12h4.03v-2.25h-7.88c-.06,0-.59,.03-1.59,.09l-.47-.66c.25,0,.5,.03,.75,.09h9.19v-2.44c-3.63,.19-6.28,.34-7.97,.47-.19-.19-.19-.34,0-.47,4-.5,8.56-1.66,13.69-3.47,.19-.12,.38-.12,.56,0,1.25,.88,2.22,1.63,2.91,2.25,.06,.25,0,.44-.19,.56-.56,.06-1.75,.16-3.56,.28-1.06,.06-1.88,.13-2.44,.19,.06,.13,0,.31-.19,.56-.19,.25-.28,.44-.28,.56Zm-2.53,7.22v-2.53h-4.03v2.53h4.03Zm0,3v-2.53h-4.03v2.53h4.03Zm2.53-5.53v2.53h3.94v-2.53h-3.94Zm0,3v2.53h3.94v-2.53h-3.94Z"/>
        <path class="cls-4" d="M389.27,75.88c.62,1.44,.78,2.59,.47,3.47-.31,.75-.81,1.03-1.5,.84-.69-.31-.91-.84-.66-1.59,.12-.13,.28-.31,.47-.56,.56-.56,.84-1.25,.84-2.06,.12-.12,.25-.16,.38-.09Zm3.38-3.75v-2.06h-3.75l-.47-.66c.25,0,.5,.03,.75,.09h3.47v-2.72h-2.25v.75c-1.06,.69-1.75,.69-2.06,0v-6.75l-.09-1.41c0-.06,.03-.09,.09-.09,1.06,.19,1.97,.5,2.72,.94v.09h5.34c.25-.44,.5-.72,.75-.84h.28c.69,.31,1.34,.75,1.97,1.31v.09c.06,.06,.06,.13,0,.19s-.19,.16-.38,.28l-.19,.19v5.72c-1,.69-1.66,.69-1.97,0v-.47h-2.25v2.72h1.22c.06-.06,.16-.19,.28-.38,.44-.5,.72-.78,.84-.84,.12-.12,.22-.12,.28,0,.38,.25,.91,.72,1.59,1.41,.12,.13,.06,.25-.19,.38h-4.03v1.97c2.25-.12,3.75-.22,4.5-.28,.06,0,.12,.03,.19,.09,0,.13-.03,.19-.09,.19-4.19,1.06-7.63,2.06-10.31,3-.19,0-.28-.03-.28-.09-.13-.38-.34-1.12-.66-2.25-.06-.06-.09-.16-.09-.28,.06-.06,.16-.09,.28-.09,1.56,0,3.06-.06,4.5-.19Zm0-11.34h-1.88c-.06,.06-.19,.16-.38,.28v5.25h2.25v-5.53Zm-1.59,1.22c1.25,.94,1.5,1.91,.75,2.91-.38,.25-.72,.25-1.03,0-.31-.31-.34-.62-.09-.94,.5-.5,.56-1.12,.19-1.88,0-.06,.06-.09,.19-.09Zm.38,13.31c1.06,.81,1.62,1.72,1.69,2.72,0,.75-.38,1.19-1.12,1.31-.81-.06-1.16-.44-1.03-1.12,0-.12,.06-.28,.19-.47,.19-.44,.19-1.19,0-2.25,.06-.19,.16-.25,.28-.19Zm2.44-.47c1.44,.56,2.19,1.38,2.25,2.44,0,.75-.34,1.19-1.03,1.31-.75,.06-1.16-.28-1.22-1.03,0-.12,.03-.31,.09-.56,.19-.5,.06-1.12-.38-1.88-.06-.19,.03-.28,.28-.28Zm3-12.09v-1.97h-1.59c-.06,.19-.28,.44-.66,.75v2.44c.19-.56,.38-1.19,.56-1.88,0-.06,.06-.09,.19-.09,.06,.06,.22,.13,.47,.19,.56,.31,.91,.5,1.03,.56Zm-2.25,3v.56h2.25v-3.38l-.19,.09c-.13,0-.22,.03-.28,.09s-.16,.19-.28,.38c-.63,1.06-1.12,1.81-1.5,2.25Zm2.16,8.53c1.37,.56,2.16,1.56,2.34,3-.06,.69-.41,1.06-1.03,1.12-.69,0-1.09-.34-1.22-1.03,0-.19,.03-.44,.09-.75,.19-.62,.06-1.34-.38-2.16-.06-.19,0-.25,.19-.19Zm10.12,4.31h-5.06v2.25c-1.06,.75-1.78,.75-2.16,0v-8.91l-.19-2.34c0-.06,.06-.09,.19-.09,1,.38,1.72,.72,2.16,1.03h1.03v-10.5c0-.12-.03-.34-.09-.66,0-.25-.03-.44-.09-.56,0-.06,.06-.09,.19-.09,.94,.13,1.84,.34,2.72,.66,.06,.13,.06,.19,0,.19-.06,.13-.22,.28-.47,.47v4.03h2.53c.25-.44,.66-.94,1.22-1.5h.28c.81,.63,1.37,1.19,1.69,1.69,0,.19-.06,.28-.19,.28h-5.53v6h1.5l.09-.09c.5-.69,.81-1,.94-.94,.94,.31,1.69,.78,2.25,1.41,0,.13-.19,.34-.56,.66l-.19,.19v8.34c-1.12,.75-1.88,.75-2.25,0v-1.5Zm-5.06-.28h5.06v-7.31h-5.06v7.31Z"/>
        <path class="cls-4" d="M419.89,69.69l.19,9.09c0,1.19-.94,1.97-2.81,2.34-.13,0-.25-.09-.38-.28-.25-1.12-1-1.88-2.25-2.25-.19-.13-.16-.25,.09-.38,1.88,.31,2.81,.09,2.81-.66v-6.09c-.44,.31-1.09,.78-1.97,1.41-.19,.19-.34,.31-.47,.38-.13,.06-.25,.06-.38,0-.06-.19-.22-.69-.47-1.5-.25-.81-.41-1.31-.47-1.5-.06-.12-.03-.22,.09-.28l.09-.09c1.12-.31,2.31-.69,3.56-1.12v-3.94h-3l-.47-.66c.25,0,.5,.03,.75,.09h2.72v-4.22l-.09-1.41c0-.12,.06-.19,.19-.19,.87,.13,1.78,.38,2.72,.75,.12,.13,.12,.25,0,.38-.06,.13-.16,.22-.28,.28-.13,.06-.22,.13-.28,.19v4.22c.56-.75,1.03-1.31,1.41-1.69h.28c.94,.63,1.66,1.25,2.16,1.88,.06,.19,.03,.31-.09,.38h-3.75v3.19c.44-.12,1.12-.38,2.06-.75,.56-.19,.97-.34,1.22-.47,.25,.06,.31,.19,.19,.38-1.12,.81-2.25,1.66-3.38,2.53Zm5.06,6.38c.69,.75,1.62,1.31,2.81,1.69v-7.22h-4.69c-.5,0-1,.03-1.5,.09l-.56-.66c.31,0,.59,.03,.84,.09h11.16c.12-.19,.44-.59,.94-1.22,.25-.31,.41-.5,.47-.56h.38c1.19,.69,1.97,1.31,2.34,1.88,.19,.19,.16,.31-.09,.38h-6.28c0,.06-.06,.16-.19,.28-.06,0-.13,.03-.19,.09-.31,.19-.44,.31-.38,.38v2.72h1.5c.12-.12,.38-.44,.75-.94,.31-.38,.53-.62,.66-.75h.38c.94,.69,1.62,1.31,2.06,1.88,.12,.19,.09,.31-.09,.38h-5.25v3.56c1.94,.19,4.25,.03,6.94-.47,.06,.13,.12,.25,.19,.38-.88,.69-1.34,1.53-1.41,2.53-.13,.19-.25,.28-.38,.28-5.75,.31-9.34-1.03-10.78-4.03-.94,1.75-2.44,3.16-4.5,4.22-.19,0-.28-.09-.28-.28,2.31-1.75,3.53-4.81,3.66-9.19,0-.19,.12-.28,.38-.28,1.31,.25,2.28,.53,2.91,.84,.06,.19,.03,.34-.09,.47l-.75,.38c-.25,1.19-.56,2.22-.94,3.09Zm-1.03-7.78l.09-7.22c0-.94-.03-1.56-.09-1.88,0-.12,.06-.19,.19-.19,.87,.25,1.66,.59,2.34,1.03h4.31c.38-.5,.69-.87,.94-1.12,.06-.06,.22-.09,.47-.09,.87,.44,1.66,1,2.34,1.69,0,.19-.03,.31-.09,.38l-.66,.38,.09,6.75c-1.06,1.06-1.91,1.16-2.53,.28v-1.03h-4.78v.75c-.06,.5-.56,.84-1.5,1.03-.75,.06-1.12-.19-1.12-.75Zm2.62-7.78v2.91h4.78v-2.91h-4.78Zm0,3.38v2.91h4.78v-2.91h-4.78Z"/>
        <path class="cls-4" d="M449.67,63.78v4.97h4.97v-8.44c0-.19-.03-.47-.09-.84-.13-.44-.16-.69-.09-.75,1.62,0,2.84,.28,3.66,.84,0,.13-.13,.28-.38,.47-.19,.13-.28,.22-.28,.28v8.44h1.59c.06-.12,.22-.31,.47-.56,.5-.69,.87-1.12,1.12-1.31,.06-.12,.16-.12,.28,0,1.37,.69,2.28,1.34,2.72,1.97,.06,.19,0,.34-.19,.47h-6c0,3.81,.03,7.47,.09,10.97,0,.38-.44,.62-1.31,.75-1,.19-1.56,.12-1.69-.19,.06-3.75,.09-7.59,.09-11.53h-4.97v.75c.06,5.88-2.84,9.41-8.72,10.59-.13-.06-.16-.16-.09-.28,4.25-1.63,6.34-5.06,6.28-10.31v-.75h-6.19l-.47-.66c.25,0,.5,.03,.75,.09h5.91v-3.94l-.09-1.69c-1.81,.56-3.84,1.03-6.09,1.41-.13-.06-.13-.12,0-.19,3.44-1.37,6.34-3.31,8.72-5.81h.38c1.19,.63,2.31,1.31,3.38,2.06,.06,0,.06,.09,0,.28v.09h-.47c-.31,0-.56,.06-.75,.19-1,.5-2.06,.94-3.19,1.31,.12,.06,.31,.13,.56,.19,.38,.13,.62,.22,.75,.28,.06,.13,.06,.22,0,.28-.06,.13-.19,.25-.38,.38-.13,.06-.22,.13-.28,.19Z"/>
        <path class="cls-4" d="M478.04,66.22h.28c.62,.06,1.16,.34,1.59,.84,.69,1,.78,2.19,.28,3.56-.69,1.63-1.63,2.66-2.81,3.09l-.19-.28c.62-.5,1.03-1.16,1.22-1.97v-.47c0-.25-.09-.44-.28-.56-.44-.06-.84-.22-1.22-.47-.5-.38-.75-.87-.75-1.5v-.38c.06-.56,.25-.97,.56-1.22,.44-.5,.87-.72,1.31-.66Z"/>
        <path class="cls-3" d="M493.47,78.5v-.38c3.25-.56,5.41-2.66,6.47-6.28-.38,.19-.75,.31-1.12,.38-.25,.06-.63,.09-1.12,.09-2.81-.19-4.25-1.88-4.31-5.06,.38-3.44,2.09-5.22,5.16-5.34,3.62,.19,5.47,2.56,5.53,7.12-.5,5.62-4.03,8.78-10.59,9.47Zm3.56-12.56c-.06,3.69,.59,5.44,1.97,5.25,.62,0,1-.09,1.12-.28,0-.12,.03-.41,.09-.84,.06-.69,.09-1.12,.09-1.31,.12-4.44-.5-6.5-1.88-6.19-1.06-.12-1.53,1-1.41,3.38Z"/>
        <path class="cls-3" d="M511.15,76.82v-8.53h-2.91l-.56-.56c.25,0,.5,.03,.75,.09h2.16c.44-.69,.78-1.03,1.03-1.03h.47c.81,.31,1.47,.75,1.97,1.31,.12,.13,.12,.28,0,.47-.06,.06-.16,.13-.28,.19-.25,.13-.38,.22-.38,.28v7.97c.38,.88,2.19,1.41,5.44,1.59,5.19-.06,9.12-.25,11.81-.56,.12,.06,.12,.19,0,.38-.81,.56-1.31,1.41-1.5,2.53,0,.19-.06,.28-.19,.28-1,0-3.69-.03-8.06-.09-2.88,.25-5.28-.5-7.22-2.25-.5-.38-.84-.56-1.03-.56-.94,.19-2.09,1.09-3.47,2.72-.19,.12-.31,.12-.38,0-.13-.25-.34-.84-.66-1.78-.13-.44-.22-.72-.28-.84,0-.06,.06-.16,.19-.28,2.06-.44,3.09-.87,3.09-1.31Zm-1.59-17.81c2.5,.31,3.91,1.25,4.22,2.81,0,1-.41,1.63-1.22,1.88-.81,.19-1.47-.12-1.97-.94,0-.06-.03-.25-.09-.56,0-1.31-.41-2.22-1.22-2.72-.13-.19-.03-.34,.28-.47Zm11.81,7.31h3l.19-.19c.38-.38,.66-.62,.84-.75h.38c.44,.13,1.12,.5,2.06,1.12,.06,.06,.12,.13,.19,.19,.12,.13,.12,.25,0,.38-.06,.13-.28,.28-.66,.47l.28,9.47c-1.56,.81-2.5,.81-2.81,0v-.75h-6.19v.75c-.06,.44-.5,.72-1.31,.84-.75,.06-1.16-.12-1.22-.56l.28-9.28v-2.44c.69,.13,1.31,.38,1.88,.75h1.31v-2.53h-3.38c-.5,0-1.03,.03-1.59,.09l-.47-.66c.31,0,.59,.03,.84,.09h7.88c.44-1.5,.78-3.03,1.03-4.59,.06-.12,.19-.19,.38-.19,1.12,.38,2.06,.78,2.81,1.22,.06,.06,.06,.19,0,.38-.06,.06-.19,.09-.38,.09-.25,.06-.41,.13-.47,.19-.13,.13-.28,.34-.47,.66-.88,1.19-1.5,1.94-1.88,2.25h2.44c.75-.94,1.25-1.53,1.5-1.78h.28c1.12,.63,1.94,1.25,2.44,1.88,.12,.19,.06,.31-.19,.38h-7.22c0,.19-.25,.41-.75,.66-.13,.25-.28,.56-.47,.94-.25,.38-.44,.69-.56,.94Zm-4.69-7.88c2,.13,3.28,.78,3.84,1.97,.38,.94,.16,1.66-.66,2.16-.88,.38-1.53,.13-1.97-.75-.06-.12-.09-.34-.09-.66,0-.87-.44-1.66-1.31-2.34-.13-.12-.06-.25,.19-.38Zm1.97,8.34v2.62h6.19v-2.62h-6.19Zm0,3.19v2.62h6.19v-2.62h-6.19Zm0,3.09v2.72h6.19v-2.72h-6.19Z"/>
        <path class="cls-3" d="M547.11,68.47h-1.88l-.56,1.5h1.12c.06-.06,.25-.28,.56-.66,.25-.38,.41-.59,.47-.66h.38c.62,.5,1.16,1,1.59,1.5,.25-1,.47-2.09,.66-3.28,0-.12,.09-.19,.28-.19,1.25,.25,2.25,.59,3,1.03,.06,.06,.06,.22,0,.47l-.09,.09c-.38,.19-.66,.28-.84,.28-.31,.69-.66,1.31-1.03,1.88h3.09c.38-.5,.78-.97,1.22-1.41,.12-.12,.22-.12,.28,0,.94,.69,1.5,1.25,1.69,1.69,.06,.06,0,.16-.19,.28h-2.25c.19,.06,.44,.13,.75,.19,.19,.13,.34,.19,.47,.19,0,.13-.03,.25-.09,.38,0,.06-.09,.09-.28,.09-.13,.06-.22,.16-.28,.28-.44,1.75-1.06,3.28-1.88,4.59,1.06,1,2.34,1.63,3.84,1.88,.12,.06,.16,.16,.09,.28-.94,.38-1.69,1.03-2.25,1.97-.19,.19-.31,.25-.38,.19-1.19-.88-2.09-1.75-2.72-2.62-1,1.06-2.5,2-4.5,2.81-.13,.06-.22,.03-.28-.09-.06-.13-.03-.22,.09-.28,1.5-.75,2.78-1.97,3.84-3.66-.69-1.37-1.12-3.09-1.31-5.16-.63,.81-1.41,1.69-2.34,2.62-.19,0-.28-.09-.28-.28,.69-1.19,1.22-2.5,1.59-3.94h-1.12c0,.06-.06,.16-.19,.28l-.28,.28c-.19,.06-.28,.13-.28,.19v9.94c-.25,.31-.75,.47-1.5,.47-.5-.06-.75-.31-.75-.75v-2.91c-2.06,.62-3.84,1.31-5.34,2.06-.13,.06-.25,0-.38-.19-.19-1-.47-1.84-.84-2.53,0-.19,.06-.28,.19-.28l1.88-.09v-6.38h-1.22l-.38-.47c-.13,4.81-1.56,8.44-4.31,10.88-.19,0-.28-.09-.28-.28,.94-1.5,1.56-3.09,1.88-4.78,.31-1.75,.47-4.47,.47-8.16v-1.03l-.09-2.06c.06-.12,.09-.16,.09-.09,1.06,.31,2.03,.66,2.91,1.03,.06,.13,.03,.25-.09,.38h14.53c.62-.81,1.06-1.28,1.31-1.41,0-.06,.06-.09,.19-.09,.81,.63,1.37,1.19,1.69,1.69,.06,.19,0,.28-.19,.28h-18v1.31c0,.25-.03,.63-.09,1.12v1.03c.19,.06,.41,.09,.66,.09h3.75l.28-1.5h-3.19l-.56-.66c.31,0,.59,.03,.84,.09h4.12c.06-.19,.28-.5,.66-.94,.06-.06,.09-.12,.09-.19,.12-.12,.28-.16,.47-.09,.62,.38,1.12,.78,1.5,1.22,.12,.25,.12,.44,0,.56Zm-4.31-4.78h-2.72v.28c-.06,.38-.47,.63-1.22,.75-.69,.06-1.03-.09-1.03-.47l.19-4.12c0-.38-.06-.81-.19-1.31,.06-.12,.12-.19,.19-.19,1,.31,1.75,.66,2.25,1.03h2.06c.5-.62,.81-.94,.94-.94,.81,.19,1.62,.63,2.44,1.31,0,.13-.16,.28-.47,.47l-.19,.19v3.56c-.25,.31-.75,.47-1.5,.47-.5-.06-.75-.31-.75-.75v-.28Zm-2.72-.47h2.72v-3h-2.34c-.06,.13-.19,.19-.38,.19v2.81Zm1.97,9h2.53v-1.78h-1.88c-.13,.38-.34,.63-.66,.75v1.03Zm0,2.25h2.53v-1.78h-2.53v1.78Zm2.53,2.06v-1.5h-2.53v1.69c.87,0,1.72-.06,2.53-.19Zm7.31-12.84h-3v.28c-.06,.44-.5,.75-1.31,.94-.69,0-1.03-.22-1.03-.66l.28-4.12c0-.12-.03-.34-.09-.66,0-.31-.03-.53-.09-.66,0-.06,.09-.09,.28-.09,1.12,.31,1.84,.63,2.16,.94h2.25l.47-.47c.25-.31,.41-.47,.47-.47,.81,.13,1.62,.56,2.44,1.31,0,.13-.13,.28-.38,.47l-.19,.19v3.56c-.25,.31-.75,.47-1.5,.47-.5-.06-.75-.31-.75-.75v-.28Zm-3-.47h3v-3h-2.72l-.09,.09c-.06,0-.13,.03-.19,.09v2.81Zm3.94,7.78h-2.44l-.09,.19-.19,.19c.31,1.44,.91,2.75,1.78,3.94,.56-1.44,.87-2.87,.94-4.31Z"/>
        <path class="cls-3" d="M561.23,63.32h5.91c.06-.06,.12-.16,.19-.28,.56-.69,.94-1.09,1.12-1.22h.19c.81,.63,1.37,1.19,1.69,1.69,.06,.13,0,.22-.19,.28h-7.59c-.06,0-.59,.03-1.59,.09l-.47-.66c.25,0,.5,.03,.75,.09Zm1.03,3.19h4.12c.06-.06,.16-.19,.28-.38,.44-.5,.72-.78,.84-.84,.12-.12,.22-.12,.28,0,.38,.25,.91,.72,1.59,1.41,.12,.13,.06,.25-.19,.38h-7.22l-.56-.66c.31,0,.59,.03,.84,.09Zm0,3.28h3.94c.25-.5,.59-.94,1.03-1.31,.12-.12,.22-.12,.28,0,.75,.56,1.28,1.03,1.59,1.41,.06,.13,.09,.22,.09,.28-.06,.06-.16,.09-.28,.09h-5.44c-.5,0-1,.03-1.5,.09l-.56-.66c.31,0,.59,.03,.84,.09Zm4.12,8.81h-2.44v1.78c-.75,.81-1.53,.97-2.34,.47-.06-.13-.06-.56,0-1.31,.06-.75,.09-1.31,.09-1.69v-4.03l-.19-2.16c0-.06,.06-.09,.19-.09,1.12,.31,2.06,.69,2.81,1.12,.06,.13,.03,.25-.09,.38h1.5c.12-.12,.25-.28,.38-.47,.31-.38,.5-.56,.56-.56,.62,.06,1.44,.5,2.44,1.31,0,.13-.16,.31-.47,.56l-.19,.09v6.38c-.25,.31-.75,.47-1.5,.47-.5-.06-.75-.31-.75-.75v-1.5Zm-2.91-20.06c2.06,.31,3.16,1.16,3.28,2.53,.06,.69-.28,1.19-1.03,1.5-.81,.31-1.38,.16-1.69-.47-.06-.19-.06-.56,0-1.12,.06-1-.16-1.75-.66-2.25-.06-.06-.03-.12,.09-.19Zm.47,19.78h2.44v-4.78h-2.44v4.78Zm18.75-3.56h-5.53v2.25h2.25c.06-.06,.25-.28,.56-.66,.25-.31,.41-.5,.47-.56,.12-.12,.22-.12,.28,0,.56,.38,1.09,.84,1.59,1.41,.12,.19,.06,.31-.19,.38h-4.97v2.34h3.28c.25-.44,.66-.94,1.22-1.5h.28c.81,.62,1.37,1.19,1.69,1.69,0,.19-.06,.28-.19,.28h-11.91c-.06,0-.59,.03-1.59,.09l-.47-.66c.25,.06,.5,.09,.75,.09h4.69v-2.34h-3.75l-.47-.66c.31,0,.59,.03,.84,.09h3.38v-2.25h-2.91c-.5,0-1.03,.03-1.59,.09l-.47-.66c.31,0,.59,.03,.84,.09h4.12v-2.25h-2.25v.75c-.25,.31-.75,.47-1.5,.47-.5-.06-.75-.31-.75-.75v-5.25c.69,.19,1.44,.53,2.25,1.03h2.25v-1.22l-.09-1.22c0-.06,.03-.09,.09-.09,.87,.13,1.81,.31,2.81,.56v.38c-.06,.13-.22,.22-.47,.28l-.09,.09v1.22h1.97l.09-.09c.5-.69,.81-1,.94-.94,.75,.19,1.53,.66,2.34,1.41,0,.13-.09,.25-.28,.38-.19,.13-.28,.22-.28,.28v3c0,.19-.28,.34-.84,.47h.09c.81,.63,1.37,1.19,1.69,1.69,0,.19-.06,.28-.19,.28Zm-10.5-8.72v-3.47h-1.78l-.47-.66c.31,0,.59,.03,.84,.09h1.41v-1.97l-.09-1.22c0-.06,.03-.09,.09-.09,1.19,.19,2.09,.41,2.72,.66,.12,0,.12,.13,0,.38-.13,.06-.28,.16-.47,.28v1.97h3v-1.97l-.09-1.22c0-.06,.03-.09,.09-.09,1.19,.19,2.09,.41,2.72,.66,.12,0,.12,.13,0,.38-.13,.06-.28,.16-.47,.28v1.97h.75c.38-.5,.78-.97,1.22-1.41,.12-.12,.22-.12,.28,0,.94,.69,1.5,1.25,1.69,1.69,0,.06-.06,.16-.19,.28h-3.75v3.19c-.19,.38-.69,.56-1.5,.56-.5-.06-.75-.31-.75-.75h-3v.75c-.25,.31-.75,.47-1.5,.47-.5-.06-.75-.31-.75-.75Zm2.72,2.72h-2.25v2.81h2.25v-2.81Zm-.47-6.19v2.44h3v-2.44h-3Zm5.25,9v-2.81h-2.53v2.81h2.53Zm0,.75v-.28h-2.53v2.25h2.53c.56-.75,.97-1.25,1.22-1.5-.81,.13-1.22-.03-1.22-.47Z"/>
        <path class="cls-3" d="M587.44,79.16h9.09v-16.59h-8.16l-.56-.66c.31,0,.59,.03,.84,.09h15.38c.06-.06,.16-.22,.28-.47,.62-.81,1.12-1.37,1.5-1.69,0-.06,.09-.06,.28,0,1.37,.94,2.31,1.66,2.81,2.16,.19,.19,.16,.38-.09,.56h-8.91c0,.13-.19,.38-.56,.75v15.84h5.72c.56-.81,1.12-1.5,1.69-2.06,.06-.06,.19-.06,.38,0,1.31,.88,2.25,1.53,2.81,1.97,.19,.25,.16,.44-.09,.56h-21.19c-.5,.06-1.03,.09-1.59,.09l-.47-.66c.31,.06,.59,.09,.84,.09Z"/>
        <path class="cls-3" d="M617.5,63.32v9c-.06,3.63-1.41,6.41-4.03,8.34-.13,0-.19-.06-.19-.19,1.31-1.88,1.97-4.44,1.97-7.69v-7.5c.06-1-.09-2.06-.47-3.19-.06-.19,0-.28,.19-.28,.44,.13,1.06,.34,1.88,.66,.31,.13,.53,.22,.66,.28h13.78c.19-.19,.44-.5,.75-.94,.38-.5,.66-.81,.84-.94,.12-.12,.25-.12,.38,0,1.37,.81,2.28,1.47,2.72,1.97,0,.31-.09,.47-.28,.47h-18.19Zm10.88,2.72h-7.03c-.06,0-.59,.03-1.59,.09l-.47-.66c.25,0,.5,.03,.75,.09h8.16c.25-.38,.59-.69,1.03-.94,.12-.12,.28-.12,.47,0,.81,.44,1.75,1.06,2.81,1.88,.06,.13,.03,.25-.09,.38-.19,.06-.5,.09-.94,.09-.38,0-.69,.03-.94,.09-1,.44-2.09,1.03-3.28,1.78,.44,.94,.22,1.66-.66,2.16h5.16c.38-.38,.69-.66,.94-.84,.06-.12,.22-.12,.47,0,1,.56,2,1.25,3,2.06,.12,.13,.09,.25-.09,.38-.19,.06-.47,.13-.84,.19-.44,0-.84,.06-1.22,.19-.06,.06-.38,.22-.94,.47-1.63,.81-2.66,1.38-3.09,1.69-.19-.06-.25-.16-.19-.28,.87-1.06,1.59-2.16,2.16-3.28h-3.84c-.06,.06-.16,.13-.28,.19-.19,.19-.28,.38-.28,.56v7.69c-.19,.69-1.12,1.09-2.81,1.22-.19,0-.31-.06-.38-.19-.56-1.12-1.47-1.84-2.72-2.16-.06-.06-.09-.13-.09-.19,0-.13,.03-.16,.09-.09,1.75,.31,2.78,.31,3.09,0v-7.03h-6.19l-.56-.66c.31,0,.59,.03,.84,.09h6.84c-.19-.06-.38-.19-.56-.38-.13-.19-.28-.53-.47-1.03-.31-1-1-1.72-2.06-2.16-.06-.12-.06-.22,0-.28,2.25,0,3.72,.41,4.41,1.22,.19-.25,.44-.66,.75-1.22,.31-.5,.53-.87,.66-1.12Zm-5.53-7.78c2.31,0,3.69,.72,4.12,2.16,.12,.81-.19,1.44-.94,1.88-.88,.31-1.5,.13-1.88-.56-.06-.19-.13-.5-.19-.94,0-1.12-.38-1.88-1.12-2.25-.06-.12-.06-.22,0-.28Z"/>
        <path class="cls-4" d="M643.15,62h-1.41c-.06,0-.59,.03-1.59,.09l-.47-.66c.25,0,.5,.03,.75,.09h6.47c.56-.75,.97-1.25,1.22-1.5h.28c.81,.63,1.37,1.19,1.69,1.69,0,.19-.06,.28-.19,.28h-3.28v.09l-.28,.19c-.31,.13-.47,.22-.47,.28-.75,1.75-1.66,3.53-2.72,5.34,.44,.19,.75,.38,.94,.56,.06,0,.09,.03,.09,.09h1.5c.12-.5,.38-.84,.75-1.03,1,.25,1.78,.69,2.34,1.31-.06,.13-.22,.28-.47,.47l-.19,.19v8.25c-1.12,.69-1.88,.69-2.25,0v-1.5h-2.34v2.16c-1.19,.87-1.94,.87-2.25,0v-7.78c-.5,.56-1.03,1.03-1.59,1.41-.19,.06-.25,0-.19-.19,1.81-3.06,3.03-6.34,3.66-9.84Zm.38,13.78h2.34v-6.75h-1.97c-.13,.06-.25,.16-.38,.28v6.47Zm11.25-17.06v.09c.38,0,1.28,.19,2.72,.56,.31,.13,.53,.19,.66,.19,.12,.06,.12,.19,0,.38-.06,.06-.19,.13-.38,.19-.25,.06-.41,.16-.47,.28-.19,.25-.47,.78-.84,1.59-.19,.31-.31,.56-.38,.75h3.28c.19-.5,.44-.84,.75-1.03,.12-.12,.78,.25,1.97,1.12,.19,.13,.31,.22,.38,.28,.25,.25,.34,.5,.28,.75-.06,.25-.28,.34-.66,.28h-.09c-1-.12-1.97,.31-2.91,1.31-.13,.13-.22,.16-.28,.09-.06,0-.09-.09-.09-.28,.31-.62,.59-1.28,.84-1.97h-3.75c-.81,1.5-1.63,2.78-2.44,3.84,.19,.06,.31,.16,.38,.28v.09h5.62c.56-.75,.97-1.25,1.22-1.5h.28c.81,.63,1.37,1.19,1.69,1.69,.06,.19,0,.28-.19,.28h-3.47c0,.06-.06,.16-.19,.28-.06,.06-.16,.16-.28,.28-.19,.06-.28,.13-.28,.19v2.53h.75c.56-.75,.97-1.25,1.22-1.5h.28c.81,.63,1.37,1.19,1.69,1.69,0,.19-.06,.28-.19,.28h-3.75v3.28h.75c.56-.75,.97-1.25,1.22-1.5h.28c.81,.63,1.37,1.19,1.69,1.69,0,.19-.06,.28-.19,.28h-3.75v3.38h1.5c.38-.44,.78-.87,1.22-1.31h.28c.88,.56,1.44,1.06,1.69,1.5,0,.19-.06,.28-.19,.28h-9.47v1.41c-.88,.87-1.66,.94-2.34,.19l.09-5.53v-5.34c-.69,.56-1.41,1.06-2.16,1.5-.19,.06-.25,0-.19-.19,1.88-2.06,3.44-4.75,4.69-8.06h-1.78c.12,1.06-.19,1.88-.94,2.44-.56,.38-1.09,.44-1.59,.19-.5-.38-.62-.84-.38-1.41,.06-.19,.28-.44,.66-.75,.81-.62,1.25-1.34,1.31-2.16,0-.12,.06-.19,.19-.19,0-.06,.03-.03,.09,.09,.31,.44,.5,.84,.56,1.22h2.06c.5-1.31,.84-2.53,1.03-3.66,0-.25,.09-.38,.28-.38Zm1.12,12.56v-3.28h-2.44l-.28,.28v3h2.72Zm0,3.75v-3.28h-2.72v3.28h2.72Zm0,3.84v-3.38h-2.72v3.38h2.72Zm-.19-14.72c1.44,.13,2.31,.63,2.62,1.5,.12,.63-.09,1.09-.66,1.41-.62,.31-1.09,.22-1.41-.28-.06-.12-.06-.34,0-.66,.06-.75-.13-1.31-.56-1.69-.13-.19-.13-.28,0-.28Z"/>
        <path class="cls-4" d="M671.33,65.75v14.25c0,.25-.34,.5-1.03,.75-.88,.25-1.44,.31-1.69,.19v-.84c.12-.75,.19-1.34,.19-1.78v-10.78c-.81,1.31-1.66,2.41-2.53,3.28-.19,.13-.31,.19-.38,.19s-.03-.09,.09-.28c1.62-3.69,2.69-7.47,3.19-11.34,.06-.31,.12-.5,.19-.56,0-.06,.12-.03,.38,.09,.56,.19,1.47,.56,2.72,1.12,.12,.06,.22,.09,.28,.09,.31,.13,.44,.25,.38,.38,0,.06-.16,.19-.47,.38-.06,0-.13,.03-.19,.09-.25,.06-.41,.22-.47,.47-.38,.94-.84,1.94-1.41,3,.56,.19,1.03,.38,1.41,.56v.28c-.06,.06-.19,.16-.38,.28-.13,.06-.22,.13-.28,.19Zm10.5,4.78h.09c1.37,3.13,3.72,5.16,7.03,6.09l.28,.09c0,.06-.09,.13-.28,.19-1,.13-1.84,.69-2.53,1.69l-.19,.28c-2.44-1.44-4-4.22-4.69-8.34h-.47v3.47c0,.44,.03,1.88,.09,4.31v1.97c0,.38-.38,.66-1.12,.84-.94,.19-1.47,.12-1.59-.19v-1.59c.06-1.56,.09-3.09,.09-4.59v-1.59c-1.75,2.62-3.94,4.56-6.56,5.81-.38,.19-.44,.12-.19-.19,2.44-2.25,4.16-5,5.16-8.25h-2.81c-.06,0-.59,.03-1.59,.09l-.47-.66c.25,0,.5,.03,.75,.09h5.72v-3.56c1.56,.06,2.62,.22,3.19,.47,.12,.13,.12,.31,0,.56-.13,.13-.34,.28-.66,.47v2.06h3.56l.09-.09c.69-1,1.19-1.62,1.5-1.88,.06-.12,.16-.12,.28,0,1.62,.94,2.53,1.63,2.72,2.06,.06,.19,0,.31-.19,.38h-7.22Zm1.69-4.5h-6.75v.47c0,.25-.31,.47-.94,.66-.81,.19-1.34,.19-1.59,0-.06-.06-.09-.31-.09-.75,.06-.5,.09-.94,.09-1.31v-5.81c.94,.19,1.88,.59,2.81,1.22h6c.31-.38,.59-.72,.84-1.03,.12-.19,.31-.22,.56-.09h.09c.69,.38,1.34,.78,1.97,1.22,.38,.19,.41,.41,.09,.66-.25,.25-.44,.44-.56,.56l.19,4.03c0,.31-.38,.56-1.12,.75-1,.19-1.53,.16-1.59-.09v-.47Zm-6.75-.47h6.75v-4.5h-6.75v4.5Z"/>
        <path class="cls-4" d="M704.39,70.07h-3.75c0,.06-.03,.09-.09,.09l-.09,.09c-.06,.06-.13,.13-.19,.19-.25,.19-.38,.31-.38,.38v6.47c.12-.06,.34-.12,.66-.19,2.12-.56,3.69-.97,4.69-1.22,.19,.13,.22,.22,.09,.28-2.94,1.88-5.31,3.53-7.12,4.97-.19,0-.28-.03-.28-.09-.13-.25-.31-.69-.56-1.31-.38-.81-.62-1.31-.75-1.5-.06,0-.06-.03,0-.09v-.09c0-.06,.12-.12,.38-.19,.44-.12,.66-.31,.66-.56v-7.22h-4.97l-.28-.66c.75,.06,1.16,.09,1.22,.09h4.78v-7.97l-.09-2.16c0-.12,.06-.16,.19-.09,.69,.19,1.41,.53,2.16,1.03h8.25c.44-.62,.94-1.19,1.5-1.69,.06-.12,.16-.12,.28,0,.75,.38,1.44,.97,2.06,1.78,.19,.19,.16,.31-.09,.38h-12v2.72h7.5c.12-.12,.28-.31,.47-.56l.84-.84c.06-.12,.12-.12,.19,0,.94,.69,1.5,1.25,1.69,1.69,.06,.06,0,.16-.19,.28h-10.5v2.44h7.78c.38-.5,.78-.97,1.22-1.41,.12-.12,.22-.12,.28,0,.94,.69,1.5,1.25,1.69,1.69,.06,.06,0,.16-.19,.28h-10.78v2.44h10.5c.44-.5,.94-1.06,1.5-1.69h.28c.81,.5,1.5,1.12,2.06,1.88,.19,.19,.16,.31-.09,.38h-9.84c.38,1.44,1.03,2.72,1.97,3.84,1.06-1.12,2-2.31,2.81-3.56,.19-.06,.31-.09,.38-.09,.19,.19,.72,.63,1.59,1.31,.44,.38,.69,.59,.75,.66,0,.31-.03,.47-.09,.47h-.47c-.31,.06-.53,.09-.66,.09-.19,.13-.5,.28-.94,.47-1.25,.56-2.19,.97-2.81,1.22,2.06,2.13,4.59,3.25,7.59,3.38,.19,.06,.22,.19,.09,.38-1.31,.5-2.19,1.34-2.62,2.53-.06,.06-.16,.09-.28,.09-5.12-2.06-7.78-5.66-7.97-10.78Z"/>
        <path class="cls-4" d="M718.79,79.63c1.37-1.25,2.53-2.97,3.47-5.16,.12-.12,.22-.19,.28-.19,1.06,.44,2,.88,2.81,1.31,.06,.06,.03,.16-.09,.28-.06,0-.13,.03-.19,.09-.25,.06-.41,.13-.47,.19-2,1.69-3.91,2.91-5.72,3.66-.13,.06-.16,0-.09-.19Zm14.06-6.09h-11.72c-.5,0-1,.03-1.5,.09l-.56-.66c.31,0,.59,.03,.84,.09h1.69v-9.75h-1.97l-.56-.66c.31,0,.59,.03,.84,.09h1.69v-3.94c1.37,.06,2.31,.22,2.81,.47,.12,.13,.12,.25,0,.38,.06,0,.06,.03,0,.09-.25,.25-.44,.44-.56,.56v2.44h2.72v-2.44l-.09-1.5c0-.06,.06-.09,.19-.09,1.25,.19,2.16,.44,2.72,.75,.12,.06,.12,.19,0,.38-.06,.13-.19,.25-.38,.38,.19-.12,.12-.09-.19,.09v2.44h.47c.12-.12,.28-.31,.47-.56l.84-.84c.06-.12,.12-.12,.19,0,.94,.69,1.5,1.25,1.69,1.69,.06,.06,0,.16-.19,.28h-3.47v9.75h.28c.44-.69,.91-1.25,1.41-1.69,.12-.12,.22-.12,.28,0,.75,.38,1.44,.91,2.06,1.59v-11.72c0-.31-.06-.78-.19-1.41-.06-.31-.09-.53-.09-.66,0-.06,.06-.12,.19-.19,.75,.25,1.53,.59,2.34,1.03h3c.25-.38,.56-.69,.94-.94,.19-.12,.34-.12,.47,0,1,.5,1.69,.88,2.06,1.12,.12,.06,.12,.16,0,.28-.06,.19-.31,.44-.75,.75l.28,18.09c-.25,.69-1.16,1.12-2.72,1.31-.19,0-.28-.06-.28-.19-.69-1.25-1.53-1.97-2.53-2.16-.13-.12-.13-.22,0-.28,1.44,.25,2.34,.25,2.72,0v-6.47h-3.19v1.5c-.25,3.75-2.22,6.34-5.91,7.78-.19,0-.22-.06-.09-.19,2.25-1.5,3.5-3.87,3.75-7.12Zm-6.28-7.31v-2.91h-2.72v2.91h2.72Zm0,3.38v-2.91h-2.72v2.91h2.72Zm0,3.47v-3h-2.72v3h2.72Zm-.28,1.41c2.38,.06,3.94,.78,4.69,2.16,.38,.75,.34,1.34-.09,1.78-.62,.56-1.22,.62-1.78,.19-.25-.19-.5-.62-.75-1.31-.56-1.31-1.25-2.16-2.06-2.53-.06-.12-.06-.22,0-.28Zm8.81-13.97v5.06h3.19v-5.06h-3.19Zm0,5.53v4.97h3.19v-4.97h-3.19Z"/>
        <path class="cls-4" d="M753.44,61.82l-2.44,4.97c2.5,1.38,3.75,3.03,3.75,4.97-.5,2.62-1.84,3.88-4.03,3.75-.13-.06-.22-.28-.28-.66-.19-.75-.5-1.19-.94-1.31-.25-.06-.38-.12-.38-.19,0-.12,.12-.16,.38-.09,1.56,.19,2.47-.53,2.72-2.16,.12-1.5-.53-2.94-1.97-4.31l.47-5.72h-2.25v18.84c0,.31-.38,.53-1.12,.66-.81,.19-1.28,.16-1.41-.09-.13-.13-.16-.53-.09-1.22,.06-.75,.09-1.5,.09-2.25v-17.44c.19-.06,1.06,.25,2.62,.94h2.16c.19-.25,.38-.5,.56-.75,.19-.31,.44-.31,.75,0,.75,.38,1.41,.84,1.97,1.41,.12,.13,.19,.22,.19,.28s-.09,.13-.28,.19c-.13,.06-.28,.13-.47,.19Zm6.56,6.75h3.19c.56-.81,.97-1.25,1.22-1.31,1.19,.44,2.03,.94,2.53,1.5,.06,.19-.06,.47-.38,.84-.25,.25-.38,.47-.38,.66-.31,7.12-2.22,10.66-5.72,10.59-.13-.06-.22-.25-.28-.56-.31-1.12-1.06-1.91-2.25-2.34-.69-.38-.66-.44,.09-.19,3.88,1.56,5.78-1.09,5.72-7.97v-.75h-3.84c-.81,6-3.94,9.59-9.38,10.78-.56,.06-.59,0-.09-.19,4.69-1.88,7.03-6.75,7.03-14.62v-.75h-2.44c-.5,0-1,.03-1.5,.09l-.56-.66c.31,0,.59,.03,.84,.09h10.03l.09-.09c.69-1,1.19-1.62,1.5-1.88h.28c1.62,.94,2.53,1.63,2.72,2.06,.06,.19,0,.31-.19,.38h-7.31c-.13,.44-.38,.75-.75,.94,0,1.19-.06,2.31-.19,3.38Zm-2.53-9c2-.06,3.28,.28,3.84,1.03,.44,.75,.34,1.47-.28,2.16-.75,.56-1.41,.53-1.97-.09-.19-.19-.31-.47-.38-.84-.13-.81-.56-1.44-1.31-1.88-.06-.12-.03-.25,.09-.38Z"/>
        <path class="cls-4" d="M777.4,66.32h-4.78l-.47-.66c.31,0,.59,.03,.84,.09h3.84c.44-.69,.81-1.22,1.12-1.59,0-.06,.09-.06,.28,0h.09c1.19,.38,2.12,.81,2.81,1.31,.12,.13,.12,.28,0,.47l-.38,.19c-.19,.06-.31,.13-.38,.19-.94,5.56-3.75,9.59-8.44,12.09-.13,0-.25-.03-.38-.09-.06-.12-.03-.22,.09-.28,3.38-2.44,5.28-6.34,5.72-11.72Zm6.75-2.25l.09,14.44c.06,1.37-1.06,2.22-3.38,2.53-.19-.06-.31-.16-.38-.28-.06-1.25-1-2.03-2.81-2.34-.25-.31-.22-.5,.09-.56,2.12,.38,3.31,.22,3.56-.47v-15.84c0-.87-.03-1.72-.09-2.53-.06-.12,.03-.22,.28-.28,1.56,.13,2.69,.38,3.38,.75,.12,.13,.12,.28,0,.47-.06,.06-.22,.16-.47,.28-.13,.06-.22,.13-.28,.19,.38,3,.97,5.53,1.78,7.59,1.19-1.12,2.5-2.78,3.94-4.97,.06,0,.19,.03,.38,.09,1.25,.88,2.19,1.63,2.81,2.25,0,.25-.03,.38-.09,.38-.19,.06-.62,.09-1.31,.09l-1.69,.84c-1.75,.88-3.03,1.47-3.84,1.78,1.75,4,4.5,6.69,8.25,8.06,.19,.19,.19,.34,0,.47-1.12-.12-2.19,.38-3.19,1.5-.19,.25-.38,.28-.56,.09-3.75-2.44-5.91-7.28-6.47-14.53Z"/>
        <path class="cls-4" d="M799.2,63.6c1.5,2.06,1.94,3.97,1.31,5.72-.38,.69-.88,1-1.5,.94-.75-.25-1.06-.72-.94-1.41,.06-.19,.19-.5,.38-.94,.81-1.25,1-2.66,.56-4.22,0-.12,.06-.16,.19-.09Zm4.69,16.22h-.09c0,.38-.34,.66-1.03,.84-.88,.12-1.34,.03-1.41-.28,.12-2.31,.19-4.06,.19-5.25v-14.81l-.09-1.22c0-.06,.03-.09,.09-.09,1,.13,1.91,.31,2.72,.56,.12,.13,.12,.25,0,.38-.13,.19-.28,.31-.47,.38v14.72c0,1.44,.03,3.03,.09,4.78Zm.38-16.5c1.5,.44,2.34,1.16,2.53,2.16,.06,.69-.22,1.19-.84,1.5-.62,.19-1.03-.03-1.22-.66-.06-.19-.06-.47,0-.84,.06-.81-.13-1.44-.56-1.88-.06-.12-.03-.22,.09-.28Zm5.06,2.25h2.44v-5.53c0-.12-.06-.34-.19-.66-.06-.31-.06-.5,0-.56,1.31,.06,2.38,.31,3.19,.75,0,.19-.16,.34-.47,.47v5.53h1.78c.12-.19,.34-.47,.66-.84,.44-.62,.75-1,.94-1.12,.12-.12,.25-.12,.38,0l.19,.09c1.5,1,2.34,1.66,2.53,1.97-.06,.25-.16,.38-.28,.38h-6.19v6h1.22c.25-.44,.72-1,1.41-1.69,.12-.12,.25-.12,.38,0,1.06,.5,1.84,1.09,2.34,1.78,.19,.19,.16,.31-.09,.38h-5.25v7.12h2.34c.69-.88,1.22-1.47,1.59-1.78,.06-.12,.16-.12,.28,0,1.62,.81,2.53,1.44,2.72,1.88,.06,.25,0,.38-.19,.38h-13.97c-.5,.06-1,.09-1.5,.09l-.56-.66c.31,.06,.59,.09,.84,.09h5.91v-7.12h-2.44c-.5,0-1,.03-1.5,.09l-.56-.66c.31,0,.59,.03,.84,.09h3.66v-6h-2.62c-.94,2-2.03,3.66-3.28,4.97-.13,.06-.22,0-.28-.19,1.12-2.37,1.84-5.59,2.16-9.66,.06-.12,.19-.16,.38-.09,1.12,.31,2.12,.66,3,1.03,.06,0,.09,.13,.09,.38-.56,.06-.88,.28-.94,.66-.25,.81-.56,1.63-.94,2.44Z"/>
        <path class="cls-4" d="M831.42,60.32l-3.75,3.75c1.44,.13,3.25,.19,5.44,.19-.13-1.06-.47-1.81-1.03-2.25-.13-.19-.09-.28,.09-.28,2.12,.31,3.44,1.16,3.94,2.53,.19,1-.06,1.75-.75,2.25-.88,.38-1.53,.19-1.97-.56-.06-.19-.13-.47-.19-.84-.06-.19-.09-.34-.09-.47-3.25,.88-5.59,1.56-7.03,2.06-.25,.13-.41,.06-.47-.19,0-.06-.06-.19-.19-.38-.38-.94-.59-1.53-.66-1.78-.06-.12-.03-.22,.09-.28l.09-.09c1.69-.38,2.91-2.12,3.66-5.25,.06-.12,.22-.19,.47-.19,1.62,.5,2.72,.84,3.28,1.03,.06,0,.09,.09,.09,.28-.13,.06-.28,.13-.47,.19-.25,.13-.44,.22-.56,.28Zm-4.97,17.62v-8.44l-.09-2.16c0-.06,.03-.09,.09-.09,1.12,.44,1.88,.78,2.25,1.03h3c.25-.38,.56-.69,.94-.94,.19-.12,.31-.12,.38,0,.38,.13,1.06,.47,2.06,1.03,.06,.06,.12,.09,.19,.09,.12,0,.16,.13,.09,.38-.06,.06-.13,.13-.19,.19-.25,.25-.41,.41-.47,.47l.19,10.12c.06,.87-.78,1.44-2.53,1.69-.13-.06-.22-.16-.28-.28-.13-1.12-.84-1.88-2.16-2.25-.13-.25-.09-.38,.09-.38,1.62,.12,2.44,.09,2.44-.09v-3h-3.75v4.88c0,.31-.34,.56-1.03,.75-.75,.19-1.19,.16-1.31-.09-.06-.19-.06-.66,0-1.41,.06-.69,.09-1.19,.09-1.5Zm2.25-9.19v2.81h3.75v-2.81h-3.75Zm0,3.28v2.72h3.75v-2.72h-3.75Zm10.5-8.16v1.41c-.06,.88,.44,1.28,1.5,1.22h1.59c2.19,.25,3.47-.84,3.84-3.28,.12-.12,.22-.12,.28,0-.25,1.25-.19,2.22,.19,2.91,.19,.31,.28,.63,.28,.94-.06,1.06-1.31,1.63-3.75,1.69h-3c-2.25,.06-3.31-.69-3.19-2.25v-6.19l-.09-1.5c0-.06,.06-.09,.19-.09,1.25,.19,2.16,.44,2.72,.75,.12,.06,.12,.19,0,.38-.06,.06-.16,.16-.28,.28-.13,.06-.22,.13-.28,.19v3c1.25-.75,2.56-1.81,3.94-3.19,.06-.12,.19-.12,.38,0,1.25,.94,2.03,1.56,2.34,1.88,.06,.06,.09,.16,.09,.28-.56,0-.94,.03-1.12,.09-.88,.25-2.22,.63-4.03,1.12-.75,.19-1.28,.31-1.59,.38Zm6.28,8.81l-5.81,1.97v2.34c-.06,.94,.44,1.38,1.5,1.31h1.78c1.62,.19,2.81-1,3.56-3.56,.12-.19,.19-.19,.19,0-.38,1.38-.28,2.5,.28,3.38l.19,.28c-.13,1.19-1.12,1.84-3,1.97h-3.28c-2.38,.06-3.53-.72-3.47-2.34v-8.72c1.37,.06,2.31,.22,2.81,.47,.12,.13,.12,.25,0,.38,.06,0,.06,.03,0,.09-.06,.06-.22,.22-.47,.47l-.09,.09v3.38c.94-.87,2.25-2.22,3.94-4.03,.12-.12,.25-.16,.38-.09,.12,.13,.47,.41,1.03,.84,.94,.75,1.47,1.19,1.59,1.31,.12,.19,.12,.31,0,.38h-.56c-.25,0-.44,.03-.56,.09Z"/>
        <path class="cls-4" d="M862.32,67.25h.19c1.44,.13,2.25,1,2.44,2.62v.19c-.13,1.5-.94,2.31-2.44,2.44h-.09c-1.69-.12-2.59-.94-2.72-2.44v-.19c.12-1.62,1-2.5,2.62-2.62Zm.09,4.78h.09c1.19-.12,1.84-.78,1.97-1.97v-.19c-.13-1.31-.78-2.03-1.97-2.16h-.19c-1.25,.13-1.97,.84-2.16,2.16v.09c.06,1.31,.81,2,2.25,2.06Z"/>
      </g>
      <g>
        <g>
          <path class="cls-2" d="M195.48,128.89c0-.97,.27-1.74,.82-2.33,.55-.59,1.27-.88,2.16-.88s1.6,.3,2.15,.89,.82,1.37,.82,2.33-.27,1.74-.82,2.33c-.55,.59-1.27,.88-2.17,.88s-1.6-.29-2.14-.88c-.55-.59-.82-1.37-.82-2.33Zm3.79,0c0-.79-.06-1.36-.19-1.72-.13-.35-.33-.53-.62-.53s-.5,.18-.63,.53-.2,.92-.2,1.72,.06,1.37,.19,1.72c.13,.35,.34,.52,.63,.52s.5-.17,.62-.52,.19-.92,.19-1.72Z"/>
          <path class="cls-2" d="M203,127.51v-.89c.41-.03,.73-.11,.97-.24,.24-.13,.4-.31,.48-.54h1.58v4.8c0,.17,.04,.28,.13,.33s.28,.08,.58,.08h.23v.88h-3.97v-.88h.27c.32,0,.52-.03,.62-.08,.1-.05,.15-.22,.15-.49v-2.97h-1.04Z"/>
        </g>
        <line class="cls-5" x1="681.46" y1="155.34" x2="698.05" y2="155.34"/>
        <line class="cls-5" x1="618.13" y1="155.34" x2="634.72" y2="155.34"/>
        <line class="cls-5" x1="554.8" y1="155.34" x2="571.4" y2="155.34"/>
        <line class="cls-5" x1="491.48" y1="155.34" x2="508.07" y2="155.34"/>
        <line class="cls-5" x1="428.15" y1="155.34" x2="444.74" y2="155.34"/>
        <line class="cls-5" x1="364.82" y1="155.34" x2="381.42" y2="155.34"/>
        <line class="cls-5" x1="301.5" y1="155.34" x2="318.09" y2="155.34"/>
        <line class="cls-5" x1="238.17" y1="155.34" x2="254.76" y2="155.34"/>
        <g>
          <path class="cls-4" d="M207.56,146.75c-.28,1.78-.68,3.78-1.12,5.04-.18-.08-.58-.24-.82-.32,.48-1.3,.84-3.18,1.08-4.88l.86,.16Zm4.12-5.3c.56,1.32,1.14,3.08,1.38,4.12l-.88,.28c-.06-.36-.18-.8-.32-1.28-4.8,.7-5.36,.84-5.72,1.02-.06-.22-.2-.7-.32-.96,.36-.08,.86-.58,1.44-1.3,.36-.4,1.14-1.42,2.02-2.66-2.56,.28-3,.38-3.26,.5-.04-.22-.2-.68-.32-.94,.32-.08,.68-.52,1.12-1.12,.44-.62,1.98-2.96,2.9-5.18l.92,.42c-1,2.02-2.22,4.08-3.44,5.68l2.68-.28c.54-.82,1.08-1.74,1.56-2.62l.86,.46c-1.44,2.46-3.12,4.9-4.8,6.74l4.14-.56c-.24-.72-.52-1.48-.8-2.12l.84-.2Zm-1.98,5.1c.26,1.44,.52,3.3,.6,4.54l-.84,.14c-.06-1.24-.3-3.1-.56-4.54l.8-.14Zm1.94-.44c.48,1.24,1,2.84,1.2,3.88l-.78,.26c-.22-1.06-.7-2.7-1.18-3.94l.76-.2Zm7.14-8.42v3.68h4.32v.9h-9.26v-.9h3.98v-3.68h-4.6v-.92h4.6v-2.82h.96v2.82h4.9v.92h-4.9Zm-4.54,6.98h8.26v7.34h-.94v-.78h-6.4v.86h-.92v-7.42Zm.92,.9v4.76h6.4v-4.76h-6.4Z"/>
          <path class="cls-4" d="M211.7,166.15c-.3-.62-1.18-2-1.82-3v9.9h-.92v-10.36c-.74,2.48-1.78,5.02-2.8,6.48-.14-.24-.4-.62-.6-.8,1.3-1.74,2.64-5.14,3.26-8.06h-2.86v-.9h3v-4.44h.92v4.44h2.46v.9h-2.46v1.66c.56,.7,2.06,2.9,2.42,3.44l-.6,.74Zm12.4,3.58h-1.38v2.18c0,.58-.14,.86-.58,1.02-.46,.14-1.28,.14-2.62,.14-.06-.22-.2-.58-.32-.84,1.08,.04,1.98,.02,2.26,.02,.26-.02,.34-.1,.34-.32v-2.2h-7.56v3.34h-.92v-3.34h-1.44v-.8h1.44v-5.08h4.14v-1.46h-5.24v-.82h2.96v-1.66h-2.08v-.78h2.08v-1.62h-2.44v-.8h2.44v-1.74h.9v1.74h3.82v-1.74h.92v1.74h2.62v.8h-2.62v1.62h2.34v.78h-2.34v1.66h3.06v.82h-5.52v1.46h4.36v5.08h1.38v.8Zm-9.86-5.08v1.7h3.22v-1.7h-3.22Zm0,4.28h3.22v-1.8h-3.22v1.8Zm1.84-9.8h3.82v-1.62h-3.82v1.62Zm0,2.44h3.82v-1.66h-3.82v1.66Zm2.28,3.08v1.7h3.44v-1.7h-3.44Zm3.44,4.28v-1.8h-3.44v1.8h3.44Z"/>
          <path class="cls-4" d="M205.88,179.41h6.48v.86h-6.48v-.86Zm6.06,13.42h-4.38v1h-.88v-6.68h5.26v5.68Zm-.02-10.04h-5.2v-.82h5.2v.82Zm-5.2,1.76h5.2v.84h-5.2v-.84Zm.84,3.46v3.96h3.5v-3.96h-3.5Zm1.82-9.1c-.32-.72-.98-1.82-1.54-2.6l.76-.42c.6,.8,1.26,1.82,1.58,2.54l-.8,.48Zm6.56,11.74c1.02-.28,2.1-.6,3.16-.92l.1,.84c-2.28,.72-4.64,1.44-6.44,1.98l-.32-.94c.72-.2,1.6-.42,2.58-.7v-5.86h-2.36v-.88h5.68v.88h-2.4v5.6Zm3.88-9.66c.36,7.36,1.5,12.2,2.76,12.2,.38,0,.56-1.06,.64-3.42,.22,.18,.54,.4,.78,.48-.18,2.9-.48,3.9-1.52,3.9-2.08,0-3.18-5.56-3.56-13.16h-6.02v-.92h5.96c-.04-1.3-.08-2.64-.1-4.02h.96c0,1.4,.02,2.74,.06,4.02h4.14v.92h-4.1Zm2.52-1.48c-.36-.72-1.14-1.84-1.84-2.66l.7-.4c.72,.78,1.54,1.86,1.86,2.56l-.72,.5Z"/>
          <path class="cls-4" d="M212.88,202.45c-1.02,5.1-3.48,8.64-6.32,10.58-.16-.24-.52-.6-.76-.74,2.66-1.7,4.92-4.84,5.92-9.1h-5.32v-.96h5.66l.2-.04,.62,.26Zm9.28-.94c-1.28,1.54-3.02,3.44-4.42,4.68,1.82,2.52,4.08,4.72,6.44,5.86-.26,.2-.56,.56-.72,.82-3.24-1.7-6.22-5.28-8.16-9.18v9.96c0,.78-.22,1.1-.7,1.28-.5,.18-1.36,.2-2.82,.2-.08-.3-.24-.74-.4-1.04,1.18,.04,2.2,.04,2.48,.02,.32-.02,.44-.1,.44-.44v-16.64h1v4.8c.52,1.24,1.2,2.48,1.98,3.66,1.34-1.28,3.02-3.18,4.02-4.6l.86,.62Z"/>
        </g>
        <g>
          <path class="cls-2" d="M258.8,128.89c0-.97,.27-1.74,.82-2.33,.55-.59,1.27-.88,2.16-.88s1.6,.3,2.15,.89,.82,1.37,.82,2.33-.27,1.74-.82,2.33c-.55,.59-1.27,.88-2.17,.88s-1.6-.29-2.14-.88c-.55-.59-.82-1.37-.82-2.33Zm3.79,0c0-.79-.06-1.36-.19-1.72-.13-.35-.33-.53-.62-.53s-.5,.18-.63,.53-.2,.92-.2,1.72,.06,1.37,.19,1.72c.13,.35,.34,.52,.63,.52s.5-.17,.62-.52,.19-.92,.19-1.72Z"/>
          <path class="cls-2" d="M265.47,131.94s0-.06,0-.11,0-.08,0-.11c0-.46,.09-.86,.28-1.21,.18-.34,.49-.68,.92-1.02,.17-.14,.44-.32,.81-.54,.37-.22,.63-.4,.8-.52,.13-.1,.23-.22,.31-.37,.07-.15,.11-.31,.11-.48,0-.26-.09-.46-.28-.62-.19-.15-.44-.22-.77-.22-.21,0-.39,.03-.56,.1-.16,.07-.31,.17-.43,.3h.05c.24,0,.42,.06,.55,.19,.13,.12,.2,.3,.2,.52,0,.29-.09,.52-.27,.69-.18,.17-.42,.25-.73,.25s-.56-.1-.74-.29c-.18-.19-.27-.45-.27-.78,0-.6,.25-1.09,.75-1.48,.5-.39,1.15-.58,1.94-.58s1.45,.19,1.94,.57c.5,.38,.75,.88,.75,1.49,0,.5-.16,.9-.49,1.21-.33,.31-.9,.59-1.72,.83-.09,.03-.23,.06-.41,.11-.8,.22-1.25,.49-1.35,.79,.22-.12,.44-.21,.65-.26s.42-.09,.64-.09,.49,.04,.82,.12c.33,.08,.54,.12,.64,.12,.14,0,.25-.06,.31-.17s.1-.28,.1-.51v-.09h1.02s0,.09,0,.14,0,.12,0,.21c0,.69-.14,1.19-.42,1.5-.28,.31-.71,.47-1.31,.47-.36,0-.8-.08-1.32-.23s-.85-.23-.99-.23c-.13,0-.24,.02-.32,.07-.08,.05-.14,.12-.17,.23h-1.05Z"/>
        </g>
        <g>
          <path class="cls-4" d="M276.33,146.67s-.02,.32-.06,.44c-.28,2.84-.5,3.98-1,4.4-.3,.28-.6,.38-1.16,.38-.48,.04-1.56,.02-2.64-.04-.02-.28-.14-.62-.3-.86,1.16,.1,2.3,.12,2.66,.12,.38,0,.58-.02,.72-.18,.34-.3,.58-1.22,.8-3.44h-4.86c.22-1.12,.5-2.82,.66-4.12h4.22v-2.54h-3.58v-.2c-.82,.44-1.64,.8-2.46,1.06-.12-.24-.36-.56-.56-.74,1.42-.44,2.92-1.16,4.24-2.08-.58-.66-1.56-1.48-2.46-2.06l.6-.54c.9,.56,1.96,1.4,2.56,2.08,.94-.78,1.74-1.64,2.3-2.6h-5v-.86h5.56l.18-.04,.58,.32c-.92,2.04-2.56,3.64-4.46,4.84h3.4v4.18h-4.4c-.1,.84-.24,1.74-.36,2.48h4.82Zm10.28-10.04c-.88,.86-2.08,1.76-3.08,2.42,1.14,.7,2.4,1.26,3.74,1.6-.2,.2-.44,.54-.58,.76-1.14-.34-2.22-.82-3.24-1.4v3.24c0,.44,.06,.56,.36,.56h1.8c.24,0,.68-.02,.92-.06,0,.22,.04,.5,.06,.72-.2,.04-.6,.04-.96,.04h-1.9c-.94,0-1.14-.34-1.14-1.28v-2.44h-3.26v.84c0,1.2-.42,2.56-2.18,3.52-.14-.16-.44-.48-.64-.6,1.64-.86,1.96-1.96,1.96-2.94v-1.64h4.52v.02h.44c-2.34-1.38-4.24-3.38-5.36-5.74l.8-.26c.44,.96,1.04,1.86,1.78,2.66,.98-.7,2.24-1.76,2.94-2.54l.74,.52c-.92,.9-2.16,1.88-3.16,2.58,.52,.5,1.06,.98,1.68,1.38,1.02-.68,2.28-1.72,3.04-2.46l.72,.5Zm-1.48,9.32c-.62,1.46-1.62,2.66-2.82,3.62,1.14,.74,2.2,1.42,2.94,1.96l-.5,.64c-.78-.58-1.86-1.32-3.1-2.12-1.4,.96-3.02,1.62-4.66,2.08-.08-.24-.28-.56-.46-.74,1.5-.36,3.04-.96,4.38-1.82-1.14-.72-2.32-1.42-3.36-2.04l.48-.5c1.1,.62,2.34,1.34,3.54,2.08,.96-.72,1.76-1.6,2.34-2.6h-6.54v-.78h7.04l.16-.04,.56,.26Z"/>
          <path class="cls-4" d="M272.73,163.55c-.8-.68-2.34-1.62-3.64-2.18l.54-.7c1.26,.52,2.86,1.4,3.64,2.06l-.54,.82Zm-3,8.6c1.08-1.54,2.68-4.26,3.8-6.5l.7,.6c-1.06,2.14-2.52,4.74-3.7,6.56l-.8-.66Zm4.16-14c-.8-.74-2.4-1.68-3.78-2.26l.54-.7c1.34,.54,3,1.44,3.82,2.14l-.58,.82Zm3.38-.04c-.82,1.76-1.82,3.34-2.88,4.54-.16-.18-.54-.52-.76-.7,1.66-1.72,3.04-4.34,3.88-7.08l.94,.24c-.24,.7-.5,1.42-.8,2.1h8.38v.52c-.04,7.06-.08,9.26-.48,9.88-.26,.38-.58,.5-1.06,.54-.44,.02-1.22,.02-1.98-.02-.02-.3-.12-.66-.28-.92,.84,.08,1.62,.08,1.92,.08,.26,0,.42-.02,.56-.26,.28-.44,.34-2.6,.38-8.92h-7.82Zm7.58,13.48c1.2,0,1.4-.44,1.54-2.48,.24,.16,.62,.3,.9,.36-.18,2.32-.54,3-2.48,3h-5.88c-2.16,0-2.8-.4-2.8-2.04v-9.78h6.9v5.84h-5.98v3.96c0,.9,.3,1.14,1.84,1.14h5.96Zm-7.8-10.08v4.1h5.1v-4.1h-5.1Z"/>
        </g>
        <g>
          <path class="cls-2" d="M322.13,128.89c0-.97,.27-1.74,.82-2.33,.55-.59,1.27-.88,2.16-.88s1.6,.3,2.15,.89,.82,1.37,.82,2.33-.27,1.74-.82,2.33c-.55,.59-1.27,.88-2.17,.88s-1.6-.29-2.14-.88c-.55-.59-.82-1.37-.82-2.33Zm3.79,0c0-.79-.06-1.36-.19-1.72-.13-.35-.33-.53-.62-.53s-.5,.18-.63,.53-.2,.92-.2,1.72,.06,1.37,.19,1.72c.13,.35,.34,.52,.63,.52s.5-.17,.62-.52,.19-.92,.19-1.72Z"/>
          <path class="cls-2" d="M331.05,129.19v-.84c.35-.02,.62-.09,.79-.21,.17-.12,.25-.31,.25-.56,0-.29-.1-.53-.3-.71-.2-.18-.47-.27-.8-.27-.2,0-.37,.03-.51,.09-.14,.06-.25,.15-.35,.27,.19,0,.34,.06,.45,.18,.12,.12,.18,.28,.18,.47,0,.26-.08,.46-.24,.6s-.39,.21-.68,.21-.52-.08-.7-.26-.27-.39-.27-.67c0-.55,.25-.99,.76-1.32,.5-.33,1.19-.49,2.05-.49,.76,0,1.36,.15,1.78,.44,.43,.29,.64,.7,.64,1.23,0,.33-.09,.6-.28,.82s-.46,.39-.83,.5c.45,.15,.79,.35,1.01,.61,.22,.26,.33,.59,.33,.98,0,.58-.24,1.03-.72,1.36-.48,.33-1.14,.49-1.99,.49-.95,0-1.68-.14-2.17-.42-.49-.28-.74-.69-.74-1.23,0-.32,.11-.59,.32-.8,.21-.21,.48-.31,.8-.31,.29,0,.52,.08,.69,.23s.26,.37,.26,.62c0,.23-.06,.41-.19,.53-.13,.12-.33,.19-.61,.22,.13,.08,.28,.14,.44,.17,.16,.04,.34,.06,.54,.06,.39,0,.69-.09,.9-.27,.21-.18,.32-.43,.32-.76,0-.31-.1-.55-.29-.71-.19-.17-.47-.25-.84-.25Z"/>
        </g>
        <g>
          <path class="cls-4" d="M337.16,147.89h3.68v.84h-3.68v3.26h-.92v-3.26h-3.8v-.84h3.8v-2.1h-3.02v-6.92h3.02v-2h-3.6v-.84h3.6v-2.08h.94v2.08h3.6v.84h-3.6v2h3.1v6.92h-3.12v2.1Zm-3.06-5.96h5.28v-2.24h-5.28v2.24Zm0,3.04h5.28v-2.3h-5.28v2.3Zm9.12-6.9c-.54,1.06-1.12,2-1.76,2.76-.16-.14-.56-.44-.78-.56,1.34-1.54,2.48-3.84,3.16-6.2l.92,.24c-.3,.96-.66,1.92-1.08,2.84h6.74v.92h-7.2Zm5.62,12.8c.72,0,.88-.4,.94-2.98,.24,.14,.58,.28,.84,.32-.14,3.14-.48,3.56-1.8,3.56h-4.86c-1.52,0-2.18-.5-2.18-1.46,0-.82,.2-1.9,5.52-8.32h-5.12v-.9h6.04l.18-.02,.66,.24c-.04,.06-.08,.16-.14,.22-5.8,6.98-6.2,8-6.2,8.66,0,.48,.5,.68,1.2,.68h4.92Z"/>
          <path class="cls-4" d="M337.46,170.57c-.34-.62-1.24-1.98-1.92-2.92-.38,1.94-1.12,3.78-2.48,5.42-.16-.18-.44-.46-.66-.62,2.44-3,2.72-6.78,2.72-10.48v-6.74h.86v6.74c0,1.56-.04,3.12-.26,4.6,.62,.76,2.06,2.78,2.42,3.28l-.68,.72Zm-3.96-6.86c-.2-1.24-.66-3.44-1.1-5.1l.7-.16c.48,1.7,.96,3.84,1.16,5.04l-.76,.22Zm5.08-4.86c-.42,1.44-.96,3.32-1.4,4.46l-.7-.22c.42-1.2,.94-3.18,1.18-4.5l.92,.26Zm4.08,9.64c-1.12,1.32-2.62,2.84-3.88,3.84-.16-.16-.5-.48-.72-.6,1.28-.94,2.74-2.32,3.76-3.56l.84,.32Zm7.76-1.78v.86h-5.66v5.5h-.94v-5.5h-5.48v-.86h5.48v-1.94h.94v1.94h5.66Zm-6.82-2h-4.72v-4.02h4.72v4.02Zm-.88-3.24h-3v2.46h3v-2.46Zm5.32-1.98h-7.3v-3.88h7.3v3.88Zm-.92-3.08h-5.5v2.26h5.5v-2.26Zm-2.06,4.28h4.82v4.02h-4.82v-4.02Zm1.36,7.46c1.44,1.06,3.08,2.56,3.88,3.54l-.64,.64c-.76-1.02-2.4-2.56-3.82-3.64l.58-.54Zm-.52-4.22h3.12v-2.46h-3.12v2.46Z"/>
        </g>
        <g>
          <path class="cls-2" d="M385.46,128.89c0-.97,.27-1.74,.82-2.33,.55-.59,1.27-.88,2.16-.88s1.6,.3,2.15,.89,.82,1.37,.82,2.33-.27,1.74-.82,2.33c-.55,.59-1.27,.88-2.17,.88s-1.6-.29-2.14-.88c-.55-.59-.82-1.37-.82-2.33Zm3.79,0c0-.79-.06-1.36-.19-1.72-.13-.35-.33-.53-.62-.53s-.5,.18-.63,.53-.2,.92-.2,1.72,.06,1.37,.19,1.72c.13,.35,.34,.52,.63,.52s.5-.17,.62-.52,.19-.92,.19-1.72Z"/>
          <path class="cls-2" d="M396.88,130.19v.45c0,.17,.04,.28,.13,.33s.28,.08,.58,.08h.24v.88h-3.88v-.88h.27c.31,0,.52-.03,.62-.08,.1-.06,.15-.22,.15-.5v-.28h-3.01v-1.07l3.02-3.28h1.88v3.5h.95v.85h-.95Zm-3.81-.85h1.92l.02-2.13-1.94,2.13Z"/>
        </g>
        <g>
          <path class="cls-4" d="M398.9,142.35c-.74-.56-2.14-1.4-3.24-1.98l.5-.72c1.06,.56,2.5,1.38,3.24,1.88l-.5,.82Zm-2.76,8.86c.98-1.6,2.36-4.3,3.36-6.54l.7,.56c-.92,2.12-2.22,4.74-3.24,6.54l-.82-.56Zm3.74-13.9c-.74-.64-2.14-1.66-3.22-2.42l.56-.62c1.08,.68,2.52,1.68,3.24,2.3l-.58,.74Zm13.96,3.14v.82h-13.42v-.82h6.44v-1.82h-5.3v-.78h5.3v-1.64h-5.78v-.82h5.78v-1.42h.96v1.42h5.66v.82h-5.66v1.64h5v.78h-5v1.82h6.02Zm-1.62,10.4c0,.6-.14,.86-.58,1.02-.46,.16-1.26,.16-2.6,.16-.06-.26-.2-.6-.34-.84,1.04,.02,1.94,.02,2.2,0,.28-.02,.36-.08,.36-.32v-2.06h-8c-.2,1.22-.54,2.48-1.26,3.48-.12-.22-.5-.58-.72-.68,1.06-1.56,1.2-3.64,1.2-5.22v-3.68h9.74v8.14Zm-.96-2.82v-1.88h-7.84v.26c0,.5-.02,1.06-.08,1.62h7.92Zm-7.84-4.52v1.88h7.84v-1.88h-7.84Z"/>
          <path class="cls-4" d="M396.26,160.75c1.06,.62,2.32,1.6,2.98,2.3l-.62,.76c-.6-.72-1.86-1.74-2.94-2.42l.58-.64Zm2.24,5.18l.72,.58c-.74,2.04-1.76,4.5-2.62,6.26l-.8-.58c.8-1.52,1.92-4.1,2.7-6.26Zm-1.72-10.76c1.02,.66,2.2,1.66,2.76,2.38l-.58,.72c-.54-.76-1.72-1.8-2.74-2.48l.56-.62Zm7.58,14.52c-.98,1.1-2.6,2.1-3.96,2.78-.12-.18-.28-.5-.44-.7,1.34-.62,2.92-1.64,3.58-2.56l.82,.48Zm-4.22-8.54c.76-.06,1.68-.14,2.7-.24v-1.34h-2.32v-.76h2.32v-1.36h-2.56v-.76h2.56v-1.3h.86v1.3h2.52v.76h-2.52v1.36h2.26v.76h-2.26v1.26l2.62-.24,.02,.74-2.64,.28v1.42h-.86v-1.32c-.94,.1-1.8,.18-2.56,.26l-.14-.82Zm10.44,4.34c.96,.98,2.06,2.26,2.54,3.06l-.72,.5c-.18-.32-.44-.7-.76-1.12l-4.64,.28v3.44c0,.52-.1,.72-.5,.88-.42,.16-1.12,.16-2.22,.16-.06-.26-.22-.54-.34-.8,.94,.02,1.62,.04,1.86,.02,.24-.02,.28-.08,.28-.26v-3.38c-4.22,.26-4.82,.32-5.24,.46-.04-.18-.2-.6-.34-.8,.5-.04,1.2-.24,2.02-.58,.56-.2,1.9-.8,3.42-1.58-3.6,.18-4.12,.26-4.46,.36-.04-.18-.18-.62-.3-.82,.36-.02,.76-.14,1.24-.4,.52-.22,2.16-1.18,3.34-2.18l.8,.52c-.94,.72-1.94,1.36-2.98,1.9l3.8-.16c.48-.28,.98-.56,1.42-.86l.88,.46c-2.04,1.24-4.08,2.24-6.1,3.04l7.5-.42c-.38-.46-.76-.9-1.14-1.3l.64-.42Zm-.8-8.42c-.26,2.52-.96,4.58-2.84,5.76-.12-.18-.4-.48-.6-.6,1.72-1.02,2.34-2.94,2.56-5.16h-2v-.8h6.2s0,.32-.02,.46c-.18,3.64-.36,4.98-.74,5.4-.26,.26-.52,.38-.94,.4-.34,.02-.96,.02-1.58-.02-.02-.26-.12-.6-.22-.84,.66,.08,1.24,.08,1.48,.08s.4-.02,.52-.16c.24-.32,.42-1.46,.58-4.52h-2.4Zm-.54,12.18c1.3,.82,2.96,1.98,3.8,2.66l-.52,.68c-.86-.72-2.52-1.94-3.82-2.78l.54-.56Z"/>
        </g>
        <g>
          <path class="cls-2" d="M448.79,128.89c0-.97,.27-1.74,.82-2.33,.55-.59,1.27-.88,2.16-.88s1.6,.3,2.15,.89,.82,1.37,.82,2.33-.27,1.74-.82,2.33c-.55,.59-1.27,.88-2.17,.88s-1.6-.29-2.14-.88c-.55-.59-.82-1.37-.82-2.33Zm3.79,0c0-.79-.06-1.36-.19-1.72-.13-.35-.33-.53-.62-.53s-.5,.18-.63,.53-.2,.92-.2,1.72,.06,1.37,.19,1.72c.13,.35,.34,.52,.63,.52s.5-.17,.62-.52,.19-.92,.19-1.72Z"/>
          <path class="cls-2" d="M455.84,128.84l.18-3.14c.58,.05,1.04,.08,1.38,.1s.64,.03,.87,.03c.61,0,1.22-.06,1.83-.19,.14-.03,.23-.04,.26-.04,.05,0,.1,.02,.13,.07,.04,.05,.06,.11,.06,.18,0,.3-.24,.58-.71,.85-.47,.27-1.02,.4-1.66,.4-.12,0-.28,0-.47-.02-.19-.01-.43-.03-.72-.06l-.04,.79c.18-.1,.38-.18,.59-.23,.21-.05,.45-.08,.72-.08,.81,0,1.45,.21,1.92,.62s.7,.97,.7,1.67-.27,1.25-.81,1.67-1.25,.64-2.14,.64c-.77,0-1.39-.16-1.84-.48s-.67-.76-.67-1.31c0-.31,.1-.56,.3-.75,.2-.19,.46-.28,.78-.28,.28,0,.51,.08,.69,.24s.27,.36,.27,.61-.05,.42-.16,.54c-.11,.12-.29,.2-.54,.25,.12,.1,.25,.18,.38,.23,.13,.05,.26,.08,.41,.08,.36,0,.65-.13,.87-.4s.34-.62,.34-1.05c0-.39-.09-.7-.28-.92s-.44-.34-.75-.34c-.15,0-.29,.03-.42,.08-.13,.05-.26,.14-.38,.25h-1.08Z"/>
        </g>
        <g>
          <path class="cls-4" d="M461.61,136.97v4.94c0,3-.24,7.3-1.9,10.28-.18-.18-.58-.46-.8-.54,1.6-2.88,1.76-6.86,1.76-9.74v-5.84h8.02c-.28-.56-.68-1.24-1.08-1.74l.88-.32c.52,.6,1.02,1.44,1.32,2.06h7.24v.9h-15.44Zm9.92,7.6c.86,3.86,2.46,6.36,3.98,6.36,.5,0,.7-.9,.8-3,.22,.18,.54,.36,.8,.42-.18,2.68-.56,3.5-1.66,3.5-2.1,0-3.92-2.96-4.86-7.28h-5.34v4.24l4.18-1.02c-.02,.26,0,.62,.02,.82-4.42,1.14-4.96,1.32-5.28,1.52-.08-.24-.28-.66-.4-.88,.22-.1,.56-.32,.56-1.04v-8.94c3.6-.18,7.96-.54,10.3-1.04l.78,.72c-1.24,.26-2.82,.5-4.48,.68,.04,1.44,.2,2.8,.44,4.06h5.16v.88h-5Zm-1.1-.88c-.22-1.26-.38-2.58-.46-4-1.56,.16-3.2,.26-4.72,.34v3.66h5.18Zm-3.4,6.78h5.28v.84h-5.28v-.84Z"/>
          <path class="cls-4" d="M468.61,171.57h8.54v.84h-18.06v-.84h8.56v-2.18h-6.44v-.84h6.44v-1.2h.96v1.2h6.74v.84h-6.74v2.18Zm-6.68-10.54c-.62-.56-1.82-1.36-2.82-1.86l.54-.66c1,.5,2.22,1.24,2.82,1.8l-.54,.72Zm-2.32,5.94c.82-1.06,2.02-2.84,2.96-4.4l.62,.54c-.88,1.46-1.96,3.2-2.88,4.44l-.7-.58Zm3.64-9.18c-.6-.6-1.82-1.44-2.82-2.02l.58-.6c1,.52,2.22,1.34,2.82,1.9l-.58,.72Zm7.42-2.56c-.12,.16-.24,.32-.38,.46,1.46,1.46,4.36,2.88,6.92,3.42-.22,.22-.52,.56-.66,.82-2.46-.62-5.2-2.1-6.76-3.66-1.62,1.64-3.86,3.02-6.08,3.86-.16-.22-.4-.54-.6-.74,2.58-.9,5.32-2.56,6.76-4.5l.8,.34Zm-3.3,8.2c-.78,1.12-2.06,2.3-3.3,3.1-.16-.16-.44-.38-.66-.52,1.24-.76,2.48-1.94,3.14-2.94l.82,.36Zm1.98,3.34v-4.48h-5.14v-.82h5.14v-1.68h-3.18v-.8h7.36v.8h-3.26v1.68h5.3v.82h-5.3v4.48h-.92Zm6.3-.32c-.72-.8-2.18-2.04-3.36-2.9l.66-.52c1.16,.86,2.64,2.08,3.36,2.84l-.66,.58Z"/>
        </g>
        <g>
          <path class="cls-2" d="M512.11,128.89c0-.97,.27-1.74,.82-2.33,.55-.59,1.27-.88,2.16-.88s1.6,.3,2.15,.89,.82,1.37,.82,2.33-.27,1.74-.82,2.33c-.55,.59-1.27,.88-2.17,.88s-1.6-.29-2.14-.88c-.55-.59-.82-1.37-.82-2.33Zm3.79,0c0-.79-.06-1.36-.19-1.72-.13-.35-.33-.53-.62-.53s-.5,.18-.63,.53-.2,.92-.2,1.72,.06,1.37,.19,1.72c.13,.35,.34,.52,.63,.52s.5-.17,.62-.52,.19-.92,.19-1.72Z"/>
          <path class="cls-2" d="M520.88,128.46c.23-.13,.46-.22,.69-.28,.23-.06,.46-.09,.69-.09,.62,0,1.12,.18,1.51,.54,.38,.36,.57,.83,.57,1.42,0,.64-.22,1.15-.67,1.51-.45,.37-1.06,.55-1.85,.55-.94,0-1.68-.26-2.2-.8-.52-.53-.78-1.28-.78-2.24,0-1.05,.29-1.88,.86-2.49,.57-.61,1.35-.91,2.33-.91,.63,0,1.14,.13,1.53,.39,.39,.26,.58,.6,.58,1.02,0,.26-.09,.47-.26,.62-.17,.15-.41,.23-.7,.23-.27,0-.49-.07-.66-.21s-.26-.32-.26-.53c0-.13,.03-.24,.09-.34,.06-.1,.14-.18,.26-.25-.07-.02-.14-.04-.21-.05-.07-.01-.14-.02-.2-.02-.4,0-.72,.17-.95,.51s-.36,.8-.36,1.39v.03Zm.79,2.8c.21,0,.38-.1,.5-.3s.19-.47,.19-.8-.06-.6-.19-.8-.29-.3-.5-.3-.38,.1-.5,.3c-.12,.2-.19,.47-.19,.81s.06,.61,.19,.8c.12,.2,.29,.29,.5,.29Z"/>
        </g>
        <g>
          <path class="cls-4" d="M529.04,135.19c-.64,1.66-1.52,3.68-2.3,5.34,1.72,1.78,2.12,3.3,2.12,4.64,0,.96-.2,1.82-.76,2.18-.26,.18-.64,.32-1.02,.36-.46,.04-1.04,.04-1.5,0-.02-.26-.12-.64-.3-.9,.56,.04,1.06,.04,1.46,.04,.3-.02,.54-.1,.74-.22,.36-.24,.48-.9,.48-1.54,0-1.22-.46-2.68-2.18-4.42,.76-1.64,1.52-3.54,2.04-4.96h-3.68v16.38h-.92v-17.28h5.02l.16-.04,.64,.42Zm4.16,3.16c-.04,1.18-.1,2.3-.2,3.42h6.12v.52c-.28,6.38-.48,8.58-1.1,9.26-.34,.38-.66,.5-1.26,.54-.56,.04-1.72,0-2.82-.06-.02-.3-.12-.68-.28-.96,1.2,.12,2.38,.12,2.78,.12,.38,.02,.58-.02,.76-.22,.46-.5,.72-2.6,.94-8.3h-5.22c-.46,3.98-1.64,7.42-5.1,9.38-.14-.22-.46-.5-.68-.68,4.52-2.46,4.94-7.6,5.1-13.02h-3.54v-.92h11.64v.92h-7.14Zm1.32-1.04c-.18-.76-.62-2.06-.98-3.02l.88-.2c.36,.96,.82,2.22,1,2.94l-.9,.28Z"/>
          <path class="cls-4" d="M529.52,160.45c-1.02,5.1-3.48,8.64-6.32,10.58-.16-.24-.52-.6-.76-.74,2.66-1.7,4.92-4.84,5.92-9.1h-5.32v-.96h5.66l.2-.04,.62,.26Zm9.28-.94c-1.28,1.54-3.02,3.44-4.42,4.68,1.82,2.52,4.08,4.72,6.44,5.86-.26,.2-.56,.56-.72,.82-3.24-1.7-6.22-5.28-8.16-9.18v9.96c0,.78-.22,1.1-.7,1.28-.5,.18-1.36,.2-2.82,.2-.08-.3-.24-.74-.4-1.04,1.18,.04,2.2,.04,2.48,.02,.32-.02,.44-.1,.44-.44v-16.64h1v4.8c.52,1.24,1.2,2.48,1.98,3.66,1.34-1.28,3.02-3.18,4.02-4.6l.86,.62Z"/>
        </g>
        <g>
          <path class="cls-2" d="M575.44,128.89c0-.97,.27-1.74,.82-2.33,.55-.59,1.27-.88,2.16-.88s1.6,.3,2.15,.89,.82,1.37,.82,2.33-.27,1.74-.82,2.33c-.55,.59-1.27,.88-2.17,.88s-1.6-.29-2.14-.88c-.55-.59-.82-1.37-.82-2.33Zm3.79,0c0-.79-.06-1.36-.19-1.72-.13-.35-.33-.53-.62-.53s-.5,.18-.63,.53-.2,.92-.2,1.72,.06,1.37,.19,1.72c.13,.35,.34,.52,.63,.52s.5-.17,.62-.52,.19-.92,.19-1.72Z"/>
          <path class="cls-2" d="M583.7,131.93s0-.08,0-.12c0-.05,0-.12,0-.21,0-.5,.07-.95,.21-1.35,.14-.4,.36-.79,.66-1.16,.15-.19,.44-.47,.87-.85,.43-.38,.75-.7,.97-.94-.15,.07-.3,.12-.45,.16-.15,.04-.29,.05-.44,.05-.22,0-.47-.03-.76-.08-.29-.06-.47-.09-.55-.09-.26,0-.44,.08-.56,.23-.11,.15-.17,.41-.17,.76,0,.09,0,.16,0,.21,0,.05,0,.09,0,.13h-1.13v-2.83h1.14v.62c.13-.25,.31-.43,.52-.56,.21-.12,.46-.19,.75-.19,.33,0,.71,.08,1.12,.25,.42,.16,.67,.25,.77,.25,.11,0,.19-.03,.25-.08,.06-.05,.09-.13,.09-.22v-.07h.87s0,.05,0,.07c0,.03,0,.07,0,.12,0,.4-.29,1.06-.86,1.97-.08,.12-.14,.22-.18,.29-.41,.67-.69,1.26-.83,1.76-.15,.5-.22,1.05-.22,1.65v.23h-2.07Z"/>
        </g>
        <g>
          <path class="cls-4" d="M592.37,135.19c-.64,1.66-1.52,3.68-2.3,5.34,1.72,1.78,2.12,3.3,2.12,4.64,0,.96-.2,1.82-.76,2.18-.26,.18-.64,.32-1.02,.36-.46,.04-1.04,.04-1.5,0-.02-.26-.12-.64-.3-.9,.56,.04,1.06,.04,1.46,.04,.3-.02,.54-.1,.74-.22,.36-.24,.48-.9,.48-1.54,0-1.22-.46-2.68-2.18-4.42,.76-1.64,1.52-3.54,2.04-4.96h-3.68v16.38h-.92v-17.28h5.02l.16-.04,.64,.42Zm4.16,3.16c-.04,1.18-.1,2.3-.2,3.42h6.12v.52c-.28,6.38-.48,8.58-1.1,9.26-.34,.38-.66,.5-1.26,.54-.56,.04-1.72,0-2.82-.06-.02-.3-.12-.68-.28-.96,1.2,.12,2.38,.12,2.78,.12,.38,.02,.58-.02,.76-.22,.46-.5,.72-2.6,.94-8.3h-5.22c-.46,3.98-1.64,7.42-5.1,9.38-.14-.22-.46-.5-.68-.68,4.52-2.46,4.94-7.6,5.1-13.02h-3.54v-.92h11.64v.92h-7.14Zm1.32-1.04c-.18-.76-.62-2.06-.98-3.02l.88-.2c.36,.96,.82,2.22,1,2.94l-.9,.28Z"/>
          <path class="cls-4" d="M592.85,160.45c-1.02,5.1-3.48,8.64-6.32,10.58-.16-.24-.52-.6-.76-.74,2.66-1.7,4.92-4.84,5.92-9.1h-5.32v-.96h5.66l.2-.04,.62,.26Zm9.28-.94c-1.28,1.54-3.02,3.44-4.42,4.68,1.82,2.52,4.08,4.72,6.44,5.86-.26,.2-.56,.56-.72,.82-3.24-1.7-6.22-5.28-8.16-9.18v9.96c0,.78-.22,1.1-.7,1.28-.5,.18-1.36,.2-2.82,.2-.08-.3-.24-.74-.4-1.04,1.18,.04,2.2,.04,2.48,.02,.32-.02,.44-.1,.44-.44v-16.64h1v4.8c.52,1.24,1.2,2.48,1.98,3.66,1.34-1.28,3.02-3.18,4.02-4.6l.86,.62Z"/>
          <path class="cls-4" d="M585.85,179.41h6.48v.86h-6.48v-.86Zm6.06,13.42h-4.38v1h-.88v-6.68h5.26v5.68Zm-.02-10.04h-5.2v-.82h5.2v.82Zm-5.2,1.76h5.2v.84h-5.2v-.84Zm.84,3.46v3.96h3.5v-3.96h-3.5Zm1.82-9.1c-.32-.72-.98-1.82-1.54-2.6l.76-.42c.6,.8,1.26,1.82,1.58,2.54l-.8,.48Zm6.56,11.74c1.02-.28,2.1-.6,3.16-.92l.1,.84c-2.28,.72-4.64,1.44-6.44,1.98l-.32-.94c.72-.2,1.6-.42,2.58-.7v-5.86h-2.36v-.88h5.68v.88h-2.4v5.6Zm3.88-9.66c.36,7.36,1.5,12.2,2.76,12.2,.38,0,.56-1.06,.64-3.42,.22,.18,.54,.4,.78,.48-.18,2.9-.48,3.9-1.52,3.9-2.08,0-3.18-5.56-3.56-13.16h-6.02v-.92h5.96c-.04-1.3-.08-2.64-.1-4.02h.96c0,1.4,.02,2.74,.06,4.02h4.14v.92h-4.1Zm2.52-1.48c-.36-.72-1.14-1.84-1.84-2.66l.7-.4c.72,.78,1.54,1.86,1.86,2.56l-.72,.5Z"/>
          <path class="cls-4" d="M592.85,202.45c-1.02,5.1-3.48,8.64-6.32,10.58-.16-.24-.52-.6-.76-.74,2.66-1.7,4.92-4.84,5.92-9.1h-5.32v-.96h5.66l.2-.04,.62,.26Zm9.28-.94c-1.28,1.54-3.02,3.44-4.42,4.68,1.82,2.52,4.08,4.72,6.44,5.86-.26,.2-.56,.56-.72,.82-3.24-1.7-6.22-5.28-8.16-9.18v9.96c0,.78-.22,1.1-.7,1.28-.5,.18-1.36,.2-2.82,.2-.08-.3-.24-.74-.4-1.04,1.18,.04,2.2,.04,2.48,.02,.32-.02,.44-.1,.44-.44v-16.64h1v4.8c.52,1.24,1.2,2.48,1.98,3.66,1.34-1.28,3.02-3.18,4.02-4.6l.86,.62Z"/>
        </g>
        <g>
          <path class="cls-2" d="M638.77,128.89c0-.97,.27-1.74,.82-2.33,.55-.59,1.27-.88,2.16-.88s1.6,.3,2.15,.89,.82,1.37,.82,2.33-.27,1.74-.82,2.33c-.55,.59-1.27,.88-2.17,.88s-1.6-.29-2.14-.88c-.55-.59-.82-1.37-.82-2.33Zm3.79,0c0-.79-.06-1.36-.19-1.72-.13-.35-.33-.53-.62-.53s-.5,.18-.63,.53-.2,.92-.2,1.72,.06,1.37,.19,1.72c.13,.35,.34,.52,.63,.52s.5-.17,.62-.52,.19-.92,.19-1.72Z"/>
          <path class="cls-2" d="M646.44,128.92c-.29-.2-.51-.41-.65-.63-.14-.23-.21-.48-.21-.77,0-.57,.24-1.02,.72-1.35,.48-.33,1.14-.5,1.97-.5,.78,0,1.39,.14,1.83,.41,.44,.27,.67,.65,.67,1.12,0,.28-.08,.52-.24,.71-.16,.19-.4,.34-.71,.45,.46,.21,.8,.45,1.01,.73,.21,.28,.32,.62,.32,1.03,0,.62-.27,1.11-.8,1.45s-1.28,.52-2.24,.52c-.9,0-1.6-.15-2.08-.45-.48-.3-.73-.73-.73-1.29,0-.33,.09-.61,.28-.85,.18-.23,.47-.43,.86-.59Zm.94,.5c-.23,.12-.4,.26-.51,.41-.11,.15-.17,.31-.17,.48,0,.29,.13,.52,.4,.7s.61,.27,1.04,.27c.36,0,.63-.06,.82-.17s.29-.27,.29-.48c0-.17-.07-.32-.21-.44-.14-.13-.37-.25-.71-.39l-.95-.38Zm1.44-1.49c.19-.09,.32-.19,.42-.31,.09-.11,.14-.24,.14-.39,0-.2-.09-.36-.28-.49-.19-.13-.43-.2-.74-.2s-.53,.05-.71,.15c-.17,.1-.26,.23-.26,.4,0,.13,.06,.25,.19,.34,.13,.1,.36,.2,.69,.3l.56,.18Z"/>
        </g>
        <g>
          <path class="cls-4" d="M666.9,137.59h-7.26c2.56,1.48,5.52,3.42,7.16,4.72l-.62,.66c-1.66-1.38-4.92-3.54-7.64-5.1v4.22h-.94v-4.5h-.14c-1.86,2.38-5.1,4.6-7.82,5.7-.16-.24-.42-.58-.64-.78,2.56-.92,5.54-2.84,7.34-4.92h-7v-.88h8.26v-2.72h.94v2.72h8.36v.88Zm-17.14,12.92h16.8v.88h-16.8v-.88Zm13.74-7.78v6.42h-10.76v-6.42h10.76Zm-.96,.78h-8.86v2.04h8.86v-2.04Zm0,2.8h-8.86v2.06h8.86v-2.06Z"/>
          <path class="cls-4" d="M648.85,171.49c.46-1.18,.8-3.16,.96-4.44l.66,.2c-.2,1.32-.52,3.32-.94,4.52l-.68-.28Zm7.62-5.98c-.2,4.98-.34,6.58-.74,7.12-.24,.28-.5,.4-.96,.42-.32,.02-.94,.02-1.52-.02-.02-.24-.1-.6-.24-.84,.66,.08,1.26,.08,1.5,.08,.22,0,.36-.02,.48-.2,.28-.36,.46-1.9,.62-6.16h-5.66v-9.96h6.56v.86h-2.78v2.16h2.34v.84h-2.34v2.12h2.34v.82h-2.34v2.3h2.74v.46Zm-5.7-8.7v2.16h2.12v-2.16h-2.12Zm2.12,3h-2.12v2.12h2.12v-2.12Zm-2.12,5.24h2.12v-2.3h-2.12v2.3Zm.82,2.24c.16,1.14,.3,2.62,.34,3.62l-.66,.08c-.02-.98-.16-2.46-.32-3.62l.64-.08Zm1.12-.3c.38,1.02,.78,2.36,.94,3.22l-.62,.18c-.16-.88-.54-2.24-.9-3.26l.58-.14Zm1.94,2.46c-.3-.72-.86-1.86-1.34-2.68l.54-.22c.52,.84,1.1,1.94,1.36,2.6l-.56,.3Zm6.56,2.38c-.46-.5-1.34-1.24-2.18-1.82-.56,1.24-1.3,2.3-2.2,3.1-.14-.14-.5-.46-.7-.6,1.4-1.14,2.36-2.92,2.8-5.04l.92,.14c-.14,.58-.3,1.14-.5,1.66,.88,.54,1.92,1.38,2.42,1.92l-.56,.64Zm1.3-16.74c-.12,.2-.24,.38-.36,.58,1.18,1.58,3.34,3.28,5.06,4.24-.2,.2-.44,.54-.52,.76-1.68-1.02-3.72-2.72-4.98-4.32-1.22,1.72-2.92,3.32-4.82,4.48-.16-.14-.48-.42-.7-.56,2.34-1.42,4.36-3.48,5.4-5.46l.92,.28Zm-5.06,7.14h3.78v4.44h-3.78v-4.44Zm.78,3.68h2.2v-2.92h-2.2v2.92Zm6.66-5.58h-6.08v-.84h6.08v.84Zm0,7.14c-.12,.74-.34,1.44-.6,2.1,1.04,.74,2.2,1.72,2.76,2.4l-.62,.68c-.54-.66-1.54-1.56-2.5-2.32-.54,1.1-1.26,2.02-2.1,2.72-.16-.14-.52-.44-.78-.6,1.52-1.14,2.5-2.9,2.92-5.12l.92,.14Zm1.38-.8h-3.92v-4.44h3.92v4.44Zm-.8-3.68h-2.34v2.92h2.34v-2.92Z"/>
        </g>
        <g>
          <path class="cls-2" d="M702.09,128.89c0-.97,.27-1.74,.82-2.33,.55-.59,1.27-.88,2.16-.88s1.6,.3,2.15,.89,.82,1.37,.82,2.33-.27,1.74-.82,2.33c-.55,.59-1.27,.88-2.17,.88s-1.6-.29-2.14-.88c-.55-.59-.82-1.37-.82-2.33Zm3.79,0c0-.79-.06-1.36-.19-1.72-.13-.35-.33-.53-.62-.53s-.5,.18-.63,.53-.2,.92-.2,1.72,.06,1.37,.19,1.72c.13,.35,.34,.52,.63,.52s.5-.17,.62-.52,.19-.92,.19-1.72Z"/>
          <path class="cls-2" d="M712.21,129.31c-.23,.13-.46,.22-.69,.29s-.46,.09-.7,.09c-.62,0-1.12-.18-1.51-.53s-.57-.82-.57-1.4c0-.63,.23-1.14,.69-1.51,.46-.38,1.07-.57,1.84-.57,.92,0,1.65,.27,2.18,.82,.53,.55,.79,1.3,.79,2.26,0,1.03-.29,1.85-.86,2.45s-1.35,.91-2.32,.91c-.63,0-1.14-.13-1.52-.4-.39-.27-.58-.61-.58-1.03,0-.26,.09-.46,.26-.61s.41-.23,.7-.23c.27,0,.49,.07,.66,.21s.26,.32,.26,.53c0,.13-.03,.24-.09,.34-.06,.1-.14,.18-.26,.25,.07,.03,.14,.04,.21,.06,.06,.01,.13,.02,.19,.02,.4,0,.72-.17,.96-.51,.24-.34,.36-.8,.36-1.38v-.03Zm-.8-2.8c-.21,0-.38,.1-.5,.3s-.19,.47-.19,.8,.06,.6,.19,.8,.29,.3,.5,.3,.38-.1,.51-.3c.13-.2,.19-.47,.19-.81s-.06-.61-.19-.8c-.13-.2-.3-.3-.51-.3Z"/>
        </g>
        <g>
          <path class="cls-4" d="M719.02,135.19c-.64,1.66-1.52,3.68-2.3,5.34,1.72,1.78,2.12,3.3,2.12,4.64,0,.96-.2,1.82-.76,2.18-.26,.18-.64,.32-1.02,.36-.46,.04-1.04,.04-1.5,0-.02-.26-.12-.64-.3-.9,.56,.04,1.06,.04,1.46,.04,.3-.02,.54-.1,.74-.22,.36-.24,.48-.9,.48-1.54,0-1.22-.46-2.68-2.18-4.42,.76-1.64,1.52-3.54,2.04-4.96h-3.68v16.38h-.92v-17.28h5.02l.16-.04,.64,.42Zm4.16,3.16c-.04,1.18-.1,2.3-.2,3.42h6.12v.52c-.28,6.38-.48,8.58-1.1,9.26-.34,.38-.66,.5-1.26,.54-.56,.04-1.72,0-2.82-.06-.02-.3-.12-.68-.28-.96,1.2,.12,2.38,.12,2.78,.12,.38,.02,.58-.02,.76-.22,.46-.5,.72-2.6,.94-8.3h-5.22c-.46,3.98-1.64,7.42-5.1,9.38-.14-.22-.46-.5-.68-.68,4.52-2.46,4.94-7.6,5.1-13.02h-3.54v-.92h11.64v.92h-7.14Zm1.32-1.04c-.18-.76-.62-2.06-.98-3.02l.88-.2c.36,.96,.82,2.22,1,2.94l-.9,.28Z"/>
          <path class="cls-4" d="M719.5,160.45c-1.02,5.1-3.48,8.64-6.32,10.58-.16-.24-.52-.6-.76-.74,2.66-1.7,4.92-4.84,5.92-9.1h-5.32v-.96h5.66l.2-.04,.62,.26Zm9.28-.94c-1.28,1.54-3.02,3.44-4.42,4.68,1.82,2.52,4.08,4.72,6.44,5.86-.26,.2-.56,.56-.72,.82-3.24-1.7-6.22-5.28-8.16-9.18v9.96c0,.78-.22,1.1-.7,1.28-.5,.18-1.36,.2-2.82,.2-.08-.3-.24-.74-.4-1.04,1.18,.04,2.2,.04,2.48,.02,.32-.02,.44-.1,.44-.44v-16.64h1v4.8c.52,1.24,1.2,2.48,1.98,3.66,1.34-1.28,3.02-3.18,4.02-4.6l.86,.62Z"/>
          <path class="cls-4" d="M718.14,176.31c-.6,1.48-1.34,2.96-2.16,4.3v13.42h-.92v-11.98c-.78,1.14-1.62,2.16-2.48,3.02-.12-.2-.42-.68-.62-.88,2.08-1.96,4.08-5.02,5.3-8.16l.88,.28Zm12.32,9.44v.9h-5.94v7.44h-.98v-7.44h-6.12v-.9h6.12v-2.76h-4.56v-6.04h10.22v6.04h-4.68v2.76h5.94Zm-8.62,2.36c-1.04,1.7-2.42,3.64-3.62,4.92-.16-.12-.54-.44-.76-.56,1.2-1.26,2.56-3.04,3.52-4.66l.86,.3Zm-1.94-6.02h8.34v-4.24h-8.34v4.24Zm6.76,5.72c1.38,1.46,3.02,3.42,3.76,4.66l-.78,.52c-.78-1.28-2.36-3.3-3.72-4.76l.74-.42Z"/>
          <path class="cls-4" d="M719.18,201.27h-6.8v-.86h6.8v.86Zm-6.02,2.52v-.82h5.36v.82h-5.36Zm5.36,2.6h-5.36v-.84h5.36v.84Zm.02,7.44h-4.5v1h-.86v-6.68h5.36v5.68Zm-4.5-4.82v3.96h3.6v-3.96h-3.6Zm2.16-9.1c-.3-.72-.94-1.82-1.52-2.6l.74-.42c.6,.82,1.26,1.84,1.58,2.54l-.8,.48Zm13.08,9.86c-.74,1.3-1.92,2.34-3.34,3.14,1.48,.66,3.14,1.14,4.8,1.42-.22,.2-.46,.54-.58,.78-1.76-.36-3.54-.92-5.12-1.7-1.72,.84-3.7,1.38-5.62,1.72-.1-.26-.3-.62-.48-.82,1.76-.26,3.58-.72,5.18-1.42-1.16-.68-2.14-1.48-2.86-2.4l.56-.22h-2.28v-.78h8.98l.16-.06,.6,.34Zm-4.28-7.86c-.16-.48-.38-1.06-.58-1.52l.86-.26c.24,.58,.52,1.26,.68,1.78h4.02v.76h-4.22v1.22h3.66v.7h-3.66v1.2h3.66v.7h-3.66v1.26h4.66v.74h-8.7v.5h-.86v-5.42c-.4,.6-.82,1.1-1.26,1.56-.12-.18-.42-.56-.62-.72,1.16-1.08,2.16-2.68,2.7-4.38l.86,.22c-.2,.56-.42,1.12-.7,1.66h3.16Zm-2.06-2.74h-3.56v-.82h3.56v-1.38h.88v3.42h-.88v-1.22Zm1.96,3.5h-3.18v1.22h3.18v-1.22Zm0,1.92h-3.18v1.2h3.18v-1.2Zm0,1.9h-3.18v1.26h3.18v-1.26Zm-2.74,3.78c.68,.84,1.68,1.58,2.86,2.22,1.18-.62,2.16-1.34,2.86-2.22h-5.72Zm4.92-9.88h-.9v-3.42h.9v1.42h3.3v.82h-3.3v1.18Z"/>
        </g>
      </g>
    </g>
  </g>
</svg>