<?xml version="1.0" encoding="utf-8"?>
<!-- Generator: Adobe Illustrator 27.0.0, SVG Export Plug-In . SVG Version: 6.00 Build 0)  -->
<svg version="1.1" id="_圖層_2" xmlns="http://www.w3.org/2000/svg" xmlns:xlink="http://www.w3.org/1999/xlink" x="0px" y="0px"
	 viewBox="0 0 1122.7 292.6" style="enable-background:new 0 0 1122.7 292.6;" xml:space="preserve">
<style type="text/css">
	.st0{fill:#F2E8D1;}
	.st1{fill:#604C3F;}
	.st2{fill:#EA5514;}
	.st3{fill:#EB6519;}
	.st4{fill:none;stroke:#604C3F;stroke-miterlimit:10;}
</style>
<g>
	<rect x="-1.1" y="0" class="st0" width="1124.8" height="292.6"/>
	<g>
		<path class="st1" d="M70.3,77.2h12v2.7H55.5v-2.7h11.7v-4.7h-8.5V70h8.5v-4.3H60v-2.6c-1.4,1-2.8,1.8-4.1,2.5
			c-0.4-0.8-1.2-1.8-1.8-2.4c3.8-1.7,8.1-4.8,11.2-8h-5v-2.8h10.1c2.8,4.2,8.1,8.4,13.3,10.4c-0.6,0.6-1.6,1.8-2,2.7
			c-1.4-0.6-2.8-1.4-4.1-2.3v2.5h-7.3V70h8.6v2.6h-8.6V77.2z M60.1,63.1h17.2c-3.3-2.2-6.3-5-8.6-7.8C66.5,58,63.3,60.8,60.1,63.1z"
			/>
		<path class="st1" d="M99,71c-0.5-1-1.5-2.9-2.4-4.4v14.1h-2.8V67.2c-1,3-2.3,5.9-3.6,7.8c-0.3-0.8-1-2-1.4-2.6
			c1.9-2.6,3.8-7.3,4.8-11.4h-4v-2.7h4.3v-6.6h2.8v6.6h3.7v2.7h-3.7V63c0.9,1.2,3.4,4.9,4,5.8L99,71z M112,70.6
			c1.8,2.5,4.5,5,6.8,6.4c-0.6,0.5-1.6,1.6-2.1,2.3c-2-1.6-4.4-4.2-6.2-6.8v8.2h-2.9V73c-1.9,2.7-4.6,5.1-7.1,6.6
			c-0.5-0.7-1.3-1.8-2-2.3c2.9-1.3,5.9-3.9,7.8-6.6h-4.9V59.8h6.3v-2.2h-7.2V55h7.2v-3.5h2.9V55h7.3v2.5h-7.3v2.2h6.5v10.8H112z
			 M104,64.2h3.6v-2.3H104V64.2z M104,68.4h3.6v-2.3H104V68.4z M110.6,61.9v2.3h3.7v-2.3H110.6z M114.3,66.2h-3.7v2.3h3.7V66.2z"/>
		<path class="st1" d="M125.5,75.2h5.1V58.9h-4.2v-2.3c2.2-0.4,3.7-1,5.1-1.8h2.8v20.4h4.6v3h-13.3V75.2z"/>
		<path class="st1" d="M146.8,75.2h5.1V58.9h-4.2v-2.3c2.2-0.4,3.7-1,5.1-1.8h2.8v20.4h4.6v3h-13.3V75.2z"/>
		<path class="st1" d="M181.6,58.5c-0.7,1.7-1.5,3.7-2.2,5.2h4.2v2.7H167v-2.7h4.5c-0.3-1.4-1-3.5-1.8-5.1l2.6-0.7
			c0.8,1.6,1.6,3.7,1.9,5.1l-2.3,0.7h4.7c0.8-1.7,1.7-4.1,2.1-5.8L181.6,58.5z M182.8,57.8h-15v-2.6h6.3c-0.3-1-0.8-2.1-1.2-3
			l2.7-0.8c0.6,1.2,1.2,2.7,1.6,3.8h5.6V57.8z M168.6,69h13.5v11.4h-2.9v-1.2h-7.8v1.5h-2.8V69z M171.4,71.6v4.9h7.8v-4.9H171.4z
			 M195.6,54.3c-1.1,3-2.5,6.6-3.8,9.4c2.7,2.9,3.3,5.4,3.3,7.5c0,2-0.4,3.6-1.5,4.3c-0.5,0.4-1.2,0.6-2,0.7
			c-0.8,0.1-1.7,0.1-2.6,0.1c0-0.8-0.3-2-0.7-2.8c0.8,0.1,1.6,0.1,2.1,0.1c0.5,0,0.9-0.1,1.2-0.3c0.6-0.4,0.8-1.3,0.8-2.3
			c0-1.9-0.8-4.1-3.4-6.8c1-2.5,2.2-5.8,3-8.3h-4.4v24.8H185V53.2h8.1l0.4-0.1L195.6,54.3z"/>
		<path class="st1" d="M211.9,52.6c-0.8,2.2-1.9,4.4-3.1,6.6v21.5h-3V63.8c-0.8,1.2-1.7,2.2-2.6,3.1c-0.3-0.7-1.1-2.3-1.7-3
			c3-3,5.8-7.6,7.5-12.2L211.9,52.6z M230.4,76.6v2.8h-19.8v-2.8h11c1.1-4.2,2.3-10.6,2.9-15.3l3.1,0.5c-0.9,4.8-2.1,10.7-3.2,14.8
			H230.4z M229.3,60H212v-2.9h17.3V60z M216,75.4c-0.3-3.3-1.1-9-2-13.3l2.6-0.6c1,4.3,2,9.8,2.3,13L216,75.4z M219.6,57
			c-0.2-1.3-0.9-3.4-1.5-5l2.8-0.7c0.6,1.6,1.3,3.5,1.6,4.9L219.6,57z"/>
		<path class="st1" d="M238.2,68.2V54.9h3.7v13.6c0,5.3,2.1,7,5,7c3,0,5.1-1.7,5.1-7V54.9h3.6v13.3c0,7.6-3.5,10.4-8.7,10.4
			S238.2,75.8,238.2,68.2z"/>
		<path class="st1" d="M264.7,54.9h7.1c5.2,0,8.9,1.8,8.9,7c0,5.1-3.7,7.5-8.8,7.5h-3.5v8.9h-3.7V54.9z M271.6,66.4
			c3.7,0,5.5-1.4,5.5-4.5s-1.9-4.1-5.7-4.1h-3v8.6H271.6z"/>
		<path class="st1" d="M298.6,63.3c0,0,0,0.8,0,1.2c-0.2,10.3-0.3,13.9-1.1,15c-0.5,0.8-1.1,1-1.9,1.1c-0.8,0.1-2,0.1-3.3,0.1
			c-0.1-0.8-0.3-1.9-0.8-2.6c1.1,0.1,2.2,0.1,2.7,0.1c0.4,0,0.7-0.1,1-0.4c0.5-0.6,0.7-3.6,0.8-11.8h-3.2c-0.4,5.9-1.4,11.2-4,14.8
			c-0.5-0.7-1.4-1.6-2.2-2c3.2-4.4,3.5-11.8,3.7-19.4h-3.3v-2.7h12.6v2.7h-6.5c0,1.3-0.1,2.7-0.1,4H298.6z M293.9,51.6
			c0.6,1.3,1.3,3,1.6,4.1l-2.7,0.8c-0.3-1.1-0.9-3-1.5-4.3L293.9,51.6z M311.8,78.1c1.3,0,1.6-0.6,1.7-3.5c0.6,0.4,1.7,0.9,2.4,1
			c-0.3,3.8-1.1,5-4,5h-6c-3.4,0-4.3-0.8-4.3-4v-7l-1.7,0.8l-1-2.4l2.7-1.3v-4.5c-0.3,0.4-0.6,0.8-1,1.2c-0.5-0.5-1.6-1.6-2.3-2.1
			c2.2-2.3,3.8-5.9,4.6-9.7l2.9,0.6c-0.3,1.3-0.7,2.5-1.1,3.7h10.7v2.7h-11.8c-0.5,1.2-1.2,2.4-1.9,3.4h2.4v3.6l2.4-1.1v-4.8h2.5
			v3.7l2.9-1.4l0.5-0.4l2,0.6l-0.1,0.4c-0.1,3.4-0.3,8-0.7,10.9l-2.2-0.4c0.2-2,0.3-5.2,0.3-8.1l-2.8,1.3v9.2h-2.5v-8l-2.4,1.2v8.3
			c0,1.2,0.3,1.5,1.9,1.5H311.8z"/>
		<path class="st1" d="M331.8,52.6c-0.9,2.2-1.9,4.5-3.1,6.6v21.4h-3V63.9c-0.8,1.1-1.7,2.2-2.6,3.1c-0.3-0.7-1.1-2.4-1.7-3
			c3-3,5.8-7.6,7.6-12.3L331.8,52.6z M341.4,59.6v4h8.6v2.7h-8.6v4.2h9.1v2.8h-9.1v7.4h-3V59.6h-1.8c-1.3,2.5-2.8,4.7-4.3,6.4
			c-0.5-0.5-1.6-1.6-2.3-2c2.8-2.9,5.3-7.5,6.9-12.1l2.8,0.8c-0.5,1.4-1,2.8-1.7,4.1h12.8v2.8H341.4z"/>
		<path class="st1" d="M365,69.3c-0.3-1-1.1-2.5-1.9-3.9v15.4h-2.3V65.9c-0.8,3.2-1.9,6.2-3,8.1c-0.2-0.9-0.8-2.2-1.2-2.9
			c1.6-2.4,3-6.9,3.8-10.8h-3.1v-2.7h3.5v-6h2.3v6h2.7V59c3.6-2,6.9-4.9,8.6-7.7l2.9,1c-0.2,0.3-0.4,0.7-0.7,1
			c2.3,2.1,6.1,4.1,9.3,5.2c-0.5,0.7-1,2-1.2,2.8c-1.5-0.7-3-1.5-4.6-2.4V61h-9.4v-1.8c-1,0.8-2.2,1.5-3.3,2.1
			c-0.4-0.5-1-1.2-1.6-1.7v0.8h-2.7v1.8c0.8,1.1,2.8,4.3,3.2,5.1L365,69.3z M372.4,71.8c-0.2,0.8-0.5,1.5-0.8,2.2
			c1.2,0.8,2.6,1.8,3.4,2.5l-1.6,2c-0.6-0.7-1.8-1.7-2.9-2.4c-1.2,2-2.8,3.6-4.6,4.9c-0.4-0.5-1.3-1.5-1.9-1.9
			c2.8-1.7,4.9-4.4,5.9-7.7L372.4,71.8z M367.2,62.9h7.3v7.7h-7.3V62.9z M369.4,68.6h2.8V65h-2.8V68.6z M379.8,58.7
			c-1.7-1-3.4-2.3-4.8-3.5c-1.1,1.3-2.4,2.4-3.7,3.5H379.8z M381.2,71.6c-0.2,1-0.4,1.8-0.7,2.7c1.9,1.3,4.1,2.9,5.2,4l-1.8,2
			c-1-1-2.8-2.5-4.5-3.8c-0.9,1.7-2.2,3.1-3.7,4.3c-0.4-0.5-1.3-1.5-1.9-1.9c2.5-1.6,4.1-4.3,4.8-7.6L381.2,71.6z M376.2,62.9h7.5
			v7.7h-7.5V62.9z M378.4,68.6h3V65h-3V68.6z"/>
		<path class="st1" d="M397.5,56.9h6.3v2.4h-12.1v-2.4H397.5c-0.5-1.2-1.5-3-2.4-4.3l2.3-1.1c0.9,1.3,1.9,3,2.3,4.1L397.5,56.9z
			 M402.7,61.1v2.3H393v-2.3H402.7z M393,65.3h9.7v2.3H393V65.3z M402.7,78.9h-7.1v1.4H393V69.6h9.7V78.9z M395.6,72v4.5h4.6V72
			H395.6z M420.3,61.6h-3.6V77c0,1.9-0.4,2.7-1.6,3.2c-1.1,0.5-2.9,0.6-5.7,0.6c-0.2-0.8-0.6-2.2-1-3.1c2.1,0.1,4,0.1,4.6,0.1
			s0.8-0.2,0.8-0.8V61.6h-9.6v-2.9h9.6v-6.9h3v6.9h3.6V61.6z M408.8,72.6c-0.5-2-1.9-5.2-3.4-7.5l2.5-1c1.6,2.3,3,5.3,3.6,7.4
			L408.8,72.6z"/>
		<path class="st1" d="M455.2,77.4v2.4h-28.4v-2.4h12.5v-2.3h-10.2v-2.3h10.2V71h-9.2v-9.9h9.2v-1.6H427v-2.4h12.4v-1.9
			c-3.2,0.2-6.4,0.3-9.4,0.3c0-0.7-0.4-1.7-0.6-2.3c7.3-0.2,16-0.8,21.1-1.7L452,54c-2.7,0.5-6.1,0.8-9.7,1.1v2.1H455v2.4h-12.7v1.6
			h9.7V71h-9.7v1.8h10.9v2.3h-10.9v2.3H455.2z M433.1,65.1h6.3v-2h-6.3V65.1z M439.3,69V67h-6.3V69H439.3z M442.3,63.2v2h6.7v-2
			H442.3z M449,67h-6.7V69h6.7V67z"/>
		<path class="st1" d="M461.1,79.7c1.2-1.3,1.8-3.6,2.1-5.7l2,0.5c-0.3,2.3-0.9,4.7-2.2,6.2L461.1,79.7z M461.6,70.4
			c1.6-0.1,3.6-0.1,5.8-0.2v-2.1h-5.1v-2.3h5.1v-1.8h-5V52.6h12.8v11.4h-5.2v1.8h5.3v2.3h-5.3v1.9c1.9-0.1,3.9-0.2,5.8-0.3l-0.1,2.3
			c-5,0.3-10.3,0.6-14,0.8L461.6,70.4z M464.7,62h3.1v-7.3h-3.1V62z M466.3,55.8c0.5,1.5,1,3.4,1,4.6l-1.4,0.4
			c-0.1-1.3-0.4-3.2-0.9-4.7L466.3,55.8z M467.7,73.9c0.5,1.7,0.8,4,0.8,5.5l-2,0.3c0-1.5-0.3-3.7-0.7-5.5L467.7,73.9z M470.7,73.7
			c0.7,1.6,1.3,3.7,1.6,5.1l-1.9,0.4c-0.2-1.4-0.8-3.5-1.5-5.2L470.7,73.7z M472.9,54.7h-3.2V62h3.2V54.7z M470,60.6
			c0.5-1.3,1-3.5,1.3-4.9l1.6,0.6c-0.6,1.6-1.2,3.5-1.7,4.7L470,60.6z M473.8,73c1.1,1.5,2.2,3.5,2.6,4.8l-1.9,0.8
			c-0.4-1.4-1.5-3.4-2.5-4.9L473.8,73z M484,61v5.4h5.3v14.1h-2.8v-1.2h-7v1.4h-2.7V66.5h4.4V51.6h2.9v6.7h6.5V61H484z M486.5,69.2
			h-7v7.5h7V69.2z"/>
		<path class="st1" d="M502.7,69v8.2c0,1.5-0.3,2.3-1.1,2.7c-0.9,0.5-2.1,0.6-4.1,0.6c-0.1-0.7-0.4-2-0.8-2.7c1.3,0,2.4,0,2.8,0
			c0.4,0,0.5-0.1,0.5-0.6v-7.4l-3.3,1L496,68c1.1-0.3,2.5-0.7,4-1.1v-6.4h-3.7v-2.7h3.7v-6.1h2.7v6.1h3.4v2.7h-3.4v5.6l3-0.9
			l0.4,2.7L502.7,69z M516.9,77.6c0.9,0.1,1.7,0.2,2.6,0.2s5,0,6.2,0c-0.3,0.6-0.7,1.9-0.8,2.6h-5.5c-4.4,0-7.7-0.8-9.8-5
			c-0.9,2.2-2,4-3.6,5.4c-0.4-0.5-1.6-1.4-2.2-1.8c2.8-2.2,4.1-5.7,4.6-10.2l2.7,0.3c-0.2,1.2-0.3,2.3-0.6,3.3
			c0.8,2.3,2,3.7,3.6,4.4v-9.3h-7.6v-2.4h18.3v2.4h-7.9v3.3h6.4v2.3h-6.4V77.6z M523.1,63.1H508V52.6h15.2V63.1z M520.3,54.8h-9.7
			v2.1h9.7V54.8z M520.3,58.9h-9.7v2.1h9.7V58.9z"/>
		<path class="st1" d="M560,67h-6.6v13.7h-3V67h-9c-0.3,5.1-1.7,10.2-8.1,13.8c-0.4-0.7-1.4-1.7-2.1-2.3c5.5-3,6.9-7.3,7.2-11.5
			h-6.9v-2.8h7v-6.4c-1.9,0.5-3.8,1-5.7,1.4c-0.2-0.7-0.6-1.8-1-2.4c5-1.1,10.4-2.9,13.6-4.8l2.2,2.4c-1.8,0.9-3.8,1.7-6.1,2.5v7.3
			h8.9v-12h3v12h6.6V67z"/>
		<path class="st1" d="M569.3,70.6c2.4-0.9,3.9-2.4,4-4.3c-0.1,0-0.3,0-0.4,0c-1.4,0-2.7-0.9-2.7-2.5c0-1.6,1.2-2.5,2.7-2.5
			c2,0,3,1.6,3,4c0,3.5-2.2,6.3-5.8,7.4L569.3,70.6z"/>
		<path class="st2" d="M587.6,73.9c0.9,1,2.3,1.7,3.8,1.7c2.8,0,5.3-2.3,5.5-9c-1.4,1.7-3.4,2.7-5.1,2.7c-3.9,0-6.5-2.4-6.5-7.3
			c0-4.6,3.2-7.7,7-7.7c4.5,0,8.1,3.6,8.1,11.3c0,9.2-4.2,12.9-8.7,12.9c-2.7,0-4.6-1.1-6-2.5L587.6,73.9z M596.8,63.9
			c-0.3-4.6-2.1-6.7-4.6-6.7c-2,0-3.6,1.8-3.6,4.9c0,3,1.3,4.7,3.8,4.7C593.8,66.8,595.4,66,596.8,63.9z"/>
		<path class="st2" d="M614.7,66.5c-0.6,2.8-1.5,5.8-2.6,8.2c0.6,0.3,1.3,0.9,2.3,1.5c2.2,1.3,5.1,1.5,8.8,1.5
			c3.9,0,9.2-0.3,12.7-0.7c-0.3,0.8-0.8,2.3-0.9,3c-2.5,0.2-8.3,0.3-12,0.3c-4.2,0-6.9-0.3-9.2-1.7c-1.3-0.7-2.4-1.8-3.1-1.8
			s-1.8,2.1-2.7,4l-2-2.7c1.1-1.4,2.2-2.7,3.2-3.3c0.9-1.7,1.6-4,2.1-6.2h-4.1c0.8-1.9,1.7-4.4,2.5-6.9h-3.2v-2.7h6.9
			c-0.7,2.3-1.6,4.9-2.4,7h1.8l0.4-0.1L614.7,66.5z M610,57.8c-0.4-1.4-1.1-3.6-1.7-5.3l2.6-0.8c0.6,1.7,1.3,3.8,1.7,5.1L610,57.8z
			 M622.6,60.1c0.2-0.7,0.3-1.4,0.5-2.1h-8v-2.4h4.8c-0.4-0.9-1.1-2.1-1.8-3l2.3-1c0.8,1,1.7,2.4,2.1,3.3l-1.3,0.6h5.4
			c0.8-1.2,1.7-2.8,2.2-4l2.9,0.8c-0.7,1.1-1.5,2.2-2.2,3.2h5.6V58h-8.8c-0.3,0.7-0.6,1.4-1,2.1h7.2v15h-15v-15H622.6z M629.7,62.3
			h-9.3v2.2h9.3V62.3z M629.7,66.4h-9.3v2.2h9.3V66.4z M629.7,70.7h-9.3v2.3h9.3V70.7z"/>
		<path class="st2" d="M646.3,66.3c0,4.3-0.4,10.4-3,14.6c-0.5-0.5-1.6-1.4-2.2-1.7c2.3-3.8,2.6-9.1,2.6-12.9v-7.1h26.2v2.4h-23.5
			V66.3z M655.2,57.9h-10v-5.1h10V57.9z M657.3,68.1v12.6h-2.4v-2.3c-3.1,0.3-6.3,0.6-8.7,0.9l-0.3-2.2l2.3-0.2v-8.8h-1.3v-2h4.6
			v-1.5h-3.8v-1.9h10.3v1.9h-4v1.5h4.6v2H657.3z M652.5,54.4h-4.6v1.8h4.6V54.4z M654.9,68.1h-4.3v1.6h4.3V68.1z M654.9,71.3h-4.3
			V73h4.3V71.3z M654.9,76.3v-1.7h-4.3v2.1L654.9,76.3z M668.8,67.1c-0.6,3-1.6,5.6-2.9,7.7c1.4,1.6,3,2.9,5,3.7
			c-0.6,0.5-1.4,1.6-1.8,2.3c-1.8-0.9-3.4-2.3-4.7-3.9c-1.4,1.6-3,2.8-5,3.8c-0.3-0.5-1.2-1.6-1.8-2.1c2.1-1,3.8-2.3,5.2-3.9
			c-0.8-1.3-1.5-2.8-2.1-4.3c-0.4,0.6-0.8,1.2-1.2,1.7c-0.4-0.5-1.4-1.3-2-1.7c1.8-2,3-5.1,3.7-8.4l2.5,0.5
			c-0.2,0.8-0.3,1.6-0.6,2.4h7v2.3H668.8z M667.8,57.9h-10.1v-5.1h10.1V57.9z M665,54.4h-4.7v1.8h4.7V54.4z M662,67.7
			c0.5,1.8,1.3,3.4,2.2,4.9c0.9-1.6,1.5-3.4,1.9-5.5h-3.8L662,67.7z"/>
		<path class="st2" d="M681.7,56.9h5.5v2.3h-10.8v-2.3H681.7c-0.5-1.2-1.4-3-2.2-4.3l2.1-1.2c0.9,1.3,1.8,3,2.3,4.2L681.7,56.9z
			 M686.4,78.9h-6.4v1.4h-2.3V69.6h8.8V78.9z M686.1,61.1v2.3h-8.5v-2.3H686.1z M677.6,65.3h8.6v2.3h-8.6V65.3z M679.9,72v4.5h4V72
			H679.9z M705.4,77.3v2.3h-17.9v-2.3h7.5v-2h-5.9v-2.2h5.9v-1.7h-6.4v-2.3h6.4v-1.5h-6v-6.2h6v-1.2h-3.7v-3.9h-3.6v-2.3h3.6v-2.3
			h2.7v2.3h5v-2.3h2.8v2.3h3.5v2.3h-3.5v3.9h-3.8v1.2h6.4v6.2h-6.4v1.5h6.8v2.3h-6.8v1.7h6.4v2.2h-6.4v2H705.4z M695,65.6v-2.3h-3.5
			v2.3H695z M693.9,58.2h5v-1.9h-5V58.2z M697.8,63.4v2.3h3.7v-2.3H697.8z"/>
		<path class="st2" d="M740,75.5v3h-28.4v-3H724V58.1h-10.7v-3h25.1v3h-11v17.4H740z"/>
		<path class="st2" d="M774.9,55v2.7h-23.4v5.9c0,5-0.5,12.4-3.2,17.2c-0.5-0.5-1.8-1.3-2.4-1.7c2.6-4.5,2.8-11,2.8-15.6V55h12.2
			c-0.3-0.9-0.8-2-1.2-2.8l2.9-0.8c0.6,1.1,1.3,2.6,1.7,3.6H774.9z M772.8,67.4l2.1,0.9c-1.5,2.3-3.1,4.8-4.7,6.4l-2.3-1.1
			c0.8-1,1.8-2.3,2.6-3.6h-5.7v7.4c0,1.6-0.3,2.4-1.7,2.8c-1.2,0.4-3.2,0.4-6,0.4c-0.1-0.8-0.6-1.9-1-2.7c2.1,0.1,4.3,0.1,4.9,0.1
			c0.6,0,0.8-0.2,0.8-0.6v-7.4h-9.3v-2.5h10c-1.9-1-4.1-2-5.8-2.8l1.8-1.7c1.3,0.6,2.9,1.3,4.4,2c1.4-0.8,3-1.9,4.2-3h-12.9v-2.4
			h15.5l0.6-0.2l1.9,1.5c-1.8,1.9-4.3,3.8-6.9,5.3c0.8,0.4,1.5,0.7,2,1.1l-0.3,0.3h5.2L772.8,67.4z"/>
		<path class="st1" d="M810,79.4h-12.3v1.3h-2.8V66.2c-0.6,0.5-1.3,1.1-1.9,1.6c-0.3-0.5-0.9-1.5-1.4-2.2v11.2h-5.4v2.4h-2.5v-9.4
			c-0.4,0.7-0.9,1.4-1.4,2.1c-0.3-0.6-1.1-2.1-1.6-2.7c2.2-3,3.6-7.7,4.4-12.7h-3.6v-2.7h10.4v2.7h-4c-0.4,2.3-0.9,4.5-1.5,6.6h5.1
			v1.9c2.8-1.9,5-4.5,6.6-7.7H795v3h-2.5v-5.5h6.8c0.3-1,0.7-2.1,1-3.2l2.8,0.6c-0.3,0.9-0.5,1.7-0.8,2.6h7.3v5.4h-2.7v-2.9h-5.6
			c-0.7,1.6-1.5,3-2.4,4.4h3.5c-0.4-0.8-0.8-1.8-1.2-2.5l2.5-1c0.6,1.1,1.3,2.5,1.7,3.5h3.9v2.5h-4.5v2.7h4.2V69h-4.2v2.9h4.2v2.3
			h-4.2V77h5.4V79.4z M789,65.6h-2.8v8.6h2.8V65.6z M801.8,64.1h-4.2v2.7h4.2V64.1z M801.8,69h-4.2v2.9h4.2V69z M797.7,77h4.2v-2.9
			h-4.2V77z"/>
		<path class="st1" d="M826,52.6c-0.9,2.3-2,4.5-3.2,6.6v21.5H820V63.5c-0.9,1.2-1.8,2.3-2.8,3.3c-0.3-0.7-1.1-2.3-1.7-3
			c3.1-2.9,6-7.5,7.7-12.2L826,52.6z M831.6,71.5c-1.4,2.7-3.4,5.7-5.1,7.7c-0.5-0.5-1.6-1.3-2.3-1.7c1.7-1.8,3.6-4.5,4.8-6.9
			L831.6,71.5z M836.4,69.4v11.3h-3V69.4h-8.8v-2.7h8.8v-3.3h-6.5V53h16.4v10.4h-6.9v3.3h8.6v2.7H836.4z M829.7,60.8h10.7v-5.1
			h-10.7V60.8z M840.1,70.7c1.9,2.2,4.1,5,5.1,6.9l-2.4,1.5c-1-1.9-3.1-5-5-7.1L840.1,70.7z"/>
		<path class="st1" d="M878.4,70.9c-1.9,1.4-4.2,2.8-6.3,3.8c2.2,1.5,5,2.6,8.2,3.1c-0.6,0.7-1.5,1.9-1.8,2.7
			c-7.2-1.6-11.8-5.4-14.5-11.3h-4.8V77l7.8-1.7c-0.1,0.8-0.2,2-0.2,2.6c-8.1,2-9.8,2.4-10.6,2.8l-0.2,0.2c-0.2-0.8-0.8-2.3-1.3-3
			c0.7-0.3,1.6-1,1.6-2.3v-6.3h-4.9v-2.6h5.5V52.8h19.6v2.4h-16.6v2.3h15.7v2.3h-15.7v2.2h15.7v2.3h-15.7v2.3h19.8v2.6h-3.6
			L878.4,70.9z M867.1,69.3c0.8,1.5,1.8,2.8,3,3.9c2.1-1.2,4.4-2.7,5.9-3.9H867.1z"/>
		<path class="st1" d="M892.8,74.4c-1.1,2.4-3,4.8-4.7,6.4c-0.5-0.5-1.7-1.3-2.4-1.7c1.7-1.4,3.3-3.4,4.3-5.4L892.8,74.4z
			 M901.3,73.1h-15.5v-2.6h3V58.2h-2.6v-2.6h2.6v-3.7h2.7v3.7h5v-3.7h2.7v3.7h2.3v2.6h-2.3v12.4h2.2V73.1z M891.5,58.2v2.4h5v-2.4
			H891.5z M891.5,65.5h5v-2.6h-5V65.5z M891.5,70.5h5v-2.7h-5V70.5z M896.9,73.5c1.2,1.4,2.8,3.4,3.4,4.6l-2.4,1.4
			c-0.6-1.3-2.1-3.3-3.3-4.8L896.9,73.5z M914,77.2c0,1.6-0.3,2.4-1.3,2.9c-1,0.5-2.5,0.6-4.8,0.5c-0.1-0.8-0.5-2.1-0.9-2.8
			c1.5,0.1,3.1,0,3.5,0c0.5,0,0.7-0.2,0.7-0.7v-7h-5.8c-0.3,3.8-1.1,7.8-2.9,10.7c-0.5-0.5-1.7-1.4-2.3-1.7
			c2.5-4.2,2.7-10.1,2.7-14.6V53.1H914V77.2z M911.1,67.5v-4.6h-5.6v1.7c0,0.9,0,1.9-0.1,3H911.1z M905.6,55.8v4.5h5.6v-4.5H905.6z"
			/>
		<path class="st1" d="M932.2,54c-1,2.7-2.1,6.1-3.2,8.7c2.3,2.6,2.7,4.8,2.7,6.8c0,1.9-0.4,3.2-1.4,3.9c-0.5,0.3-1.1,0.5-1.7,0.6
			c-0.6,0.1-1.5,0.1-2.2,0.1c0-0.8-0.3-1.9-0.7-2.7c0.7,0.1,1.3,0.1,1.7,0.1c0.4,0,0.8-0.1,1-0.3c0.4-0.3,0.6-1.1,0.6-2
			c0-1.7-0.5-3.7-2.7-6.1c0.8-2.2,1.7-5.2,2.3-7.4h-3.8v25.2h-2.8V52.9h7.6l0.4-0.1L932.2,54z M939.1,59.5c-0.1,1.5-0.1,3-0.2,4.4h9
			v1.3c-0.3,9.5-0.7,13.1-1.6,14.3c-0.6,0.8-1.3,1.1-2.3,1.2c-0.9,0.2-2.6,0.1-4.2,0.1c0-0.9-0.4-2.1-0.9-2.9c1.6,0.2,3,0.2,3.7,0.2
			c0.5,0,0.8-0.1,1.1-0.4c0.6-0.7,0.9-3.6,1.2-10.9h-6.3c-0.7,6-2.7,11-8.2,14.1c-0.4-0.7-1.2-1.7-1.9-2.2
			c6.9-3.7,7.5-10.6,7.7-18.9h-4.6v-2.8h8.2c-0.2-1.2-0.9-3.1-1.4-4.5l2.7-0.7c0.6,1.5,1.3,3.4,1.6,4.5l-2.4,0.7h9.4v2.8H939.1z"/>
		<path class="st1" d="M967.5,60.1c-1.5,8.4-5,14.4-9.5,17.7c-0.5-0.7-1.7-1.8-2.4-2.3c3.8-2.5,6.8-7.1,8.3-13h-7.2v-3h8.3l0.5-0.1
			L967.5,60.1z M982.7,59.2c-2.2,2.4-5,5.1-7.2,7c2.5,3.8,5.9,6.9,9.7,8.7c-0.7,0.6-1.7,1.8-2.2,2.7c-4.7-2.5-8.5-7-11.2-12.4v11.6
			c0,1.8-0.4,2.8-1.5,3.3c-1.1,0.5-2.8,0.7-5.2,0.7c-0.2-0.9-0.6-2.4-1.1-3.3c1.8,0.1,3.4,0.1,4,0.1c0.5,0,0.7-0.2,0.7-0.7V51.6h3.1
			v7.6c0.6,1.6,1.3,3.2,2.2,4.7c2-1.9,4.4-4.5,5.9-6.6L982.7,59.2z"/>
		<path class="st1" d="M990.3,65.8c0.8-2.1,1.4-5.6,1.6-8.2l2.1,0.3c-0.2,2.6-0.7,6.3-1.5,8.6L990.3,65.8z M1019.5,76.9v2.8h-19.5
			v-2.8h8.8v-7.2h-6.4v-2.8h6.4v-6h-4.1c-0.6,1.8-1.3,3.4-2,4.7c-0.6-0.4-1.9-1.1-2.6-1.4c0.4-0.6,0.8-1.4,1.2-2.2l-1.8,0.9
			c-0.3-1.3-1.1-3.3-1.9-5v22.8h-3V51.6h3v5.9l1.9-0.8c0.8,1.5,1.7,3.4,2.1,4.8c1-2.5,1.7-5.5,2.1-8.4l2.9,0.5
			c-0.2,1.6-0.6,3.1-1,4.6h3.3v-6.4h3v6.4h6.9v2.8h-6.9v6h6.2v2.8h-6.2v7.2H1019.5z"/>
		<path class="st1" d="M1039.1,77.8c0,1.3-0.3,2-1.2,2.4c-0.9,0.4-2.3,0.4-4.3,0.4c-0.1-0.7-0.5-1.7-0.9-2.3c1.3,0.1,2.6,0.1,3,0
			c0.4,0,0.5-0.1,0.5-0.5v-4.2c-1.9,1.2-3.8,2.4-5.4,3.4l-0.8-2.1c-0.3,2.1-1,4.3-2.3,5.9c-0.4-0.6-1.5-1.7-2.1-2
			c1.8-2.4,1.9-5.8,1.9-8.5v-7.5h11.4V77.8z M1037.2,53.9c1.5,2.2,3.2,5.2,4,7.1l-2.5,1.1c-0.2-0.6-0.5-1.3-0.9-2.1
			c-8.3,0.8-9.5,1-10.4,1.3c-0.2-0.6-0.6-2-0.9-2.7c0.5-0.1,1-0.6,1.7-1.3c0.6-0.7,2.6-3.2,3.9-5.7l3,0.9c-1.2,2-2.8,3.9-4.2,5.6
			l5.7-0.4c-0.6-1-1.1-2-1.7-2.9L1037.2,53.9z M1030.4,70.3c0,1.2-0.1,2.6-0.3,4c1.7-0.7,3.9-1.9,6.2-3v-1.2l-1.4,1.4
			c-1-0.9-3-2.4-4.5-3.4l1.5-1.4c1.4,0.9,3.3,2.2,4.4,3v-4.5h-5.9V70.3z M1045.8,65.3c-3.2,0-4.1-1.1-4.1-4.2v-9.5h2.9v4.1h8.2v2.5
			h-8.2v2.9c0,1.1,0.2,1.6,1.2,1.6h5.3c0.8,0,2.1-0.1,2.7-0.2c0.1,0.8,0.2,1.9,0.3,2.5c-0.6,0.2-1.8,0.2-3,0.2H1045.8z M1050.8,77.9
			c1.2,0,1.4-0.6,1.6-3.8c0.6,0.5,1.8,1,2.6,1.1c-0.3,4.2-1.1,5.3-3.9,5.3h-5.1c-3.3,0-4.2-0.9-4.2-3.8V66.3h2.9v3.5h8.5v2.6h-8.5
			v4.2c0,1.1,0.3,1.3,1.7,1.3H1050.8z"/>
		<path class="st1" d="M1067.2,61.2c2.8,0,5,2.2,5,5s-2.2,5-5,5c-2.7,0-5-2.2-5-5S1064.5,61.2,1067.2,61.2z M1067.2,69.2
			c1.7,0,3-1.4,3-3s-1.4-3-3-3c-1.7,0-3,1.4-3,3S1065.6,69.2,1067.2,69.2z"/>
	</g>
	<g>
		<g>
			<path class="st3" d="M190.2,123.2c0,3.1-1.2,4.9-3.2,4.9c-1.8,0-3-1.7-3.1-4.8c0-3.1,1.3-4.8,3.2-4.8
				C189.1,118.5,190.2,120.3,190.2,123.2z M185.2,123.3c0,2.4,0.7,3.8,1.9,3.8c1.3,0,1.9-1.5,1.9-3.9c0-2.3-0.6-3.8-1.9-3.8
				C186,119.5,185.2,120.8,185.2,123.3z"/>
			<path class="st3" d="M194.1,119.8L194.1,119.8l-1.6,0.9l-0.2-1l2-1.1h1.1v9.3h-1.2V119.8z"/>
		</g>
		<line class="st4" x1="873.5" y1="161.2" x2="897.1" y2="161.2"/>
		<line class="st4" x1="783.4" y1="161.2" x2="807" y2="161.2"/>
		<line class="st4" x1="693.3" y1="161.2" x2="716.9" y2="161.2"/>
		<line class="st4" x1="603.1" y1="161.2" x2="626.7" y2="161.2"/>
		<line class="st4" x1="513" y1="161.2" x2="536.6" y2="161.2"/>
		<line class="st4" x1="422.9" y1="161.2" x2="446.5" y2="161.2"/>
		<line class="st4" x1="332.7" y1="161.2" x2="356.4" y2="161.2"/>
		<line class="st4" x1="242.6" y1="161.2" x2="266.2" y2="161.2"/>
		<g>
			<g>
				<path class="st1" d="M199.1,149c-0.4,2.5-1,5.4-1.6,7.2c-0.3-0.1-0.8-0.3-1.2-0.5c0.7-1.8,1.2-4.5,1.5-6.9L199.1,149z
					 M204.9,141.5c0.8,1.9,1.6,4.4,2,5.9l-1.3,0.4c-0.1-0.5-0.3-1.1-0.5-1.8c-6.8,1-7.6,1.2-8.1,1.5c-0.1-0.3-0.3-1-0.5-1.4
					c0.5-0.1,1.2-0.8,2-1.9c0.5-0.6,1.6-2,2.9-3.8c-3.6,0.4-4.3,0.5-4.6,0.7c-0.1-0.3-0.3-1-0.5-1.3c0.5-0.1,1-0.7,1.6-1.6
					c0.6-0.9,2.8-4.2,4.1-7.4l1.3,0.6c-1.4,2.9-3.2,5.8-4.9,8.1l3.8-0.4c0.8-1.2,1.5-2.5,2.2-3.7l1.2,0.7c-2,3.5-4.4,7-6.8,9.6
					l5.9-0.8c-0.3-1-0.7-2.1-1.1-3L204.9,141.5z M202.1,148.7c0.4,2,0.7,4.7,0.9,6.5l-1.2,0.2c-0.1-1.8-0.4-4.4-0.8-6.5L202.1,148.7
					z M204.9,148.1c0.7,1.8,1.4,4,1.7,5.5l-1.1,0.4c-0.3-1.5-1-3.8-1.7-5.6L204.9,148.1z M215,136.1v5.2h6.1v1.3H208v-1.3h5.7v-5.2
					h-6.5v-1.3h6.5v-4h1.4v4h7v1.3H215z M208.6,146.1h11.8v10.4H219v-1.1h-9.1v1.2h-1.3V146.1z M209.9,147.3v6.8h9.1v-6.8H209.9z"/>
				<path class="st1" d="M204.9,176.6c-0.4-0.9-1.7-2.8-2.6-4.3v14.1H201v-14.7c-1.1,3.5-2.5,7.1-4,9.2c-0.2-0.3-0.6-0.9-0.9-1.1
					c1.9-2.5,3.8-7.3,4.6-11.5h-4.1V167h4.3v-6.3h1.3v6.3h3.5v1.3h-3.5v2.4c0.8,1,2.9,4.1,3.4,4.9L204.9,176.6z M222.6,181.7h-2v3.1
					c0,0.8-0.2,1.2-0.8,1.5c-0.7,0.2-1.8,0.2-3.7,0.2c-0.1-0.3-0.3-0.8-0.5-1.2c1.5,0.1,2.8,0,3.2,0c0.4,0,0.5-0.1,0.5-0.5v-3.1
					h-10.8v4.8h-1.3v-4.8h-2v-1.1h2v-7.2h5.9v-2.1h-7.5v-1.2h4.2v-2.4h-3v-1.1h3v-2.3h-3.5v-1.1h3.5v-2.5h1.3v2.5h5.4v-2.5h1.3v2.5
					h3.7v1.1h-3.7v2.3h3.3v1.1h-3.3v2.4h4.4v1.2h-7.9v2.1h6.2v7.2h2V181.7z M208.6,174.5v2.4h4.6v-2.4H208.6z M208.6,180.6h4.6V178
					h-4.6V180.6z M211.2,166.6h5.4v-2.3h-5.4V166.6z M211.2,170.1h5.4v-2.4h-5.4V170.1z M214.4,174.5v2.4h4.9v-2.4H214.4z
					 M219.3,180.6V178h-4.9v2.6H219.3z"/>
				<path class="st1" d="M196.7,195.5h9.2v1.2h-9.2V195.5z M205.3,214.6h-6.2v1.4h-1.3v-9.5h7.5V214.6z M205.3,200.3h-7.4v-1.2h7.4
					V200.3z M197.9,202.8h7.4v1.2h-7.4V202.8z M199.1,207.7v5.6h5v-5.6H199.1z M201.6,194.8c-0.5-1-1.4-2.6-2.2-3.7l1.1-0.6
					c0.9,1.1,1.8,2.6,2.2,3.6L201.6,194.8z M211,211.5c1.5-0.4,3-0.9,4.5-1.3l0.1,1.2c-3.2,1-6.6,2-9.2,2.8l-0.5-1.3
					c1-0.3,2.3-0.6,3.7-1v-8.3h-3.4v-1.3h8.1v1.3H211V211.5z M216.5,197.8c0.5,10.5,2.1,17.4,3.9,17.4c0.5,0,0.8-1.5,0.9-4.9
					c0.3,0.3,0.8,0.6,1.1,0.7c-0.3,4.1-0.7,5.5-2.2,5.5c-3,0-4.5-7.9-5.1-18.7h-8.6v-1.3h8.5c-0.1-1.8-0.1-3.8-0.1-5.7h1.4
					c0,2,0,3.9,0.1,5.7h5.9v1.3H216.5z M220.1,195.6c-0.5-1-1.6-2.6-2.6-3.8l1-0.6c1,1.1,2.2,2.6,2.6,3.6L220.1,195.6z"/>
				<path class="st1" d="M206.6,228.3c-1.5,7.3-5,12.3-9,15.1c-0.2-0.3-0.7-0.9-1.1-1.1c3.8-2.4,7-6.9,8.4-12.9h-7.6V228h8.1
					l0.3-0.1L206.6,228.3z M219.8,227c-1.8,2.2-4.3,4.9-6.3,6.7c2.6,3.6,5.8,6.7,9.2,8.3c-0.4,0.3-0.8,0.8-1,1.2
					c-4.6-2.4-8.9-7.5-11.6-13.1v14.2c0,1.1-0.3,1.6-1,1.8c-0.7,0.3-1.9,0.3-4,0.3c-0.1-0.4-0.3-1.1-0.6-1.5c1.7,0.1,3.1,0.1,3.5,0
					c0.5,0,0.6-0.1,0.6-0.6v-23.7h1.4v6.8c0.7,1.8,1.7,3.5,2.8,5.2c1.9-1.8,4.3-4.5,5.7-6.5L219.8,227z"/>
			</g>
		</g>
		<g>
			<path class="st3" d="M280.3,123.2c0,3.1-1.2,4.9-3.2,4.9c-1.8,0-3-1.7-3.1-4.8c0-3.1,1.3-4.8,3.2-4.8
				C279.2,118.5,280.3,120.3,280.3,123.2z M275.3,123.3c0,2.4,0.7,3.8,1.9,3.8c1.3,0,1.9-1.5,1.9-3.9c0-2.3-0.6-3.8-1.9-3.8
				C276.1,119.5,275.3,120.8,275.3,123.3z"/>
			<path class="st3" d="M281.5,127.9v-0.8l1-1c2.4-2.2,3.4-3.4,3.4-4.8c0-0.9-0.5-1.8-1.8-1.8c-0.8,0-1.5,0.4-2,0.8l-0.4-0.9
				c0.6-0.5,1.6-0.9,2.6-0.9c2,0,2.8,1.4,2.8,2.7c0,1.7-1.2,3.1-3.2,5l-0.7,0.7v0h4.2v1H281.5z"/>
		</g>
		<g>
			<g>
				<path class="st1" d="M296.9,148.9c0,0,0,0.5-0.1,0.6c-0.4,4-0.7,5.7-1.4,6.3c-0.4,0.4-0.9,0.5-1.7,0.5c-0.7,0.1-2.2,0-3.8-0.1
					c0-0.4-0.2-0.9-0.4-1.2c1.7,0.1,3.3,0.2,3.8,0.2c0.5,0,0.8,0,1-0.3c0.5-0.4,0.8-1.7,1.1-4.9h-6.9c0.3-1.6,0.7-4,0.9-5.9h6v-3.6
					h-5.1v-0.3c-1.2,0.6-2.3,1.1-3.5,1.5c-0.2-0.3-0.5-0.8-0.8-1.1c2-0.6,4.2-1.7,6-3c-0.8-0.9-2.2-2.1-3.5-2.9l0.9-0.8
					c1.3,0.8,2.8,2,3.6,3c1.3-1.1,2.5-2.3,3.3-3.7h-7.1v-1.2h7.9l0.3-0.1l0.8,0.5c-1.3,2.9-3.6,5.2-6.3,6.9h4.8v5.9h-6.3
					c-0.1,1.2-0.3,2.5-0.5,3.5H296.9z M311.5,134.6c-1.3,1.2-3,2.5-4.4,3.4c1.6,1,3.4,1.8,5.3,2.3c-0.3,0.3-0.6,0.8-0.8,1.1
					c-1.6-0.5-3.2-1.2-4.6-2v4.6c0,0.6,0.1,0.8,0.5,0.8h2.6c0.3,0,1,0,1.3-0.1c0,0.3,0.1,0.7,0.1,1c-0.3,0.1-0.9,0.1-1.4,0.1h-2.7
					c-1.3,0-1.6-0.5-1.6-1.8v-3.5h-4.6v1.2c0,1.7-0.6,3.6-3.1,5c-0.2-0.2-0.6-0.7-0.9-0.9c2.3-1.2,2.8-2.8,2.8-4.2v-2.3h6.4v0h0.6
					c-3.3-2-6-4.8-7.6-8.2l1.1-0.4c0.6,1.4,1.5,2.6,2.5,3.8c1.4-1,3.2-2.5,4.2-3.6l1.1,0.7c-1.3,1.3-3.1,2.7-4.5,3.7
					c0.7,0.7,1.5,1.4,2.4,2c1.5-1,3.2-2.4,4.3-3.5L311.5,134.6z M309.4,147.9c-0.9,2.1-2.3,3.8-4,5.2c1.6,1.1,3.1,2,4.2,2.8
					l-0.7,0.9c-1.1-0.8-2.6-1.9-4.4-3c-2,1.4-4.3,2.3-6.6,3c-0.1-0.3-0.4-0.8-0.7-1.1c2.1-0.5,4.3-1.4,6.2-2.6c-1.6-1-3.3-2-4.8-2.9
					l0.7-0.7c1.6,0.9,3.3,1.9,5,3c1.4-1,2.5-2.3,3.3-3.7h-9.3v-1.1h10l0.2-0.1L309.4,147.9z"/>
				<path class="st1" d="M291.8,172.9c-1.1-1-3.3-2.3-5.2-3.1l0.8-1c1.8,0.7,4.1,2,5.2,2.9L291.8,172.9z M287.5,185.2
					c1.5-2.2,3.8-6.1,5.4-9.2l1,0.9c-1.5,3-3.6,6.7-5.3,9.3L287.5,185.2z M293.5,165.2c-1.1-1.1-3.4-2.4-5.4-3.2l0.8-1
					c1.9,0.8,4.3,2,5.4,3L293.5,165.2z M298.3,165.2c-1.2,2.5-2.6,4.8-4.1,6.5c-0.2-0.3-0.8-0.7-1.1-1c2.4-2.4,4.3-6.2,5.5-10.1
					l1.3,0.3c-0.3,1-0.7,2-1.1,3h11.9v0.7c-0.1,10-0.1,13.2-0.7,14.1c-0.4,0.5-0.8,0.7-1.5,0.8c-0.6,0-1.7,0-2.8,0
					c0-0.4-0.2-0.9-0.4-1.3c1.2,0.1,2.3,0.1,2.7,0.1c0.4,0,0.6,0,0.8-0.4c0.4-0.6,0.5-3.7,0.5-12.7H298.3z M309,184.4
					c1.7,0,2-0.6,2.2-3.5c0.3,0.2,0.9,0.4,1.3,0.5c-0.3,3.3-0.8,4.3-3.5,4.3h-8.4c-3.1,0-4-0.6-4-2.9v-13.9h9.8v8.3h-8.5v5.6
					c0,1.3,0.4,1.6,2.6,1.6H309z M297.9,170v5.8h7.3V170H297.9z"/>
			</g>
		</g>
		<g>
			<path class="st3" d="M370.4,123.2c0,3.1-1.2,4.9-3.2,4.9c-1.8,0-3-1.7-3.1-4.8c0-3.1,1.3-4.8,3.2-4.8
				C369.3,118.5,370.4,120.3,370.4,123.2z M365.4,123.3c0,2.4,0.7,3.8,1.9,3.8c1.3,0,1.9-1.5,1.9-3.9c0-2.3-0.6-3.8-1.9-3.8
				C366.2,119.5,365.4,120.8,365.4,123.3z"/>
			<path class="st3" d="M371.9,126.5c0.4,0.2,1.2,0.6,2.1,0.6c1.6,0,2.1-1,2.1-1.8c0-1.3-1.2-1.9-2.4-1.9h-0.7v-0.9h0.7
				c0.9,0,2.1-0.5,2.1-1.6c0-0.7-0.5-1.4-1.6-1.4c-0.7,0-1.5,0.3-1.9,0.6l-0.3-0.9c0.5-0.4,1.4-0.7,2.4-0.7c1.8,0,2.6,1.1,2.6,2.2
				c0,1-0.6,1.8-1.7,2.2v0c1.1,0.2,2.1,1.1,2.1,2.4c0,1.5-1.2,2.8-3.4,2.8c-1,0-2-0.3-2.4-0.6L371.9,126.5z"/>
		</g>
		<g>
			<g>
				<path class="st1" d="M383.5,150.6h5.2v1.2h-5.2v4.6h-1.3v-4.6h-5.4v-1.2h5.4v-3h-4.3v-9.8h4.3V135h-5.1v-1.2h5.1v-3h1.3v3h5.1
					v1.2h-5.1v2.8h4.4v9.8h-4.4V150.6z M379.1,142.2h7.5V139h-7.5V142.2z M379.1,146.5h7.5v-3.3h-7.5V146.5z M392.1,136.7
					c-0.8,1.5-1.6,2.8-2.5,3.9c-0.2-0.2-0.8-0.6-1.1-0.8c1.9-2.2,3.5-5.5,4.5-8.8l1.3,0.3c-0.4,1.4-0.9,2.7-1.5,4h9.6v1.3H392.1z
					 M400.1,154.9c1,0,1.3-0.6,1.3-4.2c0.3,0.2,0.8,0.4,1.2,0.5c-0.2,4.5-0.7,5.1-2.6,5.1h-6.9c-2.2,0-3.1-0.7-3.1-2.1
					c0-1.2,0.3-2.7,7.9-11.8h-7.3V141h8.6l0.3,0l0.9,0.3c-0.1,0.1-0.1,0.2-0.2,0.3c-8.3,9.9-8.8,11.4-8.8,12.3c0,0.7,0.7,1,1.7,1
					H400.1z"/>
				<path class="st1" d="M383.9,182.9c-0.5-0.9-1.8-2.8-2.7-4.2c-0.5,2.8-1.6,5.4-3.5,7.7c-0.2-0.3-0.6-0.7-0.9-0.9
					c3.5-4.3,3.9-9.6,3.9-14.9v-9.6h1.2v9.6c0,2.2-0.1,4.4-0.4,6.5c0.9,1.1,2.9,4,3.4,4.7L383.9,182.9z M378.3,173.2
					c-0.3-1.8-0.9-4.9-1.6-7.3l1-0.2c0.7,2.4,1.4,5.5,1.7,7.2L378.3,173.2z M385.5,166.2c-0.6,2-1.4,4.7-2,6.3l-1-0.3
					c0.6-1.7,1.3-4.5,1.7-6.4L385.5,166.2z M391.3,180c-1.6,1.9-3.7,4-5.5,5.5c-0.2-0.2-0.7-0.7-1-0.9c1.8-1.3,3.9-3.3,5.4-5.1
					L391.3,180z M402.4,177.4v1.2h-8.1v7.8H393v-7.8h-7.8v-1.2h7.8v-2.8h1.3v2.8H402.4z M392.7,174.6h-6.7v-5.7h6.7V174.6z
					 M391.4,170h-4.3v3.5h4.3V170z M399,167.2h-10.4v-5.5H399V167.2z M397.7,162.8h-7.8v3.2h7.8V162.8z M394.7,168.9h6.9v5.7h-6.9
					V168.9z M396.7,179.5c2,1.5,4.4,3.6,5.5,5l-0.9,0.9c-1.1-1.5-3.4-3.6-5.4-5.2L396.7,179.5z M395.9,173.5h4.4V170h-4.4V173.5z"/>
			</g>
		</g>
		<g>
			<path class="st3" d="M460.6,123.2c0,3.1-1.2,4.9-3.2,4.9c-1.8,0-3-1.7-3.1-4.8c0-3.1,1.3-4.8,3.2-4.8
				C459.5,118.5,460.6,120.3,460.6,123.2z M455.5,123.3c0,2.4,0.7,3.8,1.9,3.8c1.3,0,1.9-1.5,1.9-3.9c0-2.3-0.6-3.8-1.9-3.8
				C456.3,119.5,455.5,120.8,455.5,123.3z"/>
			<path class="st3" d="M465.6,127.9v-2.5h-4.3v-0.8l4.1-5.9h1.4v5.8h1.3v1h-1.3v2.5H465.6z M465.6,124.4v-3.1c0-0.5,0-1,0-1.5h0
				c-0.3,0.5-0.5,0.9-0.8,1.4l-2.3,3.1v0H465.6z"/>
		</g>
		<g>
			<g>
				<path class="st1" d="M471.4,142.8c-1.1-0.8-3-2-4.6-2.8l0.7-1c1.5,0.8,3.6,2,4.6,2.7L471.4,142.8z M467.4,155.4
					c1.4-2.3,3.4-6.1,4.8-9.3l1,0.8c-1.3,3-3.2,6.7-4.6,9.3L467.4,155.4z M472.8,135.6c-1.1-0.9-3-2.4-4.6-3.4l0.8-0.9
					c1.5,1,3.6,2.4,4.6,3.3L472.8,135.6z M492.6,140.1v1.2h-19.1v-1.2h9.2v-2.6h-7.5v-1.1h7.5V134h-8.2v-1.2h8.2v-2h1.4v2h8.1v1.2
					h-8.1v2.3h7.1v1.1h-7.1v2.6H492.6z M490.3,154.9c0,0.9-0.2,1.2-0.8,1.5c-0.7,0.2-1.8,0.2-3.7,0.2c-0.1-0.4-0.3-0.9-0.5-1.2
					c1.5,0,2.8,0,3.1,0c0.4,0,0.5-0.1,0.5-0.5v-2.9h-11.4c-0.3,1.7-0.8,3.5-1.8,5c-0.2-0.3-0.7-0.8-1-1c1.5-2.2,1.7-5.2,1.7-7.4
					v-5.2h13.9V154.9z M489,150.8v-2.7h-11.2v0.4c0,0.7,0,1.5-0.1,2.3H489z M477.8,144.4v2.7H489v-2.7H477.8z"/>
				<path class="st1" d="M467.6,168.9c1.5,0.9,3.3,2.3,4.2,3.3l-0.9,1.1c-0.9-1-2.6-2.5-4.2-3.4L467.6,168.9z M470.8,176.3l1,0.8
					c-1.1,2.9-2.5,6.4-3.7,8.9l-1.1-0.8C468.1,183.1,469.7,179.4,470.8,176.3z M468.4,161c1.5,0.9,3.1,2.4,3.9,3.4l-0.8,1
					c-0.8-1.1-2.4-2.6-3.9-3.5L468.4,161z M479.1,181.7c-1.4,1.6-3.7,3-5.6,4c-0.2-0.3-0.4-0.7-0.6-1c1.9-0.9,4.2-2.3,5.1-3.6
					L479.1,181.7z M473.1,169.5c1.1-0.1,2.4-0.2,3.8-0.3v-1.9h-3.3v-1.1h3.3v-1.9h-3.6v-1.1h3.6v-1.8h1.2v1.8h3.6v1.1h-3.6v1.9h3.2
					v1.1h-3.2v1.8l3.7-0.3l0,1.1l-3.8,0.4v2H477v-1.9c-1.3,0.1-2.6,0.3-3.6,0.4L473.1,169.5z M488,175.7c1.4,1.4,2.9,3.2,3.6,4.4
					l-1,0.7c-0.3-0.5-0.6-1-1.1-1.6l-6.6,0.4v4.9c0,0.7-0.1,1-0.7,1.3c-0.6,0.2-1.6,0.2-3.2,0.2c-0.1-0.4-0.3-0.8-0.5-1.1
					c1.3,0,2.3,0.1,2.6,0c0.3,0,0.4-0.1,0.4-0.4v-4.8c-6,0.4-6.9,0.5-7.5,0.7c-0.1-0.3-0.3-0.9-0.5-1.1c0.7-0.1,1.7-0.3,2.9-0.8
					c0.8-0.3,2.7-1.1,4.9-2.2c-5.1,0.3-5.9,0.4-6.3,0.5c-0.1-0.3-0.3-0.9-0.4-1.2c0.5,0,1.1-0.2,1.8-0.6c0.7-0.3,3.1-1.7,4.8-3.1
					l1.1,0.7c-1.3,1-2.8,1.9-4.2,2.7l5.4-0.2c0.7-0.4,1.4-0.8,2-1.2l1.3,0.7c-2.9,1.8-5.8,3.2-8.7,4.3l10.7-0.6
					c-0.5-0.7-1.1-1.3-1.6-1.8L488,175.7z M486.9,163.7c-0.4,3.6-1.4,6.5-4,8.2c-0.2-0.3-0.6-0.7-0.9-0.9c2.4-1.5,3.3-4.2,3.6-7.3
					h-2.8v-1.1h8.8c0,0,0,0.5,0,0.7c-0.3,5.2-0.5,7.1-1.1,7.7c-0.4,0.4-0.7,0.5-1.3,0.6c-0.5,0-1.4,0-2.2,0c0-0.4-0.2-0.9-0.3-1.2
					c0.9,0.1,1.8,0.1,2.1,0.1s0.6,0,0.7-0.2c0.3-0.5,0.6-2.1,0.8-6.4H486.9z M486.1,181c1.8,1.2,4.2,2.8,5.4,3.8l-0.7,1
					c-1.2-1-3.6-2.8-5.4-4L486.1,181z"/>
			</g>
		</g>
		<g>
			<path class="st3" d="M550.7,123.2c0,3.1-1.2,4.9-3.2,4.9c-1.8,0-3-1.7-3.1-4.8c0-3.1,1.3-4.8,3.2-4.8
				C549.6,118.5,550.7,120.3,550.7,123.2z M545.7,123.3c0,2.4,0.7,3.8,1.9,3.8c1.3,0,1.9-1.5,1.9-3.9c0-2.3-0.6-3.8-1.9-3.8
				C546.5,119.5,545.7,120.8,545.7,123.3z"/>
			<path class="st3" d="M557.4,119.7h-3.5l-0.4,2.4c0.2,0,0.4-0.1,0.8-0.1c0.7,0,1.4,0.2,2,0.5c0.7,0.4,1.3,1.2,1.3,2.4
				c0,1.8-1.4,3.2-3.4,3.2c-1,0-1.9-0.3-2.3-0.6l0.3-1c0.4,0.2,1.1,0.5,2,0.5c1.2,0,2.2-0.8,2.2-2c0-1.2-0.8-2.1-2.7-2.1
				c-0.5,0-0.9,0.1-1.3,0.1l0.6-4.4h4.4V119.7z"/>
		</g>
		<g>
			<g>
				<path class="st1" d="M560.6,135.1v7c0,4.3-0.3,10.4-2.7,14.6c-0.3-0.3-0.8-0.7-1.1-0.8c2.3-4.1,2.5-9.8,2.5-13.9v-8.3h11.4
					c-0.4-0.8-1-1.8-1.5-2.5l1.3-0.5c0.7,0.9,1.5,2,1.9,2.9h10.3v1.3H560.6z M574.7,145.9c1.2,5.5,3.5,9,5.7,9c0.7,0,1-1.3,1.1-4.3
					c0.3,0.3,0.8,0.5,1.1,0.6c-0.3,3.8-0.8,5-2.4,5c-3,0-5.6-4.2-6.9-10.4h-7.6v6l5.9-1.5c0,0.4,0,0.9,0,1.2
					c-6.3,1.6-7.1,1.9-7.5,2.2c-0.1-0.3-0.4-0.9-0.6-1.3c0.3-0.1,0.8-0.5,0.8-1.5v-12.7c5.1-0.3,11.3-0.8,14.7-1.5l1.1,1
					c-1.8,0.4-4,0.7-6.4,1c0.1,2,0.3,4,0.6,5.8h7.3v1.3H574.7z M573.2,144.7c-0.3-1.8-0.5-3.7-0.7-5.7c-2.2,0.2-4.6,0.4-6.7,0.5v5.2
					H573.2z M568.3,154.3h7.5v1.2h-7.5V154.3z"/>
				<path class="st1" d="M570.6,184.3h12.2v1.2H557v-1.2h12.2v-3.1H560V180h9.2v-1.7h1.4v1.7h9.6v1.2h-9.6V184.3z M561.1,169.3
					c-0.9-0.8-2.6-1.9-4-2.6l0.8-0.9c1.4,0.7,3.2,1.8,4,2.6L561.1,169.3z M557.8,177.8c1.2-1.5,2.9-4,4.2-6.3l0.9,0.8
					c-1.3,2.1-2.8,4.6-4.1,6.3L557.8,177.8z M562.9,164.7c-0.9-0.9-2.6-2-4-2.9l0.8-0.9c1.4,0.7,3.2,1.9,4,2.7L562.9,164.7z
					 M573.5,161.1c-0.2,0.2-0.3,0.5-0.5,0.7c2.1,2.1,6.2,4.1,9.8,4.9c-0.3,0.3-0.7,0.8-0.9,1.2c-3.5-0.9-7.4-3-9.6-5.2
					c-2.3,2.3-5.5,4.3-8.7,5.5c-0.2-0.3-0.6-0.8-0.9-1.1c3.7-1.3,7.6-3.6,9.6-6.4L573.5,161.1z M568.8,172.8
					c-1.1,1.6-2.9,3.3-4.7,4.4c-0.2-0.2-0.6-0.5-0.9-0.7c1.8-1.1,3.5-2.8,4.5-4.2L568.8,172.8z M571.6,177.5v-6.4h-7.3V170h7.3v-2.4
					h-4.5v-1.1h10.5v1.1h-4.6v2.4h7.5v1.2h-7.5v6.4H571.6z M580.6,177.1c-1-1.1-3.1-2.9-4.8-4.1l0.9-0.7c1.7,1.2,3.8,3,4.8,4
					L580.6,177.1z"/>
			</g>
		</g>
		<g>
			<path class="st3" d="M640.8,123.2c0,3.1-1.2,4.9-3.2,4.9c-1.8,0-3-1.7-3.1-4.8c0-3.1,1.3-4.8,3.2-4.8
				C639.7,118.5,640.8,120.3,640.8,123.2z M635.8,123.3c0,2.4,0.7,3.8,1.9,3.8c1.3,0,1.9-1.5,1.9-3.9c0-2.3-0.6-3.8-1.9-3.8
				C636.6,119.5,635.8,120.8,635.8,123.3z"/>
			<path class="st3" d="M647.3,119.6c-0.3,0-0.6,0-0.9,0.1c-2,0.3-3,1.8-3.2,3.3h0c0.4-0.6,1.2-1.1,2.2-1.1c1.6,0,2.8,1.2,2.8,3
				c0,1.7-1.2,3.3-3.1,3.3c-2,0-3.3-1.5-3.3-3.9c0-1.8,0.7-3.3,1.6-4.2c0.8-0.8,1.8-1.2,3-1.4c0.4-0.1,0.7-0.1,0.9-0.1V119.6z
				 M646.9,124.9c0-1.3-0.8-2.1-1.9-2.1c-0.8,0-1.5,0.5-1.8,1.1c-0.1,0.1-0.1,0.3-0.1,0.6c0,1.5,0.7,2.6,2,2.6
				C646.2,127.1,646.9,126.2,646.9,124.9z"/>
		</g>
		<g>
			<g>
				<path class="st1" d="M656.6,132.6c-0.9,2.4-2.2,5.2-3.3,7.6c2.4,2.5,3,4.7,3,6.6c0,1.4-0.3,2.6-1.1,3.1
					c-0.4,0.3-0.9,0.5-1.5,0.5c-0.7,0.1-1.5,0.1-2.1,0c0-0.4-0.2-0.9-0.4-1.3c0.8,0.1,1.5,0.1,2.1,0.1c0.4,0,0.8-0.1,1.1-0.3
					c0.5-0.3,0.7-1.3,0.7-2.2c0-1.7-0.7-3.8-3.1-6.3c1.1-2.3,2.2-5,2.9-7.1h-5.2v23.3h-1.3V132h7.1l0.2-0.1L656.6,132.6z
					 M662.5,137.1c-0.1,1.7-0.1,3.3-0.3,4.9h8.7v0.7c-0.4,9.1-0.7,12.2-1.6,13.2c-0.5,0.5-0.9,0.7-1.8,0.8c-0.8,0.1-2.4,0-4-0.1
					c0-0.4-0.2-1-0.4-1.4c1.7,0.2,3.4,0.2,4,0.2c0.5,0,0.8,0,1.1-0.3c0.7-0.7,1-3.7,1.3-11.8h-7.4c-0.7,5.7-2.3,10.6-7.3,13.3
					c-0.2-0.3-0.7-0.7-1-1c6.4-3.5,7-10.8,7.3-18.5h-5v-1.3h16.6v1.3H662.5z M664.4,135.6c-0.3-1.1-0.9-2.9-1.4-4.3l1.3-0.3
					c0.5,1.4,1.2,3.2,1.4,4.2L664.4,135.6z"/>
				<path class="st1" d="M657.3,168.5c-1.5,7.3-5,12.3-9,15.1c-0.2-0.3-0.7-0.9-1.1-1.1c3.8-2.4,7-6.9,8.4-12.9H648v-1.4h8.1
					l0.3-0.1L657.3,168.5z M670.5,167.2c-1.8,2.2-4.3,4.9-6.3,6.7c2.6,3.6,5.8,6.7,9.2,8.3c-0.4,0.3-0.8,0.8-1,1.2
					c-4.6-2.4-8.9-7.5-11.6-13.1v14.2c0,1.1-0.3,1.6-1,1.8c-0.7,0.3-1.9,0.3-4,0.3c-0.1-0.4-0.3-1.1-0.6-1.5c1.7,0.1,3.1,0.1,3.5,0
					c0.5,0,0.6-0.1,0.6-0.6v-23.7h1.4v6.8c0.7,1.8,1.7,3.5,2.8,5.2c1.9-1.8,4.3-4.5,5.7-6.5L670.5,167.2z"/>
			</g>
		</g>
		<g>
			<path class="st3" d="M730.9,123.2c0,3.1-1.2,4.9-3.2,4.9c-1.8,0-3-1.7-3.1-4.8c0-3.1,1.3-4.8,3.2-4.8
				C729.8,118.5,730.9,120.3,730.9,123.2z M725.9,123.3c0,2.4,0.7,3.8,1.9,3.8c1.3,0,1.9-1.5,1.9-3.9c0-2.3-0.6-3.8-1.9-3.8
				C726.7,119.5,725.9,120.8,725.9,123.3z"/>
			<path class="st3" d="M738.1,118.7v0.8l-4,8.4h-1.3l4-8.2v0h-4.5v-1H738.1z"/>
		</g>
		<g>
			<g>
				<path class="st1" d="M746.7,132.6c-0.9,2.4-2.2,5.2-3.3,7.6c2.4,2.5,3,4.7,3,6.6c0,1.4-0.3,2.6-1.1,3.1
					c-0.4,0.3-0.9,0.5-1.5,0.5c-0.7,0.1-1.5,0.1-2.1,0c0-0.4-0.2-0.9-0.4-1.3c0.8,0.1,1.5,0.1,2.1,0.1c0.4,0,0.8-0.1,1.1-0.3
					c0.5-0.3,0.7-1.3,0.7-2.2c0-1.7-0.7-3.8-3.1-6.3c1.1-2.3,2.2-5,2.9-7.1h-5.2v23.3h-1.3V132h7.1l0.2-0.1L746.7,132.6z
					 M752.6,137.1c-0.1,1.7-0.1,3.3-0.3,4.9h8.7v0.7c-0.4,9.1-0.7,12.2-1.6,13.2c-0.5,0.5-0.9,0.7-1.8,0.8c-0.8,0.1-2.4,0-4-0.1
					c0-0.4-0.2-1-0.4-1.4c1.7,0.2,3.4,0.2,4,0.2c0.5,0,0.8,0,1.1-0.3c0.7-0.7,1-3.7,1.3-11.8h-7.4c-0.7,5.7-2.3,10.6-7.3,13.3
					c-0.2-0.3-0.7-0.7-1-1c6.4-3.5,7-10.8,7.3-18.5h-5v-1.3h16.6v1.3H752.6z M754.5,135.6c-0.3-1.1-0.9-2.9-1.4-4.3l1.3-0.3
					c0.5,1.4,1.2,3.2,1.4,4.2L754.5,135.6z"/>
				<path class="st1" d="M747.4,168.5c-1.5,7.3-5,12.3-9,15.1c-0.2-0.3-0.7-0.9-1.1-1.1c3.8-2.4,7-6.9,8.4-12.9h-7.6v-1.4h8.1
					l0.3-0.1L747.4,168.5z M760.6,167.2c-1.8,2.2-4.3,4.9-6.3,6.7c2.6,3.6,5.8,6.7,9.2,8.3c-0.4,0.3-0.8,0.8-1,1.2
					c-4.6-2.4-8.9-7.5-11.6-13.1v14.2c0,1.1-0.3,1.6-1,1.8c-0.7,0.3-1.9,0.3-4,0.3c-0.1-0.4-0.3-1.1-0.6-1.5c1.7,0.1,3.1,0.1,3.5,0
					c0.5,0,0.6-0.1,0.6-0.6v-23.7h1.4v6.8c0.7,1.8,1.7,3.5,2.8,5.2c1.9-1.8,4.3-4.5,5.7-6.5L760.6,167.2z"/>
				<path class="st1" d="M737.4,195.5h9.2v1.2h-9.2V195.5z M746,214.6h-6.2v1.4h-1.3v-9.5h7.5V214.6z M746,200.3h-7.4v-1.2h7.4
					V200.3z M738.6,202.8h7.4v1.2h-7.4V202.8z M739.8,207.7v5.6h5v-5.6H739.8z M742.4,194.8c-0.5-1-1.4-2.6-2.2-3.7l1.1-0.6
					c0.9,1.1,1.8,2.6,2.2,3.6L742.4,194.8z M751.7,211.5c1.5-0.4,3-0.9,4.5-1.3l0.1,1.2c-3.2,1-6.6,2-9.2,2.8l-0.5-1.3
					c1-0.3,2.3-0.6,3.7-1v-8.3h-3.4v-1.3h8.1v1.3h-3.4V211.5z M757.3,197.8c0.5,10.5,2.1,17.4,3.9,17.4c0.5,0,0.8-1.5,0.9-4.9
					c0.3,0.3,0.8,0.6,1.1,0.7c-0.3,4.1-0.7,5.5-2.2,5.5c-3,0-4.5-7.9-5.1-18.7h-8.6v-1.3h8.5c-0.1-1.8-0.1-3.8-0.1-5.7h1.4
					c0,2,0,3.9,0.1,5.7h5.9v1.3H757.3z M760.8,195.6c-0.5-1-1.6-2.6-2.6-3.8l1-0.6c1,1.1,2.2,2.6,2.6,3.6L760.8,195.6z"/>
				<path class="st1" d="M747.4,228.3c-1.5,7.3-5,12.3-9,15.1c-0.2-0.3-0.7-0.9-1.1-1.1c3.8-2.4,7-6.9,8.4-12.9h-7.6V228h8.1
					l0.3-0.1L747.4,228.3z M760.6,227c-1.8,2.2-4.3,4.9-6.3,6.7c2.6,3.6,5.8,6.7,9.2,8.3c-0.4,0.3-0.8,0.8-1,1.2
					c-4.6-2.4-8.9-7.5-11.6-13.1v14.2c0,1.1-0.3,1.6-1,1.8c-0.7,0.3-1.9,0.3-4,0.3c-0.1-0.4-0.3-1.1-0.6-1.5c1.7,0.1,3.1,0.1,3.5,0
					c0.5,0,0.6-0.1,0.6-0.6v-23.7h1.4v6.8c0.7,1.8,1.7,3.5,2.8,5.2c1.9-1.8,4.3-4.5,5.7-6.5L760.6,227z"/>
			</g>
		</g>
		<g>
			<path class="st3" d="M821.1,123.2c0,3.1-1.2,4.9-3.2,4.9c-1.8,0-3-1.7-3.1-4.8c0-3.1,1.3-4.8,3.2-4.8
				C820,118.5,821.1,120.3,821.1,123.2z M816,123.3c0,2.4,0.7,3.8,1.9,3.8c1.3,0,1.9-1.5,1.9-3.9c0-2.3-0.6-3.8-1.9-3.8
				C816.8,119.5,816,120.8,816,123.3z"/>
			<path class="st3" d="M822.1,125.6c0-1.2,0.7-2,1.8-2.5l0,0c-1-0.5-1.5-1.3-1.5-2.1c0-1.5,1.2-2.5,2.9-2.5c1.8,0,2.7,1.1,2.7,2.3
				c0,0.8-0.4,1.6-1.5,2.2v0c1.2,0.5,1.9,1.3,1.9,2.4c0,1.6-1.4,2.7-3.1,2.7C823.3,128.1,822.1,126.9,822.1,125.6z M827.1,125.5
				c0-1.1-0.8-1.7-2-2c-1.1,0.3-1.7,1-1.7,1.9c0,0.9,0.7,1.8,1.9,1.8C826.4,127.2,827.1,126.5,827.1,125.5z M823.6,120.9
				c0,0.9,0.7,1.4,1.8,1.7c0.8-0.3,1.4-0.8,1.4-1.7c0-0.7-0.4-1.5-1.6-1.5C824.2,119.4,823.6,120.1,823.6,120.9z"/>
		</g>
		<g>
			<g>
				<path class="st1" d="M852.8,136h-10.3c3.6,2.1,7.9,4.9,10.2,6.7l-0.9,0.9c-2.4-2-7-5-10.9-7.3v6h-1.3V136h-0.2
					c-2.6,3.4-7.3,6.5-11.1,8.1c-0.2-0.3-0.6-0.8-0.9-1.1c3.6-1.3,7.9-4,10.4-7h-10v-1.3h11.8v-3.9h1.3v3.9h11.9V136z M828.4,154.4
					h23.9v1.3h-23.9V154.4z M847.9,143.3v9.1h-15.3v-9.1H847.9z M846.6,144.4H834v2.9h12.6V144.4z M846.6,148.4H834v2.9h12.6V148.4z
					"/>
				<path class="st1" d="M827.1,184.2c0.7-1.7,1.1-4.5,1.4-6.3l0.9,0.3c-0.3,1.9-0.7,4.7-1.3,6.4L827.1,184.2z M837.9,175.7
					c-0.3,7.1-0.5,9.4-1.1,10.1c-0.3,0.4-0.7,0.6-1.4,0.6c-0.5,0-1.3,0-2.2,0c0-0.3-0.1-0.9-0.3-1.2c0.9,0.1,1.8,0.1,2.1,0.1
					c0.3,0,0.5,0,0.7-0.3c0.4-0.5,0.7-2.7,0.9-8.8h-8.1v-14.2h9.3v1.2h-4v3.1h3.3v1.2H834v3h3.3v1.2H834v3.3h3.9V175.7z
					 M829.8,163.3v3.1h3v-3.1H829.8z M832.8,167.6h-3v3h3V167.6z M829.8,175.1h3v-3.3h-3V175.1z M831,178.2c0.2,1.6,0.4,3.7,0.5,5.2
					l-0.9,0.1c0-1.4-0.2-3.5-0.5-5.2L831,178.2z M832.6,177.8c0.5,1.5,1.1,3.4,1.3,4.6l-0.9,0.3c-0.2-1.3-0.8-3.2-1.3-4.6
					L832.6,177.8z M835.4,181.3c-0.4-1-1.2-2.6-1.9-3.8l0.8-0.3c0.7,1.2,1.6,2.8,1.9,3.7L835.4,181.3z M844.7,184.7
					c-0.7-0.7-1.9-1.8-3.1-2.6c-0.8,1.8-1.8,3.3-3.1,4.4c-0.2-0.2-0.7-0.7-1-0.9c2-1.6,3.4-4.2,4-7.2l1.3,0.2
					c-0.2,0.8-0.4,1.6-0.7,2.4c1.3,0.8,2.7,2,3.4,2.7L844.7,184.7z M846.5,160.9c-0.2,0.3-0.3,0.5-0.5,0.8c1.7,2.2,4.8,4.7,7.2,6
					c-0.3,0.3-0.6,0.8-0.7,1.1c-2.4-1.5-5.3-3.9-7.1-6.1c-1.7,2.4-4.2,4.7-6.9,6.4c-0.2-0.2-0.7-0.6-1-0.8c3.3-2,6.2-5,7.7-7.8
					L846.5,160.9z M839.3,171h5.4v6.3h-5.4V171z M840.4,176.3h3.1v-4.2h-3.1V176.3z M849.9,168.3h-8.7v-1.2h8.7V168.3z M849.9,178.5
					c-0.2,1.1-0.5,2-0.9,3c1.5,1.1,3.1,2.4,3.9,3.4l-0.9,1c-0.8-0.9-2.2-2.2-3.6-3.3c-0.8,1.6-1.8,2.9-3,3.9
					c-0.2-0.2-0.7-0.6-1.1-0.9c2.2-1.6,3.6-4.1,4.2-7.3L849.9,178.5z M851.9,177.4h-5.6V171h5.6V177.4z M850.7,172.1h-3.3v4.2h3.3
					V172.1z"/>
			</g>
		</g>
		<g>
			<path class="st3" d="M911.2,123.2c0,3.1-1.2,4.9-3.2,4.9c-1.8,0-3-1.7-3.1-4.8c0-3.1,1.3-4.8,3.2-4.8
				C910.1,118.5,911.2,120.3,911.2,123.2z M906.2,123.3c0,2.4,0.7,3.8,1.9,3.8c1.3,0,1.9-1.5,1.9-3.9c0-2.3-0.6-3.8-1.9-3.8
				C907,119.5,906.2,120.8,906.2,123.3z"/>
			<path class="st3" d="M913.1,127c0.3,0,0.6,0,1,0c0.7-0.1,1.4-0.4,1.9-0.9c0.6-0.6,1.1-1.4,1.2-2.5h0c-0.5,0.6-1.3,1-2.2,1
				c-1.7,0-2.7-1.3-2.7-2.8c0-1.8,1.3-3.3,3.2-3.3c1.9,0,3.1,1.5,3.1,3.9c0,2-0.7,3.5-1.6,4.3c-0.7,0.7-1.7,1.1-2.7,1.2
				c-0.5,0.1-0.9,0.1-1.2,0.1V127z M913.5,121.7c0,1.2,0.7,2,1.8,2c0.8,0,1.5-0.4,1.8-1c0.1-0.1,0.1-0.3,0.1-0.5
				c0-1.6-0.6-2.8-1.9-2.8C914.3,119.5,913.5,120.4,913.5,121.7z"/>
		</g>
		<g>
			<g>
				<path class="st1" d="M927,132.6c-0.9,2.4-2.2,5.2-3.3,7.6c2.4,2.5,3,4.7,3,6.6c0,1.4-0.3,2.6-1.1,3.1c-0.4,0.3-0.9,0.5-1.5,0.5
					c-0.7,0.1-1.5,0.1-2.1,0c0-0.4-0.2-0.9-0.4-1.3c0.8,0.1,1.5,0.1,2.1,0.1c0.4,0,0.8-0.1,1.1-0.3c0.5-0.3,0.7-1.3,0.7-2.2
					c0-1.7-0.7-3.8-3.1-6.3c1.1-2.3,2.2-5,2.9-7.1H920v23.3h-1.3V132h7.1l0.2-0.1L927,132.6z M932.9,137.1c-0.1,1.7-0.1,3.3-0.3,4.9
					h8.7v0.7c-0.4,9.1-0.7,12.2-1.6,13.2c-0.5,0.5-0.9,0.7-1.8,0.8c-0.8,0.1-2.4,0-4-0.1c0-0.4-0.2-1-0.4-1.4c1.7,0.2,3.4,0.2,4,0.2
					c0.5,0,0.8,0,1.1-0.3c0.7-0.7,1-3.7,1.3-11.8h-7.4c-0.7,5.7-2.3,10.6-7.3,13.3c-0.2-0.3-0.7-0.7-1-1c6.4-3.5,7-10.8,7.3-18.5h-5
					v-1.3H943v1.3H932.9z M934.8,135.6c-0.3-1.1-0.9-2.9-1.4-4.3l1.3-0.3c0.5,1.4,1.2,3.2,1.4,4.2L934.8,135.6z"/>
				<path class="st1" d="M927.6,168.5c-1.5,7.3-5,12.3-9,15.1c-0.2-0.3-0.7-0.9-1.1-1.1c3.8-2.4,7-6.9,8.4-12.9h-7.6v-1.4h8.1
					l0.3-0.1L927.6,168.5z M940.8,167.2c-1.8,2.2-4.3,4.9-6.3,6.7c2.6,3.6,5.8,6.7,9.2,8.3c-0.4,0.3-0.8,0.8-1,1.2
					c-4.6-2.4-8.8-7.5-11.6-13.1v14.2c0,1.1-0.3,1.6-1,1.8c-0.7,0.3-1.9,0.3-4,0.3c-0.1-0.4-0.3-1.1-0.6-1.5c1.7,0.1,3.1,0.1,3.5,0
					c0.5,0,0.6-0.1,0.6-0.6v-23.7h1.4v6.8c0.7,1.8,1.7,3.5,2.8,5.2c1.9-1.8,4.3-4.5,5.7-6.5L940.8,167.2z"/>
				<path class="st1" d="M925.7,191.1c-0.9,2.1-1.9,4.2-3.1,6.1v19.1h-1.3v-17c-1.1,1.6-2.3,3.1-3.5,4.3c-0.2-0.3-0.6-1-0.9-1.3
					c3-2.8,5.8-7.1,7.5-11.6L925.7,191.1z M943.2,204.5v1.3h-8.5v10.6h-1.4v-10.6h-8.7v-1.3h8.7v-3.9h-6.5V192h14.5v8.6h-6.7v3.9
					H943.2z M931,207.9c-1.5,2.4-3.4,5.2-5.2,7c-0.2-0.2-0.8-0.6-1.1-0.8c1.7-1.8,3.6-4.3,5-6.6L931,207.9z M928.2,199.3h11.9v-6
					h-11.9V199.3z M937.8,207.5c2,2.1,4.3,4.9,5.4,6.6l-1.1,0.7c-1.1-1.8-3.4-4.7-5.3-6.8L937.8,207.5z"/>
				<path class="st1" d="M927.2,226.6h-9.7v-1.2h9.7V226.6z M918.6,230.2V229h7.6v1.2H918.6z M926.2,233.9h-7.6v-1.2h7.6V233.9z
					 M926.3,244.5h-6.4v1.4h-1.2v-9.5h7.6V244.5z M919.9,237.6v5.6h5.1v-5.6H919.9z M922.9,224.7c-0.4-1-1.3-2.6-2.2-3.7l1.1-0.6
					c0.9,1.2,1.8,2.6,2.2,3.6L922.9,224.7z M941.6,238.7c-1.1,1.8-2.7,3.3-4.8,4.5c2.1,0.9,4.5,1.6,6.8,2c-0.3,0.3-0.7,0.8-0.8,1.1
					c-2.5-0.5-5-1.3-7.3-2.4c-2.4,1.2-5.3,2-8,2.4c-0.1-0.4-0.4-0.9-0.7-1.2c2.5-0.4,5.1-1,7.4-2c-1.7-1-3-2.1-4.1-3.4l0.8-0.3h-3.2
					v-1.1h12.8l0.2-0.1L941.6,238.7z M935.5,227.5c-0.2-0.7-0.5-1.5-0.8-2.2l1.2-0.4c0.3,0.8,0.7,1.8,1,2.5h5.7v1.1h-6v1.7h5.2v1
					h-5.2v1.7h5.2v1h-5.2v1.8h6.6v1.1h-12.4v0.7h-1.2v-7.7c-0.6,0.9-1.2,1.6-1.8,2.2c-0.2-0.3-0.6-0.8-0.9-1
					c1.7-1.5,3.1-3.8,3.8-6.2l1.2,0.3c-0.3,0.8-0.6,1.6-1,2.4H935.5z M932.5,223.6h-5.1v-1.2h5.1v-2h1.3v4.9h-1.3V223.6z
					 M935.3,228.6h-4.5v1.7h4.5V228.6z M935.3,231.3h-4.5v1.7h4.5V231.3z M935.3,234h-4.5v1.8h4.5V234z M931.4,239.4
					c1,1.2,2.4,2.2,4.1,3.2c1.7-0.9,3.1-1.9,4.1-3.2H931.4z M938.4,225.4h-1.3v-4.9h1.3v2h4.7v1.2h-4.7V225.4z"/>
			</g>
		</g>
	</g>
</g>
</svg>
