<svg width="1449" height="265" viewBox="0 0 1449 265" fill="none" xmlns="http://www.w3.org/2000/svg">
<path d="M152.64 108.36L155.4 110.05C154.27 113.32 153.26 115.95 152.37 117.94C151.48 119.93 150.53 121.71 149.52 123.29C148.51 124.86 147.23 126.51 145.69 128.23C140.88 133.7 135.41 136.43 129.29 136.43C122.16 136.43 114.05 132.18 104.96 123.69C94.92 127.61 84.4 129.57 73.41 129.57C59.87 129.57 47.33 126.67 35.8 120.88C24.27 115.09 15.16 107.26 8.43999 97.4002C1.72999 87.5402 -1.63 76.7302 -1.63 64.9602C-1.63 56.1702 0.329995 47.7602 4.25 39.7402C8.17 31.7202 13.53 24.7802 20.33 18.9302C27.13 13.0802 35.15 8.49018 44.39 5.16018C53.65 1.84018 63.38 0.180176 73.6 0.180176C83.82 0.180176 93.46 1.86018 102.52 5.21018C111.58 8.57018 119.54 13.2302 126.4 19.2002C133.26 25.1702 138.59 32.0902 142.4 39.9602C146.2 47.8302 148.1 56.2202 148.1 65.1302C148.1 73.3902 146.08 81.8202 142.04 90.4402C139.9 94.9002 137.55 98.7102 135 101.89C132.44 105.07 128.85 108.56 124.22 112.36C127.72 114.62 130.56 116.19 132.73 117.08C134.9 117.97 137.11 118.42 139.37 118.42C144.24 118.42 148.67 115.06 152.65 108.35L152.64 108.36ZM57.2 100.69L54.79 99.8002C55.68 95.1702 57.91 91.6302 61.47 89.1902C65.03 86.7602 69.64 85.5402 75.28 85.5402C79.02 85.5402 82.44 85.9902 85.53 86.8802C88.62 87.7702 91.99 89.3002 95.64 91.4702C99.29 93.6402 104 96.8302 109.76 101.05C114.27 90.2402 116.53 78.0302 116.53 64.4202C116.53 55.2702 115.52 46.9502 113.5 39.4702C111.48 31.9802 108.57 25.5202 104.77 20.0902C100.97 14.6502 96.44 10.4802 91.18 7.57018C85.92 4.66018 80.05 3.20018 73.58 3.20018C67.11 3.20018 61.12 4.67018 55.8 7.61018C50.48 10.5502 45.92 14.7502 42.12 20.2202C38.32 25.6902 35.41 32.1902 33.39 39.7402C31.37 47.2902 30.36 55.6902 30.36 64.9602C30.36 77.2602 32.13 88.0102 35.66 97.2202C39.19 106.43 44.26 113.54 50.85 118.56C57.44 123.58 65.08 126.09 73.75 126.09C78.32 126.09 82.53 125.38 86.36 123.95C90.19 122.52 94.16 120.18 98.26 116.91C90.83 109.25 84.68 103.81 79.81 100.6C74.94 97.3902 70.36 95.7902 66.09 95.7902C63.95 95.7902 62.32 96.1202 61.19 96.7702C60.06 97.4202 58.72 98.7302 57.18 100.69H57.2Z" fill="url(#paint0_linear_12_5824)"/>
<path d="M128.94 123.51H132.42C140.08 123.51 145.77 121.65 149.49 117.94C153.2 114.23 155.06 108.54 155.06 100.87C155.53 97.66 155.91 94.83 156.17 92.36C156.44 89.9 156.6 87.07 156.66 83.89C156.72 80.71 156.72 76.72 156.66 71.91C156.42 51.59 155.83 36.29 154.88 26.02C154.52 21.86 153.86 18.62 152.87 16.31C151.89 13.99 150.42 12.06 148.46 10.52C144.9 7.37 139.55 5.8 132.42 5.8H128.94V2.5H207.36V5.8H203.88C196.22 5.8 190.54 7.64 186.86 11.33C183.18 15.01 181.33 20.72 181.33 28.44V100.88C181.33 108.54 183.19 114.23 186.9 117.95C190.61 121.66 196.27 123.52 203.88 123.52H207.36V127H128.94V123.52V123.51Z" fill="url(#paint1_linear_12_5824)"/>
<path d="M182.68 2.5H262.44V5.62H253.17C249.49 5.62 246.62 6.3 244.57 7.67C242.52 9.04 241.5 10.97 241.5 13.46C241.5 14.71 241.8 15.88 242.39 16.98C242.98 18.08 244.74 20.74 247.65 24.95L278.57 67.64L306.28 31.19C310.02 26.44 311.89 22.37 311.89 18.98C311.89 15.06 310.26 11.88 306.99 9.44C303.72 7.01 299.47 5.79 294.25 5.79H286.05V2.5H350.03V5.62C345.81 6.1 342.01 6.88 338.62 7.98C335.23 9.08 332.11 10.51 329.26 12.26C326.41 14.01 323.45 16.37 320.39 19.34C317.33 22.31 314.37 25.64 311.52 29.32L280.15 70.76V100.88C280.15 108.49 282.02 114.16 285.76 117.9C289.5 121.64 295.18 123.51 302.78 123.51H311.16V126.99H222.49V123.51H231.22C238.88 123.51 244.57 121.65 248.28 117.94C251.99 114.23 253.85 108.54 253.85 100.87V74.05L216.6 23.17C211.85 16.64 207.18 12.11 202.61 9.58C198.03 7.06 192.12 5.79 184.88 5.79H182.65V2.5H182.68Z" fill="url(#paint2_linear_12_5824)"/>
<path d="M364.48 0H367.78L417.86 108.9C419.46 112.29 421.26 115.08 423.25 117.28C425.24 119.48 427.48 121.07 429.98 122.05C432.47 123.03 435.42 123.52 438.8 123.52H442.1V127H369.83V123.52H379.28C383.97 123.52 387.4 122.88 389.57 121.6C391.74 120.32 392.82 118.35 392.82 115.67C392.82 114.01 392.39 111.99 391.53 109.61C390.67 107.23 388.78 102.93 385.87 96.69C385.69 96.33 385.42 95.74 385.07 94.91C384.72 94.08 384.33 93.28 383.91 92.5L381.86 87.95H329.1L325.09 97.22C323.78 100.37 323.13 103.55 323.13 106.76C323.13 109.49 323.89 112.2 325.4 114.87C326.91 117.54 328.89 119.56 331.33 120.93C332.93 121.88 334.37 122.52 335.65 122.85C336.93 123.18 338.75 123.4 341.13 123.52V127H290.42V123.52C294.1 123.1 297.03 122.45 299.2 121.56C301.37 120.67 303.79 119.18 306.46 117.1C312.76 112.23 318.9 103.05 324.91 89.56L364.48 0ZM355.03 29.14L330.61 84.66H380.07L355.03 29.14Z" fill="url(#paint3_linear_12_5824)"/>
<path d="M412.16 2.5H462.15L548.68 92.15V38.5C548.68 31.97 547.57 26.25 545.34 21.34C543.11 16.44 539.89 12.71 535.67 10.16C533.41 8.73 531.14 7.72 528.85 7.13C526.56 6.54 523.37 6.09 519.27 5.79V2.5H580.94V5.8H579.69C570.72 5.8 563.89 8.65 559.19 14.36C554.5 20.06 552.15 28.35 552.15 39.22V128.24H549.21L441.75 17.82V91.79C441.75 98.98 442.61 104.73 444.33 109.03C446.05 113.34 448.84 116.71 452.71 119.14C455.86 121.04 459.69 122.26 464.21 122.79C466.7 123.21 470.27 123.5 474.9 123.68V126.98H409.94V123.68C416.59 123.32 422.01 122.15 426.2 120.16C430.39 118.17 433.48 115.22 435.47 111.29C437.46 107.37 438.46 102.5 438.46 96.68V26.29C438.46 21.95 437.49 18.27 435.56 15.24C433.63 12.21 430.82 9.88 427.14 8.24C423.45 6.61 419 5.79 413.77 5.79H412.17V2.5H412.16Z" fill="url(#paint4_linear_12_5824)"/>
<path d="M75.29 204.61H47.31V239.45C47.31 247.06 49.18 252.73 52.92 256.47C56.66 260.21 62.34 262.08 69.94 262.08H73.59V265.56H-5V262.08H-1.61C6.05 262.08 11.74 260.22 15.46 256.51C19.17 252.8 21.03 247.11 21.03 239.44V166.99C21.03 159.27 19.19 153.56 15.5 149.88C11.82 146.2 6.11 144.35 -1.61 144.35H-5V141.05H91.51C104.58 141.05 114.92 142 122.52 143.9C130.12 145.8 136.15 149.01 140.61 153.52C143.16 156.07 145.2 159.1 146.71 162.61C148.22 166.12 148.98 169.59 148.98 173.04C148.98 182.43 144.11 189.97 134.37 195.67C130.74 197.63 125.82 199.38 119.58 200.93C113.34 202.48 107.13 203.51 100.96 204.05C96.27 204.41 89.11 204.58 79.48 204.58V204.94C84.23 208.03 88.54 210.58 92.4 212.6C96.26 214.62 100.15 216.33 104.07 217.72C107.99 219.11 112.45 220.38 117.44 221.51L120.38 225.97C122.34 228.82 123.8 230.96 124.75 232.38C125.7 233.81 126.8 235.44 128.05 237.28C131.38 242.33 134.54 246.71 137.54 250.42C140.54 254.13 143.02 256.73 144.98 258.22C148.84 260.77 154.37 262.05 161.56 262.05H165.04V265.53H118.34L75.3 204.58L75.29 204.61ZM47.31 201.31H82.78C91.16 201.31 98.03 200.29 103.41 198.24C108.79 196.19 112.8 193.07 115.44 188.88C118.08 184.69 119.41 179.3 119.41 172.71C119.41 153.82 107.38 144.37 83.32 144.37H47.31V201.31Z" fill="url(#paint5_linear_12_5824)"/>
<path d="M132.24 141.07H264.66V189.28H261.99C259.55 180.85 257.37 174.53 255.44 170.34C253.51 166.15 251 162.19 247.91 158.44C244.17 153.98 240.1 150.81 235.7 148.91C228.39 145.88 219.51 144.36 209.05 144.36H184.54V203.53H191.13C200.93 203.53 208.72 199.31 214.48 190.88C217.45 186.54 219.65 181.38 221.07 175.37C221.78 172.82 222.44 169.04 223.03 164.05H226.15V245.68H223.03C222.32 241.28 221.47 237.14 220.49 233.25C219.51 229.36 218.41 226.2 217.19 223.76C215.97 221.33 214.41 218.89 212.51 216.45C207.16 209.86 199.56 206.56 189.7 206.56H184.53V262.26H205.03C211.09 262.26 216.54 261.83 221.38 260.97C226.22 260.11 230.57 258.77 234.43 256.96C238.29 255.15 241.92 252.79 245.3 249.88C251.12 244.95 255.64 238.8 258.85 231.43C260.69 227.21 262.62 221.51 264.64 214.32H267.94V265.56H132.42L132.24 262.26H135.63C150.72 262.26 158.27 254.65 158.27 239.45V167C158.27 159.28 156.43 153.57 152.74 149.89C149.06 146.21 143.35 144.36 135.63 144.36H132.24V141.06V141.07Z" fill="url(#paint6_linear_12_5824)"/>
<path d="M240.88 141.07H323.49C336.92 141.07 348.63 142.75 358.65 146.1C368.66 149.46 377.08 154.61 383.91 161.56C390.09 167.56 394.86 174.33 398.21 181.88C401.57 189.43 403.24 197.18 403.24 205.14C403.24 213.87 401.43 221.95 397.8 229.38C394.18 236.81 389.05 243.22 382.43 248.63C375.81 254.04 367.95 258.21 358.86 261.15C349.77 264.09 339.94 265.56 329.36 265.56H240.87V262.08H245.41C253.07 262.08 258.76 260.22 262.48 256.51C266.2 252.8 268.05 247.11 268.05 239.44V166.99C268.05 159.27 266.21 153.56 262.52 149.88C258.84 146.2 253.13 144.35 245.41 144.35H240.87V141.05L240.88 141.07ZM294.35 144.37V262.09H318.41C325.24 262.09 331.03 261.7 335.79 260.93C340.55 260.16 344.7 258.9 348.27 257.14C351.84 255.39 354.95 253.09 357.63 250.23C367.49 240.19 372.42 224.74 372.42 203.89C372.42 197.06 371.81 190.6 370.59 184.51C369.37 178.42 367.6 173.06 365.29 168.42C362.97 163.79 360.06 159.72 356.56 156.21C353.65 153.36 350.37 151.06 346.71 149.3C343.05 147.55 338.84 146.28 334.06 145.51C329.28 144.74 323.53 144.35 316.82 144.35H294.36L294.35 144.37Z" fill="url(#paint7_linear_12_5824)"/>
<path d="M384.35 262.09H387.83C395.49 262.09 401.18 260.23 404.9 256.52C408.61 252.81 410.47 247.12 410.47 239.45C410.95 236.24 411.32 233.41 411.58 230.94C411.85 228.48 412.01 225.65 412.07 222.47C412.13 219.29 412.13 215.3 412.07 210.49C411.83 190.17 411.24 174.87 410.29 164.6C409.93 160.44 409.26 157.2 408.28 154.89C407.3 152.57 405.83 150.64 403.87 149.1C400.3 145.95 394.96 144.38 387.83 144.38H384.35V141.08H462.77V144.38H459.29C451.63 144.38 445.95 146.22 442.27 149.91C438.59 153.6 436.75 159.3 436.75 167.02V239.47C436.75 247.13 438.61 252.82 442.32 256.54C446.03 260.25 451.69 262.11 459.3 262.11H462.78V265.59H384.36V262.11L384.35 262.09Z" fill="url(#paint8_linear_12_5824)"/>
<path d="M552.69 143.47H555.81V186.16H552.69C548.95 175.88 544.7 167.86 539.95 162.1C536.5 158.06 532.18 154.51 526.98 151.45C521.78 148.39 515.96 145.99 509.51 144.23C503.06 142.48 496.54 141.6 489.95 141.6C485.02 141.6 480.62 142.28 476.76 143.65C472.9 145.02 469.63 147.04 466.96 149.71C465.06 151.61 463.54 153.75 462.41 156.13C461.28 158.51 460.72 160.79 460.72 162.99C460.72 167.15 462.32 170.74 465.53 173.77C467.01 175.26 469.14 176.68 471.9 178.05C474.66 179.42 478.23 180.75 482.59 182.06C486.96 183.37 493.06 184.97 500.9 186.87C503.04 187.53 504.49 187.91 505.27 188.03L509.64 189.1L516.59 190.88C528.35 193.91 536.94 196.58 542.34 198.9C547.75 201.22 552.35 204.28 556.15 208.08C559.12 210.87 561.42 214.14 563.06 217.88C564.69 221.62 565.51 225.66 565.51 230C565.51 234.34 564.59 238.57 562.75 242.88C560.91 247.19 558.29 250.98 554.91 254.24C550.51 258.76 545.09 262.14 538.65 264.4C532.2 266.66 524.85 267.79 516.59 267.79C510.83 267.79 505.41 267.21 500.33 266.05C495.25 264.89 489.06 262.77 481.75 259.68C477 257.78 473.37 256.49 470.88 255.8C468.39 255.12 466.04 254.77 463.84 254.77C459.62 254.77 456.04 255.88 453.1 258.11C450.16 260.34 448.21 263.5 447.26 267.6H444.14V210.03H447.26C448.51 220.25 452.64 229.52 459.65 237.83C463.87 242.7 469.26 247.23 475.83 251.42C482.39 255.61 489.27 258.86 496.46 261.18C503.65 263.5 510.48 264.66 516.96 264.66C522.72 264.66 527.99 263.71 532.78 261.81C537.56 259.91 541.29 257.27 543.96 253.88C546.63 250.49 547.97 246.66 547.97 242.38C547.97 237.87 546.16 233.8 542.53 230.17C540.87 228.57 538.71 227.08 536.07 225.71C533.43 224.34 530.01 222.95 525.82 221.52C521.63 220.09 515.88 218.4 508.58 216.44L499.67 214.03C485.77 210.29 476.14 207.38 470.8 205.3C464.8 203.1 460.09 200.9 456.68 198.71C453.26 196.51 450.31 193.72 447.81 190.33C444.13 185.58 442.29 180.35 442.29 174.65C442.29 167.76 444.34 161.56 448.44 156.07C452.54 150.58 458.27 146.28 465.64 143.19C473.01 140.1 481.18 138.56 490.15 138.56C503.69 138.56 517.74 142.33 532.3 149.88C537.41 152.43 540.88 153.71 542.73 153.71C547.36 153.71 550.69 150.29 552.71 143.46L552.69 143.47Z" fill="url(#paint9_linear_12_5824)"/>
<path d="M537.19 141.07H683.16V204.25L680.31 204.43C678.82 188.63 674.07 175.05 666.05 163.71C656.54 150.82 644.48 144.37 629.87 144.37H623.36V239.45C623.36 254.54 630.88 262.09 645.91 262.09H664.71V265.57H555.99V262.09H574.61C589.7 262.09 597.25 254.55 597.25 239.45V144.37H589.23C574.38 144.37 562.32 151.32 553.05 165.22C548.47 172.05 545 180.19 542.62 189.64C541.85 192.85 541.07 197.72 540.3 204.26H537.18V141.08L537.19 141.07Z" fill="url(#paint10_linear_12_5824)"/>
<path d="M738.15 204.61H710.17V239.45C710.17 247.06 712.04 252.73 715.78 256.47C719.52 260.21 725.19 262.08 732.8 262.08H736.46V265.56H657.86V262.08H661.25C668.91 262.08 674.6 260.22 678.32 256.51C682.03 252.8 683.89 247.11 683.89 239.44V166.99C683.89 159.27 682.05 153.56 678.37 149.88C674.68 146.2 668.98 144.35 661.26 144.35H657.87V141.05H754.38C767.45 141.05 777.78 142 785.39 143.9C792.99 145.8 799.02 149.01 803.48 153.52C806.03 156.07 808.07 159.1 809.59 162.61C811.1 166.12 811.86 169.59 811.86 173.04C811.86 182.43 806.99 189.97 797.24 195.67C793.62 197.63 788.69 199.38 782.45 200.93C776.21 202.48 770 203.51 763.82 204.05C759.13 204.41 751.97 204.58 742.34 204.58V204.94C747.09 208.03 751.4 210.58 755.26 212.6C759.12 214.62 763.01 216.33 766.93 217.72C770.85 219.12 775.31 220.38 780.3 221.51L783.24 225.97C785.2 228.82 786.66 230.96 787.61 232.38C788.56 233.81 789.66 235.44 790.91 237.28C794.24 242.33 797.4 246.71 800.4 250.42C803.4 254.13 805.88 256.73 807.84 258.22C811.7 260.77 817.23 262.05 824.41 262.05H827.89V265.53H781.19L738.15 204.58V204.61ZM710.17 201.31H745.64C754.02 201.31 760.89 200.29 766.27 198.24C771.65 196.19 775.66 193.07 778.3 188.88C780.94 184.69 782.27 179.3 782.27 172.71C782.27 153.82 770.24 144.37 746.18 144.37H710.18V201.31H710.17Z" fill="url(#paint11_linear_12_5824)"/>
<path d="M799.47 262.09H802.95C810.61 262.09 816.3 260.23 820.02 256.52C823.74 252.81 825.59 247.12 825.59 239.45C826.07 236.24 826.44 233.41 826.7 230.94C826.97 228.48 827.13 225.65 827.19 222.47C827.25 219.29 827.25 215.3 827.19 210.49C826.95 190.17 826.36 174.87 825.41 164.6C825.05 160.44 824.38 157.2 823.4 154.89C822.42 152.57 820.95 150.64 818.99 149.1C815.42 145.95 810.08 144.38 802.95 144.38H799.47V141.08H877.89V144.38H874.41C866.75 144.38 861.07 146.22 857.39 149.91C853.71 153.6 851.87 159.3 851.87 167.02V239.47C851.87 247.13 853.73 252.82 857.44 256.54C861.15 260.25 866.81 262.11 874.42 262.11H877.9V265.59H799.48V262.11L799.47 262.09Z" fill="url(#paint12_linear_12_5824)"/>
<path d="M986.25 221.72H989.37C987.94 227.01 986.37 231.4 984.65 234.91C982.93 238.42 980.55 242.07 977.52 245.87C965.46 260.72 949.33 268.15 929.13 268.15C916.42 268.15 904.56 265.19 893.57 259.28C882.58 253.37 873.85 245.41 867.37 235.4C860.89 225.39 857.66 214.59 857.66 203.01C857.66 196.12 858.94 189.27 861.49 182.47C864.04 175.67 867.77 169.31 872.67 163.4C877.57 157.49 883.26 152.42 889.74 148.21C899.54 141.79 910.86 138.59 923.69 138.59C927.97 138.59 932.02 138.96 935.85 139.7C939.68 140.44 943.3 141.63 946.72 143.27C950.14 144.9 953.66 147.06 957.28 149.73C961.32 152.52 964.29 153.92 966.19 153.92C970.41 153.92 975.69 149.52 982.05 140.73H985.17L987.75 200.61H984.81C983.8 196.27 982.83 192.74 981.91 190.01C980.99 187.28 979.76 184.43 978.21 181.45C974.11 173.07 969.27 165.89 963.68 159.88C958.1 153.88 952.01 149.31 945.41 146.16C938.82 143.01 932.04 141.44 925.09 141.44C916.77 141.44 910 143.65 904.77 148.08C899.54 152.51 895.67 159.4 893.14 168.75C890.61 178.11 889.35 190 889.35 204.44C889.35 212.76 889.8 220.12 890.69 226.54C891.58 232.96 892.96 238.38 894.83 242.8C896.7 247.23 899.06 250.92 901.91 253.89C905.42 257.46 909.68 260.17 914.7 262.04C919.72 263.91 925.2 264.85 931.14 264.85C936.67 264.85 941.97 264.14 947.05 262.71C952.13 261.28 956.88 259.16 961.31 256.34C965.74 253.52 969.79 250.03 973.47 245.87C976.44 242.42 978.85 238.96 980.69 235.49C982.53 232.01 984.37 227.43 986.21 221.72H986.25Z" fill="url(#paint13_linear_12_5824)"/>
<path d="M965.67 141.07H1111.64V204.25L1108.79 204.43C1107.3 188.63 1102.55 175.05 1094.53 163.71C1085.02 150.82 1072.96 144.37 1058.35 144.37H1051.84V239.45C1051.84 254.54 1059.36 262.09 1074.39 262.09H1093.19V265.57H984.47V262.09H1003.09C1018.18 262.09 1025.73 254.55 1025.73 239.45V144.37H1017.71C1002.86 144.37 990.8 151.32 981.53 165.22C976.95 172.05 973.48 180.19 971.1 189.64C970.33 192.85 969.55 197.72 968.78 204.26H965.66V141.08L965.67 141.07Z" fill="url(#paint14_linear_12_5824)"/>
<path d="M1087.05 262.09H1090.53C1098.19 262.09 1103.88 260.23 1107.6 256.52C1111.31 252.81 1113.17 247.12 1113.17 239.45C1113.65 236.24 1114.02 233.41 1114.28 230.94C1114.55 228.48 1114.71 225.65 1114.77 222.47C1114.83 219.29 1114.83 215.3 1114.77 210.49C1114.53 190.17 1113.94 174.87 1112.99 164.6C1112.63 160.44 1111.96 157.2 1110.98 154.89C1110 152.57 1108.53 150.64 1106.57 149.1C1103 145.95 1097.66 144.38 1090.53 144.38H1087.05V141.08H1165.47V144.38H1161.99C1154.33 144.38 1148.65 146.22 1144.97 149.91C1141.29 153.6 1139.45 159.3 1139.45 167.02V239.47C1139.45 247.13 1141.31 252.82 1145.02 256.54C1148.73 260.25 1154.39 262.11 1162 262.11H1165.48V265.59H1087.06V262.11L1087.05 262.09Z" fill="url(#paint15_linear_12_5824)"/>
<path d="M1139.36 141.07H1189.35L1275.88 230.72V177.07C1275.88 170.54 1274.77 164.82 1272.54 159.91C1270.31 155.01 1267.09 151.28 1262.87 148.73C1260.61 147.3 1258.34 146.29 1256.05 145.7C1253.76 145.11 1250.57 144.66 1246.47 144.36V141.06H1308.14V144.36H1306.89C1297.92 144.36 1291.09 147.21 1286.39 152.92C1281.7 158.62 1279.35 166.91 1279.35 177.78V266.8H1276.41L1168.94 156.39V230.35C1168.94 237.54 1169.8 243.29 1171.52 247.59C1173.24 251.9 1176.03 255.27 1179.9 257.7C1183.05 259.6 1186.88 260.82 1191.4 261.35C1193.89 261.77 1197.46 262.06 1202.09 262.24V265.54H1137.13V262.24C1143.78 261.88 1149.2 260.71 1153.39 258.72C1157.58 256.73 1160.67 253.78 1162.66 249.85C1164.65 245.93 1165.65 241.06 1165.65 235.24V164.84C1165.65 160.5 1164.68 156.82 1162.75 153.79C1160.82 150.76 1158.01 148.43 1154.33 146.79C1150.64 145.16 1146.19 144.34 1140.96 144.34H1139.36V141.04V141.07Z" fill="url(#paint16_linear_12_5824)"/>
<path d="M1417.67 141.78H1420.97L1421.86 195.52H1418.92C1416.9 189.05 1415.03 183.89 1413.31 180.06C1411.59 176.23 1409.68 172.86 1407.61 169.95C1401.79 161.46 1394.43 154.74 1385.55 149.81C1376.67 144.88 1367.53 142.41 1358.15 142.41C1353.28 142.41 1348.44 143.3 1343.62 145.08C1338.8 146.86 1334.92 149.24 1331.95 152.21C1327.02 157.14 1323.44 163.94 1321.21 172.62C1318.98 181.3 1317.87 192.49 1317.87 206.22C1317.87 210.32 1318.05 214.39 1318.41 218.43C1318.77 222.47 1319.24 226.05 1319.84 229.17C1320.43 232.29 1321.18 235.35 1322.07 238.35C1322.96 241.35 1323.94 243.8 1325.01 245.7C1326.85 248.79 1328.95 251.49 1331.29 253.81C1333.64 256.13 1336.4 258.15 1339.58 259.87C1342.76 261.59 1346.13 262.86 1349.69 263.66C1353.26 264.46 1357 264.86 1360.92 264.86C1365.97 264.86 1371.02 264.22 1376.07 262.94C1381.12 261.66 1385.19 259.99 1388.28 257.91C1394.16 253.87 1397.1 248.46 1397.1 241.69V235.28C1397.1 220.19 1389.55 212.64 1374.47 212.64H1363.69V209.34H1448.88V212.64H1446.03C1438.37 212.64 1432.68 214.5 1428.97 218.21C1425.26 221.92 1423.4 227.61 1423.4 235.28V264.51H1420.1C1417.43 262.01 1415.09 260.35 1413.1 259.52C1411.11 258.69 1408.63 258.27 1405.66 258.27C1403.05 258.27 1400.63 258.52 1398.4 259.03C1396.17 259.54 1393.07 260.62 1389.09 262.28C1382.61 264.6 1377.47 266.16 1373.67 266.96C1369.87 267.76 1365.2 268.16 1359.68 268.16C1349.22 268.16 1339.47 266.58 1330.41 263.44C1321.35 260.29 1313.48 255.82 1306.8 250.03C1300.12 244.24 1294.93 237.42 1291.25 229.58C1287.56 221.74 1285.72 213.3 1285.72 204.27C1285.72 198.8 1286.43 193.41 1287.86 188.09C1289.29 182.77 1291.34 177.83 1294.01 173.25C1296.68 168.67 1300.01 164.34 1303.99 160.24C1308.62 155.67 1313.72 151.8 1319.27 148.65C1324.82 145.5 1330.71 143.07 1336.91 141.34C1343.12 139.62 1349.31 138.76 1355.49 138.76C1361.67 138.76 1367.71 139.55 1373.62 141.12C1379.53 142.69 1386.02 145.23 1393.09 148.74C1398.38 151.41 1402.09 152.75 1404.23 152.75C1406.37 152.75 1408.58 151.89 1410.69 150.17C1412.8 148.45 1415.13 145.66 1417.69 141.79L1417.67 141.78Z" fill="url(#paint17_linear_12_5824)"/>
<defs>
<linearGradient id="paint0_linear_12_5824" x1="-1.61" y1="68.3102" x2="155.41" y2="68.3102" gradientUnits="userSpaceOnUse">
<stop stop-color="#EA8314" stop-opacity="0.5"/>
<stop offset="1" stop-color="#EA8314" stop-opacity="0"/>
</linearGradient>
<linearGradient id="paint1_linear_12_5824" x1="128.94" y1="64.74" x2="207.36" y2="64.74" gradientUnits="userSpaceOnUse">
<stop stop-color="#EA8314" stop-opacity="0.5"/>
<stop offset="1" stop-color="#EA8314" stop-opacity="0"/>
</linearGradient>
<linearGradient id="paint2_linear_12_5824" x1="182.68" y1="64.74" x2="350.04" y2="64.74" gradientUnits="userSpaceOnUse">
<stop stop-color="#EA8314" stop-opacity="0.5"/>
<stop offset="1" stop-color="#EA8314" stop-opacity="0"/>
</linearGradient>
<linearGradient id="paint3_linear_12_5824" x1="290.43" y1="63.49" x2="442.1" y2="63.49" gradientUnits="userSpaceOnUse">
<stop stop-color="#EA8314" stop-opacity="0.5"/>
<stop offset="1" stop-color="#EA8314" stop-opacity="0"/>
</linearGradient>
<linearGradient id="paint4_linear_12_5824" x1="409.93" y1="65.37" x2="580.94" y2="65.37" gradientUnits="userSpaceOnUse">
<stop stop-color="#EA8314" stop-opacity="0.5"/>
<stop offset="1" stop-color="#EA8314" stop-opacity="0"/>
</linearGradient>
<linearGradient id="paint5_linear_12_5824" x1="-5" y1="203.31" x2="165.03" y2="203.31" gradientUnits="userSpaceOnUse">
<stop stop-color="#EA8314" stop-opacity="0.5"/>
<stop offset="1" stop-color="#EA8314" stop-opacity="0"/>
</linearGradient>
<linearGradient id="paint6_linear_12_5824" x1="132.24" y1="203.31" x2="267.96" y2="203.31" gradientUnits="userSpaceOnUse">
<stop stop-color="#EA8314" stop-opacity="0.5"/>
<stop offset="1" stop-color="#EA8314" stop-opacity="0"/>
</linearGradient>
<linearGradient id="paint7_linear_12_5824" x1="240.88" y1="203.31" x2="403.24" y2="203.31" gradientUnits="userSpaceOnUse">
<stop stop-color="#EA8314" stop-opacity="0.5"/>
<stop offset="1" stop-color="#EA8314" stop-opacity="0"/>
</linearGradient>
<linearGradient id="paint8_linear_12_5824" x1="384.35" y1="203.31" x2="462.77" y2="203.31" gradientUnits="userSpaceOnUse">
<stop stop-color="#EA8314" stop-opacity="0.5"/>
<stop offset="1" stop-color="#EA8314" stop-opacity="0"/>
</linearGradient>
<linearGradient id="paint9_linear_12_5824" x1="442.28" y1="203.18" x2="565.53" y2="203.18" gradientUnits="userSpaceOnUse">
<stop stop-color="#EA8314" stop-opacity="0.5"/>
<stop offset="1" stop-color="#EA8314" stop-opacity="0"/>
</linearGradient>
<linearGradient id="paint10_linear_12_5824" x1="537.19" y1="203.31" x2="683.16" y2="203.31" gradientUnits="userSpaceOnUse">
<stop stop-color="#EA8314" stop-opacity="0.5"/>
<stop offset="1" stop-color="#EA8314" stop-opacity="0"/>
</linearGradient>
<linearGradient id="paint11_linear_12_5824" x1="657.86" y1="203.31" x2="827.89" y2="203.31" gradientUnits="userSpaceOnUse">
<stop stop-color="#EA8314" stop-opacity="0.5"/>
<stop offset="1" stop-color="#EA8314" stop-opacity="0"/>
</linearGradient>
<linearGradient id="paint12_linear_12_5824" x1="799.47" y1="203.31" x2="877.88" y2="203.31" gradientUnits="userSpaceOnUse">
<stop stop-color="#EA8314" stop-opacity="0.5"/>
<stop offset="1" stop-color="#EA8314" stop-opacity="0"/>
</linearGradient>
<linearGradient id="paint13_linear_12_5824" x1="857.66" y1="203.36" x2="989.37" y2="203.36" gradientUnits="userSpaceOnUse">
<stop stop-color="#EA8314" stop-opacity="0.5"/>
<stop offset="1" stop-color="#EA8314" stop-opacity="0"/>
</linearGradient>
<linearGradient id="paint14_linear_12_5824" x1="965.67" y1="203.31" x2="1111.64" y2="203.31" gradientUnits="userSpaceOnUse">
<stop stop-color="#EA8314" stop-opacity="0.5"/>
<stop offset="1" stop-color="#EA8314" stop-opacity="0"/>
</linearGradient>
<linearGradient id="paint15_linear_12_5824" x1="1087.05" y1="203.31" x2="1165.47" y2="203.31" gradientUnits="userSpaceOnUse">
<stop stop-color="#EA8314" stop-opacity="0.5"/>
<stop offset="1" stop-color="#EA8314" stop-opacity="0"/>
</linearGradient>
<linearGradient id="paint16_linear_12_5824" x1="1137.14" y1="203.94" x2="1308.15" y2="203.94" gradientUnits="userSpaceOnUse">
<stop stop-color="#EA8314" stop-opacity="0.5"/>
<stop offset="1" stop-color="#EA8314" stop-opacity="0"/>
</linearGradient>
<linearGradient id="paint17_linear_12_5824" x1="1285.69" y1="203.45" x2="1448.86" y2="203.45" gradientUnits="userSpaceOnUse">
<stop stop-color="#EA8314" stop-opacity="0.5"/>
<stop offset="1" stop-color="#EA8314" stop-opacity="0"/>
</linearGradient>
</defs>
</svg>
