<?xml version="1.0" encoding="utf-8"?>
<!-- Generator: Adobe Illustrator 27.0.0, SVG Export Plug-In . SVG Version: 6.00 Build 0)  -->
<svg version="1.1" id="_圖層_2" xmlns="http://www.w3.org/2000/svg" xmlns:xlink="http://www.w3.org/1999/xlink" x="0px" y="0px"
	 viewBox="0 0 299.6 61" style="enable-background:new 0 0 299.6 61;" xml:space="preserve">
<style type="text/css">
	.st0{fill:url(#SVGID_1_);}
	.st1{fill:#EB6519;}
	.st2{fill:#FFFFFF;}
</style>
<g id="_字">
	
		<linearGradient id="SVGID_1_" gradientUnits="userSpaceOnUse" x1="0" y1="33.48" x2="299.63" y2="33.48" gradientTransform="matrix(1 0 0 -1 0 64)">
		<stop  offset="0" style="stop-color:#F7F8B8;stop-opacity:0"/>
		<stop  offset="1" style="stop-color:#F7F8B8"/>
	</linearGradient>
	<rect class="st0" width="299.6" height="61"/>
	<g>
		<path class="st1" d="M181.5,38.8l1.8-0.8c0.8,3.4,3.3,5.3,6.8,5.3c3.5,0,5.7-2,5.7-5.1c0-3.2-2.4-5.5-7.2-5.5l-0.6-0.9l6.9-9
			h-12.4V21h14.9v1.5l-6.6,8.6c4.5,0.4,7.3,3.3,7.3,6.9c0,3.9-3.1,7-7.9,7C185.8,45.1,182.4,42.7,181.5,38.8z"/>
		<path class="st1" d="M212.5,21h1.9l-11.1,31.3h-1.9L212.5,21z"/>
		<path class="st1" d="M220.5,39.5l1.8-0.8c0.9,3.1,3.5,4.6,6.6,4.6c3.5,0,5.8-2,5.8-5.5c0-3.6-2.4-5.5-5.8-5.5
			c-1.9,0-3.9,0.6-5.3,1.9l-1.4-0.7l1.3-12.5h12.4v1.7h-10.7l-1,9.3c1.4-0.9,3.3-1.5,5.1-1.5c4.3,0,7.5,3.1,7.5,7.3
			c0,4.2-3.2,7.3-8,7.3C224.9,45.1,221.5,43,220.5,39.5z"/>
		<path class="st1" d="M246.2,21h13.4v1.8h-11.2v9h8.8v1.8h-8.8v11.2h-2.2V21z"/>
	</g>
</g>
<g>
	<path class="st2" d="M12.9,1081.4H0v-1.7h14.9v1.6l-9.2,22.2H3.5L12.9,1081.4L12.9,1081.4z"/>
	<path class="st2" d="M24.2,1079.7h13.4v1.8H26.4v9h8.8v1.8h-8.8v11.2h-2.2V1079.7L24.2,1079.7z"/>
</g>
</svg>
