<?xml version="1.0" encoding="utf-8"?>
<!-- Generator: Adobe Illustrator 27.0.0, SVG Export Plug-In . SVG Version: 6.00 Build 0)  -->
<svg version="1.1" id="_圖層_2" xmlns="http://www.w3.org/2000/svg" xmlns:xlink="http://www.w3.org/1999/xlink" x="0px" y="0px"
	 viewBox="0 0 299.6 61" style="enable-background:new 0 0 299.6 61;" xml:space="preserve">
<style type="text/css">
	.st0{fill:#FFFFFF;}
</style>
<g>
	<path class="st0" d="M12.9,1081.4H0v-1.7h14.9v1.6l-9.2,22.2H3.5L12.9,1081.4L12.9,1081.4z"/>
	<path class="st0" d="M24.2,1079.7h13.4v1.8H26.4v9h8.8v1.8h-8.8v11.2h-2.2V1079.7L24.2,1079.7z"/>
</g>
<g>
	<path class="st0" d="M49.6,21.6c-1.5,2.1-3.6,3.9-6.5,5.6l-0.6-1.6c3.1-1.9,5.6-4.1,7.6-7.1h1.7v23.8h-2.1V21.6z"/>
	<path class="st0" d="M62.7,18.5h13.4v1.8H64.9v9h8.8V31h-8.8v11.2h-2.2V18.5z"/>
</g>
</svg>
