<?xml version="1.0" encoding="utf-8"?>
<!-- Generator: Adobe Illustrator 27.0.0, SVG Export Plug-In . SVG Version: 6.00 Build 0)  -->
<svg version="1.1" id="_圖層_2" xmlns="http://www.w3.org/2000/svg" xmlns:xlink="http://www.w3.org/1999/xlink" x="0px" y="0px"
	 viewBox="0 0 299.6 61" style="enable-background:new 0 0 299.6 61;" xml:space="preserve">
<style type="text/css">
	.st0{fill:#FFFFFF;}
</style>
<g>
	<path class="st0" d="M12.9,1081.4H0v-1.7h14.9v1.6l-9.2,22.2H3.5L12.9,1081.4L12.9,1081.4z"/>
	<path class="st0" d="M24.2,1079.7h13.4v1.8H26.4v9h8.8v1.8h-8.8v11.2h-2.2V1079.7L24.2,1079.7z"/>
</g>
<g>
	<path class="st0" d="M42.4,36.2l1.8-0.8c0.8,3.4,3.3,5.3,6.8,5.3c3.5,0,5.7-2,5.7-5.1c0-3.2-2.4-5.5-7.2-5.5l-0.6-0.9l6.9-9H43.3
		v-1.7h14.9V20l-6.6,8.6c4.5,0.4,7.3,3.3,7.3,6.9c0,3.9-3.1,7-7.9,7C46.7,42.5,43.3,40.1,42.4,36.2z"/>
	<path class="st0" d="M73.4,18.5h1.9L64.2,49.8h-1.9L73.4,18.5z"/>
	<path class="st0" d="M81.4,37l1.8-0.8c0.9,3.1,3.5,4.6,6.6,4.6c3.5,0,5.8-2,5.8-5.5c0-3.6-2.4-5.5-5.8-5.5c-1.9,0-3.9,0.6-5.3,1.9
		L83,30.9l1.3-12.5h12.4v1.7H86l-1,9.3c1.4-0.9,3.3-1.5,5.1-1.5c4.3,0,7.5,3.1,7.5,7.3c0,4.2-3.2,7.3-8,7.3
		C85.8,42.5,82.4,40.5,81.4,37z"/>
	<path class="st0" d="M107.1,18.5h13.4v1.8h-11.2v9h8.8V31h-8.8v11.2h-2.2V18.5z"/>
</g>
</svg>
