<?xml version="1.0" encoding="utf-8"?>
<!-- Generator: Adobe Illustrator 27.0.0, SVG Export Plug-In . SVG Version: 6.00 Build 0)  -->
<svg version="1.1" id="_圖層_2" xmlns="http://www.w3.org/2000/svg" xmlns:xlink="http://www.w3.org/1999/xlink" x="0px" y="0px"
	 viewBox="0 0 299.6 61" style="enable-background:new 0 0 299.6 61;" xml:space="preserve">
<style type="text/css">
	.st0{fill:url(#SVGID_1_);}
	.st1{fill:#EB6519;}
	.st2{fill:#FFFFFF;}
</style>
<g id="_字">
	
		<linearGradient id="SVGID_1_" gradientUnits="userSpaceOnUse" x1="0" y1="33.48" x2="299.63" y2="33.48" gradientTransform="matrix(1 0 0 -1 0 64)">
		<stop  offset="0" style="stop-color:#F7F8B8;stop-opacity:0"/>
		<stop  offset="1" style="stop-color:#F7F8B8"/>
	</linearGradient>
	<rect class="st0" width="299.6" height="61"/>
	<g>
		<path class="st1" d="M192,38.4h-12.3v-1.3L192.2,21h1.9v15.7h3.9v1.7h-3.9v6.4H192V38.4z M192,36.7V24l-9.9,12.8H192z"/>
		<path class="st1" d="M212.8,21h1.9l-11.1,31.3h-1.9L212.8,21z"/>
		<path class="st1" d="M222.3,40.9c-1.1-1.9-1.7-4.5-1.7-7.6c0-7.8,3.9-12.5,10-12.5c2.3,0,4.5,0.7,5.6,1.7l-0.8,1.8
			c-0.8-0.8-2.7-1.6-4.8-1.6c-4.8,0-8,3.9-8,10.5c0,1,0.1,1.9,0.2,2.8c0.7-3.2,3.4-5.3,6.8-5.3c4.2,0,7.4,3.1,7.4,7.2
			c0,4.2-3.5,7.3-7.8,7.3C226.4,45.1,223.8,43.7,222.3,40.9z M234.9,37.9c0-3.3-2.4-5.5-5.7-5.5c-3.2,0-5.7,2.3-5.7,5.5
			c0,3.2,2.5,5.6,5.8,5.6C232.5,43.4,234.9,41.1,234.9,37.9z"/>
		<path class="st1" d="M246.3,21h13.4v1.8h-11.2v9h8.8v1.8h-8.8v11.2h-2.2V21z"/>
	</g>
</g>
<g>
	<path class="st2" d="M12.9,1081.4H0v-1.7h14.9v1.6l-9.2,22.2H3.5L12.9,1081.4L12.9,1081.4z"/>
	<path class="st2" d="M24.2,1079.7h13.4v1.8H26.4v9h8.8v1.8h-8.8v11.2h-2.2V1079.7L24.2,1079.7z"/>
</g>
</svg>
