<?xml version="1.0" encoding="utf-8"?>
<!-- Generator: Adobe Illustrator 27.0.0, SVG Export Plug-In . SVG Version: 6.00 Build 0)  -->
<svg version="1.1" id="_圖層_2" xmlns="http://www.w3.org/2000/svg" xmlns:xlink="http://www.w3.org/1999/xlink" x="0px" y="0px"
	 viewBox="0 0 299.6 61" style="enable-background:new 0 0 299.6 61;" xml:space="preserve">
<style type="text/css">
	.st0{fill:url(#SVGID_1_);}
	.st1{fill:#EB6519;}
	.st2{fill:#FFFFFF;}
</style>
<g id="_字">
	
		<linearGradient id="SVGID_1_" gradientUnits="userSpaceOnUse" x1="0" y1="33.48" x2="299.63" y2="33.48" gradientTransform="matrix(1 0 0 -1 0 64)">
		<stop  offset="0" style="stop-color:#F7F8B8;stop-opacity:0"/>
		<stop  offset="1" style="stop-color:#F7F8B8"/>
	</linearGradient>
	<rect class="st0" width="299.6" height="61"/>
	<g>
		<path class="st1" d="M220.8,43.5c8.9-6.3,13-11,13-15.5c0-3.2-2.1-5.3-5.3-5.3c-3.2,0-5.7,2-6.4,5.5l-1.8-0.8
			c0.9-3.9,4.2-6.5,8.2-6.5c4.4,0,7.5,3,7.5,7.2c0,4.8-4.2,9.5-12.5,15.2h12.8V45h-15.5V43.5z"/>
		<path class="st1" d="M246.2,21.2h13.4V23h-11.2v9h8.8v1.8h-8.8V45h-2.2V21.2z"/>
	</g>
</g>
<g>
	<path class="st2" d="M12.9,1081.4H0v-1.7h14.9v1.6l-9.2,22.2H3.5L12.9,1081.4L12.9,1081.4z"/>
	<path class="st2" d="M24.2,1079.7h13.4v1.8H26.4v9h8.8v1.8h-8.8v11.2h-2.2V1079.7L24.2,1079.7z"/>
</g>
</svg>
