<?xml version="1.0" encoding="utf-8"?>
<!-- Generator: Adobe Illustrator 27.0.0, SVG Export Plug-In . SVG Version: 6.00 Build 0)  -->
<svg version="1.1" id="_圖層_2" xmlns="http://www.w3.org/2000/svg" xmlns:xlink="http://www.w3.org/1999/xlink" x="0px" y="0px"
	 viewBox="0 0 299.6 61" style="enable-background:new 0 0 299.6 61;" xml:space="preserve">
<style type="text/css">
	.st0{fill:#FFFFFF;}
</style>
<g>
	<path class="st0" d="M12.9,1081.4H0v-1.7h14.9v1.6l-9.2,22.2H3.5L12.9,1081.4L12.9,1081.4z"/>
	<path class="st0" d="M24.2,1079.7h13.4v1.8H26.4v9h8.8v1.8h-8.8v11.2h-2.2V1079.7L24.2,1079.7z"/>
</g>
<g>
	<path class="st0" d="M54.8,36.2H42.4v-1.3l12.5-16.1h1.9v15.7h3.9v1.7h-3.9v6.4h-2.1V36.2z M54.8,34.5V21.7l-9.9,12.8H54.8z"/>
	<path class="st0" d="M75.6,18.8h1.9L66.4,50.1h-1.9L75.6,18.8z"/>
	<path class="st0" d="M85,38.6c-1.1-1.9-1.7-4.5-1.7-7.6c0-7.8,3.9-12.5,10-12.5c2.3,0,4.5,0.7,5.6,1.7l-0.8,1.8
		c-0.8-0.8-2.7-1.6-4.8-1.6c-4.8,0-8,3.9-8,10.5c0,1,0.1,1.9,0.2,2.8c0.7-3.2,3.4-5.3,6.8-5.3c4.2,0,7.4,3.1,7.4,7.2
		c0,4.2-3.5,7.3-7.8,7.3C89.1,42.9,86.6,41.4,85,38.6z M97.7,35.6c0-3.3-2.4-5.5-5.7-5.5c-3.2,0-5.7,2.3-5.7,5.5
		c0,3.2,2.5,5.6,5.8,5.6C95.2,41.1,97.7,38.9,97.7,35.6z"/>
	<path class="st0" d="M109,18.8h13.4v1.8h-11.2v9h8.8v1.8h-8.8v11.2H109V18.8z"/>
</g>
</svg>
