<?xml version="1.0" encoding="utf-8"?>
<!-- Generator: Adobe Illustrator 27.0.0, SVG Export Plug-In . SVG Version: 6.00 Build 0)  -->
<svg version="1.1" id="_圖層_2" xmlns="http://www.w3.org/2000/svg" xmlns:xlink="http://www.w3.org/1999/xlink" x="0px" y="0px"
	 viewBox="0 0 299.6 61" style="enable-background:new 0 0 299.6 61;" xml:space="preserve">
<style type="text/css">
	.st0{fill:#FFFFFF;}
</style>
<g>
	<path class="st0" d="M12.9,1081.4H0v-1.7h14.9v1.6l-9.2,22.2H3.5L12.9,1081.4L12.9,1081.4z"/>
	<path class="st0" d="M24.2,1079.7h13.4v1.8H26.4v9h8.8v1.8h-8.8v11.2h-2.2V1079.7L24.2,1079.7z"/>
</g>
<g>
	<path class="st0" d="M42.9,41c8.9-6.3,13-11,13-15.5c0-3.2-2.1-5.3-5.3-5.3c-3.2,0-5.7,2-6.4,5.5l-1.8-0.8c0.9-3.9,4.2-6.5,8.2-6.5
		c4.4,0,7.5,3,7.5,7.2c0,4.8-4.2,9.5-12.5,15.2h12.8v1.7H42.9V41z"/>
	<path class="st0" d="M68.3,18.8h13.4v1.8H70.5v9h8.8v1.8h-8.8v11.2h-2.2V18.8z"/>
</g>
</svg>
