<?xml version="1.0" encoding="utf-8"?>
<!-- Generator: Adobe Illustrator 27.0.0, SVG Export Plug-In . SVG Version: 6.00 Build 0)  -->
<svg version="1.1" id="_圖層_2" xmlns="http://www.w3.org/2000/svg" xmlns:xlink="http://www.w3.org/1999/xlink" x="0px" y="0px"
	 viewBox="0 0 648.4 42.2" style="enable-background:new 0 0 648.4 42.2;" xml:space="preserve">
<style type="text/css">
	.st0{fill:#FFFFFF;}
</style>
<g>
	<path class="st0" d="M0,34.6l2.5-3.4c1.9,1.9,4.3,3.6,7.8,3.6c3.8,0,6.6-2.7,6.6-7.1s-2.5-7-6.3-7c-2.1,0-3.4,0.6-5.3,1.9l-2.5-1.7
		l1-15.8h16.9v4.4H8.2L7.4,18c1.4-0.7,2.8-1.2,4.6-1.2c5.6,0,10.1,3.3,10.1,10.6S16.8,39,10.9,39C5.7,39,2.4,36.9,0,34.6L0,34.6z"/>
	<path class="st0" d="M42.9,17.2c0,7.1-0.6,17.7-4.3,24.6c-0.8-0.8-2.6-2-3.5-2.4c3.4-6.5,3.8-15.6,3.8-22.2V4.9h18.4
		c-0.6-1.2-1.4-2.5-2.1-3.6L59,0c1.1,1.5,2.2,3.3,2.9,4.9h14.7v3.9H42.9V17.2L42.9,17.2z M61.8,37.2h15v3.6h-34v-3.6h14.9v-5.8h-12
		v-3.7h12V10.4h4v12.4c3.3-2.7,5.2-6.8,6-11.6l3.8,0.5c-0.4,2-0.9,3.8-1.5,5.5c2.4,2.1,5.2,4.5,6.8,6.1L74.3,26
		c-1.3-1.5-3.6-3.7-5.8-5.6c-1.2,2.1-2.6,3.9-4.3,5.3c-0.5-0.5-1.6-1.5-2.5-2.1v4.3h12.4v3.7H61.7L61.8,37.2L61.8,37.2z M53.3,11.5
		c-0.3,1.9-0.7,3.6-1.3,5.3c2,1.8,4.3,4,5.4,5.4L54.9,25c-1-1.3-2.6-3.1-4.3-4.8c-1.1,2.3-2.6,4.3-4.4,5.8c-0.6-0.6-2.3-1.9-3.1-2.4
		c3.6-2.8,5.6-7.2,6.4-12.6L53.3,11.5L53.3,11.5z"/>
	<path class="st0" d="M106.7,3.1c-3.2,7.4-8.3,14.8-13.3,19.4c-0.7-0.9-2.6-2.6-3.7-3.5c4.9-4.1,9.7-10.7,12.4-17.4
		C102,1.6,106.7,3.1,106.7,3.1z M119.4,24.2c3.6,4.9,7.9,11.2,10,15.3l-4.3,2.3c-0.6-1.3-1.4-2.8-2.4-4.4
		c-22.7,1.7-25.4,1.9-27.4,2.6c-0.2-1-1-3.3-1.7-4.5c1.4-0.4,2.6-1.7,4.3-3.8c1.9-2,7.6-9.9,11.2-17.4l4.9,2
		c-3.7,6.6-8.2,13.2-12.8,18.4l19-1.1c-1.7-2.6-3.4-5.2-5-7.5L119.4,24.2L119.4,24.2z M120.2,1.5c2.1,6.8,6.4,13.4,11.8,16.8
		c-1,1-2.5,2.9-3.3,4.2c-5.1-3.9-9.3-10.2-11.8-16.6h-7.9V1.5C109.1,1.5,120.2,1.5,120.2,1.5z"/>
	<path class="st0" d="M183.9,2.3V42h-4.1v-1.8h-29.7V42h-3.9V2.3H183.9z M179.8,36.4V6.1h-29.7v30.3L179.8,36.4L179.8,36.4z
		 M166.6,30.6c-0.1,0.7-0.1,2,0,2.6c-8.1,2.2-9.3,2.5-10,3c-0.2-0.7-0.6-1.9-1-2.4c0.7-0.3,1.6-0.8,1.6-2.5v-2.6
		c-1.4,0.5-2.9,1-4.3,1.5c-0.4-0.6-1.4-1.9-2-2.5c3.2-0.7,6.8-1.9,9.6-3.3h-5.8v-6.6h20.8v6.6h-10.3c-1.4,1.1-3,2-4.9,2.9V32
		L166.6,30.6z M177.9,16.4h-25.8v-2.5H163v-2.4h-8.5V9.1h8.5V6.8h3.8v2.2h9v2.4h-9v2.4h11.1L177.9,16.4L177.9,16.4z M158.2,22.5
		h13.6v-2.5h-13.6V22.5z M178.1,26.9c-1.4,1-3,2-4.5,2.8c1.8,1.3,3.5,2.5,4.7,3.5l-2.8,1.7c-2.5-2.2-7.5-5.8-11.6-8.1l2.6-1.5
		c1.4,0.9,3.1,1.9,4.7,2.9c1.5-0.9,3.2-2,4.2-2.9L178.1,26.9L178.1,26.9z"/>
	<path class="st0" d="M239.2,31.6c-1.9,1-4,2.2-5.8,3c1.9,1.7,4.4,2.9,7.1,3.7c-0.8,0.7-1.9,2.2-2.4,3.2c-6.2-2-10.3-6.5-12.6-12.4
		c-1.4,1.3-3.2,2.5-5,3.6v4.6l7-1.5c-0.1,0.9-0.1,2.4,0,3.1c-8.5,2-9.8,2.5-10.6,3v0c-0.3-0.8-0.9-2.3-1.4-2.9
		c0.6-0.3,1.6-1.1,1.6-2.9v-1.5c-1.4,0.7-3,1.3-4.4,1.8c-0.4-0.8-1.3-1.9-2-2.6c-4.1,1.3-8.3,2.5-11.7,3.4l-0.8-3.8
		c1.4-0.3,3.1-0.8,4.9-1.3V20h-3.9v-3.7h3.9V7h-4.3V3.3h12.1V7h-4.1v9.3h3.6V20h-3.6v11c1.3-0.4,2.6-0.8,3.9-1.1l0.4,3.3
		c3.5-1,7.3-2.6,10.2-4.5h-6.1v-9.6h21.8v9.6H229c0.6,1.4,1.4,2.6,2.4,3.8c1.8-1,3.9-2.4,5.1-3.4L239.2,31.6L239.2,31.6z M239.5,17
		h-27.2v-3.4h27.2V17z M238.1,11.7h-24V2h24V11.7L238.1,11.7z M221.1,4.9h-3.6v3.9h3.6C221.1,8.8,221.1,4.9,221.1,4.9z M218.9,25.6
		h14v-3.5h-14V25.6z M227.8,4.9H224v3.9h3.7C227.8,8.8,227.8,4.9,227.8,4.9z M234.5,4.9h-3.9v3.9h3.9C234.5,8.8,234.5,4.9,234.5,4.9
		z"/>
	<path class="st0" d="M287.1,37.4c2.4,0,2.8-0.9,3.1-5.3c0.9,0.7,2.5,1.3,3.6,1.5c-0.6,5.8-1.8,7.4-6.5,7.4h-10.1
		c-5.6,0-7.1-1.2-7.1-6V15.9c-0.7,0.7-1.3,1.5-2,2.2c-0.4-1-1.5-3.1-2.2-4.1c0.3-0.3,0.5-0.5,0.8-0.9h-4.4V21
		c1.5-0.4,3.1-0.9,4.6-1.4l0.5,3.8c-1.7,0.5-3.4,1.1-5.2,1.6v11.8c0,2.1-0.4,3.2-1.6,3.8c-1.2,0.7-3,0.8-5.8,0.8
		c-0.1-1-0.6-2.8-1.2-3.9c1.8,0,3.5,0,4,0c0.6,0,0.8-0.2,0.8-0.8V26.3l-5,1.5l-0.9-4.1c1.7-0.5,3.7-1,6-1.6v-9h-5.4V9.2h5.4V0.5h3.9
		v8.7h4.6v3.7c3.1-3.2,5.8-7.8,7.4-12.6l3.8,1.1c-0.5,1.3-1,2.7-1.6,3.9h15.6v1.9c-0.1,15.2-0.2,20.3-1.3,21.9
		c-0.9,1.2-1.9,1.6-3.4,1.8c-1.3,0.1-3.6,0.1-5.8,0c-0.1-1-0.5-2.6-1.2-3.6h-6.4v7.7c0,2,0.5,2.4,3.3,2.4H287.1L287.1,37.4z
		 M274.7,9.2c-0.8,1.5-1.7,2.9-2.6,4.2h12.3v13.9h-1.8c1.4,0.1,2.6,0.1,3.2,0.1c0.7,0,1.1-0.1,1.5-0.6c0.8-0.9,0.9-5.5,0.9-17.6
		H274.7L274.7,9.2z M274.1,23.9h6.5v-7h-6.5V23.9z"/>
	<path class="st0" d="M311.9,27.5c3.5-1.3,5.5-3.4,5.8-6.1c-0.2,0-0.4,0-0.6,0c-2,0-3.8-1.3-3.8-3.6s1.8-3.6,3.9-3.6
		c2.9,0,4.4,2.2,4.4,5.7c0,5-3.2,8.9-8.3,10.6L311.9,27.5L311.9,27.5z"/>
	<path class="st0" d="M353,23.2c-1.5,0.5-3.1,1-4.7,1.5v12.6c0,2.1-0.4,3.2-1.6,3.9c-1.2,0.6-3,0.8-5.9,0.8c-0.1-1-0.6-2.8-1.1-3.9
		c1.8,0,3.5,0,4,0c0.6,0,0.8-0.1,0.8-0.8V25.9c-1.8,0.5-3.4,1-4.9,1.5l-1-4.1c1.6-0.4,3.7-1,5.9-1.6v-8.6h-5.3V9.2h5.3V0.4h3.9v8.8
		h4.5v3.9h-4.5v7.5l4.1-1.2L353,23.2L353,23.2z M368.2,25.8v3.4h10.1v3.4h-10.1v5.2c1.3,0.1,2.6,0.2,4,0.2c1.3,0,7.1,0,8.7,0
		c-0.5,0.9-1,2.6-1.2,3.6H372c-6.6,0-11.4-1.2-14.7-6.1c-1.1,2.7-2.5,4.9-4.4,6.7c-0.7-0.7-2.3-1.9-3.2-2.4
		c3.4-2.9,5.2-7.7,5.9-13.3l3.9,0.5c-0.2,1.5-0.5,2.9-0.8,4.3c1.3,2.8,3.2,4.5,5.6,5.4V25.8h-8.8v-3.3h8.8v-3.1h-11.5v-3.3h11.5
		v-2.9h-8.8v-3.2h8.8V7.5h-10.8V4.1h10.8V0.4h3.9v3.8h11.6v3.4h-11.6v2.5h9.7v6.1h3v3.3h-3v6.4L368.2,25.8L368.2,25.8z M368.2,16.1
		h5.8v-2.9h-5.8V16.1z M368.2,22.6h5.8v-3.1h-5.8V22.6z"/>
	<path class="st0" d="M405,22.2c-0.7,3.9-1.8,8-3.3,11.4c0.8,0.5,1.7,1.2,3,2c3.2,1.9,7.3,2.2,12.6,2.2s13.1-0.4,18.2-1
		c-0.5,1.1-1.1,3.2-1.2,4.3c-3.5,0.2-11.8,0.5-17.1,0.5c-5.9,0-9.8-0.5-13.1-2.4c-1.8-1-3.5-2.6-4.4-2.6c-1,0-2.6,2.9-3.8,5.7
		l-2.9-3.9c1.6-2.2,3.3-4,4.9-4.8c1.1-2.5,2.1-5.7,2.7-8.6h-5.8c1.2-2.7,2.6-6.3,3.7-9.9h-4.7v-3.8h10c-1.1,3.2-2.4,6.9-3.5,10.1
		h1.7l0.6-0.1L405,22.2L405,22.2z M398.4,9.2c-0.5-2-1.6-5.2-2.4-7.6l3.7-1.1c0.8,2.4,1.9,5.3,2.5,7.3L398.4,9.2L398.4,9.2z
		 M409.1,10.4h-3.6V1.9h28.3v8.5h-4V5.1h-20.3v3.6h8.3V6.7h4.1v2.1h7.8v3h-7.8V14h9.6v13h-9.6v2.2h12.1v3.2h-12.1v3.4h-4.1v-3.4
		h-11.9v-3.2h11.9V27h-9.6V14h9.6v-2.3h-8.6L409.1,10.4L409.1,10.4z M411.7,19.2h6v-2.5h-6V19.2z M417.7,24.3v-2.5h-6v2.5H417.7z
		 M421.8,16.8v2.5h5.9v-2.5H421.8z M427.7,21.8h-5.9v2.5h5.9V21.8z"/>
	<path class="st0" d="M454.4,30.3c-0.7,3.9-1.9,8.1-3,10.8c-0.9-0.4-2.6-1-3.6-1.2c1.3-2.7,2.3-6.8,2.9-10.3
		C450.7,29.6,454.4,30.3,454.4,30.3z M463.6,27.6c-0.1-0.7-0.3-1.5-0.5-2.4c-11,1.8-12.7,2.2-13.7,2.7c-0.2-0.8-0.9-2.8-1.4-3.9
		c1.1-0.2,2.2-1.2,3.8-2.9c0.7-0.7,2.3-2.5,4-4.7c-4.9,0.6-6,0.8-6.7,1.2c-0.2-0.8-0.9-2.7-1.4-3.8c0.9-0.1,1.8-1,2.8-2.4
		c1.1-1.3,4.6-6.3,6.7-11.1l3.9,1.7c-2.1,3.9-4.8,8-7.5,11.3l4.9-0.4c1.3-1.8,2.5-3.7,3.6-5.6l3.6,2.3c-3.1,4.7-6.8,9.4-10.6,13.2
		l7-1c-0.4-1.3-0.9-2.7-1.4-3.9l3.4-0.9c1.2,3,2.5,7,3,9.4L463.6,27.6z M459.5,29.3c0.6,3.2,1.3,7.2,1.5,9.9l-3.5,1
		c-0.1-2.8-0.7-6.9-1.3-10.1L459.5,29.3L459.5,29.3z M464.7,28.2c1.1,2.7,2.4,6.1,2.9,8.4l-3.3,1.2c-0.5-2.3-1.7-5.8-2.7-8.6
		L464.7,28.2L464.7,28.2z M488,8.6c0,0,0,1.5,0,2.1c-0.5,19.8-1.1,26.6-2.8,28.8c-1.1,1.5-2.2,2-3.9,2.2c-1.6,0.2-4.3,0.1-6.8,0
		c-0.1-1.1-0.6-3-1.4-4.2c2.8,0.2,5.3,0.2,6.4,0.2c0.8,0,1.4-0.1,1.8-0.7c1.3-1.4,1.9-8,2.4-24.4h-12c-1.1,2.4-2.3,4.6-3.5,6.3
		c-0.8-0.6-2.6-1.8-3.7-2.4c3.2-3.9,5.6-10,6.9-16l4.2,0.8c-0.6,2.5-1.4,5-2.2,7.3L488,8.6L488,8.6z M477.3,30.1
		c-1.4-2.7-4.7-6.9-7.8-9.8l3-2.1c3,2.8,6.5,6.8,8,9.5L477.3,30.1L477.3,30.1z"/>
	<path class="st0" d="M520.8,11.2c-1.2-1.4-3.3-2.5-5.2-2.5c-4.3,0-7.8,3.2-8,12.7c2-2.4,4.9-3.9,7.3-3.9c5.6,0,9.4,3.4,9.4,10.5
		c0,6.6-4.5,10.9-10,10.9c-6.3,0-11.5-5.3-11.5-16.6c0-12.8,6-17.9,12.6-17.9c3.7,0,6.4,1.6,8.3,3.6L520.8,11.2L520.8,11.2z
		 M519.3,28.1c0-4.3-1.9-6.7-5.5-6.7c-2,0-4.2,1-6.2,3.9c0.5,6.6,2.9,9.7,6.5,9.7C517.1,35,519.3,32.4,519.3,28.1z"/>
	<path class="st0" d="M537.3,21.6c0-11.6,4.2-17.2,10.8-17.2s10.8,5.7,10.8,17.2S554.6,39,548.1,39S537.3,33.2,537.3,21.6z
		 M553.9,21.6c0-9.6-2.4-13.1-5.8-13.1s-5.8,3.5-5.8,13.1s2.4,13.3,5.8,13.3S553.9,31.3,553.9,21.6z"/>
	<path class="st0" d="M572.2,21.6c0-11.6,4.2-17.2,10.8-17.2s10.8,5.7,10.8,17.2S589.5,39,583,39S572.2,33.2,572.2,21.6z
		 M588.8,21.6c0-9.6-2.4-13.1-5.8-13.1s-5.8,3.5-5.8,13.1s2.4,13.3,5.8,13.3S588.8,31.3,588.8,21.6z"/>
	<path class="st0" d="M623.4,25.3c-3,6.5-8.2,13-13.3,16.6c-0.8-1.1-2.1-2.6-3.2-3.4c4.9-3,10.1-8.9,12.8-14.5L623.4,25.3
		L623.4,25.3z M629.8,21.7V42h-4.4V21.7h-17.7v-4.2h17.7v-17h4.4v17h17.8v4.2H629.8z M615.9,15.1c-0.9-2.9-3.4-7.3-5.8-10.6l3.8-1.7
		c2.5,3.2,5.2,7.4,6.2,10.4L615.9,15.1L615.9,15.1z M635,23.7c5.1,4.7,10.9,11.2,13.4,15.8l-3.7,2.4c-2.3-4.5-7.9-11.3-13-16.1
		L635,23.7L635,23.7z M645.7,4.4c-2.3,3.9-5.1,8.2-7.3,11.1l-3.6-1.7c2.2-2.9,4.8-7.7,6.3-11.2L645.7,4.4L645.7,4.4z"/>
</g>
</svg>
