<svg width="492" height="29" viewBox="0 0 492 29" fill="none" xmlns="http://www.w3.org/2000/svg">
<path d="M12.67 17.41V14.15L23.38 14.13V24.46C21.74 25.9 20.04 26.99 18.29 27.72C16.54 28.45 14.75 28.81 12.91 28.81C10.43 28.81 8.17 28.22 6.14 27.05C4.11 25.88 2.58 24.19 1.55 21.97C0.519999 19.76 0 17.28 0 14.55C0 11.82 0.51 9.31003 1.54 6.97003C2.57 4.62003 4.05 2.88003 5.98 1.74003C7.91 0.600029 10.13 0.0300293 12.65 0.0300293C14.48 0.0300293 16.13 0.36003 17.61 1.01003C19.09 1.66003 20.24 2.57003 21.08 3.73003C21.92 4.89003 22.56 6.41003 22.99 8.29003L19.97 9.20003C19.59 7.78003 19.12 6.67003 18.56 5.86003C18 5.05003 17.19 4.40003 16.15 3.91003C15.1 3.42003 13.94 3.18003 12.67 3.18003C11.14 3.18003 9.82 3.44003 8.7 3.95003C7.59 4.46003 6.69 5.14003 6 5.97003C5.32 6.81003 4.78 7.72003 4.41 8.72003C3.77 10.44 3.44 12.31 3.44 14.32C3.44 16.8 3.83 18.88 4.6 20.55C5.38 22.22 6.5 23.46 7.99 24.27C9.47 25.08 11.05 25.48 12.71 25.48C14.16 25.48 15.57 25.17 16.95 24.56C18.33 23.95 19.37 23.29 20.09 22.6V17.42H12.66L12.67 17.41Z" fill="white"/>
<path d="M32.28 28.32V0.5H43.49C45.74 0.5 47.46 0.75 48.63 1.25C49.8 1.75 50.74 2.63 51.44 3.9C52.14 5.17 52.49 6.56 52.49 8.09C52.49 10.06 51.91 11.73 50.75 13.08C49.59 14.43 47.8 15.29 45.37 15.66C46.25 16.13 46.93 16.59 47.39 17.05C48.37 18.04 49.29 19.27 50.17 20.75L54.57 28.32H50.36L47.02 22.53C46.04 20.86 45.24 19.58 44.61 18.7C43.98 17.81 43.41 17.19 42.91 16.84C42.41 16.49 41.9 16.24 41.38 16.1C41 16.01 40.38 15.97 39.52 15.97H35.64V28.33H32.3L32.28 28.32ZM35.62 12.77H42.81C44.34 12.77 45.53 12.6 46.4 12.25C47.26 11.9 47.92 11.35 48.37 10.58C48.82 9.81 49.04 8.98 49.04 8.08C49.04 6.76 48.61 5.68 47.74 4.83C46.87 3.98 45.5 3.56 43.63 3.56H35.63V12.77H35.62Z" fill="white"/>
<path d="M61.71 28.32V0.5H79.98V3.78H65.05V12.3H79.03V15.56H65.05V25.03H80.56V28.31H61.7L61.71 28.32Z" fill="white"/>
<path d="M86.33 28.32L96.04 0.48999H99.64L109.98 28.32H106.17L103.22 19.89H92.65L89.87 28.32H86.32H86.33ZM93.62 16.89H102.19L99.55 9.17999C98.75 6.83999 98.15 4.91999 97.76 3.40999C97.44 5.18999 96.98 6.96999 96.4 8.72999L93.62 16.89Z" fill="white"/>
<path d="M120.38 28.32V3.78H112.05V0.5H132.08V3.78H123.72V28.32H120.38Z" fill="white"/>
<path d="M159.75 28.32L149.96 0.48999H153.58L160.15 20.71C160.68 22.33 161.12 23.85 161.48 25.27C161.87 23.75 162.32 22.23 162.84 20.71L169.67 0.48999H173.08L163.18 28.32H159.75Z" fill="white"/>
<path d="M180.57 28.32V0.5H183.91V28.33H180.57V28.32Z" fill="white"/>
<path d="M193.79 28.32V0.5H212.06V3.78H197.13V12.3H211.11V15.56H197.13V25.03H212.64V28.31H193.78L193.79 28.32Z" fill="white"/>
<path d="M225.6 28.32L218.89 0.489981H222.32L226.16 18.73C226.57 20.64 226.93 22.54 227.23 24.42C227.87 21.45 228.25 19.73 228.37 19.28L233.18 0.489981H237.21L240.83 14.57C241.74 18.06 242.39 21.35 242.8 24.42C243.12 22.66 243.54 20.64 244.06 18.36L248.03 0.47998H251.39L244.46 28.31H241.24L235.91 7.10998C235.46 5.33998 235.2 4.24998 235.12 3.84998C234.86 5.12998 234.61 6.21998 234.38 7.10998L229.02 28.31H225.61L225.6 28.32Z" fill="white"/>
<path d="M283.99 17.41V14.15L294.7 14.13V24.46C293.06 25.9 291.36 26.99 289.61 27.72C287.86 28.45 286.07 28.81 284.23 28.81C281.75 28.81 279.49 28.22 277.46 27.05C275.43 25.88 273.9 24.19 272.87 21.97C271.84 19.76 271.32 17.28 271.32 14.55C271.32 11.82 271.83 9.31003 272.86 6.97003C273.89 4.62003 275.37 2.88003 277.3 1.74003C279.23 0.600029 281.45 0.0300293 283.97 0.0300293C285.8 0.0300293 287.45 0.36003 288.93 1.01003C290.41 1.66003 291.56 2.57003 292.4 3.73003C293.24 4.89003 293.88 6.41003 294.31 8.29003L291.29 9.20003C290.91 7.78003 290.44 6.67003 289.88 5.86003C289.32 5.05003 288.51 4.40003 287.47 3.91003C286.42 3.42003 285.26 3.18003 283.99 3.18003C282.46 3.18003 281.14 3.44003 280.02 3.95003C278.91 4.46003 278.01 5.14003 277.32 5.97003C276.64 6.81003 276.1 7.72003 275.73 8.72003C275.09 10.44 274.76 12.31 274.76 14.32C274.76 16.8 275.15 18.88 275.92 20.55C276.69 22.22 277.82 23.46 279.31 24.27C280.79 25.08 282.37 25.48 284.03 25.48C285.48 25.48 286.89 25.17 288.27 24.56C289.65 23.95 290.69 23.29 291.41 22.6V17.42H283.98L283.99 17.41Z" fill="white"/>
<path d="M302.52 14.77C302.52 10.15 303.65 6.54 305.9 3.92C308.15 1.31 311.06 0 314.62 0C316.95 0 319.06 0.61 320.93 1.84C322.8 3.07 324.23 4.78 325.21 6.97C326.19 9.17 326.68 11.66 326.68 14.44C326.68 17.22 326.16 19.79 325.13 22.01C324.1 24.24 322.63 25.92 320.73 27.07C318.83 28.22 316.79 28.79 314.59 28.79C312.21 28.79 310.08 28.16 308.21 26.89C306.34 25.62 304.92 23.9 303.95 21.71C302.98 19.52 302.5 17.21 302.5 14.76L302.52 14.77ZM305.97 14.83C305.97 18.18 306.79 20.83 308.43 22.75C310.07 24.68 312.12 25.64 314.59 25.64C317.06 25.64 319.18 24.67 320.8 22.72C322.43 20.77 323.24 18.01 323.24 14.42C323.24 12.15 322.89 10.18 322.2 8.49C321.5 6.8 320.49 5.49 319.15 4.56C317.81 3.63 316.31 3.16 314.64 3.16C312.27 3.16 310.24 4.06 308.53 5.85C306.82 7.64 305.97 10.63 305.97 14.82V14.83Z" fill="white"/>
<path d="M333.91 14.77C333.91 10.15 335.04 6.54 337.29 3.92C339.54 1.31 342.45 0 346.01 0C348.34 0 350.45 0.61 352.32 1.84C354.19 3.07 355.62 4.78 356.6 6.97C357.58 9.17 358.07 11.66 358.07 14.44C358.07 17.22 357.55 19.79 356.52 22.01C355.49 24.24 354.02 25.92 352.12 27.07C350.22 28.22 348.18 28.79 345.98 28.79C343.6 28.79 341.47 28.16 339.6 26.89C337.73 25.62 336.31 23.9 335.34 21.71C334.37 19.52 333.89 17.21 333.89 14.76L333.91 14.77ZM337.36 14.83C337.36 18.18 338.18 20.83 339.82 22.75C341.46 24.68 343.51 25.64 345.98 25.64C348.45 25.64 350.57 24.67 352.19 22.72C353.82 20.77 354.63 18.01 354.63 14.42C354.63 12.15 354.28 10.18 353.59 8.49C352.89 6.8 351.88 5.49 350.54 4.56C349.2 3.63 347.7 3.16 346.03 3.16C343.66 3.16 341.63 4.06 339.92 5.85C338.21 7.64 337.36 10.63 337.36 14.82V14.83Z" fill="white"/>
<path d="M366.3 28.32V0.5H375.01C376.98 0.5 378.48 0.63 379.51 0.9C380.96 1.27 382.19 1.93 383.22 2.89C384.55 4.13 385.55 5.72 386.21 7.64C386.87 9.57 387.2 11.78 387.2 14.26C387.2 16.37 386.98 18.25 386.53 19.88C386.08 21.51 385.51 22.86 384.81 23.93C384.11 25 383.34 25.84 382.51 26.45C381.68 27.06 380.67 27.53 379.49 27.85C378.31 28.17 376.96 28.32 375.43 28.32H366.31H366.3ZM369.64 25.04H375.04C376.71 25.04 378.01 24.87 378.96 24.53C379.91 24.19 380.66 23.71 381.23 23.09C382.02 22.22 382.64 21.04 383.08 19.57C383.52 18.1 383.74 16.31 383.74 14.21C383.74 11.3 383.31 9.06 382.44 7.5C381.57 5.94 380.52 4.89 379.28 4.36C378.38 3.98 376.94 3.79 374.95 3.79H369.64V25.05V25.04Z" fill="white"/>
<path d="M409.31 28.32V0.5H412.65V25.04H425.1V28.32H409.31Z" fill="white"/>
<path d="M433.57 28.32V0.5H436.91V28.33H433.57V28.32Z" fill="white"/>
<path d="M446.9 28.32V0.5H463.95V3.78H450.25V12.4H462.11V15.68H450.25V28.32H446.91H446.9Z" fill="white"/>
<path d="M472.28 28.32V0.5H490.55V3.78H475.62V12.3H489.6V15.56H475.62V25.03H491.13V28.31H472.27L472.28 28.32Z" fill="white"/>
</svg>
