<svg width="150" height="31" viewBox="0 0 150 31" fill="none" xmlns="http://www.w3.org/2000/svg">
<path d="M0.53 17.3H12.3V19.48C10.08 23.94 6.76 27.18 2.34 29.21L0 26.74C2.46 25.68 4.29 24.66 5.47 23.67C6.66 22.68 7.76 21.43 8.77 19.91H0.53V17.3ZM17.22 14.93V16.15C18.32 17.71 19.62 19.17 21.11 20.54C23.35 19.11 25.15 17.64 26.52 16.12L28.99 18.16C27.3 19.85 25.41 21.3 23.32 22.51C25.41 24.05 27.54 25.28 29.72 26.2C29.92 26.29 30.17 26.4 30.48 26.53L28.57 29.3C26.46 28.18 24.56 26.99 22.87 25.72C21.18 24.46 19.24 22.49 17.07 19.83V26.59C17.07 27.78 16.87 28.63 16.48 29.16C16.08 29.69 15.25 29.95 13.97 29.95H10.11L9.38 26.88L12.97 27.08C13.72 27.08 14.09 26.74 14.09 26.06V14.91H2.64V2.97999H12.76C12.94 2.46999 13.07 1.97999 13.16 1.49999L13.46 0.019989L16.96 0.579988C16.92 0.869988 16.81 1.28999 16.63 1.86999L16.3 2.98999H27.81V14.93H17.22ZM24.8 5.62999H5.64V7.76999H24.8V5.62999ZM5.64 12.32H24.8V10.11H5.64V12.32Z" fill="white"/>
<path d="M46.93 24.29C45.5 24.88 43.45 25.54 40.76 26.27L40.1 26.43L39.7 23.3L40.49 23.17L41.15 23.01V3.78001H39.7V1.04001H51.34V3.78001H49.66V30.36H46.92V24.29H46.93ZM43.9 7.70001H46.93V3.78001H43.9V7.70001ZM43.9 14.49H46.93V10.3H43.9V14.49ZM45.45 21.91L46.93 21.32V17.1H43.9V22.41L45.45 21.92V21.91ZM57.35 0.900007L56.86 1.89001C55.78 4.00001 54.83 5.57001 53.99 6.61001H55.18L56.33 6.54001L57.29 5.16001C57.47 4.85001 57.71 4.39001 58.02 3.77001L60.39 4.96001C58.28 8.13001 56.16 10.62 54.03 12.45L55.68 12.38L57.2 12.25L56.97 11.29L56.64 10.27L58.62 9.94001C59.02 10.84 59.43 12.58 59.87 15.15L57.66 15.48L57.56 14.46L54.13 14.76C52.42 14.76 51.2 14.82 50.47 14.92L50.11 12.45H50.97C52.05 11.57 53.22 10.45 54.5 9.09001L54.86 8.73001L52.88 8.80001L50.74 8.87001L50.38 6.50001L51.27 6.53001C52.59 4.73001 53.71 2.80001 54.63 0.760007C54.7 0.580007 54.79 0.350007 54.93 0.0700073L57.37 0.930007L57.35 0.900007ZM52.07 30.31L50.52 27.7C52.19 27.35 53.52 26.88 54.51 26.3C55.5 25.72 56.16 24.83 56.49 23.65H51.35V16.66H53.99V21.01H56.63V16.06H59.37V21.24C59.37 23.99 58.8 26.01 57.67 27.31C56.54 28.61 54.67 29.61 52.08 30.31H52.07ZM66.45 0.900007C65.39 3.23001 64.31 5.17001 63.19 6.70001H64.74L65.93 6.63001L66.82 5.24001L67.55 3.82001L69.89 5.01001C68.09 8.02001 66.05 10.55 63.79 12.59L65.54 12.52L67.39 12.39L67.13 11.43L66.83 10.41L68.81 10.08C69.25 11.05 69.67 12.85 70.06 15.49L67.82 15.85L67.72 14.6L64.19 14.9L60.5 15.1L60.1 12.59H60.83C61.07 12.35 61.27 12.16 61.42 12.03C62.74 10.84 63.77 9.77001 64.52 8.80001L62.15 8.87001L60.01 8.94001L59.61 6.57001L60.53 6.60001C60.82 6.18001 61.05 5.85001 61.22 5.61001C61.95 4.55001 62.7 3.10001 63.5 1.26001C63.63 0.970007 63.81 0.600007 64.03 0.140007L66.47 0.900007H66.45ZM63.84 16.07V21.81H66.51V16.67H69.15V24.45H63.84V30.35H61.1V16.07H63.84Z" fill="white"/>
<path d="M96.59 26.53V23.56H88.97V20.95H96.59V18.94H89.86V16.43H96.59V14.48H90.42V11.94H96.59V9.53H88.74V6.89H96.59V4.78H90.42V2.24H96.59V0H99.56V2.24H107.21V6.89H109.19V9.53H107.21V14.48H99.56V16.43H107.67V18.94H99.56V20.95H109.09V23.56H99.56V26.56H103.95C106.04 26.56 107.93 26.48 109.62 26.33L109.09 29.43H100.62C95.39 29.43 91.84 29.17 89.99 28.66C88.13 28.14 86.53 27.21 85.19 25.87C85.08 26.02 84.99 26.16 84.93 26.27C83.81 27.85 82.52 29.18 81.07 30.26L79.26 27.72C79.52 27.5 79.74 27.32 79.92 27.19C81.08 26.22 82.2 24.95 83.25 23.36C82.08 21.45 81.16 19.43 80.48 17.29C80.41 17.11 80.33 16.88 80.22 16.6L82.59 15.61C83.21 17.57 83.9 19.17 84.67 20.42C84.71 20.24 84.76 20.1 84.8 19.99C85.37 18.41 85.76 16.74 85.95 14.98C85.97 14.72 86 14.4 86.05 14.02H80.05V11.51C82.64 8.65 84.48 6.2 85.56 4.16H79.69V1.42H88.79V3.96C87.78 6.05 86.43 8.16 84.73 10.29C84.51 10.55 84.24 10.89 83.91 11.31H88.89V13.65C88.45 17.83 87.67 21.03 86.55 23.25C87.52 24.26 88.59 25 89.77 25.48C90.95 25.95 93.23 26.3 96.61 26.52L96.59 26.53ZM104.41 6.91V4.8H99.56V6.91H104.41ZM104.41 11.96V9.55H99.56V11.96H104.41Z" fill="white"/>
<path d="M123.96 3.77999C123.74 2.74999 123.28 1.62999 122.58 0.419989L125.55 0.019989C125.88 0.569989 126.18 1.23999 126.44 2.02999L127 3.77999H131.32V6.61999H118.86V3.77999H123.97H123.96ZM119.77 8.62999H130.26V11.33H119.77V8.62999ZM119.77 13.44H130.32V16.14H119.77V13.44ZM119.87 18.58H130.32V30.02H127.35V28.54H122.83V30.35H119.86V18.58H119.87ZM127.36 21.25H122.84V25.87H127.36V21.25ZM145.27 7.98999C145.27 8.73999 145.37 9.21999 145.58 9.41999C145.79 9.62999 146.19 9.72999 146.78 9.72999H148.82V12.5H145.69C144.5 12.5 143.62 12.24 143.04 11.71C142.46 11.18 142.17 10.15 142.17 8.60999V3.65999H137.62V4.71999C137.62 6.49999 137.34 7.98999 136.78 9.18999C136.22 10.39 134.97 11.84 133.04 13.56L130.63 11.42C132.32 10.12 133.41 8.94999 133.89 7.90999C134.37 6.86999 134.62 5.10999 134.62 2.64999V0.899989H145.27V7.98999ZM146.82 16.76C146.18 19.09 145.06 21.26 143.46 23.26L142.67 24.25C144.71 25.5 146.9 26.51 149.23 27.28L147.45 30.15C144.79 29.12 142.33 27.84 140.06 26.32C137.75 27.77 135.6 28.85 133.6 29.55C133.25 29.68 132.8 29.85 132.25 30.04L130.63 27.2C133.18 26.58 135.52 25.63 137.65 24.33L136.89 23.57C135.77 22.43 134.78 21.22 133.92 19.94C133.77 19.7 133.55 19.38 133.26 18.98L135.73 17.5L137.58 19.84C138.24 20.68 139.11 21.55 140.19 22.48L140.62 22.05C141.76 20.84 142.66 19.42 143.32 17.8L143.65 16.98H132.04V14.24H146.81V16.75L146.82 16.76Z" fill="white"/>
</svg>
