<svg width="819" height="194" viewBox="0 0 819 194" fill="none" xmlns="http://www.w3.org/2000/svg">
<path d="M816.302 16.8866C815.842 15.8366 814.922 14.9366 814.082 14.1066C812.782 12.8266 811.392 11.6266 809.992 10.4566C808.622 9.30662 807.322 8.10662 805.272 8.07662C803.182 8.04662 801.092 7.60662 799.012 7.33662C796.292 6.98662 793.562 6.34662 790.842 6.34662C783.462 6.34662 776.072 6.82662 768.852 8.42662C762.192 9.89662 755.622 11.7866 749.022 13.5066C746.632 14.1266 744.612 15.3266 742.562 16.7866C739.642 18.8566 735.672 18.5566 732.422 20.3566C729.282 22.0966 725.722 23.0766 722.402 24.5066C721.112 25.0566 720.012 26.4966 718.752 26.5766C714.812 26.8366 711.842 29.2566 708.592 30.8666C703.392 33.4466 698.462 36.6066 693.572 39.7466C688.152 43.2166 682.812 46.8366 677.592 50.5966C672.432 54.3066 667.402 58.1966 662.432 62.1466C659.482 64.4866 656.702 67.0466 653.932 69.5966C650.182 73.0566 646.202 76.3266 642.872 80.1666C638.272 85.4666 634.092 91.1366 629.932 96.7866C627.782 99.7166 627.752 101.967 630.862 103.747C631.662 102.637 632.462 101.517 633.352 100.277C633.602 100.697 633.812 100.887 633.782 101.017C633.012 104.387 634.202 107.157 635.822 109.817C636.192 110.407 636.542 110.967 636.872 111.467C638.432 113.847 640.082 116.217 641.282 118.777C642.942 122.297 645.232 125.337 647.632 128.327C649.582 130.747 651.582 133.127 653.562 135.517C656.702 139.287 659.632 143.257 663.052 146.747C666.482 150.247 670.352 153.347 674.132 156.487C675.832 157.897 677.752 159.067 679.652 160.197C683.792 162.647 688.072 164.867 692.122 167.447C694.532 168.987 697.452 169.647 699.502 171.797C699.652 171.957 700.112 171.787 700.402 171.847C701.032 171.967 701.692 172.047 702.262 172.307C706.242 174.157 710.102 176.317 714.202 177.837C718.382 179.387 722.792 180.307 727.102 181.497C730.162 182.337 733.062 181.367 736.002 180.697C740.312 179.717 744.752 179.097 748.322 176.157C750.282 174.537 752.242 172.907 754.072 171.147C756.432 168.887 758.742 166.577 760.922 164.137C762.332 162.567 763.382 160.667 764.762 159.067C765.222 158.527 766.422 158.027 766.932 158.257C767.992 158.757 768.982 159.627 769.712 160.567C771.672 163.127 774.352 164.307 777.332 165.197C780.292 166.077 783.222 167.117 786.052 168.357C788.752 169.537 791.142 169.977 793.362 167.517C793.672 167.167 794.282 167.017 794.782 166.937C798.932 166.307 799.592 164.547 799.662 160.977C799.752 156.417 799.862 151.857 800.062 147.307C800.212 144.077 800.602 140.857 800.752 137.627C801.112 129.607 801.052 121.557 801.802 113.577C802.682 104.237 804.182 94.9566 805.542 85.6666C806.242 80.9366 806.992 76.1866 808.162 71.5566C809.252 67.2466 811.062 63.1166 812.332 58.8466C813.852 53.7366 815.402 48.6066 816.422 43.3866C817.302 38.9166 817.562 34.3166 817.892 29.7666C818.212 25.3866 818.092 20.9966 816.312 16.8766L816.302 16.8866ZM755.802 145.497C752.452 142.877 749.532 140.607 746.612 138.327C746.732 138.087 746.852 137.847 746.972 137.617C748.772 138.137 750.812 138.287 752.292 139.277C753.862 140.317 754.822 140.147 756.062 139.097C756.642 138.597 757.332 138.227 757.972 137.797C758.152 137.897 758.342 138.007 758.522 138.107C757.662 140.457 756.802 142.797 755.812 145.497H755.802ZM810.792 32.1666C810.642 35.4766 810.332 38.8066 809.802 42.0766C809.122 46.2466 808.132 50.3766 807.302 54.5266C805.392 64.0666 803.512 73.6066 801.582 83.1466C800.522 88.3666 799.372 93.5666 798.282 98.7866C797.282 103.547 796.292 108.307 795.332 113.077C794.322 118.107 793.202 123.107 792.402 128.167C791.532 133.697 791.022 139.277 790.262 144.827C789.782 148.387 789.162 151.927 788.562 155.467C788.262 157.207 787.392 158.327 785.402 158.267C781.162 158.137 777.202 156.987 773.432 155.117C771.862 154.337 770.292 153.537 769.162 152.977C771.292 148.597 773.422 144.937 774.892 141.037C777.332 134.587 779.272 127.917 779.852 121.037C780.352 115.137 780.482 109.167 780.122 103.277C779.992 101.207 778.062 99.1566 776.662 97.3066C776.342 96.8766 774.732 97.0066 773.962 97.3866C770.402 99.1266 769.062 102.597 767.832 106.017C766.462 109.827 765.242 113.687 764.082 117.567C763.062 120.987 762.242 124.477 761.302 127.917C760.592 130.517 759.812 133.097 759.062 135.687C758.892 135.637 758.782 135.617 758.782 135.597C758.712 131.567 755.232 131.967 752.862 131.337C750.322 130.667 747.592 130.717 744.692 130.417C746.212 128.247 746.412 125.617 749.472 124.227C752.572 122.817 754.822 119.907 755.892 116.297C756.932 112.787 758.312 109.387 758.312 105.647C758.312 105.357 758.492 105.027 758.682 104.777C760.342 102.567 760.382 100.047 760.032 97.4866C759.762 95.4766 759.342 93.4866 759.002 91.4866C758.712 89.7766 757.752 89.0266 756.002 89.1166C750.872 89.3766 746.242 90.9666 742.092 94.0166C738.702 96.5066 735.272 98.9366 731.842 101.377C731.452 101.657 730.972 101.797 730.162 102.177C730.452 100.637 730.672 99.5166 730.862 98.3866C731.792 92.7066 733.832 87.4066 735.992 82.0966C737.832 77.5566 740.292 73.7166 744.392 70.9366C746.672 69.3866 748.902 67.7266 750.952 65.8966C753.172 63.9166 753.192 61.9866 751.552 59.4566C751.242 58.9766 751.112 58.1766 751.272 57.6466C751.862 55.7266 752.662 53.8766 753.282 51.9666C753.752 50.5366 754.072 49.0666 754.442 47.6066C754.582 47.0566 754.542 46.4466 754.762 45.9566C755.682 43.9266 754.562 42.1766 752.352 41.7966C746.022 40.7266 740.522 43.1566 735.002 45.6366C733.462 46.3266 731.942 47.0666 730.412 47.7766C730.352 47.8066 730.252 47.7766 730.222 47.8266C729.042 49.6266 727.642 51.1966 725.862 52.4366C725.652 52.5866 725.652 53.0366 725.512 53.4966C725.062 53.2466 724.682 53.0366 724.142 52.7366C721.442 58.1666 721.242 63.8466 721.712 69.5666C721.922 72.1366 722.422 74.7266 723.142 77.1966C723.772 79.3566 725.762 80.0766 727.932 79.6266C729.422 79.3166 730.982 79.3466 732.982 79.1766C731.962 81.6866 731.212 83.8066 730.252 85.8166C726.992 92.6266 725.052 99.8266 723.472 107.167C723.302 107.957 722.752 108.797 722.142 109.317C720.782 110.457 719.352 111.437 719.032 113.397C718.932 114.027 718.342 114.567 717.862 115.327C717.862 115.327 718.312 115.627 718.692 115.977C720.542 117.667 721.402 119.907 721.472 122.287C721.602 126.917 725.332 129.457 729.512 128.647C731.312 128.297 733.102 127.917 734.912 127.627C735.412 127.547 735.952 127.767 736.692 127.887C735.562 129.737 734.862 131.597 733.562 132.797C732.042 134.197 730.102 135.507 728.132 135.997C725.662 136.607 724.192 138.107 722.722 139.857C722.562 140.047 722.412 140.287 722.372 140.527C722.222 141.597 724.842 145.657 725.852 145.527C727.072 145.367 728.352 144.747 729.352 143.977C732.292 141.707 735.092 139.247 737.972 136.907C739.552 135.627 744.122 135.847 745.262 137.327C746.242 138.607 746.902 140.137 747.822 141.477C749.462 143.857 751.252 146.137 752.852 148.547C753.202 149.067 753.312 150.247 752.972 150.647C750.282 153.887 747.462 157.017 744.662 160.157C740.812 164.487 735.792 165.467 730.372 164.767C726.052 164.217 721.702 163.577 717.502 162.457C712.992 161.247 708.642 159.397 704.212 157.867C700.892 156.717 697.542 155.647 694.212 154.517C689.282 152.847 684.292 151.297 679.442 149.427C671.762 146.467 665.092 141.817 659.082 136.297C654.612 132.187 650.462 127.697 646.292 123.267C644.922 121.817 643.612 120.157 642.832 118.357C642.092 116.627 642.042 114.597 641.752 112.687C641.612 111.767 641.572 110.817 641.582 109.887C641.582 109.387 641.772 108.477 641.942 108.467C644.472 108.257 644.362 105.727 645.282 104.347C648.452 99.6066 651.862 95.1266 656.142 91.3666L683.582 68.9366C687.742 65.8366 691.792 62.5866 696.072 59.6566C700.402 56.6866 704.882 53.9166 709.412 51.2566C714.222 48.4366 719.052 45.6166 724.072 43.2066C730.802 39.9766 737.682 37.0566 744.582 34.1866L766.882 25.5566C772.332 22.1466 778.422 20.9466 784.542 19.7066C787.552 19.0966 790.572 18.5166 793.572 17.8766C794.152 17.7566 794.702 17.4366 795.172 16.8466H782.612C782.572 16.5666 782.522 16.2866 782.482 16.0066C783.732 15.6966 784.962 15.2466 786.232 15.0966C791.222 14.5166 796.222 13.9366 801.232 13.5666C803.692 13.3866 806.242 13.3766 808.662 13.7966C810.552 14.1266 811.002 16.2366 811.032 17.8166C811.132 22.6066 811.012 27.3966 810.792 32.1866V32.1666ZM746.492 105.317C746.452 104.757 746.892 103.867 747.352 103.667C747.742 103.497 748.842 103.997 748.972 104.407C749.612 106.367 750.022 108.397 750.392 109.927C750.212 111.177 750.232 111.917 749.972 112.547C749.772 113.027 748.952 113.747 748.832 113.677C748.242 113.307 747.452 112.777 747.342 112.187C746.912 109.917 746.652 107.617 746.492 105.317ZM739.322 119.657C735.252 114.677 735.592 112.137 741.542 108.027C741.872 112.217 740.832 115.877 739.322 119.657ZM737.852 62.5666C737.972 64.5066 738.142 66.4766 738.572 68.3666C738.912 69.8466 738.532 70.7066 737.252 71.3766C734.862 64.2266 732.522 57.2166 730.062 49.8566C733.122 51.5866 736.042 51.2166 738.882 50.8366C740.632 50.5966 740.982 51.1866 740.762 52.6866" fill="white"/>
<path d="M554.512 54.4466C551.472 59.0066 548.452 63.7166 543.372 66.4366C541.972 67.1866 540.562 67.9366 539.162 68.6866C539.212 68.8266 539.252 68.9666 539.302 69.1066C541.742 69.1066 544.182 69.1066 546.622 69.0966C546.812 69.0966 547.012 68.9266 547.192 68.8266C551.972 66.1766 556.882 63.7366 561.502 60.8166C565.682 58.1766 570.042 56.2666 574.862 55.2366C580.162 54.0966 583.672 49.6466 583.712 44.2166C583.722 42.5066 583.742 40.7966 583.682 39.0866C583.512 34.0166 581.802 29.3866 578.692 25.4866C576.742 23.0366 574.172 21.0166 571.642 19.1066C569.492 17.4766 567.112 16.1166 564.682 14.9366C559.302 12.3166 553.472 11.2766 547.582 10.5866C546.152 10.4166 544.712 10.2466 543.042 10.0466C543.082 14.6566 544.572 18.4166 546.712 21.8966C547.682 23.4666 549.232 24.6666 550.532 26.0266C552.602 28.2066 554.982 30.1666 556.702 32.5866C559.642 36.7366 559.562 41.5266 558.192 46.1866C557.342 49.0666 556.172 51.9766 554.522 54.4566L554.512 54.4466Z" fill="white"/>
<path d="M614.752 50.4866C611.932 50.6766 609.312 51.1166 606.772 52.8066C604.472 54.3366 601.472 54.7866 598.892 55.9566C595.752 57.3866 592.752 59.1166 589.642 60.6166C589.082 60.7766 583.082 63.7766 582.752 63.9566C580.642 65.1066 578.572 66.3066 576.462 67.4466C573.432 69.0866 570.332 70.5966 567.352 72.3266C564.332 74.0766 561.442 76.0666 558.462 77.8766C554.842 80.0766 551.162 82.1866 547.532 84.3766C544.542 86.1866 541.622 88.1366 538.602 89.8966C534.462 92.3066 530.222 94.5366 526.102 96.9666C522.882 98.8666 519.822 101.037 516.602 102.917C513.012 105.007 509.252 106.817 505.662 108.917C502.722 110.637 499.992 112.727 497.052 114.447C490.042 118.557 483.102 122.827 475.862 126.497C468.172 130.387 460.232 133.787 452.292 137.157C443.762 140.767 434.992 143.787 425.862 145.477C419.092 146.727 412.252 147.567 405.442 148.617C405.282 148.647 405.112 148.677 404.952 148.717C404.882 148.737 404.822 148.757 404.752 148.777C404.652 148.807 404.562 148.837 404.462 148.867C404.312 148.917 404.162 148.967 404.012 149.017C403.952 149.037 403.892 149.057 403.832 149.077C403.712 149.117 403.592 149.157 403.472 149.187C403.442 149.357 403.432 149.457 403.422 149.557C403.382 149.677 403.352 149.787 403.312 149.907C403.432 149.987 403.552 150.067 403.682 150.147C403.782 150.207 403.882 150.277 403.982 150.337C404.102 150.417 404.212 150.497 404.332 150.577C404.422 150.647 404.522 150.707 404.612 150.777C404.812 150.917 405.002 151.057 405.202 151.197C405.312 151.277 405.432 151.357 405.552 151.437C405.652 151.507 405.742 151.577 405.842 151.637C405.962 151.717 406.072 151.787 406.192 151.867C406.282 151.927 406.382 151.987 406.472 152.047C406.602 152.127 406.722 152.197 406.852 152.267C406.942 152.317 407.022 152.367 407.112 152.417C407.252 152.487 407.392 152.557 407.542 152.617C407.622 152.647 407.692 152.697 407.772 152.727C407.992 152.817 408.222 152.897 408.452 152.957C412.932 154.157 417.552 154.847 422.092 155.797C428.032 157.047 434.012 156.677 439.872 155.717C447.022 154.547 454.172 153.217 460.982 150.427C465.702 148.497 470.782 147.427 475.482 145.457C481.872 142.777 488.072 139.667 494.292 136.607C496.012 135.757 497.512 134.457 499.132 133.397C499.592 133.097 501.142 132.447 502.482 131.747C503.352 131.477 504.092 131.077 504.522 130.317C504.542 130.287 504.572 130.247 504.592 130.217C504.902 129.597 507.152 128.287 509.002 127.117C509.052 126.997 511.652 125.287 513.662 123.887C514.292 123.697 514.912 123.347 515.222 122.937C515.352 122.767 515.492 122.607 515.622 122.447C515.772 122.327 515.892 122.217 515.942 122.147C516.202 121.797 517.292 121.037 518.712 120.107C519.182 119.917 519.652 119.787 520.122 119.717C520.182 119.507 520.232 119.307 520.272 119.117C522.262 117.867 524.542 116.517 526.202 115.527C527.222 116.237 527.982 115.797 528.332 114.337C528.332 114.307 528.352 114.267 528.362 114.237C528.472 114.167 528.532 114.127 528.532 114.117C528.592 113.947 528.872 113.727 529.282 113.487C531.002 114.127 531.962 112.947 533.442 112.027C534.032 111.657 534.432 111.237 534.712 110.787C534.712 110.787 534.712 110.787 534.722 110.777C535.352 109.777 537.722 108.907 539.472 108.267C540.062 108.197 540.672 107.957 541.302 107.507C541.302 107.507 541.322 107.497 541.332 107.487C541.352 107.467 541.372 107.457 541.392 107.437C542.292 106.757 543.222 106.117 544.172 105.497C544.832 105.067 545.502 104.647 546.172 104.227C546.242 104.187 546.312 104.137 546.382 104.097C546.822 103.827 547.252 103.557 547.692 103.287C548.572 102.747 549.462 102.207 550.352 101.677C550.692 101.477 551.022 101.277 551.362 101.077C552.532 100.387 553.702 99.7066 554.882 99.0366C555.302 98.7966 555.932 98.9066 556.602 98.8466C556.352 100.157 556.372 101.387 555.892 102.357C553.312 107.597 550.922 112.977 547.852 117.927C544.692 123.027 540.802 127.667 537.272 132.547C535.272 135.317 533.422 138.207 531.382 140.947C530.452 142.197 529.102 143.137 528.162 144.387C525.352 148.097 522.742 151.957 519.872 155.617C518.322 157.587 516.382 159.267 514.622 161.067C512.882 162.847 511.982 165.467 509.282 166.347C508.872 166.477 508.542 167.347 508.452 167.937C507.762 169.587 506.932 171.977 506.872 172.367C506.322 176.097 506.242 176.897 506.932 179.217C509.472 178.827 511.592 178.507 513.702 178.157C515.402 177.877 517.092 177.417 518.802 177.277C520.822 177.117 522.862 177.277 524.892 177.157C525.442 177.127 526.022 176.687 526.512 176.337C527.072 175.937 527.622 175.517 528.162 175.087C528.682 174.687 529.202 174.277 529.722 173.867C529.922 174.027 529.882 174.007 530.082 174.167C529.672 174.967 529.272 175.757 528.862 176.557C528.452 177.367 528.042 178.177 527.632 178.987C530.602 180.367 533.572 181.767 536.562 183.117C538.072 183.797 539.592 184.447 541.152 184.997C545.582 186.567 550.302 186.857 554.662 189.087C558.382 190.987 562.832 191.457 566.982 192.507C567.632 192.667 568.352 192.527 569.042 192.527C569.062 192.367 569.482 192.237 569.572 192.087C569.802 192.117 570.272 192.117 570.562 191.957C572.592 190.807 570.852 191.487 572.502 191.337C574.532 191.157 575.502 190.187 576.252 190.037C578.362 188.177 580.772 186.717 582.212 184.607C583.792 182.287 584.262 179.247 585.602 176.717C587.242 173.617 588.842 170.267 591.292 167.897C593.472 165.797 595.292 163.867 596.572 161.037C599.062 155.547 599.452 149.857 599.082 144.057C598.842 140.207 598.482 136.327 597.652 132.577C597.622 132.437 597.582 132.287 597.552 132.147C597.542 132.097 597.532 132.047 597.512 132.007C597.492 131.907 597.462 131.817 597.442 131.717C597.432 131.667 597.412 131.617 597.402 131.567C597.372 131.477 597.352 131.377 597.322 131.287C597.302 131.227 597.282 131.177 597.262 131.117C597.232 131.027 597.212 130.947 597.182 130.857C597.152 130.787 597.132 130.707 597.102 130.637C597.072 130.567 597.052 130.497 597.022 130.427C596.992 130.357 596.962 130.297 596.942 130.227C596.912 130.157 596.882 130.077 596.852 130.007C596.822 129.947 596.792 129.887 596.762 129.827C596.722 129.747 596.692 129.677 596.652 129.597C596.622 129.537 596.592 129.477 596.552 129.417C596.512 129.347 596.472 129.267 596.432 129.197C596.392 129.137 596.352 129.077 596.322 129.017C596.282 128.947 596.242 128.877 596.192 128.817C596.152 128.757 596.102 128.697 596.062 128.637C596.012 128.577 595.972 128.507 595.922 128.447C595.872 128.387 595.822 128.337 595.772 128.277C595.722 128.217 595.672 128.157 595.622 128.097C595.572 128.037 595.512 127.987 595.462 127.937C595.402 127.877 595.352 127.827 595.292 127.767C595.232 127.717 595.172 127.667 595.112 127.617C595.052 127.567 594.992 127.507 594.932 127.467C594.872 127.417 594.802 127.377 594.732 127.327C594.662 127.277 594.602 127.227 594.532 127.187C594.462 127.137 594.382 127.097 594.312 127.057C594.242 127.017 594.172 126.977 594.102 126.937C594.022 126.897 593.942 126.857 593.862 126.817C593.792 126.787 593.722 126.747 593.642 126.717C593.632 126.717 593.622 126.707 593.602 126.697C592.052 126.037 590.552 125.237 589.102 124.367C589.082 124.367 589.072 124.347 589.052 124.337C588.542 124.037 588.032 123.747 587.512 123.477C587.442 123.447 587.382 123.407 587.312 123.367C586.802 123.107 586.292 122.857 585.782 122.627C585.702 122.597 585.632 122.557 585.552 122.527C585.042 122.307 584.522 122.097 584.002 121.907C583.922 121.877 583.832 121.847 583.752 121.817C583.232 121.637 582.712 121.467 582.182 121.307C582.102 121.287 582.012 121.257 581.932 121.237C581.402 121.087 580.862 120.957 580.312 120.837C580.232 120.817 580.162 120.807 580.082 120.787C579.532 120.677 578.972 120.577 578.402 120.497C578.342 120.497 578.272 120.477 578.212 120.477C577.632 120.407 577.042 120.347 576.452 120.307C576.412 120.307 576.372 120.307 576.332 120.307C575.712 120.267 575.092 120.257 574.462 120.257C573.032 120.267 571.602 120.257 570.482 120.257C571.082 118.517 571.662 116.807 572.242 115.107C572.512 114.317 572.782 113.527 573.052 112.747C573.782 110.607 574.512 108.487 575.252 106.377C575.322 106.177 575.412 105.977 575.512 105.787C575.602 105.587 575.712 105.397 575.832 105.207C575.872 105.147 575.902 105.087 575.942 105.027C576.012 104.917 576.082 104.797 576.162 104.687C576.192 104.637 576.222 104.587 576.252 104.537C576.292 104.467 576.332 104.407 576.372 104.337C576.412 104.267 576.452 104.187 576.492 104.117C576.522 104.047 576.562 103.987 576.592 103.917C576.622 103.847 576.662 103.767 576.692 103.697C576.722 103.627 576.742 103.567 576.772 103.507C576.802 103.437 576.822 103.367 576.842 103.287C576.862 103.227 576.882 103.157 576.902 103.097C576.922 103.027 576.932 102.957 576.942 102.887C576.952 102.827 576.962 102.757 576.972 102.697C576.972 102.627 576.982 102.557 576.992 102.487C576.992 102.427 577.002 102.367 577.002 102.307C577.002 102.237 577.002 102.167 577.002 102.107C577.002 102.047 577.002 101.987 576.992 101.927C576.992 101.857 576.972 101.797 576.962 101.727C576.952 101.667 576.942 101.617 576.932 101.557C576.912 101.497 576.892 101.427 576.872 101.367C576.852 101.317 576.842 101.257 576.822 101.207C576.802 101.147 576.762 101.087 576.732 101.027C576.702 100.977 576.682 100.927 576.652 100.867C576.622 100.807 576.582 100.747 576.542 100.687C576.512 100.637 576.482 100.587 576.442 100.537C576.402 100.477 576.352 100.427 576.302 100.367C576.262 100.317 576.232 100.277 576.192 100.227C576.142 100.167 576.082 100.117 576.022 100.067C575.982 100.027 575.942 99.9866 575.892 99.9466C575.832 99.8866 575.752 99.8366 575.682 99.7866C575.632 99.7466 575.592 99.7166 575.542 99.6766C575.462 99.6166 575.372 99.5666 575.282 99.5166C575.232 99.4866 575.192 99.4566 575.152 99.4366C575.012 99.3566 574.872 99.2866 574.712 99.2166C574.002 98.8966 573.192 98.7666 572.532 98.3766C570.322 97.0366 568.102 95.6966 566.022 94.1766C564.972 93.4066 565.202 92.6366 566.482 91.9666C566.892 91.7566 567.282 91.5166 567.672 91.2766C567.822 91.1766 567.972 91.0766 568.122 90.9666C568.352 90.8166 568.582 90.6566 568.812 90.4966C569.122 90.2766 569.432 90.0566 569.742 89.8266C569.912 89.7066 570.092 89.5866 570.262 89.4566C570.532 89.2666 570.802 89.0666 571.082 88.8866C571.002 88.6066 584.202 81.2166 589.372 78.1266C589.372 78.1566 589.372 78.1966 589.372 78.2266C590.242 77.6366 590.932 77.3566 591.322 76.8866C591.382 76.8366 591.422 76.7966 591.422 76.7866C592.122 75.7766 592.452 74.4766 593.242 73.5666C594.322 72.3066 595.992 71.5166 595.942 69.4666C595.942 69.1866 596.612 68.8066 597.032 68.5966C599.892 67.2066 602.712 65.7166 605.652 64.5266C608.622 63.3266 610.422 59.9666 614.062 60.0466C614.622 60.0566 615.222 59.9966 615.722 59.7866C616.752 59.3666 618.142 59.0766 618.632 58.2766C619.682 56.5566 620.262 54.5366 621.132 52.4166C619.452 51.1566 617.262 50.2966 614.752 50.4766V50.4866ZM565.582 133.687C569.122 134.637 572.632 135.747 576.042 137.087C578.002 137.857 578.992 139.637 579.622 141.747C580.282 143.957 581.452 145.957 581.292 148.447C581.032 152.697 579.362 156.477 577.842 160.337C576.902 162.737 575.972 165.167 575.412 167.677C574.862 170.147 570.982 173.847 568.462 174.357C561.592 175.747 554.662 175.577 547.732 175.397C544.212 175.307 540.652 174.907 537.762 172.527C536.942 171.847 536.322 170.917 535.752 170.277C537.022 168.507 538.132 166.737 539.462 165.157C542.852 161.147 546.482 157.337 549.742 153.237C552.772 149.437 555.472 145.377 558.272 141.407C559.822 139.207 561.172 136.847 562.842 134.747C563.382 134.067 564.782 133.497 565.572 133.707L565.582 133.687Z" fill="white"/>
<path d="M373.792 86.6466C368.072 88.4466 362.462 90.0966 356.942 92.0066C354.052 93.0066 351.352 94.5266 348.492 95.6266C348.072 95.7866 346.652 94.7866 346.702 94.5166C347.122 92.3666 347.252 89.8766 348.482 88.2466C351.052 84.8566 354.242 81.9366 357.172 78.8066C357.652 78.2966 358.052 77.7166 358.732 76.8666C354.542 77.6366 350.822 78.4566 347.062 78.9766C343.192 79.5066 338.162 77.5366 337.252 72.6266C336.752 69.9466 337.522 69.5166 340.202 69.1366C342.992 68.7466 345.782 67.6566 348.342 66.4066C361.672 59.9066 374.912 53.2266 388.212 46.6966C391.112 45.2666 398.462 47.8366 400.012 50.7166C400.902 52.3766 401.042 54.0466 399.392 55.5566C393.882 60.6066 388.752 66.1466 382.852 70.7066C378.472 74.0866 373.102 76.1666 368.232 78.9266C365.332 80.5666 362.542 82.4066 359.692 84.1666C359.792 84.4166 359.892 84.6566 359.992 84.9066C360.852 84.6066 361.732 84.3766 362.562 84.0066C369.052 81.1366 375.512 78.1766 382.022 75.3666C384.532 74.2866 386.652 74.9466 388.382 77.2066C389.902 79.1966 388.932 80.5966 387.762 82.2066C384.642 86.5066 381.612 90.8666 378.222 95.6666C379.562 96.0666 380.362 96.4366 381.192 96.5266C384.672 96.8866 387.062 98.7266 388.552 101.797C389.532 103.797 388.012 107.527 385.682 109.417C382.132 112.297 378.622 115.247 375.162 118.237C370.222 122.507 364.482 125.067 358.152 126.427C357.692 126.527 357.162 126.427 356.762 126.607C351.722 129.017 346.702 131.457 341.212 134.117C342.112 135.057 342.702 135.977 343.542 136.517C346.972 138.737 350.612 140.657 353.902 143.057C355.732 144.397 357.182 146.347 358.542 148.217C359.842 149.997 361.082 150.597 362.912 149.087C366.202 146.367 369.512 143.667 372.822 140.957C372.722 140.687 372.632 140.407 372.532 140.137C371.522 140.137 370.492 139.997 369.502 140.157C363.772 141.137 358.302 139.827 352.972 138.017C351.742 137.597 350.482 136.127 350.002 134.857C349.202 132.757 351.262 131.857 352.662 131.177C355.942 129.587 359.292 128.057 362.752 126.937C371.002 124.267 379.302 121.747 387.652 119.407C389.332 118.937 391.392 119.207 393.142 119.657C395.852 120.357 396.762 122.457 396.462 125.277C395.522 134.077 389.772 139.097 382.722 143.197C380.592 144.437 378.552 145.847 376.472 147.187C376.562 147.497 376.652 147.807 376.742 148.117C378.062 148.177 379.382 148.247 380.702 148.307C385.852 148.507 389.502 152.807 388.352 157.417C388.142 158.237 387.562 159.287 386.862 159.597C381.952 161.787 377.002 163.907 371.992 165.867C367.922 167.457 363.772 168.827 359.632 170.207C358.042 170.737 356.402 171.117 354.752 171.427C352.672 171.827 350.812 170.647 350.532 168.957C349.612 163.457 345.002 161.127 341.582 157.827C337.052 153.447 332.822 148.877 330.052 143.127C327.152 137.107 330.302 129.657 336.602 127.707C343.252 125.647 348.942 121.937 354.002 117.247C354.522 116.757 354.672 115.617 354.622 114.807C354.362 110.787 353.882 106.747 356.532 103.237C357.012 102.597 357.682 101.997 358.392 101.667C365.062 98.5966 369.682 93.2766 373.982 87.5966C374.022 87.5466 373.942 87.4166 373.772 86.6866L373.792 86.6466Z" fill="white"/>
<path d="M271.162 108.467C271.162 107.827 264.312 112.607 261.612 114.717C258.572 117.097 255.412 119.327 252.312 121.637C251.752 122.057 251.232 122.527 250.732 123.007C250.352 123.377 246.002 126.157 244.532 127.907C243.302 129.377 241.112 129.997 239.592 131.287C237.612 132.967 235.842 134.907 234.022 136.787C230.732 140.177 227.462 143.587 224.212 147.027C223.802 147.457 223.582 148.067 222.822 149.377C226.552 148.367 229.482 147.297 232.522 146.817C241.092 145.457 249.662 143.977 258.292 143.247C265.722 142.617 271.082 146.977 275.162 152.687C280.752 160.527 285.442 169.177 293.232 175.107C298.232 178.917 303.802 182.147 309.502 184.817C314.532 187.177 317.012 185.717 318.872 180.337C320.802 174.777 322.362 169.087 324.092 163.447C324.222 163.037 324.372 162.637 324.992 162.287C324.992 163.997 325.062 165.717 324.972 167.427C324.812 170.587 323.752 173.957 324.532 176.847C325.582 180.727 324.662 184.107 323.532 187.467C322.962 189.167 321.262 190.907 319.622 191.757C315.762 193.767 311.592 193.147 307.552 191.967C297.412 189.017 288.182 184.377 280.892 176.577C277.452 172.897 274.482 168.767 271.352 164.807C269.322 162.227 267.482 159.507 265.402 156.977C262.172 153.037 257.662 151.407 252.822 150.947C244.302 150.147 235.782 150.257 227.342 152.067C224.892 152.587 222.372 152.827 219.872 153.007C217.742 153.157 218.142 151.477 218.642 150.497C220.142 147.587 221.692 144.677 223.582 142.017C228.492 135.077 233.502 128.187 238.652 121.427C243.322 115.297 248.392 109.467 252.992 103.287C260.512 93.1766 268.002 83.0366 275.142 72.6566C282.432 62.0566 289.172 51.0766 296.352 40.3966C299.252 36.0866 302.572 32.0466 305.912 28.0566C309.622 23.6066 314.612 24.4666 318.082 29.4566C321.622 34.5566 323.122 39.9166 321.392 45.8766C320.332 49.5366 318.502 52.9666 317.422 56.6166C315.392 63.4466 312.802 70.0466 308.802 75.9066C306.572 79.1666 303.452 81.8666 300.502 84.5666C296.982 87.7766 293.232 90.7266 289.542 93.7566C286.272 96.4366 284.502 98.0166 281.222 100.697C280.742 101.087 278.762 102.637 278.442 103.167C275.932 105.347 271.412 108.577 271.152 108.497L271.162 108.467Z" fill="white"/>
<path d="M363.762 50.4166C366.152 47.6466 368.062 45.6666 369.702 43.4766C373.582 38.2966 373.502 37.4866 369.392 32.3466C367.462 29.9366 366.152 27.3266 366.822 23.9566C370.802 23.0866 374.422 23.7066 377.652 26.2566C380.672 28.6466 383.132 31.4166 384.612 35.0766C386.262 39.1566 384.202 44.5766 380.182 46.1366C376.552 47.5466 372.972 49.1266 369.272 50.3366C367.872 50.7966 366.202 50.4066 363.772 50.4066L363.762 50.4166Z" fill="white"/>
<path d="M363.762 50.4166C366.192 50.4166 367.862 50.7966 369.262 50.3466C372.962 49.1366 376.532 47.5566 380.172 46.1466C384.192 44.5866 386.262 39.1666 384.602 35.0866C383.122 31.4266 380.662 28.6566 377.642 26.2666C374.412 23.7166 370.802 23.0966 366.812 23.9666C366.142 27.3366 367.452 29.9366 369.382 32.3566C373.492 37.4866 373.572 38.2966 369.692 43.4866C368.052 45.6766 366.142 47.6466 363.752 50.4266L363.762 50.4166Z" fill="white"/>
<path d="M400.002 50.7066C398.462 47.8166 391.112 45.2566 388.202 46.6866C374.892 53.2266 361.652 59.9066 348.332 66.3966C345.772 67.6466 342.982 68.7466 340.192 69.1266C337.512 69.4966 336.752 69.9266 337.242 72.6166C338.152 77.5266 343.182 79.4966 347.052 78.9666C350.812 78.4466 354.532 77.6266 358.722 76.8566C358.042 77.7066 357.642 78.2866 357.162 78.7966C354.242 81.9266 351.042 84.8466 348.472 88.2366C347.242 89.8666 347.112 92.3666 346.692 94.5066C346.642 94.7766 348.062 95.7766 348.482 95.6166C351.342 94.5166 354.042 92.9966 356.932 91.9966C362.452 90.0866 368.062 88.4366 373.782 86.6366C373.952 87.3666 374.032 87.4966 373.992 87.5466C369.692 93.2266 365.072 98.5466 358.402 101.617C357.692 101.947 357.022 102.547 356.542 103.187C353.892 106.697 354.372 110.737 354.632 114.757C354.682 115.567 354.532 116.717 354.012 117.197C348.952 121.887 343.262 125.597 336.612 127.657C330.302 129.607 327.152 137.067 330.062 143.077C332.842 148.827 337.062 153.387 341.592 157.777C345.012 161.087 349.622 163.407 350.542 168.907C350.822 170.597 352.682 171.777 354.762 171.377C356.412 171.067 358.052 170.687 359.642 170.157C363.782 168.777 367.942 167.407 372.002 165.817C377.012 163.857 381.962 161.737 386.872 159.547C387.562 159.237 388.152 158.187 388.362 157.367C389.522 152.757 385.862 148.457 380.712 148.257C379.392 148.207 378.072 148.137 376.752 148.067C376.662 147.757 376.572 147.447 376.482 147.137C378.562 145.807 380.602 144.387 382.732 143.147C389.772 139.047 395.532 134.027 396.472 125.227C396.772 122.407 395.862 120.307 393.152 119.607C391.402 119.157 389.352 118.887 387.662 119.357C379.312 121.697 371.012 124.217 362.762 126.887C359.302 128.007 355.952 129.537 352.672 131.127C351.262 131.807 349.212 132.697 350.012 134.807C350.492 136.077 351.752 137.547 352.982 137.967C358.312 139.777 363.772 141.087 369.512 140.107C370.492 139.937 371.532 140.087 372.542 140.087C372.642 140.357 372.732 140.637 372.832 140.907C369.532 143.617 366.222 146.317 362.922 149.037C361.082 150.557 359.852 149.957 358.552 148.167C357.192 146.297 355.742 144.347 353.912 143.007C350.622 140.607 346.982 138.687 343.552 136.467C342.712 135.927 342.112 135.007 341.222 134.067C346.702 131.407 351.732 128.967 356.772 126.557C357.172 126.367 357.702 126.467 358.162 126.377C364.492 125.017 370.232 122.457 375.172 118.187C378.632 115.197 382.142 112.257 385.692 109.367C388.022 107.477 389.542 103.747 388.562 101.747C387.062 98.6766 384.672 96.8366 381.202 96.4766C380.372 96.3866 379.572 96.0166 378.232 95.6166C381.622 90.8166 384.652 86.4566 387.772 82.1566C388.942 80.5466 389.912 79.1566 388.392 77.1566C386.662 74.8966 384.542 74.2366 382.032 75.3166C375.512 78.1266 369.062 81.0866 362.572 83.9566C361.742 84.3266 360.862 84.5566 360.002 84.8566C359.902 84.6066 359.802 84.3666 359.702 84.1166C362.542 82.3666 365.332 80.5266 368.242 78.8766C373.112 76.1166 378.482 74.0366 382.862 70.6566C388.762 66.1066 393.882 60.5666 399.402 55.5066C401.052 53.9966 400.912 52.3266 400.022 50.6666L400.002 50.7066Z" fill="white"/>
<path d="M325.002 162.287C324.382 162.647 324.232 163.047 324.102 163.447C322.372 169.077 320.812 174.767 318.882 180.337C317.022 185.717 314.532 187.177 309.512 184.817C303.812 182.147 298.242 178.907 293.242 175.107C285.452 169.177 280.762 160.527 275.172 152.687C271.092 146.977 265.732 142.617 258.302 143.247C249.672 143.977 241.092 145.457 232.532 146.817C229.502 147.297 226.562 148.377 222.832 149.377C223.592 148.077 223.812 147.467 224.222 147.027C227.472 143.597 230.742 140.187 234.032 136.787C235.852 134.917 237.622 132.977 239.602 131.287C241.122 129.997 243.312 129.377 244.542 127.907C246.002 126.157 246.852 123.987 249.682 124.157C250.012 124.177 250.352 123.377 250.742 123.007C251.242 122.527 251.762 122.047 252.322 121.627C255.422 119.317 258.582 117.087 261.622 114.707C264.322 112.597 266.892 110.317 269.542 108.137C269.702 108.007 270.042 108.077 270.262 108.057V110.067C270.522 110.147 270.782 110.237 271.042 110.317C271.962 108.217 272.882 106.117 273.962 103.657C276.132 105.847 277.382 104.927 278.462 103.127C278.782 102.597 279.222 102.097 279.702 101.697C282.972 99.0166 286.292 96.3966 289.552 93.7066C293.232 90.6766 296.992 87.7266 300.512 84.5166C303.462 81.8166 306.582 79.1166 308.812 75.8566C312.812 70.0066 315.402 63.3966 317.432 56.5666C318.522 52.9166 320.342 49.4866 321.402 45.8266C323.132 39.8666 321.632 34.5066 318.092 29.4066C314.632 24.4166 309.642 23.5566 305.922 28.0066C302.592 31.9966 299.262 36.0366 296.362 40.3466C289.182 51.0266 282.442 62.0066 275.152 72.6066C268.022 82.9866 260.532 93.1366 253.002 103.237C248.402 109.417 243.332 115.247 238.662 121.377C233.512 128.147 228.502 135.027 223.592 141.967C221.712 144.627 220.152 147.547 218.652 150.447C218.152 151.417 217.752 153.107 219.882 152.957C222.382 152.777 224.902 152.537 227.352 152.017C235.792 150.207 244.312 150.097 252.832 150.897C257.672 151.357 262.182 152.977 265.412 156.917C267.492 159.447 269.332 162.177 271.362 164.747C274.492 168.717 277.462 172.837 280.902 176.517C288.192 184.317 297.422 188.957 307.562 191.907C311.602 193.087 315.762 193.707 319.632 191.697C321.272 190.847 322.972 189.107 323.542 187.407C324.672 184.047 325.592 180.677 324.542 176.787C323.762 173.907 324.822 170.527 324.982 167.367C325.072 165.657 325.002 163.937 325.002 162.227V162.287Z" fill="white"/>
<path d="M265.142 115.557C266.522 114.377 267.902 113.207 269.282 112.027C268.922 111.637 268.572 111.247 268.212 110.867C266.882 112.117 265.552 113.377 264.212 114.627C264.522 114.937 264.832 115.247 265.142 115.557Z" fill="white"/>
<path d="M16.4716 157.377C16.6416 157.307 16.8616 157.287 16.9816 157.167C22.4816 151.727 27.8716 146.157 33.5116 140.847C38.9416 135.737 44.7416 131.037 50.1516 125.907C52.9516 123.247 55.1916 120.007 57.8016 117.137C59.5016 115.267 59.8316 113.157 58.5016 111.267C56.6916 108.707 55.2616 105.517 51.2016 105.547C44.9216 105.587 38.9216 107.257 33.4516 109.847C28.6916 112.107 24.6616 115.927 20.3116 119.047C18.5516 120.307 19.2016 121.137 20.6216 122.227C25.3916 125.907 30.1716 122.747 34.8116 122.107C38.1816 121.647 41.3416 119.697 44.7516 118.357C45.0016 118.987 45.4116 119.517 45.2816 119.777C38.1516 134.237 26.3316 145.077 16.4816 157.377H16.4716Z" fill="white"/>
<path d="M231.692 176.957C228.622 172.217 223.972 170.137 219.332 168.267C219.162 168.127 216.492 167.627 216.272 167.607L208.352 166.977C208.352 166.977 208.252 166.977 208.202 166.957L186.492 163.767L183.422 163.477C182.672 163.357 181.922 163.237 181.142 163.117C181.142 163.167 181.162 163.217 181.172 163.267L179.112 163.067C179.112 163.067 179.132 163.047 179.142 163.047C178.882 163.027 178.612 163.017 178.342 162.997L176.972 162.867C176.972 162.867 176.242 162.837 175.282 162.817C174.272 162.757 173.222 162.697 172.062 162.627C172.082 162.667 172.092 162.697 172.112 162.737C170.482 162.697 169.062 162.657 169.002 162.667L164.342 162.787C158.682 162.597 153.072 162.117 147.612 160.307C141.782 158.377 136.912 155.027 133.922 149.767C129.862 142.627 124.602 136.767 117.732 132.367C112.702 129.147 107.492 126.217 103.562 121.527C102.692 120.497 101.342 119.877 100.392 119.197C101.392 118.347 102.642 117.277 103.402 116.627C104.962 116.627 106.182 116.957 107.062 116.557C109.252 115.567 111.402 114.397 113.372 113.017C118.642 109.347 123.662 105.287 129.052 101.817C140.332 94.5566 148.522 85.0766 152.022 71.8766C152.702 69.2966 151.902 67.2166 149.972 65.9966C149.082 65.4366 146.822 65.9766 145.872 66.8066C142.732 69.5566 139.922 72.6666 136.972 75.6266C131.892 80.7366 126.662 85.6966 121.782 90.9866C117.122 96.0466 112.672 101.327 108.452 106.757C106.482 109.287 104.522 111.287 101.192 111.027C100.382 110.967 99.0416 110.017 98.9816 109.377C98.5416 104.587 98.4116 99.7666 98.0816 94.9566C97.8816 92.1066 97.6216 89.2466 97.1416 86.4366C96.5316 82.8466 95.1416 79.3166 95.0216 75.7366C94.8016 69.3466 97.7216 63.8766 101.372 58.7866C102.502 57.1966 103.552 55.5266 104.442 53.7966C106.212 50.3266 107.892 46.8066 109.492 43.2566C109.842 42.4766 109.972 41.3766 109.682 40.6266C109.512 40.1966 108.192 39.8766 107.542 40.0566C104.952 40.7766 105.012 39.4466 105.102 37.5166C105.222 35.0266 105.662 32.2366 104.752 30.0766C101.192 21.5866 96.3616 13.8366 88.1916 9.00663C82.9916 5.93663 77.5216 3.25663 72.0016 0.786635C67.9916 -1.00337 66.1216 0.256634 65.4116 4.61663C65.1416 6.26663 64.9316 7.98663 65.0816 9.63663C65.8516 18.1666 67.6616 26.4666 72.2816 33.7966C73.9816 36.4966 77.1616 38.3066 78.7016 41.0666C80.5516 44.3866 83.2116 45.1366 86.4416 45.5166C88.5516 45.7666 90.6416 46.1766 92.8416 46.5366C92.5516 47.2966 92.5416 47.5366 92.4216 47.6366C88.0916 50.8166 83.7116 53.9166 79.4416 57.1666C74.9116 60.6066 70.5316 64.2266 66.0116 67.6866C62.7516 70.1766 59.5016 72.7166 56.0116 74.8666C52.9416 76.7666 49.5316 78.1066 46.3316 79.8066C45.7116 80.1366 44.9116 81.0466 44.9916 81.5566C45.0816 82.1366 46.0516 82.9366 46.7016 82.9866C49.8516 83.2466 53.0716 83.6766 56.1716 83.3266C65.5816 82.2566 73.7016 77.9566 81.3516 72.6166C83.8416 70.8766 86.3716 69.1966 89.2116 67.2766C89.3816 68.2366 89.6216 68.9166 89.6116 69.6066C89.5216 78.9666 89.2116 88.3366 89.4016 97.6966C89.4616 100.647 88.4616 102.557 86.3916 104.127C85.3816 104.897 84.0816 105.317 82.8616 105.767C77.8116 107.667 76.4816 111.087 78.7116 115.937C79.0616 116.707 78.7716 118.317 78.1616 118.887C73.6016 123.167 68.9916 127.417 64.1916 131.427C58.1016 136.507 51.7216 141.237 45.6216 146.317C35.1316 155.057 24.8516 164.057 14.3016 172.727C11.1516 175.317 7.38159 177.157 3.90159 179.337C3.72159 179.137 3.54159 178.937 3.36159 178.737C5.06159 175.727 6.77159 172.707 8.47159 169.697C8.18159 169.527 7.89159 169.357 7.59159 169.187C5.11159 173.577 2.52159 177.907 0.231594 182.397C-0.508406 183.847 0.621594 185.227 2.25159 184.697C4.77159 183.867 7.30159 182.797 9.50159 181.337C13.1616 178.907 16.6116 176.157 20.0516 173.427C26.5516 168.277 33.1416 163.217 39.4216 157.817C49.2516 149.367 58.9116 140.707 68.5616 132.047C72.4916 128.517 76.2816 124.817 79.9916 121.057C81.8516 119.167 83.3316 118.797 84.7316 121.057C85.8716 122.897 86.3216 125.287 86.6116 127.487C87.2016 131.917 87.0316 136.497 88.0116 140.827C88.9116 144.837 89.1516 148.697 88.8816 152.767C88.4716 159.007 86.4716 165.417 90.1616 171.447C90.5016 171.997 89.9416 173.107 89.7216 174.387C87.5916 173.237 85.7416 172.497 84.1916 171.367C77.6616 166.607 73.4816 159.887 69.2016 153.177C70.8516 157.947 72.7116 162.597 74.7516 167.167C76.4916 171.067 78.4516 174.867 80.2616 178.747C81.9816 182.417 82.8016 186.627 86.9316 188.727C89.3716 189.967 94.8616 187.897 95.3816 185.297C95.4816 184.807 97.5216 183.097 97.8816 181.207C98.7216 176.847 99.3716 172.477 97.3716 168.277C94.8116 162.907 94.6716 157.237 94.6516 151.447C94.6416 147.277 93.6416 143.117 93.4616 138.937C93.3116 135.297 93.6916 131.647 93.8716 127.197C98.6816 129.607 102.592 131.457 106.392 133.497C109.252 135.037 112.272 136.497 114.702 138.597C118.942 142.257 122.552 146.507 125.132 151.567C125.842 153.017 126.612 154.367 126.592 154.127C127.092 154.847 127.632 155.537 128.182 156.237L128.342 156.447C128.342 156.447 128.392 156.527 128.422 156.567C129.052 157.767 129.802 158.847 130.612 159.817C130.582 159.947 130.552 160.077 130.512 160.217C130.992 160.557 131.472 160.917 131.952 161.287C133.592 162.927 135.312 164.137 136.712 164.897C138.252 166.007 139.862 167.057 141.572 167.917C144.912 169.587 147.552 170.357 151.252 171.327C152.242 171.587 154.162 172.247 154.892 172.947C156.382 174.377 157.922 176.007 159.642 176.717C163.772 178.427 168.232 179.877 172.762 178.417C174.682 177.797 177.132 177.717 178.442 176.317L181.462 175.327C181.602 175.357 181.742 175.377 181.872 175.357C182.362 175.257 182.952 175.007 183.452 174.677L183.902 174.527C184.032 174.487 184.172 174.467 184.302 174.467C185.292 174.517 189.292 174.797 189.982 174.857C190.052 174.857 190.112 174.877 190.172 174.887L192.112 175.397H192.172C193.262 175.777 194.342 176.157 195.362 176.087L199.452 176.957C199.452 176.957 206.812 178.717 206.852 178.727C213.792 179.457 220.752 180.097 227.712 180.627C227.742 180.627 227.772 180.627 227.812 180.627C228.952 180.677 230.132 180.187 231.282 179.957C231.282 179.927 231.282 179.897 231.272 179.857C232.532 179.397 233.502 178.777 232.892 178.067L231.682 176.957H231.692ZM132.102 152.907C132.162 152.907 132.222 152.897 132.272 152.897C132.272 152.927 132.252 152.957 132.252 152.997L132.102 152.917V152.907Z" fill="white"/>
</svg>
