<?xml version="1.0" encoding="UTF-8"?>
<svg id="_圖層_2" data-name="圖層 2" xmlns="http://www.w3.org/2000/svg" viewBox="0 0 22.17 22.19">
  <defs>
    <style>
      .cls-1 {
        fill: #9fa0a0;
      }
    </style>
  </defs>
  <g id="_圖層_3_拷貝" data-name="圖層 3 拷貝">
    <path class="cls-1" d="M17.71,22.19h-3.99c-.38-.14-.52-.42-.52-.83,.01-1.65,0-3.3,0-4.96,0-.74-.45-1.18-1.19-1.18-.61,0-1.23,0-1.84,0-.8,0-1.23,.43-1.23,1.23,0,1.64,0,3.27,0,4.91,0,.4-.13,.68-.52,.83h-3.99s-.04-.03-.06-.03c-1.03-.13-2.06-1.09-2.04-2.5,.03-2.09,0-4.17,0-6.26,0-.08,0-.17,0-.23-.31-.04-.6-.04-.86-.11-1.55-.41-2.02-2.3-.86-3.46C3.62,6.62,6.61,3.64,9.59,.66c.13-.13,.27-.25,.42-.34,.83-.53,1.85-.38,2.6,.37,2.86,2.86,5.71,5.72,8.58,8.57,.46,.46,.87,.92,.99,1.58v.52s-.03,.06-.04,.1c-.2,1.01-1,1.67-2.02,1.68-.1,0-.21,0-.33,0,0,.12,0,.21,0,.29,0,2.14,0,4.29,0,6.43,0,1.02-.7,1.92-1.67,2.22-.14,.04-.27,.08-.41,.11Z"/>
  </g>
</svg>