<svg width="175" height="101" viewBox="0 0 175 101" fill="none" xmlns="http://www.w3.org/2000/svg">
<path d="M0 92.98L8.75 84.16C12.86 90.47 18.24 93.63 24.9 93.63C31.56 93.63 37.23 90.98 42.83 85.69C48.43 80.39 55.12 71 62.9 57.51L90.85 9.21C86.14 8.65 82.1 8.37 78.72 8.37C69.68 8.37 62.71 10.63 57.81 15.15C52.9 19.67 50.45 26.13 50.45 34.53L37.74 40.83C38.56 32.69 40.83 25.97 44.55 20.64C48.66 14.71 53.5 10.49 59.08 7.98C64.66 5.47 72.74 3.85 83.33 3.11C85.45 2.98 88.65 2.74 92.93 2.4L106.16 0L107 21.61L110.76 66.45C111.62 76.88 112.85 83.75 114.42 87.05C116 90.36 118.84 92.01 122.95 92.01C123.68 92.01 126.21 91.88 130.54 91.62L129.7 95.9L99.93 100.83L97.27 68.86H61.93C55.1 80.71 48.64 89 42.54 93.73C36.44 98.46 29.18 100.83 20.75 100.83C12.32 100.83 5.83 98.21 0 92.98ZM64.72 64.06H96.82L92.67 15.31L64.72 64.06Z" fill="#F7F8B8"/>
<path d="M133.14 98.4299L134.89 94.4699H139.43C143.41 94.4699 145.87 93.8499 146.82 92.6199C147.77 91.3899 149.05 87.1099 150.65 79.7799L157.07 47.3499C157.98 42.6699 158.43 39.5099 158.43 37.8599C158.43 35.8699 156.53 34.7199 152.72 34.4199L146.82 33.9599L146.76 29.9999L174.84 26.4299L169.91 47.1999L163.56 79.2699C162.26 86.0599 161.61 89.7599 161.61 90.3699C161.61 93.0999 163.47 94.4599 167.19 94.4599H172.96L173.15 98.4199H133.14V98.4299Z" fill="#F7F8B8"/>
</svg>
