<svg width="198" height="101" viewBox="0 0 198 101" fill="none" xmlns="http://www.w3.org/2000/svg">
<path d="M0 92.98L8.75 84.16C12.86 90.47 18.24 93.63 24.9 93.63C31.56 93.63 37.23 90.9801 42.83 85.6901C48.43 80.3901 55.12 71 62.9 57.51L90.85 9.21008C86.14 8.65008 82.1 8.37 78.72 8.37C69.68 8.37 62.71 10.63 57.81 15.15C52.9 19.67 50.45 26.13 50.45 34.53L37.74 40.8301C38.56 32.6901 40.83 25.97 44.55 20.64C48.66 14.71 53.5 10.49 59.08 7.97998C64.66 5.46998 72.74 3.84999 83.33 3.10999C85.45 2.97999 88.65 2.74002 92.93 2.40002L106.16 0L107 21.61L110.76 66.4501C111.62 76.8801 112.85 83.75 114.42 87.05C116 90.36 118.84 92.01 122.95 92.01C123.68 92.01 126.21 91.88 130.54 91.62L129.7 95.9L99.93 100.83L97.27 68.86H61.93C55.1 80.71 48.64 89 42.54 93.73C36.44 98.46 29.18 100.83 20.75 100.83C12.32 100.83 5.83 98.21 0 92.98ZM64.72 64.0601H96.82L92.67 15.3101L64.72 64.0601Z" fill="#F7F8B8"/>
<path d="M131.51 98.4299L135.01 88.0499C167.52 70.6699 183.78 56.01 183.78 44.08C183.78 40.23 182.41 36.99 179.66 34.35C176.91 31.71 173.53 30.3899 169.51 30.3899C159.09 30.3899 152.52 35.1899 149.8 44.7899H145.84L147.85 29.9399C156.97 27.6099 164.78 26.4399 171.26 26.4399C179.3 26.4399 185.69 27.9599 190.42 31.0099C195.15 34.0599 197.52 38.1499 197.52 43.2999C197.52 48.8299 195.29 53.6499 190.84 57.7599C186.39 61.8699 175.75 68.89 158.93 78.84L143.24 88.0499H192.2L188.11 98.4299H131.5H131.51Z" fill="#F7F8B8"/>
</svg>
