<svg width="194" height="120" viewBox="0 0 194 120" fill="none" xmlns="http://www.w3.org/2000/svg">
<path d="M0 92.98L8.75 84.1602C12.86 90.4702 18.24 93.6301 24.9 93.6301C31.56 93.6301 37.23 90.9799 42.83 85.6899C48.43 80.3899 55.12 71 62.9 57.51L90.85 9.20996C86.14 8.64996 82.1 8.37012 78.72 8.37012C69.68 8.37012 62.71 10.6301 57.81 15.1501C52.9 19.6701 50.45 26.13 50.45 34.53L37.74 40.8301C38.56 32.6901 40.83 25.9701 44.55 20.6401C48.66 14.7101 53.5 10.49 59.08 7.97998C64.66 5.46998 72.74 3.85011 83.33 3.11011C85.45 2.98011 88.65 2.74015 92.93 2.40015L106.16 0L107 21.6101L110.76 66.45C111.62 76.88 112.85 83.75 114.42 87.05C116 90.36 118.84 92.01 122.95 92.01C123.68 92.01 126.21 91.8801 130.54 91.6201L129.7 95.9001L99.93 100.83L97.27 68.8601H61.93C55.1 80.7101 48.64 89 42.54 93.73C36.44 98.46 29.18 100.83 20.75 100.83C12.32 100.83 5.83 98.21 0 92.98ZM64.72 64.0601H96.82L92.67 15.3101L64.72 64.0601Z" fill="#F7F8B8"/>
<path d="M126 114.05L134.5 105.43C141.07 111.44 147.77 114.44 154.6 114.44C160.26 114.44 165.13 112.47 169.19 108.54C173.25 104.61 175.29 99.92 175.29 94.47C175.29 88.5 172.83 83.6502 167.9 79.9102C162.97 76.1702 156.57 74.3 148.7 74.3C147.32 74.3 145.52 74.4299 143.32 74.6899L147.86 64.7C151.79 64.7 155.58 64.8501 159.21 65.1501C165.35 63.6401 170.45 60.8601 174.51 56.8201C178.57 52.7801 180.61 48.51 180.61 44.01C180.61 40.03 179.25 36.77 176.52 34.22C173.8 31.67 170.29 30.3901 166.01 30.3901C156.15 30.3901 149.97 35.19 147.46 44.79H143.44L145.58 30.26C154.92 27.71 162.96 26.4299 169.7 26.4299C176.79 26.4299 182.49 27.78 186.79 30.48C191.09 33.18 193.24 36.76 193.24 41.21C193.24 50.77 184.42 59.1699 166.78 66.4399C180.18 70.5899 186.88 78.18 186.88 89.2C186.88 97.2 183.17 104.2 175.76 110.21C168.34 116.22 159.67 119.22 149.72 119.22C141.51 119.22 133.59 117.49 125.99 114.03L126 114.05Z" fill="#F7F8B8"/>
</svg>
