<?xml version="1.0" encoding="UTF-8"?>
<svg id="_圖層_2" data-name="圖層 2" xmlns="http://www.w3.org/2000/svg" viewBox="0 0 234.5 204.06">
  <defs>
    <style>
      .cls-1 {
        fill: #f7f8b8;
      }

      .cls-2 {
        fill: #6a3906;
      }
    </style>
  </defs>
  <g id="_字" data-name="字">
    <g>
      <path class="cls-2" d="M232.12,88.86h-37.62v-1.12h18.11v-9.21h-13.68v-1.15h29.34v1.15h-14.43v9.21h18.29v1.12Zm-36.35-13.79l-.32-1.04c8.64-1.55,11.37-5.15,12.2-11.16h-10.87v5.29h-1.15v-6.44h16.99v-4.18h1.22v4.18h17.28v5.51h-1.15v-4.36h-11.45v8.46c0,.72,.36,.9,3.74,.9h4.14c2.92,0,3.24-.47,3.35-3.06l1.15,.14c-.18,3.17-.65,4.07-4.39,4.07h-4.14c-4.21,0-5-.4-5-2.05v-8.46h-8.46c-.9,6.59-3.89,10.4-13.14,12.2Z"/>
      <path class="cls-2" d="M197.49,128.14h-1.19v-30.92h14.43v11.66h-13.25v19.26Zm12.09-25.74v-4.07h-12.09v4.07h12.09Zm0,5.36v-4.28h-12.09v4.28h12.09Zm11.23,17.35h-15.3v-13.1h15.3v13.1Zm-1.12-7.49v-4.46h-13.03v4.46h13.03Zm0,6.37v-5.29h-13.03v5.29h13.03Zm3.71,4.07h-1.08l-.11-1.22c2.74,.04,5.36,0,6.12-.04,.68-.04,.97-.22,.97-.83v-17.1h-13.61v-11.66h14.79v28.76c0,1.08-.36,1.69-1.4,1.91-.9,.14-2.74,.18-5.69,.18Zm5.9-25.67v-4.07h-12.45v4.07h12.45Zm0,5.36v-4.28h-12.45v4.28h12.45Z"/>
      <path class="cls-2" d="M194.9,165.72l-.68-.97c6.01-3.82,7.38-10.4,7.63-15.48h-7.77v-1.15h7.81c.04-.68,.04-1.44,.04-2.09v-5.04h-6.77v-1.12h6.77v-6.01h1.19v6.01h6.66v1.12h-6.66v7.13h7.63v1.15h-7.67c-.04,.79-.14,1.58-.25,2.38l-.07,.36c-.04,.18-.04,.32-.07,.5,1.73,1.44,6.62,6.08,7.7,7.16l-.83,.97c-1.12-1.3-4.93-5.22-6.95-7.02-.83,4.18-2.99,8.93-7.7,12.09Zm12.63,.25l-.43-.97c6.48-1.69,8.89-5.76,9.68-10.69h-4.1v-19.26h17.49v19.26h-5.54v9.18c0,.68,.22,.83,2.23,.83h2.3c1.98,0,2.27-.83,2.34-5.18l1.15,.14c-.14,4.79-.47,6.19-3.38,6.19h-2.41c-2.88,0-3.46-.43-3.46-2.02v-9.14h-5.33c-.94,5.47-3.53,9.68-10.55,11.66Zm21.49-24.94v-4.82h-15.15v4.82h15.15Zm0,6.05v-4.93h-15.15v4.93h15.15Zm0,6.16v-5.08h-15.15v5.08h15.15Z"/>
      <path class="cls-2" d="M218.01,201.83l-.4,.04h-.18l-.4,.04-.58,.04h-.4c-.14,0-.29,.04-.4,.04h-.4l-.22,.04h-.58l-.4,.04c-.79,.04-1.58,.07-2.38,.11l-.4,.04c-1.12,.07-2.2,.11-3.31,.18h-.36l-.22,.04h-.36c-.22,0-.4,.04-.58,.04l-.4,.04c-4.57,.22-8.82,.47-11.95,.61l-.14-1.15c3.64-.18,8.89-.47,14.65-.76h.36c.32-.04,.68-.04,1.01-.07h.58l.4-.04h.22l.4-.04h.4l.4-.04,.61-.04h.4l.79-.07h.43c.47-.04,.94-.04,1.4-.07l.4-.04,1.62-.07,.4-.04h.4l-.04,1.12c-.25,.04-.54,.04-.79,.04Zm.54-12.89h-24.19v-1.15h11.41v-2.16h-9.25v-1.12h9.25v-2.02h-8.75v-1.15h8.75v-2.59h-11.66v-1.12h11.66v-2.3h-8.57v-1.15h8.57v-2.63h1.19v2.63h8.89v3.46h3.06v1.12h-3.06v3.74h-8.89v2.02h9.61v1.12h-9.61v2.16h11.59v1.15Zm-2.99,9.9h-18.07v-7.88h18.07v7.88Zm-9.61-4.5v-2.27h-7.31v2.27h7.31Zm0,3.38v-2.3h-7.31v2.3h7.31Zm8.71-20.09v-2.3h-7.7v2.3h7.7Zm0,3.71v-2.59h-7.7v2.59h7.7Zm-.25,12.99v-2.27h-7.31v2.27h7.31Zm0,3.38v-2.3h-7.31v2.3h7.31Zm7.85-2.45h-1.19v-19.62h1.19v19.62Zm.61,8.75l-.11-1.04h5.44c.72-.04,1.01-.22,1.01-.83v-30.06h1.19v30.02c0,1.08-.47,1.58-1.33,1.76-.86,.18-2.63,.22-6.19,.14Z"/>
    </g>
    <g>
      <path class="cls-1" d="M6.58,5.78v13.88H24.22c.83,0,1.42-.13,1.77-.39,.35-.26,.61-.76,.79-1.52h.95v7.68h-.95c-.18-.75-.44-1.26-.79-1.52-.35-.26-.94-.39-1.77-.39H6.58v15.52c0,.83,.12,1.42,.37,1.76,.25,.34,.76,.61,1.53,.8v.95H0v-.95c.75-.2,1.26-.47,1.52-.8,.26-.34,.39-.92,.39-1.76V5.42c0-.83-.13-1.42-.39-1.77-.26-.35-.76-.61-1.52-.79v-.95H33.06c.83,0,1.42-.13,1.77-.38,.35-.25,.61-.76,.79-1.52h.95V7.68h-.95c-.18-.77-.44-1.28-.79-1.53-.35-.25-.94-.38-1.77-.38H6.58Z"/>
      <path class="cls-1" d="M50.07,38.69h25.97c.83,0,1.42-.13,1.77-.39,.35-.26,.61-.76,.79-1.52h.95v7.68h-.95c-.18-.75-.44-1.26-.79-1.52-.35-.26-.94-.39-1.77-.39H43.49v-.95c.77-.2,1.29-.47,1.53-.8,.25-.34,.37-.92,.37-1.76V5.42c0-.83-.13-1.42-.39-1.76-.26-.34-.76-.61-1.52-.8v-.95h8.49v.95c-.75,.2-1.26,.47-1.52,.8-.26,.34-.39,.92-.39,1.76V38.69Z"/>
      <path class="cls-1" d="M106.27,1.19c7.17,0,12.95,1.88,17.33,5.63,2.46,2.08,4.31,4.64,5.54,7.65,1.01,2.48,1.52,5.15,1.52,8.01,0,3.87-1.1,7.5-3.31,10.87-2.42,3.73-5.79,6.42-10.1,8.07-3.22,1.23-6.86,1.85-10.93,1.85-7.13,0-12.88-1.88-17.25-5.63-2.44-2.1-4.29-4.66-5.54-7.65-1.01-2.46-1.52-5.05-1.52-7.77,0-4.03,1.09-7.74,3.28-11.14,2.38-3.67,5.76-6.35,10.13-8.04,3.06-1.17,6.67-1.79,10.84-1.85Zm0,4.08c-6.1,0-10.92,1.71-14.48,5.12-3.26,3.14-4.88,7.08-4.88,11.82s1.63,8.72,4.88,11.85c3.53,3.42,8.38,5.12,14.54,5.12s11.04-1.71,14.59-5.12c3.24-3.14,4.85-7.01,4.85-11.62,0-4.98-1.62-9-4.85-12.06-1.95-1.83-4.03-3.11-6.25-3.84-2.46-.83-5.26-1.26-8.4-1.28Z"/>
      <path class="cls-1" d="M161.82,1.19c7.17,0,12.95,1.88,17.33,5.63,2.46,2.08,4.31,4.64,5.54,7.65,1.01,2.48,1.52,5.15,1.52,8.01,0,3.87-1.1,7.5-3.31,10.87-2.42,3.73-5.79,6.42-10.1,8.07-3.22,1.23-6.86,1.85-10.93,1.85-7.13,0-12.88-1.88-17.25-5.63-2.44-2.1-4.29-4.66-5.54-7.65-1.01-2.46-1.52-5.05-1.52-7.77,0-4.03,1.09-7.74,3.28-11.14,2.38-3.67,5.76-6.35,10.13-8.04,3.06-1.17,6.67-1.79,10.84-1.85Zm0,4.08c-6.1,0-10.92,1.71-14.48,5.12-3.26,3.14-4.88,7.08-4.88,11.82s1.63,8.72,4.88,11.85c3.53,3.42,8.38,5.12,14.54,5.12s11.04-1.71,14.59-5.12c3.24-3.14,4.85-7.01,4.85-11.62,0-4.98-1.62-9-4.85-12.06-1.95-1.83-4.03-3.11-6.25-3.84-2.46-.83-5.26-1.26-8.4-1.28Z"/>
      <path class="cls-1" d="M200.72,24.27v14.78c0,.81,.13,1.39,.39,1.74,.26,.35,.76,.62,1.52,.82v.95h-8.49v-.95c.75-.2,1.26-.47,1.52-.8,.26-.34,.39-.92,.39-1.76V5.42c0-.83-.13-1.42-.39-1.77-.26-.35-.76-.61-1.52-.79v-.95h22.31c3.06,0,5.47,.16,7.25,.49s3.32,.9,4.63,1.71c1.35,.84,2.44,1.98,3.28,3.43,.95,1.65,1.43,3.51,1.43,5.58,0,3.1-1.03,5.63-3.08,7.59-2.05,1.96-4.88,3.08-8.47,3.35l10.34,16.06c.62,.99,1.51,1.49,2.68,1.49v.95h-9.41v-.95c.97-.16,1.46-.44,1.46-.83,0-.2-.35-.84-1.04-1.93l-9.24-14.57h-15.54Zm0-3.87h16.47c2.24,0,3.94-.09,5.08-.28,1.14-.19,2.15-.53,3.02-1.03,2.04-1.19,3.07-3.19,3.07-5.99s-1.05-4.83-3.16-6.02c-.93-.52-1.97-.86-3.11-1.04s-2.91-.27-5.32-.27h-16.05v14.62Z"/>
      <path class="cls-1" d="M6.58,83.27v15.16c0,.62,.14,1.08,.42,1.4,.28,.32,.78,.58,1.49,.77v.95H0v-.95c.71-.2,1.21-.46,1.49-.77,.28-.32,.42-.78,.42-1.4v-34.43c0-.6-.14-1.05-.42-1.37-.28-.32-.77-.58-1.49-.77v-.95H21.39c3,0,5.33,.16,7,.48,1.67,.32,3.16,.89,4.47,1.73,1.37,.83,2.47,1.98,3.31,3.43,.93,1.63,1.4,3.46,1.4,5.48,0,2.78-.85,5.16-2.56,7.15-1.31,1.53-2.97,2.6-4.99,3.2-2.02,.61-4.89,.91-8.62,.91H6.58Zm0-3.87h15.25c2.26,0,3.95-.09,5.05-.27,1.1-.18,2.09-.53,2.96-1.04,2.03-1.19,3.04-3.19,3.04-5.99s-1.01-4.83-3.04-6.02c-.87-.52-1.86-.86-2.95-1.04-1.09-.18-2.78-.27-5.06-.27H6.58v14.62Z"/>
      <path class="cls-1" d="M50.64,97.69h25.97c.83,0,1.42-.13,1.77-.39,.35-.26,.61-.76,.79-1.52h.95v7.68h-.95c-.18-.75-.44-1.26-.79-1.52-.35-.26-.94-.39-1.77-.39H44.05v-.95c.77-.2,1.29-.47,1.53-.8,.25-.34,.37-.92,.37-1.76v-33.63c0-.83-.13-1.42-.39-1.76-.26-.34-.76-.61-1.52-.8v-.95h8.49v.95c-.75,.2-1.26,.47-1.52,.8-.26,.34-.39,.92-.39,1.76v33.27Z"/>
      <path class="cls-1" d="M117.13,90.16h-21.75l-3.58,7.71c-.34,.73-.51,1.25-.51,1.55,0,.6,.59,.99,1.76,1.19v.95h-9.07v-.95c.81-.14,1.43-.44,1.86-.89,.43-.46,.99-1.45,1.68-2.98l14.89-32.14c.36-.77,.54-1.3,.54-1.58,0-.52-.49-.9-1.46-1.16v-.95h9.89v.95c-.97,.32-1.46,.73-1.46,1.25,0,.22,.18,.71,.54,1.49l14.27,30.98c1.05,2.28,1.75,3.62,2.08,4.02,.34,.4,1.07,.73,2.2,1.01v.95h-9.65v-.95c1.16-.16,1.73-.6,1.73-1.31,0-.32-.22-.93-.66-1.85l-3.33-7.3Zm-1.72-3.87l-9.16-20.09-9.14,20.09h18.3Z"/>
      <path class="cls-1" d="M139.42,66.06v31.99c0,.81,.13,1.4,.39,1.74,.26,.35,.76,.62,1.52,.82v.95h-8.07v-.95c.77-.2,1.29-.47,1.53-.8,.25-.34,.37-.92,.37-1.76v-33.63c0-.83-.13-1.42-.39-1.77-.26-.35-.76-.61-1.52-.79v-.95h11.68v.95c-.93,.32-1.4,.76-1.4,1.34,0,.4,.47,1.14,1.4,2.23l24.51,28.65v-29.67c0-.83-.13-1.42-.39-1.77-.26-.35-.76-.61-1.52-.79v-.95h8.07v.95c-.75,.18-1.26,.44-1.52,.79-.26,.35-.39,.94-.39,1.77v33.63c0,.83,.13,1.42,.39,1.76,.26,.34,.76,.61,1.52,.8v.95h-9.39v-.95c.91-.24,1.37-.65,1.37-1.22,0-.44-.42-1.15-1.25-2.14l-26.92-31.19Z"/>
    </g>
  </g>
</svg>