<svg width="42" height="59" viewBox="0 0 42 59" fill="none" xmlns="http://www.w3.org/2000/svg">
<path d="M41.52 20.7399C41.52 31.9499 24.75 58.2999 21.22 58.2999C17.69 58.2999 0.919922 31.9499 0.919922 20.7399C0.919922 9.52993 10.01 0.439941 21.22 0.439941C32.43 0.439941 41.52 9.52993 41.52 20.7399Z" fill="#E60012"/>
<mask id="mask0_27_117870" style="mask-type:luminance" maskUnits="userSpaceOnUse" x="0" y="0" width="42" height="59">
<path d="M41.52 20.7399C41.52 31.9499 24.75 58.2999 21.22 58.2999C17.69 58.2999 0.919922 31.9499 0.919922 20.7399C0.919922 9.52993 10.01 0.439941 21.22 0.439941C32.43 0.439941 41.52 9.52993 41.52 20.7399Z" fill="white"/>
</mask>
<g mask="url(#mask0_27_117870)">
<path d="M41.5198 -0.439941H21.2197V58.67H41.5198V-0.439941Z" fill="#FF364E"/>
</g>
</svg>
