<svg width="207" height="21" viewBox="0 0 207 21" fill="none" xmlns="http://www.w3.org/2000/svg">
<path d="M140.73 13.3399C141.33 13.0999 141.95 12.8499 142.58 12.6099L142.73 13.3699L138.07 15.2099L137.8 14.3799C138.4 14.1799 139.13 13.9199 139.94 13.6199V7.18994H137.95V6.42994H139.94V2.38994H140.72V6.41994H142.52V7.17994H140.72V13.3299L140.73 13.3399ZM152.15 4.69994V10.1599H143.33V4.70994H148.7C149.24 4.02994 149.92 2.91994 150.25 2.18994L151.08 2.54994C150.62 3.25994 150.08 4.07994 149.58 4.70994H152.15V4.69994ZM144.04 9.48994H147.42V5.36994H144.04V9.49994V9.48994ZM144.24 11.4099H151.29V17.5499H150.51V16.7499H145V17.5499H144.23V11.4099H144.24ZM145.8 4.50994C145.56 3.99994 145.05 3.19994 144.59 2.60994L145.27 2.29994C145.75 2.85994 146.29 3.62994 146.53 4.14994L145.8 4.50994ZM145.32 5.96994C145.88 6.72994 146.44 7.74994 146.65 8.39994L146.05 8.66994C145.86 7.96994 145.34 6.93994 144.78 6.18994L145.32 5.96994ZM145 12.0899V13.8099H150.51V12.0899H145ZM150.51 16.0499V14.4899H145V16.0499H150.51ZM151.41 5.35994H148.11V9.48994H151.41V5.36994V5.35994ZM148.64 8.49994C149.17 7.81994 149.83 6.70994 150.17 5.96994L150.8 6.23994C150.29 7.08994 149.66 8.08994 149.15 8.73994L148.64 8.49994Z" fill="#EB6519"/>
<path d="M160.31 2.45996C159.82 3.81996 159.19 5.19996 158.49 6.41996V17.62H157.71V7.70996C157.17 8.55996 156.57 9.31996 155.98 9.96996C155.9 9.77996 155.62 9.40996 155.49 9.21996C157.12 7.49996 158.64 4.88996 159.57 2.21996L160.32 2.45996H160.31ZM170.95 16.28V17.03H159.61V16.28H161.33V6.67996H164.25C164.39 6.16996 164.52 5.50996 164.66 4.82996H160.33V4.07996H164.8C164.92 3.41996 165.02 2.76996 165.09 2.20996L165.97 2.30996C165.87 2.84996 165.75 3.46996 165.61 4.07996H170.37V4.82996H165.46C165.31 5.50996 165.17 6.15996 165.02 6.67996H169.3V16.28H170.95ZM162.09 7.36996V9.08996H168.53V7.36996H162.09ZM168.53 9.76996H162.09V11.52H168.53V9.76996ZM162.09 13.93H168.53V12.18H162.09V13.93ZM162.09 16.28H168.53V14.61H162.09V16.28Z" fill="#EB6519"/>
<path d="M176.58 12.58C177.26 12.29 177.96 11.99 178.67 11.7L178.82 12.43C177 13.25 175.11 14.08 173.67 14.69L173.35 13.87C174.01 13.62 174.86 13.27 175.8 12.88V7.16997H173.62V6.38997H175.8V2.38997H176.58V6.37997H178.59V7.15997H176.58V12.57V12.58ZM186.78 16.47C187.82 16.47 187.99 15.96 188.12 13.87C188.32 14.02 188.63 14.16 188.87 14.21C188.72 16.5 188.43 17.22 186.76 17.22H182.24C180.52 17.22 180.01 16.85 180.01 15.3V9.36997L178.41 10.05L178.07 9.31997L180.01 8.49997V3.76997H180.79V8.18997L183.59 6.99997V2.21997H184.37V6.68997L187.43 5.39997L188.04 5.61997L187.99 5.78997C187.79 8.19997 187.46 11.35 187 13.22L186.32 13.02C186.68 11.37 186.97 8.57997 187.14 6.35997L184.37 7.52997V13.94H183.59V7.84997L180.79 9.03997V15.33C180.79 16.21 181.04 16.47 182.2 16.47H186.77H186.78Z" fill="#EB6519"/>
<path d="M197.83 13.65C196.35 13.9 194.82 14.18 193.46 14.4V17.44H192.66V14.52L191.35 14.74L191.2 13.94C191.62 13.87 192.14 13.8 192.66 13.72V3.66996L192.69 3.68996V3.66996C194.27 3.27996 196.11 2.71996 197.09 2.20996L197.8 2.80996C196.64 3.34996 194.96 3.84996 193.45 4.18996V6.47996H197.5V7.22996H193.45V9.94996H197.51V10.7H193.45V13.62L197.8 12.92L197.82 13.65H197.83ZM205.24 10.15C204.73 12.14 203.85 13.67 202.71 14.84C203.8 15.78 205.16 16.47 206.67 16.88C206.47 17.02 206.24 17.34 206.14 17.58C204.59 17.1 203.27 16.36 202.13 15.37C200.86 16.47 199.31 17.22 197.64 17.7C197.56 17.48 197.35 17.16 197.18 16.99C198.79 16.6 200.31 15.9 201.57 14.83C200.48 13.73 199.63 12.38 199.07 10.85L199.46 10.73H198.52V9.97996H204.55L204.7 9.94996L205.23 10.15H205.24ZM200.57 4.87996C200.57 6.31996 200.18 8.15996 198.38 9.39996C198.26 9.22996 197.96 8.93996 197.8 8.85996C199.48 7.68996 199.79 6.11996 199.79 4.87996V2.84996H204.14V7.33996C204.14 7.77996 204.17 7.87996 204.45 7.87996H205.83C206.03 7.87996 206.37 7.87996 206.58 7.82996C206.6 8.01996 206.61 8.30996 206.65 8.47996C206.48 8.52996 206.17 8.52996 205.85 8.52996H204.39C203.54 8.52996 203.37 8.21996 203.37 7.31996V3.59996H200.58V4.86996L200.57 4.87996ZM199.79 10.73C200.3 12.09 201.08 13.31 202.12 14.33C203.05 13.38 203.79 12.19 204.24 10.73H199.79Z" fill="#EB6519"/>
<path d="M126.76 0V21" stroke="#EB6519" stroke-width="0.75" stroke-miterlimit="10"/>
<path d="M0.17 16.65L1.71 16.14C1.84 16.1 1.96 16.04 2.07 15.95C2.17 15.86 2.24 15.73 2.28 15.58L4.8 4.16996C4.83 4.01996 4.81 3.89996 4.75 3.80996C4.69 3.71996 4.6 3.65996 4.48 3.61996L2.94 3.09996L3.1 2.32996H9.94L9.78 3.09996L8.21 3.61996C8.08 3.65996 7.95 3.71996 7.85 3.80996C7.74 3.89996 7.67 4.01996 7.64 4.15996L5.02 16.03H10.31C10.44 16.03 10.56 15.98 10.66 15.87C10.77 15.76 10.85 15.65 10.89 15.53L12.23 12.51H13.37L12.26 17.42H0L0.17 16.64V16.65Z" fill="#EB6519"/>
<path d="M21 17.77C19.68 17.77 18.55 17.53 17.61 17.05C16.67 16.57 15.96 15.88 15.47 14.98C14.98 14.08 14.73 12.99 14.72 11.72C14.72 10.47 14.92 9.26 15.33 8.11C15.74 6.95 16.32 5.92 17.07 5C17.82 4.08 18.75 3.35 19.84 2.81C20.93 2.27 22.15 2 23.52 2C24.89 2 26.05 2.25 26.98 2.75C27.91 3.25 28.62 3.94 29.09 4.84C29.56 5.74 29.8 6.8 29.81 8.02C29.81 8.94 29.69 9.86 29.45 10.79C29.21 11.72 28.85 12.6 28.37 13.44C27.89 14.28 27.3 15.02 26.6 15.67C25.9 16.32 25.08 16.83 24.14 17.21C23.2 17.59 22.16 17.78 21 17.78V17.77ZM21.32 16.43C22.07 16.43 22.73 16.25 23.31 15.9C23.89 15.54 24.39 15.06 24.82 14.46C25.25 13.86 25.61 13.18 25.89 12.43C26.17 11.68 26.39 10.91 26.52 10.1C26.66 9.29 26.73 8.52 26.73 7.77C26.73 6.87 26.6 6.09 26.35 5.42C26.1 4.75 25.71 4.24 25.19 3.88C24.67 3.52 24 3.34 23.17 3.34C22.41 3.34 21.73 3.53 21.14 3.89C20.55 4.26 20.04 4.75 19.62 5.36C19.2 5.97 18.85 6.65 18.57 7.41C18.3 8.16 18.1 8.93 17.97 9.71C17.84 10.49 17.78 11.23 17.78 11.92C17.78 12.79 17.9 13.57 18.14 14.25C18.38 14.93 18.76 15.46 19.27 15.84C19.79 16.22 20.46 16.42 21.3 16.42L21.32 16.43Z" fill="#EB6519"/>
<path d="M43.03 14.02H43.58L43.25 15.44C42.81 15.79 42.3 16.14 41.71 16.49C41.13 16.84 40.49 17.14 39.8 17.38C39.11 17.62 38.36 17.74 37.55 17.74C36.23 17.74 35.09 17.48 34.14 16.97C33.19 16.45 32.46 15.72 31.96 14.76C31.46 13.8 31.21 12.67 31.21 11.36C31.21 10.05 31.42 8.86001 31.85 7.73001C32.28 6.60001 32.88 5.61001 33.65 4.75001C34.42 3.90001 35.34 3.23001 36.4 2.74001C37.46 2.25001 38.61 2.01001 39.87 2.01001C40.44 2.01001 41.03 2.06001 41.66 2.16001C42.28 2.26001 42.87 2.38001 43.43 2.51001C43.98 2.65001 44.45 2.77001 44.82 2.89001L44.02 6.75001H42.92L42.75 4.70001C42.75 4.60001 42.7 4.51001 42.63 4.43001C42.56 4.35001 42.48 4.29001 42.4 4.24001C42.02 4.01001 41.56 3.82001 41 3.65001C40.44 3.48001 39.87 3.40001 39.28 3.40001C38.55 3.40001 37.88 3.60001 37.27 3.99001C36.67 4.38001 36.14 4.93001 35.7 5.63001C35.26 6.33001 34.91 7.13001 34.66 8.05001C34.41 8.97001 34.29 9.95001 34.29 10.98C34.29 12.01 34.44 12.94 34.75 13.69C35.06 14.44 35.53 15 36.17 15.39C36.81 15.77 37.62 15.97 38.6 15.97C39.23 15.97 39.83 15.86 40.39 15.63C40.95 15.41 41.45 15.14 41.9 14.83C42.35 14.52 42.73 14.25 43.05 14.01L43.03 14.02Z" fill="#EB6519"/>
<path d="M42.98 17.42L43.14 16.64L44.25 16.16C44.38 16.1 44.5 16.02 44.63 15.9C44.75 15.79 44.86 15.67 44.93 15.55L51.6 4.61999L53.41 2.10999H55.01L57.29 15.59C57.31 15.72 57.36 15.85 57.44 15.97C57.52 16.09 57.62 16.17 57.76 16.22L58.9 16.65L58.73 17.43H52.63L52.79 16.65L54.58 16.06L53 6.91999L52.83 5.48999L52.7 5.38999L46.39 16.01L48.13 16.64L47.96 17.42H42.98ZM48.49 12.17L49.32 10.82H53.84L54.09 12.17H48.49Z" fill="#EB6519"/>
<path d="M60.97 16.6599L62.66 16.1499C62.81 16.1099 62.93 16.0399 63.03 15.9499C63.13 15.8599 63.19 15.7399 63.23 15.5799L65.86 3.70995H62.63C62.51 3.70995 62.4 3.74995 62.32 3.81995C62.23 3.88995 62.16 3.98995 62.1 4.09995L60.94 6.40995H59.83L60.75 2.31995H74.38L73.45 6.40995H72.35L72.23 4.09995C72.23 3.96995 72.19 3.86995 72.13 3.80995C72.07 3.73995 71.98 3.70995 71.86 3.70995H68.68L66.03 15.5799C66.01 15.7399 66.03 15.8599 66.09 15.9499C66.15 16.0399 66.25 16.1099 66.37 16.1399L68.06 16.6499L67.91 17.4199H60.8L60.97 16.6499V16.6599Z" fill="#EB6519"/>
<path d="M72.75 16.65L74.34 16.14C74.48 16.1 74.6 16.04 74.71 15.95C74.81 15.86 74.88 15.73 74.91 15.58L77.44 4.17997C77.48 4.01997 77.46 3.89997 77.4 3.80997C77.34 3.71997 77.25 3.65997 77.13 3.62997L75.52 3.10997L75.7 2.33997H82.58L82.41 3.10997L80.95 3.57997C80.81 3.62997 80.67 3.69997 80.53 3.78997C80.39 3.87997 80.31 4.00997 80.26 4.16997L77.72 15.57C77.69 15.73 77.71 15.86 77.77 15.95C77.83 16.04 77.93 16.1 78.05 16.13L79.64 16.64L79.47 17.42H72.57L72.75 16.64V16.65Z" fill="#EB6519"/>
<path d="M88.92 17.77C87.6 17.77 86.47 17.53 85.53 17.05C84.59 16.57 83.88 15.88 83.39 14.98C82.9 14.08 82.65 12.99 82.64 11.72C82.64 10.47 82.84 9.26 83.25 8.11C83.66 6.95 84.24 5.92 84.99 5C85.74 4.08 86.67 3.35 87.76 2.81C88.85 2.27 90.07 2 91.44 2C92.81 2 93.97 2.25 94.9 2.75C95.83 3.25 96.54 3.94 97.01 4.84C97.48 5.74 97.72 6.8 97.73 8.02C97.73 8.94 97.61 9.86 97.37 10.79C97.13 11.72 96.77 12.6 96.29 13.44C95.81 14.28 95.22 15.02 94.52 15.67C93.82 16.32 93 16.83 92.06 17.21C91.12 17.59 90.08 17.78 88.92 17.78V17.77ZM89.24 16.43C89.99 16.43 90.65 16.25 91.23 15.9C91.81 15.54 92.31 15.06 92.74 14.46C93.17 13.86 93.53 13.18 93.81 12.43C94.09 11.68 94.31 10.91 94.44 10.1C94.58 9.29 94.65 8.52 94.65 7.77C94.65 6.87 94.52 6.09 94.27 5.42C94.02 4.75 93.63 4.24 93.11 3.88C92.59 3.52 91.92 3.34 91.09 3.34C90.33 3.34 89.65 3.53 89.06 3.89C88.47 4.26 87.96 4.75 87.54 5.36C87.12 5.97 86.77 6.65 86.49 7.41C86.22 8.16 86.02 8.93 85.89 9.71C85.76 10.49 85.7 11.23 85.7 11.92C85.7 12.79 85.82 13.57 86.06 14.25C86.3 14.93 86.68 15.46 87.19 15.84C87.71 16.22 88.38 16.42 89.22 16.42L89.24 16.43Z" fill="#EB6519"/>
<path d="M97.91 16.6499L99.46 16.0699C99.6 16.0199 99.71 15.9499 99.82 15.8599C99.93 15.7699 99.99 15.6499 100.02 15.4999L102.54 4.17995C102.58 4.02995 102.56 3.90995 102.49 3.81995C102.42 3.72995 102.33 3.66995 102.21 3.62995L100.6 3.08995L100.77 2.31995H105.45L110.08 12.1499L110.66 13.5599H110.77L112.84 4.21995C112.88 4.06995 112.87 3.94995 112.8 3.86995C112.73 3.78995 112.64 3.71995 112.52 3.68995L110.96 3.08995L111.13 2.31995H116.69L116.51 3.08995L114.99 3.68995C114.86 3.72995 114.74 3.79995 114.64 3.87995C114.53 3.96995 114.46 4.07995 114.43 4.21995L112.04 15.0299L111.19 17.5299H109.64L104.59 6.83995L103.97 5.32995H103.86L101.61 15.5099C101.57 15.6899 101.59 15.8199 101.66 15.8999C101.73 15.9799 101.81 16.0399 101.91 16.0799L103.45 16.6599L103.28 17.4399H97.77L97.94 16.6599L97.91 16.6499Z" fill="#EB6519"/>
</svg>
