<svg width="117" height="40" viewBox="0 0 117 40" fill="none" xmlns="http://www.w3.org/2000/svg">
<path d="M10.0001 23.55C9.98006 22.92 9.95006 22.44 9.90006 22.11C9.85006 21.78 9.76006 21.52 9.64006 21.34C9.52006 21.16 9.29006 20.98 8.96006 20.82C8.63006 20.66 8.13006 20.51 7.47006 20.4V19.68C7.47006 19.76 7.56006 19.8 7.74006 19.8C8.14006 19.8 8.65006 19.72 9.28006 19.58C9.76006 19.48 10.1901 19.43 10.5701 19.43C10.7001 19.43 10.7701 19.43 10.7801 19.4C10.7801 19.38 10.7901 14.44 10.7901 4.58003H7.48006L7.06006 3.06003H13.1801L14.6501 1.05003C14.6501 1.22003 14.6901 1.34003 14.7701 1.41003C14.8501 1.49003 14.9701 1.55003 15.1201 1.60003C15.3501 1.67003 15.6501 1.85003 16.0201 2.15003H26.3701L27.8401 0.280029C27.8401 0.460029 27.9601 0.650029 28.1901 0.830029C28.4201 1.01003 28.7201 1.21003 29.0801 1.43003C29.6401 1.75003 30.2201 2.15003 30.8201 2.65003C30.6901 3.08003 30.5501 3.36003 30.4201 3.48003C30.2901 3.60003 30.1501 3.67003 30.0201 3.67003H24.7001L23.4101 5.21003C23.1801 5.44003 23.0601 5.58003 23.0601 5.61003H25.8501L27.0701 4.32003L29.9501 6.53003C29.5201 7.13003 29.1501 7.44003 28.8601 7.48003V17.9C28.7901 18.18 28.4901 18.44 27.9501 18.67C27.4101 18.9 26.9101 19.02 26.4501 19.02H25.9501V17.9H20.2501V18.1C20.2501 18.42 19.9901 18.72 19.4701 19.01C18.9501 19.3 18.4001 19.45 17.8201 19.45H17.4001V4.43003L20.3101 5.60003H21.5301C21.5601 5.37003 21.6101 4.72003 21.6801 3.66003H17.7801C17.5101 3.43003 17.3701 3.30003 17.3301 3.29003L17.5501 3.49003L17.6201 3.59003C17.5001 4.00003 17.3801 4.27003 17.2601 4.40003C17.1401 4.52003 17.0001 4.59003 16.8501 4.59003H13.7901V19.46C13.7901 20.17 13.6901 20.82 13.5001 21.41C13.3101 22 12.9401 22.48 12.4101 22.85C11.8701 23.22 11.0701 23.46 10.0101 23.56L10.0001 23.55ZM14.0801 24.17L13.5801 23.22C15.0201 22.49 16.3601 21.63 17.5801 20.65C18.8101 19.66 19.7401 18.74 20.3701 17.88L23.7801 19.99C23.6101 20.24 23.4801 20.42 23.3801 20.54C23.2801 20.66 23.1501 20.71 22.9801 20.71C22.9001 20.71 22.7901 20.69 22.6601 20.66C21.6501 21.44 20.3501 22.15 18.7501 22.79C17.1601 23.43 15.6001 23.89 14.0701 24.17H14.0801ZM25.9501 9.12003V7.11003H20.2501V9.12003H25.9501ZM25.9501 12.7V10.64H20.2501V12.7H25.9501ZM25.9501 16.36V14.2H20.2501V16.36H25.9501ZM28.5101 24.02C28.2801 24.02 28.0201 23.97 27.7401 23.87C26.6801 22.08 25.0301 20.38 22.7901 18.77L23.4601 18.1C25.5801 18.22 27.1601 18.62 28.1901 19.32C29.4201 20.17 30.0301 21.13 30.0301 22.2C30.0301 22.73 29.8601 23.18 29.5301 23.54C29.2501 23.86 28.9101 24.01 28.5101 24.01V24.02Z" fill="#EA5514"/>
<path d="M34.72 23.08C34.72 23.08 34.58 23.08 34.36 23.05C34.14 23.03 33.89 22.8 33.63 22.35C33.48 22.03 33.41 21.73 33.41 21.43C33.41 21.21 33.48 20.92 33.61 20.56C33.74 20.2 34 19.88 34.38 19.61C34.68 19.31 34.94 18.87 35.15 18.29C35.32 17.83 35.4 17.33 35.4 16.8L35.38 16.28H35.7C36.2 17.66 36.45 18.87 36.45 19.91C36.45 19.98 36.45 20.3 36.43 20.88C36.41 21.46 36.19 22.03 35.76 22.6C35.48 22.91 35.14 23.07 34.74 23.07L34.72 23.08ZM34.64 16.84L33.52 13.61C33.52 13.61 33.52 13.66 33.54 13.66C33.56 13.66 33.59 13.65 33.63 13.62C33.67 13.59 33.73 13.54 33.82 13.45C33.9 13.36 33.99 13.26 34.09 13.16C34.19 13.06 34.28 12.97 34.35 12.9C34.42 12.83 34.49 12.77 34.54 12.74C35.14 12.26 35.73 11.69 36.31 11.04C36.89 10.38 37.33 9.84001 37.63 9.41001C37.15 9.61001 36.36 9.92001 35.27 10.33C35.2 10.41 35.14 10.49 35.08 10.57C35.02 10.64 34.97 10.7 34.92 10.73L34.84 10.78L33.52 7.62001C33.52 7.62001 33.52 7.67001 33.54 7.67001C33.56 7.67001 33.58 7.66001 33.6 7.63001C33.63 7.61001 33.67 7.56001 33.75 7.48001C33.82 7.40001 33.9 7.32001 33.99 7.22001C34.08 7.12001 34.15 7.03001 34.23 6.95001C34.31 6.87001 34.37 6.81001 34.42 6.78001C35.05 6.10001 35.68 5.09001 36.31 3.76001C36.94 2.43001 37.39 1.22001 37.65 0.140015L41.13 1.91001C40.93 2.34001 40.76 2.62001 40.62 2.73001C40.48 2.85001 40.33 2.90001 40.16 2.90001L39.99 2.87001C39.39 3.73001 38.72 4.59001 37.96 5.43001C37.2 6.27001 36.63 6.86001 36.23 7.20001C37.39 7.20001 38.34 7.20001 39.09 7.17001C39.62 6.27001 40.03 5.47001 40.31 4.76002L43.54 6.95001C43.29 7.33001 43.08 7.58001 42.89 7.70001C42.77 7.77001 42.65 7.80001 42.52 7.80001C42.42 7.80001 42.32 7.78001 42.22 7.75001C41.44 8.71001 40.52 9.71001 39.45 10.75C38.38 11.79 37.53 12.54 36.9 13C36.98 12.98 37.14 12.98 37.37 12.98C38.2 12.93 39.35 12.85 40.83 12.73C40.73 12.25 40.32 11.33 39.61 9.97001L40.13 9.70001C41.87 10.55 42.89 11.47 43.19 12.46C43.31 12.82 43.36 13.16 43.36 13.45C43.36 13.98 43.19 14.41 42.86 14.74C42.61 15.01 42.34 15.14 42.04 15.14C41.76 15.14 41.44 15.01 41.09 14.74C41.09 14.29 41.09 14.07 41.07 14.07C39.46 14.77 37.46 15.55 35.08 16.41C34.98 16.54 34.88 16.65 34.79 16.73C34.7 16.81 34.65 16.85 34.63 16.85L34.64 16.84ZM38.49 21.32C38.13 21.32 37.75 21.11 37.37 20.7C37.5 19.99 37.57 19.27 37.57 18.56C37.57 17.61 37.45 16.65 37.22 15.68L37.57 15.6C39.05 16.76 39.83 17.86 39.93 18.88L39.96 19.3C39.96 20.13 39.7 20.72 39.19 21.07C38.96 21.24 38.73 21.32 38.49 21.32ZM41.53 19.68C41.2 19.68 40.86 19.52 40.51 19.21L40.53 18.66C40.53 17.32 40.17 15.94 39.44 14.53L39.96 14.31C41.63 15.21 42.58 16.14 42.79 17.12C42.86 17.42 42.89 17.69 42.89 17.94C42.89 18.52 42.7 18.98 42.32 19.33C42.05 19.56 41.79 19.68 41.52 19.68H41.53ZM42.77 23.88L42.2 22.98C45.42 21.39 47.7 19.66 49.04 17.81C48.26 16.38 47.6 14.39 47.05 11.82C46.82 14.27 46.22 16.5 45.25 18.5C44.28 20.5 42.76 22.21 40.69 23.64L40.07 22.94C41.6 21.3 42.69 19.54 43.34 17.65C44 15.77 44.4 13.75 44.55 11.59C44.65 9.87001 44.7 8.04001 44.7 6.12001V3.28001H42.49L42.07 1.79001H51.27L52.27 0.600015L55.16 2.79001C54.88 3.15001 54.63 3.40001 54.41 3.52001C54.19 3.64001 53.97 3.72001 53.74 3.76001L51.95 8.76001H52.77L54.16 7.39001L56.9 9.85001C56.65 10.23 56.44 10.48 56.27 10.58C56.1 10.69 55.87 10.74 55.59 10.74C54.81 13.46 53.69 15.75 52.23 17.6C53.26 18.66 54.86 19.6 57.03 20.41L56.86 21.45C55.82 21.75 55.12 22.54 54.77 23.81C53.05 22.91 51.54 21.56 50.24 19.76C48.18 21.6 45.7 22.97 42.8 23.86L42.77 23.88ZM50.48 15.7C51.59 13.73 52.32 11.92 52.67 10.28H51.45L50.68 11.1L47.92 9.38001C48.55 8.83001 49.01 8.49001 49.29 8.36001C49.62 7.58001 49.96 6.68001 50.31 5.66001C50.66 4.64001 50.92 3.85001 51.08 3.28001H47.4C47.37 5.92001 47.33 7.76001 47.28 8.80001C47.94 11.34 49.01 13.63 50.49 15.69L50.48 15.7Z" fill="#EA5514"/>
<path d="M60.62 24.03H60.22V5.24997L62.66 6.26997H63.21V3.42997H59.83L59.41 1.93997H68.66L69.95 0.219971C69.95 0.399971 70.06 0.579971 70.27 0.759971C70.48 0.929971 70.76 1.10997 71.09 1.29997C71.59 1.59997 72.11 1.96997 72.66 2.41997C72.53 2.84997 72.4 3.12997 72.27 3.24997C72.15 3.36997 72.01 3.43997 71.86 3.43997H68.1V6.26997H68.67L69.79 5.07997L72.53 7.16997C72.08 7.76997 71.67 8.09997 71.31 8.16997V22.52C71.24 22.8 70.98 23.06 70.51 23.29C70.05 23.52 69.62 23.64 69.22 23.64H68.8V21.72H62.58V22.79C62.58 23.09 62.37 23.37 61.96 23.64C61.54 23.9 61.1 24.04 60.62 24.04V24.03ZM68.8 16.05V14.04C68.57 14.07 68.31 14.09 68.03 14.09H67.41C66.9 14.09 66.56 13.93 66.39 13.62C66.22 13.31 66.14 12.86 66.14 12.28V7.78997H65.17C65.17 8.76997 65.12 9.65997 65.02 10.45C64.8 12.37 64.07 13.87 62.81 14.95L62.59 14.7V16.04H68.81L68.8 16.05ZM62.58 13.96C63.09 13 63.4 12.03 63.5 11.06C63.6 10.09 63.65 8.99997 63.65 7.78997H62.58V13.96ZM68.8 20.2V17.56H62.58V20.2H68.8ZM66.14 6.26997V3.42997H65.17V6.25997H66.14V6.26997ZM67.68 11.64V11.59C67.68 11.59 67.77 11.56 67.9 11.56H68.8V7.77997H67.68V11.64ZM78.23 23.26H75.87C74.76 23.26 74 23.06 73.59 22.66C73.18 22.26 72.98 21.51 72.98 20.4V7.48997L75.86 8.60997H78.77V3.42997H73.15L72.7 1.90997H78.62L79.84 0.539971L82.85 2.87997C82.35 3.52997 81.88 3.88997 81.43 3.96997V11.51C81.4 11.66 81.26 11.81 81.01 11.96C80.76 12.11 80.47 12.23 80.13 12.33C79.79 12.43 79.49 12.48 79.22 12.48H78.77V10.12H75.61V19.67C75.61 19.75 75.65 19.8 75.72 19.82C75.79 19.84 76.38 19.85 77.47 19.85C78.91 19.85 79.81 19.84 80.17 19.81C80.53 19.79 80.75 19.69 80.83 19.52C81.06 19.04 81.42 17.86 81.9 15.99H82.1L82.18 19.65C82.81 19.98 83.13 20.48 83.13 21.14C83.13 21.87 82.77 22.4 82.06 22.74C81.35 23.08 80.07 23.25 78.23 23.25V23.26Z" fill="#EA5514"/>
<path d="M94.6801 24.25H94.1801V14.75C93.1501 15.6 92.2301 16.26 91.4201 16.74L91.2001 16.52V22.94C91.1301 23.22 90.8601 23.49 90.3701 23.75C89.8801 24.01 89.3801 24.14 88.8601 24.14H88.3401V11.14C87.3801 12.27 86.4901 13.16 85.6801 13.83L85.1801 13.48C87.4701 9.65 89.1201 5.16 90.1301 0L94.3101 1.27C94.1401 1.77 93.9701 2.1 93.7901 2.25C93.6101 2.41 93.3901 2.49 93.1401 2.49H93.0601C92.3801 4.38 91.7401 5.86 91.1401 6.94L92.1601 7.31C91.9801 7.77 91.8101 8.08 91.6601 8.23C91.5101 8.38 91.3501 8.47 91.1901 8.5V15.74C92.2701 14.65 93.1701 13.49 93.9001 12.26C94.6301 11.03 95.1601 9.9 95.4901 8.85H92.4801L92.0601 7.33H95.9901V4.87H93.5801L93.1601 3.38H95.9901V0.12L99.7501 0.47C99.6501 0.98 99.5201 1.35 99.3501 1.58C99.1801 1.8 98.9801 1.93 98.7301 1.97V3.39H101.52V0.12L105.25 0.47C105.13 1 104.99 1.37 104.83 1.59C104.66 1.81 104.46 1.93 104.21 1.96V3.38H104.93L106.12 1.71C106.12 1.89 106.22 2.06 106.42 2.22C106.62 2.38 106.87 2.55 107.17 2.75C107.63 3.03 108.12 3.41 108.61 3.87C108.49 4.29 108.37 4.55 108.25 4.68C108.13 4.8 108 4.87 107.86 4.87H104.2V7.33H105.57L106.76 5.69C106.76 5.95 107.1 6.3 107.78 6.71C108.24 6.99 108.73 7.37 109.25 7.85C109.07 8.51 108.83 8.85 108.53 8.85H98.7301V8.63L98.2801 9.65L97.9601 10.32H104.53L105.67 9.03L108.7 11.29C108.4 11.66 108.15 11.91 107.95 12.05C107.75 12.19 107.55 12.28 107.35 12.31V20.87C107.35 21.5 107.28 22.05 107.14 22.52C107 22.99 106.71 23.37 106.28 23.65C105.85 23.93 105.21 24.11 104.37 24.2C104.37 23.2 104.32 22.61 104.22 22.41C104.05 22.04 103.64 21.81 102.98 21.71V20.96C102.98 21.04 103.02 21.08 103.1 21.08C103.18 21.08 103.38 21.01 103.7 20.86C104.01 20.71 104.21 20.64 104.27 20.64L104.64 20.66V18.47H102.1V22.3C102.1 22.55 101.89 22.8 101.48 23.05C101.06 23.3 100.54 23.42 99.9101 23.42H99.4101V18.47H96.9501V23C96.9501 23.27 96.7301 23.54 96.3001 23.82C95.8701 24.1 95.3201 24.24 94.6601 24.24L94.6801 24.25ZM99.4301 13.73V11.84H96.9401L96.9701 11.82V13.74H99.4301V13.73ZM99.4301 16.96V15.24H96.9701V16.96H99.4301ZM101.52 7.34V4.88H98.7301V7.34H101.52ZM104.65 13.73V11.84H102.11V13.73H104.65ZM104.65 16.96V15.24H102.11V16.96H104.65Z" fill="#EA5514"/>
<path d="M3.55005 39.82V33.35H7.38005C8.02005 33.35 8.50005 33.49 8.82005 33.76C9.14005 34.03 9.31005 34.43 9.31005 34.96C9.31005 35.22 9.26005 35.45 9.16005 35.65C9.06005 35.85 8.91005 36.02 8.73005 36.14C9.07005 36.34 9.33005 36.58 9.51005 36.87C9.69005 37.16 9.77005 37.49 9.77005 37.87C9.77005 38.47 9.57005 38.94 9.18005 39.29C8.79005 39.64 8.26005 39.81 7.58005 39.81H3.55005V39.82ZM4.35005 35.91H7.44005C7.78005 35.91 8.04005 35.83 8.22005 35.68C8.40005 35.53 8.49005 35.3 8.49005 35.01C8.49005 34.71 8.40005 34.48 8.23005 34.32C8.06005 34.16 7.79005 34.09 7.44005 34.09H4.35005V35.9V35.91ZM4.35005 39.08H7.74005C8.11005 39.08 8.40005 38.97 8.61005 38.75C8.82005 38.53 8.93005 38.24 8.93005 37.86C8.93005 37.48 8.82005 37.19 8.61005 36.98C8.40005 36.77 8.11005 36.65 7.74005 36.65H4.35005V39.08Z" fill="#EA5514"/>
<path d="M11.0101 39.82L14.1801 33.35H14.8501L18.0601 39.82H17.1901L16.3101 38.08H12.7401L11.8801 39.82H11.0201H11.0101ZM13.1001 37.32H15.9501L14.5201 34.45L13.1001 37.32Z" fill="#EA5514"/>
<path d="M19.02 38.85L19.49 38.15C19.95 38.51 20.42 38.78 20.92 38.96C21.42 39.14 21.9 39.24 22.39 39.24C22.99 39.24 23.47 39.11 23.85 38.86C24.23 38.61 24.41 38.28 24.41 37.88C24.41 37.56 24.28 37.3 24.01 37.1C23.74 36.9 23.37 36.77 22.9 36.73C22.79 36.72 22.62 36.71 22.41 36.69C21.35 36.62 20.62 36.49 20.24 36.31C19.94 36.17 19.71 35.98 19.55 35.75C19.39 35.52 19.32 35.26 19.32 34.98C19.32 34.46 19.55 34.03 20.02 33.7C20.49 33.37 21.09 33.2 21.83 33.2C22.37 33.2 22.9 33.29 23.43 33.47C23.96 33.65 24.45 33.91 24.93 34.26L24.46 34.93C24.06 34.61 23.64 34.37 23.2 34.21C22.76 34.05 22.31 33.97 21.84 33.97C21.35 33.97 20.95 34.06 20.63 34.25C20.31 34.44 20.16 34.68 20.16 34.96C20.16 35.07 20.19 35.18 20.24 35.27C20.29 35.36 20.37 35.45 20.47 35.53C20.74 35.73 21.31 35.86 22.19 35.91C22.6 35.93 22.91 35.96 23.13 35.99C23.79 36.06 24.31 36.28 24.69 36.62C25.07 36.96 25.26 37.4 25.26 37.9C25.26 38.51 25 39 24.47 39.39C23.94 39.78 23.26 39.98 22.4 39.98C21.76 39.98 21.16 39.89 20.6 39.7C20.04 39.51 19.52 39.23 19.02 38.84V38.85Z" fill="#EA5514"/>
<path d="M27.4 39.82V33.35H32.49V34.09H28.21V35.99H30.8V36.73H28.21V39.07H32.76V39.81H27.41L27.4 39.82Z" fill="#EA5514"/>
<path d="M39.15 39.82V33.35H44.24V34.09H39.96V35.99H42.55V36.73H39.96V39.07H44.51V39.81H39.16L39.15 39.82Z" fill="#EA5514"/>
<path d="M46.3 39.82V33.35H46.72L50.92 38.18V33.35H51.73V39.82H51.32L47.11 34.99V39.82H46.31H46.3Z" fill="#EA5514"/>
<path d="M59.21 38.07V37.12H57.45V36.38H60.02V38.33C59.71 38.87 59.3 39.28 58.8 39.57C58.3 39.86 57.73 40 57.09 40C56.12 40 55.32 39.68 54.69 39.04C54.06 38.4 53.74 37.59 53.74 36.61C53.74 35.63 54.06 34.81 54.69 34.18C55.32 33.55 56.12 33.22 57.09 33.22C57.69 33.22 58.23 33.35 58.72 33.61C59.21 33.87 59.61 34.24 59.92 34.73L59.25 35.21C59.05 34.82 58.75 34.52 58.37 34.3C57.99 34.08 57.56 33.97 57.09 33.97C56.36 33.97 55.76 34.22 55.29 34.72C54.82 35.22 54.58 35.85 54.58 36.61C54.58 37.37 54.82 38 55.29 38.5C55.76 39 56.37 39.24 57.09 39.24C57.54 39.24 57.95 39.14 58.3 38.95C58.65 38.76 58.96 38.46 59.22 38.08L59.21 38.07Z" fill="#EA5514"/>
<path d="M62.28 39.82V33.32H63.09V39.82H62.28Z" fill="#EA5514"/>
<path d="M65.64 39.82V33.35H66.06L70.26 38.18V33.35H71.07V39.82H70.66L66.45 34.99V39.82H65.65H65.64Z" fill="#EA5514"/>
<path d="M73.6001 39.82V33.35H78.6901V34.09H74.4101V35.99H77.0001V36.73H74.4101V39.07H78.9601V39.81H73.6101L73.6001 39.82Z" fill="#EA5514"/>
<path d="M80.75 39.82V33.35H85.84V34.09H81.56V35.99H84.15V36.73H81.56V39.07H86.11V39.81H80.76L80.75 39.82Z" fill="#EA5514"/>
<path d="M87.8601 39.82V33.35H91.5701C92.2001 33.35 92.7001 33.51 93.0601 33.83C93.4201 34.15 93.6001 34.59 93.6001 35.15C93.6001 35.62 93.4601 36.02 93.1801 36.35C92.9001 36.68 92.5301 36.89 92.0701 36.97L93.6901 39.81H92.8001L91.1801 36.98H88.6701V39.81H87.8701L87.8601 39.82ZM88.6601 36.23H91.5101C91.9201 36.23 92.2201 36.14 92.4301 35.96C92.6401 35.78 92.7401 35.52 92.7401 35.17C92.7401 34.82 92.6401 34.57 92.4301 34.38C92.2201 34.19 91.9301 34.1 91.5501 34.1H88.6601V36.24V36.23Z" fill="#EA5514"/>
<path d="M95.6801 39.82V33.32H96.4901V39.82H95.6801Z" fill="#EA5514"/>
<path d="M99.04 39.82V33.35H99.46L103.66 38.18V33.35H104.47V39.82H104.06L99.85 34.99V39.82H99.05H99.04Z" fill="#EA5514"/>
<path d="M111.95 38.07V37.12H110.19V36.38H112.76V38.33C112.45 38.87 112.04 39.28 111.54 39.57C111.04 39.86 110.47 40 109.83 40C108.86 40 108.06 39.68 107.43 39.04C106.8 38.4 106.48 37.59 106.48 36.61C106.48 35.63 106.8 34.81 107.43 34.18C108.06 33.55 108.86 33.22 109.83 33.22C110.43 33.22 110.97 33.35 111.46 33.61C111.95 33.87 112.35 34.24 112.66 34.73L111.99 35.21C111.79 34.82 111.49 34.52 111.11 34.3C110.73 34.08 110.3 33.97 109.83 33.97C109.1 33.97 108.5 34.22 108.03 34.72C107.56 35.22 107.32 35.85 107.32 36.61C107.32 37.37 107.56 38 108.03 38.5C108.5 39 109.11 39.24 109.83 39.24C110.28 39.24 110.69 39.14 111.04 38.95C111.39 38.76 111.7 38.46 111.96 38.08L111.95 38.07Z" fill="#EA5514"/>
</svg>
