<?xml version="1.0" encoding="utf-8"?>
<!-- Generator: Adobe Illustrator 27.0.0, SVG Export Plug-In . SVG Version: 6.00 Build 0)  -->
<svg version="1.1" id="圖層_1" xmlns="http://www.w3.org/2000/svg" xmlns:xlink="http://www.w3.org/1999/xlink" x="0px" y="0px"
	 viewBox="0 0 117 40" style="enable-background:new 0 0 117 40;" xml:space="preserve">
<style type="text/css">
	.st0{fill:#9FA0A0;}
</style>
<path class="st0" d="M10,23.5c0-0.6-0.1-1.1-0.1-1.4s-0.1-0.6-0.3-0.8S9.3,21,9,20.8s-0.8-0.3-1.5-0.4v-0.7c0,0.1,0.1,0.1,0.3,0.1
	c0.4,0,0.9-0.1,1.5-0.2c0.5-0.1,0.9-0.1,1.3-0.1c0.1,0,0.2,0,0.2,0c0,0,0-5,0-14.8H7.5L7.1,3.1h6.1l1.5-2c0,0.2,0,0.3,0.1,0.4
	c0.1,0.1,0.2,0.1,0.3,0.2c0.2,0.1,0.5,0.2,0.9,0.5h10.4l1.5-1.9c0,0.2,0.1,0.4,0.4,0.6c0.2,0.2,0.5,0.4,0.9,0.6
	c0.6,0.3,1.1,0.7,1.7,1.2c-0.1,0.4-0.3,0.7-0.4,0.8c-0.1,0.1-0.3,0.2-0.4,0.2h-5.3l-1.3,1.5c-0.2,0.2-0.4,0.4-0.4,0.4h2.8l1.2-1.3
	L30,6.5c-0.4,0.6-0.8,0.9-1.1,1v10.4c-0.1,0.3-0.4,0.5-0.9,0.8c-0.5,0.2-1,0.4-1.5,0.4H26v-1.1h-5.7v0.2c0,0.3-0.3,0.6-0.8,0.9
	c-0.5,0.3-1.1,0.4-1.6,0.4h-0.4v-15l2.9,1.2h1.2c0-0.2,0.1-0.9,0.1-1.9h-3.9c-0.3-0.2-0.4-0.4-0.5-0.4l0.2,0.2l0.1,0.1
	c-0.1,0.4-0.2,0.7-0.4,0.8c-0.1,0.1-0.3,0.2-0.4,0.2h-3.1v14.9c0,0.7-0.1,1.4-0.3,1.9c-0.2,0.6-0.6,1.1-1.1,1.4
	C11.9,23.2,11.1,23.5,10,23.5L10,23.5z M14.1,24.2l-0.5-1c1.4-0.7,2.8-1.6,4-2.6c1.2-1,2.2-1.9,2.8-2.8l3.4,2.1
	c-0.2,0.2-0.3,0.4-0.4,0.6c-0.1,0.1-0.2,0.2-0.4,0.2c-0.1,0-0.2,0-0.3,0c-1,0.8-2.3,1.5-3.9,2.1C17.2,23.4,15.6,23.9,14.1,24.2z
	 M25.9,9.1v-2h-5.7v2H25.9z M25.9,12.7v-2.1h-5.7v2.1H25.9z M25.9,16.4v-2.2h-5.7v2.2H25.9z M28.5,24c-0.2,0-0.5-0.1-0.8-0.1
	c-1.1-1.8-2.7-3.5-4.9-5.1l0.7-0.7c2.1,0.1,3.7,0.5,4.7,1.2c1.2,0.9,1.8,1.8,1.8,2.9c0,0.5-0.2,1-0.5,1.3C29.2,23.9,28.9,24,28.5,24
	L28.5,24z"/>
<path class="st0" d="M34.7,23.1c0,0-0.1,0-0.4,0c-0.2,0-0.5-0.2-0.7-0.7c-0.2-0.3-0.2-0.6-0.2-0.9c0-0.2,0.1-0.5,0.2-0.9
	c0.1-0.4,0.4-0.7,0.8-0.9c0.3-0.3,0.5-0.7,0.8-1.3c0.2-0.5,0.2-1,0.2-1.5l0-0.5h0.3c0.5,1.4,0.8,2.6,0.8,3.6c0,0.1,0,0.4,0,1
	c0,0.6-0.2,1.2-0.7,1.7C35.5,22.9,35.1,23.1,34.7,23.1L34.7,23.1z M34.7,16.8l-1.1-3.2c0,0,0,0.1,0,0.1s0,0,0.1,0s0.1-0.1,0.2-0.2
	c0.1-0.1,0.2-0.2,0.3-0.3l0.3-0.3c0.1-0.1,0.1-0.1,0.2-0.2c0.6-0.5,1.2-1.1,1.8-1.7c0.6-0.6,1-1.2,1.3-1.6c-0.5,0.2-1.3,0.5-2.4,0.9
	c-0.1,0.1-0.1,0.2-0.2,0.2c-0.1,0.1-0.1,0.1-0.2,0.2l-0.1,0.1l-1.3-3.2c0,0,0,0.1,0,0.1s0,0,0.1,0c0,0,0.1-0.1,0.1-0.2
	c0.1-0.1,0.2-0.2,0.2-0.3C34.1,7.1,34.2,7,34.2,7c0.1-0.1,0.1-0.1,0.2-0.2c0.6-0.7,1.3-1.7,1.9-3s1.1-2.5,1.3-3.6l3.5,1.8
	c-0.2,0.4-0.4,0.7-0.5,0.8c-0.1,0.1-0.3,0.2-0.5,0.2l-0.2,0c-0.6,0.9-1.3,1.7-2,2.6c-0.8,0.9-1.3,1.4-1.7,1.8c1.2,0,2.1,0,2.9,0
	c0.5-0.9,0.9-1.7,1.2-2.4L43.5,7c-0.2,0.4-0.5,0.6-0.6,0.8c-0.1,0.1-0.2,0.1-0.4,0.1c-0.1,0-0.2,0-0.3,0c-0.8,1-1.7,2-2.8,3
	c-1.1,1-1.9,1.8-2.5,2.2c0.1,0,0.2,0,0.5,0c0.8,0,2-0.1,3.5-0.2c-0.1-0.5-0.5-1.4-1.2-2.8l0.5-0.3c1.7,0.8,2.8,1.8,3.1,2.8
	c0.1,0.4,0.2,0.7,0.2,1c0,0.5-0.2,1-0.5,1.3c-0.2,0.3-0.5,0.4-0.8,0.4s-0.6-0.1-1-0.4c0-0.4,0-0.7,0-0.7c-1.6,0.7-3.6,1.5-6,2.3
	c-0.1,0.1-0.2,0.2-0.3,0.3S34.6,16.9,34.7,16.8L34.7,16.8z M38.5,21.3c-0.4,0-0.7-0.2-1.1-0.6c0.1-0.7,0.2-1.4,0.2-2.1
	c0-0.9-0.1-1.9-0.4-2.9l0.4-0.1c1.5,1.2,2.3,2.3,2.4,3.3l0,0.4c0,0.8-0.3,1.4-0.8,1.8C39,21.2,38.7,21.3,38.5,21.3z M41.5,19.7
	c-0.3,0-0.7-0.2-1-0.5l0-0.5c0-1.3-0.4-2.7-1.1-4.1l0.5-0.2c1.7,0.9,2.6,1.8,2.8,2.8c0.1,0.3,0.1,0.6,0.1,0.8c0,0.6-0.2,1-0.6,1.4
	C42.1,19.6,41.8,19.7,41.5,19.7L41.5,19.7z M42.8,23.9L42.2,23c3.2-1.6,5.5-3.3,6.8-5.2c-0.8-1.4-1.4-3.4-2-6
	c-0.2,2.5-0.8,4.7-1.8,6.7s-2.5,3.7-4.6,5.1l-0.6-0.7c1.5-1.6,2.6-3.4,3.3-5.3c0.7-1.9,1.1-3.9,1.2-6.1c0.1-1.7,0.2-3.5,0.2-5.5V3.3
	h-2.2l-0.4-1.5h9.2l1-1.2l2.9,2.2c-0.3,0.4-0.5,0.6-0.8,0.7c-0.2,0.1-0.4,0.2-0.7,0.2l-1.8,5h0.8l1.4-1.4l2.7,2.5
	c-0.2,0.4-0.5,0.6-0.6,0.7c-0.2,0.1-0.4,0.2-0.7,0.2c-0.8,2.7-1.9,5-3.4,6.9c1,1.1,2.6,2,4.8,2.8l-0.2,1c-1,0.3-1.7,1.1-2.1,2.4
	c-1.7-0.9-3.2-2.2-4.5-4C48.2,21.6,45.7,23,42.8,23.9L42.8,23.9z M50.5,15.7c1.1-2,1.8-3.8,2.2-5.4h-1.2l-0.8,0.8l-2.8-1.7
	c0.6-0.5,1.1-0.9,1.4-1c0.3-0.8,0.7-1.7,1-2.7c0.3-1,0.6-1.8,0.8-2.4h-3.7c0,2.6-0.1,4.5-0.1,5.5C47.9,11.3,49,13.6,50.5,15.7
	L50.5,15.7z"/>
<path class="st0" d="M60.6,24h-0.4V5.2l2.4,1h0.5V3.4h-3.4l-0.4-1.5h9.2l1.3-1.7c0,0.2,0.1,0.4,0.3,0.5s0.5,0.3,0.8,0.5
	c0.5,0.3,1,0.7,1.6,1.1c-0.1,0.4-0.3,0.7-0.4,0.8c-0.1,0.1-0.3,0.2-0.4,0.2h-3.8v2.8h0.6l1.1-1.2l2.7,2.1c-0.4,0.6-0.8,0.9-1.2,1
	v14.4c-0.1,0.3-0.3,0.5-0.8,0.8c-0.5,0.2-0.9,0.3-1.3,0.3h-0.4v-1.9h-6.2v1.1c0,0.3-0.2,0.6-0.6,0.8C61.5,23.9,61.1,24,60.6,24
	L60.6,24z M68.8,16v-2c-0.2,0-0.5,0.1-0.8,0.1h-0.6c-0.5,0-0.9-0.2-1-0.5c-0.2-0.3-0.2-0.8-0.2-1.3V7.8h-1c0,1-0.1,1.9-0.2,2.7
	c-0.2,1.9-1,3.4-2.2,4.5l-0.2-0.2V16H68.8L68.8,16z M62.6,13.9c0.5-1,0.8-1.9,0.9-2.9c0.1-1,0.1-2.1,0.1-3.3h-1.1V13.9z M68.8,20.2
	v-2.6h-6.2v2.6H68.8z M66.1,6.3V3.4h-1v2.8H66.1z M67.7,11.6L67.7,11.6c0-0.1,0.1-0.1,0.2-0.1h0.9V7.8h-1.1V11.6z M78.2,23.2h-2.4
	c-1.1,0-1.9-0.2-2.3-0.6c-0.4-0.4-0.6-1.1-0.6-2.3V7.5l2.9,1.1h2.9V3.4h-5.6l-0.4-1.5h5.9l1.2-1.4l3,2.3c-0.5,0.6-1,1-1.4,1.1v7.5
	c0,0.1-0.2,0.3-0.4,0.4s-0.5,0.3-0.9,0.4c-0.3,0.1-0.6,0.1-0.9,0.1h-0.4v-2.4h-3.2v9.6c0,0.1,0,0.1,0.1,0.1s0.7,0,1.8,0
	c1.4,0,2.3,0,2.7,0c0.4,0,0.6-0.1,0.7-0.3c0.2-0.5,0.6-1.7,1.1-3.5h0.2l0.1,3.7c0.6,0.3,0.9,0.8,0.9,1.5c0,0.7-0.4,1.3-1.1,1.6
	S80.1,23.2,78.2,23.2z"/>
<path class="st0" d="M94.7,24.2h-0.5v-9.5c-1,0.9-1.9,1.5-2.8,2l-0.2-0.2v6.4c-0.1,0.3-0.3,0.5-0.8,0.8s-1,0.4-1.5,0.4h-0.5v-13
	c-1,1.1-1.9,2-2.7,2.7l-0.5-0.4c2.3-3.8,3.9-8.3,4.9-13.5l4.2,1.3c-0.2,0.5-0.3,0.8-0.5,1c-0.2,0.2-0.4,0.2-0.7,0.2h-0.1
	c-0.7,1.9-1.3,3.4-1.9,4.4l1,0.4c-0.2,0.5-0.3,0.8-0.5,0.9c-0.1,0.2-0.3,0.2-0.5,0.3v7.2c1.1-1.1,2-2.2,2.7-3.5
	c0.7-1.2,1.3-2.4,1.6-3.4h-3l-0.4-1.5H96V4.9h-2.4l-0.4-1.5H96V0.1l3.8,0.3c-0.1,0.5-0.2,0.9-0.4,1.1C99.2,1.8,99,1.9,98.7,2v1.4
	h2.8V0.1l3.7,0.3c-0.1,0.5-0.3,0.9-0.4,1.1c-0.2,0.2-0.4,0.3-0.6,0.4v1.4h0.7l1.2-1.7c0,0.2,0.1,0.3,0.3,0.5
	c0.2,0.2,0.5,0.3,0.8,0.5c0.5,0.3,1,0.7,1.4,1.1c-0.1,0.4-0.2,0.7-0.4,0.8c-0.1,0.1-0.2,0.2-0.4,0.2h-3.7v2.5h1.4l1.2-1.6
	c0,0.3,0.3,0.6,1,1c0.5,0.3,0.9,0.7,1.5,1.1c-0.2,0.7-0.4,1-0.7,1h-9.8V8.6l-0.4,1L98,10.3h6.6l1.1-1.3l3,2.3
	c-0.3,0.4-0.6,0.6-0.8,0.8c-0.2,0.1-0.4,0.2-0.6,0.3v8.6c0,0.6-0.1,1.2-0.2,1.6c-0.1,0.5-0.4,0.9-0.9,1.1c-0.4,0.3-1.1,0.5-1.9,0.6
	c0-1,0-1.6-0.1-1.8c-0.2-0.4-0.6-0.6-1.2-0.7V21c0,0.1,0,0.1,0.1,0.1s0.3-0.1,0.6-0.2c0.3-0.2,0.5-0.2,0.6-0.2l0.4,0v-2.2h-2.5v3.8
	c0,0.2-0.2,0.5-0.6,0.8c-0.4,0.2-0.9,0.4-1.6,0.4h-0.5v-5H97V23c0,0.3-0.2,0.5-0.7,0.8C95.9,24.1,95.3,24.2,94.7,24.2L94.7,24.2z
	 M99.4,13.7v-1.9h-2.5l0,0v1.9L99.4,13.7L99.4,13.7z M99.4,17v-1.7H97V17H99.4z M101.5,7.3V4.9h-2.8v2.5H101.5z M104.6,13.7v-1.9
	h-2.5v1.9H104.6z M104.6,17v-1.7h-2.5V17H104.6z"/>
<path class="st0" d="M3.6,39.8v-6.5h3.8c0.6,0,1.1,0.1,1.5,0.4C9.2,34,9.3,34.4,9.3,35c0,0.3-0.1,0.5-0.2,0.7
	c-0.1,0.2-0.2,0.4-0.4,0.5c0.3,0.2,0.6,0.4,0.8,0.7c0.2,0.3,0.3,0.6,0.3,1c0,0.6-0.2,1.1-0.6,1.4c-0.4,0.3-0.9,0.5-1.6,0.5L3.6,39.8
	L3.6,39.8z M4.4,35.9h3.1c0.3,0,0.6-0.1,0.8-0.2s0.3-0.4,0.3-0.7c0-0.3-0.1-0.5-0.3-0.7s-0.4-0.2-0.8-0.2H4.4V35.9L4.4,35.9z
	 M4.4,39.1h3.4c0.4,0,0.7-0.1,0.9-0.3s0.3-0.5,0.3-0.9S8.8,37.2,8.6,37s-0.5-0.3-0.9-0.3H4.4V39.1z"/>
<path class="st0" d="M11,39.8l3.2-6.5h0.7l3.2,6.5h-0.9l-0.9-1.7h-3.6l-0.9,1.7H11L11,39.8z M13.1,37.3H16l-1.4-2.9L13.1,37.3z"/>
<path class="st0" d="M19,38.8l0.5-0.7c0.5,0.4,0.9,0.6,1.4,0.8s1,0.3,1.5,0.3c0.6,0,1.1-0.1,1.5-0.4c0.4-0.2,0.6-0.6,0.6-1
	c0-0.3-0.1-0.6-0.4-0.8c-0.3-0.2-0.6-0.3-1.1-0.4c-0.1,0-0.3,0-0.5,0c-1.1-0.1-1.8-0.2-2.2-0.4c-0.3-0.1-0.5-0.3-0.7-0.6
	s-0.2-0.5-0.2-0.8c0-0.5,0.2-1,0.7-1.3c0.5-0.3,1.1-0.5,1.8-0.5c0.5,0,1.1,0.1,1.6,0.3c0.5,0.2,1,0.4,1.5,0.8l-0.5,0.7
	c-0.4-0.3-0.8-0.6-1.3-0.7C22.8,34,22.3,34,21.9,34c-0.5,0-0.9,0.1-1.2,0.3s-0.5,0.4-0.5,0.7c0,0.1,0,0.2,0.1,0.3s0.1,0.2,0.2,0.3
	c0.3,0.2,0.8,0.3,1.7,0.4c0.4,0,0.7,0,0.9,0.1c0.7,0.1,1.2,0.3,1.6,0.6c0.4,0.3,0.6,0.8,0.6,1.3c0,0.6-0.3,1.1-0.8,1.5
	C24,39.8,23.3,40,22.4,40c-0.6,0-1.2-0.1-1.8-0.3C20.1,39.5,19.5,39.2,19,38.8L19,38.8z"/>
<path class="st0" d="M27.4,39.8v-6.5h5.1v0.7h-4.3V36h2.6v0.7h-2.6v2.3h4.6v0.7L27.4,39.8L27.4,39.8z"/>
<path class="st0" d="M39.2,39.8v-6.5h5.1v0.7H40V36h2.6v0.7H40v2.3h4.5v0.7L39.2,39.8L39.2,39.8z"/>
<path class="st0" d="M46.3,39.8v-6.5h0.4l4.2,4.8v-4.8h0.8v6.5h-0.4L47.1,35v4.8H46.3L46.3,39.8z"/>
<path class="st0" d="M59.2,38.1v-1h-1.8v-0.7H60v2c-0.3,0.5-0.7,0.9-1.2,1.2S57.7,40,57.1,40c-1,0-1.8-0.3-2.4-1s-1-1.5-1-2.4
	s0.3-1.8,1-2.4s1.4-1,2.4-1c0.6,0,1.1,0.1,1.6,0.4c0.5,0.3,0.9,0.6,1.2,1.1l-0.7,0.5c-0.2-0.4-0.5-0.7-0.9-0.9
	C58,34.1,57.6,34,57.1,34c-0.7,0-1.3,0.2-1.8,0.8c-0.5,0.5-0.7,1.1-0.7,1.9c0,0.8,0.2,1.4,0.7,1.9c0.5,0.5,1.1,0.7,1.8,0.7
	c0.5,0,0.9-0.1,1.2-0.3C58.7,38.8,59,38.5,59.2,38.1L59.2,38.1z"/>
<path class="st0" d="M62.3,39.8v-6.5h0.8v6.5H62.3z"/>
<path class="st0" d="M65.7,39.8v-6.5h0.4l4.2,4.8v-4.8h0.8v6.5h-0.4L66.5,35v4.8H65.7L65.7,39.8z"/>
<path class="st0" d="M73.6,39.8v-6.5h5.1v0.7h-4.3V36H77v0.7h-2.6v2.3H79v0.7L73.6,39.8L73.6,39.8z"/>
<path class="st0" d="M80.8,39.8v-6.5h5.1v0.7h-4.3V36h2.6v0.7h-2.6v2.3h4.6v0.7L80.8,39.8L80.8,39.8z"/>
<path class="st0" d="M87.9,39.8v-6.5h3.7c0.6,0,1.1,0.2,1.5,0.5c0.4,0.3,0.5,0.8,0.5,1.3c0,0.5-0.1,0.9-0.4,1.2
	c-0.3,0.3-0.7,0.5-1.1,0.6l1.6,2.8h-0.9L91.2,37h-2.5v2.8L87.9,39.8L87.9,39.8z M88.7,36.2h2.8c0.4,0,0.7-0.1,0.9-0.3
	s0.3-0.4,0.3-0.8c0-0.3-0.1-0.6-0.3-0.8c-0.2-0.2-0.5-0.3-0.9-0.3h-2.9V36.2L88.7,36.2z"/>
<path class="st0" d="M95.7,39.8v-6.5h0.8v6.5H95.7z"/>
<path class="st0" d="M99,39.8v-6.5h0.4l4.2,4.8v-4.8h0.8v6.5h-0.4L99.8,35v4.8H99L99,39.8z"/>
<path class="st0" d="M111.9,38.1v-1h-1.8v-0.7h2.6v2c-0.3,0.5-0.7,0.9-1.2,1.2s-1.1,0.4-1.7,0.4c-1,0-1.8-0.3-2.4-1
	s-0.9-1.5-0.9-2.4s0.3-1.8,0.9-2.4s1.4-1,2.4-1c0.6,0,1.1,0.1,1.6,0.4c0.5,0.3,0.9,0.6,1.2,1.1l-0.7,0.5c-0.2-0.4-0.5-0.7-0.9-0.9
	c-0.4-0.2-0.8-0.3-1.3-0.3c-0.7,0-1.3,0.2-1.8,0.8s-0.7,1.1-0.7,1.9c0,0.8,0.2,1.4,0.7,1.9s1.1,0.7,1.8,0.7c0.4,0,0.9-0.1,1.2-0.3
	C111.4,38.8,111.7,38.5,111.9,38.1L111.9,38.1z"/>
</svg>
