<svg width="117" height="40" viewBox="0 0 117 40" fill="none" xmlns="http://www.w3.org/2000/svg">
<path d="M7.56503 24.08L7.09503 23.28C9.13503 21.7 10.435 20.22 11.005 18.83C10.045 17.59 9.13504 15.39 8.29504 12.24L8.59503 12.07C9.34503 14.18 10.405 15.84 11.775 17.07C12.425 15.11 12.805 13.25 12.915 11.47H11.345L10.575 12.29L7.74504 10.47C8.39504 9.89002 8.87504 9.55002 9.18504 9.45002C9.63504 8.61002 10.105 7.65002 10.595 6.58002C11.085 5.51002 11.445 4.69002 11.675 4.11002H7.81503L7.36504 2.59002H11.965L13.085 1.45002L15.845 3.94002C15.545 4.27002 15.285 4.49002 15.075 4.60002C14.865 4.71002 14.635 4.77002 14.405 4.79002C13.555 6.71002 12.745 8.44002 11.965 9.96002H12.885L14.155 8.64002L16.845 10.9C16.595 11.3 16.395 11.55 16.235 11.66C16.075 11.77 15.875 11.83 15.625 11.85C15.295 14.32 14.645 16.48 13.685 18.34C14.865 18.97 16.395 19.4 18.285 19.62C20.175 19.84 22.415 19.95 25.005 19.95C27.745 19.95 29.695 19.95 30.875 19.93V21.02C29.685 21.28 29.085 22.1 29.085 23.46H24.785C21.915 23.46 19.485 23.25 17.485 22.83C15.485 22.41 13.775 21.57 12.345 20.33C11.065 21.94 9.47503 23.19 7.56503 24.08ZM20.675 20.4H20.125V17.34H15.125L14.705 15.82H20.125V14.03H16.265L15.845 12.54H20.125V10.8H16.565L16.115 9.28002H20.115V7.54002H14.715L14.295 6.02002H20.115V4.30002H16.335L15.835 2.81002H20.115V0.0800171L23.875 0.430017C23.755 1.43002 23.435 1.93002 22.905 1.95002V2.82002H24.995L26.135 1.58002L29.075 3.77002C28.565 4.37002 28.135 4.70002 27.805 4.77002V6.04002H28.105L29.175 4.32002C29.175 4.49002 29.255 4.66002 29.425 4.83002C29.595 5.00002 29.805 5.19002 30.075 5.39002C30.495 5.70002 30.905 6.11002 31.315 6.61002C31.135 7.24002 30.895 7.55002 30.595 7.55002H27.805V10.63C27.735 10.91 27.445 11.15 26.935 11.35C26.425 11.55 25.955 11.65 25.545 11.65H25.125V10.8H22.915V12.54H25.405L26.675 10.85C26.675 11.03 26.775 11.2 26.975 11.36C27.175 11.52 27.435 11.7 27.745 11.89C28.255 12.17 28.785 12.55 29.315 13.03C29.195 13.45 29.085 13.71 28.965 13.84C28.845 13.96 28.715 14.03 28.565 14.03H22.915V15.82H26.025L27.465 14C27.465 14.18 27.585 14.36 27.815 14.54C28.045 14.71 28.335 14.9 28.685 15.1C29.245 15.42 29.835 15.82 30.455 16.32C30.325 16.75 30.195 17.03 30.055 17.15C29.925 17.27 29.795 17.34 29.655 17.34H22.915V19.26C22.915 19.56 22.665 19.82 22.185 20.06C21.695 20.29 21.195 20.41 20.685 20.41L20.675 20.4ZM25.125 6.02002V4.30002H22.915V6.02002H25.125ZM25.125 9.28002V7.54002H22.915V9.28002H25.125Z" fill="white"/>
<path d="M44.385 24.21H43.885V19.11C41.195 21.38 37.845 22.96 33.835 23.86L33.315 22.89C35.225 22.09 36.835 21.22 38.165 20.25C39.495 19.29 40.445 18.42 41.025 17.64H34.355L33.935 16.12H43.885V14.68C42.905 15.13 41.845 15.47 40.705 15.7L40.205 14.78C41.535 14.22 42.525 13.64 43.175 13.06C43.825 12.48 44.255 11.89 44.455 11.31C44.655 10.72 44.755 10.12 44.755 9.51V6.75L44.155 7.07L43.535 6.55C44.335 5.59 44.835 4.95 45.055 4.63L45.135 4.53C45.235 4.43 45.285 4.37 45.285 4.36C45.285 4.33 45.245 4.31 45.165 4.31H42.425C42.425 4.31 42.405 4.42 42.405 4.63L42.425 5.05C42.425 5.66 42.375 6.05 42.275 6.19L42.325 6.21C42.805 6.58 43.495 7.14 44.385 7.9C44.255 8.33 44.125 8.61 43.995 8.73C43.875 8.85 43.735 8.92 43.585 8.92H40.425V11.43C41.585 11.28 42.725 11.12 43.835 10.93L43.985 12.02C42.195 12.85 39.535 13.94 36.025 15.28C35.995 15.38 35.945 15.47 35.875 15.55C35.805 15.63 35.755 15.7 35.705 15.75L35.605 15.82L33.785 12.24C34.915 12.14 36.235 11.99 37.765 11.79V8.91H34.975L34.555 7.39H40.675C40.675 7.39 40.715 7.36 40.745 7.35C40.775 7.34 40.795 7.32 40.795 7.29C40.795 7.26 40.715 7.2 40.555 7.1C40.395 7.01 40.165 6.83 39.845 6.57V6.32C39.845 5.47 39.685 4.79 39.375 4.28H38.425C36.945 5.91 35.445 7.07 33.895 7.76L33.295 7.16C35.155 5.22 36.515 2.83 37.375 0L40.955 1.47C40.755 1.97 40.575 2.28 40.415 2.4C40.255 2.52 40.075 2.59 39.875 2.59L39.675 2.57C39.555 2.77 39.485 2.89 39.455 2.93C39.425 2.97 39.405 3 39.405 3.02L39.575 2.77H42.235L43.405 1.18C43.405 1.36 43.495 1.53 43.695 1.69C43.885 1.85 44.135 2.03 44.425 2.22C44.875 2.49 45.325 2.83 45.765 3.24C46.275 2.24 46.715 1.17 47.085 0.00999999L50.665 1.15C50.485 1.63 50.295 1.95 50.115 2.12C49.935 2.29 49.715 2.37 49.465 2.37H49.385L49.015 2.94C49.015 2.94 49.085 2.88 49.165 2.77H52.925L54.245 1.08C54.245 1.26 54.355 1.44 54.565 1.61C54.785 1.78 55.065 1.97 55.415 2.17C55.915 2.45 56.435 2.82 56.985 3.26C56.855 3.69 56.725 3.97 56.585 4.09C56.455 4.21 56.315 4.28 56.185 4.28H52.725C52.725 4.28 52.655 4.5 52.655 4.95C52.605 5.66 52.535 6.09 52.455 6.22L54.345 7.81C54.075 8.14 53.875 8.36 53.725 8.47C53.575 8.58 53.425 8.64 53.275 8.66V11.79C53.275 11.79 53.435 11.74 53.645 11.74H54.935C55.205 11.74 55.355 11.68 55.405 11.57C55.555 11.29 55.795 10.6 56.125 9.51L56.245 9.19H56.415L56.485 11.6C56.945 11.82 57.185 12.27 57.185 12.97C57.185 14.23 56.155 14.86 54.105 14.86H52.815C51.965 14.86 51.425 14.66 51.175 14.25C50.925 13.84 50.805 13.23 50.805 12.4V8.45H47.375V8.8C49.665 9.25 50.805 10.1 50.805 11.36C50.805 11.44 50.775 11.64 50.715 11.96C50.655 12.28 50.405 12.56 49.955 12.81C49.785 12.89 49.615 12.93 49.435 12.93C49.155 12.93 48.865 12.82 48.565 12.61C48.465 11.63 48.065 10.74 47.375 9.92C47.355 10.6 47.195 11.34 46.895 12.13C46.585 12.93 46.115 13.51 45.465 13.87L47.675 14.04C47.545 15 47.225 15.5 46.725 15.53V16.1H52.645L53.985 14.46C53.985 14.64 54.095 14.82 54.305 14.98C54.515 15.15 54.805 15.32 55.155 15.5C55.655 15.77 56.175 16.12 56.725 16.57C56.645 17.02 56.535 17.3 56.405 17.43C56.275 17.55 56.135 17.62 55.985 17.62H48.495C49.145 18.07 50.285 18.52 51.945 18.98C53.595 19.44 55.335 19.77 57.185 19.99L57.015 21.06C55.805 21.37 55.055 22.27 54.755 23.75C51.285 22.69 48.615 20.6 46.745 17.48V23.13C46.745 23.41 46.475 23.66 45.945 23.88C45.415 24.09 44.885 24.2 44.355 24.2L44.385 24.21ZM50.605 7.17C50.605 7.17 50.655 7.17 50.655 7.15L50.105 6.73C49.985 5.75 49.725 4.95 49.315 4.32H47.925C47.425 4.85 46.965 5.29 46.535 5.64C46.105 5.99 45.835 6.18 45.735 6.21L47.745 6.96H50.735L50.515 7.18H50.615L50.605 7.17Z" fill="white"/>
<path d="M70.055 6.40002H60.085L59.665 4.88002H67.325L68.445 3.41002C68.445 3.59002 68.535 3.76002 68.715 3.91002C68.895 4.06002 69.135 4.22002 69.415 4.38002C69.845 4.61002 70.305 4.94002 70.785 5.35002C70.705 5.80002 70.595 6.08002 70.465 6.21002C70.335 6.33002 70.195 6.40002 70.065 6.40002H70.055ZM69.035 12.79H61.105L60.685 11.27H66.435L67.5051 9.90002C67.5051 10.08 67.545 10.21 67.625 10.27C67.705 10.34 67.8251 10.39 67.9751 10.44C68.2251 10.51 68.535 10.68 68.925 10.96C69.605 10.23 70.115 9.48002 70.455 8.72002C70.795 7.96002 71.015 7.19002 71.115 6.42002C71.215 5.65002 71.265 4.91002 71.265 4.19002V0.750024L74.245 1.84002H76.555L77.775 0.520024L80.435 2.73002C80.165 3.06002 79.955 3.28002 79.775 3.39002C79.605 3.50002 79.435 3.56002 79.265 3.58002V7.29002L79.335 7.26002C79.335 7.26002 79.415 7.24002 79.425 7.24002H80.305C80.815 7.24002 81.1351 7.24002 81.2551 7.21002H81.5051L82.075 7.11002H82.245C82.545 7.26002 82.775 7.45002 82.945 7.67002C83.115 7.89002 83.195 8.20002 83.195 8.58002C83.195 9.87002 82.165 10.52 80.115 10.52H78.775C77.895 10.52 77.325 10.32 77.075 9.91002C76.815 9.50002 76.685 8.86002 76.685 7.98002V3.34002H73.875V4.21002C73.875 4.91002 73.785 5.73002 73.605 6.69002C73.425 7.64002 73.025 8.57002 72.425 9.46002C71.815 10.36 70.915 11.1 69.705 11.7L69.435 11.45C69.435 11.45 69.575 11.57 69.805 11.8C69.685 12.21 69.565 12.48 69.445 12.61C69.325 12.73 69.195 12.8 69.065 12.8L69.035 12.79ZM69.0051 9.58002H61.125L60.705 8.06002H66.425L67.495 6.64002C67.495 6.82002 67.5851 6.99002 67.7551 7.14002C67.9251 7.29002 68.155 7.44002 68.435 7.59002C68.845 7.82002 69.2851 8.15002 69.7551 8.59002C69.6351 9.01002 69.515 9.27002 69.395 9.40002C69.275 9.52002 69.1451 9.59002 69.0051 9.59002V9.58002ZM61.515 23.91H61.145V13.48L63.705 14.52H66.395L67.485 13.35L70.295 15.44C69.795 16.02 69.385 16.34 69.055 16.41V21.83C68.985 22.11 68.715 22.37 68.235 22.59C67.755 22.81 67.315 22.93 66.915 22.93H66.495V21.59H63.685V22.68C63.685 22.98 63.445 23.26 62.975 23.51C62.505 23.76 62.015 23.9 61.515 23.9V23.91ZM65.075 5.03002C64.765 5.03002 64.425 4.92002 64.085 4.71002C63.865 3.40002 63.175 2.13002 61.995 0.900024L62.565 0.400024C64.225 0.520024 65.365 0.860024 65.995 1.44002C66.545 1.95002 66.815 2.48002 66.815 3.03002C66.815 3.13002 66.7851 3.37002 66.7251 3.74002C66.6651 4.11002 66.375 4.47002 65.845 4.80002C65.595 4.95002 65.335 5.02002 65.075 5.02002V5.03002ZM66.495 20.1V16.02H63.685V20.1H66.495ZM67.115 24.1L66.665 23.1C69.935 21.79 72.2951 20.33 73.7551 18.72C72.7951 17.43 72.005 15.53 71.395 13.02H70.205L69.7551 11.5H77.685L79.155 10.08L81.965 12.62C81.715 12.98 81.505 13.22 81.315 13.33C81.135 13.44 80.895 13.49 80.595 13.49C79.645 15.65 78.595 17.32 77.435 18.51C78.825 19.26 80.785 19.89 83.305 20.4L83.205 21.44C81.965 21.71 81.155 22.51 80.795 23.85C78.755 23.14 76.905 22.01 75.245 20.47C72.975 22.16 70.265 23.36 67.115 24.08V24.1ZM75.175 17.11C76.355 15.52 77.115 14.16 77.465 13.03H71.965C72.445 14.36 73.515 15.72 75.175 17.11Z" fill="white"/>
<path d="M98.2151 6.29999H86.175L85.7551 4.77999H95.0351L96.325 3.10999C96.325 3.28999 96.425 3.46999 96.635 3.62999C96.845 3.79999 97.105 3.96999 97.415 4.14999C97.915 4.42999 98.4151 4.79999 98.9351 5.23999C98.8551 5.68999 98.7451 5.96999 98.6151 6.09999C98.4851 6.22999 98.3451 6.28999 98.2151 6.28999V6.29999ZM96.8951 9.50999H87.4651L87.045 8.01999H93.8151L95.0851 6.39999C95.0851 6.57999 95.185 6.74999 95.385 6.90999C95.585 7.06999 95.835 7.22999 96.135 7.39999C96.635 7.67999 97.1351 8.04999 97.6551 8.51999C97.5351 8.92999 97.415 9.19999 97.295 9.32999C97.175 9.44999 97.0451 9.51999 96.9051 9.51999L96.8951 9.50999ZM96.8951 12.74H87.4651L87.045 11.22H93.8151L95.0851 9.62999C95.0851 9.80999 95.185 9.97999 95.385 10.14C95.585 10.3 95.835 10.46 96.135 10.63C96.635 10.91 97.1351 11.28 97.6551 11.75C97.5351 12.16 97.415 12.43 97.295 12.56C97.175 12.68 97.0451 12.75 96.9051 12.75L96.8951 12.74ZM88.045 23.83H87.675V13.53L90.3151 14.6H93.9951L95.165 13.36L98.075 15.55C97.565 16.15 97.1251 16.48 96.7851 16.55V21.85C96.7151 22.13 96.4351 22.39 95.9351 22.61C95.4351 22.83 94.9851 22.95 94.5651 22.95H94.1151V21.53H90.2851V22.6C90.2851 22.9 90.0351 23.18 89.5351 23.45C89.0351 23.72 88.535 23.85 88.045 23.85V23.83ZM92.2751 4.99999C91.9551 4.99999 91.6151 4.87999 91.2551 4.64999C91.0551 3.26999 90.3351 1.91999 89.0951 0.599993L89.7451 0.199993C91.4151 0.329993 92.5751 0.699993 93.2251 1.28999C93.7851 1.81999 94.075 2.37999 94.075 2.95999C94.075 3.05999 94.0451 3.29999 93.9751 3.67999C93.9051 4.05999 93.615 4.41999 93.075 4.74999C92.825 4.91999 92.5651 4.99999 92.2751 4.99999ZM94.1151 20.02V16.09H90.2851V20.02H94.1151ZM101.995 24.07H101.445V10.72H97.5351L97.1151 9.19999H101.445V0.179993L105.345 0.549993C105.165 1.52999 104.825 2.02999 104.325 2.06999V9.20999H105.645L106.965 7.41999C106.965 7.61999 107.075 7.80999 107.285 7.97999C107.505 8.14999 107.785 8.34999 108.135 8.55999C108.635 8.85999 109.145 9.23999 109.675 9.69999C109.555 10.13 109.435 10.41 109.305 10.53C109.175 10.65 109.035 10.72 108.905 10.72H104.325V22.66C104.325 22.99 104.055 23.31 103.525 23.62C102.995 23.93 102.485 24.08 101.985 24.08L101.995 24.07Z" fill="white"/>
<path d="M17.14 39.83L20.31 33.36H20.98L24.19 39.83H23.32L22.44 38.09H18.87L18.01 39.83H17.15H17.14ZM19.23 37.33H22.08L20.65 34.46L19.23 37.33Z" fill="white"/>
<path d="M25.73 39.83V33.36H29.44C30.07 33.36 30.57 33.52 30.93 33.84C31.29 34.16 31.47 34.6 31.47 35.16C31.47 35.63 31.33 36.03 31.05 36.36C30.77 36.69 30.4 36.9 29.94 36.98L31.56 39.82H30.67L29.05 36.99H26.54V39.82H25.74L25.73 39.83ZM26.53 36.24H29.38C29.79 36.24 30.09 36.15 30.3 35.97C30.51 35.79 30.61 35.53 30.61 35.18C30.61 34.83 30.51 34.58 30.3 34.39C30.09 34.2 29.8 34.11 29.42 34.11H26.53V36.25V36.24Z" fill="white"/>
<path d="M38.69 37.77L39.33 38.25C39.03 38.81 38.63 39.25 38.11 39.55C37.59 39.85 37.01 40 36.35 40C35.38 40 34.58 39.68 33.95 39.04C33.32 38.4 33 37.59 33 36.61C33 35.63 33.32 34.81 33.95 34.18C34.58 33.55 35.38 33.22 36.35 33.22C36.95 33.22 37.49 33.35 37.98 33.61C38.47 33.87 38.87 34.24 39.18 34.73L38.51 35.21C38.31 34.82 38.01 34.52 37.63 34.3C37.25 34.08 36.82 33.97 36.35 33.97C35.62 33.97 35.02 34.22 34.55 34.72C34.08 35.22 33.84 35.85 33.84 36.61C33.84 37.37 34.08 38 34.55 38.5C35.02 39 35.63 39.24 36.35 39.24C36.86 39.24 37.31 39.12 37.7 38.86C38.09 38.6 38.42 38.24 38.68 37.76L38.69 37.77Z" fill="white"/>
<path d="M41.38 39.83V33.36H42.19V35.91H46V33.36H46.81V39.83H46V36.66H42.19V39.83H41.38Z" fill="white"/>
<path d="M49.39 39.83V33.33H50.2V39.83H49.39Z" fill="white"/>
<path d="M53.87 39.83V34.11H51.15V33.37H57.4V34.11H54.68V39.83H53.87Z" fill="white"/>
<path d="M58.35 39.83V33.36H63.44V34.1H59.16V36H61.75V36.74H59.16V39.08H63.71V39.82H58.36L58.35 39.83Z" fill="white"/>
<path d="M70.66 37.77L71.3 38.25C71 38.81 70.6 39.25 70.08 39.55C69.56 39.85 68.98 40 68.32 40C67.35 40 66.55 39.68 65.92 39.04C65.29 38.4 64.97 37.59 64.97 36.61C64.97 35.63 65.29 34.81 65.92 34.18C66.55 33.55 67.35 33.22 68.32 33.22C68.92 33.22 69.46 33.35 69.95 33.61C70.44 33.87 70.84 34.24 71.15 34.73L70.48 35.21C70.28 34.82 69.98 34.52 69.6 34.3C69.22 34.08 68.79 33.97 68.32 33.97C67.59 33.97 66.99 34.22 66.52 34.72C66.05 35.22 65.81 35.85 65.81 36.61C65.81 37.37 66.05 38 66.52 38.5C66.99 39 67.6 39.24 68.32 39.24C68.83 39.24 69.28 39.12 69.67 38.86C70.06 38.6 70.39 38.24 70.65 37.76L70.66 37.77Z" fill="white"/>
<path d="M74.47 39.83V34.11H71.75V33.37H78V34.11H75.28V39.83H74.47Z" fill="white"/>
<path d="M79.58 33.36V37.55C79.58 38.22 79.71 38.67 79.96 38.9C80.21 39.13 80.71 39.24 81.45 39.24C82.19 39.24 82.68 39.13 82.93 38.9C83.18 38.67 83.31 38.22 83.31 37.55V33.36H84.12V37.77C84.12 38.57 83.91 39.14 83.5 39.48C83.09 39.82 82.4 40 81.46 40C80.52 40 79.83 39.83 79.42 39.48C79.01 39.13 78.8 38.56 78.8 37.77V33.36H79.6H79.58Z" fill="white"/>
<path d="M86.47 39.83V33.36H90.18C90.81 33.36 91.31 33.52 91.67 33.84C92.03 34.16 92.21 34.6 92.21 35.16C92.21 35.63 92.07 36.03 91.79 36.36C91.51 36.69 91.14 36.9 90.68 36.98L92.3 39.82H91.41L89.79 36.99H87.28V39.82H86.48L86.47 39.83ZM87.27 36.24H90.12C90.53 36.24 90.83 36.15 91.04 35.97C91.25 35.79 91.35 35.53 91.35 35.18C91.35 34.83 91.25 34.58 91.04 34.39C90.83 34.2 90.54 34.11 90.16 34.11H87.27V36.25V36.24Z" fill="white"/>
<path d="M94.27 39.83V33.36H99.36V34.1H95.08V36H97.67V36.74H95.08V39.08H99.63V39.82H94.28L94.27 39.83Z" fill="white"/>
</svg>
