<svg width="117" height="40" viewBox="0 0 117 40" fill="none" xmlns="http://www.w3.org/2000/svg">
<path d="M8.24002 24.05L7.77002 23.25C9.81002 21.67 11.11 20.19 11.68 18.8C10.72 17.56 9.81002 15.36 8.97002 12.21L9.27002 12.04C10.02 14.15 11.08 15.81 12.45 17.04C13.1 15.08 13.48 13.22 13.59 11.44H12.02L11.25 12.26L8.42002 10.44C9.07002 9.85999 9.55002 9.51999 9.86002 9.41999C10.31 8.57999 10.78 7.61999 11.27 6.54999C11.76 5.47999 12.12 4.65999 12.35 4.07999H8.49002L8.04002 2.55999H12.65L13.77 1.41999L16.53 3.90999C16.23 4.23999 15.97 4.45999 15.76 4.56999C15.55 4.67999 15.32 4.73999 15.09 4.75999C14.24 6.67999 13.43 8.40999 12.65 9.92999H13.57L14.84 8.60999L17.53 10.87C17.28 11.27 17.08 11.52 16.92 11.63C16.76 11.74 16.56 11.8 16.31 11.82C15.98 14.29 15.33 16.45 14.37 18.31C15.55 18.94 17.08 19.37 18.97 19.59C20.86 19.81 23.1 19.92 25.69 19.92C28.43 19.92 30.38 19.92 31.56 19.9V20.99C30.37 21.25 29.77 22.07 29.77 23.43H25.47C22.6 23.43 20.17 23.22 18.17 22.8C16.17 22.38 14.46 21.54 13.03 20.3C11.75 21.91 10.16 23.16 8.25002 24.05H8.24002ZM21.35 20.37H20.8V17.31H15.8L15.38 15.79H20.8V14H16.94L16.52 12.51H20.8V10.77H17.24L16.79 9.24999H20.79V7.50999H15.41L14.99 5.98999H20.81V4.26999H17.03L16.53 2.77999H20.81V0.0499878L24.57 0.399988C24.45 1.39999 24.13 1.89999 23.6 1.91999V2.78999H25.69L26.83 1.54999L29.77 3.73999C29.26 4.33999 28.83 4.66999 28.5 4.73999V6.00999H28.8L29.87 4.28999C29.87 4.45999 29.95 4.62999 30.12 4.79999C30.29 4.96999 30.5 5.15999 30.77 5.35999C31.19 5.66999 31.6 6.07999 32.01 6.57999C31.83 7.20999 31.59 7.51999 31.29 7.51999H28.5V10.6C28.43 10.88 28.14 11.12 27.63 11.32C27.12 11.52 26.65 11.62 26.24 11.62H25.82V10.77H23.61V12.51H26.1L27.37 10.82C27.37 11 27.47 11.17 27.67 11.33C27.87 11.49 28.13 11.67 28.44 11.86C28.95 12.14 29.48 12.52 30.01 13C29.89 13.42 29.78 13.68 29.66 13.81C29.54 13.93 29.41 14 29.26 14H23.61V15.79H26.72L28.16 13.97C28.16 14.15 28.28 14.33 28.51 14.51C28.74 14.68 29.03 14.87 29.38 15.07C29.94 15.39 30.53 15.79 31.15 16.29C31.02 16.72 30.89 17 30.75 17.12C30.62 17.24 30.49 17.31 30.35 17.31H23.61V19.23C23.61 19.53 23.36 19.79 22.88 20.03C22.39 20.26 21.89 20.38 21.38 20.38L21.35 20.37ZM25.8 5.98999V4.26999H23.59V5.98999H25.8ZM25.8 9.24999V7.50999H23.59V9.24999H25.8Z" fill="#EA5514"/>
<path d="M44.5901 6.37H34.6201L34.2001 4.85H41.8601L42.9801 3.38C42.9801 3.56 43.0701 3.73 43.2501 3.88C43.4301 4.03 43.6601 4.19 43.9501 4.35C44.3801 4.58 44.8401 4.91 45.3201 5.32C45.2401 5.77 45.1301 6.05 45.0001 6.18C44.8701 6.3 44.7301 6.37 44.6001 6.37H44.5901ZM43.5701 12.76H35.6401L35.2201 11.24H40.9701L42.0401 9.87C42.0401 10.05 42.0801 10.18 42.1601 10.24C42.2401 10.3 42.3601 10.36 42.5101 10.41C42.7601 10.48 43.0701 10.65 43.4601 10.93C44.1401 10.2 44.6501 9.44999 44.9901 8.68999C45.3301 7.92999 45.5501 7.16 45.6501 6.39C45.7501 5.62 45.8001 4.88 45.8001 4.16V0.719995L48.7801 1.81H51.0901L52.3101 0.489995L54.9701 2.7C54.7001 3.03 54.4801 3.24999 54.3101 3.35999C54.1401 3.46999 53.9701 3.52999 53.8001 3.54999V7.26L53.8801 7.23C53.8801 7.23 53.9601 7.21 53.9701 7.21H54.8501C55.3601 7.21 55.6801 7.21 55.8001 7.18H56.0501L56.6201 7.08H56.7901C57.0901 7.23 57.3201 7.42 57.4901 7.64C57.6601 7.86 57.7401 8.17 57.7401 8.55C57.7401 9.84 56.7101 10.49 54.6601 10.49H53.3201C52.4401 10.49 51.8701 10.29 51.6201 9.88C51.3601 9.47 51.2401 8.83 51.2401 7.95V3.31H48.4301V4.18C48.4301 4.88 48.3401 5.7 48.1601 6.66C47.9801 7.61 47.5801 8.54 46.9801 9.43C46.3701 10.33 45.4701 11.07 44.2601 11.67L43.9901 11.42C43.9901 11.42 44.1301 11.54 44.3601 11.77C44.2401 12.18 44.1201 12.45 44.0001 12.58C43.8801 12.71 43.7501 12.77 43.6101 12.77L43.5701 12.76ZM43.5501 9.55H35.6701L35.2501 8.02999H40.9701L42.0401 6.61C42.0401 6.79 42.1301 6.96 42.3001 7.11C42.4701 7.26 42.7001 7.41 42.9801 7.56C43.3901 7.79 43.8301 8.12 44.3001 8.56C44.1801 8.98 44.0601 9.24 43.9401 9.37C43.8201 9.49 43.6901 9.56 43.5501 9.56V9.55ZM36.0601 23.88H35.6901V13.46L38.2501 14.5H40.9401L42.0301 13.33L44.8401 15.42C44.3401 16 43.9301 16.32 43.6001 16.39V21.81C43.5301 22.09 43.2601 22.35 42.7801 22.57C42.3001 22.79 41.8601 22.91 41.4601 22.91H41.0401V21.57H38.2301V22.66C38.2301 22.96 37.9901 23.24 37.5201 23.49C37.0501 23.74 36.5601 23.88 36.0601 23.88ZM39.6201 5C39.3001 5 38.9701 4.89 38.6201 4.68C38.4101 3.37 37.7101 2.1 36.5301 0.869995L37.1001 0.369995C38.7601 0.489995 39.9001 0.829995 40.5301 1.41C41.0801 1.92 41.3501 2.45 41.3501 3C41.3501 3.1 41.3201 3.34 41.2601 3.71C41.2001 4.08 40.9101 4.44 40.3801 4.77C40.1301 4.92 39.8701 4.99 39.6101 4.99L39.6201 5ZM41.0401 20.07V15.99H38.2301V20.07H41.0401ZM41.6601 24.07L41.2101 23.07C44.4801 21.76 46.8401 20.3 48.3001 18.69C47.3401 17.4 46.5501 15.5 45.9401 12.99H44.7501L44.3001 11.47H52.2301L53.7001 10.05L56.5101 12.59C56.2601 12.95 56.0501 13.19 55.8601 13.3C55.6801 13.41 55.4401 13.46 55.1401 13.46C54.1901 15.62 53.1401 17.29 51.9801 18.48C53.3701 19.23 55.3301 19.86 57.8501 20.37L57.7501 21.41C56.5101 21.68 55.7001 22.48 55.3401 23.82C53.3001 23.11 51.4501 21.98 49.7901 20.44C47.5201 22.13 44.8101 23.33 41.6601 24.05V24.07ZM49.7201 17.08C50.9001 15.49 51.6601 14.13 52.0101 13H46.5101C46.9901 14.33 48.0601 15.69 49.7201 17.08Z" fill="#EA5514"/>
<path d="M71.13 24.18H70.61V18.46C67.94 20.73 64.74 22.38 61.01 23.41L60.51 22.49C62.35 21.58 63.93 20.6 65.26 19.54C66.59 18.49 67.55 17.55 68.15 16.74H61.29L60.87 15.22H70.62V13.58H63.71L63.29 12.09H70.63V10.67H62.5L62.08 9.18H66.73C67.14 9.36 67.46 9.5 67.68 9.58C67.89 9.66 68.04 9.72 68.13 9.75H68.23L68.08 9.6L68.03 9.57C67.91 8.28 67.53 7.23 66.89 6.44H61.15L60.73 4.95H61.25C63.49 5.33 64.82 5.52 65.25 5.52C65.33 5.52 65.37 5.5 65.37 5.47L65.12 5.27C65.07 3.86 64.4 2.48 63.11 1.14L63.76 0.72C65.02 0.95 65.99 1.33 66.66 1.86C67.33 2.39 67.86 2.92 68.24 3.44C68.62 3.96 69.02 4.37 69.43 4.67C69.73 4.89 70.11 4.99 70.57 4.99C70.75 4.99 70.94 4.97 71.14 4.94H68.8V0L72.13 0.3C72.1 0.78 72.01 1.13 71.87 1.34C71.73 1.56 71.55 1.68 71.33 1.71V4.94H73.05V0L76.48 0.3C76.33 1.23 76.04 1.7 75.61 1.72V4.95H76.43C76.98 3.82 77.52 2.36 78.05 0.57L81.63 1.69C81.46 2.19 81.29 2.51 81.11 2.66C80.99 2.78 80.84 2.83 80.64 2.83L80.44 2.81C80.12 3.14 79.79 3.47 79.43 3.79C79.07 4.11 78.77 4.38 78.51 4.6C78.25 4.82 78.11 4.93 78.07 4.95H79.59L80.96 3.36C80.96 3.54 81.07 3.71 81.28 3.86C81.49 4.01 81.77 4.18 82.1 4.36C82.61 4.63 83.17 4.99 83.77 5.45C83.64 5.88 83.51 6.16 83.39 6.27C83.27 6.39 83.13 6.44 82.98 6.44H79.35L78.7 6.27C78.53 6.78 78.37 7.11 78.2 7.25C78.03 7.39 77.8 7.46 77.5 7.46C77.17 7.78 76.83 8.08 76.48 8.38L75.53 9.18H78.29L79.68 7.51C79.68 7.69 79.79 7.86 80.01 8.02C80.23 8.18 80.51 8.36 80.84 8.56C81.37 8.83 81.93 9.19 82.51 9.65C82.29 10.33 82.04 10.67 81.74 10.67H73.56V12.09H77.46L78.78 10.55C78.78 10.73 78.89 10.9 79.1 11.05C79.31 11.2 79.59 11.37 79.92 11.55C80.42 11.8 80.95 12.14 81.51 12.57C81.38 13 81.25 13.28 81.13 13.4C81.01 13.52 80.87 13.59 80.72 13.59H73.56V15.23H79.16L80.6 13.49C80.6 13.67 80.71 13.85 80.94 14.01C81.16 14.18 81.45 14.36 81.8 14.56C82.33 14.86 82.88 15.24 83.44 15.7C83.31 16.4 83.07 16.74 82.72 16.74H75.26C75.99 17.35 77.18 17.98 78.82 18.61C80.46 19.24 82.17 19.73 83.94 20.08L83.87 21.15C82.73 21.4 82.01 22.18 81.73 23.49C78.4 22.16 75.78 19.92 73.9 16.75H73.58V23.17C73.53 23.4 73.29 23.63 72.86 23.85C72.43 24.07 71.86 24.19 71.17 24.19L71.13 24.18ZM71.18 9.21L71.23 9.19H73.69C74.2 8.06 74.54 7.15 74.71 6.45H70.48C70.73 6.58 70.88 7.15 70.93 8.14C70.95 8.46 70.97 8.71 71 8.91C71.03 9.11 71.09 9.21 71.17 9.21H71.18Z" fill="#EA5514"/>
<path d="M87.97 16.54L86.6 13.38C86.6 13.38 86.6 13.43 86.63 13.43C86.68 13.43 86.86 13.27 87.18 12.96C87.36 12.73 87.51 12.58 87.63 12.51C88.18 12.05 88.71 11.52 89.25 10.93C89.78 10.34 90.17 9.86999 90.42 9.49999C90.29 9.54999 90.05 9.64999 89.71 9.78999C89.37 9.92999 88.98 10.08 88.55 10.22C88.45 10.35 88.3 10.52 88.1 10.72L86.83 7.63999C86.83 7.63999 86.83 7.68999 86.86 7.68999L86.91 7.63999C86.91 7.63999 86.99 7.57999 87.06 7.49999C87.13 7.41999 87.2 7.33999 87.27 7.23999C87.34 7.13999 87.42 7.04999 87.51 6.94999C87.59 6.85999 87.66 6.79999 87.71 6.75999C88.27 6.07999 88.84 5.06999 89.41 3.73999C89.98 2.40999 90.39 1.20999 90.64 0.149988L94.1 1.78999C93.92 2.23999 93.75 2.51999 93.59 2.64999C93.43 2.76999 93.25 2.83999 93.03 2.83999H92.95C92.39 3.66999 91.75 4.50999 91.03 5.35999C90.32 6.20999 89.76 6.81999 89.36 7.18999C90.44 7.18999 91.31 7.18999 91.97 7.16999C92.78 5.85999 93.38 4.70999 93.76 3.70999L96.87 5.89999C96.64 6.29999 96.43 6.54999 96.25 6.64999C96.13 6.71999 96.01 6.74999 95.88 6.74999C95.8 6.74999 95.71 6.72999 95.61 6.69999C94.8 7.78999 93.82 8.92999 92.69 10.11C91.55 11.29 90.6 12.17 89.84 12.77L93.64 12.5C93.56 12.19 93.15 11.37 92.42 10.06L92.94 9.80999C94.32 10.37 95.24 11.01 95.73 11.73C96.11 12.29 96.3 12.82 96.3 13.32C96.3 13.44 96.27 13.67 96.2 14.03C96.13 14.39 95.88 14.67 95.43 14.89C95.26 14.97 95.1 15.01 94.93 15.01C94.63 15.01 94.33 14.89 94.03 14.64C94.03 14.18 94.01 13.93 93.98 13.89C92.42 14.54 90.57 15.25 88.43 16.03C88.28 16.3 88.12 16.47 87.96 16.55L87.97 16.54ZM87.97 22.98C87.97 22.98 87.81 22.98 87.58 22.97C87.36 22.97 87.11 22.73 86.85 22.29C86.7 21.97 86.63 21.67 86.63 21.37C86.63 21.15 86.7 20.87 86.83 20.51C86.96 20.15 87.21 19.84 87.58 19.58C87.86 19.28 88.11 18.84 88.33 18.26C88.48 17.85 88.55 17.4 88.55 16.92C88.55 16.7 88.53 16.47 88.5 16.22H88.85C89.35 17.58 89.6 18.77 89.6 19.8C89.6 19.87 89.6 20.19 89.59 20.77C89.59 21.35 89.36 21.93 88.93 22.51C88.67 22.83 88.35 22.98 87.99 22.98H87.97ZM91.7 21.76C91.35 21.76 90.99 21.57 90.63 21.19C90.75 20.48 90.8 19.76 90.8 19.05C90.8 18.02 90.68 17 90.45 15.99L90.8 15.92C92.23 17.11 92.99 18.23 93.09 19.28L93.12 19.73C93.12 20.54 92.88 21.14 92.4 21.52C92.17 21.69 91.94 21.77 91.7 21.77V21.76ZM95.01 20.64C94.73 20.64 94.42 20.5 94.09 20.22V19.9C94.09 18.47 93.7 17.02 92.92 15.52L93.44 15.3C95.06 16.18 95.99 17.1 96.23 18.06C96.3 18.36 96.33 18.63 96.33 18.88C96.33 19.46 96.16 19.92 95.81 20.27C95.56 20.52 95.3 20.64 95.01 20.64ZM94.89 24.12L94.44 23.25C95.45 22.62 96.69 21.72 98.17 20.56C98.34 20.41 98.43 20.34 98.44 20.34C98.59 20.22 98.66 20.15 98.66 20.12C98.66 20.1 98.62 20.1 98.54 20.1L98.22 20.12C97.97 20.17 97.57 20.2 97 20.2V8.97999L99.79 10.1H105.31L106.48 8.82999L109.42 11.02C108.96 11.6 108.56 11.92 108.23 11.99V18.61C108.2 18.79 108.05 18.97 107.78 19.13C107.51 19.3 107.21 19.43 106.86 19.53C106.51 19.63 106.2 19.68 105.91 19.68H105.41V18.81H99.71C99.71 18.74 99.71 18.7 99.73 18.69L100.1 18.17L103.58 19.86C103.31 20.31 103.08 20.59 102.88 20.69C102.68 20.8 102.46 20.85 102.21 20.85L101.91 20.82C100.03 22.18 97.69 23.28 94.87 24.13L94.89 24.12ZM109.29 9.46999H95.76L95.34 7.97999H100.89V6.83999H97.18L96.76 5.31999H100.89V4.22999H96.39L95.97 2.73999H100.89V0.0499878L104.67 0.369988C104.54 1.34999 104.21 1.84999 103.67 1.85999V2.72999H105.21L106.48 1.13999C106.48 1.31999 106.58 1.48999 106.79 1.64999C107 1.80999 107.27 1.97999 107.6 2.15999C108.1 2.42999 108.62 2.76999 109.17 3.19999C109.04 3.62999 108.91 3.90999 108.78 4.02999C108.66 4.14999 108.53 4.21999 108.4 4.21999H103.67V5.30999H104.67L105.86 3.88999C105.86 4.06999 105.96 4.23999 106.15 4.38999C106.34 4.53999 106.59 4.68999 106.91 4.83999C107.36 5.06999 107.82 5.38999 108.3 5.78999C108.22 6.23999 108.11 6.51999 107.98 6.64999C107.85 6.76999 107.72 6.83999 107.58 6.83999H103.67V7.97999H106.13L107.42 6.43999C107.42 6.61999 107.52 6.78999 107.73 6.93999C107.94 7.08999 108.2 7.24999 108.51 7.43999C109.01 7.68999 109.53 8.02999 110.08 8.45999C109.95 8.88999 109.81 9.16999 109.68 9.28999C109.55 9.40999 109.41 9.47999 109.28 9.47999L109.29 9.46999ZM105.41 12.41V11.59H99.71V12.41H105.41ZM105.41 14.92V13.92H99.71V14.92H105.41ZM105.41 17.31V16.44H99.71V17.31H105.41ZM108.07 23.9C107.67 23.9 107.3 23.73 106.95 23.4C106.39 22.32 105.04 21.09 102.9 19.69L103.32 18.77C106.02 19.19 107.85 19.74 108.79 20.44C109.59 21.04 109.98 21.61 109.98 22.16C109.98 22.26 109.93 22.49 109.84 22.86C109.75 23.22 109.37 23.53 108.71 23.78C108.5 23.86 108.28 23.9 108.06 23.9H108.07Z" fill="#EA5514"/>
<path d="M22.7751 37.77L23.4151 38.25C23.1151 38.81 22.7151 39.25 22.1951 39.55C21.6751 39.85 21.0951 40 20.4351 40C19.4651 40 18.6651 39.68 18.0351 39.04C17.4051 38.4 17.0851 37.59 17.0851 36.61C17.0851 35.63 17.4051 34.81 18.0351 34.18C18.6651 33.55 19.4651 33.22 20.4351 33.22C21.0351 33.22 21.5751 33.35 22.0651 33.61C22.5551 33.87 22.9551 34.24 23.2651 34.73L22.5951 35.21C22.3951 34.82 22.0951 34.52 21.7151 34.3C21.3351 34.08 20.9051 33.97 20.4351 33.97C19.7051 33.97 19.1051 34.22 18.6351 34.72C18.1651 35.22 17.9251 35.85 17.9251 36.61C17.9251 37.37 18.1651 38 18.6351 38.5C19.1051 39 19.7151 39.24 20.4351 39.24C20.9451 39.24 21.3951 39.12 21.7851 38.86C22.1751 38.6 22.5051 38.24 22.7651 37.76L22.7751 37.77Z" fill="#EA5514"/>
<path d="M28.2951 40C27.3251 40 26.5251 39.68 25.8951 39.04C25.2651 38.4 24.9451 37.59 24.9451 36.61C24.9451 35.63 25.2651 34.81 25.8951 34.18C26.5251 33.55 27.3251 33.22 28.2951 33.22C29.2651 33.22 30.0651 33.54 30.7051 34.18C31.3451 34.82 31.6651 35.63 31.6651 36.61C31.6651 37.59 31.3451 38.4 30.7151 39.04C30.0851 39.68 29.2751 40 28.3051 40H28.2951ZM28.2951 39.24C29.0251 39.24 29.6251 38.99 30.0951 38.5C30.5651 38.01 30.8051 37.38 30.8051 36.61C30.8051 35.84 30.5651 35.21 30.0951 34.72C29.6251 34.23 29.0151 33.98 28.2851 33.98C27.5551 33.98 26.9551 34.23 26.4851 34.73C26.0151 35.23 25.7751 35.86 25.7751 36.62C25.7751 37.38 26.0151 38.01 26.4851 38.51C26.9551 39.01 27.5651 39.25 28.2851 39.25L28.2951 39.24Z" fill="#EA5514"/>
<path d="M33.665 39.83V33.36H34.085L38.285 38.19V33.36H39.095V39.83H38.685L34.475 35V39.83H33.675H33.665Z" fill="#EA5514"/>
<path d="M41.0051 38.86L41.4751 38.16C41.9351 38.52 42.4051 38.79 42.9051 38.97C43.4051 39.15 43.8851 39.25 44.3751 39.25C44.9751 39.25 45.4551 39.12 45.8351 38.87C46.2151 38.62 46.3951 38.29 46.3951 37.89C46.3951 37.57 46.2651 37.31 45.9951 37.11C45.7251 36.91 45.3551 36.78 44.8851 36.74C44.7751 36.73 44.6051 36.72 44.3951 36.7C43.3351 36.63 42.6051 36.5 42.2251 36.32C41.9251 36.18 41.6951 35.99 41.5351 35.76C41.3751 35.53 41.3051 35.27 41.3051 34.99C41.3051 34.47 41.5351 34.04 42.0051 33.71C42.4751 33.38 43.0751 33.21 43.8151 33.21C44.3551 33.21 44.8851 33.3 45.4151 33.48C45.9451 33.66 46.4351 33.92 46.9151 34.27L46.4451 34.94C46.0451 34.62 45.6251 34.38 45.1851 34.22C44.7451 34.06 44.2951 33.98 43.8251 33.98C43.3351 33.98 42.9351 34.07 42.6151 34.26C42.2951 34.45 42.1451 34.69 42.1451 34.97C42.1451 35.08 42.1751 35.19 42.2251 35.28C42.2751 35.37 42.3551 35.46 42.4551 35.54C42.7251 35.74 43.2951 35.87 44.1751 35.92C44.5851 35.94 44.8951 35.97 45.1151 36C45.7751 36.07 46.2951 36.29 46.6751 36.63C47.0551 36.97 47.2451 37.41 47.2451 37.91C47.2451 38.52 46.9851 39.01 46.4551 39.4C45.9251 39.79 45.2451 39.99 44.3851 39.99C43.7451 39.99 43.1451 39.9 42.5951 39.71C42.0451 39.52 41.5151 39.24 41.0151 38.85L41.0051 38.86Z" fill="#EA5514"/>
<path d="M50.515 39.83V34.11H47.795V33.37H54.045V34.11H51.325V39.83H50.515Z" fill="#EA5514"/>
<path d="M54.9551 39.83V33.36H58.6651C59.2951 33.36 59.7951 33.52 60.1551 33.84C60.5151 34.16 60.6951 34.6 60.6951 35.16C60.6951 35.63 60.5551 36.03 60.2751 36.36C59.9951 36.69 59.6251 36.9 59.1651 36.98L60.7851 39.82H59.8951L58.2751 36.99H55.7651V39.82H54.9651L54.9551 39.83ZM55.7551 36.24H58.6051C59.0151 36.24 59.3151 36.15 59.5251 35.97C59.7351 35.79 59.8351 35.53 59.8351 35.18C59.8351 34.83 59.7251 34.58 59.5251 34.39C59.3251 34.2 59.0251 34.11 58.6451 34.11H55.7551V36.25V36.24Z" fill="#EA5514"/>
<path d="M63.3851 33.36V37.55C63.3851 38.22 63.5151 38.67 63.7651 38.9C64.0151 39.13 64.5151 39.24 65.2551 39.24C65.9951 39.24 66.4851 39.13 66.7351 38.9C66.9851 38.67 67.1151 38.22 67.1151 37.55V33.36H67.9251V37.77C67.9251 38.57 67.7151 39.14 67.3051 39.48C66.8951 39.82 66.2051 40 65.2651 40C64.3251 40 63.6351 39.83 63.2251 39.48C62.8151 39.13 62.6051 38.56 62.6051 37.77V33.36H63.4051H63.3851Z" fill="#EA5514"/>
<path d="M75.4651 37.77L76.1051 38.25C75.8051 38.81 75.4051 39.25 74.8851 39.55C74.3651 39.85 73.7851 40 73.1251 40C72.1551 40 71.3551 39.68 70.7251 39.04C70.0951 38.4 69.7751 37.59 69.7751 36.61C69.7751 35.63 70.0951 34.81 70.7251 34.18C71.3551 33.55 72.1551 33.22 73.1251 33.22C73.7251 33.22 74.2651 33.35 74.7551 33.61C75.2451 33.87 75.6451 34.24 75.9551 34.73L75.2851 35.21C75.0851 34.82 74.7851 34.52 74.4051 34.3C74.0251 34.08 73.5951 33.97 73.1251 33.97C72.3951 33.97 71.7951 34.22 71.3251 34.72C70.8551 35.22 70.6151 35.85 70.6151 36.61C70.6151 37.37 70.8551 38 71.3251 38.5C71.7951 39 72.4051 39.24 73.1251 39.24C73.6351 39.24 74.0851 39.12 74.4751 38.86C74.8651 38.6 75.1951 38.24 75.4551 37.76L75.4651 37.77Z" fill="#EA5514"/>
<path d="M79.2751 39.83V34.11H76.5551V33.37H82.8051V34.11H80.0851V39.83H79.2751Z" fill="#EA5514"/>
<path d="M83.7651 39.83V33.33H84.5751V39.83H83.7651Z" fill="#EA5514"/>
<path d="M89.9551 40C88.9851 40 88.1851 39.68 87.5551 39.04C86.9251 38.4 86.6051 37.59 86.6051 36.61C86.6051 35.63 86.9251 34.81 87.5551 34.18C88.1851 33.55 88.9851 33.22 89.9551 33.22C90.9251 33.22 91.7251 33.54 92.3651 34.18C93.0051 34.82 93.3251 35.63 93.3251 36.61C93.3251 37.59 93.0051 38.4 92.3751 39.04C91.7451 39.68 90.9351 40 89.9651 40H89.9551ZM89.9551 39.24C90.6851 39.24 91.2851 38.99 91.7551 38.5C92.2251 38.01 92.4651 37.38 92.4651 36.61C92.4651 35.84 92.2251 35.21 91.7551 34.72C91.2851 34.23 90.6751 33.98 89.9451 33.98C89.2151 33.98 88.6151 34.23 88.1451 34.73C87.6751 35.23 87.4351 35.86 87.4351 36.62C87.4351 37.38 87.6751 38.01 88.1451 38.51C88.6151 39.01 89.2251 39.25 89.9451 39.25L89.9551 39.24Z" fill="#EA5514"/>
<path d="M95.3351 39.83V33.36H95.7551L99.9551 38.19V33.36H100.765V39.83H100.355L96.1451 35V39.83H95.3451H95.3351Z" fill="#EA5514"/>
</svg>
