<svg width="116" height="40" viewBox="0 0 116 40" fill="none" xmlns="http://www.w3.org/2000/svg">
<path d="M16.945 24.11H16.545V14.14C16.275 14.19 15.915 14.21 15.455 14.21V8.56003C15.325 8.68003 15.225 8.75003 15.155 8.77003C15.085 8.79003 14.165 8.81003 12.365 8.81003V15.35L15.625 14.63L15.875 15.5C14.315 16.69 12.025 18.19 9.01498 19.98C8.96498 20.08 8.90498 20.17 8.84498 20.25C8.77498 20.33 8.71498 20.4 8.65498 20.46C8.59498 20.52 8.55498 20.55 8.51498 20.57L6.72498 16.44C7.57498 16.29 8.54498 16.11 9.63498 15.89V8.80003H7.29498L6.87498 7.28003H9.63498V0.460029L13.365 0.810029C13.245 1.77003 12.915 2.27003 12.365 2.30003V7.30003H12.535L13.575 5.53003C13.575 5.70003 13.645 5.86003 13.795 6.02003C13.945 6.18003 14.135 6.35003 14.365 6.53003C14.715 6.80003 15.065 7.14003 15.435 7.57003V3.24003L18.145 4.33003H23.495C23.795 3.37003 24.185 1.93003 24.665 0.0300293L28.695 1.07003C28.525 1.58003 28.355 1.92003 28.185 2.07003C28.015 2.22003 27.795 2.29003 27.555 2.29003H27.485C27.165 2.57003 26.835 2.86003 26.475 3.16003C26.115 3.46003 25.805 3.72003 25.525 3.94003C25.245 4.16003 25.085 4.29003 25.045 4.33003H26.335L27.475 3.14003L30.315 5.25003C29.855 5.83003 29.465 6.14003 29.175 6.17003V12.69C29.145 12.87 28.995 13.04 28.735 13.2C28.475 13.36 28.175 13.49 27.835 13.58C27.495 13.67 27.185 13.73 26.905 13.73H27.525L28.965 14.82C28.685 15.18 28.455 15.44 28.265 15.58C28.085 15.72 27.895 15.8 27.695 15.82V22.93C27.665 23.11 27.515 23.28 27.245 23.44C26.975 23.6 26.665 23.73 26.315 23.83C25.955 23.93 25.635 23.98 25.355 23.98H24.905V22.46H19.255V22.83C19.255 23.14 19.005 23.43 18.495 23.7C17.985 23.97 17.465 24.1 16.915 24.1L16.945 24.11ZM20.005 4.96003C19.725 4.96003 19.425 4.87003 19.105 4.69003C18.835 3.31003 18.085 1.93003 16.845 0.540029L17.495 0.170029C19.075 0.390029 20.165 0.800029 20.775 1.41003C21.305 1.96003 21.575 2.52003 21.575 3.10003C21.575 3.17003 21.555 3.37003 21.515 3.72003C21.475 4.07003 21.215 4.41003 20.735 4.74003C20.505 4.89003 20.265 4.96003 20.015 4.96003H20.005ZM19.955 10.68C19.705 10.68 19.455 10.57 19.205 10.36C19.155 9.15003 18.715 7.86003 17.885 6.48003L18.435 6.21003C20.205 7.04003 21.095 8.04003 21.095 9.22003C21.095 9.34003 21.065 9.55003 20.995 9.85003C20.925 10.16 20.715 10.4 20.345 10.58C20.215 10.65 20.075 10.68 19.945 10.68H19.955ZM24.785 13.89L25.975 12.57L26.445 12.92V12.65H18.085V13C18.085 13.17 18.065 13.29 18.025 13.37C17.985 13.45 17.965 13.5 17.965 13.52V13.57H17.985C18.055 13.57 18.155 13.54 18.305 13.49L19.325 13.89H24.775H24.785ZM21.155 11.13V5.85003H18.095V11.12H21.155V11.13ZM24.935 17.37V15.41H19.285V17.37H24.935ZM24.935 20.95V18.89H19.285V20.95H24.935ZM26.455 11.13V8.17003C26.355 8.19003 26.195 8.19003 25.985 8.19003L25.915 8.31003C25.385 9.22003 24.815 10.03 24.195 10.75L23.695 10.6C24.095 9.09003 24.425 7.57003 24.695 6.05003L26.465 6.75003V5.85003H23.485V11.12H26.465L26.455 11.13Z" fill="#EB6519"/>
<path d="M36.525 24.11H35.975V11.23C35.015 12.39 34.115 13.3 33.285 13.97L32.765 13.67C35.065 9.74 36.725 5.19 37.735 0.01L41.985 1.23C41.815 1.73 41.645 2.06 41.465 2.24C41.285 2.41 41.045 2.5 40.745 2.5C40.115 4.34 39.455 5.86 38.775 7.05L39.795 7.42C39.645 7.87 39.495 8.17 39.345 8.34C39.195 8.51 39.035 8.6 38.875 8.61V22.94C38.795 23.22 38.515 23.49 38.025 23.74C37.545 23.99 37.035 24.11 36.505 24.11H36.525ZM56.375 23.21H39.615L39.195 21.69H41.985V5.9L44.895 7.02H45.915L45.965 5.25H40.815L40.395 3.76H45.995C46.025 2.8 46.045 1.55 46.045 0L50.095 0.35C49.915 1.33 49.565 1.84 49.055 1.89L48.835 3.76H51.765L53.255 1.8C53.255 1.98 53.375 2.17 53.615 2.36C53.855 2.55 54.155 2.76 54.525 2.99C55.085 3.32 55.665 3.74 56.265 4.23C56.135 4.66 56.005 4.94 55.875 5.06C55.755 5.18 55.615 5.25 55.465 5.25H48.625C48.575 5.81 48.505 6.4 48.425 7.02H50.835L52.005 5.5L55.235 7.79C54.965 8.19 54.735 8.45 54.535 8.59C54.335 8.72 54.105 8.81 53.835 8.84V21.72L54.905 20.1C54.905 20.28 54.985 20.45 55.155 20.6C55.325 20.75 55.525 20.91 55.775 21.1C56.185 21.38 56.615 21.76 57.045 22.22C56.915 22.88 56.685 23.22 56.375 23.22V23.21ZM50.975 10.58V8.54H44.705V10.58H50.975ZM50.975 14.14V12.1H44.705V14.14H50.975ZM50.975 17.67V15.66H44.705V17.67H50.975ZM50.975 21.7V19.19H44.705V21.7H50.975Z" fill="#EB6519"/>
<path d="M60.655 21.67L58.915 17.71C59.915 17.45 60.975 17.13 62.095 16.76V9.22H59.755L59.335 7.73H62.095V0.559998L65.825 0.909998C65.705 1.87 65.375 2.37 64.835 2.4V7.75H65.135L66.255 5.83C66.255 6 66.335 6.17 66.505 6.34C66.675 6.51 66.885 6.72 67.155 6.95C67.605 7.3 68.045 7.75 68.475 8.29C68.295 8.92 68.055 9.24 67.775 9.24H64.845V15.83C66.035 15.4 67.065 15.01 67.925 14.66L68.225 15.43C66.515 16.99 64.145 18.84 61.115 20.98C61.095 21.06 61.065 21.16 61.005 21.27C60.945 21.38 60.885 21.47 60.815 21.56C60.745 21.64 60.695 21.68 60.665 21.68L60.655 21.67ZM76.055 23.26H72.625C71.645 23.26 70.855 23.17 70.245 23C69.635 22.83 69.195 22.5 68.915 22.02C68.635 21.54 68.495 20.84 68.495 19.91V10.76L66.135 11.63L65.215 10.46L68.495 9.24V2.1L72.255 2.5C72.085 3.46 71.765 3.96 71.285 3.99V8.22L73.475 7.42V0.0599976L77.135 0.429998C77.005 1.39 76.675 1.89 76.165 1.92V6.45L78.325 5.65L75.865 6.4H77.705L79.845 4.31L82.685 6.62C82.385 6.97 82.145 7.2 81.965 7.33C81.785 7.45 81.605 7.53 81.415 7.54C81.395 10.59 81.285 12.8 81.075 14.17C80.865 15.54 80.485 16.44 79.915 16.87C79.305 17.42 78.485 17.69 77.475 17.69C77.475 17.08 77.475 16.63 77.455 16.36C77.435 16.09 77.385 15.89 77.305 15.76C77.225 15.64 77.095 15.52 76.915 15.4C76.745 15.28 76.485 15.17 76.155 15.05V17.84C76.155 18.15 75.905 18.44 75.405 18.69C74.905 18.94 74.425 19.06 73.965 19.06H73.465V8.94L71.275 9.74V19.17C71.275 19.37 71.375 19.51 71.585 19.61C71.795 19.7 72.245 19.75 72.945 19.75H76.305C77.545 19.75 78.485 19.73 79.115 19.68C79.595 19.65 79.935 19.52 80.135 19.31C80.415 18.9 80.835 17.75 81.405 15.88H81.605L81.705 19.44C82.515 19.71 82.925 20.23 82.925 21.01C82.925 21.59 82.735 22.05 82.355 22.39C81.975 22.73 81.285 22.97 80.295 23.1C79.305 23.23 77.895 23.3 76.065 23.3L76.055 23.26ZM77.445 13.96C77.825 13.96 78.085 13.89 78.215 13.74C78.345 13.62 78.455 13.06 78.525 12.06C78.595 11.06 78.645 9.39 78.665 7.05L76.155 7.97V13.91C76.655 13.94 77.085 13.96 77.445 13.96Z" fill="#EB6519"/>
<path d="M88.295 24.14H87.925V19.84L87.305 20.14C87.275 20.24 87.225 20.33 87.155 20.43C87.085 20.52 87.025 20.59 86.965 20.64C86.905 20.69 86.865 20.72 86.855 20.74L84.895 16.83C85.855 16.68 86.865 16.5 87.925 16.28V1.69999L90.685 2.93999C91.815 1.95999 92.785 1.03999 93.595 0.179993L96.955 2.78999C96.755 3.03999 96.605 3.21999 96.495 3.31999C96.385 3.42999 96.275 3.47999 96.155 3.47999C96.035 3.47999 95.885 3.44999 95.705 3.39999C94.035 3.90999 92.355 4.33999 90.685 4.66999V7.32999H92.155L93.425 5.60999C93.425 5.80999 93.525 5.98999 93.735 6.15999C93.945 6.32999 94.205 6.50999 94.515 6.70999C94.975 7.00999 95.465 7.38999 95.985 7.84999C95.865 8.26999 95.745 8.52999 95.625 8.65999C95.505 8.77999 95.365 8.84999 95.215 8.84999H90.685V11.74H92.225L93.515 9.99999C93.515 10.2 93.615 10.38 93.825 10.55C94.035 10.72 94.295 10.9 94.605 11.1C95.085 11.38 95.575 11.76 96.075 12.22C95.945 12.9 95.705 13.24 95.355 13.24H90.675V15.7C92.545 15.34 94.455 14.93 96.395 14.48L96.565 15.48C95.005 16.36 93.045 17.38 90.665 18.54V22.94C90.635 23.2 90.415 23.47 90.015 23.74C89.615 24 89.035 24.14 88.275 24.14H88.295ZM92.645 24.17L92.175 23.17C95.735 21.83 98.315 20.25 99.915 18.44C99.085 17.15 98.395 15.31 97.855 12.92H96.415L95.915 11.43H103.525L104.995 9.98999L107.755 12.5C107.535 12.9 107.345 13.15 107.175 13.26C107.005 13.37 106.765 13.42 106.465 13.42C105.585 15.56 104.575 17.23 103.435 18.42C104.845 19.27 106.795 19.99 109.275 20.58L109.205 21.65C107.915 21.92 107.065 22.74 106.665 24.11C104.655 23.3 102.885 22.06 101.345 20.4C98.975 22.21 96.085 23.46 92.665 24.16L92.645 24.17ZM95.505 11.68L95.005 11.03C95.715 10.28 96.245 9.53999 96.585 8.78999C96.925 8.03999 97.135 7.30999 97.215 6.57999C97.295 5.84999 97.335 5.14999 97.335 4.46999V0.829993L100.395 1.91999H102.635L103.905 0.579993L106.665 2.81999C106.385 3.14999 106.155 3.36999 105.985 3.47999C105.815 3.58999 105.645 3.64999 105.475 3.66999V7.17999C105.475 7.17999 105.505 7.14999 105.575 7.12999C105.645 7.10999 105.995 7.10999 106.645 7.10999C107.055 7.10999 107.415 7.05999 107.715 6.95999C107.785 6.95999 107.835 6.97999 107.885 7.00999C108.185 7.13999 108.415 7.31999 108.585 7.54999C108.755 7.76999 108.835 8.07999 108.835 8.45999C108.835 9.15999 108.585 9.64999 108.085 9.94999C107.585 10.25 106.825 10.4 105.795 10.4H104.775C103.895 10.4 103.345 10.18 103.105 9.74999C102.875 9.31999 102.755 8.66999 102.755 7.80999V3.43999H100.045V4.45999C100.045 5.13999 99.945 5.92999 99.745 6.83999C99.545 7.73999 99.115 8.62999 98.455 9.48999C97.795 10.35 96.805 11.08 95.495 11.68H95.505ZM101.255 16.85C102.315 15.29 103.005 13.98 103.315 12.92H98.415C98.845 14.15 99.795 15.46 101.255 16.85Z" fill="#EB6519"/>
<path d="M31.98 39.83V33.36H32.78V39.08H37V39.82H31.97L31.98 39.83Z" fill="#EB6519"/>
<path d="M41.2 40C40.23 40 39.43 39.68 38.8 39.04C38.17 38.4 37.85 37.59 37.85 36.61C37.85 35.63 38.17 34.81 38.8 34.18C39.43 33.55 40.23 33.22 41.2 33.22C42.17 33.22 42.97 33.54 43.61 34.18C44.25 34.82 44.57 35.63 44.57 36.61C44.57 37.59 44.25 38.4 43.62 39.04C42.99 39.68 42.18 40 41.21 40H41.2ZM41.2 39.24C41.93 39.24 42.53 38.99 43 38.5C43.47 38.01 43.71 37.38 43.71 36.61C43.71 35.84 43.47 35.21 43 34.72C42.53 34.23 41.92 33.98 41.19 33.98C40.46 33.98 39.86 34.23 39.39 34.73C38.92 35.23 38.68 35.86 38.68 36.62C38.68 37.38 38.92 38.01 39.39 38.51C39.86 39.01 40.47 39.25 41.19 39.25L41.2 39.24Z" fill="#EB6519"/>
<path d="M51.74 37.77L52.38 38.25C52.08 38.81 51.68 39.25 51.16 39.55C50.64 39.85 50.06 40 49.4 40C48.43 40 47.63 39.68 47 39.04C46.37 38.4 46.05 37.59 46.05 36.61C46.05 35.63 46.37 34.81 47 34.18C47.63 33.55 48.43 33.22 49.4 33.22C50 33.22 50.54 33.35 51.03 33.61C51.52 33.87 51.92 34.24 52.23 34.73L51.56 35.21C51.36 34.82 51.06 34.52 50.68 34.3C50.3 34.08 49.87 33.97 49.4 33.97C48.67 33.97 48.07 34.22 47.6 34.72C47.13 35.22 46.89 35.85 46.89 36.61C46.89 37.37 47.13 38 47.6 38.5C48.07 39 48.68 39.24 49.4 39.24C49.91 39.24 50.36 39.12 50.75 38.86C51.14 38.6 51.47 38.24 51.73 37.76L51.74 37.77Z" fill="#EB6519"/>
<path d="M53.45 39.83L56.62 33.36H57.29L60.5 39.83H59.6299L58.75 38.09H55.18L54.32 39.83H53.4599H53.45ZM55.54 37.33H58.3899L56.9599 34.46L55.54 37.33Z" fill="#EB6519"/>
<path d="M62.55 39.83V34.11H59.83V33.37H66.08V34.11H63.36V39.83H62.55Z" fill="#EB6519"/>
<path d="M67.04 39.83V33.33H67.85V39.83H67.04Z" fill="#EB6519"/>
<path d="M73.2299 40C72.2599 40 71.4599 39.68 70.8299 39.04C70.1999 38.4 69.8799 37.59 69.8799 36.61C69.8799 35.63 70.1999 34.81 70.8299 34.18C71.4599 33.55 72.2599 33.22 73.2299 33.22C74.1999 33.22 74.9999 33.54 75.6399 34.18C76.2799 34.82 76.5999 35.63 76.5999 36.61C76.5999 37.59 76.2799 38.4 75.6499 39.04C75.0199 39.68 74.2099 40 73.2399 40H73.2299ZM73.2299 39.24C73.9599 39.24 74.5599 38.99 75.0299 38.5C75.4999 38.01 75.7399 37.38 75.7399 36.61C75.7399 35.84 75.4999 35.21 75.0299 34.72C74.5599 34.23 73.9499 33.98 73.2199 33.98C72.4899 33.98 71.8899 34.23 71.4199 34.73C70.9499 35.23 70.7099 35.86 70.7099 36.62C70.7099 37.38 70.9499 38.01 71.4199 38.51C71.8899 39.01 72.4999 39.25 73.2199 39.25L73.2299 39.24Z" fill="#EB6519"/>
<path d="M78.6 39.83V33.36H79.02L83.22 38.19V33.36H84.03V39.83H83.62L79.41 35V39.83H78.61H78.6Z" fill="#EB6519"/>
</svg>
