<svg width="117" height="40" viewBox="0 0 117 40" fill="none" xmlns="http://www.w3.org/2000/svg">
<path d="M8.225 24.05L7.755 23.25C9.795 21.67 11.095 20.19 11.665 18.8C10.705 17.56 9.795 15.36 8.955 12.21L9.255 12.04C10.005 14.15 11.065 15.81 12.435 17.04C13.085 15.08 13.465 13.22 13.575 11.44H12.005L11.235 12.26L8.405 10.44C9.055 9.85999 9.535 9.51999 9.845 9.41999C10.295 8.57999 10.765 7.61999 11.255 6.54999C11.745 5.47999 12.105 4.65999 12.335 4.07999H8.475L8.025 2.55999H12.625L13.745 1.41999L16.505 3.90999C16.205 4.23999 15.945 4.45999 15.735 4.56999C15.525 4.67999 15.295 4.73999 15.065 4.75999C14.215 6.67999 13.405 8.40999 12.625 9.92999H13.545L14.815 8.60999L17.505 10.87C17.255 11.27 17.055 11.52 16.895 11.63C16.735 11.74 16.535 11.8 16.285 11.82C15.955 14.29 15.305 16.45 14.345 18.31C15.525 18.94 17.055 19.37 18.945 19.59C20.835 19.81 23.075 19.92 25.655 19.92C28.395 19.92 30.345 19.92 31.525 19.9V20.99C30.335 21.25 29.735 22.07 29.735 23.43H25.435C22.565 23.43 20.135 23.22 18.135 22.8C16.135 22.38 14.425 21.54 12.995 20.3C11.715 21.91 10.125 23.16 8.215 24.05H8.225ZM21.335 20.37H20.785V17.31H15.785L15.365 15.79H20.785V14H16.925L16.505 12.51H20.785V10.77H17.225L16.775 9.24999H20.775V7.50999H15.375L14.955 5.98999H20.775V4.26999H16.995L16.495 2.77999H20.775V0.0499878L24.535 0.399988C24.415 1.39999 24.095 1.89999 23.565 1.91999V2.78999H25.655L26.795 1.54999L29.735 3.73999C29.225 4.33999 28.795 4.66999 28.465 4.73999V6.00999H28.765L29.835 4.28999C29.835 4.45999 29.915 4.62999 30.085 4.79999C30.255 4.96999 30.465 5.15999 30.735 5.35999C31.145 5.66999 31.565 6.07999 31.975 6.57999C31.795 7.20999 31.555 7.51999 31.255 7.51999H28.465V10.6C28.395 10.88 28.105 11.12 27.595 11.32C27.085 11.52 26.615 11.62 26.205 11.62H25.785V10.77H23.575V12.51H26.065L27.335 10.82C27.335 11 27.435 11.17 27.635 11.33C27.835 11.49 28.095 11.67 28.405 11.86C28.915 12.14 29.445 12.52 29.975 13C29.855 13.42 29.745 13.68 29.625 13.81C29.505 13.93 29.375 14 29.225 14H23.575V15.79H26.685L28.125 13.97C28.125 14.15 28.245 14.33 28.475 14.51C28.705 14.69 28.995 14.87 29.345 15.07C29.905 15.39 30.495 15.79 31.115 16.29C30.985 16.72 30.845 17 30.715 17.12C30.585 17.24 30.455 17.31 30.315 17.31H23.575V19.23C23.575 19.53 23.325 19.79 22.845 20.03C22.355 20.26 21.855 20.38 21.345 20.38L21.335 20.37ZM25.785 5.98999V4.26999H23.575V5.98999H25.785ZM25.785 9.24999V7.50999H23.575V9.24999H25.785Z" fill="white"/>
<path d="M44.5651 6.37H34.595L34.175 4.85H41.8351L42.955 3.37999C42.955 3.55999 43.045 3.72999 43.225 3.87999C43.405 4.02999 43.6451 4.19 43.9251 4.35C44.3551 4.58 44.815 4.90999 45.295 5.31999C45.215 5.76999 45.105 6.05 44.975 6.18C44.845 6.3 44.705 6.37 44.575 6.37H44.5651ZM43.545 12.76H35.615L35.195 11.24H40.945L42.015 9.87C42.015 10.05 42.055 10.18 42.135 10.24C42.215 10.3 42.335 10.36 42.485 10.41C42.735 10.48 43.045 10.65 43.435 10.93C44.115 10.2 44.625 9.44999 44.965 8.68999C45.305 7.92999 45.525 7.16 45.625 6.39C45.725 5.62 45.775 4.88 45.775 4.16V0.719995L48.755 1.81H51.0651L52.285 0.489995L54.945 2.7C54.675 3.03 54.455 3.24999 54.285 3.35999C54.115 3.46999 53.945 3.52999 53.775 3.54999V7.25999L53.845 7.23C53.895 7.21 53.925 7.20999 53.935 7.20999H54.8151C55.3251 7.20999 55.645 7.21 55.765 7.18H56.015L56.5851 7.07999H56.755C57.055 7.22999 57.285 7.42 57.455 7.64C57.625 7.86 57.705 8.17 57.705 8.55C57.705 9.84 56.675 10.49 54.625 10.49H53.285C52.405 10.49 51.8351 10.29 51.5851 9.88C51.3251 9.47 51.195 8.83 51.195 7.95V3.31H48.385V4.18C48.385 4.88 48.295 5.7 48.115 6.66C47.935 7.61 47.535 8.53999 46.935 9.42999C46.325 10.33 45.425 11.07 44.215 11.67L43.945 11.42C43.945 11.42 44.0851 11.54 44.3151 11.77C44.1951 12.18 44.075 12.45 43.955 12.58C43.835 12.7 43.7051 12.77 43.5651 12.77L43.545 12.76ZM43.515 9.55H35.635L35.215 8.03H40.935L42.005 6.60999C42.005 6.78999 42.095 6.96 42.265 7.11C42.435 7.26 42.665 7.41 42.945 7.56C43.355 7.79 43.795 8.12 44.265 8.56C44.145 8.98 44.0251 9.24 43.9051 9.37C43.7851 9.49 43.655 9.56 43.515 9.56V9.55ZM36.025 23.88H35.655V13.46L38.215 14.5H40.9051L41.9951 13.33L44.805 15.42C44.305 16 43.8951 16.32 43.5651 16.39V21.81C43.4951 22.09 43.2251 22.35 42.7451 22.57C42.2651 22.79 41.8251 22.91 41.4251 22.91H41.005V21.57H38.195V22.66C38.195 22.96 37.955 23.24 37.485 23.49C37.015 23.74 36.525 23.88 36.025 23.88ZM39.5851 5C39.2751 5 38.935 4.89 38.595 4.68C38.375 3.37 37.685 2.1 36.505 0.869995L37.075 0.369995C38.735 0.489995 39.875 0.829995 40.505 1.41C41.055 1.92 41.325 2.45 41.325 3C41.325 3.1 41.295 3.34 41.235 3.71C41.175 4.08 40.885 4.44 40.355 4.77C40.105 4.92 39.8451 4.99 39.5851 4.99V5ZM41.005 20.07V15.99H38.195V20.07H41.005ZM41.625 24.07L41.1751 23.07C44.4451 21.76 46.805 20.3 48.265 18.69C47.305 17.4 46.5151 15.5 45.9051 12.99H44.715L44.265 11.47H52.205L53.6751 10.05L56.485 12.59C56.235 12.95 56.0251 13.19 55.8351 13.3C55.6551 13.41 55.415 13.46 55.115 13.46C54.165 15.62 53.115 17.29 51.955 18.48C53.345 19.23 55.305 19.86 57.825 20.37L57.725 21.41C56.485 21.68 55.6751 22.48 55.3151 23.82C53.2751 23.11 51.425 21.98 49.765 20.44C47.495 22.13 44.785 23.33 41.635 24.05L41.625 24.07ZM49.685 17.08C50.865 15.49 51.625 14.13 51.975 13H46.475C46.955 14.33 48.025 15.69 49.685 17.08Z" fill="white"/>
<path d="M71.115 24.18H70.595V18.46C67.925 20.73 64.725 22.38 60.995 23.41L60.495 22.49C62.335 21.58 63.915 20.6 65.245 19.54C66.575 18.48 67.535 17.55 68.125 16.74H61.265L60.845 15.22H70.595V13.58H63.685L63.265 12.09H70.605V10.67H62.475L62.055 9.18H66.705C67.115 9.36 67.435 9.5 67.645 9.58C67.865 9.66 68.005 9.72 68.095 9.75H68.195L68.045 9.6L67.995 9.57C67.875 8.28 67.495 7.23 66.855 6.44H61.105L60.685 4.95H61.205C63.445 5.33 64.775 5.52 65.205 5.52C65.285 5.52 65.325 5.5 65.325 5.47L65.075 5.27C65.025 3.86 64.355 2.48 63.065 1.14L63.715 0.72C64.975 0.95 65.945 1.33 66.615 1.86C67.285 2.39 67.815 2.92 68.195 3.44C68.575 3.96 68.975 4.37 69.385 4.67C69.685 4.89 70.065 4.99 70.525 4.99C70.705 4.99 70.895 4.97 71.095 4.94H68.755V0L72.085 0.3C72.055 0.78 71.965 1.13 71.825 1.34C71.685 1.56 71.505 1.68 71.285 1.71V4.94H73.005V0L76.435 0.3C76.285 1.23 75.995 1.7 75.565 1.72V4.95H76.385C76.935 3.82 77.475 2.36 78.005 0.57L81.585 1.69C81.415 2.19 81.245 2.51 81.065 2.66C80.945 2.78 80.795 2.83 80.595 2.83L80.395 2.81C80.075 3.14 79.745 3.47 79.385 3.79C79.025 4.11 78.725 4.38 78.465 4.6C78.205 4.82 78.065 4.93 78.035 4.95H79.555L80.925 3.36C80.925 3.54 81.035 3.71 81.245 3.86C81.465 4.01 81.735 4.18 82.065 4.36C82.575 4.63 83.135 4.99 83.735 5.45C83.605 5.88 83.475 6.16 83.345 6.27C83.215 6.38 83.085 6.44 82.935 6.44H79.305L78.655 6.27C78.485 6.78 78.325 7.11 78.155 7.25C77.985 7.39 77.755 7.46 77.455 7.46C77.125 7.78 76.785 8.08 76.435 8.38L75.485 9.18H78.245L79.635 7.51C79.635 7.69 79.745 7.86 79.965 8.02C80.185 8.18 80.465 8.36 80.795 8.56C81.325 8.83 81.885 9.19 82.465 9.65C82.255 10.33 81.995 10.67 81.695 10.67H73.515V12.09H77.415L78.735 10.55C78.735 10.73 78.845 10.9 79.055 11.05C79.265 11.2 79.545 11.37 79.875 11.55C80.375 11.8 80.905 12.14 81.465 12.57C81.335 13 81.205 13.28 81.075 13.4C80.955 13.52 80.815 13.59 80.665 13.59H73.505V15.23H79.105L80.545 13.49C80.545 13.67 80.655 13.85 80.885 14.01C81.115 14.17 81.395 14.36 81.745 14.56C82.275 14.86 82.825 15.24 83.385 15.7C83.255 16.4 83.015 16.74 82.665 16.74H75.205C75.935 17.35 77.115 17.98 78.765 18.61C80.405 19.24 82.115 19.73 83.885 20.08L83.815 21.15C82.675 21.4 81.955 22.18 81.675 23.49C78.345 22.16 75.725 19.92 73.835 16.75H73.515V23.17C73.465 23.4 73.225 23.63 72.795 23.85C72.365 24.07 71.795 24.19 71.105 24.19L71.115 24.18ZM71.165 9.21L71.215 9.19H73.675C74.185 8.06 74.525 7.15 74.695 6.45H70.465C70.715 6.58 70.865 7.15 70.915 8.14C70.935 8.46 70.955 8.71 70.995 8.91C71.025 9.11 71.085 9.21 71.165 9.21Z" fill="white"/>
<path d="M87.955 16.54L86.585 13.38C86.585 13.38 86.585 13.43 86.615 13.43C86.665 13.43 86.845 13.27 87.165 12.96C87.345 12.73 87.495 12.58 87.615 12.51C88.165 12.05 88.705 11.52 89.235 10.93C89.765 10.34 90.155 9.86999 90.405 9.49999C90.275 9.54999 90.035 9.64999 89.695 9.78999C89.355 9.92999 88.965 10.08 88.535 10.22C88.435 10.35 88.285 10.52 88.085 10.72L86.815 7.63999C86.815 7.63999 86.815 7.68999 86.835 7.68999L86.885 7.63999C86.885 7.63999 86.965 7.57999 87.035 7.49999C87.105 7.41999 87.175 7.33999 87.245 7.23999C87.315 7.13999 87.395 7.04999 87.485 6.94999C87.565 6.85999 87.635 6.79999 87.685 6.75999C88.245 6.07999 88.815 5.06999 89.395 3.73999C89.965 2.40999 90.375 1.20999 90.625 0.149988L94.085 1.78999C93.905 2.23999 93.735 2.51999 93.575 2.64999C93.415 2.77999 93.235 2.83999 93.015 2.83999H92.935C92.375 3.66999 91.735 4.50999 91.025 5.35999C90.315 6.20999 89.755 6.81999 89.355 7.18999C90.435 7.18999 91.305 7.18999 91.965 7.16999C92.775 5.85999 93.375 4.70999 93.755 3.70999L96.865 5.89999C96.635 6.29999 96.425 6.54999 96.245 6.64999C96.125 6.71999 96.005 6.74999 95.875 6.74999C95.795 6.74999 95.705 6.72999 95.605 6.69999C94.795 7.78999 93.815 8.92999 92.685 10.11C91.545 11.29 90.595 12.17 89.835 12.77L93.645 12.5C93.565 12.19 93.155 11.37 92.425 10.06L92.945 9.80999C94.325 10.37 95.245 11.01 95.735 11.73C96.115 12.29 96.305 12.82 96.305 13.32C96.305 13.44 96.275 13.67 96.205 14.03C96.135 14.39 95.885 14.67 95.435 14.89C95.265 14.97 95.105 15.01 94.935 15.01C94.635 15.01 94.335 14.89 94.045 14.64C94.045 14.18 94.025 13.93 93.995 13.89C92.435 14.54 90.585 15.25 88.445 16.03C88.295 16.3 88.135 16.47 87.975 16.55L87.955 16.54ZM87.955 22.98C87.955 22.98 87.795 22.98 87.565 22.97C87.345 22.97 87.095 22.73 86.835 22.29C86.685 21.97 86.615 21.67 86.615 21.37C86.615 21.15 86.685 20.87 86.815 20.51C86.945 20.15 87.195 19.84 87.565 19.58C87.845 19.28 88.095 18.84 88.315 18.26C88.465 17.85 88.535 17.4 88.535 16.92C88.535 16.7 88.515 16.47 88.485 16.22H88.835C89.335 17.58 89.585 18.77 89.585 19.8C89.585 19.87 89.585 20.19 89.575 20.77C89.575 21.35 89.345 21.93 88.915 22.51C88.655 22.83 88.335 22.98 87.975 22.98H87.955ZM91.685 21.76C91.335 21.76 90.975 21.57 90.615 21.19C90.735 20.48 90.785 19.76 90.785 19.05C90.785 18.02 90.665 17 90.435 15.99L90.785 15.92C92.215 17.11 92.975 18.23 93.075 19.28L93.095 19.73C93.095 20.54 92.855 21.14 92.375 21.52C92.145 21.69 91.915 21.77 91.675 21.77L91.685 21.76ZM94.995 20.64C94.715 20.64 94.405 20.5 94.075 20.22V19.9C94.075 18.47 93.685 17.02 92.905 15.52L93.425 15.3C95.045 16.18 95.975 17.1 96.215 18.06C96.285 18.36 96.315 18.63 96.315 18.88C96.315 19.46 96.145 19.92 95.795 20.27C95.545 20.52 95.285 20.64 94.995 20.64ZM94.875 24.12L94.425 23.25C95.435 22.62 96.675 21.72 98.155 20.56C98.325 20.41 98.415 20.34 98.425 20.34C98.575 20.22 98.645 20.15 98.645 20.12C98.645 20.1 98.605 20.1 98.525 20.1L98.205 20.12C97.955 20.17 97.555 20.2 96.985 20.2V8.97999L99.775 10.1H105.295L106.465 8.82999L109.405 11.02C108.945 11.6 108.545 11.92 108.215 11.99V18.61C108.185 18.79 108.035 18.97 107.765 19.13C107.495 19.3 107.195 19.43 106.845 19.53C106.495 19.63 106.185 19.68 105.895 19.68H105.395V18.81H99.695C99.695 18.74 99.695 18.7 99.725 18.69L100.095 18.17L103.575 19.86C103.305 20.31 103.075 20.59 102.875 20.69C102.675 20.8 102.455 20.85 102.205 20.85L101.905 20.82C100.035 22.18 97.685 23.28 94.865 24.13L94.875 24.12ZM109.275 9.46999H95.745L95.325 7.97999H100.875V6.83999H97.165L96.745 5.31999H100.875V4.22999H96.375L95.955 2.73999H100.885V0.0499878L104.665 0.369988C104.535 1.34999 104.205 1.84999 103.675 1.85999V2.72999H105.215L106.485 1.13999C106.485 1.31999 106.585 1.48999 106.795 1.64999C107.005 1.80999 107.275 1.97999 107.605 2.15999C108.105 2.42999 108.625 2.76999 109.175 3.19999C109.045 3.62999 108.915 3.90999 108.795 4.02999C108.675 4.14999 108.545 4.21999 108.405 4.21999H103.675V5.30999H104.665L105.865 3.88999C105.865 4.06999 105.955 4.23999 106.155 4.38999C106.355 4.53999 106.595 4.68999 106.915 4.83999C107.365 5.06999 107.825 5.38999 108.305 5.78999C108.225 6.23999 108.115 6.51999 107.985 6.64999C107.855 6.76999 107.715 6.83999 107.585 6.83999H103.685V7.97999H106.145L107.435 6.43999C107.435 6.61999 107.535 6.78999 107.745 6.93999C107.955 7.08999 108.215 7.24999 108.525 7.43999C109.025 7.68999 109.545 8.02999 110.095 8.45999C109.965 8.88999 109.825 9.16999 109.695 9.28999C109.565 9.40999 109.425 9.47999 109.295 9.47999L109.275 9.46999ZM105.395 12.41V11.59H99.695V12.41H105.395ZM105.395 14.92V13.92H99.695V14.92H105.395ZM105.395 17.31V16.44H99.695V17.31H105.395ZM108.055 23.9C107.655 23.9 107.285 23.73 106.935 23.4C106.375 22.32 105.015 21.09 102.885 19.69L103.305 18.77C106.005 19.19 107.835 19.74 108.775 20.44C109.575 21.04 109.965 21.61 109.965 22.16C109.965 22.26 109.915 22.49 109.825 22.86C109.735 23.22 109.355 23.53 108.695 23.78C108.485 23.86 108.265 23.9 108.045 23.9H108.055Z" fill="white"/>
<path d="M22.7751 37.77L23.4151 38.25C23.1151 38.81 22.7151 39.25 22.1951 39.55C21.6751 39.85 21.0951 40 20.4351 40C19.4651 40 18.6651 39.68 18.0351 39.04C17.4051 38.4 17.0851 37.59 17.0851 36.61C17.0851 35.63 17.4051 34.81 18.0351 34.18C18.6651 33.55 19.4651 33.22 20.4351 33.22C21.0351 33.22 21.5751 33.35 22.0651 33.61C22.5551 33.87 22.9551 34.24 23.2651 34.73L22.5951 35.21C22.3951 34.82 22.0951 34.52 21.7151 34.3C21.3351 34.08 20.9051 33.97 20.4351 33.97C19.7051 33.97 19.1051 34.22 18.6351 34.72C18.1651 35.22 17.9251 35.85 17.9251 36.61C17.9251 37.37 18.1651 38 18.6351 38.5C19.1051 39 19.7151 39.24 20.4351 39.24C20.9451 39.24 21.3951 39.12 21.7851 38.86C22.1751 38.6 22.5051 38.24 22.7651 37.76L22.7751 37.77Z" fill="white"/>
<path d="M28.2951 40C27.3251 40 26.5251 39.68 25.8951 39.04C25.2651 38.4 24.9451 37.59 24.9451 36.61C24.9451 35.63 25.2651 34.81 25.8951 34.18C26.5251 33.55 27.3251 33.22 28.2951 33.22C29.2651 33.22 30.0651 33.54 30.7051 34.18C31.3451 34.82 31.6651 35.63 31.6651 36.61C31.6651 37.59 31.3451 38.4 30.7151 39.04C30.0851 39.68 29.2751 40 28.3051 40H28.2951ZM28.2951 39.24C29.0251 39.24 29.6251 38.99 30.0951 38.5C30.5651 38.01 30.8051 37.38 30.8051 36.61C30.8051 35.84 30.5651 35.21 30.0951 34.72C29.6251 34.23 29.0151 33.98 28.2851 33.98C27.5551 33.98 26.9551 34.23 26.4851 34.73C26.0151 35.23 25.7751 35.86 25.7751 36.62C25.7751 37.38 26.0151 38.01 26.4851 38.51C26.9551 39.01 27.5651 39.25 28.2851 39.25L28.2951 39.24Z" fill="white"/>
<path d="M33.665 39.83V33.36H34.085L38.285 38.19V33.36H39.095V39.83H38.685L34.475 35V39.83H33.675H33.665Z" fill="white"/>
<path d="M41.0051 38.86L41.4751 38.16C41.9351 38.52 42.4051 38.79 42.9051 38.97C43.4051 39.15 43.8851 39.25 44.3751 39.25C44.9751 39.25 45.4551 39.12 45.8351 38.87C46.2151 38.62 46.3951 38.29 46.3951 37.89C46.3951 37.57 46.2651 37.31 45.9951 37.11C45.7251 36.91 45.3551 36.78 44.8851 36.74C44.7751 36.73 44.6051 36.72 44.3951 36.7C43.3351 36.63 42.6051 36.5 42.2251 36.32C41.9251 36.18 41.6951 35.99 41.5351 35.76C41.3751 35.53 41.3051 35.27 41.3051 34.99C41.3051 34.47 41.5351 34.04 42.0051 33.71C42.4751 33.38 43.0751 33.21 43.8151 33.21C44.3551 33.21 44.8851 33.3 45.4151 33.48C45.9451 33.66 46.4351 33.92 46.9151 34.27L46.4451 34.94C46.0451 34.62 45.6251 34.38 45.1851 34.22C44.7451 34.06 44.2951 33.98 43.8251 33.98C43.3351 33.98 42.9351 34.07 42.6151 34.26C42.2951 34.45 42.1451 34.69 42.1451 34.97C42.1451 35.08 42.1751 35.19 42.2251 35.28C42.2751 35.37 42.3551 35.46 42.4551 35.54C42.7251 35.74 43.2951 35.87 44.1751 35.92C44.5851 35.94 44.8951 35.97 45.1151 36C45.7751 36.07 46.2951 36.29 46.6751 36.63C47.0551 36.97 47.2451 37.41 47.2451 37.91C47.2451 38.52 46.9851 39.01 46.4551 39.4C45.9251 39.79 45.2451 39.99 44.3851 39.99C43.7451 39.99 43.1451 39.9 42.5851 39.71C42.0251 39.52 41.5051 39.24 41.0051 38.85V38.86Z" fill="white"/>
<path d="M50.505 39.83V34.11H47.785V33.37H54.035V34.11H51.315V39.83H50.505Z" fill="white"/>
<path d="M54.9551 39.83V33.36H58.6651C59.2951 33.36 59.7951 33.52 60.1551 33.84C60.5151 34.16 60.6951 34.6 60.6951 35.16C60.6951 35.63 60.5551 36.03 60.2751 36.36C59.9951 36.69 59.6251 36.9 59.1651 36.98L60.7851 39.82H59.8951L58.2751 36.99H55.7651V39.82H54.9651L54.9551 39.83ZM55.7551 36.24H58.6051C59.0151 36.24 59.3151 36.15 59.5251 35.97C59.7351 35.79 59.8351 35.53 59.8351 35.18C59.8351 34.83 59.7351 34.58 59.5251 34.39C59.3151 34.2 59.0251 34.11 58.6451 34.11H55.7551V36.25V36.24Z" fill="white"/>
<path d="M63.3851 33.36V37.55C63.3851 38.22 63.5051 38.67 63.7651 38.9C64.0251 39.13 64.5151 39.24 65.2551 39.24C65.9951 39.24 66.4851 39.13 66.7351 38.9C66.9851 38.67 67.1151 38.22 67.1151 37.55V33.36H67.9251V37.77C67.9251 38.57 67.7151 39.14 67.3051 39.48C66.8951 39.82 66.2051 40 65.2651 40C64.3251 40 63.6351 39.83 63.2251 39.48C62.8151 39.13 62.6051 38.56 62.6051 37.77V33.36H63.4051H63.3851Z" fill="white"/>
<path d="M75.4651 37.77L76.1051 38.25C75.8051 38.81 75.4051 39.25 74.8851 39.55C74.3651 39.85 73.7851 40 73.1251 40C72.1551 40 71.3551 39.68 70.7251 39.04C70.0951 38.4 69.7751 37.59 69.7751 36.61C69.7751 35.63 70.0951 34.81 70.7251 34.18C71.3551 33.55 72.1551 33.22 73.1251 33.22C73.7251 33.22 74.2651 33.35 74.7551 33.61C75.2451 33.87 75.6451 34.24 75.9551 34.73L75.2851 35.21C75.0851 34.82 74.7851 34.52 74.4051 34.3C74.0251 34.08 73.5951 33.97 73.1251 33.97C72.3951 33.97 71.7951 34.22 71.3251 34.72C70.8551 35.22 70.6151 35.85 70.6151 36.61C70.6151 37.37 70.8551 38 71.3251 38.5C71.7951 39 72.4051 39.24 73.1251 39.24C73.6351 39.24 74.0851 39.12 74.4751 38.86C74.8651 38.6 75.1951 38.24 75.4551 37.76L75.4651 37.77Z" fill="white"/>
<path d="M79.2751 39.83V34.11H76.5551V33.37H82.8051V34.11H80.0851V39.83H79.2751Z" fill="white"/>
<path d="M83.7651 39.83V33.33H84.5751V39.83H83.7651Z" fill="white"/>
<path d="M89.9551 40C88.9851 40 88.1851 39.68 87.5551 39.04C86.9251 38.4 86.6051 37.59 86.6051 36.61C86.6051 35.63 86.9251 34.81 87.5551 34.18C88.1851 33.55 88.9851 33.22 89.9551 33.22C90.9251 33.22 91.7251 33.54 92.3651 34.18C93.0051 34.82 93.3251 35.63 93.3251 36.61C93.3251 37.59 93.0051 38.4 92.3751 39.04C91.7451 39.68 90.9351 40 89.9651 40H89.9551ZM89.9551 39.24C90.6851 39.24 91.2851 38.99 91.7551 38.5C92.2251 38.01 92.4651 37.38 92.4651 36.61C92.4651 35.84 92.2251 35.21 91.7551 34.72C91.2851 34.23 90.6751 33.98 89.9451 33.98C89.2151 33.98 88.6151 34.23 88.1451 34.73C87.6751 35.23 87.4351 35.86 87.4351 36.62C87.4351 37.38 87.6751 38.01 88.1451 38.51C88.6151 39.01 89.2251 39.25 89.9451 39.25L89.9551 39.24Z" fill="white"/>
<path d="M95.3351 39.83V33.36H95.7551L99.9551 38.19V33.36H100.765V39.83H100.355L96.1451 35V39.83H95.3451H95.3351Z" fill="white"/>
</svg>
