<?xml version="1.0" encoding="utf-8"?>
<!-- Generator: Adobe Illustrator 27.0.0, SVG Export Plug-In . SVG Version: 6.00 Build 0)  -->
<svg version="1.1" id="圖層_1" xmlns="http://www.w3.org/2000/svg" xmlns:xlink="http://www.w3.org/1999/xlink" x="0px" y="0px"
	 viewBox="0 0 117 40" style="enable-background:new 0 0 117 40;" xml:space="preserve">
<style type="text/css">
	.st0{fill:#9FA0A0;}
</style>
<path class="st0" d="M7.6,24.1l-0.5-0.8c2-1.6,3.3-3.1,3.9-4.5c-1-1.2-1.9-3.4-2.7-6.6l0.3-0.2c0.8,2.1,1.8,3.8,3.2,5
	c0.7-2,1-3.8,1.1-5.6h-1.6l-0.8,0.8l-2.8-1.8c0.6-0.6,1.1-0.9,1.4-1c0.4-0.8,0.9-1.8,1.4-2.9c0.5-1.1,0.8-1.9,1.1-2.5H7.8L7.4,2.6
	H12l1.1-1.1l2.8,2.5c-0.3,0.3-0.6,0.5-0.8,0.7s-0.4,0.2-0.7,0.2C13.6,6.7,12.7,8.4,12,10h0.9l1.3-1.3l2.7,2.3
	c-0.2,0.4-0.4,0.7-0.6,0.8c-0.2,0.1-0.4,0.2-0.6,0.2c-0.3,2.5-1,4.6-1.9,6.5c1.2,0.6,2.7,1.1,4.6,1.3c1.9,0.2,4.1,0.3,6.7,0.3
	c2.7,0,4.7,0,5.9,0V21c-1.2,0.3-1.8,1.1-1.8,2.4h-4.3c-2.9,0-5.3-0.2-7.3-0.6s-3.7-1.3-5.1-2.5C11.1,21.9,9.5,23.2,7.6,24.1z
	 M20.7,20.4h-0.5v-3.1h-5l-0.4-1.5h5.4V14h-3.9l-0.4-1.5h4.3v-1.7h-3.6l-0.5-1.5h4V7.5h-5.4L14.3,6h5.8V4.3h-3.8l-0.5-1.5h4.3V0.1
	l3.8,0.3c-0.1,1-0.4,1.5-1,1.5v0.9H25l1.1-1.2l2.9,2.2c-0.5,0.6-0.9,0.9-1.3,1V6h0.3l1.1-1.7c0,0.2,0.1,0.3,0.2,0.5s0.4,0.4,0.7,0.6
	c0.4,0.3,0.8,0.7,1.2,1.2c-0.2,0.6-0.4,0.9-0.7,0.9h-2.8v3.1c-0.1,0.3-0.4,0.5-0.9,0.7c-0.5,0.2-1,0.3-1.4,0.3h-0.4v-0.8h-2.2v1.7
	h2.5l1.3-1.7c0,0.2,0.1,0.3,0.3,0.5c0.2,0.2,0.5,0.3,0.8,0.5c0.5,0.3,1,0.7,1.6,1.1c-0.1,0.4-0.2,0.7-0.4,0.8
	C28.8,14,28.7,14,28.6,14h-5.6v1.8H26l1.4-1.8c0,0.2,0.1,0.4,0.4,0.5c0.2,0.2,0.5,0.4,0.9,0.6c0.6,0.3,1.1,0.7,1.8,1.2
	c-0.1,0.4-0.3,0.7-0.4,0.8c-0.1,0.1-0.3,0.2-0.4,0.2h-6.7v1.9c0,0.3-0.2,0.6-0.7,0.8C21.7,20.3,21.2,20.4,20.7,20.4L20.7,20.4z
	 M25.1,6V4.3h-2.2V6H25.1z M25.1,9.3V7.5h-2.2v1.7H25.1z"/>
<path class="st0" d="M44.4,24.2h-0.5v-5.1c-2.7,2.3-6,3.8-10,4.8l-0.5-1c1.9-0.8,3.5-1.7,4.9-2.6c1.3-1,2.3-1.8,2.9-2.6h-6.7
	l-0.4-1.5h9.9v-1.4c-1,0.4-2,0.8-3.2,1l-0.5-0.9c1.3-0.6,2.3-1.1,3-1.7c0.7-0.6,1.1-1.2,1.3-1.8c0.2-0.6,0.3-1.2,0.3-1.8V6.8
	l-0.6,0.3l-0.6-0.5c0.8-1,1.3-1.6,1.5-1.9l0.1-0.1c0.1-0.1,0.2-0.2,0.2-0.2c0,0,0-0.1-0.1-0.1h-2.7c0,0,0,0.1,0,0.3l0,0.4
	c0,0.6,0,1-0.1,1.1l0,0c0.5,0.4,1.2,0.9,2.1,1.7c-0.1,0.4-0.3,0.7-0.4,0.8c-0.1,0.1-0.3,0.2-0.4,0.2h-3.2v2.5
	c1.2-0.2,2.3-0.3,3.4-0.5L44,12c-1.8,0.8-4.5,1.9-8,3.3c0,0.1-0.1,0.2-0.2,0.3s-0.1,0.1-0.2,0.2l-0.1,0.1l-1.8-3.6
	c1.1-0.1,2.5-0.2,4-0.4V8.9H35l-0.4-1.5h6.1c0,0,0,0,0.1,0c0,0,0,0,0-0.1c0,0-0.1-0.1-0.2-0.2c-0.2-0.1-0.4-0.3-0.7-0.5V6.3
	c0-0.9-0.2-1.5-0.5-2h-1c-1.5,1.6-3,2.8-4.5,3.5l-0.6-0.6c1.9-1.9,3.2-4.3,4.1-7.2L41,1.5c-0.2,0.5-0.4,0.8-0.5,0.9
	c-0.2,0.1-0.3,0.2-0.5,0.2l-0.2,0c-0.1,0.2-0.2,0.3-0.2,0.4c0,0-0.1,0.1-0.1,0.1l0.2-0.2h2.7l1.2-1.6c0,0.2,0.1,0.4,0.3,0.5
	c0.2,0.2,0.4,0.3,0.7,0.5c0.5,0.3,0.9,0.6,1.3,1c0.5-1,1-2.1,1.3-3.2l3.6,1.1c-0.2,0.5-0.4,0.8-0.5,1c-0.2,0.2-0.4,0.2-0.7,0.2h-0.1
	L49,2.9c0,0,0.1-0.1,0.2-0.2h3.8l1.3-1.7c0,0.2,0.1,0.4,0.3,0.5c0.2,0.2,0.5,0.4,0.9,0.6c0.5,0.3,1,0.6,1.6,1.1
	c-0.1,0.4-0.3,0.7-0.4,0.8c-0.1,0.1-0.3,0.2-0.4,0.2h-3.5c0,0-0.1,0.2-0.1,0.7c0,0.7-0.1,1.1-0.2,1.3l1.9,1.6
	c-0.3,0.3-0.5,0.5-0.6,0.7c-0.1,0.1-0.3,0.2-0.4,0.2v3.1c0,0,0.2-0.1,0.4-0.1h1.3c0.3,0,0.4-0.1,0.5-0.2c0.2-0.3,0.4-1,0.7-2.1
	l0.1-0.3h0.2l0.1,2.4c0.5,0.2,0.7,0.7,0.7,1.4c0,1.3-1,1.9-3.1,1.9h-1.3c-0.8,0-1.4-0.2-1.6-0.6s-0.4-1-0.4-1.9V8.4h-3.4v0.4
	c2.3,0.4,3.4,1.3,3.4,2.6c0,0.1,0,0.3-0.1,0.6s-0.3,0.6-0.8,0.9c-0.2,0.1-0.3,0.1-0.5,0.1c-0.3,0-0.6-0.1-0.9-0.3
	c-0.1-1-0.5-1.9-1.2-2.7c0,0.7-0.2,1.4-0.5,2.2c-0.3,0.8-0.8,1.4-1.4,1.7l2.2,0.2c-0.1,1-0.5,1.5-1,1.5v0.6h5.9l1.3-1.6
	c0,0.2,0.1,0.4,0.3,0.5c0.2,0.2,0.5,0.3,0.8,0.5c0.5,0.3,1,0.6,1.6,1.1c-0.1,0.5-0.2,0.7-0.3,0.9c-0.1,0.1-0.3,0.2-0.4,0.2h-7.5
	c0.7,0.4,1.8,0.9,3.5,1.4c1.7,0.5,3.4,0.8,5.2,1L57,21.1c-1.2,0.3-2,1.2-2.3,2.7c-3.5-1.1-6.1-3.1-8-6.3v5.6c0,0.3-0.3,0.5-0.8,0.8
	C45.4,24.1,44.9,24.2,44.4,24.2L44.4,24.2z M50.6,7.2C50.6,7.2,50.7,7.2,50.6,7.2l-0.5-0.4c-0.1-1-0.4-1.8-0.8-2.4h-1.4
	c-0.5,0.5-1,1-1.4,1.3s-0.7,0.5-0.8,0.6l2,0.8h3L50.6,7.2L50.6,7.2L50.6,7.2z"/>
<path class="st0" d="M70.1,6.4h-10l-0.4-1.5h7.7l1.1-1.5c0,0.2,0.1,0.3,0.3,0.5c0.2,0.1,0.4,0.3,0.7,0.5c0.4,0.2,0.9,0.6,1.4,1
	c-0.1,0.5-0.2,0.7-0.3,0.9C70.3,6.3,70.2,6.4,70.1,6.4L70.1,6.4z M69,12.8h-7.9l-0.4-1.5h5.7l1.1-1.4c0,0.2,0,0.3,0.1,0.4
	c0.1,0.1,0.2,0.1,0.4,0.2c0.2,0.1,0.6,0.2,0.9,0.5c0.7-0.7,1.2-1.5,1.5-2.2C70.8,8,71,7.2,71.1,6.4s0.2-1.5,0.2-2.2V0.8l3,1.1h2.3
	l1.2-1.3l2.7,2.2c-0.3,0.3-0.5,0.5-0.7,0.7c-0.2,0.1-0.3,0.2-0.5,0.2v3.7l0.1,0c0,0,0.1,0,0.1,0h0.9c0.5,0,0.8,0,1,0h0.2l0.6-0.1
	h0.2c0.3,0.1,0.5,0.3,0.7,0.6c0.2,0.2,0.2,0.5,0.2,0.9c0,1.3-1,1.9-3.1,1.9h-1.3c-0.9,0-1.5-0.2-1.7-0.6c-0.3-0.4-0.4-1.1-0.4-1.9
	V3.3h-2.8v0.9c0,0.7-0.1,1.5-0.3,2.5c-0.2,0.9-0.6,1.9-1.2,2.8c-0.6,0.9-1.5,1.6-2.7,2.2l-0.3-0.2c0,0,0.1,0.1,0.4,0.4
	c-0.1,0.4-0.2,0.7-0.4,0.8C69.3,12.7,69.2,12.8,69,12.8L69,12.8z M69,9.6h-7.9l-0.4-1.5h5.7l1.1-1.4c0,0.2,0.1,0.3,0.3,0.5
	c0.2,0.2,0.4,0.3,0.7,0.5c0.4,0.2,0.9,0.6,1.3,1c-0.1,0.4-0.2,0.7-0.4,0.8C69.3,9.5,69.1,9.6,69,9.6L69,9.6z M61.5,23.9h-0.4V13.5
	l2.6,1h2.7l1.1-1.2l2.8,2.1c-0.5,0.6-0.9,0.9-1.2,1v5.4c-0.1,0.3-0.3,0.5-0.8,0.8c-0.5,0.2-0.9,0.3-1.3,0.3h-0.4v-1.3h-2.8v1.1
	c0,0.3-0.2,0.6-0.7,0.8C62.5,23.8,62,23.9,61.5,23.9L61.5,23.9z M65.1,5c-0.3,0-0.6-0.1-1-0.3c-0.2-1.3-0.9-2.6-2.1-3.8l0.6-0.5
	c1.7,0.1,2.8,0.5,3.4,1c0.5,0.5,0.8,1,0.8,1.6c0,0.1,0,0.3-0.1,0.7c-0.1,0.4-0.4,0.7-0.9,1.1C65.6,5,65.3,5,65.1,5L65.1,5z
	 M66.5,20.1V16h-2.8v4.1H66.5z M67.1,24.1l-0.4-1c3.3-1.3,5.6-2.8,7.1-4.4c-1-1.3-1.8-3.2-2.4-5.7h-1.2l-0.4-1.5h7.9l1.5-1.4
	l2.8,2.5c-0.2,0.4-0.5,0.6-0.6,0.7c-0.2,0.1-0.4,0.2-0.7,0.2c-1,2.2-2,3.8-3.2,5c1.4,0.8,3.4,1.4,5.9,1.9l-0.1,1
	c-1.2,0.3-2.1,1.1-2.4,2.4c-2-0.7-3.9-1.8-5.5-3.4C73,22.2,70.3,23.4,67.1,24.1L67.1,24.1z M75.2,17.1c1.2-1.6,1.9-3,2.3-4.1H72
	C72.4,14.4,73.5,15.7,75.2,17.1z"/>
<path class="st0" d="M98.2,6.3h-12l-0.4-1.5H95l1.3-1.7c0,0.2,0.1,0.4,0.3,0.5c0.2,0.2,0.5,0.3,0.8,0.5c0.5,0.3,1,0.7,1.5,1.1
	c-0.1,0.4-0.2,0.7-0.3,0.9C98.5,6.2,98.3,6.3,98.2,6.3L98.2,6.3z M96.9,9.5h-9.4L87,8h6.8l1.3-1.6c0,0.2,0.1,0.3,0.3,0.5
	c0.2,0.2,0.4,0.3,0.8,0.5c0.5,0.3,1,0.6,1.5,1.1c-0.1,0.4-0.2,0.7-0.4,0.8C97.2,9.4,97,9.5,96.9,9.5L96.9,9.5z M96.9,12.7h-9.4
	L87,11.2h6.8l1.3-1.6c0,0.2,0.1,0.4,0.3,0.5c0.2,0.2,0.4,0.3,0.8,0.5c0.5,0.3,1,0.6,1.5,1.1c-0.1,0.4-0.2,0.7-0.4,0.8
	C97.2,12.7,97,12.8,96.9,12.7L96.9,12.7z M88,23.8h-0.4V13.5l2.6,1.1H94l1.2-1.2l2.9,2.2c-0.5,0.6-0.9,0.9-1.3,1v5.3
	c-0.1,0.3-0.4,0.5-0.9,0.8C95.4,22.8,95,23,94.6,23h-0.5v-1.4h-3.8v1.1c0,0.3-0.2,0.6-0.8,0.9C89,23.7,88.5,23.9,88,23.8L88,23.8z
	 M92.3,5c-0.3,0-0.7-0.1-1-0.3c-0.2-1.4-0.9-2.7-2.2-4l0.7-0.4c1.7,0.1,2.8,0.5,3.5,1.1c0.6,0.5,0.8,1.1,0.8,1.7
	c0,0.1,0,0.3-0.1,0.7s-0.4,0.7-0.9,1.1C92.8,4.9,92.6,5,92.3,5z M94.1,20v-3.9h-3.8V20H94.1z M102,24.1h-0.6V10.7h-3.9l-0.4-1.5h4.3
	v-9l3.9,0.4c-0.2,1-0.5,1.5-1,1.5v7.1h1.3l1.3-1.8c0,0.2,0.1,0.4,0.3,0.6c0.2,0.2,0.5,0.4,0.8,0.6c0.5,0.3,1,0.7,1.5,1.1
	c-0.1,0.4-0.2,0.7-0.4,0.8s-0.3,0.2-0.4,0.2h-4.6v11.9c0,0.3-0.3,0.6-0.8,1C103,23.9,102.5,24.1,102,24.1L102,24.1z"/>
<path class="st0" d="M17.1,39.8l3.2-6.5H21l3.2,6.5h-0.9l-0.9-1.7h-3.6L18,39.8H17.1L17.1,39.8z M19.2,37.3h2.9l-1.4-2.9L19.2,37.3z
	"/>
<path class="st0" d="M25.7,39.8v-6.5h3.7c0.6,0,1.1,0.2,1.5,0.5s0.5,0.8,0.5,1.3c0,0.5-0.1,0.9-0.4,1.2c-0.3,0.3-0.6,0.5-1.1,0.6
	l1.6,2.8h-0.9L29,37h-2.5v2.8L25.7,39.8L25.7,39.8z M26.5,36.2h2.8c0.4,0,0.7-0.1,0.9-0.3c0.2-0.2,0.3-0.4,0.3-0.8s-0.1-0.6-0.3-0.8
	c-0.2-0.2-0.5-0.3-0.9-0.3h-2.9V36.2L26.5,36.2z"/>
<path class="st0" d="M38.7,37.8l0.6,0.5c-0.3,0.6-0.7,1-1.2,1.3S37,40,36.3,40c-1,0-1.8-0.3-2.4-1s-1-1.5-1-2.4s0.3-1.8,1-2.4
	s1.4-1,2.4-1c0.6,0,1.1,0.1,1.6,0.4c0.5,0.3,0.9,0.6,1.2,1.1l-0.7,0.5c-0.2-0.4-0.5-0.7-0.9-0.9c-0.4-0.2-0.8-0.3-1.3-0.3
	c-0.7,0-1.3,0.2-1.8,0.8c-0.5,0.5-0.7,1.1-0.7,1.9c0,0.8,0.2,1.4,0.7,1.9c0.5,0.5,1.1,0.7,1.8,0.7c0.5,0,1-0.1,1.4-0.4
	C38.1,38.6,38.4,38.2,38.7,37.8L38.7,37.8z"/>
<path class="st0" d="M41.4,39.8v-6.5h0.8v2.5H46v-2.5h0.8v6.5H46v-3.2h-3.8v3.2H41.4z"/>
<path class="st0" d="M49.4,39.8v-6.5h0.8v6.5H49.4z"/>
<path class="st0" d="M53.9,39.8v-5.7h-2.7v-0.7h6.2v0.7h-2.7v5.7H53.9z"/>
<path class="st0" d="M58.3,39.8v-6.5h5.1v0.7h-4.3V36h2.6v0.7h-2.6v2.3h4.5v0.7L58.3,39.8L58.3,39.8z"/>
<path class="st0" d="M70.7,37.8l0.6,0.5c-0.3,0.6-0.7,1-1.2,1.3C69.6,39.8,69,40,68.3,40c-1,0-1.8-0.3-2.4-1
	c-0.6-0.6-0.9-1.5-0.9-2.4s0.3-1.8,0.9-2.4c0.6-0.6,1.4-1,2.4-1c0.6,0,1.1,0.1,1.6,0.4c0.5,0.3,0.9,0.6,1.2,1.1l-0.7,0.5
	c-0.2-0.4-0.5-0.7-0.9-0.9c-0.4-0.2-0.8-0.3-1.3-0.3c-0.7,0-1.3,0.2-1.8,0.8c-0.5,0.5-0.7,1.1-0.7,1.9c0,0.8,0.2,1.4,0.7,1.9
	c0.5,0.5,1.1,0.7,1.8,0.7c0.5,0,1-0.1,1.3-0.4C70.1,38.6,70.4,38.2,70.7,37.8L70.7,37.8z"/>
<path class="st0" d="M74.5,39.8v-5.7h-2.7v-0.7H78v0.7h-2.7v5.7H74.5z"/>
<path class="st0" d="M79.6,33.4v4.2c0,0.7,0.1,1.1,0.4,1.4c0.2,0.2,0.8,0.3,1.5,0.3c0.7,0,1.2-0.1,1.5-0.3c0.2-0.2,0.4-0.7,0.4-1.4
	v-4.2h0.8v4.4c0,0.8-0.2,1.4-0.6,1.7s-1.1,0.5-2,0.5s-1.6-0.2-2-0.5c-0.4-0.3-0.6-0.9-0.6-1.7v-4.4H79.6L79.6,33.4z"/>
<path class="st0" d="M86.5,39.8v-6.5h3.7c0.6,0,1.1,0.2,1.5,0.5s0.5,0.8,0.5,1.3c0,0.5-0.1,0.9-0.4,1.2c-0.3,0.3-0.7,0.5-1.1,0.6
	l1.6,2.8h-0.9L89.8,37h-2.5v2.8L86.5,39.8L86.5,39.8z M87.3,36.2h2.9c0.4,0,0.7-0.1,0.9-0.3s0.3-0.4,0.3-0.8s-0.1-0.6-0.3-0.8
	c-0.2-0.2-0.5-0.3-0.9-0.3h-2.9V36.2L87.3,36.2z"/>
<path class="st0" d="M94.3,39.8v-6.5h5.1v0.7h-4.3V36h2.6v0.7h-2.6v2.3h4.5v0.7L94.3,39.8L94.3,39.8z"/>
</svg>
