<?xml version="1.0" encoding="utf-8"?>
<!-- Generator: Adobe Illustrator 27.0.0, SVG Export Plug-In . SVG Version: 6.00 Build 0)  -->
<svg version="1.1" id="圖層_1" xmlns="http://www.w3.org/2000/svg" xmlns:xlink="http://www.w3.org/1999/xlink" x="0px" y="0px"
	 viewBox="0 0 117 40" style="enable-background:new 0 0 117 40;" xml:space="preserve">
<style type="text/css">
	.st0{fill:#9FA0A0;}
</style>
<path class="st0" d="M8.2,24l-0.5-0.8c2-1.6,3.3-3.1,3.9-4.5c-1-1.2-1.9-3.4-2.7-6.6L9.3,12c0.8,2.1,1.8,3.8,3.2,5
	c0.6-2,1-3.8,1.1-5.6H12l-0.8,0.8l-2.8-1.8c0.7-0.6,1.1-0.9,1.4-1c0.4-0.8,0.9-1.8,1.4-2.9s0.8-1.9,1.1-2.5H8.5L8,2.6h4.6l1.1-1.1
	l2.8,2.5c-0.3,0.3-0.6,0.5-0.8,0.7c-0.2,0.1-0.4,0.2-0.7,0.2c-0.8,1.9-1.7,3.7-2.4,5.2h0.9l1.3-1.3l2.7,2.3
	c-0.2,0.4-0.4,0.7-0.6,0.8s-0.4,0.2-0.6,0.2c-0.3,2.5-1,4.6-1.9,6.5c1.2,0.6,2.7,1.1,4.6,1.3s4.1,0.3,6.7,0.3c2.7,0,4.7,0,5.9,0V21
	c-1.2,0.3-1.8,1.1-1.8,2.4h-4.3c-2.9,0-5.3-0.2-7.3-0.6s-3.7-1.3-5.1-2.5C11.7,21.9,10.1,23.2,8.2,24L8.2,24z M21.3,20.4h-0.5v-3.1
	h-5l-0.4-1.5h5.4V14h-3.9l-0.4-1.5h4.3v-1.7h-3.6l-0.5-1.5h4V7.5h-5.4L15,6h5.8V4.3H17l-0.5-1.5h4.3V0l3.8,0.4c-0.1,1-0.4,1.5-1,1.5
	v0.9h2.1l1.1-1.2l2.9,2.2c-0.5,0.6-0.9,0.9-1.3,1V6h0.3l1.1-1.7c0,0.2,0.1,0.3,0.2,0.5c0.2,0.2,0.4,0.4,0.7,0.6
	c0.4,0.3,0.8,0.7,1.2,1.2c-0.2,0.6-0.4,0.9-0.7,0.9h-2.8v3.1c-0.1,0.3-0.4,0.5-0.9,0.7c-0.5,0.2-1,0.3-1.4,0.3h-0.4v-0.8h-2.2v1.7
	h2.5l1.3-1.7c0,0.2,0.1,0.4,0.3,0.5c0.2,0.2,0.5,0.3,0.8,0.5c0.5,0.3,1,0.7,1.6,1.1c-0.1,0.4-0.2,0.7-0.4,0.8
	c-0.1,0.1-0.2,0.2-0.4,0.2h-5.6v1.8h3.1l1.4-1.8c0,0.2,0.1,0.4,0.4,0.5c0.2,0.2,0.5,0.4,0.9,0.6c0.6,0.3,1.2,0.7,1.8,1.2
	c-0.1,0.4-0.3,0.7-0.4,0.8c-0.1,0.1-0.3,0.2-0.4,0.2h-6.7v1.9c0,0.3-0.2,0.6-0.7,0.8C22.4,20.3,21.9,20.4,21.3,20.4L21.3,20.4z
	 M25.8,6V4.3h-2.2V6H25.8z M25.8,9.2V7.5h-2.2v1.7H25.8z"/>
<path class="st0" d="M44.6,6.4h-10l-0.4-1.5h7.7L43,3.4c0,0.2,0.1,0.3,0.3,0.5s0.4,0.3,0.7,0.5c0.4,0.2,0.9,0.6,1.4,1
	c-0.1,0.4-0.2,0.7-0.3,0.9C44.8,6.3,44.7,6.4,44.6,6.4L44.6,6.4z M43.5,12.8h-7.9l-0.4-1.5h5.8L42,9.9c0,0.2,0,0.3,0.1,0.4
	c0.1,0.1,0.2,0.1,0.4,0.2c0.2,0.1,0.6,0.2,1,0.5c0.7-0.7,1.2-1.5,1.5-2.2s0.6-1.5,0.7-2.3s0.2-1.5,0.2-2.2V0.7l3,1.1h2.3l1.2-1.3
	l2.7,2.2c-0.3,0.3-0.5,0.5-0.7,0.7c-0.2,0.1-0.3,0.2-0.5,0.2v3.7l0.1,0c0,0,0.1,0,0.1,0h0.9c0.5,0,0.8,0,0.9,0H56l0.6-0.1h0.2
	c0.3,0.2,0.5,0.3,0.7,0.6c0.2,0.2,0.2,0.5,0.2,0.9c0,1.3-1,1.9-3.1,1.9h-1.3c-0.9,0-1.4-0.2-1.7-0.6c-0.3-0.4-0.4-1.1-0.4-1.9V3.3
	h-2.8v0.9c0,0.7-0.1,1.5-0.3,2.5c-0.2,1-0.6,1.9-1.2,2.8c-0.6,0.9-1.5,1.6-2.7,2.2l-0.3-0.2c0,0,0.1,0.1,0.4,0.4
	c-0.1,0.4-0.2,0.7-0.4,0.8C43.8,12.7,43.7,12.8,43.5,12.8L43.5,12.8z M43.5,9.6h-7.9L35.2,8h5.7L42,6.6c0,0.2,0.1,0.4,0.3,0.5
	c0.2,0.2,0.4,0.3,0.7,0.4c0.4,0.2,0.8,0.6,1.3,1C44.1,9,44,9.2,43.9,9.4C43.8,9.5,43.7,9.6,43.5,9.6L43.5,9.6z M36,23.9h-0.4V13.5
	l2.6,1h2.7l1.1-1.2l2.8,2.1c-0.5,0.6-0.9,0.9-1.2,1v5.4c-0.1,0.3-0.3,0.5-0.8,0.8c-0.5,0.2-0.9,0.3-1.3,0.3H41v-1.3h-2.8v1.1
	c0,0.3-0.2,0.6-0.7,0.8S36.5,23.9,36,23.9z M39.6,5c-0.3,0-0.7-0.1-1-0.3c-0.2-1.3-0.9-2.6-2.1-3.8l0.6-0.5c1.7,0.1,2.8,0.5,3.4,1
	c0.5,0.5,0.8,1,0.8,1.6c0,0.1,0,0.3-0.1,0.7c-0.1,0.4-0.4,0.7-0.9,1.1C40.1,4.9,39.8,5,39.6,5L39.6,5z M41,20.1V16h-2.8v4.1H41z
	 M41.6,24.1l-0.4-1c3.3-1.3,5.6-2.8,7.1-4.4c-1-1.3-1.7-3.2-2.4-5.7h-1.2l-0.5-1.5h7.9l1.5-1.4l2.8,2.5c-0.2,0.4-0.5,0.6-0.6,0.7
	c-0.2,0.1-0.4,0.2-0.7,0.2c-1,2.2-2,3.8-3.2,5c1.4,0.8,3.3,1.4,5.9,1.9l-0.1,1c-1.2,0.3-2,1.1-2.4,2.4c-2-0.7-3.9-1.8-5.6-3.4
	C47.5,22.1,44.8,23.3,41.6,24.1L41.6,24.1z M49.7,17.1c1.2-1.6,1.9-2.9,2.3-4.1h-5.5C47,14.3,48,15.7,49.7,17.1z"/>
<path class="st0" d="M71.1,24.2h-0.5v-5.7c-2.7,2.3-5.9,3.9-9.6,5l-0.5-0.9c1.8-0.9,3.4-1.9,4.8-2.9c1.3-1.1,2.3-2,2.9-2.8h-6.9
	l-0.4-1.5h9.8v-1.6h-6.9l-0.4-1.5h7.3v-1.4h-8.1l-0.4-1.5h4.7c0.4,0.2,0.7,0.3,0.9,0.4c0.2,0.1,0.4,0.1,0.5,0.2h0.1L68,9.6l0,0
	c-0.1-1.3-0.5-2.3-1.1-3.1h-5.8l-0.4-1.5h0.5c2.2,0.4,3.6,0.6,4,0.6c0.1,0,0.1,0,0.1-0.1l-0.2-0.2c0-1.4-0.7-2.8-2-4.1l0.7-0.4
	c1.3,0.2,2.2,0.6,2.9,1.1c0.7,0.5,1.2,1.1,1.6,1.6s0.8,0.9,1.2,1.2C69.7,4.9,70.1,5,70.5,5c0.2,0,0.4,0,0.6,0h-2.3V0l3.3,0.3
	c0,0.5-0.1,0.8-0.3,1c-0.1,0.2-0.3,0.3-0.5,0.4v3.2H73V0l3.4,0.3c-0.1,0.9-0.4,1.4-0.9,1.4v3.2h0.8c0.5-1.1,1.1-2.6,1.6-4.4l3.6,1.1
	c-0.2,0.5-0.3,0.8-0.5,1c-0.1,0.1-0.3,0.2-0.5,0.2l-0.2,0c-0.3,0.3-0.6,0.7-1,1s-0.7,0.6-0.9,0.8c-0.3,0.2-0.4,0.3-0.4,0.3h1.5
	l1.4-1.6c0,0.2,0.1,0.4,0.3,0.5c0.2,0.2,0.5,0.3,0.8,0.5c0.5,0.3,1.1,0.6,1.7,1.1c-0.1,0.4-0.3,0.7-0.4,0.8
	c-0.1,0.1-0.3,0.2-0.4,0.2h-3.6l-0.7-0.2c-0.2,0.5-0.3,0.8-0.5,1s-0.4,0.2-0.7,0.2c-0.3,0.3-0.7,0.6-1,0.9l-0.9,0.8h2.8l1.4-1.7
	c0,0.2,0.1,0.3,0.3,0.5c0.2,0.2,0.5,0.3,0.8,0.5c0.5,0.3,1.1,0.6,1.7,1.1c-0.2,0.7-0.5,1-0.8,1h-8.2v1.4h3.9l1.3-1.5
	c0,0.2,0.1,0.3,0.3,0.5c0.2,0.1,0.5,0.3,0.8,0.5c0.5,0.2,1,0.6,1.6,1c-0.1,0.4-0.3,0.7-0.4,0.8c-0.1,0.1-0.3,0.2-0.4,0.2h-7.2v1.6
	h5.6l1.4-1.7c0,0.2,0.1,0.4,0.3,0.5c0.2,0.2,0.5,0.3,0.9,0.6c0.5,0.3,1.1,0.7,1.6,1.1c-0.1,0.7-0.4,1-0.7,1h-7.5
	c0.7,0.6,1.9,1.2,3.6,1.9c1.6,0.6,3.3,1.1,5.1,1.5l-0.1,1.1c-1.1,0.2-1.9,1-2.1,2.3c-3.3-1.3-6-3.6-7.8-6.7h-0.3v6.4
	c-0.1,0.2-0.3,0.5-0.7,0.7C72.4,24.1,71.8,24.2,71.1,24.2L71.1,24.2z M71.2,9.2L71.2,9.2l2.5,0c0.5-1.1,0.8-2,1-2.7h-4.2
	c0.2,0.1,0.4,0.7,0.5,1.7c0,0.3,0,0.6,0.1,0.8C71,9.1,71.1,9.2,71.2,9.2z"/>
<path class="st0" d="M88,16.5l-1.4-3.2c0,0,0,0.1,0,0.1c0.1,0,0.2-0.2,0.6-0.5c0.2-0.2,0.3-0.4,0.4-0.4c0.6-0.5,1.1-1,1.6-1.6
	s0.9-1.1,1.2-1.4c-0.1,0-0.4,0.1-0.7,0.3c-0.3,0.1-0.7,0.3-1.2,0.4c-0.1,0.1-0.2,0.3-0.5,0.5l-1.3-3.1c0,0,0,0.1,0,0.1l0.1-0.1
	c0,0,0.1-0.1,0.2-0.1c0.1-0.1,0.1-0.2,0.2-0.3c0.1-0.1,0.1-0.2,0.2-0.3c0.1-0.1,0.2-0.1,0.2-0.2c0.6-0.7,1.1-1.7,1.7-3
	c0.6-1.3,1-2.5,1.2-3.6l3.5,1.6c-0.2,0.5-0.3,0.7-0.5,0.9c-0.2,0.1-0.3,0.2-0.6,0.2h-0.1c-0.6,0.8-1.2,1.7-1.9,2.5s-1.3,1.5-1.7,1.8
	c1.1,0,1.9,0,2.6,0c0.8-1.3,1.4-2.5,1.8-3.5l3.1,2.2c-0.2,0.4-0.4,0.7-0.6,0.8c-0.1,0.1-0.2,0.1-0.4,0.1c-0.1,0-0.2,0-0.3-0.1
	c-0.8,1.1-1.8,2.2-2.9,3.4c-1.1,1.2-2.1,2.1-2.8,2.7l3.8-0.3c-0.1-0.3-0.5-1.1-1.2-2.4l0.5-0.3c1.4,0.6,2.3,1.2,2.8,1.9
	c0.4,0.6,0.6,1.1,0.6,1.6c0,0.1,0,0.4-0.1,0.7c-0.1,0.4-0.3,0.6-0.8,0.9C95.3,15,95.1,15,94.9,15c-0.3,0-0.6-0.1-0.9-0.4
	c0-0.5,0-0.7,0-0.8c-1.6,0.6-3.4,1.4-5.6,2.1C88.3,16.3,88.1,16.5,88,16.5L88,16.5z M88,23c0,0-0.2,0-0.4,0c-0.2,0-0.5-0.2-0.7-0.7
	c-0.2-0.3-0.2-0.6-0.2-0.9c0-0.2,0.1-0.5,0.2-0.9c0.1-0.4,0.4-0.7,0.8-0.9c0.3-0.3,0.5-0.7,0.8-1.3c0.1-0.4,0.2-0.9,0.2-1.3
	c0-0.2,0-0.5-0.1-0.7h0.3c0.5,1.4,0.8,2.6,0.8,3.6c0,0.1,0,0.4,0,1c0,0.6-0.2,1.2-0.7,1.7C88.7,22.8,88.3,23,88,23L88,23z
	 M91.7,21.8c-0.3,0-0.7-0.2-1.1-0.6c0.1-0.7,0.2-1.4,0.2-2.1c0-1-0.1-2-0.4-3.1l0.4-0.1c1.4,1.2,2.2,2.3,2.3,3.4l0,0.4
	c0,0.8-0.2,1.4-0.7,1.8C92.1,21.7,91.9,21.8,91.7,21.8L91.7,21.8z M95,20.6c-0.3,0-0.6-0.1-0.9-0.4v-0.3c0-1.4-0.4-2.9-1.2-4.4
	l0.5-0.2c1.6,0.9,2.5,1.8,2.8,2.8c0.1,0.3,0.1,0.6,0.1,0.8c0,0.6-0.2,1-0.5,1.4C95.5,20.5,95.3,20.6,95,20.6z M94.9,24.1l-0.4-0.9
	c1-0.6,2.2-1.5,3.7-2.7c0.2-0.1,0.3-0.2,0.3-0.2c0.1-0.1,0.2-0.2,0.2-0.2c0,0,0,0-0.1,0l-0.3,0c-0.2,0-0.7,0.1-1.2,0.1V9l2.8,1.1
	h5.5l1.2-1.3l2.9,2.2c-0.5,0.6-0.9,0.9-1.2,1v6.6c0,0.2-0.2,0.4-0.4,0.5c-0.3,0.2-0.6,0.3-0.9,0.4c-0.3,0.1-0.7,0.1-1,0.1h-0.5v-0.9
	h-5.7c0-0.1,0-0.1,0-0.1l0.4-0.5l3.5,1.7c-0.3,0.4-0.5,0.7-0.7,0.8c-0.2,0.1-0.4,0.2-0.7,0.2l-0.3,0C100,22.2,97.7,23.3,94.9,24.1
	L94.9,24.1z M109.3,9.5H95.7L95.3,8h5.6V6.8h-3.7l-0.4-1.5h4.1V4.2h-4.5L96,2.7h4.9V0l3.8,0.3c-0.1,1-0.5,1.5-1,1.5v0.9h1.5l1.3-1.6
	c0,0.2,0.1,0.4,0.3,0.5s0.5,0.3,0.8,0.5c0.5,0.3,1,0.6,1.6,1c-0.1,0.4-0.3,0.7-0.4,0.8c-0.1,0.1-0.2,0.2-0.4,0.2h-4.7v1.1h1l1.2-1.4
	c0,0.2,0.1,0.4,0.3,0.5c0.2,0.2,0.4,0.3,0.8,0.5c0.4,0.2,0.9,0.5,1.4,0.9c-0.1,0.5-0.2,0.7-0.3,0.9c-0.1,0.1-0.3,0.2-0.4,0.2h-3.9V8
	h2.5l1.3-1.5c0,0.2,0.1,0.3,0.3,0.5s0.5,0.3,0.8,0.5c0.5,0.2,1,0.6,1.6,1c-0.1,0.4-0.3,0.7-0.4,0.8C109.6,9.4,109.4,9.5,109.3,9.5
	L109.3,9.5z M105.4,12.4v-0.8h-5.7v0.8H105.4z M105.4,14.9v-1h-5.7v1H105.4z M105.4,17.3v-0.9h-5.7v0.9H105.4z M108.1,23.9
	c-0.4,0-0.8-0.2-1.1-0.5c-0.6-1.1-1.9-2.3-4-3.7l0.4-0.9c2.7,0.4,4.5,1,5.5,1.7c0.8,0.6,1.2,1.2,1.2,1.7c0,0.1,0,0.3-0.1,0.7
	c-0.1,0.4-0.5,0.7-1.1,0.9C108.5,23.9,108.3,23.9,108.1,23.9L108.1,23.9z"/>
<path class="st0" d="M22.8,37.8l0.6,0.5c-0.3,0.6-0.7,1-1.2,1.3c-0.5,0.3-1.1,0.5-1.8,0.5c-1,0-1.8-0.3-2.4-1c-0.6-0.6-1-1.5-1-2.4
	s0.3-1.8,1-2.4c0.6-0.6,1.4-1,2.4-1c0.6,0,1.1,0.1,1.6,0.4c0.5,0.3,0.9,0.6,1.2,1.1l-0.7,0.5c-0.2-0.4-0.5-0.7-0.9-0.9
	c-0.4-0.2-0.8-0.3-1.3-0.3c-0.7,0-1.3,0.2-1.8,0.8c-0.5,0.5-0.7,1.1-0.7,1.9c0,0.8,0.2,1.4,0.7,1.9c0.5,0.5,1.1,0.7,1.8,0.7
	c0.5,0,1-0.1,1.4-0.4C22.2,38.6,22.5,38.2,22.8,37.8L22.8,37.8z"/>
<path class="st0" d="M28.3,40c-1,0-1.8-0.3-2.4-1c-0.6-0.6-0.9-1.5-0.9-2.4s0.3-1.8,0.9-2.4c0.6-0.6,1.4-1,2.4-1c1,0,1.8,0.3,2.4,1
	c0.6,0.6,1,1.5,1,2.4s-0.3,1.8-1,2.4C30.1,39.7,29.3,40,28.3,40L28.3,40z M28.3,39.2c0.7,0,1.3-0.2,1.8-0.7c0.5-0.5,0.7-1.1,0.7-1.9
	s-0.2-1.4-0.7-1.9C29.6,34.2,29,34,28.3,34c-0.7,0-1.3,0.2-1.8,0.8s-0.7,1.1-0.7,1.9c0,0.8,0.2,1.4,0.7,1.9S27.6,39.2,28.3,39.2
	L28.3,39.2z"/>
<path class="st0" d="M33.7,39.8v-6.5h0.4l4.2,4.8v-4.8h0.8v6.5h-0.4L34.5,35v4.8H33.7L33.7,39.8z"/>
<path class="st0" d="M41,38.9l0.5-0.7c0.5,0.4,0.9,0.6,1.4,0.8s1,0.3,1.5,0.3c0.6,0,1.1-0.1,1.5-0.4c0.4-0.2,0.6-0.6,0.6-1
	c0-0.3-0.1-0.6-0.4-0.8c-0.3-0.2-0.6-0.3-1.1-0.4c-0.1,0-0.3,0-0.5,0c-1.1-0.1-1.8-0.2-2.2-0.4c-0.3-0.1-0.5-0.3-0.7-0.6
	c-0.2-0.2-0.2-0.5-0.2-0.8c0-0.5,0.2-1,0.7-1.3c0.5-0.3,1.1-0.5,1.8-0.5c0.5,0,1.1,0.1,1.6,0.3s1,0.4,1.5,0.8l-0.5,0.7
	c-0.4-0.3-0.8-0.6-1.3-0.7c-0.4-0.2-0.9-0.2-1.4-0.2c-0.5,0-0.9,0.1-1.2,0.3c-0.3,0.2-0.5,0.4-0.5,0.7c0,0.1,0,0.2,0.1,0.3
	c0,0.1,0.1,0.2,0.2,0.3c0.3,0.2,0.8,0.3,1.7,0.4c0.4,0,0.7,0.1,0.9,0.1c0.7,0.1,1.2,0.3,1.6,0.6c0.4,0.3,0.6,0.8,0.6,1.3
	c0,0.6-0.3,1.1-0.8,1.5c-0.5,0.4-1.2,0.6-2.1,0.6c-0.6,0-1.2-0.1-1.8-0.3C42,39.5,41.5,39.2,41,38.9L41,38.9z"/>
<path class="st0" d="M50.5,39.8v-5.7h-2.7v-0.7H54v0.7h-2.7v5.7H50.5z"/>
<path class="st0" d="M55,39.8v-6.5h3.7c0.6,0,1.1,0.2,1.5,0.5c0.4,0.3,0.5,0.8,0.5,1.3c0,0.5-0.1,0.9-0.4,1.2
	c-0.3,0.3-0.7,0.5-1.1,0.6l1.6,2.8h-0.9L58.3,37h-2.5v2.8L55,39.8L55,39.8z M55.8,36.2h2.8c0.4,0,0.7-0.1,0.9-0.3s0.3-0.4,0.3-0.8
	s-0.1-0.6-0.3-0.8c-0.2-0.2-0.5-0.3-0.9-0.3h-2.9V36.2L55.8,36.2z"/>
<path class="st0" d="M63.4,33.4v4.2c0,0.7,0.1,1.1,0.4,1.4c0.3,0.2,0.8,0.3,1.5,0.3c0.7,0,1.2-0.1,1.5-0.3c0.2-0.2,0.4-0.7,0.4-1.4
	v-4.2h0.8v4.4c0,0.8-0.2,1.4-0.6,1.7c-0.4,0.3-1.1,0.5-2,0.5c-0.9,0-1.6-0.2-2-0.5c-0.4-0.3-0.6-0.9-0.6-1.7v-4.4H63.4L63.4,33.4z"
	/>
<path class="st0" d="M75.5,37.8l0.6,0.5c-0.3,0.6-0.7,1-1.2,1.3c-0.5,0.3-1.1,0.5-1.8,0.5c-1,0-1.8-0.3-2.4-1
	c-0.6-0.6-0.9-1.5-0.9-2.4s0.3-1.8,0.9-2.4c0.6-0.6,1.4-1,2.4-1c0.6,0,1.1,0.1,1.6,0.4c0.5,0.3,0.9,0.6,1.2,1.1l-0.7,0.5
	c-0.2-0.4-0.5-0.7-0.9-0.9C74,34.1,73.6,34,73.1,34c-0.7,0-1.3,0.2-1.8,0.8c-0.5,0.5-0.7,1.1-0.7,1.9c0,0.8,0.2,1.4,0.7,1.9
	c0.5,0.5,1.1,0.7,1.8,0.7c0.5,0,1-0.1,1.3-0.4C74.9,38.6,75.2,38.2,75.5,37.8L75.5,37.8z"/>
<path class="st0" d="M79.3,39.8v-5.7h-2.7v-0.7h6.2v0.7h-2.7v5.7H79.3z"/>
<path class="st0" d="M83.8,39.8v-6.5h0.8v6.5H83.8z"/>
<path class="st0" d="M90,40c-1,0-1.8-0.3-2.4-1s-0.9-1.5-0.9-2.4s0.3-1.8,0.9-2.4s1.4-1,2.4-1s1.8,0.3,2.4,1s1,1.5,1,2.4
	s-0.3,1.8-1,2.4S90.9,40,90,40L90,40z M90,39.2c0.7,0,1.3-0.2,1.8-0.7c0.5-0.5,0.7-1.1,0.7-1.9s-0.2-1.4-0.7-1.9
	c-0.5-0.5-1.1-0.7-1.8-0.7c-0.7,0-1.3,0.2-1.8,0.8c-0.5,0.5-0.7,1.1-0.7,1.9c0,0.8,0.2,1.4,0.7,1.9C88.6,39,89.2,39.2,90,39.2
	L90,39.2z"/>
<path class="st0" d="M95.3,39.8v-6.5h0.4l4.2,4.8v-4.8h0.8v6.5h-0.4L96.1,35v4.8H95.3L95.3,39.8z"/>
</svg>
