<svg width="117" height="40" viewBox="0 0 117 40" fill="none" xmlns="http://www.w3.org/2000/svg">
<path d="M9.99005 23.55C9.97005 22.92 9.94005 22.44 9.89005 22.11C9.84005 21.78 9.75005 21.52 9.63005 21.34C9.51005 21.16 9.28005 20.98 8.95005 20.82C8.62005 20.66 8.12005 20.51 7.46005 20.4V19.68C7.46005 19.76 7.55005 19.8 7.73005 19.8C8.13005 19.8 8.64005 19.72 9.27005 19.58C9.75005 19.48 10.18 19.43 10.56 19.43C10.69 19.43 10.76 19.43 10.77 19.4C10.77 19.38 10.78 14.44 10.78 4.58003H7.47005L7.05005 3.06003H13.17L14.64 1.05003C14.64 1.22003 14.68 1.34003 14.76 1.41003C14.84 1.49003 14.96 1.55003 15.11 1.60003C15.34 1.67003 15.64 1.85003 16.01 2.15003H26.36L27.83 0.280029C27.83 0.460029 27.95 0.650029 28.18 0.830029C28.41 1.01003 28.71 1.21003 29.08 1.43003C29.64 1.75003 30.22 2.15003 30.82 2.65003C30.69 3.08003 30.55 3.36003 30.42 3.48003C30.29 3.60003 30.1501 3.67003 30.0201 3.67003H24.7L23.41 5.21003C23.18 5.44003 23.06 5.58003 23.06 5.61003H25.85L27.07 4.32003L29.95 6.53003C29.52 7.13003 29.16 7.44003 28.86 7.48003V17.9C28.79 18.18 28.49 18.44 27.95 18.67C27.41 18.9 26.91 19.02 26.45 19.02H25.95V17.9H20.25V18.1C20.25 18.42 19.99 18.72 19.47 19.01C18.95 19.3 18.4 19.45 17.82 19.45H17.4V4.42003L20.31 5.59003H21.53C21.56 5.36003 21.61 4.71003 21.68 3.65003H17.7701C17.5001 3.42003 17.36 3.29003 17.32 3.28003L17.54 3.48003L17.61 3.58003C17.49 3.99003 17.37 4.26003 17.25 4.39003C17.13 4.51003 16.99 4.58003 16.84 4.58003H13.78V19.45C13.78 20.16 13.68 20.81 13.49 21.4C13.3 21.99 12.94 22.47 12.4 22.84C11.86 23.21 11.06 23.45 10 23.55H9.99005ZM14.07 24.17L13.57 23.22C15.01 22.49 16.35 21.63 17.57 20.65C18.79 19.67 19.73 18.74 20.36 17.88L23.7701 19.99C23.6001 20.24 23.47 20.42 23.37 20.54C23.27 20.66 23.14 20.71 22.97 20.71C22.89 20.71 22.78 20.69 22.65 20.66C21.64 21.44 20.34 22.15 18.75 22.79C17.16 23.43 15.6 23.89 14.07 24.17ZM25.93 9.12003V7.11003H20.23V9.12003H25.93ZM25.93 12.7V10.64H20.23V12.7H25.93ZM25.93 16.36V14.2H20.23V16.36H25.93ZM28.49 24.02C28.26 24.02 28 23.97 27.72 23.87C26.66 22.08 25.0101 20.38 22.7701 18.77L23.44 18.1C25.56 18.22 27.14 18.62 28.17 19.32C29.4 20.17 30.01 21.13 30.01 22.2C30.01 22.73 29.84 23.18 29.51 23.54C29.23 23.86 28.89 24.01 28.49 24.01V24.02Z" fill="white"/>
<path d="M34.72 23.08C34.72 23.08 34.58 23.08 34.36 23.05C34.14 23.03 33.89 22.8 33.63 22.35C33.48 22.03 33.41 21.73 33.41 21.43C33.41 21.21 33.48 20.92 33.61 20.56C33.74 20.2 34 19.88 34.38 19.61C34.68 19.31 34.93 18.87 35.15 18.29C35.32 17.83 35.4 17.33 35.4 16.8L35.37 16.28H35.69C36.19 17.66 36.44 18.87 36.44 19.91C36.44 19.98 36.44 20.3 36.41 20.88C36.39 21.46 36.17 22.03 35.74 22.6C35.46 22.91 35.12 23.07 34.72 23.07V23.08ZM34.65 16.84L33.53 13.61C33.53 13.61 33.53 13.66 33.55 13.66C33.57 13.66 33.6 13.65 33.64 13.62C33.68 13.59 33.74 13.54 33.83 13.45C33.91 13.36 34 13.26 34.1 13.16L34.36 12.9C34.44 12.83 34.5 12.77 34.55 12.74C35.15 12.26 35.74 11.69 36.32 11.04C36.9 10.39 37.34 9.84002 37.64 9.41002C37.16 9.61002 36.37 9.92002 35.28 10.33C35.21 10.41 35.15 10.49 35.09 10.57C35.03 10.64 34.98 10.7 34.93 10.73L34.85 10.78L33.53 7.62002C33.53 7.62002 33.53 7.67002 33.55 7.67002C33.57 7.67002 33.59 7.66001 33.61 7.63001C33.64 7.61001 33.69 7.56001 33.76 7.48001C33.83 7.40001 33.91 7.32001 34 7.22001C34.08 7.12001 34.16 7.03002 34.24 6.95002C34.32 6.87002 34.38 6.81001 34.43 6.78001C35.06 6.10001 35.69 5.09001 36.32 3.76001C36.95 2.43001 37.4 1.22001 37.66 0.140015L41.14 1.91001C40.94 2.34001 40.77 2.62001 40.63 2.73001C40.49 2.85001 40.34 2.90001 40.17 2.90001L40 2.87001C39.4 3.73001 38.73 4.59001 37.97 5.43001C37.22 6.28001 36.64 6.86002 36.24 7.20002C37.4 7.20002 38.35 7.20002 39.1 7.17002C39.63 6.27002 40.04 5.47001 40.32 4.76001L43.55 6.95002C43.3 7.33002 43.09 7.58002 42.9 7.70002C42.78 7.77002 42.66 7.80001 42.53 7.80001C42.43 7.80001 42.33 7.78002 42.23 7.75002C41.45 8.71002 40.53 9.71002 39.46 10.75C38.39 11.79 37.54 12.54 36.91 13C36.99 12.98 37.15 12.98 37.38 12.98C38.21 12.93 39.36 12.85 40.84 12.73C40.74 12.25 40.33 11.33 39.62 9.97001L40.14 9.70002C41.88 10.55 42.9 11.47 43.2 12.46C43.32 12.82 43.37 13.16 43.37 13.45C43.37 13.98 43.2 14.41 42.87 14.74C42.62 15.01 42.35 15.14 42.05 15.14C41.75 15.14 41.45 15.01 41.1 14.74C41.1 14.29 41.1 14.07 41.07 14.07C39.46 14.77 37.46 15.55 35.08 16.41C34.98 16.54 34.88 16.65 34.79 16.73C34.7 16.81 34.64 16.85 34.63 16.85L34.65 16.84ZM38.5 21.32C38.14 21.32 37.76 21.11 37.38 20.7C37.51 19.99 37.58 19.27 37.58 18.56C37.58 17.61 37.46 16.65 37.23 15.68L37.58 15.6C39.06 16.76 39.84 17.86 39.94 18.88L39.97 19.3C39.97 20.13 39.71 20.72 39.2 21.07C38.97 21.24 38.74 21.32 38.5 21.32ZM41.53 19.68C41.2 19.68 40.86 19.52 40.51 19.21L40.54 18.66C40.54 17.32 40.17 15.94 39.45 14.53L39.97 14.31C41.64 15.21 42.59 16.14 42.81 17.12C42.88 17.42 42.91 17.69 42.91 17.94C42.91 18.52 42.72 18.98 42.34 19.33C42.07 19.56 41.81 19.68 41.54 19.68H41.53ZM42.77 23.88L42.2 22.98C45.42 21.39 47.7 19.66 49.04 17.81C48.26 16.38 47.6 14.39 47.05 11.82C46.82 14.27 46.22 16.5 45.25 18.5C44.28 20.5 42.76 22.21 40.69 23.64L40.07 22.94C41.6 21.3 42.69 19.54 43.34 17.65C43.99 15.76 44.4 13.75 44.55 11.59C44.65 9.87001 44.7 8.04001 44.7 6.12001V3.28001H42.49L42.07 1.79001H51.27L52.27 0.600015L55.15 2.79001C54.87 3.15001 54.62 3.40001 54.4 3.52001C54.18 3.64001 53.96 3.72001 53.73 3.76001L51.94 8.76001H52.76L54.15 7.39001L56.89 9.85001C56.64 10.23 56.43 10.48 56.26 10.58C56.09 10.69 55.86 10.74 55.58 10.74C54.8 13.46 53.68 15.75 52.22 17.6C53.25 18.66 54.85 19.6 57.02 20.41L56.85 21.45C55.81 21.75 55.11 22.54 54.76 23.81C53.04 22.91 51.53 21.56 50.23 19.76C48.17 21.6 45.69 22.97 42.79 23.86L42.77 23.88ZM50.48 15.7C51.59 13.73 52.32 11.92 52.67 10.28H51.45L50.68 11.1L47.92 9.38001C48.55 8.83001 49.01 8.49001 49.29 8.36001C49.62 7.58001 49.96 6.68002 50.31 5.66002C50.66 4.64002 50.91 3.85001 51.08 3.28001H47.4C47.37 5.92001 47.33 7.76001 47.28 8.80001C47.94 11.34 49.01 13.63 50.49 15.69L50.48 15.7Z" fill="white"/>
<path d="M60.61 24.02H60.21V5.23997L62.65 6.25997H63.2V3.42997H59.82L59.4 1.93997H68.65L69.94 0.219971C69.94 0.399971 70.05 0.579971 70.26 0.759971C70.47 0.939971 70.75 1.10997 71.08 1.29997C71.58 1.59997 72.1 1.96997 72.65 2.41997C72.52 2.84997 72.39 3.12997 72.26 3.24997C72.13 3.36997 72 3.43997 71.85 3.43997H68.09V6.26997H68.66L69.78 5.07997L72.52 7.16997C72.07 7.76997 71.67 8.09997 71.3 8.16997V22.52C71.23 22.8 70.97 23.06 70.5 23.29C70.03 23.52 69.6 23.64 69.21 23.64H68.79V21.72H62.57V22.79C62.57 23.09 62.36 23.37 61.95 23.64C61.53 23.9 61.09 24.04 60.61 24.04V24.02ZM68.79 16.04V14.03C68.56 14.06 68.3 14.08 68.02 14.08H67.4C66.89 14.08 66.54 13.92 66.38 13.61C66.21 13.29 66.13 12.85 66.13 12.27V7.78997H65.16C65.16 8.76997 65.11 9.65997 65.01 10.45C64.8 12.37 64.06 13.87 62.8 14.95L62.58 14.7V16.04H68.8H68.79ZM62.57 13.95C63.08 12.99 63.39 12.02 63.49 11.05C63.59 10.08 63.64 8.98997 63.64 7.77997H62.57V13.95ZM68.79 20.19V17.55H62.57V20.19H68.79ZM66.13 6.25997V3.42997H65.16V6.25997H66.13ZM67.67 11.63V11.58C67.67 11.58 67.76 11.55 67.89 11.55H68.79V7.76997H67.67V11.63ZM78.21 23.25H75.85C74.74 23.25 73.98 23.05 73.57 22.65C73.16 22.25 72.96 21.5 72.96 20.39V7.47997L75.85 8.59997H78.76V3.42997H73.14L72.69 1.90997H78.61L79.83 0.539971L82.84 2.87997C82.34 3.52997 81.87 3.88997 81.42 3.96997V11.51C81.39 11.66 81.25 11.81 81 11.96C80.75 12.11 80.46 12.23 80.12 12.33C79.78 12.43 79.48 12.48 79.21 12.48H78.76V10.12H75.6V19.67C75.6 19.75 75.64 19.8 75.71 19.82C75.78 19.84 76.37 19.85 77.46 19.85C78.9 19.85 79.8 19.84 80.16 19.81C80.52 19.79 80.74 19.69 80.82 19.52C81.05 19.04 81.41 17.86 81.89 15.99H82.09L82.16 19.65C82.79 19.98 83.11 20.48 83.11 21.14C83.11 21.87 82.75 22.4 82.04 22.74C81.33 23.08 80.05 23.25 78.21 23.25Z" fill="white"/>
<path d="M94.6701 24.25H94.1701V14.75C93.1401 15.6 92.2201 16.26 91.4101 16.74L91.1901 16.52V22.94C91.1201 23.22 90.8501 23.49 90.3601 23.75C89.8701 24.01 89.3701 24.14 88.8601 24.14H88.3401V11.14C87.3801 12.27 86.4901 13.16 85.6801 13.83L85.1801 13.48C87.4701 9.65 89.1201 5.16 90.1301 0L94.3101 1.27C94.1401 1.77 93.9701 2.1 93.7901 2.25C93.6101 2.41 93.3901 2.49 93.1401 2.49H93.0701C92.3901 4.38 91.7501 5.86 91.1501 6.94L92.1701 7.31C91.9901 7.77 91.8201 8.08 91.6701 8.23C91.5201 8.38 91.3601 8.47 91.2001 8.5V15.74C92.2801 14.65 93.1801 13.49 93.9101 12.26C94.6401 11.03 95.1701 9.9 95.5001 8.85H92.4901L92.0701 7.33H96.0001V4.87H93.5901L93.1701 3.38H96.0001V0.12L99.7501 0.47C99.6501 0.98 99.5201 1.35 99.3501 1.58C99.1801 1.8 98.9801 1.93 98.7301 1.97V3.39H101.52V0.12L105.25 0.47C105.13 1 104.99 1.37 104.83 1.59C104.66 1.81 104.46 1.93 104.21 1.96V3.38H104.93L106.12 1.71C106.12 1.89 106.22 2.06 106.42 2.22C106.62 2.38 106.87 2.55 107.17 2.75C107.63 3.03 108.12 3.41 108.61 3.87C108.49 4.29 108.37 4.55 108.25 4.68C108.13 4.8 108 4.87 107.87 4.87H104.21V7.33H105.58L106.77 5.69C106.77 5.95 107.11 6.3 107.79 6.71C108.25 6.99 108.74 7.37 109.26 7.85C109.08 8.51 108.84 8.85 108.54 8.85H98.7401V8.63L98.2901 9.65L97.9701 10.32H104.54L105.68 9.03L108.72 11.29C108.42 11.66 108.17 11.91 107.97 12.05C107.77 12.19 107.57 12.28 107.37 12.31V20.87C107.37 21.5 107.3 22.05 107.16 22.52C107.02 22.99 106.73 23.37 106.3 23.65C105.87 23.93 105.23 24.11 104.38 24.2C104.38 23.2 104.33 22.61 104.23 22.41C104.06 22.04 103.65 21.81 102.99 21.71V20.96C102.99 21.04 103.03 21.08 103.11 21.08C103.19 21.08 103.39 21.01 103.71 20.86C104.03 20.71 104.22 20.64 104.28 20.64L104.65 20.66V18.47H102.11V22.3C102.11 22.55 101.9 22.8 101.49 23.05C101.07 23.3 100.55 23.42 99.9201 23.42H99.4201V18.47H96.9601V23C96.9601 23.27 96.7401 23.54 96.3101 23.82C95.8801 24.1 95.3301 24.24 94.6701 24.24V24.25ZM99.4201 13.73V11.84H96.9301L96.9601 11.82V13.74H99.4201V13.73ZM99.4201 16.96V15.24H96.9601V16.96H99.4201ZM101.51 7.34V4.88H98.7201V7.34H101.51ZM104.64 13.73V11.84H102.1V13.73H104.64ZM104.64 16.96V15.24H102.1V16.96H104.64Z" fill="white"/>
<path d="M3.55005 39.82V33.35H7.38005C8.02005 33.35 8.50005 33.49 8.83005 33.76C9.16005 34.03 9.32005 34.43 9.32005 34.96C9.32005 35.22 9.27005 35.45 9.17005 35.65C9.07005 35.85 8.92005 36.02 8.74005 36.14C9.08005 36.34 9.34005 36.58 9.52005 36.87C9.70005 37.16 9.78005 37.49 9.78005 37.87C9.78005 38.47 9.58005 38.94 9.19005 39.29C8.80005 39.64 8.26005 39.81 7.59005 39.81H3.55005V39.82ZM4.35005 35.91H7.44005C7.78005 35.91 8.04005 35.83 8.22005 35.68C8.40005 35.53 8.49005 35.3 8.49005 35.01C8.49005 34.71 8.40005 34.48 8.23005 34.32C8.06005 34.16 7.79005 34.09 7.44005 34.09H4.35005V35.9V35.91ZM4.35005 39.08H7.74005C8.11005 39.08 8.40005 38.97 8.61005 38.75C8.82005 38.53 8.93005 38.24 8.93005 37.86C8.93005 37.48 8.82005 37.19 8.61005 36.98C8.40005 36.77 8.11005 36.65 7.74005 36.65H4.35005V39.08Z" fill="white"/>
<path d="M11.0101 39.82L14.1801 33.35H14.8501L18.0601 39.82H17.1901L16.3101 38.08H12.7401L11.8801 39.82H11.0201H11.0101ZM13.1001 37.32H15.9501L14.5201 34.45L13.1001 37.32Z" fill="white"/>
<path d="M19.03 38.85L19.5 38.15C19.96 38.51 20.43 38.78 20.93 38.96C21.43 39.14 21.91 39.24 22.4 39.24C23 39.24 23.48 39.11 23.86 38.86C24.24 38.61 24.42 38.28 24.42 37.88C24.42 37.56 24.29 37.3 24.02 37.1C23.75 36.9 23.38 36.77 22.91 36.73C22.8 36.72 22.63 36.71 22.42 36.69C21.36 36.62 20.63 36.49 20.25 36.31C19.95 36.17 19.72 35.98 19.56 35.75C19.4 35.52 19.33 35.26 19.33 34.98C19.33 34.46 19.56 34.03 20.03 33.7C20.5 33.37 21.1 33.2 21.84 33.2C22.38 33.2 22.91 33.29 23.44 33.47C23.97 33.65 24.47 33.91 24.94 34.26L24.47 34.93C24.07 34.61 23.65 34.37 23.21 34.21C22.77 34.05 22.32 33.97 21.85 33.97C21.36 33.97 20.96 34.06 20.64 34.25C20.32 34.44 20.17 34.68 20.17 34.96C20.17 35.07 20.2 35.18 20.25 35.27C20.3 35.36 20.38 35.45 20.48 35.53C20.75 35.73 21.32 35.86 22.2 35.91C22.61 35.93 22.92 35.96 23.14 35.99C23.8 36.06 24.32 36.28 24.7 36.62C25.08 36.96 25.27 37.4 25.27 37.9C25.27 38.51 25.01 39 24.48 39.39C23.95 39.78 23.27 39.98 22.42 39.98C21.78 39.98 21.18 39.89 20.62 39.7C20.06 39.51 19.54 39.23 19.04 38.84L19.03 38.85Z" fill="white"/>
<path d="M27.41 39.82V33.35H32.5V34.09H28.22V35.99H30.81V36.73H28.22V39.07H32.77V39.81H27.42L27.41 39.82Z" fill="white"/>
<path d="M39.15 39.82V33.35H44.24V34.09H39.96V35.99H42.55V36.73H39.96V39.07H44.51V39.81H39.16L39.15 39.82Z" fill="white"/>
<path d="M46.3 39.82V33.35H46.7201L50.9201 38.18V33.35H51.73V39.82H51.32L47.1101 34.99V39.82H46.3101H46.3Z" fill="white"/>
<path d="M59.22 38.07V37.12H57.46V36.38H60.03V38.33C59.72 38.87 59.31 39.28 58.81 39.57C58.31 39.86 57.74 40 57.1 40C56.13 40 55.33 39.68 54.7 39.04C54.07 38.4 53.75 37.59 53.75 36.61C53.75 35.63 54.07 34.81 54.7 34.18C55.33 33.55 56.13 33.22 57.1 33.22C57.7 33.22 58.24 33.35 58.73 33.61C59.22 33.87 59.62 34.24 59.93 34.73L59.26 35.21C59.06 34.82 58.76 34.52 58.38 34.3C58 34.08 57.57 33.97 57.1 33.97C56.37 33.97 55.77 34.22 55.3 34.72C54.83 35.22 54.59 35.85 54.59 36.61C54.59 37.37 54.83 38 55.3 38.5C55.77 39 56.38 39.24 57.1 39.24C57.55 39.24 57.96 39.14 58.31 38.95C58.66 38.76 58.97 38.46 59.23 38.08L59.22 38.07Z" fill="white"/>
<path d="M62.29 39.82V33.32H63.1V39.82H62.29Z" fill="white"/>
<path d="M65.65 39.82V33.35H66.07L70.27 38.18V33.35H71.08V39.82H70.67L66.46 34.99V39.82H65.66H65.65Z" fill="white"/>
<path d="M73.6001 39.82V33.35H78.6901V34.09H74.4101V35.99H77.0001V36.73H74.4101V39.07H78.9601V39.81H73.6101L73.6001 39.82Z" fill="white"/>
<path d="M80.75 39.82V33.35H85.84V34.09H81.56V35.99H84.15V36.73H81.56V39.07H86.11V39.81H80.76L80.75 39.82Z" fill="white"/>
<path d="M87.87 39.82V33.35H91.58C92.21 33.35 92.71 33.51 93.07 33.83C93.43 34.15 93.61 34.59 93.61 35.15C93.61 35.62 93.47 36.02 93.19 36.35C92.91 36.68 92.54 36.89 92.08 36.97L93.7 39.81H92.81L91.19 36.98H88.68V39.81H87.88L87.87 39.82ZM88.67 36.23H91.52C91.93 36.23 92.23 36.14 92.44 35.96C92.65 35.78 92.75 35.52 92.75 35.17C92.75 34.82 92.64 34.57 92.44 34.38C92.24 34.19 91.94 34.1 91.56 34.1H88.67V36.24V36.23Z" fill="white"/>
<path d="M95.6801 39.82V33.32H96.4901V39.82H95.6801Z" fill="white"/>
<path d="M99.04 39.82V33.35H99.46L103.66 38.18V33.35H104.47V39.82H104.06L99.85 34.99V39.82H99.05H99.04Z" fill="white"/>
<path d="M111.95 38.07V37.12H110.19V36.38H112.76V38.33C112.45 38.87 112.04 39.28 111.54 39.57C111.04 39.86 110.47 40 109.83 40C108.86 40 108.06 39.68 107.43 39.04C106.8 38.4 106.48 37.59 106.48 36.61C106.48 35.63 106.8 34.81 107.43 34.18C108.06 33.55 108.86 33.22 109.83 33.22C110.43 33.22 110.97 33.35 111.46 33.61C111.95 33.87 112.35 34.24 112.66 34.73L111.99 35.21C111.79 34.82 111.49 34.52 111.11 34.3C110.73 34.08 110.3 33.97 109.83 33.97C109.1 33.97 108.5 34.22 108.03 34.72C107.56 35.22 107.32 35.85 107.32 36.61C107.32 37.37 107.56 38 108.03 38.5C108.5 39 109.11 39.24 109.83 39.24C110.28 39.24 110.69 39.14 111.04 38.95C111.39 38.76 111.7 38.46 111.96 38.08L111.95 38.07Z" fill="white"/>
</svg>
