<svg width="117" height="40" viewBox="0 0 117 40" fill="none" xmlns="http://www.w3.org/2000/svg">
<path d="M7.56003 24.08L7.09003 23.28C9.13003 21.7 10.43 20.22 10.99 18.83C10.03 17.59 9.12003 15.39 8.28003 12.24L8.58003 12.07C9.33003 14.18 10.39 15.84 11.76 17.07C12.41 15.11 12.79 13.25 12.9 11.47H11.33L10.56 12.29L7.72003 10.47C8.37003 9.89002 8.85003 9.55002 9.16003 9.45002C9.61003 8.61002 10.08 7.65002 10.56 6.58002C11.05 5.51002 11.41 4.69002 11.64 4.11002H7.81003L7.36003 2.59002H11.97L13.09 1.45002L15.85 3.94002C15.55 4.27002 15.29 4.49002 15.08 4.60002C14.86 4.71002 14.64 4.77002 14.41 4.79002C13.56 6.71002 12.75 8.44002 11.97 9.96002H12.89L14.16 8.64002L16.85 10.9C16.6 11.3 16.4 11.55 16.24 11.66C16.08 11.77 15.88 11.83 15.63 11.85C15.3 14.32 14.65 16.48 13.69 18.34C14.87 18.97 16.4 19.4 18.29 19.62C20.18 19.84 22.42 19.95 25.01 19.95C27.75 19.95 29.7 19.95 30.88 19.93V21.02C29.69 21.28 29.09 22.1 29.09 23.46H24.79C21.92 23.46 19.49 23.25 17.49 22.83C15.49 22.41 13.78 21.57 12.35 20.33C11.07 21.94 9.48003 23.19 7.57003 24.08H7.56003ZM20.67 20.4H20.12V17.34H15.12L14.7 15.82H20.12V14.03H16.26L15.84 12.54H20.12V10.8H16.56L16.11 9.28002H20.11V7.54002H14.73L14.31 6.02002H20.13V4.30002H16.35L15.85 2.81002H20.13V0.0800171L23.89 0.430017C23.77 1.43002 23.45 1.93002 22.92 1.95002V2.82002H25.01L26.15 1.58002L29.08 3.77002C28.57 4.37002 28.14 4.70002 27.81 4.77002V6.04002H28.11L29.18 4.32002C29.18 4.49002 29.26 4.66002 29.43 4.83002C29.6 5.00002 29.81 5.19002 30.08 5.39002C30.49 5.70002 30.91 6.11002 31.32 6.61002C31.14 7.24002 30.9 7.55002 30.6 7.55002H27.81V10.63C27.74 10.91 27.45 11.15 26.94 11.35C26.43 11.55 25.96 11.65 25.55 11.65H25.13V10.8H22.92V12.54H25.41L26.68 10.85C26.68 11.03 26.78 11.2 26.98 11.36C27.18 11.52 27.44 11.7 27.75 11.89C28.26 12.17 28.79 12.55 29.32 13.03C29.2 13.45 29.09 13.71 28.97 13.84C28.85 13.96 28.72 14.03 28.57 14.03H22.92V15.82H26.03L27.47 14C27.47 14.18 27.59 14.36 27.82 14.54C28.05 14.72 28.34 14.9 28.69 15.1C29.25 15.42 29.84 15.82 30.46 16.32C30.33 16.75 30.19 17.03 30.06 17.15C29.93 17.27 29.79 17.34 29.66 17.34H22.92V19.26C22.92 19.56 22.68 19.82 22.19 20.06C21.7 20.29 21.2 20.41 20.69 20.41L20.67 20.4ZM25.12 6.02002V4.30002H22.91V6.02002H25.12ZM25.12 9.28002V7.54002H22.91V9.28002H25.12Z" fill="#EB6519"/>
<path d="M44.38 24.21H43.88V19.11C41.19 21.38 37.84 22.96 33.83 23.86L33.31 22.89C35.22 22.09 36.83 21.22 38.16 20.25C39.49 19.29 40.44 18.42 41.02 17.64H34.35L33.93 16.12H43.88V14.68C42.9 15.13 41.84 15.47 40.7 15.7L40.2 14.78C41.53 14.22 42.52 13.64 43.17 13.06C43.83 12.48 44.25 11.89 44.45 11.31C44.65 10.73 44.75 10.12 44.75 9.51V6.75L44.15 7.07L43.53 6.55C44.33 5.59 44.83 4.95 45.05 4.63L45.12 4.53C45.22 4.43 45.27 4.37 45.27 4.36C45.27 4.33 45.23 4.31 45.15 4.31H42.41C42.41 4.31 42.38 4.42 42.38 4.63L42.41 5.05C42.41 5.66 42.36 6.05 42.26 6.19L42.31 6.21C42.79 6.58 43.48 7.14 44.37 7.9C44.24 8.33 44.11 8.61 43.98 8.73C43.86 8.85 43.72 8.92 43.57 8.92H40.41V11.43C41.57 11.28 42.71 11.12 43.82 10.93L43.97 12.02C42.18 12.85 39.53 13.94 36.01 15.28C35.98 15.38 35.93 15.47 35.86 15.55C35.79 15.63 35.74 15.7 35.69 15.75L35.59 15.82L33.77 12.24C34.9 12.14 36.22 11.99 37.75 11.79V8.91H34.96L34.54 7.39H40.66C40.66 7.39 40.7 7.36 40.74 7.35C40.77 7.35 40.79 7.32 40.79 7.29C40.79 7.26 40.71 7.2 40.55 7.1C40.39 7.01 40.16 6.83 39.84 6.57V6.32C39.84 5.47 39.68 4.79 39.37 4.28H38.42C36.94 5.91 35.44 7.07 33.89 7.76L33.29 7.16C35.15 5.22 36.51 2.83 37.37 0L40.95 1.47C40.75 1.97 40.57 2.28 40.42 2.4C40.26 2.52 40.08 2.59 39.89 2.59L39.69 2.57C39.57 2.77 39.5 2.89 39.47 2.93C39.44 2.97 39.42 3 39.42 3.02L39.59 2.77H42.25L43.42 1.18C43.42 1.36 43.52 1.53 43.71 1.69C43.9 1.85 44.14 2.03 44.44 2.22C44.89 2.49 45.34 2.83 45.78 3.24C46.29 2.24 46.73 1.17 47.1 0.01L50.68 1.15C50.5 1.63 50.32 1.95 50.13 2.12C49.95 2.29 49.73 2.37 49.48 2.37H49.41L49.04 2.94C49.04 2.94 49.11 2.88 49.19 2.77H52.94L54.26 1.08C54.26 1.26 54.37 1.44 54.58 1.61C54.79 1.78 55.08 1.97 55.43 2.17C55.93 2.45 56.45 2.82 57 3.26C56.87 3.69 56.73 3.97 56.6 4.09C56.47 4.21 56.34 4.28 56.2 4.28H52.74C52.74 4.28 52.66 4.5 52.66 4.95C52.61 5.66 52.54 6.09 52.46 6.22L54.35 7.81C54.08 8.14 53.88 8.36 53.73 8.47C53.58 8.58 53.43 8.64 53.28 8.66V11.79C53.28 11.79 53.44 11.74 53.65 11.74H54.94C55.2 11.74 55.36 11.68 55.41 11.57C55.56 11.29 55.8 10.6 56.13 9.51L56.25 9.19H56.42L56.49 11.6C56.95 11.82 57.19 12.27 57.19 12.97C57.19 14.23 56.16 14.86 54.11 14.86H52.82C51.97 14.86 51.43 14.66 51.18 14.25C50.93 13.84 50.81 13.23 50.81 12.4V8.45H47.38V8.8C49.67 9.25 50.81 10.1 50.81 11.36C50.81 11.44 50.78 11.64 50.72 11.96C50.66 12.28 50.41 12.56 49.96 12.81C49.79 12.89 49.62 12.93 49.44 12.93C49.16 12.93 48.87 12.82 48.57 12.61C48.47 11.63 48.07 10.74 47.38 9.92C47.36 10.6 47.2 11.34 46.89 12.13C46.58 12.92 46.11 13.51 45.46 13.87L47.67 14.04C47.54 15 47.22 15.5 46.73 15.53V16.1H52.65L53.99 14.46C53.99 14.64 54.1 14.82 54.31 14.98C54.53 15.15 54.81 15.32 55.16 15.5C55.66 15.77 56.18 16.12 56.73 16.57C56.65 17.02 56.54 17.3 56.41 17.43C56.28 17.55 56.14 17.62 55.99 17.62H48.5C49.15 18.07 50.29 18.52 51.94 18.98C53.59 19.44 55.34 19.77 57.18 19.99L57.01 21.06C55.8 21.37 55.05 22.27 54.75 23.75C51.28 22.69 48.62 20.6 46.74 17.48V23.13C46.74 23.41 46.47 23.66 45.94 23.88C45.41 24.09 44.88 24.2 44.35 24.2L44.38 24.21ZM50.6 7.17C50.6 7.17 50.65 7.17 50.65 7.15L50.1 6.73C49.98 5.75 49.72 4.95 49.3 4.32H47.91C47.41 4.85 46.95 5.29 46.52 5.64C46.09 5.99 45.82 6.18 45.72 6.21L47.73 6.96H50.71L50.49 7.18H50.59L50.6 7.17Z" fill="#EB6519"/>
<path d="M70.05 6.40002H60.08L59.66 4.88002H67.32L68.44 3.41002C68.44 3.59002 68.53 3.76002 68.71 3.91002C68.89 4.06002 69.12 4.22002 69.41 4.38002C69.84 4.61002 70.3 4.94002 70.78 5.35002C70.7 5.80002 70.59 6.08002 70.46 6.21002C70.33 6.33002 70.19 6.40002 70.06 6.40002H70.05ZM69.03 12.79H61.1L60.68 11.27H66.43L67.5 9.90002C67.5 10.08 67.54 10.21 67.62 10.27C67.7 10.33 67.82 10.39 67.97 10.44C68.22 10.51 68.53 10.68 68.92 10.96C69.6 10.23 70.11 9.48002 70.45 8.72002C70.79 7.96002 71.01 7.19002 71.11 6.42002C71.21 5.65002 71.26 4.91002 71.26 4.19002V0.750024L74.24 1.84002H76.55L77.77 0.520024L80.43 2.73002C80.16 3.06002 79.94 3.28002 79.77 3.39002C79.6 3.50002 79.43 3.56002 79.26 3.58002V7.29002L79.34 7.26002C79.34 7.26002 79.42 7.24002 79.43 7.24002H80.31C80.82 7.24002 81.14 7.24002 81.26 7.21002H81.51L82.08 7.11002H82.25C82.55 7.26002 82.78 7.45002 82.95 7.67002C83.12 7.89002 83.2 8.20002 83.2 8.58002C83.2 9.87002 82.17 10.52 80.12 10.52H78.78C77.9 10.52 77.33 10.32 77.08 9.91002C76.82 9.50002 76.7 8.86002 76.7 7.98002V3.34002H73.89V4.21002C73.89 4.91002 73.8 5.73002 73.62 6.69002C73.44 7.64002 73.04 8.57002 72.44 9.46002C71.83 10.36 70.93 11.1 69.72 11.7L69.45 11.45C69.45 11.45 69.59 11.57 69.82 11.8C69.7 12.21 69.58 12.48 69.46 12.61C69.34 12.74 69.21 12.8 69.07 12.8L69.03 12.79ZM69.01 9.58002H61.13L60.71 8.06002H66.43L67.5 6.64002C67.5 6.82002 67.59 6.99002 67.76 7.14002C67.93 7.29002 68.16 7.44002 68.44 7.59002C68.85 7.82002 69.29 8.15002 69.76 8.59002C69.64 9.01002 69.52 9.27002 69.4 9.40002C69.28 9.52002 69.15 9.59002 69.01 9.59002V9.58002ZM61.52 23.91H61.15V13.49L63.71 14.53H66.4L67.49 13.36L70.3 15.45C69.8 16.03 69.39 16.35 69.06 16.42V21.84C68.99 22.12 68.72 22.38 68.24 22.6C67.76 22.82 67.32 22.94 66.92 22.94H66.5V21.6H63.69V22.69C63.69 22.99 63.45 23.27 62.98 23.52C62.51 23.77 62.02 23.91 61.52 23.91ZM65.08 5.03002C64.76 5.03002 64.43 4.92002 64.08 4.71002C63.87 3.40002 63.17 2.13002 61.99 0.900024L62.56 0.400024C64.22 0.520024 65.36 0.860024 65.99 1.44002C66.54 1.95002 66.81 2.48002 66.81 3.03002C66.81 3.13002 66.78 3.37002 66.72 3.74002C66.66 4.11002 66.37 4.47002 65.84 4.80002C65.59 4.95002 65.33 5.02002 65.07 5.02002L65.08 5.03002ZM66.5 20.1V16.02H63.69V20.1H66.5ZM67.12 24.1L66.67 23.1C69.94 21.79 72.3 20.33 73.76 18.72C72.8 17.43 72.01 15.53 71.4 13.02H70.21L69.76 11.5H77.69L79.16 10.08L81.97 12.62C81.72 12.98 81.51 13.22 81.32 13.33C81.14 13.44 80.9 13.49 80.6 13.49C79.65 15.65 78.6 17.32 77.44 18.51C78.83 19.26 80.79 19.89 83.31 20.4L83.21 21.44C81.97 21.71 81.16 22.51 80.8 23.85C78.76 23.14 76.91 22.01 75.25 20.47C72.98 22.16 70.27 23.36 67.12 24.08V24.1ZM75.18 17.11C76.36 15.52 77.12 14.16 77.47 13.03H71.97C72.45 14.36 73.52 15.72 75.18 17.11Z" fill="#EB6519"/>
<path d="M98.21 6.29999H86.17L85.75 4.77999H95.03L96.32 3.10999C96.32 3.28999 96.42 3.46999 96.63 3.62999C96.84 3.78999 97.1 3.96999 97.41 4.14999C97.91 4.42999 98.41 4.79999 98.93 5.23999C98.85 5.68999 98.74 5.96999 98.61 6.09999C98.48 6.21999 98.34 6.28999 98.21 6.28999V6.29999ZM96.89 9.50999H87.46L87.04 8.01999H93.81L95.08 6.39999C95.08 6.57999 95.18 6.74999 95.38 6.90999C95.58 7.06999 95.83 7.22999 96.13 7.39999C96.63 7.67999 97.13 8.04999 97.65 8.51999C97.53 8.92999 97.41 9.19999 97.29 9.32999C97.17 9.44999 97.04 9.51999 96.91 9.51999L96.89 9.50999ZM96.89 12.74H87.46L87.04 11.22H93.81L95.08 9.62999C95.08 9.80999 95.18 9.97999 95.38 10.14C95.58 10.3 95.83 10.46 96.13 10.63C96.63 10.91 97.13 11.28 97.65 11.75C97.53 12.16 97.41 12.43 97.29 12.56C97.17 12.68 97.04 12.75 96.91 12.75L96.89 12.74ZM88.03 23.83H87.66V13.53L90.3 14.6H93.98L95.15 13.36L98.06 15.55C97.55 16.15 97.11 16.48 96.77 16.55V21.85C96.7 22.13 96.42 22.39 95.92 22.61C95.42 22.83 94.97 22.95 94.55 22.95H94.1V21.53H90.27V22.6C90.27 22.9 90.02 23.18 89.52 23.45C89.02 23.72 88.53 23.85 88.03 23.85V23.83ZM92.26 4.99999C91.95 4.99999 91.61 4.87999 91.24 4.64999C91.04 3.26999 90.32 1.91999 89.08 0.599993L89.73 0.199993C91.4 0.329993 92.57 0.699993 93.21 1.28999C93.77 1.81999 94.06 2.37999 94.06 2.95999C94.06 3.05999 94.03 3.29999 93.96 3.67999C93.89 4.05999 93.59 4.41999 93.06 4.74999C92.81 4.91999 92.55 4.99999 92.26 4.99999ZM94.1 20.02V16.09H90.27V20.02H94.1ZM101.98 24.07H101.43V10.72H97.53L97.11 9.19999H101.44V0.179993L105.35 0.549993C105.17 1.52999 104.83 2.02999 104.33 2.06999V9.20999H105.65L106.97 7.41999C106.97 7.61999 107.08 7.80999 107.29 7.97999C107.5 8.14999 107.79 8.34999 108.14 8.55999C108.64 8.85999 109.15 9.23999 109.68 9.69999C109.56 10.13 109.44 10.41 109.31 10.53C109.18 10.65 109.05 10.72 108.91 10.72H104.33V22.66C104.33 22.99 104.06 23.31 103.53 23.62C103 23.93 102.49 24.08 101.99 24.08L101.98 24.07Z" fill="#EB6519"/>
<path d="M17.14 39.83L20.31 33.36H20.98L24.19 39.83H23.32L22.44 38.09H18.87L18.01 39.83H17.15H17.14ZM19.23 37.33H22.08L20.65 34.46L19.23 37.33Z" fill="#EB6519"/>
<path d="M25.73 39.83V33.36H29.44C30.07 33.36 30.57 33.52 30.93 33.84C31.29 34.16 31.47 34.6 31.47 35.16C31.47 35.63 31.33 36.03 31.05 36.36C30.77 36.69 30.4 36.9 29.94 36.98L31.56 39.82H30.67L29.05 36.99H26.54V39.82H25.74L25.73 39.83ZM26.53 36.24H29.38C29.79 36.24 30.09 36.15 30.3 35.97C30.51 35.79 30.61 35.53 30.61 35.18C30.61 34.83 30.51 34.58 30.3 34.39C30.09 34.2 29.8 34.11 29.42 34.11H26.53V36.25V36.24Z" fill="#EB6519"/>
<path d="M38.69 37.77L39.33 38.25C39.03 38.81 38.63 39.25 38.11 39.55C37.59 39.85 37.01 40 36.35 40C35.38 40 34.58 39.68 33.95 39.04C33.32 38.4 33 37.59 33 36.61C33 35.63 33.32 34.81 33.95 34.18C34.58 33.55 35.38 33.22 36.35 33.22C36.95 33.22 37.49 33.35 37.98 33.61C38.47 33.87 38.87 34.24 39.18 34.73L38.51 35.21C38.31 34.82 38.01 34.52 37.63 34.3C37.25 34.08 36.82 33.97 36.35 33.97C35.62 33.97 35.02 34.22 34.55 34.72C34.08 35.22 33.84 35.85 33.84 36.61C33.84 37.37 34.08 38 34.55 38.5C35.02 39 35.63 39.24 36.35 39.24C36.86 39.24 37.31 39.12 37.7 38.86C38.09 38.6 38.42 38.24 38.68 37.76L38.69 37.77Z" fill="#EB6519"/>
<path d="M41.38 39.83V33.36H42.19V35.91H46V33.36H46.81V39.83H46V36.66H42.19V39.83H41.38Z" fill="#EB6519"/>
<path d="M49.39 39.83V33.33H50.2V39.83H49.39Z" fill="#EB6519"/>
<path d="M53.87 39.83V34.11H51.15V33.37H57.4V34.11H54.68V39.83H53.87Z" fill="#EB6519"/>
<path d="M58.35 39.83V33.36H63.44V34.1H59.16V36H61.75V36.74H59.16V39.08H63.71V39.82H58.36L58.35 39.83Z" fill="#EB6519"/>
<path d="M70.66 37.77L71.3 38.25C71 38.81 70.6 39.25 70.08 39.55C69.56 39.85 68.98 40 68.32 40C67.35 40 66.55 39.68 65.92 39.04C65.29 38.4 64.97 37.59 64.97 36.61C64.97 35.63 65.29 34.81 65.92 34.18C66.55 33.55 67.35 33.22 68.32 33.22C68.92 33.22 69.46 33.35 69.95 33.61C70.44 33.87 70.84 34.24 71.15 34.73L70.48 35.21C70.28 34.82 69.98 34.52 69.6 34.3C69.22 34.08 68.79 33.97 68.32 33.97C67.59 33.97 66.99 34.22 66.52 34.72C66.05 35.22 65.81 35.85 65.81 36.61C65.81 37.37 66.05 38 66.52 38.5C66.99 39 67.6 39.24 68.32 39.24C68.83 39.24 69.28 39.12 69.67 38.86C70.06 38.6 70.39 38.24 70.65 37.76L70.66 37.77Z" fill="#EB6519"/>
<path d="M74.47 39.83V34.11H71.75V33.37H78V34.11H75.28V39.83H74.47Z" fill="#EB6519"/>
<path d="M79.59 33.36V37.55C79.59 38.22 79.72 38.67 79.97 38.9C80.22 39.13 80.72 39.24 81.46 39.24C82.2 39.24 82.69 39.13 82.94 38.9C83.19 38.67 83.32 38.22 83.32 37.55V33.36H84.13V37.77C84.13 38.57 83.92 39.14 83.51 39.48C83.1 39.82 82.41 40 81.47 40C80.53 40 79.84 39.83 79.43 39.48C79.02 39.13 78.81 38.56 78.81 37.77V33.36H79.61H79.59Z" fill="#EB6519"/>
<path d="M86.47 39.83V33.36H90.18C90.81 33.36 91.31 33.52 91.67 33.84C92.03 34.16 92.21 34.6 92.21 35.16C92.21 35.63 92.07 36.03 91.79 36.36C91.51 36.69 91.14 36.9 90.68 36.98L92.3 39.82H91.41L89.79 36.99H87.28V39.82H86.48L86.47 39.83ZM87.27 36.24H90.12C90.53 36.24 90.83 36.15 91.04 35.97C91.25 35.79 91.35 35.53 91.35 35.18C91.35 34.83 91.25 34.58 91.04 34.39C90.83 34.2 90.54 34.11 90.16 34.11H87.27V36.25V36.24Z" fill="#EB6519"/>
<path d="M94.27 39.83V33.36H99.36V34.1H95.08V36H97.67V36.74H95.08V39.08H99.63V39.82H94.28L94.27 39.83Z" fill="#EB6519"/>
</svg>
