<?xml version="1.0" encoding="utf-8"?>
<!-- Generator: Adobe Illustrator 27.0.0, SVG Export Plug-In . SVG Version: 6.00 Build 0)  -->
<svg version="1.1" id="圖層_1" xmlns="http://www.w3.org/2000/svg" xmlns:xlink="http://www.w3.org/1999/xlink" x="0px" y="0px"
	 viewBox="0 0 116 40" style="enable-background:new 0 0 116 40;" xml:space="preserve">
<style type="text/css">
	.st0{fill:#9FA0A0;}
</style>
<path class="st0" d="M16.9,24.1h-0.4v-10c-0.3,0.1-0.6,0.1-1.1,0.1V8.6c-0.1,0.1-0.2,0.2-0.3,0.2c-0.1,0-1,0-2.8,0v6.5l3.3-0.7
	l0.2,0.9C14.3,16.7,12,18.2,9,20c-0.1,0.1-0.1,0.2-0.2,0.3c-0.1,0.1-0.1,0.1-0.2,0.2c-0.1,0.1-0.1,0.1-0.1,0.1l-1.8-4.1
	c0.8-0.1,1.8-0.3,2.9-0.6V8.8H7.3L6.9,7.3h2.8V0.5l3.7,0.3c-0.1,1-0.4,1.5-1,1.5v5h0.2l1-1.8c0,0.2,0.1,0.3,0.2,0.5
	c0.1,0.2,0.3,0.3,0.6,0.5c0.4,0.3,0.7,0.6,1.1,1V3.2l2.7,1.1h5.4c0.3-1,0.7-2.4,1.2-4.3l4,1c-0.2,0.5-0.3,0.9-0.5,1
	s-0.4,0.2-0.6,0.2h-0.1c-0.3,0.3-0.7,0.6-1,0.9c-0.4,0.3-0.7,0.6-1,0.8c-0.3,0.2-0.4,0.3-0.5,0.4h1.3l1.1-1.2l2.8,2.1
	c-0.5,0.6-0.9,0.9-1.1,0.9v6.5c0,0.2-0.2,0.4-0.4,0.5c-0.3,0.2-0.6,0.3-0.9,0.4c-0.3,0.1-0.6,0.1-0.9,0.1h0.6l1.4,1.1
	c-0.3,0.4-0.5,0.6-0.7,0.8c-0.2,0.1-0.4,0.2-0.6,0.2v7.1c0,0.2-0.2,0.4-0.4,0.5c-0.3,0.2-0.6,0.3-0.9,0.4s-0.7,0.1-1,0.1h-0.4v-1.5
	h-5.7v0.4c0,0.3-0.2,0.6-0.8,0.9C18,24,17.5,24.1,16.9,24.1L16.9,24.1z M20,5c-0.3,0-0.6-0.1-0.9-0.3c-0.3-1.4-1-2.8-2.3-4.2
	l0.7-0.4c1.6,0.2,2.7,0.6,3.3,1.2c0.5,0.5,0.8,1.1,0.8,1.7c0,0.1,0,0.3-0.1,0.6c0,0.3-0.3,0.7-0.8,1C20.5,4.9,20.3,5,20,5L20,5z
	 M20,10.7c-0.2,0-0.5-0.1-0.8-0.3c0-1.2-0.5-2.5-1.3-3.9l0.5-0.3c1.8,0.8,2.7,1.8,2.7,3c0,0.1,0,0.3-0.1,0.6
	c-0.1,0.3-0.3,0.5-0.7,0.7C20.2,10.6,20.1,10.7,20,10.7L20,10.7z M24.8,13.9l1.2-1.3l0.5,0.3v-0.3h-8.4V13c0,0.2,0,0.3-0.1,0.4
	c0,0.1-0.1,0.1-0.1,0.2v0.1h0c0.1,0,0.2,0,0.3-0.1l1,0.4H24.8L24.8,13.9z M21.2,11.1V5.9h-3.1v5.3H21.2z M24.9,17.4v-2h-5.6v2H24.9z
	 M24.9,20.9v-2.1h-5.6v2.1H24.9z M26.5,11.1v-3c-0.1,0-0.3,0-0.5,0l-0.1,0.1c-0.5,0.9-1.1,1.7-1.7,2.4l-0.5-0.1c0.4-1.5,0.7-3,1-4.5
	l1.8,0.7V5.8h-3v5.3L26.5,11.1L26.5,11.1z"/>
<path class="st0" d="M36.5,24.1H36V11.2c-1,1.2-1.9,2.1-2.7,2.7l-0.5-0.3c2.3-3.9,4-8.5,5-13.7L42,1.2c-0.2,0.5-0.3,0.8-0.5,1
	c-0.2,0.2-0.4,0.3-0.7,0.3c-0.6,1.8-1.3,3.4-2,4.6l1,0.4c-0.2,0.5-0.3,0.8-0.5,0.9c-0.1,0.2-0.3,0.3-0.5,0.3v14.3
	c-0.1,0.3-0.4,0.5-0.8,0.8S37,24.1,36.5,24.1L36.5,24.1z M56.4,23.2H39.6l-0.4-1.5H42V5.9L44.9,7h1l0-1.8h-5.2l-0.4-1.5H46
	c0-1,0-2.2,0-3.8l4.1,0.3c-0.2,1-0.5,1.5-1,1.5l-0.2,1.9h2.9l1.5-2c0,0.2,0.1,0.4,0.4,0.6c0.2,0.2,0.5,0.4,0.9,0.6
	c0.6,0.3,1.1,0.8,1.7,1.2c-0.1,0.4-0.3,0.7-0.4,0.8c-0.1,0.1-0.3,0.2-0.4,0.2h-6.8c0,0.6-0.1,1.2-0.2,1.8h2.4L52,5.5l3.2,2.3
	c-0.3,0.4-0.5,0.7-0.7,0.8c-0.2,0.1-0.4,0.2-0.7,0.2v12.9l1.1-1.6c0,0.2,0.1,0.4,0.2,0.5c0.2,0.1,0.4,0.3,0.6,0.5
	c0.4,0.3,0.8,0.7,1.3,1.1C56.9,22.9,56.7,23.2,56.4,23.2L56.4,23.2z M51,10.6v-2h-6.3v2H51z M51,14.1v-2h-6.3v2H51z M51,17.7v-2
	h-6.3v2H51z M51,21.7v-2.5h-6.3v2.5H51z"/>
<path class="st0" d="M60.7,21.7l-1.7-4c1-0.3,2.1-0.6,3.2-0.9V9.2h-2.3l-0.4-1.5h2.8V0.5l3.7,0.4c-0.1,1-0.4,1.5-1,1.5v5.4h0.3
	l1.1-1.9c0,0.2,0.1,0.3,0.2,0.5c0.2,0.2,0.4,0.4,0.7,0.6c0.5,0.3,0.9,0.8,1.3,1.3c-0.2,0.6-0.4,0.9-0.7,0.9h-2.9v6.6
	c1.2-0.4,2.2-0.8,3.1-1.2l0.3,0.8c-1.7,1.6-4.1,3.4-7.1,5.5c0,0.1-0.1,0.2-0.1,0.3c-0.1,0.1-0.1,0.2-0.2,0.3
	C60.7,21.6,60.7,21.7,60.7,21.7z M76.1,23.3h-3.4c-1,0-1.8-0.1-2.4-0.3s-1-0.5-1.3-1c-0.3-0.5-0.4-1.2-0.4-2.1v-9.2l-2.4,0.9
	l-0.9-1.2l3.3-1.2V2.1l3.8,0.4c-0.2,1-0.5,1.5-1,1.5v4.2l2.2-0.8V0l3.7,0.4c-0.1,1-0.5,1.5-1,1.5v4.5l2.2-0.8l-2.5,0.8h1.8l2.1-2.1
	l2.8,2.3C82.4,7,82.1,7.2,82,7.3c-0.2,0.1-0.4,0.2-0.6,0.2c0,3.1-0.1,5.3-0.3,6.6s-0.6,2.3-1.2,2.7c-0.6,0.5-1.4,0.8-2.4,0.8
	c0-0.6,0-1.1,0-1.3c0-0.3-0.1-0.5-0.2-0.6s-0.2-0.2-0.4-0.4c-0.2-0.1-0.4-0.2-0.8-0.3v2.8c0,0.3-0.2,0.6-0.8,0.9s-1,0.4-1.4,0.4
	h-0.5V8.9l-2.2,0.8v9.4c0,0.2,0.1,0.3,0.3,0.4c0.2,0.1,0.7,0.1,1.4,0.1h3.4c1.2,0,2.2,0,2.8-0.1c0.5,0,0.8-0.2,1-0.4
	c0.3-0.4,0.7-1.6,1.3-3.4h0.2l0.1,3.6c0.8,0.3,1.2,0.8,1.2,1.6c0,0.6-0.2,1-0.6,1.4c-0.4,0.3-1.1,0.6-2.1,0.7
	C79.3,23.2,77.9,23.3,76.1,23.3L76.1,23.3z M77.5,14c0.4,0,0.6-0.1,0.8-0.2c0.1-0.1,0.2-0.7,0.3-1.7c0.1-1,0.1-2.7,0.1-5L76.2,8v5.9
	C76.7,13.9,77.1,14,77.5,14z"/>
<path class="st0" d="M88.3,24.1h-0.4v-4.3l-0.6,0.3c0,0.1-0.1,0.2-0.2,0.3c-0.1,0.1-0.1,0.2-0.2,0.2c-0.1,0.1-0.1,0.1-0.1,0.1
	l-2-3.9c1-0.1,2-0.3,3-0.5V1.7l2.8,1.2c1.1-1,2.1-1.9,2.9-2.8L97,2.8c-0.2,0.2-0.3,0.4-0.5,0.5c-0.1,0.1-0.2,0.2-0.3,0.2
	s-0.3,0-0.5-0.1c-1.7,0.5-3.3,0.9-5,1.3v2.7h1.5l1.3-1.7c0,0.2,0.1,0.4,0.3,0.5c0.2,0.2,0.5,0.4,0.8,0.6C95,7,95.5,7.4,96,7.8
	c-0.1,0.4-0.2,0.7-0.4,0.8c-0.1,0.1-0.3,0.2-0.4,0.2h-4.5v2.9h1.5l1.3-1.7c0,0.2,0.1,0.4,0.3,0.6c0.2,0.2,0.5,0.3,0.8,0.6
	c0.5,0.3,1,0.7,1.5,1.1c-0.1,0.7-0.4,1-0.7,1h-4.7v2.5c1.9-0.4,3.8-0.8,5.7-1.2l0.2,1c-1.6,0.9-3.5,1.9-5.9,3.1v4.4
	c0,0.3-0.2,0.5-0.7,0.8C89.6,24,89,24.1,88.3,24.1L88.3,24.1z M92.6,24.2l-0.5-1c3.6-1.3,6.1-2.9,7.7-4.7c-0.8-1.3-1.5-3.1-2.1-5.5
	h-1.4l-0.5-1.5h7.6L105,10l2.8,2.5c-0.2,0.4-0.4,0.7-0.6,0.8c-0.2,0.1-0.4,0.2-0.7,0.2c-0.9,2.1-1.9,3.8-3,5
	c1.4,0.9,3.4,1.6,5.8,2.2l-0.1,1.1c-1.3,0.3-2.1,1.1-2.5,2.5c-2-0.8-3.8-2.1-5.3-3.7C99,22.2,96.1,23.5,92.6,24.2L92.6,24.2z
	 M95.5,11.7L95,11c0.7-0.8,1.2-1.5,1.6-2.2c0.3-0.8,0.6-1.5,0.6-2.2c0.1-0.7,0.1-1.4,0.1-2.1V0.8l3.1,1.1h2.2l1.3-1.3l2.8,2.2
	c-0.3,0.3-0.5,0.6-0.7,0.7s-0.3,0.2-0.5,0.2v3.5c0,0,0,0,0.1,0s0.4,0,1.1,0c0.4,0,0.8-0.1,1.1-0.2c0.1,0,0.1,0,0.2,0.1
	c0.3,0.1,0.5,0.3,0.7,0.5c0.2,0.2,0.2,0.5,0.2,0.9c0,0.7-0.2,1.2-0.8,1.5c-0.5,0.3-1.3,0.5-2.3,0.5h-1c-0.9,0-1.4-0.2-1.7-0.7
	c-0.2-0.4-0.4-1.1-0.4-1.9V3.4H100v1c0,0.7-0.1,1.5-0.3,2.4c-0.2,0.9-0.6,1.8-1.3,2.7C97.8,10.4,96.8,11.1,95.5,11.7L95.5,11.7z
	 M101.3,16.8c1.1-1.6,1.8-2.9,2.1-3.9h-4.9C98.8,14.1,99.8,15.4,101.3,16.8L101.3,16.8z"/>
<path class="st0" d="M32,39.8v-6.5h0.8v5.7H37v0.7L32,39.8L32,39.8z"/>
<path class="st0" d="M41.2,40c-1,0-1.8-0.3-2.4-1s-1-1.5-1-2.4s0.3-1.8,1-2.4s1.4-1,2.4-1c1,0,1.8,0.3,2.4,1s1,1.5,1,2.4
	s-0.3,1.8-1,2.4C43,39.7,42.2,40,41.2,40L41.2,40z M41.2,39.2c0.7,0,1.3-0.2,1.8-0.7s0.7-1.1,0.7-1.9s-0.2-1.4-0.7-1.9
	c-0.5-0.5-1.1-0.7-1.8-0.7s-1.3,0.2-1.8,0.8s-0.7,1.1-0.7,1.9c0,0.8,0.2,1.4,0.7,1.9S40.5,39.2,41.2,39.2L41.2,39.2z"/>
<path class="st0" d="M51.7,37.8l0.6,0.5c-0.3,0.6-0.7,1-1.2,1.3S50.1,40,49.4,40c-1,0-1.8-0.3-2.4-1s-1-1.5-1-2.4s0.3-1.8,1-2.4
	s1.4-1,2.4-1c0.6,0,1.1,0.1,1.6,0.4c0.5,0.3,0.9,0.6,1.2,1.1l-0.7,0.5c-0.2-0.4-0.5-0.7-0.9-0.9c-0.4-0.2-0.8-0.3-1.3-0.3
	c-0.7,0-1.3,0.2-1.8,0.8c-0.5,0.5-0.7,1.1-0.7,1.9c0,0.8,0.2,1.4,0.7,1.9c0.5,0.5,1.1,0.7,1.8,0.7c0.5,0,1-0.1,1.3-0.4
	C51.1,38.6,51.5,38.2,51.7,37.8L51.7,37.8z"/>
<path class="st0" d="M53.5,39.8l3.2-6.5h0.7l3.2,6.5h-0.9l-0.9-1.7h-3.6l-0.9,1.7H53.5L53.5,39.8z M55.5,37.3h2.8L57,34.5L55.5,37.3
	z"/>
<path class="st0" d="M62.5,39.8v-5.7h-2.7v-0.7h6.2v0.7h-2.7v5.7H62.5z"/>
<path class="st0" d="M67,39.8v-6.5h0.8v6.5H67z"/>
<path class="st0" d="M73.2,40c-1,0-1.8-0.3-2.4-1c-0.6-0.6-1-1.5-1-2.4s0.3-1.8,1-2.4c0.6-0.6,1.4-1,2.4-1c1,0,1.8,0.3,2.4,1
	s1,1.5,1,2.4s-0.3,1.8-0.9,2.4C75,39.7,74.2,40,73.2,40L73.2,40z M73.2,39.2c0.7,0,1.3-0.2,1.8-0.7s0.7-1.1,0.7-1.9
	s-0.2-1.4-0.7-1.9c-0.5-0.5-1.1-0.7-1.8-0.7c-0.7,0-1.3,0.2-1.8,0.8s-0.7,1.1-0.7,1.9c0,0.8,0.2,1.4,0.7,1.9S72.5,39.2,73.2,39.2
	L73.2,39.2z"/>
<path class="st0" d="M78.6,39.8v-6.5H79l4.2,4.8v-4.8H84v6.5h-0.4L79.4,35v4.8H78.6L78.6,39.8z"/>
</svg>
