<svg width="116" height="40" viewBox="0 0 116 40" fill="none" xmlns="http://www.w3.org/2000/svg">
<path d="M16.945 24.11H16.545V14.13C16.275 14.18 15.915 14.2 15.455 14.2V8.55003C15.325 8.67003 15.225 8.74003 15.155 8.76003C15.085 8.78003 14.165 8.80003 12.365 8.80003V15.34L15.625 14.62L15.875 15.49C14.315 16.68 12.025 18.18 9.01498 19.97C8.96498 20.07 8.90498 20.16 8.84498 20.24C8.77498 20.32 8.71498 20.39 8.65498 20.45C8.59498 20.51 8.55498 20.54 8.51498 20.56L6.72498 16.43C7.57498 16.28 8.54498 16.1 9.63498 15.88V8.79003H7.29498L6.87498 7.27003H9.63498V0.450029L13.365 0.800029C13.245 1.76003 12.915 2.26003 12.365 2.29003V7.29003H12.535L13.575 5.52003C13.575 5.69003 13.645 5.85003 13.795 6.01003C13.945 6.17003 14.135 6.34003 14.365 6.52003C14.715 6.79003 15.065 7.13003 15.435 7.56003V3.24003L18.145 4.33003H23.495C23.795 3.37003 24.185 1.93003 24.665 0.0300293L28.695 1.07003C28.525 1.58003 28.355 1.92003 28.185 2.07003C28.015 2.22003 27.795 2.29003 27.555 2.29003H27.485C27.165 2.57003 26.835 2.86003 26.475 3.16003C26.115 3.46003 25.805 3.72003 25.525 3.94003C25.245 4.16003 25.085 4.29003 25.045 4.33003H26.335L27.475 3.14003L30.305 5.25003C29.845 5.83003 29.455 6.14003 29.165 6.17003V12.69C29.135 12.87 28.985 13.04 28.735 13.2C28.475 13.36 28.175 13.49 27.835 13.58C27.495 13.67 27.185 13.73 26.905 13.73H27.525L28.965 14.82C28.685 15.18 28.455 15.44 28.265 15.58C28.085 15.72 27.895 15.8 27.695 15.82V22.93C27.665 23.11 27.515 23.28 27.245 23.44C26.975 23.6 26.665 23.73 26.315 23.83C25.965 23.93 25.635 23.98 25.355 23.98H24.905V22.46H19.255V22.83C19.255 23.14 19.005 23.43 18.495 23.7C17.985 23.97 17.465 24.1 16.915 24.1L16.945 24.11ZM20.005 4.95003C19.725 4.95003 19.425 4.86003 19.105 4.68003C18.835 3.30003 18.085 1.92003 16.845 0.530029L17.495 0.160029C19.075 0.380029 20.165 0.790029 20.775 1.40003C21.305 1.95003 21.575 2.51003 21.575 3.09003C21.575 3.16003 21.555 3.36003 21.515 3.71003C21.475 4.06003 21.215 4.40003 20.735 4.73003C20.505 4.88003 20.265 4.95003 20.015 4.95003H20.005ZM19.955 10.67C19.705 10.67 19.455 10.56 19.205 10.35C19.155 9.14003 18.715 7.85003 17.885 6.47003L18.435 6.20003C20.205 7.03003 21.095 8.03003 21.095 9.21003C21.095 9.33003 21.065 9.54003 20.995 9.84003C20.925 10.15 20.715 10.39 20.345 10.57C20.215 10.64 20.075 10.67 19.945 10.67H19.955ZM24.785 13.88L25.975 12.56L26.445 12.91V12.64H18.095V12.99C18.095 13.16 18.075 13.28 18.035 13.36C17.995 13.44 17.975 13.49 17.975 13.51V13.56H18.005C18.075 13.56 18.175 13.53 18.325 13.48L19.345 13.88H24.795H24.785ZM21.155 11.12V5.85003H18.095V11.12H21.155ZM24.935 17.36V15.4H19.285V17.36H24.935ZM24.935 20.94V18.88H19.285V20.94H24.935ZM26.455 11.12V8.16003C26.355 8.18003 26.195 8.18003 25.985 8.18003L25.915 8.30003C25.385 9.21003 24.815 10.02 24.195 10.74L23.695 10.59C24.095 9.08003 24.425 7.56003 24.695 6.04003L26.465 6.74003V5.84003H23.485V11.11H26.465L26.455 11.12Z" fill="white"/>
<path d="M36.525 24.11H35.975V11.22C35.015 12.38 34.115 13.29 33.285 13.96L32.765 13.66C35.065 9.73 36.725 5.18 37.735 0L41.985 1.22C41.815 1.72 41.645 2.05 41.465 2.23C41.285 2.4 41.045 2.49 40.745 2.49C40.115 4.33 39.455 5.85 38.785 7.04L39.805 7.41C39.655 7.86 39.505 8.16 39.355 8.33C39.205 8.5 39.045 8.59 38.885 8.6V22.93C38.805 23.21 38.515 23.48 38.035 23.73C37.555 23.98 37.045 24.1 36.515 24.1L36.525 24.11ZM56.375 23.21H39.615L39.195 21.69H41.985V5.9L44.895 7.02H45.915L45.965 5.25H40.815L40.395 3.76H45.995C46.025 2.8 46.045 1.55 46.045 0L50.095 0.35C49.915 1.33 49.565 1.84 49.055 1.89L48.835 3.76H51.765L53.255 1.8C53.255 1.98 53.375 2.17 53.615 2.36C53.855 2.55 54.155 2.76 54.525 2.99C55.085 3.32 55.665 3.74 56.265 4.23C56.135 4.66 56.005 4.94 55.875 5.06C55.755 5.18 55.615 5.25 55.465 5.25H48.625C48.575 5.81 48.505 6.4 48.425 7.02H50.835L52.005 5.5L55.235 7.79C54.965 8.19 54.735 8.45 54.535 8.59C54.335 8.73 54.105 8.81 53.835 8.84V21.72L54.905 20.1C54.905 20.28 54.985 20.45 55.155 20.6C55.325 20.75 55.525 20.91 55.775 21.1C56.195 21.38 56.615 21.76 57.045 22.22C56.915 22.88 56.685 23.22 56.375 23.22V23.21ZM50.975 10.58V8.54H44.705V10.58H50.975ZM50.975 14.14V12.1H44.705V14.14H50.975ZM50.975 17.67V15.66H44.705V17.67H50.975ZM50.975 21.7V19.19H44.705V21.7H50.975Z" fill="white"/>
<path d="M60.665 21.67L58.925 17.71C59.925 17.45 60.985 17.13 62.105 16.76V9.21999H59.765L59.345 7.72999H62.105V0.549988L65.835 0.899988C65.715 1.85999 65.385 2.35999 64.835 2.38999V7.73999H65.135L66.255 5.81999C66.255 5.98999 66.335 6.15999 66.505 6.32999C66.675 6.49999 66.885 6.70999 67.155 6.93999C67.605 7.28999 68.045 7.73999 68.475 8.27999C68.295 8.90999 68.055 9.22999 67.775 9.22999H64.845V15.82C66.035 15.39 67.065 15 67.925 14.65L68.225 15.42C66.515 16.98 64.145 18.83 61.115 20.97C61.095 21.05 61.065 21.15 61.005 21.26C60.945 21.37 60.885 21.46 60.815 21.55C60.745 21.63 60.695 21.67 60.665 21.67ZM76.065 23.26H72.635C71.655 23.26 70.865 23.17 70.255 23C69.645 22.83 69.205 22.5 68.925 22.02C68.645 21.54 68.505 20.84 68.505 19.91V10.75L66.145 11.62L65.225 10.45L68.505 9.22999V2.08999L72.255 2.48999C72.085 3.44999 71.765 3.94999 71.285 3.97999V8.20999L73.475 7.40999V0.0499878L77.135 0.419988C77.005 1.37999 76.675 1.87999 76.165 1.90999V6.44999L78.325 5.64999L75.865 6.39999H77.705L79.845 4.30999L82.675 6.61999C82.375 6.96999 82.135 7.19999 81.955 7.32999C81.775 7.44999 81.585 7.52999 81.405 7.53999C81.385 10.59 81.275 12.8 81.065 14.17C80.855 15.54 80.475 16.44 79.905 16.87C79.295 17.42 78.475 17.69 77.465 17.69C77.465 17.08 77.465 16.63 77.445 16.36C77.425 16.09 77.375 15.89 77.295 15.76C77.215 15.63 77.085 15.52 76.905 15.4C76.725 15.28 76.475 15.17 76.145 15.05V17.84C76.145 18.15 75.895 18.44 75.395 18.69C74.895 18.94 74.415 19.06 73.955 19.06H73.455V8.92999L71.265 9.72999V19.16C71.265 19.36 71.365 19.5 71.575 19.6C71.785 19.69 72.235 19.74 72.935 19.74H76.295C77.535 19.74 78.475 19.72 79.105 19.67C79.585 19.64 79.925 19.51 80.125 19.3C80.405 18.89 80.835 17.74 81.395 15.87H81.595L81.695 19.43C82.505 19.7 82.915 20.22 82.915 21C82.915 21.58 82.725 22.04 82.345 22.38C81.965 22.72 81.275 22.96 80.285 23.09C79.295 23.22 77.885 23.29 76.055 23.29L76.065 23.26ZM77.455 13.96C77.835 13.96 78.095 13.89 78.225 13.74C78.355 13.62 78.465 13.06 78.535 12.06C78.605 11.06 78.655 9.38999 78.675 7.04999L76.165 7.96999V13.91C76.665 13.94 77.095 13.96 77.455 13.96Z" fill="white"/>
<path d="M88.295 24.13H87.925V19.83L87.305 20.13C87.275 20.23 87.225 20.32 87.155 20.42C87.085 20.51 87.025 20.58 86.965 20.63C86.905 20.68 86.865 20.71 86.855 20.73L84.895 16.82C85.855 16.67 86.865 16.49 87.935 16.27V1.69999L90.695 2.93999C91.825 1.95999 92.795 1.03999 93.605 0.179993L96.965 2.78999C96.765 3.03999 96.615 3.21999 96.505 3.31999C96.395 3.41999 96.285 3.47999 96.165 3.47999C96.045 3.47999 95.895 3.44999 95.715 3.39999C94.035 3.90999 92.365 4.33999 90.685 4.66999V7.32999H92.155L93.425 5.60999C93.425 5.80999 93.525 5.98999 93.735 6.15999C93.945 6.32999 94.205 6.50999 94.515 6.70999C94.975 7.00999 95.465 7.38999 95.985 7.84999C95.865 8.26999 95.745 8.52999 95.625 8.65999C95.505 8.77999 95.365 8.84999 95.215 8.84999H90.685V11.74H92.225L93.515 9.99999C93.515 10.2 93.615 10.38 93.825 10.55C94.035 10.72 94.295 10.9 94.605 11.1C95.085 11.38 95.575 11.76 96.075 12.22C95.945 12.9 95.705 13.24 95.355 13.24H90.675V15.7C92.545 15.34 94.455 14.93 96.395 14.48L96.565 15.48C95.005 16.36 93.045 17.38 90.665 18.54V22.94C90.635 23.2 90.415 23.47 90.015 23.74C89.615 24 89.035 24.14 88.275 24.14L88.295 24.13ZM92.645 24.16L92.175 23.16C95.745 21.82 98.315 20.24 99.915 18.43C99.085 17.14 98.395 15.3 97.855 12.91H96.415L95.915 11.42H103.525L104.995 9.97999L107.755 12.49C107.545 12.89 107.345 13.14 107.175 13.25C107.005 13.36 106.765 13.41 106.465 13.41C105.585 15.55 104.575 17.22 103.435 18.41C104.845 19.26 106.795 19.98 109.275 20.57L109.205 21.64C107.915 21.91 107.065 22.73 106.665 24.1C104.655 23.29 102.885 22.05 101.345 20.39C98.975 22.2 96.075 23.45 92.665 24.15L92.645 24.16ZM95.505 11.67L95.005 11.02C95.715 10.27 96.245 9.52999 96.585 8.77999C96.925 8.02999 97.135 7.29999 97.215 6.56999C97.295 5.83999 97.335 5.13999 97.335 4.45999V0.829993L100.395 1.91999H102.635L103.905 0.579993L106.665 2.81999C106.385 3.14999 106.155 3.36999 105.985 3.47999C105.815 3.58999 105.645 3.64999 105.475 3.66999V7.17999C105.475 7.17999 105.505 7.14999 105.575 7.12999C105.645 7.10999 105.995 7.10999 106.645 7.10999C107.055 7.10999 107.415 7.05999 107.715 6.95999C107.785 6.95999 107.835 6.97999 107.885 7.00999C108.185 7.13999 108.415 7.31999 108.585 7.54999C108.755 7.76999 108.835 8.07999 108.835 8.45999C108.835 9.15999 108.585 9.64999 108.085 9.94999C107.585 10.25 106.825 10.4 105.795 10.4H104.775C103.895 10.4 103.345 10.18 103.105 9.74999C102.875 9.31999 102.755 8.66999 102.755 7.80999V3.43999H100.045V4.45999C100.045 5.13999 99.945 5.92999 99.745 6.83999C99.545 7.73999 99.115 8.62999 98.455 9.48999C97.795 10.35 96.805 11.08 95.495 11.68L95.505 11.67ZM101.255 16.84C102.315 15.28 103.005 13.97 103.315 12.91H98.415C98.845 14.14 99.795 15.45 101.245 16.84H101.255Z" fill="white"/>
<path d="M31.98 39.83V33.36H32.78V39.08H37V39.82H31.97L31.98 39.83Z" fill="white"/>
<path d="M41.2 40C40.23 40 39.43 39.68 38.8 39.04C38.17 38.4 37.85 37.59 37.85 36.61C37.85 35.63 38.17 34.81 38.8 34.18C39.43 33.55 40.23 33.22 41.2 33.22C42.17 33.22 42.97 33.54 43.61 34.18C44.25 34.82 44.57 35.63 44.57 36.61C44.57 37.59 44.25 38.4 43.62 39.04C42.99 39.68 42.18 40 41.21 40H41.2ZM41.2 39.24C41.93 39.24 42.53 38.99 43 38.5C43.47 38.01 43.71 37.38 43.71 36.61C43.71 35.84 43.47 35.21 43 34.72C42.53 34.23 41.92 33.98 41.19 33.98C40.46 33.98 39.86 34.23 39.39 34.73C38.92 35.23 38.68 35.86 38.68 36.62C38.68 37.38 38.92 38.01 39.39 38.51C39.86 39.01 40.47 39.25 41.19 39.25L41.2 39.24Z" fill="white"/>
<path d="M51.74 37.77L52.38 38.25C52.08 38.81 51.68 39.25 51.16 39.55C50.64 39.85 50.06 40 49.4 40C48.43 40 47.63 39.68 47 39.04C46.37 38.4 46.05 37.59 46.05 36.61C46.05 35.63 46.37 34.81 47 34.18C47.63 33.55 48.43 33.22 49.4 33.22C50 33.22 50.54 33.35 51.03 33.61C51.52 33.87 51.92 34.24 52.23 34.73L51.56 35.21C51.36 34.82 51.06 34.52 50.68 34.3C50.3 34.08 49.87 33.97 49.4 33.97C48.67 33.97 48.07 34.22 47.6 34.72C47.13 35.22 46.89 35.85 46.89 36.61C46.89 37.37 47.13 38 47.6 38.5C48.07 39 48.68 39.24 49.4 39.24C49.91 39.24 50.36 39.12 50.75 38.86C51.14 38.6 51.47 38.24 51.73 37.76L51.74 37.77Z" fill="white"/>
<path d="M53.45 39.83L56.62 33.36H57.29L60.5 39.83H59.63L58.75 38.09H55.18L54.32 39.83H53.46H53.45ZM55.54 37.33H58.39L56.96 34.46L55.54 37.33Z" fill="white"/>
<path d="M62.55 39.83V34.11H59.83V33.37H66.08V34.11H63.36V39.83H62.55Z" fill="white"/>
<path d="M67.04 39.83V33.33H67.85V39.83H67.04Z" fill="white"/>
<path d="M73.2299 40C72.2599 40 71.4599 39.68 70.8299 39.04C70.1999 38.4 69.8799 37.59 69.8799 36.61C69.8799 35.63 70.1999 34.81 70.8299 34.18C71.4599 33.55 72.2599 33.22 73.2299 33.22C74.1999 33.22 74.9999 33.54 75.6399 34.18C76.2799 34.82 76.5999 35.63 76.5999 36.61C76.5999 37.59 76.2799 38.4 75.6499 39.04C75.0199 39.68 74.2099 40 73.2399 40H73.2299ZM73.2299 39.24C73.9599 39.24 74.5599 38.99 75.0299 38.5C75.4999 38.01 75.7399 37.38 75.7399 36.61C75.7399 35.84 75.4999 35.21 75.0299 34.72C74.5599 34.23 73.9499 33.98 73.2199 33.98C72.4899 33.98 71.8899 34.23 71.4199 34.73C70.9499 35.23 70.7099 35.86 70.7099 36.62C70.7099 37.38 70.9499 38.01 71.4199 38.51C71.8899 39.01 72.4999 39.25 73.2199 39.25L73.2299 39.24Z" fill="white"/>
<path d="M78.6 39.83V33.36H79.02L83.22 38.19V33.36H84.03V39.83H83.62L79.41 35V39.83H78.61H78.6Z" fill="white"/>
</svg>
