<?xml version="1.0" encoding="UTF-8"?>
<svg id="_圖層_2" data-name="圖層 2" xmlns="http://www.w3.org/2000/svg" viewBox="0 0 987 219.14">
  <defs>
    <style>
      .cls-1 {
        fill: #f7f8b8;
      }

      .cls-2 {
        fill: #eb6519;
      }

      .cls-3 {
        fill: #fff;
      }

      .cls-4 {
        opacity: .35;
      }
    </style>
  </defs>
  <g id="bg">
    <rect class="cls-2" x="383.93" y="-383.93" width="219.14" height="987" transform="translate(603.07 -383.93) rotate(90)"/>
  </g>
  <g id="_字" data-name="字">
    <g class="cls-4">
      <path class="cls-1" d="M86.33,75.15H46.04l-6.62,14.29c-.63,1.36-.94,2.32-.94,2.87,0,1.1,1.09,1.84,3.27,2.21v1.77H24.95v-1.77c1.51-.26,2.66-.81,3.45-1.66,.79-.85,1.83-2.68,3.12-5.52L59.1,27.81c.66-1.43,.99-2.41,.99-2.92,0-.96-.9-1.67-2.7-2.15v-1.77h18.32v1.77c-1.8,.59-2.7,1.36-2.7,2.32,0,.41,.33,1.32,.99,2.76l26.43,57.38c1.95,4.23,3.24,6.71,3.86,7.45,.62,.74,1.99,1.36,4.08,1.88v1.77h-17.88v-1.77c2.14-.29,3.21-1.1,3.21-2.43,0-.59-.41-1.73-1.21-3.42l-6.17-13.52Zm-3.18-7.17l-16.96-37.22-16.94,37.22h33.9Z"/>
      <path class="cls-1" d="M125.58,62.4v27.38c0,1.51,.24,2.58,.72,3.22,.48,.64,1.42,1.15,2.81,1.51v1.77h-15.73v-1.77c1.4-.37,2.34-.86,2.81-1.49,.48-.62,.72-1.71,.72-3.26V27.48c0-1.54-.24-2.64-.72-3.28-.48-.64-1.42-1.13-2.81-1.46v-1.77h41.33c5.66,0,10.14,.3,13.43,.91s6.15,1.67,8.58,3.18c2.5,1.55,4.52,3.67,6.07,6.35,1.77,3.06,2.65,6.5,2.65,10.33,0,5.75-1.9,10.43-5.71,14.06-3.81,3.63-9.04,5.7-15.7,6.21l19.15,29.74c1.14,1.84,2.79,2.75,4.96,2.75v1.77h-17.43v-1.77c1.8-.29,2.7-.81,2.7-1.54,0-.37-.64-1.56-1.93-3.58l-17.11-26.99h-28.8Zm0-7.17h30.51c4.16,0,7.29-.17,9.41-.52,2.12-.35,3.98-.98,5.6-1.9,3.79-2.21,5.68-5.9,5.68-11.09s-1.95-8.94-5.85-11.15c-1.73-.96-3.65-1.6-5.77-1.93s-5.4-.5-9.85-.5h-29.74v27.09Z"/>
      <path class="cls-1" d="M275.86,27.48l-8.17,13.63-1.49-.88c.33-1.1,.5-1.97,.5-2.59,0-1.51-2.35-3.4-7.06-5.68-6.47-3.16-13.54-4.75-21.19-4.75-10.3,0-18.65,2.85-25.05,8.54-6.51,5.81-9.77,13.32-9.77,22.55s3.38,16.81,10.15,22.88c6.55,5.92,14.62,8.88,24.22,8.88s17.66-2.73,24.83-8.19c3.24-2.46,4.86-4.21,4.86-5.24,0-.52-.31-1.36-.94-2.54l1.32-1.05,9.82,11.92-1.38,1.11c-1.03-.92-1.88-1.38-2.54-1.38-.41,0-1.1,.39-2.1,1.16-3.38,2.54-6.19,4.45-8.41,5.72-2.23,1.27-4.66,2.35-7.31,3.23-5.48,1.88-11.51,2.82-18.1,2.82-12.69,0-23.01-3.53-30.95-10.59-8.35-7.39-12.53-16.83-12.53-28.31,0-9.05,2.61-16.88,7.83-23.5,8.17-10.37,20.4-15.56,36.69-15.56,10.78,0,21.21,2.85,31.28,8.55,.66,.37,1.12,.55,1.38,.55,.48,0,1.34-.7,2.59-2.1l1.49,.83Z"/>
      <path class="cls-1" d="M351.17,61.14h-51.59v28.64c0,1.54,.23,2.63,.69,3.26,.46,.63,1.41,1.12,2.84,1.49v1.77h-15.73v-1.77c1.43-.37,2.38-.86,2.84-1.49,.46-.62,.69-1.71,.69-3.26V27.48c0-1.54-.24-2.64-.72-3.28-.48-.64-1.42-1.13-2.81-1.46v-1.77h15.73v1.77c-1.4,.37-2.34,.86-2.81,1.49-.48,.63-.72,1.71-.72,3.26v26.48h51.59V27.48c0-1.54-.24-2.64-.72-3.28-.48-.64-1.42-1.13-2.81-1.46v-1.77h15.73v1.77c-1.4,.37-2.34,.86-2.81,1.49-.48,.63-.72,1.71-.72,3.26v62.29c0,1.51,.24,2.58,.72,3.23,.48,.64,1.42,1.15,2.81,1.52v1.77h-15.73v-1.77c1.4-.37,2.34-.86,2.81-1.49,.48-.62,.72-1.71,.72-3.26v-28.64Z"/>
      <path class="cls-1" d="M380.62,89.77V27.48c0-1.54-.24-2.64-.72-3.28-.48-.64-1.42-1.13-2.81-1.46v-1.77h15.73v1.77c-1.4,.37-2.34,.86-2.81,1.49-.48,.63-.72,1.71-.72,3.26v62.29c0,1.54,.23,2.63,.69,3.26,.46,.63,1.41,1.12,2.84,1.49v1.77h-15.73v-1.77c1.43-.37,2.38-.86,2.84-1.49,.46-.62,.69-1.71,.69-3.26Z"/>
      <path class="cls-1" d="M440.09,28.14v61.63c0,1.51,.24,2.58,.72,3.23,.48,.64,1.42,1.15,2.81,1.52v1.77h-15.72v-1.77c1.4-.37,2.34-.86,2.81-1.49,.48-.62,.72-1.71,.72-3.26V28.14h-25.49c-1.54,0-2.64,.23-3.28,.7s-1.13,1.41-1.46,2.83h-1.77v-14.24h1.77c.33,1.41,.82,2.35,1.46,2.83s1.74,.71,3.28,.71h59.65c1.54,0,2.64-.24,3.28-.71s1.13-1.41,1.46-2.83h1.77v14.24h-1.77c-.33-1.42-.82-2.36-1.46-2.83s-1.74-.7-3.28-.7h-25.49Z"/>
      <path class="cls-1" d="M490.9,61.14v27.97h48.28c1.54,0,2.64-.24,3.28-.72,.64-.48,1.13-1.42,1.46-2.81h1.77v14.24h-1.77c-.37-1.4-.87-2.34-1.52-2.81-.64-.48-1.74-.72-3.28-.72h-60.42v-1.77c1.43-.37,2.38-.86,2.84-1.49,.46-.62,.69-1.71,.69-3.26V27.48c0-1.54-.24-2.63-.72-3.26-.48-.62-1.42-1.12-2.81-1.49v-1.77h59.75c1.54,0,2.63-.24,3.26-.71,.62-.47,1.12-1.41,1.49-2.83h1.77v14.24h-1.77c-.33-1.38-.82-2.32-1.46-2.8-.64-.49-1.74-.73-3.28-.73h-47.56v25.82h31.17c1.54,0,2.64-.24,3.28-.72,.64-.48,1.13-1.42,1.46-2.81h1.77v14.24h-1.77c-.33-1.4-.82-2.34-1.46-2.81-.64-.48-1.74-.72-3.28-.72h-31.17Z"/>
      <path class="cls-1" d="M636.6,27.48l-8.17,13.63-1.49-.88c.33-1.1,.5-1.97,.5-2.59,0-1.51-2.35-3.4-7.06-5.68-6.47-3.16-13.54-4.75-21.19-4.75-10.3,0-18.65,2.85-25.05,8.54-6.51,5.81-9.77,13.32-9.77,22.55s3.38,16.81,10.15,22.88c6.55,5.92,14.62,8.88,24.22,8.88s17.66-2.73,24.83-8.19c3.24-2.46,4.86-4.21,4.86-5.24,0-.52-.31-1.36-.94-2.54l1.32-1.05,9.82,11.92-1.38,1.11c-1.03-.92-1.88-1.38-2.54-1.38-.41,0-1.1,.39-2.1,1.16-3.38,2.54-6.19,4.45-8.41,5.72-2.23,1.27-4.66,2.35-7.31,3.23-5.48,1.88-11.51,2.82-18.1,2.82-12.69,0-23.01-3.53-30.95-10.59-8.35-7.39-12.53-16.83-12.53-28.31,0-9.05,2.61-16.88,7.83-23.5,8.17-10.37,20.4-15.56,36.69-15.56,10.78,0,21.21,2.85,31.28,8.55,.66,.37,1.12,.55,1.38,.55,.48,0,1.34-.7,2.59-2.1l1.49,.83Z"/>
      <path class="cls-1" d="M683.6,28.14v61.63c0,1.51,.24,2.58,.72,3.23,.48,.64,1.42,1.15,2.81,1.52v1.77h-15.72v-1.77c1.4-.37,2.34-.86,2.81-1.49,.48-.62,.72-1.71,.72-3.26V28.14h-25.49c-1.54,0-2.64,.23-3.28,.7s-1.13,1.41-1.46,2.83h-1.77v-14.24h1.77c.33,1.41,.82,2.35,1.46,2.83s1.74,.71,3.28,.71h59.65c1.54,0,2.64-.24,3.28-.71s1.13-1.41,1.46-2.83h1.77v14.24h-1.77c-.33-1.42-.82-2.36-1.46-2.83s-1.74-.7-3.28-.7h-25.49Z"/>
      <path class="cls-1" d="M732.92,27.48v41.66c0,4.93,.26,8.4,.77,10.4,.51,2.01,1.58,3.74,3.2,5.21,3.94,3.53,11.27,5.3,22.02,5.3,11.7,0,19.37-2.08,23.01-6.23,1.21-1.4,2.02-3.06,2.43-4.99,.4-1.93,.61-5.16,.61-9.68V27.48c0-1.51-.24-2.58-.72-3.23-.48-.64-1.42-1.15-2.81-1.52v-1.77h14.95v1.77c-1.4,.33-2.34,.82-2.81,1.46-.48,.64-.72,1.74-.72,3.28v43.37c0,5.33-.52,9.4-1.54,12.19-1.91,5-5.51,8.68-10.79,11.04s-12.59,3.53-21.93,3.53c-13.98,0-23.54-2.7-28.69-8.11-2.1-2.17-3.56-4.64-4.39-7.42-.83-2.78-1.24-6.52-1.24-11.23V27.48c0-1.54-.24-2.64-.72-3.28-.48-.64-1.42-1.13-2.81-1.46v-1.77h15.72v1.77c-1.4,.37-2.34,.87-2.81,1.52-.48,.64-.72,1.72-.72,3.23Z"/>
      <path class="cls-1" d="M820.8,62.4v27.38c0,1.51,.24,2.58,.72,3.22,.48,.64,1.42,1.15,2.81,1.51v1.77h-15.73v-1.77c1.4-.37,2.34-.86,2.81-1.49,.48-.62,.72-1.71,.72-3.26V27.48c0-1.54-.24-2.64-.72-3.28-.48-.64-1.42-1.13-2.81-1.46v-1.77h41.33c5.66,0,10.14,.3,13.43,.91s6.15,1.67,8.58,3.18c2.5,1.55,4.52,3.67,6.07,6.35,1.77,3.06,2.65,6.5,2.65,10.33,0,5.75-1.9,10.43-5.71,14.06-3.81,3.63-9.04,5.7-15.7,6.21l19.15,29.74c1.14,1.84,2.79,2.75,4.96,2.75v1.77h-17.43v-1.77c1.8-.29,2.7-.81,2.7-1.54,0-.37-.64-1.56-1.93-3.58l-17.11-26.99h-28.8Zm0-7.17h30.51c4.16,0,7.29-.17,9.41-.52,2.12-.35,3.98-.98,5.6-1.9,3.79-2.21,5.68-5.9,5.68-11.09s-1.95-8.94-5.85-11.15c-1.73-.96-3.65-1.6-5.77-1.93s-5.4-.5-9.85-.5h-29.74v27.09Z"/>
      <path class="cls-1" d="M904.82,61.14v27.97h48.28c1.54,0,2.64-.24,3.28-.72,.64-.48,1.13-1.42,1.46-2.81h1.77v14.24h-1.77c-.37-1.4-.87-2.34-1.52-2.81-.64-.48-1.74-.72-3.28-.72h-60.42v-1.77c1.43-.37,2.38-.86,2.84-1.49,.46-.62,.69-1.71,.69-3.26V27.48c0-1.54-.24-2.63-.72-3.26-.48-.62-1.42-1.12-2.81-1.49v-1.77h59.75c1.54,0,2.63-.24,3.26-.71,.62-.47,1.12-1.41,1.49-2.83h1.77v14.24h-1.77c-.33-1.38-.82-2.32-1.46-2.8-.64-.49-1.74-.73-3.28-.73h-47.56v25.82h31.17c1.54,0,2.64-.24,3.28-.72,.64-.48,1.13-1.42,1.46-2.81h1.77v14.24h-1.77c-.33-1.4-.82-2.34-1.46-2.81-.64-.48-1.74-.72-3.28-.72h-31.17Z"/>
      <path class="cls-1" d="M36.42,192.54v-63.84c0-1.1-.26-1.95-.77-2.54-.52-.59-1.43-1.07-2.76-1.43v-1.77h39.73c9.01,0,15.91,1.25,20.69,3.75,6.03,3.13,10.63,7.95,13.79,14.46,2.76,5.7,4.14,12.18,4.14,19.42,0,8.57-1.86,15.96-5.57,22.18-3.35,5.52-7.59,9.48-12.72,11.89-5.13,2.41-11.91,3.61-20.33,3.61H32.89v-1.77c1.32-.37,2.24-.85,2.76-1.43,.51-.59,.77-1.43,.77-2.54Zm8.66-1.43h27.2c7.98,0,13.9-1.23,17.77-3.7,4.56-2.94,7.91-7.45,10.04-13.52,1.4-4.05,2.1-8.48,2.1-13.3,0-8.75-2.23-16-6.68-21.74-2.46-3.16-5.46-5.41-8.99-6.73s-8.28-1.99-14.24-1.99h-27.2v60.97Z"/>
      <path class="cls-1" d="M135.29,163.14v27.97h48.28c1.54,0,2.64-.24,3.28-.72,.64-.48,1.13-1.42,1.46-2.81h1.77v14.24h-1.77c-.37-1.4-.87-2.34-1.52-2.81-.64-.48-1.74-.72-3.28-.72h-60.42v-1.77c1.43-.37,2.38-.86,2.84-1.49,.46-.62,.69-1.71,.69-3.26v-62.29c0-1.54-.24-2.63-.72-3.26-.48-.62-1.42-1.12-2.81-1.49v-1.77h59.75c1.54,0,2.63-.24,3.26-.71,.62-.47,1.12-1.41,1.49-2.83h1.77v14.24h-1.77c-.33-1.38-.82-2.32-1.46-2.8-.64-.49-1.74-.73-3.28-.73h-47.56v25.82h31.17c1.54,0,2.64-.24,3.28-.72,.64-.48,1.13-1.42,1.46-2.81h1.77v14.24h-1.77c-.33-1.4-.82-2.34-1.46-2.81-.64-.48-1.74-.72-3.28-.72h-31.17Z"/>
      <path class="cls-1" d="M272.28,127.65l-7.89,14.25-1.54-.83c.62-1.66,.94-2.68,.94-3.09,0-1.1-1.36-2.3-4.08-3.59-7.39-3.46-15.23-5.19-23.51-5.19-6.8,0-12.73,1.27-17.77,3.8-2.43,1.25-4.35,2.86-5.77,4.85-1.42,1.98-2.12,4.08-2.12,6.28,0,1.84,.55,3.57,1.66,5.2,1.1,1.63,2.56,2.85,4.36,3.66,1.99,.92,4.33,1.55,7.04,1.9,2.7,.35,7.11,.62,13.21,.8,8.46,.26,14.51,.65,18.15,1.19,3.64,.53,6.64,1.46,8.99,2.79,6.25,3.5,9.38,8.81,9.38,15.95s-2.83,12.38-8.5,16.72c-6.29,4.86-14.95,7.28-25.99,7.28-6.36,0-11.92-.64-16.66-1.93-4.75-1.29-10.41-3.66-16.99-7.12-1.84-.85-2.92-1.27-3.26-1.27-.55,0-1.42,.66-2.59,1.99l-1.49-.94,8.28-13.85,1.54,.88c-.7,1.47-1.05,2.46-1.05,2.98,0,1.18,2.35,3,7.06,5.46,4.23,2.21,8.3,3.8,12.22,4.77,3.92,.98,8.17,1.46,12.77,1.46,9.31,0,16.37-2.04,21.19-6.12,3.2-2.72,4.8-5.96,4.8-9.71,0-4.93-2.74-8.33-8.22-10.21-1.77-.62-3.6-1.02-5.49-1.19-1.89-.17-7.27-.41-16.14-.75-6.33-.26-11.28-.74-14.87-1.43-3.59-.7-6.78-1.84-9.57-3.42-2.61-1.47-4.68-3.53-6.21-6.18s-2.29-5.54-2.29-8.66c0-5.33,1.99-9.91,5.96-13.74,2.94-2.79,7.01-4.99,12.19-6.59,5.19-1.6,10.87-2.4,17.05-2.4,5.04,0,9.72,.5,14.04,1.5,4.32,1,9.21,2.72,14.65,5.17,1.21,.52,1.97,.78,2.26,.78,.66,0,1.56-.74,2.7-2.22l1.54,.78Z"/>
      <path class="cls-1" d="M286.83,191.77v-62.29c0-1.54-.24-2.64-.72-3.28-.48-.64-1.42-1.13-2.81-1.46v-1.77h15.73v1.77c-1.4,.37-2.34,.86-2.81,1.49-.48,.63-.72,1.71-.72,3.26v62.29c0,1.54,.23,2.63,.69,3.26,.46,.63,1.41,1.12,2.84,1.49v1.77h-15.73v-1.77c1.43-.37,2.38-.86,2.84-1.49,.46-.62,.69-1.71,.69-3.26Z"/>
      <path class="cls-1" d="M392.26,130.2l-8.47,13.46-1.43-.99c.66-1.1,.99-1.92,.99-2.47,0-1.14-1.97-2.75-5.9-4.84-7.57-4.1-15.33-6.16-23.27-6.16-9.23,0-17,2.59-23.33,7.77-7.24,5.88-10.87,13.82-10.87,23.81s3.46,17.49,10.37,23.26c6.36,5.33,14.49,7.99,24.39,7.99,5.22,0,10.2-.82,14.92-2.46,4.73-1.64,8.71-3.93,11.95-6.87v-13.9h-17.82c-1.54,0-2.64,.24-3.28,.72-.64,.48-1.13,1.42-1.46,2.81h-1.77v-14.24h1.77c.33,1.4,.82,2.34,1.46,2.81,.64,.48,1.74,.72,3.28,.72h29.63v1.77c-1.4,.37-2.34,.86-2.81,1.49-.48,.63-.72,1.71-.72,3.26v9.77c0,1.54,.24,2.63,.72,3.26,.48,.63,1.42,1.12,2.81,1.49v1.54c-4.16,3.72-8.08,6.6-11.75,8.66-7.98,4.49-17.09,6.73-27.31,6.73-12.58,0-22.75-3.4-30.51-10.21-3.83-3.35-6.86-7.36-9.1-12.03-2.54-5.33-3.81-10.96-3.81-16.88,0-8.5,2.48-16.04,7.45-22.62,4.6-6.07,10.78-10.5,18.54-13.3,5.48-1.95,11.37-2.92,17.66-2.92,5.52,0,10.63,.66,15.34,1.99,4.71,1.32,9.79,3.51,15.23,6.57,1.58,.88,2.56,1.32,2.92,1.32,.59,0,1.49-.77,2.7-2.32l1.49,.99Z"/>
      <path class="cls-1" d="M416.31,132.51v59.26c0,1.51,.24,2.58,.72,3.23,.48,.64,1.42,1.15,2.81,1.52v1.77h-14.95v-1.77c1.43-.37,2.38-.86,2.84-1.49,.46-.62,.69-1.71,.69-3.26v-62.29c0-1.54-.24-2.64-.72-3.28-.48-.64-1.42-1.13-2.81-1.46v-1.77h21.64v1.77c-1.73,.59-2.59,1.42-2.59,2.48,0,.74,.87,2.12,2.59,4.14l45.4,53.08v-54.96c0-1.54-.24-2.64-.72-3.28-.48-.64-1.42-1.13-2.81-1.46v-1.77h14.95v1.77c-1.4,.33-2.34,.82-2.81,1.46-.48,.64-.72,1.74-.72,3.28v62.29c0,1.54,.24,2.63,.72,3.26,.48,.63,1.42,1.12,2.81,1.49v1.77h-17.39v-1.77c1.69-.44,2.54-1.19,2.54-2.26,0-.81-.77-2.13-2.32-3.97l-49.87-57.77Z"/>
    </g>
    <g>
      <path class="cls-3" d="M570.93,196.76h-12.5c-17.08,0-29.27-3.66-36.59-10.98-4.27,4.67-9.45,8.23-15.55,10.67-.41,.2-.72,.2-.91,0,0-.41,.2-.71,.61-.91,5.28-3.46,9.35-8.13,12.2-14.03-3.66-5.08-6.4-12.2-8.23-21.34,.4-.4,.81-.51,1.22-.3,2.23,6.91,5.28,12.5,9.15,16.77,2.23-6.1,3.15-12.5,2.74-19.21h-5.79c-1.02,1.02-1.94,1.63-2.74,1.83-.41,0-.82-.1-1.22-.3-2.44-1.83-4.27-3.35-5.49-4.57-.21-.4-.21-.81,0-1.22,.61-.2,1.62-.71,3.05-1.52l7.93-19.51h-6.1c-1.43,0-2.95,.1-4.57,.3l-2.13-2.13c1.01,0,1.93,.1,2.74,.3h10.06c.2-.4,.5-.91,.91-1.52,.2-.61,.4-1.01,.61-1.22,.4-.4,.81-.61,1.22-.61,2.84,1.22,5.38,2.54,7.62,3.96,.4,.41,.4,.91,0,1.52-1.43,.82-2.34,1.43-2.74,1.83l-9.15,21.34h4.88c1.01-1.22,2.13-2.33,3.35-3.35,.4-.2,.81-.2,1.22,0-.21-.2-.11-.1,.3,.3,1.62,.82,3.45,1.93,5.49,3.35,.4,.41,.4,.91,0,1.52l-.91,.91c-.61,.82-1.02,1.43-1.22,1.83-.61,8.54-2.44,15.35-5.49,20.43,6.5,4.68,15.14,7.01,25.92,7.01h12.2c5.69,0,11.08-.71,16.16-2.13,.61,.21,.71,.61,.3,1.22-2.85,1.22-4.27,3.96-4.27,8.23,0,.4-.21,.71-.61,.91-1.22,.4-2.44,.61-3.66,.61Zm-25.92-11.89v-7.93h-8.54c-.21,0-1.83,.1-4.88,.3l-1.83-2.13c.81,0,1.62,.1,2.44,.3h12.81v-9.15h-5.49c-1.43,0-2.95,.1-4.57,.3l-2.13-2.13c1.01,0,1.93,.1,2.74,.3h9.45v-9.76h-6.1c-.21,0-1.83,.1-4.88,.3l-1.83-2.13c.81,0,1.62,.1,2.44,.3h10.37v-7.32h-15.86l-1.83-2.13c.81,0,1.62,.1,2.44,.3h15.25v-7.93h-11.28l-1.52-2.13c.81,0,1.62,.1,2.44,.3h10.37v-10.37c4.67,0,7.52,.21,8.54,.61,.81,.61,.81,1.12,0,1.52-.41,.61-.82,.91-1.22,.91v7.32h7.32l1.52-1.52c.81-1.01,1.32-1.52,1.52-1.52,2.64,.41,5.28,1.83,7.93,4.27,0,.41-.41,.91-1.22,1.52l-.61,.61v6.4h1.52c1.22-1.62,2.54-3.15,3.96-4.57,.4-.4,.71-.4,.91,0,3.05,2.24,4.88,4.07,5.49,5.49,0,.21-.21,.51-.61,.91h-11.28v11.28c-.21,.82-1.02,1.43-2.44,1.83,3.45,2.44,5.69,4.37,6.71,5.79,.2,.61,.1,1.02-.3,1.22h-20.43v9.15h10.67c1.42-2.23,2.94-4.06,4.57-5.49,.4-.4,.71-.4,.91,0,2.84,1.43,5.18,3.35,7.01,5.79,.2,.61,.1,1.02-.3,1.22h-22.87v6.4c-.21,1.22-1.52,2.13-3.96,2.74-2.24,.41-3.35,0-3.35-1.22Zm7.32-48.48v7.93h8.23v-7.93h-8.23Zm0,9.76v7.32h8.23v-7.32h-8.23Zm0,8.84v9.76h8.23c.61-1.22,2.03-2.94,4.27-5.18-2.64,.21-4.07-.51-4.27-2.13v-2.44h-8.23Z"/>
      <path class="cls-3" d="M652.87,156.51c.2,1.63,.91,2.54,2.13,2.74,3.45,.41,5.69-2.74,6.71-9.45,.4-.61,.81-.51,1.22,.3-.61,3.46-.21,6.3,1.22,8.54,.61,1.22,.91,2.13,.91,2.74-.61,2.85-2.85,4.27-6.71,4.27h-8.84c-2.24-.2-3.56-1.83-3.96-4.88v-11.59h-8.23c.4,1.02,.4,2.03,0,3.05,3.45,1.02,5.79,2.74,7.01,5.18,.81,2.24,.1,3.96-2.13,5.18-2.44,1.02-4.07,.41-4.88-1.83v-1.52c.4-2.03,.3-3.76-.3-5.18-.82,4.47-3.66,8.13-8.54,10.98,2.23,.41,4.16,1.02,5.79,1.83,.4,.41,.4,.82,0,1.22-.21,.41-.61,.82-1.22,1.22-.21,0-.41,.1-.61,.3v3.35h19.51c1.01-1.42,2.54-3.25,4.57-5.49,.4-.4,.81-.4,1.22,0,2.64,1.63,4.88,3.56,6.71,5.79,.4,.61,.3,1.02-.3,1.22h-28.66c8.33,7.93,18.39,12.2,30.19,12.81,.4,.41,.5,.71,.3,.91-4.07,1.42-6.4,3.76-7.01,7.01l-.3,.3c-.61,.4-1.02,.51-1.22,.3-10.98-3.46-19.01-10.57-24.09-21.34h-.91v22.26c-.82,1.01-2.44,1.52-4.88,1.52-1.63-.21-2.44-1.02-2.44-2.44v-17.38c-11.18,7.52-21.95,13.31-32.32,17.38-.21,.2-.41,.1-.61-.3,0-.21,.1-.41,.3-.61,8.94-4.88,16.66-11.69,23.17-20.43h-15.55c-1.63,0-3.25,.1-4.88,.3l-1.83-2.13c1.01,0,1.93,.1,2.74,.3h28.97v-6.4c-.41,0-1.12,.21-2.13,.61-1.02,.21-1.83,.41-2.44,.61-.61-.2-.72-.51-.3-.91,7.11-3.25,10.37-10.67,9.76-22.26,0-.4,.3-.61,.91-.61,1.01,.61,3.15,1.83,6.4,3.66h7.32c1.42-1.62,2.44-2.64,3.05-3.05-2.03,.21-3.25-.61-3.66-2.44-.21-.4-.21-1.11,0-2.13,.4-1.83-.21-3.66-1.83-5.49h-4.88c-2.64,3.25-6.71,6.71-12.2,10.37,1.83,1.83,2.84,2.95,3.05,3.35,.2,.61,0,.91-.61,.91h-10.67c.2,.21,0,.51-.61,.91l-.91,.91c-.61,.21-.91,.41-.91,.61v6.71c4.06-.2,7.93-.61,11.59-1.22,.4,.21,.5,.41,.3,.61-11.59,4.88-20.54,8.84-26.83,11.89-.41,.21-.82,.1-1.22-.3-.82-3.25-1.63-6.1-2.44-8.54,0-.61,.3-.91,.91-.91,1.22-.2,2.94-.4,5.18-.61,2.44-.2,4.16-.3,5.18-.3v-9.76h-3.66c-1.63,0-3.35,.1-5.18,.3l-1.52-2.13c1.01,0,1.93,.1,2.74,.3h18.3c1.83-2.44,3.15-4.06,3.96-4.88h.91l.61,.3c.4,.41,.71,.71,.91,.91,4.88-5.28,8.23-12.09,10.06-20.43,0-.4,.3-.61,.91-.61,3.25,.82,6.4,1.93,9.45,3.35v1.22c-1.02,.21-1.83,.61-2.44,1.22-1.22,1.63-2.34,3.05-3.35,4.27h15.55c1.83-2.44,3.35-4.27,4.57-5.49,.2-.2,.5-.2,.91,0h.3c2.64,1.63,4.88,3.56,6.71,5.79,.4,.61,.3,1.02-.3,1.22h-20.73c2.44,.82,4.16,2.34,5.18,4.57,.61,2.44-.41,4.17-3.05,5.18,3.05,1.02,5.49,2.54,7.32,4.57,0,.41-.61,1.12-1.83,2.13l-.61,.61v4.88Zm-41.47-21.95h-3.66c-3.86,4.47-8.34,8.34-13.42,11.59-.41,0-.61-.2-.61-.61,4.67-5.69,8.13-12.91,10.37-21.65,.2-.61,.61-.81,1.22-.61,1.83,.41,4.98,1.43,9.45,3.05,.2,.21,.2,.71,0,1.52-.21,0-.41,.1-.61,.3-1.02,.41-1.63,.71-1.83,.91-1.22,1.43-2.24,2.74-3.05,3.96h10.06c.4-.4,1.01-1.11,1.83-2.13,1.22-1.42,2.03-2.33,2.44-2.74h.61c2.64,2.03,4.47,3.86,5.49,5.49,.2,.61,0,.91-.61,.91h-14.64c2.23,.82,3.86,2.34,4.88,4.57,.81,2.24,.1,3.86-2.13,4.88-2.44,1.02-4.07,.51-4.88-1.52-.21-.4-.21-1.11,0-2.13,.4-2.23,.1-4.16-.91-5.79Z"/>
      <path class="cls-3" d="M701.57,141.87h7.62c1.62-1.62,2.74-2.64,3.35-3.05,.2-.2,.5-.2,.91,0h.3c.2,.21,.5,.41,.91,.61,3.25,1.83,5.59,3.25,7.01,4.27,.4,.41,.4,.82,0,1.22-1.22,.61-2.03,1.22-2.44,1.83-4.88,25-17.28,39.54-37.2,43.6-.21,0-.41-.1-.61-.3,0-.41,.1-.61,.3-.61,16.47-7.32,26.02-22.56,28.66-45.74h-9.76c-2.03,4.47-4.37,8.44-7.01,11.89,6.3,1.43,9.76,4.37,10.37,8.84,.2,2.64-.82,4.57-3.05,5.79-2.03,1.02-3.66,.41-4.88-1.83-.41-.81-.51-2.13-.3-3.96,.4-3.25-.41-5.99-2.44-8.23-3.25,4.88-6.71,8.95-10.37,12.2-.41,.21-.72,.21-.91,0-.21-.2-.21-.4,0-.61,7.93-13.62,12.4-27.44,13.42-41.47,0-.4,.5-.61,1.52-.61,.61,.21,1.72,.61,3.35,1.22,3.45,1.43,6.1,2.64,7.93,3.66,.4,.21,.4,.51,0,.91-.41,.21-.91,.41-1.52,.61-1.02,.41-1.63,.91-1.83,1.52-1.02,2.64-2.13,5.39-3.35,8.23Zm24.09,.91v-19.51c5.08,.21,8.54,.82,10.37,1.83,.61,.41,.61,.91,0,1.52s-1.33,1.12-2.13,1.52v14.64c0,7.93,.2,25,.61,51.23,0,1.22-1.52,2.13-4.57,2.74-3.25,.4-4.98,.1-5.18-.91,.61-27.44,.91-45.13,.91-53.06Zm9.76,5.79c11.18,4.68,17.58,10.27,19.21,16.77,.61,3.46-.3,6-2.74,7.62-2.64,1.22-4.88,.51-6.71-2.13-.41-1.01-.82-2.74-1.22-5.18-.61-6.71-3.66-12.2-9.15-16.47,0-.2,.2-.4,.61-.61Z"/>
      <path class="cls-3" d="M797.23,132.11h3.05c1.42-2.03,2.44-3.45,3.05-4.27h1.22c1.62,1.63,2.64,3.56,3.05,5.79h-11.28c-1.63,2.44-3.05,4.68-4.27,6.71,1.62,.82,2.44,1.32,2.44,1.52h3.96c.81-1.42,1.52-2.13,2.13-2.13,3.25,.82,5.59,2.03,7.01,3.66,0,.21-.51,.71-1.52,1.52l-.91,.91v8.23c-2.85,2.44-4.78,2.44-5.79,0v-2.44h-4.88v2.44c-.21,1.02-1.22,1.52-3.05,1.52,2.23,.61,3.55,1.93,3.96,3.96-.21,2.24-1.33,3.66-3.35,4.27h5.79c.81-1.62,1.93-3.05,3.35-4.27,.4-.4,.71-.4,.91,0,1.22,.82,2.94,2.34,5.18,4.57,.4,.61,.2,1.02-.61,1.22h-9.45c-.21,.82-.82,1.63-1.83,2.44v3.35h2.44c.61-1.22,1.42-2.33,2.44-3.35h.61c2.03,1.22,3.66,2.54,4.88,3.96,.2,.41,0,.71-.61,.91h-9.76v6.71h1.52c1.01-1.83,1.93-2.94,2.74-3.35,0-.2,.1-.2,.3,0h.3c2.64,1.83,4.16,3.15,4.57,3.96,.2,.41,0,.71-.61,.91h-8.84v7.01h2.44c1.42-1.83,2.54-3.15,3.35-3.96h.91c.4,.21,1.22,.91,2.44,2.13s2.03,1.83,2.44,1.83c4.27-5.69,6.4-12.7,6.4-21.04-2.44,.41-3.76,.21-3.96-.61v-2.44c.4-2.64,.61-5.69,.61-9.15v-24.39l-.61-4.57c0-.2,.1-.3,.3-.3,3.45,.61,6.4,1.63,8.84,3.05v.3h10.06c.4-.4,.81-.91,1.22-1.52,1.01-1.22,1.62-1.83,1.83-1.83,2.03,.21,4.67,1.63,7.93,4.27,0,.41-.3,.91-.91,1.52-.61,.41-.91,.71-.91,.91v33.24c-1.02,1.63-3.05,2.24-6.1,1.83,.4,.21,.4,.61,0,1.22-.61,.61-1.02,.91-1.22,.91v17.99c0,1.01,.61,1.52,1.83,1.52h1.52c2.44-.21,4.37-3.86,5.79-10.98,.2-1.01,.4-1.01,.61,0-.82,5.29-.21,8.64,1.83,10.06,.81,.61,1.22,1.42,1.22,2.44-.21,3.05-2.85,4.67-7.93,4.88h-8.23c-2.85,.2-4.17-1.22-3.96-4.27v-24.7c4.27,0,7.01,.21,8.23,.61-.61-.2-.91-.71-.91-1.52v-1.52h-14.03v.61c0,.61-.51,1.22-1.52,1.83,1.42,.21,3.76,1.02,7.01,2.44,.4,.21,.4,.51,0,.91-.41,.41-1.12,.91-2.13,1.52-1.22,12.4-8.13,20.63-20.73,24.7-.61,0-.61-.21,0-.61,2.64-1.43,4.88-3.35,6.71-5.79h-24.39v3.35c-1.83,2.23-4.07,2.84-6.71,1.83-.21-.41-.3-1.63-.3-3.66,.2-1.83,.3-3.35,.3-4.57v-16.77c-2.24,2.24-4.57,4.27-7.01,6.1-.41,0-.51-.2-.3-.61,4.06-5.69,7.42-12.7,10.06-21.04h.61c1.01,.21,1.93,.51,2.74,.91v-.61l-.3-.3v-1.83h-3.96v.91c-.82,2.24-2.44,2.85-4.88,1.83-.21-.2-.3-1.01-.3-2.44,.2-1.42,.3-2.64,.3-3.66v-9.45c2.23,.41,3.86,1.22,4.88,2.44h2.44c1.22-1.62,2.13-2.44,2.74-2.44,3.25,1.02,5.38,2.13,6.4,3.35,0,.21-.41,.51-1.22,.91l-.61,.61v9.76c-.21,1.02-1.33,1.63-3.35,1.83,.61,.21,1.32,.51,2.13,.91,.61,.21,1.01,.3,1.22,.3,0,.41-.11,.82-.3,1.22-.21,0-.41,.1-.61,.3-.82,0-1.43,.3-1.83,.91-1.02,1.22-2.13,2.64-3.35,4.27h10.06c-.21,0-.41-.1-.61-.3-.41,0-.72-.2-.91-.61-.61-.61-.82-1.62-.61-3.05,.4-1.62,.2-3.05-.61-4.27-.41-.61-.3-.91,.3-.91,.81,.21,1.52,.3,2.13,.3-.21-.4-.3-.71-.3-.91v-14.64c.2,0,.5,.1,.91,.3,.4,.21,.71,.3,.91,.3,.81-5.49,1.22-10.98,1.22-16.47,0-.4,.2-.61,.61-.61h.61c3.05,.41,5.08,.91,6.1,1.52,.2,0,.2,.21,0,.61v.3c-.21,.82-.72,2.03-1.52,3.66-.61,1.43-1.02,2.44-1.22,3.05Zm-20.43,2.13h-3.96l-3.66,.91-1.83-2.44h9.15c-.21-.61-.41-1.62-.61-3.05-.61-2.84-1.02-4.88-1.22-6.1,0-.4,.2-.61,.61-.61,2.84,0,5.28,.51,7.32,1.52,.4,0,.5,.21,.3,.61,0,.21-.11,.51-.3,.91-.41,.41-.51,.71-.3,.91l1.52,10.67c-2.44,1.83-4.57,2.13-6.4,.91-.21-.4-.3-1.11-.3-2.13-.21-1.01-.3-1.72-.3-2.13Zm-.3,16.47h3.96v-7.32h-3.96v7.32Zm12.2,20.43v-5.79h-7.32v5.79h7.32Zm0,8.23v-6.71h-7.32v6.71h7.32Zm0,8.54v-7.01h-7.32v7.01h7.32Zm5.79-38.11h4.88v-6.4h-4.88v6.4Zm21.95-9.76h14.03v-9.76h-12.5c-.41,.21-.91,.51-1.52,.91v8.84Zm0,10.67h14.03v-9.15h-14.03v9.15Zm0,11.28h14.03v-9.76h-14.03v9.76Z"/>
    </g>
  </g>
</svg>