<svg width="65" height="65" viewBox="0 0 65 65" fill="none" xmlns="http://www.w3.org/2000/svg">
<path opacity="0.42" d="M64.75 0H0V64.75H64.75V0Z" fill="#EB6519"/>
<path d="M30.46 53.64C29.59 53.48 28.71 53.35 27.85 53.15C19.34 51.17 12.85 44.28 11.37 35.68C9.51 24.85 16.11 14.28 26.68 11.18C27.35 10.98 27.93 11.18 28.25 11.69C28.57 12.2 28.51 12.77 28.05 13.29C25.98 15.63 24.66 18.33 24.07 21.4C22.61 28.99 26.98 36.98 34.2 39.73C40.46 42.11 46.2 41.08 51.36 36.81C52.31 36.03 53.14 36.19 53.66 37.28C53.66 37.29 53.67 37.3 53.68 37.32V37.9C53.62 38.05 53.56 38.2 53.51 38.36C50.88 46.15 45.58 51.08 37.63 53.14C36.78 53.36 35.9 53.47 35.03 53.64H30.45H30.46Z" fill="white"/>
<path d="M37.73 33.17C37.32 33.17 36.94 32.89 36.69 32.4C36.25 31.52 35.82 30.63 35.36 29.77C35.26 29.58 35.08 29.4 34.89 29.29C34.05 28.84 33.19 28.42 32.33 28C31.81 27.75 31.49 27.36 31.5 26.77C31.5 26.2 31.82 25.82 32.33 25.58C33.18 25.17 34.02 24.76 34.85 24.31C35.06 24.2 35.27 23.99 35.38 23.78C35.83 22.95 36.24 22.1 36.65 21.26C36.9 20.75 37.29 20.47 37.86 20.47C38.43 20.47 38.83 20.73 39.08 21.24C39.5 22.1 39.92 22.96 40.37 23.8C40.47 23.99 40.65 24.18 40.84 24.28C41.67 24.72 42.51 25.14 43.36 25.55C43.9 25.81 44.24 26.19 44.24 26.79C44.24 27.4 43.88 27.77 43.35 28.03C42.5 28.44 41.66 28.86 40.83 29.3C40.65 29.39 40.47 29.56 40.38 29.74C39.92 30.62 39.49 31.52 39.03 32.41C38.77 32.92 38.39 33.15 37.73 33.16V33.17Z" fill="white"/>
<path d="M49.36 15.4199C49.81 15.4199 50.21 15.4199 50.61 15.4199C51.34 15.4399 51.89 15.9699 51.91 16.6699C51.93 17.3399 51.41 17.9099 50.7 17.9699C50.27 17.9999 49.84 17.9699 49.36 17.9699C49.36 18.3599 49.36 18.7099 49.36 19.0699C49.36 19.9399 48.86 20.5099 48.09 20.5099C47.31 20.5099 46.8 19.9399 46.79 19.0499C46.79 18.7099 46.79 18.3599 46.79 17.9799C46.38 17.9799 46.01 17.9799 45.63 17.9799C44.8 17.9599 44.25 17.4399 44.25 16.6899C44.25 15.9399 44.82 15.4299 45.65 15.4199C46.01 15.4199 46.37 15.4199 46.79 15.4199C46.79 15.0299 46.79 14.6599 46.79 14.2899C46.79 13.4499 47.34 12.8499 48.09 12.8699C48.83 12.8799 49.35 13.4599 49.35 14.2899C49.35 14.6499 49.35 15.0099 49.35 15.4299L49.36 15.4199Z" fill="white"/>
</svg>
