<svg width="1019" height="221" viewBox="0 0 1019 221" fill="none" xmlns="http://www.w3.org/2000/svg">
<path d="M987 220.14V1L0 1V220.14L987 220.14Z" fill="#EB6519"/>
<path d="M0 220.14H1018.81" stroke="#EB6519" stroke-miterlimit="10"/>
<path d="M0 1H1018.81" stroke="#EB6519" stroke-miterlimit="10"/>
<path d="M86.33 76.15H46.04L39.42 90.44C38.79 91.8 38.48 92.76 38.48 93.31C38.48 94.41 39.57 95.15 41.75 95.52V97.29H24.95V95.52C26.46 95.26 27.61 94.71 28.4 93.86C29.19 93.01 30.23 91.18 31.52 88.34L59.1 28.81C59.76 27.38 60.09 26.4 60.09 25.89C60.09 24.93 59.19 24.22 57.39 23.74V21.97H75.71V23.74C73.91 24.33 73.01 25.1 73.01 26.06C73.01 26.47 73.34 27.38 74 28.82L100.43 86.2C102.38 90.43 103.67 92.91 104.29 93.65C104.91 94.39 106.28 95.01 108.37 95.53V97.3H90.49V95.53C92.63 95.24 93.7 94.43 93.7 93.1C93.7 92.51 93.29 91.37 92.49 89.68L86.32 76.16L86.33 76.15ZM83.15 68.98L66.19 31.76L49.25 68.98H83.15Z" fill="#F7F8B8"/>
<path d="M125.58 63.4V90.78C125.58 92.29 125.82 93.36 126.3 94C126.78 94.64 127.72 95.15 129.11 95.51V97.28H113.38V95.51C114.78 95.14 115.72 94.65 116.19 94.02C116.67 93.4 116.91 92.31 116.91 90.76V28.48C116.91 26.94 116.67 25.84 116.19 25.2C115.71 24.56 114.77 24.07 113.38 23.74V21.97H154.71C160.37 21.97 164.85 22.27 168.14 22.88C171.43 23.49 174.29 24.55 176.72 26.06C179.22 27.61 181.24 29.73 182.79 32.41C184.56 35.47 185.44 38.91 185.44 42.74C185.44 48.49 183.54 53.17 179.73 56.8C175.92 60.43 170.69 62.5 164.03 63.01L183.18 92.75C184.32 94.59 185.97 95.5 188.14 95.5V97.27H170.71V95.5C172.51 95.21 173.41 94.69 173.41 93.96C173.41 93.59 172.77 92.4 171.48 90.38L154.37 63.39H125.57L125.58 63.4ZM125.58 56.23H156.09C160.25 56.23 163.38 56.06 165.5 55.71C167.62 55.36 169.48 54.73 171.1 53.81C174.89 51.6 176.78 47.91 176.78 42.72C176.78 37.53 174.83 33.78 170.93 31.57C169.2 30.61 167.28 29.97 165.16 29.64C163.04 29.31 159.76 29.14 155.31 29.14H125.57V56.23H125.58Z" fill="#F7F8B8"/>
<path d="M275.86 28.4799L267.69 42.1099L266.2 41.2299C266.53 40.1299 266.7 39.2599 266.7 38.6399C266.7 37.1299 264.35 35.2399 259.64 32.9599C253.17 29.7999 246.1 28.2099 238.45 28.2099C228.15 28.2099 219.8 31.0599 213.4 36.7499C206.89 42.5599 203.63 50.0699 203.63 59.2999C203.63 68.5299 207.01 76.1099 213.78 82.1799C220.33 88.0999 228.4 91.0599 238 91.0599C247.6 91.0599 255.66 88.3299 262.83 82.8699C266.07 80.4099 267.69 78.6599 267.69 77.6299C267.69 77.1099 267.38 76.2699 266.75 75.0899L268.07 74.0399L277.89 85.9599L276.51 87.0699C275.48 86.1499 274.63 85.6899 273.97 85.6899C273.56 85.6899 272.87 86.0799 271.87 86.8499C268.49 89.3899 265.68 91.2999 263.46 92.5699C261.23 93.8399 258.8 94.9199 256.15 95.7999C250.67 97.6799 244.64 98.6199 238.05 98.6199C225.36 98.6199 215.04 95.0899 207.1 88.0299C198.75 80.6399 194.57 71.1999 194.57 59.7199C194.57 50.6699 197.18 42.8399 202.4 36.2199C210.57 25.8499 222.8 20.6599 239.09 20.6599C249.87 20.6599 260.3 23.5099 270.37 29.2099C271.03 29.5799 271.49 29.7599 271.75 29.7599C272.23 29.7599 273.09 29.0599 274.34 27.6599L275.83 28.4899L275.86 28.4799Z" fill="#F7F8B8"/>
<path d="M351.17 62.14H299.58V90.78C299.58 92.32 299.81 93.41 300.27 94.04C300.73 94.67 301.68 95.16 303.11 95.53V97.3H287.38V95.53C288.81 95.16 289.76 94.67 290.22 94.04C290.68 93.42 290.91 92.33 290.91 90.78V28.48C290.91 26.94 290.67 25.84 290.19 25.2C289.71 24.56 288.77 24.07 287.38 23.74V21.97H303.11V23.74C301.71 24.11 300.77 24.6 300.3 25.23C299.82 25.86 299.58 26.94 299.58 28.49V54.97H351.17V28.48C351.17 26.94 350.93 25.84 350.45 25.2C349.97 24.56 349.03 24.07 347.64 23.74V21.97H363.37V23.74C361.97 24.11 361.03 24.6 360.56 25.23C360.08 25.86 359.84 26.94 359.84 28.49V90.78C359.84 92.29 360.08 93.36 360.56 94.01C361.04 94.65 361.98 95.16 363.37 95.53V97.3H347.64V95.53C349.04 95.16 349.98 94.67 350.45 94.04C350.93 93.42 351.17 92.33 351.17 90.78V62.14Z" fill="#F7F8B8"/>
<path d="M380.62 90.77V28.48C380.62 26.94 380.38 25.84 379.9 25.2C379.42 24.56 378.48 24.07 377.09 23.74V21.97H392.82V23.74C391.42 24.11 390.48 24.6 390.01 25.23C389.53 25.86 389.29 26.94 389.29 28.49V90.78C389.29 92.32 389.52 93.41 389.98 94.04C390.44 94.67 391.39 95.16 392.82 95.53V97.3H377.09V95.53C378.52 95.16 379.47 94.67 379.93 94.04C380.39 93.42 380.62 92.33 380.62 90.78V90.77Z" fill="#F7F8B8"/>
<path d="M440.09 29.1399V90.7699C440.09 92.2799 440.33 93.3499 440.81 93.9999C441.29 94.6399 442.23 95.1499 443.62 95.5199V97.2899H427.9V95.5199C429.3 95.1499 430.24 94.6599 430.71 94.0299C431.19 93.4099 431.43 92.3199 431.43 90.7699V29.1399H405.94C404.4 29.1399 403.3 29.3699 402.66 29.8399C402.02 30.3099 401.53 31.2499 401.2 32.6699H399.43V18.4299H401.2C401.53 19.8399 402.02 20.7799 402.66 21.2599C403.3 21.7399 404.4 21.9699 405.94 21.9699H465.59C467.13 21.9699 468.23 21.7299 468.87 21.2599C469.51 20.7899 470 19.8499 470.33 18.4299H472.1V32.6699H470.33C470 31.2499 469.51 30.3099 468.87 29.8399C468.23 29.3699 467.13 29.1399 465.59 29.1399H440.1H440.09Z" fill="#F7F8B8"/>
<path d="M490.9 62.1399V90.1099H539.18C540.72 90.1099 541.82 89.8699 542.46 89.3899C543.1 88.9099 543.59 87.9699 543.92 86.5799H545.69V100.82H543.92C543.55 99.4199 543.05 98.4799 542.4 98.0099C541.76 97.5299 540.66 97.2899 539.12 97.2899H478.7V95.5199C480.13 95.1499 481.08 94.6599 481.54 94.0299C482 93.4099 482.23 92.3199 482.23 90.7699V28.4799C482.23 26.9399 481.99 25.8499 481.51 25.2199C481.03 24.5999 480.09 24.0999 478.7 23.7299V21.9599H538.45C539.99 21.9599 541.08 21.7199 541.71 21.2499C542.33 20.7799 542.83 19.8399 543.2 18.4199H544.97V32.6599H543.2C542.87 31.2799 542.38 30.3399 541.74 29.8599C541.1 29.3699 540 29.1299 538.46 29.1299H490.9V54.9499H522.07C523.61 54.9499 524.71 54.7099 525.35 54.2299C525.99 53.7499 526.48 52.8099 526.81 51.4199H528.58V65.6599H526.81C526.48 64.2599 525.99 63.3199 525.35 62.8499C524.71 62.3699 523.61 62.1299 522.07 62.1299H490.9V62.1399Z" fill="#F7F8B8"/>
<path d="M636.6 28.4799L628.43 42.1099L626.94 41.2299C627.27 40.1299 627.44 39.2599 627.44 38.6399C627.44 37.1299 625.09 35.2399 620.38 32.9599C613.91 29.7999 606.84 28.2099 599.19 28.2099C588.89 28.2099 580.54 31.0599 574.14 36.7499C567.63 42.5599 564.37 50.0699 564.37 59.2999C564.37 68.5299 567.75 76.1099 574.52 82.1799C581.07 88.0999 589.14 91.0599 598.74 91.0599C608.34 91.0599 616.4 88.3299 623.57 82.8699C626.81 80.4099 628.43 78.6599 628.43 77.6299C628.43 77.1099 628.12 76.2699 627.49 75.0899L628.81 74.0399L638.63 85.9599L637.25 87.0699C636.22 86.1499 635.37 85.6899 634.71 85.6899C634.3 85.6899 633.61 86.0799 632.61 86.8499C629.23 89.3899 626.42 91.2999 624.2 92.5699C621.97 93.8399 619.54 94.9199 616.89 95.7999C611.41 97.6799 605.38 98.6199 598.79 98.6199C586.1 98.6199 575.78 95.0899 567.84 88.0299C559.49 80.6399 555.31 71.1999 555.31 59.7199C555.31 50.6699 557.92 42.8399 563.14 36.2199C571.31 25.8499 583.54 20.6599 599.83 20.6599C610.61 20.6599 621.04 23.5099 631.11 29.2099C631.77 29.5799 632.23 29.7599 632.49 29.7599C632.97 29.7599 633.83 29.0599 635.08 27.6599L636.57 28.4899L636.6 28.4799Z" fill="#F7F8B8"/>
<path d="M683.6 29.1399V90.7699C683.6 92.2799 683.84 93.3499 684.32 93.9999C684.8 94.6399 685.74 95.1499 687.13 95.5199V97.2899H671.41V95.5199C672.81 95.1499 673.75 94.6599 674.22 94.0299C674.7 93.4099 674.94 92.3199 674.94 90.7699V29.1399H649.45C647.91 29.1399 646.81 29.3699 646.17 29.8399C645.53 30.3099 645.04 31.2499 644.71 32.6699H642.94V18.4299H644.71C645.04 19.8399 645.53 20.7799 646.17 21.2599C646.81 21.7399 647.91 21.9699 649.45 21.9699H709.1C710.64 21.9699 711.74 21.7299 712.38 21.2599C713.02 20.7899 713.51 19.8499 713.84 18.4299H715.61V32.6699H713.84C713.51 31.2499 713.02 30.3099 712.38 29.8399C711.74 29.3699 710.64 29.1399 709.1 29.1399H683.61H683.6Z" fill="#F7F8B8"/>
<path d="M732.92 28.48V70.14C732.92 75.07 733.18 78.54 733.69 80.54C734.2 82.55 735.27 84.28 736.89 85.75C740.83 89.28 748.16 91.05 758.91 91.05C770.61 91.05 778.28 88.97 781.92 84.82C783.13 83.42 783.94 81.76 784.35 79.83C784.75 77.9 784.96 74.67 784.96 70.15V28.48C784.96 26.97 784.72 25.9 784.24 25.25C783.76 24.61 782.82 24.1 781.43 23.73V21.96H796.38V23.73C794.98 24.06 794.04 24.55 793.57 25.19C793.09 25.83 792.85 26.93 792.85 28.47V71.84C792.85 77.17 792.33 81.24 791.31 84.03C789.4 89.03 785.8 92.71 780.52 95.07C775.24 97.43 767.93 98.6 758.59 98.6C744.61 98.6 735.05 95.9 729.9 90.49C727.8 88.32 726.34 85.85 725.51 83.07C724.68 80.29 724.27 76.55 724.27 71.84V28.48C724.27 26.94 724.03 25.84 723.55 25.2C723.07 24.56 722.13 24.07 720.74 23.74V21.97H736.46V23.74C735.06 24.11 734.12 24.61 733.65 25.26C733.17 25.9 732.93 26.98 732.93 28.49L732.92 28.48Z" fill="#F7F8B8"/>
<path d="M820.8 63.4V90.78C820.8 92.29 821.04 93.36 821.52 94C822 94.64 822.94 95.15 824.33 95.51V97.28H808.6V95.51C810 95.14 810.94 94.65 811.41 94.02C811.89 93.4 812.13 92.31 812.13 90.76V28.48C812.13 26.94 811.89 25.84 811.41 25.2C810.93 24.56 809.99 24.07 808.6 23.74V21.97H849.93C855.59 21.97 860.07 22.27 863.36 22.88C866.65 23.49 869.51 24.55 871.94 26.06C874.44 27.61 876.46 29.73 878.01 32.41C879.78 35.47 880.66 38.91 880.66 42.74C880.66 48.49 878.76 53.17 874.95 56.8C871.14 60.43 865.91 62.5 859.25 63.01L878.4 92.75C879.54 94.59 881.19 95.5 883.36 95.5V97.27H865.93V95.5C867.73 95.21 868.63 94.69 868.63 93.96C868.63 93.59 867.99 92.4 866.7 90.38L849.59 63.39H820.79L820.8 63.4ZM820.8 56.23H851.31C855.47 56.23 858.6 56.06 860.72 55.71C862.84 55.36 864.7 54.73 866.32 53.81C870.11 51.6 872 47.91 872 42.72C872 37.53 870.05 33.78 866.15 31.57C864.42 30.61 862.5 29.97 860.38 29.64C858.26 29.31 854.98 29.14 850.53 29.14H820.79V56.23H820.8Z" fill="#F7F8B8"/>
<path d="M904.82 62.1399V90.1099H953.1C954.64 90.1099 955.74 89.8699 956.38 89.3899C957.02 88.9099 957.51 87.9699 957.84 86.5799H959.61V100.82H957.84C957.47 99.4199 956.97 98.4799 956.32 98.0099C955.68 97.5299 954.58 97.2899 953.04 97.2899H892.62V95.5199C894.05 95.1499 895 94.6599 895.46 94.0299C895.92 93.4099 896.15 92.3199 896.15 90.7699V28.4799C896.15 26.9399 895.91 25.8499 895.43 25.2199C894.95 24.5999 894.01 24.0999 892.62 23.7299V21.9599H952.37C953.91 21.9599 955 21.7199 955.63 21.2499C956.25 20.7799 956.75 19.8399 957.12 18.4199H958.89V32.6599H957.12C956.79 31.2799 956.3 30.3399 955.66 29.8599C955.02 29.3699 953.92 29.1299 952.38 29.1299H904.82V54.9499H935.99C937.53 54.9499 938.63 54.7099 939.27 54.2299C939.91 53.7499 940.4 52.8099 940.73 51.4199H942.5V65.6599H940.73C940.4 64.2599 939.91 63.3199 939.27 62.8499C938.63 62.3699 937.53 62.1299 935.99 62.1299H904.82V62.1399Z" fill="#F7F8B8"/>
<path d="M36.42 193.54V129.7C36.42 128.6 36.16 127.75 35.65 127.16C35.13 126.57 34.22 126.09 32.89 125.73V123.96H72.62C81.63 123.96 88.53 125.21 93.31 127.71C99.34 130.84 103.94 135.66 107.1 142.17C109.86 147.87 111.24 154.35 111.24 161.59C111.24 170.16 109.38 177.55 105.67 183.77C102.32 189.29 98.08 193.25 92.95 195.66C87.82 198.07 81.04 199.27 72.62 199.27H32.89V197.5C34.21 197.13 35.13 196.65 35.65 196.07C36.16 195.48 36.42 194.64 36.42 193.53V193.54ZM45.08 192.11H72.28C80.26 192.11 86.18 190.88 90.05 188.41C94.61 185.47 97.96 180.96 100.09 174.89C101.49 170.84 102.19 166.41 102.19 161.59C102.19 152.84 99.96 145.59 95.51 139.85C93.05 136.69 90.05 134.44 86.52 133.12C82.99 131.8 78.24 131.13 72.28 131.13H45.08V192.1V192.11Z" fill="#F7F8B8"/>
<path d="M135.29 164.14V192.11H183.57C185.11 192.11 186.21 191.87 186.85 191.39C187.49 190.91 187.98 189.97 188.31 188.58H190.08V202.82H188.31C187.94 201.42 187.44 200.48 186.79 200.01C186.15 199.53 185.05 199.29 183.51 199.29H123.09V197.52C124.52 197.15 125.47 196.66 125.93 196.03C126.39 195.41 126.62 194.32 126.62 192.77V130.48C126.62 128.94 126.38 127.85 125.9 127.22C125.42 126.6 124.48 126.1 123.09 125.73V123.96H182.84C184.38 123.96 185.47 123.72 186.1 123.25C186.72 122.78 187.22 121.84 187.59 120.42H189.36V134.66H187.59C187.26 133.28 186.77 132.34 186.13 131.86C185.49 131.37 184.39 131.13 182.85 131.13H135.29V156.95H166.46C168 156.95 169.1 156.71 169.74 156.23C170.38 155.75 170.87 154.81 171.2 153.42H172.97V167.66H171.2C170.87 166.26 170.38 165.32 169.74 164.85C169.1 164.37 168 164.13 166.46 164.13H135.29V164.14Z" fill="#F7F8B8"/>
<path d="M272.28 128.65L264.39 142.9L262.85 142.07C263.47 140.41 263.79 139.39 263.79 138.98C263.79 137.88 262.43 136.68 259.71 135.39C252.32 131.93 244.48 130.2 236.2 130.2C229.4 130.2 223.47 131.47 218.43 134C216 135.25 214.08 136.86 212.66 138.85C211.24 140.83 210.54 142.93 210.54 145.13C210.54 146.97 211.09 148.7 212.2 150.33C213.3 151.96 214.76 153.18 216.56 153.99C218.55 154.91 220.89 155.54 223.6 155.89C226.3 156.24 230.71 156.51 236.81 156.69C245.27 156.95 251.32 157.34 254.96 157.88C258.6 158.41 261.6 159.34 263.95 160.67C270.2 164.17 273.33 169.48 273.33 176.62C273.33 183.76 270.5 189 264.83 193.34C258.54 198.2 249.88 200.62 238.84 200.62C232.48 200.62 226.92 199.98 222.18 198.69C217.43 197.4 211.77 195.03 205.19 191.57C203.35 190.72 202.27 190.3 201.93 190.3C201.38 190.3 200.51 190.96 199.34 192.29L197.85 191.35L206.13 177.5L207.67 178.38C206.97 179.85 206.62 180.84 206.62 181.36C206.62 182.54 208.97 184.36 213.68 186.82C217.91 189.03 221.98 190.62 225.9 191.59C229.82 192.57 234.07 193.05 238.67 193.05C247.98 193.05 255.04 191.01 259.86 186.93C263.06 184.21 264.66 180.97 264.66 177.22C264.66 172.29 261.92 168.89 256.44 167.01C254.67 166.39 252.84 165.99 250.95 165.82C249.06 165.65 243.68 165.41 234.81 165.07C228.48 164.81 223.53 164.33 219.94 163.64C216.35 162.94 213.16 161.8 210.37 160.22C207.76 158.75 205.69 156.69 204.16 154.04C202.63 151.39 201.87 148.5 201.87 145.38C201.87 140.05 203.86 135.47 207.83 131.64C210.77 128.85 214.84 126.65 220.02 125.05C225.21 123.45 230.89 122.65 237.07 122.65C242.11 122.65 246.79 123.15 251.11 124.15C255.43 125.15 260.32 126.87 265.76 129.32C266.97 129.84 267.73 130.1 268.02 130.1C268.68 130.1 269.58 129.36 270.72 127.88L272.26 128.66L272.28 128.65Z" fill="#F7F8B8"/>
<path d="M286.83 192.77V130.48C286.83 128.94 286.59 127.84 286.11 127.2C285.63 126.56 284.69 126.07 283.3 125.74V123.97H299.03V125.74C297.63 126.11 296.69 126.6 296.22 127.23C295.74 127.86 295.5 128.94 295.5 130.49V192.78C295.5 194.32 295.73 195.41 296.19 196.04C296.65 196.67 297.6 197.16 299.03 197.53V199.3H283.3V197.53C284.73 197.16 285.68 196.67 286.14 196.04C286.6 195.42 286.83 194.33 286.83 192.78V192.77Z" fill="#F7F8B8"/>
<path d="M392.26 131.2L383.79 144.66L382.36 143.67C383.02 142.57 383.35 141.75 383.35 141.2C383.35 140.06 381.38 138.45 377.45 136.36C369.88 132.26 362.12 130.2 354.18 130.2C344.95 130.2 337.18 132.79 330.85 137.97C323.61 143.85 319.98 151.79 319.98 161.78C319.98 171.77 323.44 179.27 330.35 185.04C336.71 190.37 344.84 193.03 354.74 193.03C359.96 193.03 364.94 192.21 369.66 190.57C374.39 188.93 378.37 186.64 381.61 183.7V169.8H363.79C362.25 169.8 361.15 170.04 360.51 170.52C359.87 171 359.38 171.94 359.05 173.33H357.28V159.09H359.05C359.38 160.49 359.87 161.43 360.51 161.9C361.15 162.38 362.25 162.62 363.79 162.62H393.42V164.39C392.02 164.76 391.08 165.25 390.61 165.88C390.13 166.51 389.89 167.59 389.89 169.14V178.91C389.89 180.45 390.13 181.54 390.61 182.17C391.09 182.8 392.03 183.29 393.42 183.66V185.2C389.26 188.92 385.34 191.8 381.67 193.86C373.69 198.35 364.58 200.59 354.36 200.59C341.78 200.59 331.61 197.19 323.85 190.38C320.02 187.03 316.99 183.02 314.75 178.35C312.21 173.02 310.94 167.39 310.94 161.47C310.94 152.97 313.42 145.43 318.39 138.85C322.99 132.78 329.17 128.35 336.93 125.55C342.41 123.6 348.3 122.63 354.59 122.63C360.11 122.63 365.22 123.29 369.93 124.62C374.64 125.94 379.72 128.13 385.16 131.19C386.74 132.07 387.72 132.51 388.08 132.51C388.67 132.51 389.57 131.74 390.78 130.19L392.27 131.18L392.26 131.2Z" fill="#F7F8B8"/>
<path d="M416.31 133.51V192.77C416.31 194.28 416.55 195.35 417.03 196C417.51 196.64 418.45 197.15 419.84 197.52V199.29H404.89V197.52C406.32 197.15 407.27 196.66 407.73 196.03C408.19 195.41 408.42 194.32 408.42 192.77V130.48C408.42 128.94 408.18 127.84 407.7 127.2C407.22 126.56 406.28 126.07 404.89 125.74V123.97H426.53V125.74C424.8 126.33 423.94 127.16 423.94 128.22C423.94 128.96 424.81 130.34 426.53 132.36L471.93 185.44V130.48C471.93 128.94 471.69 127.84 471.21 127.2C470.73 126.56 469.79 126.07 468.4 125.74V123.97H483.35V125.74C481.95 126.07 481.01 126.56 480.54 127.2C480.06 127.84 479.82 128.94 479.82 130.48V192.77C479.82 194.31 480.06 195.4 480.54 196.03C481.02 196.66 481.96 197.15 483.35 197.52V199.29H465.96V197.52C467.65 197.08 468.5 196.33 468.5 195.26C468.5 194.45 467.73 193.13 466.18 191.29L416.31 133.52V133.51Z" fill="#F7F8B8"/>
<path d="M516.2 194.41C516.2 194.93 516.13 195.4 516 195.84C515.87 196.28 515.68 196.67 515.45 197.01C515.22 197.35 514.93 197.66 514.59 197.92C514.26 198.18 513.88 198.4 513.46 198.58C513.04 198.76 512.59 198.89 512.11 198.98C511.63 199.07 511.08 199.11 510.47 199.11H506.18C505.99 199.11 505.8 199.04 505.63 198.91C505.46 198.78 505.37 198.55 505.37 198.22V183.57C505.37 183.24 505.46 183.01 505.63 182.88C505.8 182.75 505.99 182.68 506.18 182.68H509.91C510.89 182.68 511.7 182.77 512.32 182.96C512.94 183.15 513.47 183.42 513.89 183.77C514.31 184.13 514.62 184.56 514.84 185.08C515.06 185.6 515.16 186.18 515.16 186.83C515.16 187.22 515.11 187.59 515.02 187.95C514.93 188.31 514.79 188.63 514.61 188.93C514.43 189.23 514.2 189.5 513.92 189.74C513.64 189.98 513.33 190.17 512.97 190.32C513.42 190.4 513.84 190.56 514.23 190.78C514.62 191 514.96 191.29 515.25 191.64C515.54 191.99 515.77 192.39 515.94 192.86C516.11 193.33 516.19 193.84 516.19 194.4L516.2 194.41ZM512.91 187.06C512.91 186.66 512.86 186.3 512.74 185.98C512.63 185.66 512.46 185.39 512.22 185.16C511.98 184.93 511.68 184.76 511.3 184.65C510.92 184.54 510.42 184.47 509.79 184.47H507.54V189.79H510.02C510.59 189.79 511.04 189.72 511.39 189.57C511.74 189.42 512.02 189.22 512.25 188.97C512.48 188.72 512.64 188.43 512.75 188.09C512.86 187.75 512.91 187.41 512.91 187.06ZM513.9 194.54C513.9 194.05 513.82 193.62 513.67 193.25C513.52 192.88 513.29 192.56 512.99 192.31C512.69 192.06 512.31 191.86 511.86 191.73C511.41 191.6 510.84 191.53 510.16 191.53H507.55V197.32H510.72C511.22 197.32 511.65 197.26 512.03 197.14C512.4 197.02 512.73 196.85 513.01 196.61C513.29 196.37 513.51 196.09 513.68 195.74C513.84 195.39 513.92 194.99 513.92 194.53L513.9 194.54Z" fill="#F7F8F8"/>
<path d="M535.22 193.05C535.22 194.05 535.07 194.94 534.78 195.72C534.49 196.5 534.07 197.17 533.53 197.71C532.99 198.25 532.33 198.66 531.55 198.94C530.77 199.22 529.89 199.36 528.9 199.36C527.99 199.36 527.17 199.23 526.42 198.97C525.67 198.71 525.04 198.32 524.5 197.81C523.96 197.3 523.56 196.66 523.27 195.89C522.98 195.12 522.84 194.23 522.84 193.22V183.03C522.84 182.96 522.86 182.9 522.89 182.85C522.92 182.8 522.98 182.76 523.07 182.73C523.16 182.7 523.26 182.67 523.4 182.65C523.54 182.63 523.71 182.62 523.93 182.62C524.13 182.62 524.31 182.63 524.45 182.65C524.59 182.67 524.71 182.7 524.79 182.73C524.87 182.76 524.93 182.8 524.96 182.85C524.99 182.9 525.01 182.96 525.01 183.03V192.96C525.01 193.72 525.1 194.39 525.29 194.95C525.48 195.51 525.75 195.99 526.1 196.37C526.45 196.75 526.88 197.03 527.37 197.22C527.87 197.41 528.42 197.51 529.04 197.51C529.66 197.51 530.24 197.42 530.74 197.23C531.23 197.04 531.65 196.76 532 196.39C532.34 196.02 532.61 195.56 532.79 195.01C532.97 194.46 533.06 193.82 533.06 193.08V183.04C533.06 182.97 533.08 182.91 533.11 182.86C533.14 182.81 533.2 182.77 533.29 182.74C533.38 182.71 533.49 182.68 533.63 182.66C533.77 182.64 533.95 182.63 534.16 182.63C534.37 182.63 534.54 182.64 534.67 182.66C534.81 182.68 534.92 182.71 535 182.74C535.08 182.77 535.14 182.81 535.18 182.86C535.22 182.91 535.24 182.97 535.24 183.04V193.07L535.22 193.05Z" fill="#F7F8F8"/>
<path d="M545.09 198.79C545.09 198.86 545.07 198.92 545.04 198.97C545.01 199.02 544.95 199.06 544.86 199.09C544.77 199.12 544.66 199.15 544.52 199.17C544.38 199.19 544.2 199.2 543.99 199.2C543.78 199.2 543.61 199.19 543.47 199.17C543.33 199.15 543.21 199.12 543.13 199.09C543.05 199.06 542.99 199.02 542.95 198.97C542.91 198.92 542.9 198.86 542.9 198.79V183.02C542.9 182.95 542.92 182.89 542.96 182.84C543 182.79 543.06 182.75 543.15 182.72C543.24 182.69 543.35 182.66 543.49 182.64C543.63 182.62 543.8 182.61 543.99 182.61C544.2 182.61 544.38 182.62 544.52 182.64C544.66 182.66 544.77 182.69 544.86 182.72C544.95 182.75 545 182.79 545.04 182.84C545.08 182.89 545.09 182.95 545.09 183.02V198.79Z" fill="#F7F8F8"/>
<path d="M561.33 198.17C561.33 198.34 561.33 198.48 561.3 198.6C561.27 198.72 561.26 198.81 561.22 198.89C561.18 198.97 561.14 199.03 561.08 199.07C561.02 199.11 560.96 199.13 560.88 199.13H553.62C553.43 199.13 553.24 199.06 553.07 198.93C552.9 198.8 552.81 198.57 552.81 198.24V183.03C552.81 182.96 552.83 182.9 552.86 182.85C552.89 182.8 552.95 182.76 553.04 182.73C553.13 182.7 553.24 182.67 553.38 182.65C553.52 182.63 553.7 182.62 553.9 182.62C554.1 182.62 554.29 182.63 554.43 182.65C554.57 182.67 554.68 182.7 554.77 182.73C554.86 182.76 554.91 182.8 554.95 182.85C554.99 182.9 555 182.96 555 183.03V197.24H560.89C560.97 197.24 561.03 197.26 561.09 197.3C561.14 197.34 561.19 197.39 561.23 197.47C561.27 197.54 561.3 197.64 561.31 197.76C561.32 197.88 561.34 198.02 561.34 198.19L561.33 198.17Z" fill="#F7F8F8"/>
<path d="M579.73 190.67C579.73 192.09 579.55 193.33 579.18 194.4C578.81 195.47 578.29 196.34 577.59 197.04C576.89 197.74 576.04 198.26 575.02 198.61C574 198.96 572.79 199.13 571.39 199.13H567.91C567.72 199.13 567.53 199.06 567.36 198.93C567.19 198.8 567.1 198.57 567.1 198.24V183.59C567.1 183.26 567.19 183.03 567.36 182.9C567.53 182.77 567.72 182.7 567.91 182.7H571.63C573.05 182.7 574.25 182.88 575.24 183.25C576.23 183.62 577.04 184.15 577.71 184.84C578.37 185.53 578.88 186.37 579.22 187.35C579.56 188.33 579.73 189.44 579.73 190.68V190.67ZM577.43 190.76C577.43 189.87 577.32 189.04 577.1 188.28C576.88 187.52 576.54 186.85 576.06 186.29C575.59 185.73 575 185.3 574.28 184.98C573.56 184.67 572.63 184.51 571.5 184.51H569.28V197.29H571.53C572.58 197.29 573.46 197.16 574.18 196.9C574.9 196.64 575.5 196.24 575.98 195.69C576.46 195.14 576.82 194.47 577.07 193.65C577.31 192.83 577.43 191.87 577.43 190.75V190.76Z" fill="#F7F8F8"/>
<path d="M588.63 198.79C588.63 198.86 588.61 198.92 588.58 198.97C588.55 199.02 588.49 199.06 588.4 199.09C588.31 199.12 588.2 199.15 588.06 199.17C587.92 199.19 587.74 199.2 587.53 199.2C587.32 199.2 587.15 199.19 587.01 199.17C586.87 199.15 586.75 199.12 586.67 199.09C586.59 199.06 586.53 199.02 586.49 198.97C586.45 198.92 586.44 198.86 586.44 198.79V183.02C586.44 182.95 586.46 182.89 586.5 182.84C586.54 182.79 586.6 182.75 586.69 182.72C586.78 182.69 586.89 182.66 587.03 182.64C587.17 182.62 587.34 182.61 587.53 182.61C587.74 182.61 587.92 182.62 588.06 182.64C588.2 182.66 588.31 182.69 588.4 182.72C588.49 182.75 588.54 182.79 588.58 182.84C588.62 182.89 588.63 182.95 588.63 183.02V198.79Z" fill="#F7F8F8"/>
<path d="M608.77 198.22C608.77 198.39 608.74 198.53 608.69 198.65C608.63 198.77 608.56 198.87 608.47 198.94C608.38 199.01 608.28 199.07 608.16 199.11C608.04 199.15 607.93 199.16 607.82 199.16H607.1C606.87 199.16 606.67 199.14 606.5 199.09C606.33 199.04 606.17 198.96 606.01 198.84C605.85 198.72 605.7 198.55 605.55 198.34C605.4 198.13 605.23 197.86 605.06 197.53L600.05 188.19C599.79 187.71 599.52 187.2 599.26 186.67C599 186.14 598.75 185.63 598.52 185.13H598.49C598.51 185.74 598.52 186.36 598.53 187C598.54 187.64 598.54 188.27 598.54 188.89V198.81C598.54 198.87 598.52 198.93 598.49 198.98C598.45 199.04 598.39 199.08 598.31 199.11C598.23 199.14 598.11 199.17 597.98 199.19C597.85 199.21 597.66 199.22 597.45 199.22C597.24 199.22 597.06 199.21 596.92 199.19C596.78 199.17 596.67 199.14 596.59 199.11C596.51 199.08 596.45 199.04 596.42 198.98C596.38 198.92 596.37 198.87 596.37 198.81V183.65C596.37 183.31 596.47 183.07 596.66 182.93C596.85 182.79 597.06 182.71 597.29 182.71H598.37C598.62 182.71 598.83 182.73 599 182.77C599.17 182.81 599.32 182.88 599.46 182.98C599.59 183.08 599.73 183.21 599.85 183.39C599.98 183.56 600.11 183.78 600.25 184.04L604.1 191.25C604.34 191.69 604.57 192.12 604.79 192.54C605.01 192.96 605.22 193.37 605.43 193.78C605.63 194.19 605.84 194.59 606.04 194.98C606.24 195.37 606.44 195.77 606.63 196.17H606.64C606.62 195.5 606.61 194.81 606.61 194.08C606.61 193.36 606.61 192.66 606.61 191.99V183.08C606.61 183.02 606.63 182.97 606.66 182.91C606.7 182.86 606.76 182.81 606.84 182.78C606.92 182.75 607.04 182.71 607.17 182.7C607.3 182.69 607.49 182.67 607.71 182.67C607.91 182.67 608.08 182.67 608.22 182.7C608.36 182.72 608.47 182.74 608.55 182.78C608.63 182.82 608.69 182.86 608.72 182.91C608.76 182.96 608.77 183.02 608.77 183.08V198.24V198.22Z" fill="#F7F8F8"/>
<path d="M628.83 184.93C628.83 185.09 628.83 185.23 628.8 185.36C628.77 185.49 628.76 185.58 628.72 185.66C628.68 185.74 628.64 185.8 628.59 185.83C628.54 185.86 628.48 185.88 628.42 185.88C628.32 185.88 628.15 185.8 627.91 185.64C627.67 185.48 627.36 185.3 626.96 185.11C626.56 184.92 626.09 184.74 625.53 184.58C624.98 184.42 624.32 184.34 623.56 184.34C622.65 184.34 621.84 184.51 621.12 184.84C620.4 185.17 619.79 185.63 619.29 186.21C618.79 186.79 618.41 187.49 618.14 188.29C617.87 189.09 617.74 189.97 617.74 190.91C617.74 191.96 617.89 192.89 618.18 193.7C618.47 194.51 618.88 195.2 619.39 195.76C619.9 196.32 620.52 196.74 621.24 197.03C621.95 197.32 622.74 197.46 623.59 197.46C624.1 197.46 624.61 197.4 625.13 197.28C625.65 197.16 626.14 196.97 626.58 196.73V191.94H622.77C622.63 191.94 622.52 191.87 622.45 191.72C622.38 191.58 622.34 191.35 622.34 191.05C622.34 190.89 622.34 190.75 622.37 190.64C622.4 190.53 622.41 190.43 622.45 190.36C622.49 190.29 622.53 190.24 622.58 190.2C622.63 190.16 622.69 190.15 622.77 190.15H627.99C628.08 190.15 628.18 190.17 628.27 190.2C628.36 190.23 628.45 190.28 628.52 190.35C628.59 190.42 628.66 190.51 628.7 190.63C628.74 190.75 628.76 190.88 628.76 191.04V197.3C628.76 197.52 628.72 197.71 628.65 197.87C628.57 198.03 628.41 198.17 628.17 198.3C627.93 198.43 627.61 198.56 627.22 198.7C626.83 198.84 626.43 198.97 626.01 199.07C625.59 199.17 625.18 199.25 624.75 199.3C624.32 199.35 623.91 199.38 623.49 199.38C622.22 199.38 621.09 199.18 620.09 198.79C619.09 198.4 618.25 197.84 617.56 197.11C616.87 196.38 616.34 195.51 615.98 194.49C615.62 193.47 615.43 192.34 615.43 191.09C615.43 189.84 615.63 188.61 616.02 187.55C616.41 186.49 616.97 185.59 617.68 184.85C618.4 184.11 619.25 183.53 620.26 183.12C621.26 182.71 622.37 182.5 623.59 182.5C624.22 182.5 624.8 182.56 625.35 182.67C625.9 182.78 626.39 182.91 626.82 183.06C627.25 183.21 627.61 183.37 627.9 183.54C628.19 183.71 628.39 183.86 628.5 183.97C628.61 184.08 628.69 184.21 628.73 184.35C628.77 184.49 628.79 184.7 628.79 184.97L628.83 184.93Z" fill="#F7F8F8"/>
<path d="M657.78 198.35C657.85 198.54 657.88 198.69 657.89 198.8C657.89 198.91 657.86 199 657.79 199.06C657.72 199.12 657.61 199.16 657.45 199.17C657.29 199.19 657.08 199.2 656.82 199.2C656.56 199.2 656.35 199.2 656.19 199.18C656.03 199.17 655.92 199.15 655.83 199.12C655.75 199.09 655.69 199.05 655.65 199C655.61 198.95 655.58 198.89 655.54 198.81L654.13 194.81H647.3L645.95 198.76C645.92 198.84 645.89 198.9 645.85 198.96C645.81 199.02 645.75 199.06 645.67 199.1C645.59 199.14 645.48 199.17 645.33 199.18C645.18 199.2 644.99 199.21 644.75 199.21C644.51 199.21 644.3 199.2 644.15 199.18C643.99 199.16 643.88 199.12 643.82 199.06C643.76 199 643.73 198.91 643.73 198.8C643.73 198.69 643.77 198.54 643.84 198.35L649.35 183.09C649.38 183 649.43 182.92 649.48 182.86C649.54 182.8 649.62 182.75 649.72 182.72C649.83 182.69 649.96 182.66 650.13 182.65C650.29 182.64 650.5 182.63 650.76 182.63C651.03 182.63 651.26 182.63 651.43 182.65C651.6 182.67 651.75 182.69 651.86 182.72C651.97 182.75 652.05 182.8 652.11 182.87C652.17 182.94 652.22 183.01 652.25 183.1L657.76 198.36L657.78 198.35ZM650.71 184.88H650.7L647.87 193.07H653.58L650.71 184.88Z" fill="#F7F8F8"/>
<path d="M673.97 187.51C673.97 188.33 673.83 189.07 673.56 189.73C673.29 190.39 672.9 190.95 672.4 191.42C671.9 191.89 671.28 192.25 670.55 192.5C669.82 192.75 668.94 192.88 667.93 192.88H666.06V198.8C666.06 198.87 666.04 198.93 666 198.98C665.96 199.03 665.9 199.07 665.82 199.1C665.74 199.13 665.63 199.16 665.49 199.18C665.35 199.2 665.17 199.21 664.96 199.21C664.75 199.21 664.57 199.2 664.43 199.18C664.29 199.16 664.18 199.13 664.09 199.1C664 199.07 663.95 199.03 663.91 198.98C663.87 198.93 663.86 198.87 663.86 198.8V183.64C663.86 183.3 663.95 183.06 664.13 182.92C664.31 182.78 664.51 182.7 664.73 182.7H668.25C668.61 182.7 668.95 182.71 669.27 182.74C669.6 182.77 669.98 182.83 670.42 182.93C670.87 183.03 671.32 183.21 671.78 183.48C672.24 183.75 672.63 184.07 672.95 184.46C673.27 184.85 673.52 185.3 673.69 185.81C673.86 186.32 673.95 186.89 673.95 187.5L673.97 187.51ZM671.67 187.69C671.67 187.02 671.55 186.46 671.29 186.01C671.04 185.56 670.73 185.23 670.36 185.01C669.99 184.79 669.61 184.65 669.22 184.59C668.83 184.53 668.44 184.5 668.07 184.5H666.05V191.09H668.02C668.68 191.09 669.23 191.01 669.66 190.84C670.1 190.67 670.46 190.44 670.76 190.14C671.06 189.84 671.28 189.48 671.43 189.06C671.58 188.64 671.66 188.19 671.66 187.7L671.67 187.69Z" fill="#F7F8F8"/>
<path d="M690.75 187.51C690.75 188.33 690.61 189.07 690.34 189.73C690.07 190.39 689.68 190.95 689.18 191.42C688.68 191.89 688.06 192.25 687.33 192.5C686.6 192.75 685.72 192.88 684.71 192.88H682.84V198.8C682.84 198.87 682.82 198.93 682.78 198.98C682.74 199.03 682.68 199.07 682.6 199.1C682.52 199.13 682.41 199.16 682.27 199.18C682.13 199.2 681.95 199.21 681.74 199.21C681.53 199.21 681.35 199.2 681.21 199.18C681.07 199.16 680.96 199.13 680.87 199.1C680.78 199.07 680.73 199.03 680.69 198.98C680.65 198.93 680.64 198.87 680.64 198.8V183.64C680.64 183.3 680.73 183.06 680.91 182.92C681.09 182.78 681.29 182.7 681.51 182.7H685.03C685.39 182.7 685.73 182.71 686.05 182.74C686.38 182.77 686.76 182.83 687.2 182.93C687.65 183.03 688.1 183.21 688.56 183.48C689.02 183.75 689.41 184.07 689.73 184.46C690.05 184.85 690.3 185.3 690.47 185.81C690.64 186.32 690.73 186.89 690.73 187.5L690.75 187.51ZM688.45 187.69C688.45 187.02 688.33 186.46 688.07 186.01C687.82 185.56 687.51 185.23 687.14 185.01C686.77 184.79 686.39 184.65 686 184.59C685.61 184.53 685.22 184.5 684.85 184.5H682.83V191.09H684.8C685.46 191.09 686.01 191.01 686.44 190.84C686.88 190.67 687.24 190.44 687.54 190.14C687.84 189.84 688.06 189.48 688.21 189.06C688.36 188.64 688.44 188.19 688.44 187.7L688.45 187.69Z" fill="#F7F8F8"/>
<path d="M706.59 198.22C706.59 198.37 706.59 198.51 706.56 198.62C706.53 198.73 706.51 198.83 706.47 198.91C706.43 198.99 706.38 199.04 706.32 199.08C706.26 199.11 706.2 199.13 706.14 199.13H698.26C698.07 199.13 697.88 199.06 697.71 198.93C697.54 198.8 697.45 198.57 697.45 198.24V183.59C697.45 183.26 697.54 183.03 697.71 182.9C697.88 182.77 698.07 182.7 698.26 182.7H706.05C706.12 182.7 706.18 182.72 706.23 182.75C706.29 182.78 706.33 182.84 706.36 182.92C706.39 183 706.42 183.09 706.44 183.21C706.46 183.32 706.47 183.47 706.47 183.64C706.47 183.79 706.46 183.93 706.44 184.04C706.42 184.15 706.39 184.25 706.36 184.32C706.33 184.39 706.28 184.44 706.23 184.48C706.18 184.51 706.11 184.53 706.05 184.53H699.63V189.68H705.14C705.21 189.68 705.27 189.7 705.32 189.74C705.38 189.78 705.42 189.83 705.46 189.9C705.5 189.97 705.53 190.06 705.54 190.18C705.55 190.3 705.57 190.44 705.57 190.6C705.57 190.75 705.57 190.88 705.54 190.99C705.51 191.1 705.5 191.19 705.46 191.26C705.42 191.33 705.38 191.38 705.32 191.41C705.27 191.44 705.2 191.45 705.14 191.45H699.63V197.33H706.14C706.21 197.33 706.27 197.35 706.32 197.38C706.37 197.41 706.42 197.47 706.47 197.54C706.52 197.61 706.54 197.71 706.56 197.82C706.58 197.93 706.59 198.08 706.59 198.25V198.22Z" fill="#F7F8F8"/>
<path d="M725.52 198.35C725.59 198.54 725.62 198.69 725.63 198.8C725.63 198.91 725.6 199 725.53 199.06C725.46 199.12 725.35 199.16 725.19 199.17C725.03 199.19 724.82 199.2 724.56 199.2C724.3 199.2 724.09 199.2 723.93 199.18C723.77 199.17 723.66 199.15 723.57 199.12C723.49 199.09 723.43 199.05 723.39 199C723.35 198.95 723.32 198.89 723.28 198.81L721.87 194.81H715.04L713.69 198.76C713.66 198.84 713.63 198.9 713.59 198.96C713.55 199.02 713.49 199.06 713.41 199.1C713.33 199.14 713.22 199.17 713.07 199.18C712.92 199.2 712.73 199.21 712.49 199.21C712.25 199.21 712.04 199.2 711.89 199.18C711.73 199.16 711.62 199.12 711.56 199.06C711.5 199 711.47 198.91 711.47 198.8C711.47 198.69 711.51 198.54 711.58 198.35L717.09 183.09C717.12 183 717.17 182.92 717.22 182.86C717.28 182.8 717.36 182.75 717.46 182.72C717.57 182.69 717.7 182.66 717.87 182.65C718.03 182.64 718.24 182.63 718.5 182.63C718.77 182.63 719 182.63 719.17 182.65C719.34 182.67 719.49 182.69 719.6 182.72C719.71 182.75 719.79 182.8 719.85 182.87C719.91 182.94 719.96 183.01 719.99 183.1L725.5 198.36L725.52 198.35ZM718.45 184.88H718.44L715.61 193.07H721.32L718.45 184.88Z" fill="#F7F8F8"/>
<path d="M742.57 198.79C742.57 198.86 742.56 198.92 742.53 198.97C742.5 199.02 742.45 199.06 742.36 199.1C742.27 199.14 742.16 199.16 742 199.18C741.84 199.2 741.64 199.21 741.39 199.21C741.17 199.21 740.99 199.21 740.85 199.18C740.71 199.16 740.6 199.14 740.51 199.1C740.42 199.06 740.36 199.01 740.31 198.94C740.26 198.87 740.22 198.79 740.19 198.69L738.68 194.82C738.5 194.38 738.32 193.98 738.13 193.61C737.94 193.24 737.71 192.92 737.45 192.66C737.19 192.4 736.88 192.19 736.52 192.04C736.16 191.89 735.74 191.82 735.24 191.82H733.78V198.82C733.78 198.89 733.76 198.95 733.72 199C733.68 199.05 733.62 199.09 733.54 199.12C733.46 199.15 733.35 199.18 733.21 199.2C733.07 199.22 732.89 199.23 732.68 199.23C732.47 199.23 732.29 199.22 732.15 199.2C732.01 199.18 731.9 199.15 731.81 199.12C731.72 199.09 731.67 199.05 731.63 199C731.59 198.95 731.58 198.89 731.58 198.82V183.61C731.58 183.28 731.67 183.05 731.84 182.92C732.01 182.79 732.2 182.72 732.39 182.72H735.88C736.3 182.72 736.64 182.73 736.91 182.75C737.19 182.77 737.43 182.79 737.65 182.82C738.28 182.93 738.85 183.1 739.33 183.34C739.82 183.58 740.22 183.88 740.55 184.24C740.88 184.6 741.13 185.02 741.29 185.49C741.46 185.96 741.54 186.48 741.54 187.05C741.54 187.62 741.47 188.09 741.32 188.53C741.17 188.97 740.96 189.35 740.68 189.69C740.4 190.03 740.07 190.31 739.68 190.56C739.29 190.81 738.85 191.01 738.37 191.18C738.64 191.3 738.89 191.45 739.11 191.63C739.33 191.81 739.54 192.03 739.73 192.28C739.92 192.53 740.1 192.83 740.27 193.16C740.44 193.49 740.61 193.86 740.78 194.28L742.25 197.9C742.37 198.2 742.44 198.42 742.48 198.54C742.52 198.66 742.53 198.76 742.53 198.83L742.57 198.79ZM739.28 187.25C739.28 186.61 739.14 186.06 738.85 185.62C738.56 185.18 738.08 184.86 737.4 184.66C737.19 184.6 736.95 184.56 736.68 184.53C736.41 184.5 736.06 184.49 735.63 184.49H733.79V190.03H735.92C736.5 190.03 736.99 189.96 737.41 189.82C737.83 189.68 738.18 189.49 738.46 189.24C738.74 188.99 738.94 188.7 739.08 188.36C739.21 188.02 739.28 187.65 739.28 187.26V187.25Z" fill="#F7F8F8"/>
<path d="M761.39 198.35C761.46 198.54 761.49 198.69 761.5 198.8C761.5 198.91 761.47 199 761.4 199.06C761.33 199.12 761.22 199.16 761.06 199.17C760.9 199.19 760.69 199.2 760.43 199.2C760.17 199.2 759.96 199.2 759.8 199.18C759.64 199.17 759.53 199.15 759.44 199.12C759.36 199.09 759.3 199.05 759.26 199C759.22 198.95 759.19 198.89 759.15 198.81L757.74 194.81H750.91L749.56 198.76C749.53 198.84 749.5 198.9 749.46 198.96C749.42 199.02 749.36 199.06 749.28 199.1C749.2 199.14 749.09 199.17 748.94 199.18C748.79 199.2 748.6 199.21 748.36 199.21C748.12 199.21 747.91 199.2 747.76 199.18C747.6 199.16 747.49 199.12 747.43 199.06C747.37 199 747.34 198.91 747.34 198.8C747.34 198.69 747.38 198.54 747.45 198.35L752.96 183.09C752.99 183 753.04 182.92 753.09 182.86C753.15 182.8 753.23 182.75 753.33 182.72C753.44 182.69 753.57 182.66 753.74 182.65C753.9 182.64 754.11 182.63 754.37 182.63C754.64 182.63 754.87 182.63 755.04 182.65C755.21 182.67 755.36 182.69 755.47 182.72C755.58 182.75 755.66 182.8 755.72 182.87C755.78 182.94 755.83 183.01 755.86 183.1L761.37 198.36L761.39 198.35ZM754.32 184.88H754.31L751.48 193.07H757.19L754.32 184.88Z" fill="#F7F8F8"/>
<path d="M779.9 198.22C779.9 198.39 779.87 198.53 779.82 198.65C779.76 198.77 779.69 198.87 779.6 198.94C779.51 199.01 779.41 199.07 779.29 199.11C779.17 199.15 779.06 199.16 778.95 199.16H778.23C778 199.16 777.8 199.14 777.63 199.09C777.46 199.04 777.3 198.96 777.14 198.84C776.98 198.72 776.83 198.55 776.68 198.34C776.53 198.13 776.36 197.86 776.19 197.53L771.18 188.19C770.92 187.71 770.65 187.2 770.39 186.67C770.13 186.14 769.88 185.63 769.65 185.13H769.62C769.64 185.74 769.65 186.36 769.66 187C769.67 187.64 769.67 188.27 769.67 188.89V198.81C769.67 198.87 769.65 198.93 769.62 198.98C769.58 199.04 769.52 199.08 769.44 199.11C769.36 199.14 769.24 199.17 769.11 199.19C768.98 199.21 768.79 199.22 768.58 199.22C768.37 199.22 768.19 199.21 768.05 199.19C767.91 199.17 767.8 199.14 767.72 199.11C767.64 199.08 767.58 199.04 767.55 198.98C767.51 198.92 767.5 198.87 767.5 198.81V183.65C767.5 183.31 767.6 183.07 767.79 182.93C767.98 182.79 768.19 182.71 768.42 182.71H769.5C769.75 182.71 769.96 182.73 770.13 182.77C770.3 182.81 770.45 182.88 770.59 182.98C770.72 183.08 770.86 183.21 770.98 183.39C771.11 183.56 771.24 183.78 771.38 184.04L775.23 191.25C775.47 191.69 775.7 192.12 775.92 192.54C776.14 192.96 776.35 193.37 776.56 193.78C776.76 194.19 776.97 194.59 777.17 194.98C777.37 195.37 777.57 195.77 777.76 196.17H777.77C777.75 195.5 777.74 194.81 777.74 194.08C777.74 193.36 777.74 192.66 777.74 191.99V183.08C777.74 183.02 777.76 182.97 777.79 182.91C777.83 182.86 777.89 182.81 777.97 182.78C778.05 182.75 778.17 182.71 778.3 182.7C778.43 182.69 778.62 182.67 778.84 182.67C779.04 182.67 779.21 182.67 779.35 182.7C779.49 182.72 779.6 182.74 779.68 182.78C779.76 182.82 779.82 182.86 779.85 182.91C779.89 182.96 779.9 183.02 779.9 183.08V198.24V198.22Z" fill="#F7F8F8"/>
<path d="M798.59 196.8C798.59 196.94 798.59 197.05 798.58 197.16C798.57 197.27 798.56 197.35 798.54 197.43C798.52 197.51 798.49 197.57 798.46 197.63C798.43 197.69 798.37 197.76 798.28 197.85C798.19 197.94 798.02 198.06 797.75 198.24C797.48 198.42 797.14 198.58 796.74 198.75C796.34 198.92 795.88 199.05 795.36 199.17C794.84 199.28 794.27 199.34 793.65 199.34C792.58 199.34 791.62 199.16 790.76 198.81C789.9 198.45 789.17 197.93 788.56 197.24C787.95 196.55 787.49 195.69 787.16 194.67C786.83 193.65 786.67 192.48 786.67 191.15C786.67 189.82 786.85 188.57 787.2 187.51C787.55 186.44 788.04 185.54 788.68 184.8C789.32 184.06 790.07 183.49 790.96 183.11C791.84 182.72 792.82 182.53 793.9 182.53C794.37 182.53 794.84 182.57 795.28 182.66C795.72 182.75 796.14 182.86 796.52 183C796.9 183.14 797.24 183.29 797.54 183.47C797.84 183.65 798.04 183.79 798.16 183.91C798.27 184.02 798.35 184.11 798.38 184.17C798.41 184.23 798.44 184.3 798.46 184.38C798.48 184.46 798.5 184.56 798.51 184.67C798.52 184.78 798.53 184.91 798.53 185.06C798.53 185.23 798.53 185.37 798.5 185.49C798.48 185.61 798.46 185.71 798.42 185.79C798.38 185.87 798.35 185.93 798.3 185.97C798.25 186.01 798.2 186.03 798.13 186.03C798.01 186.03 797.84 185.95 797.63 185.78C797.42 185.61 797.14 185.43 796.81 185.23C796.48 185.03 796.07 184.85 795.58 184.68C795.1 184.51 794.52 184.43 793.85 184.43C793.12 184.43 792.45 184.58 791.85 184.87C791.25 185.16 790.74 185.59 790.31 186.16C789.89 186.73 789.56 187.42 789.32 188.24C789.09 189.06 788.97 189.99 788.97 191.04C788.97 192.09 789.08 193 789.31 193.8C789.54 194.6 789.86 195.27 790.28 195.81C790.7 196.35 791.22 196.75 791.83 197.03C792.44 197.3 793.14 197.44 793.91 197.44C794.57 197.44 795.14 197.36 795.63 197.2C796.12 197.04 796.54 196.86 796.88 196.66C797.22 196.46 797.51 196.28 797.73 196.12C797.95 195.96 798.13 195.88 798.25 195.88C798.31 195.88 798.36 195.89 798.4 195.92C798.44 195.95 798.48 195.99 798.5 196.07C798.53 196.14 798.54 196.24 798.56 196.37C798.58 196.5 798.58 196.66 798.58 196.85L798.59 196.8Z" fill="#F7F8F8"/>
<path d="M813.98 198.22C813.98 198.37 813.98 198.51 813.95 198.62C813.92 198.73 813.9 198.83 813.86 198.91C813.82 198.99 813.77 199.04 813.71 199.08C813.65 199.11 813.59 199.13 813.53 199.13H805.65C805.46 199.13 805.27 199.06 805.1 198.93C804.93 198.8 804.84 198.57 804.84 198.24V183.59C804.84 183.26 804.93 183.03 805.1 182.9C805.27 182.77 805.46 182.7 805.65 182.7H813.44C813.51 182.7 813.57 182.72 813.62 182.75C813.68 182.78 813.72 182.84 813.75 182.92C813.78 183 813.81 183.09 813.83 183.21C813.85 183.32 813.86 183.47 813.86 183.64C813.86 183.79 813.85 183.93 813.83 184.04C813.81 184.15 813.78 184.25 813.75 184.32C813.72 184.39 813.67 184.44 813.62 184.48C813.57 184.51 813.5 184.53 813.44 184.53H807.02V189.68H812.53C812.6 189.68 812.66 189.7 812.71 189.74C812.77 189.78 812.81 189.83 812.85 189.9C812.89 189.97 812.92 190.06 812.93 190.18C812.94 190.3 812.96 190.44 812.96 190.6C812.96 190.75 812.96 190.88 812.93 190.99C812.9 191.1 812.89 191.19 812.85 191.26C812.81 191.33 812.77 191.38 812.71 191.41C812.66 191.44 812.59 191.45 812.53 191.45H807.02V197.33H813.53C813.6 197.33 813.66 197.35 813.71 197.38C813.76 197.41 813.81 197.47 813.86 197.54C813.91 197.61 813.93 197.71 813.95 197.82C813.97 197.93 813.98 198.08 813.98 198.25V198.22Z" fill="#F7F8F8"/>
<path d="M508.94 148.78V139.92L508.66 137.25C508.75 137.25 508.85 137.2 508.94 137.11H509.08C510.49 137.39 511.84 138.05 513.16 139.08H525.11C525.86 138.14 526.47 137.53 526.94 137.25C528.63 137.63 530.03 138.33 531.16 139.36V139.78C531.16 139.87 530.97 140.11 530.6 140.48C530.32 140.67 530.13 140.81 530.04 140.9V150.46L530.32 165.08C530.04 165.64 529.15 166.06 527.65 166.35C526.43 166.44 525.82 166.16 525.82 165.51V162.7H513.16V165.37C512.78 166.12 511.89 166.59 510.49 166.78C508.99 166.78 508.38 166.4 508.66 165.66C508.66 163.41 508.71 160.65 508.8 157.36C508.89 154.08 508.94 151.22 508.94 148.78ZM513.16 139.78V149.62H525.82V139.78H513.16ZM513.16 150.33V162H525.82V150.33H513.16Z" fill="#6A3906"/>
<path d="M560.51 140.2H569.93C570.68 138.89 571.52 137.76 572.46 136.82H573.02C574.71 137.94 576.11 139.02 577.24 140.05C577.52 140.52 577.43 140.8 576.96 140.89H546.02C545.27 140.89 544.47 140.94 543.63 141.03L542.93 140.05C543.4 140.05 543.82 140.1 544.2 140.19H560.09C558.78 140 558.12 139.35 558.12 138.22C558.12 138.13 558.17 138.03 558.26 137.94C558.73 136.72 558.17 135.5 556.57 134.28C556.48 134.09 556.52 133.95 556.71 133.86C560.93 133.95 563.08 135.08 563.18 137.24C563.18 138.93 562.29 139.91 560.51 140.19V140.2ZM554.18 149.9V167.34C554.09 168.09 553.29 168.65 551.79 169.03C550.57 169.22 549.96 168.89 549.96 168.05L550.38 152.3C548.41 154.74 546.21 156.89 543.77 158.77C543.49 158.77 543.35 158.63 543.35 158.35C546.91 154.13 549.86 148.51 552.21 141.47C552.21 141.38 552.4 141.33 552.77 141.33C554.55 141.89 556.1 142.6 557.41 143.44C557.5 143.53 557.5 143.77 557.41 144.14C557.32 144.14 557.13 144.19 556.85 144.28C556.19 144.47 555.82 144.61 555.73 144.7C555.07 145.82 554.37 146.95 553.62 148.08C554.18 148.17 554.74 148.36 555.31 148.64V149.34C555.03 149.62 554.65 149.81 554.19 149.9H554.18ZM564.3 146.95H569.5C569.59 146.76 569.83 146.44 570.2 145.97C570.48 145.69 570.62 145.5 570.62 145.41C570.71 145.32 570.9 145.32 571.18 145.41H571.46C572.87 145.97 574.04 146.68 574.98 147.52C575.07 147.52 575.07 147.76 574.98 148.22C574.89 148.22 574.65 148.31 574.28 148.5C574 148.59 573.76 148.69 573.58 148.78C572.17 152.91 570.06 156.51 567.25 159.61C570.34 161.77 573.67 163.08 577.23 163.55C577.6 163.93 577.65 164.21 577.37 164.39C575.4 164.95 574.18 165.98 573.71 167.48C573.52 167.76 573.24 167.85 572.87 167.76C569.78 166.26 567.15 164.29 564.99 161.85C562.36 164.01 559.08 165.6 555.15 166.63C554.96 166.63 554.82 166.54 554.73 166.35C554.64 166.26 554.68 166.16 554.87 166.07C558.06 164.66 560.92 162.55 563.45 159.74C561.76 157.3 560.73 154.77 560.36 152.15C558.48 154.21 556.8 155.76 555.3 156.79C555.02 156.7 554.92 156.56 555.02 156.37C558.4 152.15 560.69 147.23 561.91 141.6C561.91 141.51 562.1 141.41 562.47 141.32C564.16 141.7 565.75 142.16 567.25 142.73V143.43C566.78 143.62 566.31 143.85 565.84 144.13C565.37 144.97 564.86 145.91 564.29 146.94L564.3 146.95ZM569.78 147.65H563.73C562.89 148.87 561.95 150.14 560.92 151.45C561.76 153.79 563.12 155.9 565 157.78C567.44 154.4 569.03 151.03 569.78 147.66V147.65ZM562.47 149.9C564.63 149.9 566.03 150.37 566.69 151.31C567.34 152.25 567.3 153.14 566.55 153.98C565.61 154.73 564.86 154.68 564.3 153.84C564.21 153.75 564.16 153.51 564.16 153.14C563.97 151.92 563.41 151.03 562.47 150.47C562.38 150.19 562.38 150 562.47 149.91V149.9Z" fill="#6A3906"/>
<path d="M601.53 148.78H611.09C611.18 148.59 611.42 148.31 611.79 147.94C612.54 146.91 613.1 146.25 613.48 145.97C613.67 145.78 613.81 145.78 613.9 145.97C615.96 147 617.32 147.99 617.98 148.92C618.07 149.2 617.98 149.44 617.7 149.62H584.37L583.25 148.64C583.81 148.73 584.33 148.78 584.8 148.78H599.14C598.95 148.78 598.86 148.69 598.86 148.5C598.77 148.31 598.67 147.99 598.58 147.52C598.39 146.49 597.88 145.69 597.03 145.13C596.84 144.85 596.89 144.66 597.17 144.57C599.89 144.66 601.43 145.23 601.81 146.26C602.46 147.2 602.37 148.04 601.53 148.79V148.78ZM593.23 158.9C593.7 159.09 594.59 159.65 595.9 160.59C596.27 160.78 596.51 160.92 596.6 161.01C596.79 161.29 596.74 161.53 596.46 161.71C596.37 161.8 596.13 161.85 595.76 161.85C595.38 161.94 595.15 161.99 595.06 161.99C591.97 163.77 588.22 165.27 583.81 166.49C583.72 166.49 583.62 166.44 583.53 166.35C583.53 166.16 583.58 166.07 583.67 166.07C587.61 164.01 590.61 161.62 592.67 158.9C592.86 158.81 593.04 158.81 593.23 158.9ZM589.15 145.82L589.57 137.52C589.57 136.21 589.52 135.27 589.43 134.71C589.43 134.62 589.57 134.57 589.85 134.57C591.16 134.85 592.19 135.37 592.94 136.12H605.74C606.58 135.28 607.15 134.76 607.43 134.57H607.57C607.66 134.48 607.76 134.48 607.85 134.57C609.63 135.13 610.85 135.84 611.51 136.68C611.7 136.68 611.7 136.87 611.51 137.24C611.42 137.43 611.27 137.57 611.09 137.66C610.9 137.66 610.76 137.71 610.67 137.8L610.95 145.11C610.86 145.77 610.06 146.23 608.56 146.52C607.44 146.52 606.87 146.15 606.87 145.4V144.28H592.95V145.12C592.86 145.78 592.25 146.24 591.12 146.53C589.9 146.62 589.24 146.39 589.15 145.83V145.82ZM598.57 164.1V157.49H593.65C591.96 158.8 590.74 158.9 589.99 157.77L590.27 152.99V150.74C591.39 150.93 592.33 151.3 593.08 151.86H606.02C606.11 151.77 606.25 151.63 606.44 151.44C606.91 150.79 607.28 150.41 607.56 150.32H607.98C609.29 150.6 610.37 151.21 611.21 152.15C611.4 152.24 611.4 152.43 611.21 152.71C611.12 152.9 610.93 153.04 610.65 153.13C610.56 153.22 610.46 153.27 610.37 153.27L610.51 157.49C610.51 157.96 609.9 158.29 608.68 158.47C607.56 158.47 606.94 158.24 606.85 157.77V157.49H603.47C603.75 157.77 603.42 158.1 602.49 158.47L602.77 165.78C602.77 166.9 601.36 167.79 598.55 168.45C598.27 168.54 598.08 168.5 597.99 168.31C597.43 166.62 596.16 165.45 594.19 164.79C593.91 164.51 593.95 164.37 594.33 164.37C597.23 164.65 598.64 164.56 598.55 164.09L598.57 164.1ZM592.95 136.82V139.77H606.87V136.82H592.95ZM592.95 140.62V143.57H606.87V140.62H592.95ZM593.65 152.57V156.65H606.87V152.57H593.65ZM604.48 159.46C609.63 159.37 612.96 160.4 614.46 162.55C615.11 163.77 614.97 164.75 614.04 165.5C613.01 166.15 611.93 166.06 610.81 165.22C610.62 165.13 610.39 164.84 610.11 164.38C608.51 162.04 606.59 160.58 604.34 160.02C604.06 159.74 604.1 159.55 604.48 159.46Z" fill="#6A3906"/>
<path d="M633.84 143.15H637.36C638.11 142.4 638.63 141.93 638.91 141.74C639 141.65 639.14 141.65 639.33 141.74H639.47C639.56 141.83 639.7 141.93 639.89 142.02C641.39 142.86 642.47 143.52 643.12 143.99C643.31 144.18 643.31 144.37 643.12 144.55C642.56 144.83 642.18 145.11 642 145.39C639.75 156.92 634.03 163.63 624.84 165.5C624.75 165.5 624.65 165.45 624.56 165.36C624.56 165.17 624.61 165.08 624.7 165.08C632.29 161.7 636.7 154.67 637.92 143.99H633.42C632.48 146.05 631.4 147.88 630.19 149.47C633.09 150.13 634.69 151.49 634.97 153.55C635.06 154.77 634.59 155.66 633.56 156.22C632.62 156.69 631.87 156.41 631.31 155.38C631.12 155.01 631.07 154.4 631.17 153.55C631.36 152.05 630.98 150.79 630.05 149.75C628.55 152 626.96 153.88 625.27 155.37C625.08 155.46 624.94 155.46 624.85 155.37C624.76 155.28 624.76 155.18 624.85 155.09C628.51 148.81 630.57 142.43 631.04 135.97C631.04 135.78 631.27 135.69 631.74 135.69C632.02 135.78 632.53 135.97 633.29 136.25C634.88 136.91 636.1 137.47 636.95 137.94C637.14 138.03 637.14 138.18 636.95 138.36C636.76 138.45 636.53 138.55 636.25 138.64C635.78 138.83 635.5 139.06 635.41 139.34C634.94 140.56 634.43 141.83 633.86 143.14L633.84 143.15ZM644.95 143.57V134.57C647.29 134.66 648.89 134.95 649.73 135.41C650.01 135.6 650.01 135.83 649.73 136.11C649.45 136.39 649.12 136.63 648.75 136.81V143.56C648.75 147.22 648.84 155.09 649.03 167.18C649.03 167.74 648.33 168.16 646.92 168.45C645.42 168.64 644.62 168.5 644.53 168.03C644.81 155.37 644.95 147.22 644.95 143.56V143.57ZM649.45 146.24C654.6 148.4 657.56 150.98 658.31 153.97C658.59 155.57 658.17 156.74 657.04 157.49C655.82 158.05 654.79 157.73 653.95 156.51C653.76 156.04 653.57 155.24 653.39 154.12C653.11 151.03 651.7 148.5 649.17 146.53C649.17 146.44 649.26 146.34 649.45 146.25V146.24Z" fill="#6A3906"/>
<path d="M677.96 138.65H679.37C680.02 137.71 680.49 137.06 680.78 136.68H681.34C682.09 137.43 682.56 138.32 682.75 139.35H677.55C676.8 140.47 676.14 141.51 675.58 142.44C676.33 142.82 676.7 143.05 676.7 143.14H678.53C678.9 142.49 679.23 142.16 679.51 142.16C681.01 142.54 682.09 143.1 682.74 143.85C682.74 143.94 682.5 144.18 682.04 144.55L681.62 144.97V148.77C680.31 149.89 679.42 149.89 678.95 148.77V147.65H676.7V148.77C676.61 149.24 676.14 149.47 675.29 149.47C676.32 149.75 676.93 150.36 677.12 151.3C677.03 152.33 676.51 152.99 675.57 153.27H678.24C678.61 152.52 679.13 151.86 679.79 151.3C679.98 151.11 680.12 151.11 680.21 151.3C680.77 151.68 681.57 152.38 682.6 153.41C682.79 153.69 682.69 153.88 682.32 153.97H677.96C677.87 154.35 677.58 154.72 677.12 155.09V156.64H678.24C678.52 156.08 678.89 155.56 679.36 155.09H679.64C680.58 155.65 681.33 156.26 681.89 156.92C681.98 157.11 681.89 157.25 681.61 157.34H677.11V160.43H677.81C678.28 159.59 678.7 159.07 679.08 158.88C679.08 158.79 679.13 158.79 679.22 158.88H679.36C680.58 159.72 681.28 160.33 681.47 160.71C681.56 160.9 681.47 161.04 681.19 161.13H677.11V164.36H678.23C678.88 163.52 679.4 162.91 679.78 162.53H680.2C680.39 162.62 680.76 162.95 681.32 163.51C681.88 164.07 682.26 164.35 682.44 164.35C684.41 161.73 685.39 158.49 685.39 154.65C684.27 154.84 683.65 154.74 683.56 154.37V153.25C683.75 152.03 683.84 150.63 683.84 149.03V137.78L683.56 135.67C683.56 135.58 683.61 135.53 683.7 135.53C685.29 135.81 686.65 136.28 687.78 136.94V137.08H692.42C692.61 136.89 692.79 136.66 692.98 136.38C693.45 135.82 693.73 135.54 693.82 135.54C694.76 135.63 695.98 136.29 697.48 137.51C697.48 137.7 697.34 137.93 697.06 138.21C696.78 138.4 696.64 138.54 696.64 138.63V153.96C696.17 154.71 695.23 154.99 693.83 154.8C694.02 154.89 694.02 155.08 693.83 155.36C693.55 155.64 693.36 155.78 693.27 155.78V164.08C693.27 164.55 693.55 164.78 694.11 164.78H694.81C695.93 164.69 696.82 163 697.48 159.72C697.57 159.25 697.67 159.25 697.76 159.72C697.38 162.16 697.67 163.71 698.6 164.36C698.97 164.64 699.16 165.01 699.16 165.48C699.07 166.89 697.85 167.64 695.5 167.73H691.7C690.39 167.82 689.78 167.17 689.87 165.76V154.37C691.84 154.37 693.1 154.46 693.67 154.65C693.39 154.56 693.25 154.32 693.25 153.95V153.25H686.78V153.53C686.78 153.81 686.54 154.09 686.08 154.37C686.73 154.46 687.81 154.84 689.31 155.49C689.5 155.58 689.5 155.73 689.31 155.91C689.12 156.1 688.79 156.33 688.33 156.61C687.77 162.33 684.58 166.12 678.77 168C678.49 168 678.49 167.91 678.77 167.72C679.99 167.06 681.02 166.17 681.86 165.05H670.61V166.6C669.77 167.63 668.73 167.91 667.52 167.44C667.43 167.25 667.38 166.69 667.38 165.75C667.47 164.91 667.52 164.2 667.52 163.64V155.91C666.49 156.94 665.41 157.88 664.29 158.72C664.1 158.72 664.05 158.63 664.15 158.44C666.02 155.82 667.57 152.58 668.79 148.74H669.07C669.54 148.83 669.96 148.98 670.34 149.16V148.88L670.2 148.74V147.9H668.37V148.32C667.99 149.35 667.25 149.63 666.12 149.16C666.03 149.07 665.98 148.69 665.98 148.04C666.07 147.39 666.12 146.82 666.12 146.35V141.99C667.15 142.18 667.9 142.55 668.37 143.11H669.49C670.05 142.36 670.47 141.99 670.76 141.99C672.26 142.46 673.24 142.97 673.71 143.54C673.71 143.63 673.52 143.78 673.15 143.96L672.87 144.24V148.74C672.78 149.21 672.26 149.49 671.32 149.58C671.6 149.67 671.93 149.82 672.3 150C672.58 150.09 672.77 150.14 672.86 150.14C672.86 150.33 672.81 150.52 672.72 150.7C672.63 150.7 672.53 150.75 672.44 150.84C672.06 150.84 671.78 150.98 671.6 151.26C671.13 151.82 670.62 152.48 670.05 153.23H674.69C674.6 153.23 674.5 153.18 674.41 153.09C674.22 153.09 674.08 153 673.99 152.81C673.71 152.53 673.61 152.06 673.71 151.4C673.9 150.65 673.8 149.99 673.43 149.43C673.24 149.15 673.29 149.01 673.57 149.01C673.94 149.1 674.27 149.15 674.55 149.15C674.46 148.96 674.41 148.82 674.41 148.73V141.98C674.5 141.98 674.64 142.03 674.83 142.12C675.02 142.21 675.16 142.26 675.25 142.26C675.62 139.73 675.81 137.2 675.81 134.67C675.81 134.48 675.9 134.39 676.09 134.39H676.37C677.78 134.58 678.71 134.81 679.18 135.09C679.27 135.09 679.27 135.18 679.18 135.37V135.51C679.09 135.89 678.85 136.45 678.48 137.2C678.2 137.86 678.01 138.32 677.92 138.61L677.96 138.65ZM668.54 139.63H666.71L665.02 140.05L664.18 138.93H668.4C668.31 138.65 668.21 138.18 668.12 137.52C667.84 136.21 667.65 135.27 667.56 134.71C667.56 134.52 667.65 134.43 667.84 134.43C669.15 134.43 670.28 134.67 671.22 135.13C671.41 135.13 671.45 135.22 671.36 135.41C671.36 135.5 671.31 135.65 671.22 135.83C671.03 136.02 670.98 136.16 671.08 136.25L671.78 141.17C670.66 142.01 669.67 142.15 668.83 141.59C668.74 141.4 668.69 141.08 668.69 140.61C668.6 140.14 668.55 139.81 668.55 139.63H668.54ZM668.4 147.22H670.23V143.84H668.4V147.22ZM674.02 156.64V153.97H670.64V156.64H674.02ZM674.02 160.44V157.35H670.64V160.44H674.02ZM674.02 164.38V161.15H670.64V164.38H674.02ZM676.69 146.8H678.94V143.85H676.69V146.8ZM686.81 142.3H693.28V137.8H687.51C687.32 137.89 687.09 138.04 686.81 138.22V142.3ZM686.81 147.22H693.28V143H686.81V147.22ZM686.81 152.42H693.28V147.92H686.81V152.42Z" fill="#6A3906"/>
</svg>
