<svg width="65" height="65" viewBox="0 0 65 65" fill="none" xmlns="http://www.w3.org/2000/svg">
<path opacity="0.42" d="M64.75 0H0V64.75H64.75V0Z" fill="#EB6519"/>
<path d="M32.74 9.08008C33.53 9.44008 33.78 10.0701 33.75 10.9101C33.71 12.5401 33.74 14.1801 33.74 15.8201C33.74 16.7401 33.19 17.3601 32.38 17.3601C31.57 17.3601 31.02 16.7401 31.02 15.8201C31.02 14.1801 31.05 12.5501 31.01 10.9101C30.99 10.0601 31.24 9.44008 32.02 9.08008H32.75H32.74Z" fill="white"/>
<path d="M55.67 32.7402C55.31 33.5302 54.69 33.7802 53.84 33.7502C52.21 33.7102 50.57 33.7402 48.93 33.7402C48.01 33.7402 47.39 33.1902 47.39 32.3802C47.39 31.5702 48.01 31.0202 48.93 31.0202C50.57 31.0202 52.2 31.0502 53.84 31.0102C54.69 30.9902 55.31 31.2302 55.67 32.0202V32.7502V32.7402Z" fill="white"/>
<path d="M32.37 43.8202C26.05 43.8202 20.91 38.6802 20.92 32.3602C20.92 26.0402 26.07 20.9102 32.39 20.9202C38.7 20.9302 43.82 26.0502 43.82 32.3602C43.82 38.6802 38.69 43.8202 32.37 43.8202Z" fill="white"/>
<path d="M22.16 20.58C22.13 21.85 21.02 22.49 20.12 21.98C19.96 21.89 19.83 21.77 19.7 21.64C17.59 19.53 15.48 17.42 13.36 15.31C13.02 14.97 12.8 14.59 12.84 14.1C12.89 13.58 13.15 13.19 13.64 12.97C14.13 12.76 14.59 12.82 15.01 13.12C15.12 13.2 15.22 13.3 15.31 13.39C17.4 15.48 19.5 17.56 21.57 19.67C21.86 19.96 22.03 20.38 22.14 20.57L22.16 20.58Z" fill="white"/>
<path d="M44.12 22.1801C43.4 22.1201 42.96 21.9001 42.72 21.3701C42.48 20.8501 42.56 20.3601 42.91 19.9201C43.05 19.7401 43.22 19.5901 43.38 19.4301C45.42 17.3901 47.45 15.3601 49.49 13.3201C49.91 12.9001 50.4 12.7201 50.98 12.9201C51.5 13.1001 51.8 13.4801 51.88 14.0201C51.95 14.4701 51.8 14.8601 51.49 15.1801C49.31 17.3701 47.13 19.5601 44.92 21.7301C44.68 21.9701 44.3 22.0701 44.11 22.1801H44.12Z" fill="white"/>
<path d="M51.91 50.32C51.89 51.57 50.81 52.21 49.92 51.74C49.77 51.66 49.64 51.56 49.52 51.44C47.36 49.29 45.21 47.13 43.05 44.98C42.72 44.65 42.54 44.26 42.6 43.79C42.74 42.71 43.94 42.22 44.8 42.88C44.91 42.96 45 43.06 45.1 43.16C47.18 45.24 49.27 47.31 51.33 49.41C51.62 49.7 51.79 50.12 51.91 50.31V50.32Z" fill="white"/>
<path d="M22.16 44.1502C22.07 44.3202 21.95 44.7002 21.7 44.9502C19.55 47.1302 17.38 49.2902 15.21 51.4502C14.61 52.0502 13.76 52.0402 13.22 51.4802C12.69 50.9302 12.7 50.1102 13.28 49.5202C15.44 47.3502 17.61 45.1902 19.77 43.0202C20.21 42.5802 20.73 42.4502 21.31 42.6902C21.81 42.8902 22.15 43.4002 22.15 44.1402L22.16 44.1502Z" fill="white"/>
<path d="M13.22 33.74C12.33 33.74 11.43 33.74 10.54 33.74C9.69002 33.74 9.09002 33.17 9.08002 32.39C9.08002 31.6 9.69002 31.01 10.56 31.01C12.33 31.01 14.1 31.01 15.87 31.01C16.75 31.01 17.36 31.58 17.36 32.38C17.36 33.17 16.74 33.73 15.86 33.74C14.98 33.74 14.1 33.74 13.23 33.74H13.22Z" fill="white"/>
<path d="M31.01 51.5301C31.01 50.6401 31.01 49.7401 31.01 48.8501C31.01 48.0001 31.58 47.4001 32.36 47.3901C33.14 47.3901 33.73 47.9901 33.74 48.8301C33.74 50.6301 33.74 52.4301 33.74 54.2301C33.74 55.0701 33.15 55.6701 32.37 55.6701C31.59 55.6701 31.02 55.0601 31.02 54.2101C31.02 53.3201 31.02 52.4201 31.02 51.5301H31.01Z" fill="white"/>
<path d="M14.82 23.71C14.88 23.72 15.05 23.73 15.2 23.8C16.07 24.15 16.94 24.49 17.79 24.87C18.5 25.19 18.78 25.98 18.47 26.66C18.17 27.32 17.43 27.64 16.72 27.36C15.86 27.02 15.01 26.67 14.17 26.3C13.56 26.03 13.24 25.39 13.37 24.78C13.5 24.15 14.05 23.71 14.81 23.71H14.82Z" fill="white"/>
<path d="M14.75 41.04C14.07 41.04 13.53 40.61 13.39 40C13.25 39.41 13.53 38.74 14.11 38.48C15 38.08 15.91 37.7 16.83 37.36C17.45 37.13 18.14 37.43 18.45 38.02C18.76 38.62 18.63 39.44 18.02 39.74C17.04 40.23 16 40.61 14.98 41.03C14.9 41.06 14.8 41.05 14.75 41.05V41.04Z" fill="white"/>
<path d="M49.9 41.03C49.82 41.01 49.62 40.98 49.44 40.91C48.64 40.59 47.85 40.26 47.05 39.92C46.28 39.59 45.94 38.82 46.25 38.1C46.54 37.41 47.32 37.09 48.07 37.39C48.91 37.73 49.75 38.07 50.58 38.44C51.19 38.71 51.5 39.36 51.36 39.97C51.22 40.6 50.67 41.03 49.9 41.03Z" fill="white"/>
<path d="M23.71 14.7702C23.71 14.1002 24.11 13.5602 24.73 13.4002C25.32 13.2402 26 13.5102 26.26 14.0902C26.67 15.0002 27.05 15.9202 27.4 16.8502C27.64 17.4902 27.29 18.1902 26.68 18.4802C26.08 18.7602 25.3 18.6002 25.01 18.0102C24.53 17.0402 24.16 16.0202 23.74 15.0102C23.71 14.9302 23.72 14.8302 23.72 14.7702H23.71Z" fill="white"/>
<path d="M41.03 14.8502C41.01 14.9302 40.98 15.1302 40.91 15.3102C40.59 16.1102 40.26 16.9002 39.92 17.6902C39.59 18.4702 38.82 18.8002 38.1 18.5002C37.4 18.2102 37.09 17.4302 37.39 16.6802C37.73 15.8402 38.07 15.0002 38.44 14.1702C38.71 13.5602 39.36 13.2502 39.97 13.3902C40.6 13.5302 41.03 14.0802 41.03 14.8502Z" fill="white"/>
<path d="M51.39 25.15C51.36 25.62 51.11 26.06 50.6 26.29C49.73 26.67 48.85 27.04 47.96 27.38C47.28 27.64 46.54 27.3 46.26 26.65C45.97 25.98 46.23 25.2 46.92 24.89C47.8 24.49 48.69 24.11 49.6 23.78C50.49 23.46 51.4 24.14 51.39 25.15Z" fill="white"/>
<path d="M27.46 47.6901C27.07 48.6901 26.74 49.9301 26.01 50.9701C25.65 51.4801 24.89 51.5201 24.36 51.1901C23.83 50.8701 23.55 50.2001 23.77 49.6101C24.12 48.6801 24.5 47.7601 24.92 46.8501C25.19 46.2701 25.84 46.0301 26.46 46.1901C27.04 46.3401 27.46 46.8801 27.47 47.6901H27.46Z" fill="white"/>
<path d="M41.04 49.9901C41.04 50.6701 40.61 51.2001 40 51.3501C39.43 51.4901 38.75 51.2301 38.5 50.6701C38.08 49.7501 37.69 48.8101 37.34 47.8701C37.11 47.2601 37.46 46.5601 38.05 46.2801C38.64 45.9901 39.43 46.1401 39.73 46.7301C40.22 47.7101 40.6 48.7501 41.01 49.7701C41.04 49.8501 41.03 49.9501 41.03 50.0001L41.04 49.9901Z" fill="white"/>
</svg>
