<?xml version="1.0" encoding="utf-8"?>
<!-- Generator: Adobe Illustrator 27.0.0, SVG Export Plug-In . SVG Version: 6.00 Build 0)  -->
<svg version="1.1" id="_圖層_2" xmlns="http://www.w3.org/2000/svg" xmlns:xlink="http://www.w3.org/1999/xlink" x="0px" y="0px"
	 viewBox="0 0 987 219.1" style="enable-background:new 0 0 987 219.1;" xml:space="preserve">
<style type="text/css">
	.st0{fill:#EB6519;}
	.st1{opacity:0.2;}
	.st2{fill:url(#SVGID_1_);}
	.st3{fill:url(#SVGID_00000029767041641588526730000006434414046144142525_);}
	.st4{fill:url(#SVGID_00000075866784512138119420000011218888359881588396_);}
	.st5{fill:url(#SVGID_00000134247406795015215110000010363143156456874174_);}
	.st6{fill:url(#SVGID_00000154402737536130836970000017279023323564492164_);}
	.st7{fill:url(#SVGID_00000028289727445341145320000010976703681305740676_);}
	.st8{fill:url(#SVGID_00000170997737685955816560000009382718781077942965_);}
	.st9{fill:url(#SVGID_00000168809593307758661710000012455502041004022672_);}
	.st10{fill:url(#SVGID_00000148619960966421136830000007411656406684142001_);}
	.st11{fill:url(#SVGID_00000147209151810645075740000015568501752429648788_);}
	.st12{fill:url(#SVGID_00000090997974526923350430000003203254005680339862_);}
	.st13{fill:url(#SVGID_00000085971953651594284450000004596708892554845574_);}
	.st14{fill:url(#SVGID_00000073679903354439492840000018283972044170002093_);}
	.st15{fill:url(#SVGID_00000032608882978040664530000011286155499092179107_);}
	.st16{fill:url(#SVGID_00000144303114616055791980000011680352131588316586_);}
	.st17{fill:url(#SVGID_00000029738151672296651650000016152277121985637309_);}
	.st18{fill:url(#SVGID_00000005963015097762384050000014295710465002450878_);}
	.st19{fill:url(#SVGID_00000111869695089543205260000013412743186411591567_);}
	.st20{fill:#FFFFFF;}
</style>
<rect x="383.4" y="-383.9" transform="matrix(-1.836970e-16 1 -1 -1.836970e-16 602.5606 -383.4206)" class="st0" width="219.1" height="987"/>
<g class="st1">
	<linearGradient id="SVGID_1_" gradientUnits="userSpaceOnUse" x1="28.0574" y1="59.4006" x2="110.8904" y2="59.4006">
		<stop  offset="0" style="stop-color:#F7F8B8"/>
		<stop  offset="1" style="stop-color:#EB6519"/>
	</linearGradient>
	<path class="st2" d="M110.9,97.9v3.8H72.4v-3.8l10.1-1.1L75.5,75h-26l-6.2,21.5l10.6,1.5v3.8H28.1v-3.8l9.4-1.4L63,17h11.8
		l27.1,79.9L110.9,97.9z M74.3,71L62,32.4L50.7,71H74.3z"/>
	
		<linearGradient id="SVGID_00000024716553647619399510000000490171405873310609_" gradientUnits="userSpaceOnUse" x1="113.7097" y1="60.4177" x2="195.4138" y2="60.4177">
		<stop  offset="0" style="stop-color:#F7F8B8"/>
		<stop  offset="1" style="stop-color:#EB6519"/>
	</linearGradient>
	<path style="fill:url(#SVGID_00000024716553647619399510000000490171405873310609_);" d="M195.4,97.9v3.8
		c-4.6,1.1-7.8,1.7-13.4,1.7c-10.4,0-16.2-3.1-17.3-12.2l-3.3-15.6c-1.6-9.3-4.3-13.8-13-13.8h-5.5c0,11.9,0,23.5,0.3,35l10.4,1v3.8
		h-39.9v-3.8l10.2-1c0.3-11.4,0.3-23.1,0.3-34.8v-5c0-11.8,0-23.4-0.3-35l-10.2-0.9v-3.8h40.7c19.9,0,30.7,7.8,30.7,21.2
		c0,9.3-6.3,18-24.1,20.7c14.8,2,18.6,8.2,20.6,19.4l3.7,18.6L195.4,97.9z M149.5,57.7c12.7,0,17.5-8.5,17.5-18.8
		c0-11.2-6-17.3-17.4-17.3h-6.4c-0.3,11.4-0.3,23.1-0.3,36H149.5z"/>
	
		<linearGradient id="SVGID_00000157998950313580680570000002141250644921461946_" gradientUnits="userSpaceOnUse" x1="195.7478" y1="59.57" x2="266.3767" y2="59.57">
		<stop  offset="0" style="stop-color:#F7F8B8"/>
		<stop  offset="1" style="stop-color:#EB6519"/>
	</linearGradient>
	<path style="fill:url(#SVGID_00000157998950313580680570000002141250644921461946_);" d="M266.4,97.4c-6.9,4.1-15.1,6.7-25.7,6.7
		c-25,0-45-14.7-45-44.5c0-30.2,21.4-44.4,45.9-44.4c9.7,0,16.6,2.4,24,6.4l-0.5,20.6h-6.7l-6.2-21.6c-2.6-0.8-5.3-1.1-8.2-1.1
		c-15.8,0-28.3,12.4-28.3,40.2c0,27.9,12.3,40,28.7,40c3.2,0,6-0.5,8.8-1.5l6-21.1h6.7L266.4,97.4z"/>
	
		<linearGradient id="SVGID_00000084517707895825876940000011986361425479401604_" gradientUnits="userSpaceOnUse" x1="272.7" y1="59.57" x2="361.7498" y2="59.57">
		<stop  offset="0" style="stop-color:#F7F8B8"/>
		<stop  offset="1" style="stop-color:#EB6519"/>
	</linearGradient>
	<path style="fill:url(#SVGID_00000084517707895825876940000011986361425479401604_);" d="M351.8,22.1c-0.2,11.5-0.2,23.3-0.2,35v5
		c0,11.5,0,23.2,0.2,34.8l9.9,1v3.8h-39.1v-3.8l9.5-1c0.3-11.2,0.3-22.9,0.3-35.9h-30.4c0,12.8,0,24.5,0.3,36l9.4,0.9v3.8h-39.1
		v-3.8l10.1-1c0.1-11.4,0.1-23.1,0.1-34.8v-5c0-11.8,0-23.4-0.1-34.9l-10.1-1v-3.8h39.1v3.8l-9.4,0.9c-0.3,11.3-0.3,22.9-0.3,34.6
		h30.4c0-11.5,0-23.2-0.3-34.6l-9.5-0.9v-3.8h39.1v3.8L351.8,22.1z"/>
	
		<linearGradient id="SVGID_00000180330301554919920210000003854615150849136521_" gradientUnits="userSpaceOnUse" x1="368.1843" y1="59.57" x2="408.0759" y2="59.57">
		<stop  offset="0" style="stop-color:#F7F8B8"/>
		<stop  offset="1" style="stop-color:#EB6519"/>
	</linearGradient>
	<path style="fill:url(#SVGID_00000180330301554919920210000003854615150849136521_);" d="M398,22.1c-0.2,11.5-0.2,23.3-0.2,35V62
		c0,11.6,0,23.3,0.2,34.9l10.1,1v3.8h-39.9v-3.8l10.2-1c0.3-11.4,0.3-23.1,0.3-34.8v-5c0-11.8,0-23.4-0.3-35l-10.2-0.9v-3.8h39.9
		v3.8L398,22.1z"/>
	
		<linearGradient id="SVGID_00000134953736382934461390000009436738981233927863_" gradientUnits="userSpaceOnUse" x1="412.5925" y1="59.57" x2="488.0808" y2="59.57">
		<stop  offset="0" style="stop-color:#F7F8B8"/>
		<stop  offset="1" style="stop-color:#EB6519"/>
	</linearGradient>
	<path style="fill:url(#SVGID_00000134953736382934461390000009436738981233927863_);" d="M460.1,21.8c-0.2,11.6-0.2,23.4-0.2,35.4
		V62c0,11.5,0,23.3,0.2,34.8l11.5,1.1v3.8h-42.5v-3.8l11.4-1.1c0.2-11.3,0.2-22.9,0.2-34.7v-5c0-11.9,0-23.7-0.2-35.4h-15.6
		l-5.7,19.8h-6.7l0.5-24.2h74.6l0.5,24.2h-6.6l-5.8-19.8H460.1z"/>
	
		<linearGradient id="SVGID_00000034768313768663892190000004548931517022013626_" gradientUnits="userSpaceOnUse" x1="492.4812" y1="59.57" x2="559.4949" y2="59.57">
		<stop  offset="0" style="stop-color:#F7F8B8"/>
		<stop  offset="1" style="stop-color:#EB6519"/>
	</linearGradient>
	<path style="fill:url(#SVGID_00000034768313768663892190000004548931517022013626_);" d="M559.5,101.8h-67v-3.8l10.2-1
		c0.3-11.4,0.3-23.1,0.3-34.8v-5c0-11.8,0-23.4-0.3-35l-10.2-0.9v-3.8h64.6L557,39.9h-6.6l-5.2-18.1h-22.9
		c-0.2,11.3-0.2,22.9-0.2,34.9h15.4l1.7-12.5h5.7v28.6h-5.7l-1.6-12h-15.5v0.3c0,12.5,0,24.5,0.2,36.3h25.4l5.2-19h6.3L559.5,101.8z
		"/>
	
		<linearGradient id="SVGID_00000050638891985185590820000010429627043267761342_" gradientUnits="userSpaceOnUse" x1="564.4636" y1="59.57" x2="635.0925" y2="59.57">
		<stop  offset="0" style="stop-color:#F7F8B8"/>
		<stop  offset="1" style="stop-color:#EB6519"/>
	</linearGradient>
	<path style="fill:url(#SVGID_00000050638891985185590820000010429627043267761342_);" d="M635.1,97.4c-6.9,4.1-15.1,6.7-25.7,6.7
		c-25,0-45-14.7-45-44.5c0-30.2,21.4-44.4,45.9-44.4c9.7,0,16.6,2.4,24,6.4l-0.5,20.6h-6.7L621,20.5c-2.6-0.8-5.3-1.1-8.2-1.1
		c-15.8,0-28.3,12.4-28.3,40.2c0,27.9,12.3,40,28.7,40c3.2,0,6-0.5,8.8-1.5l6-21.1h6.7L635.1,97.4z"/>
	
		<linearGradient id="SVGID_00000019639189357551204300000016785167949963900052_" gradientUnits="userSpaceOnUse" x1="639.3816" y1="59.57" x2="714.8699" y2="59.57">
		<stop  offset="0" style="stop-color:#F7F8B8"/>
		<stop  offset="1" style="stop-color:#EB6519"/>
	</linearGradient>
	<path style="fill:url(#SVGID_00000019639189357551204300000016785167949963900052_);" d="M686.8,21.8c-0.2,11.6-0.2,23.4-0.2,35.4
		V62c0,11.5,0,23.3,0.2,34.8l11.5,1.1v3.8h-42.5v-3.8l11.4-1.1c0.2-11.3,0.2-22.9,0.2-34.7v-5c0-11.9,0-23.7-0.2-35.4h-15.6
		L646,41.5h-6.7l0.5-24.2h74.6l0.5,24.2h-6.6l-5.8-19.8H686.8z"/>
	
		<linearGradient id="SVGID_00000165227591107357737210000004753248557541427383_" gradientUnits="userSpaceOnUse" x1="717.4646" y1="60.7001" x2="804.0271" y2="60.7001">
		<stop  offset="0" style="stop-color:#F7F8B8"/>
		<stop  offset="1" style="stop-color:#EB6519"/>
	</linearGradient>
	<path style="fill:url(#SVGID_00000165227591107357737210000004753248557541427383_);" d="M804,21.2l-11.6,1.7l-0.5,43.4
		c-0.3,26-11.4,37.7-31.4,37.7c-19.4,0-33-9.2-33-35.8V55.9c0-11.1,0-22.5-0.3-33.8l-9.7-0.9v-3.8h40.2v3.8l-10.8,1
		c-0.3,11.1-0.3,22.5-0.3,33.7v10.6c0,20.7,7,28.3,20,28.3c13.1,0,20.7-8.2,20.5-28.7l-0.5-43.2l-12.9-1.7v-3.8H804V21.2z"/>
	
		<linearGradient id="SVGID_00000181794294611415721730000006426688393329445791_" gradientUnits="userSpaceOnUse" x1="806.7341" y1="60.4177" x2="888.4382" y2="60.4177">
		<stop  offset="0" style="stop-color:#F7F8B8"/>
		<stop  offset="1" style="stop-color:#EB6519"/>
	</linearGradient>
	<path style="fill:url(#SVGID_00000181794294611415721730000006426688393329445791_);" d="M888.4,97.9v3.8
		c-4.6,1.1-7.8,1.7-13.4,1.7c-10.4,0-16.2-3.1-17.3-12.2l-3.3-15.6c-1.6-9.3-4.3-13.8-13-13.8h-5.5c0,11.9,0,23.5,0.3,35l10.4,1v3.8
		h-39.9v-3.8l10.2-1c0.3-11.4,0.3-23.1,0.3-34.8v-5c0-11.8,0-23.4-0.3-35l-10.2-0.9v-3.8h40.7c19.9,0,30.7,7.8,30.7,21.2
		c0,9.3-6.3,18-24.1,20.7c14.8,2,18.6,8.2,20.6,19.4l3.7,18.6L888.4,97.9z M842.6,57.7c12.7,0,17.5-8.5,17.5-18.8
		c0-11.2-6-17.3-17.4-17.3h-6.4c-0.3,11.4-0.3,23.1-0.3,36H842.6z"/>
	
		<linearGradient id="SVGID_00000068676235844779911320000005815543353043972740_" gradientUnits="userSpaceOnUse" x1="890.9177" y1="59.57" x2="957.9314" y2="59.57">
		<stop  offset="0" style="stop-color:#F7F8B8"/>
		<stop  offset="1" style="stop-color:#EB6519"/>
	</linearGradient>
	<path style="fill:url(#SVGID_00000068676235844779911320000005815543353043972740_);" d="M957.9,101.8h-67v-3.8l10.2-1
		c0.3-11.4,0.3-23.1,0.3-34.8v-5c0-11.8,0-23.4-0.3-35l-10.2-0.9v-3.8h64.6l-0.1,22.5h-6.6l-5.2-18.1h-22.9
		c-0.2,11.3-0.2,22.9-0.2,34.9h15.4l1.7-12.5h5.7v28.6h-5.7l-1.6-12h-15.5v0.3c0,12.5,0,24.5,0.2,36.3h25.4l5.2-19h6.3L957.9,101.8z
		"/>
	
		<linearGradient id="SVGID_00000035515692009482174380000011804857783349439639_" gradientUnits="userSpaceOnUse" x1="30.8816" y1="161.57" x2="111.6814" y2="161.57">
		<stop  offset="0" style="stop-color:#F7F8B8"/>
		<stop  offset="1" style="stop-color:#EB6519"/>
	</linearGradient>
	<path style="fill:url(#SVGID_00000035515692009482174380000011804857783349439639_);" d="M67.9,119.4c27.6,0,43.7,15.9,43.7,41.9
		c0,26.4-17.3,42.5-45.8,42.5h-35v-3.8l10.2-1c0.3-11.4,0.3-23.2,0.3-35.8v-3.7c0-11.9,0-23.6-0.3-35.3l-10.2-0.9v-3.8H67.9z
		 M65.7,199.6c16.7,0,26.3-14.1,26.3-38.1c0-24.7-9.7-37.9-25.9-37.9h-5.4c-0.2,11.6-0.2,23.5-0.2,35.7v3.7c0,12.7,0,24.6,0.2,36.5
		H65.7z"/>
	
		<linearGradient id="SVGID_00000148625629446642464550000008098571500142855352_" gradientUnits="userSpaceOnUse" x1="115.8581" y1="161.57" x2="182.8718" y2="161.57">
		<stop  offset="0" style="stop-color:#F7F8B8"/>
		<stop  offset="1" style="stop-color:#EB6519"/>
	</linearGradient>
	<path style="fill:url(#SVGID_00000148625629446642464550000008098571500142855352_);" d="M182.9,203.8h-67v-3.8l10.2-1
		c0.3-11.4,0.3-23.1,0.3-34.8v-5c0-11.8,0-23.4-0.3-35l-10.2-0.9v-3.8h64.6l-0.1,22.5h-6.6l-5.2-18.1h-22.9
		c-0.2,11.3-0.2,22.9-0.2,34.9h15.4l1.7-12.5h5.7v28.6h-5.7l-1.6-12h-15.5v0.3c0,12.5,0,24.5,0.2,36.3h25.4l5.2-19h6.3L182.9,203.8z
		"/>
	
		<linearGradient id="SVGID_00000112611366610453031970000016075945855409233339_" gradientUnits="userSpaceOnUse" x1="190.3259" y1="161.57" x2="249.3152" y2="161.57">
		<stop  offset="0" style="stop-color:#F7F8B8"/>
		<stop  offset="1" style="stop-color:#EB6519"/>
	</linearGradient>
	<path style="fill:url(#SVGID_00000112611366610453031970000016075945855409233339_);" d="M226.3,153.6
		c16.8,7.6,23.1,14.4,23.1,27.1c0,15-11.4,25.3-32.7,25.3c-9.3,0-19.5-2.4-26.3-6.8l0.8-19.4h6.6l6,19.7c3.4,1.2,6.8,1.7,11.1,1.7
		c11.2,0,17.4-5.3,17.4-14.1c0-7.7-3.3-11.8-12.3-15.7l-5.4-2.4c-15.1-6.8-23.2-14.4-23.2-27.9c0-15.3,12.3-24,30.7-24
		c8.8,0,16.7,2.4,22.9,6.4l-1,18.4h-6.6l-5.8-18.8c-2.3-1-4.5-1.4-7.3-1.4c-9.8,0-16.2,5-16.2,13.4c0,7.8,4.3,12,12.2,15.6
		L226.3,153.6z"/>
	
		<linearGradient id="SVGID_00000033333097948625918340000018104447041954177982_" gradientUnits="userSpaceOnUse" x1="255.5261" y1="161.57" x2="295.4177" y2="161.57">
		<stop  offset="0" style="stop-color:#F7F8B8"/>
		<stop  offset="1" style="stop-color:#EB6519"/>
	</linearGradient>
	<path style="fill:url(#SVGID_00000033333097948625918340000018104447041954177982_);" d="M285.4,124.1c-0.2,11.5-0.2,23.3-0.2,35
		v4.9c0,11.6,0,23.3,0.2,34.9l10.1,1v3.8h-39.9v-3.8l10.2-1c0.3-11.4,0.3-23.1,0.3-34.8v-5c0-11.8,0-23.4-0.3-35l-10.2-0.9v-3.8
		h39.9v3.8L285.4,124.1z"/>
	
		<linearGradient id="SVGID_00000057107308648135797000000010041095870503532955_" gradientUnits="userSpaceOnUse" x1="300.613" y1="161.57" x2="380.5085" y2="161.57">
		<stop  offset="0" style="stop-color:#F7F8B8"/>
		<stop  offset="1" style="stop-color:#EB6519"/>
	</linearGradient>
	<path style="fill:url(#SVGID_00000057107308648135797000000010041095870503532955_);" d="M380.5,166.1l-7,0.9
		c-0.2,8.2-0.3,16.7-0.3,26v5.5c-8.8,5.2-16.8,7.5-27.6,7.5c-26.8,0-45-16.6-45-44.6c0-27.3,18.5-44.3,45.8-44.3
		c9.7,0,17.5,2.1,24.5,6.1l-0.5,20.7h-7l-5.9-20.9c-2.7-1.1-5.4-1.6-8.7-1.6c-15.9,0-28.3,13-28.3,40.1c0,25.2,12,40.2,27.1,40.2
		c2.6,0,5.1-0.2,7.5-0.8v-8.5c0-8.4-0.1-16.4-0.3-24.9l-12.1-1.5v-3.8h37.7V166.1z"/>
	
		<linearGradient id="SVGID_00000009584575357280878470000011408354873367248059_" gradientUnits="userSpaceOnUse" x1="380.8435" y1="161.683" x2="467.406" y2="161.683">
		<stop  offset="0" style="stop-color:#F7F8B8"/>
		<stop  offset="1" style="stop-color:#EB6519"/>
	</linearGradient>
	<path style="fill:url(#SVGID_00000009584575357280878470000011408354873367248059_);" d="M467.4,123.2l-10.4,1.5l-0.8,79.3h-9.9
		l-49.8-70.3l0.7,64.5l15.1,1.7v3.8h-31.4v-3.8l10.4-1.6l0.7-71.1l-2.1-3.2l-8-0.9v-3.8H409l42.8,59.2l-0.6-53.8l-15-1.6v-3.8h31.2
		V123.2z"/>
</g>
<g>
	<path class="st20" d="M555.2,203.3h-14.6c-19.9,0-34.2-4.3-42.7-12.8c-5,5.5-11,9.6-18.2,12.5c-0.5,0.2-0.8,0.2-1.1,0
		c0-0.5,0.2-0.8,0.7-1.1c6.2-4,10.9-9.5,14.2-16.4c-4.3-5.9-7.5-14.2-9.6-24.9c0.5-0.5,0.9-0.6,1.4-0.4c2.6,8.1,6.2,14.6,10.7,19.6
		c2.6-7.1,3.7-14.6,3.2-22.4h-6.8c-1.2,1.2-2.3,1.9-3.2,2.1c-0.5,0-1-0.1-1.4-0.4c-2.8-2.1-5-3.9-6.4-5.3c-0.2-0.5-0.2-0.9,0-1.4
		c0.7-0.2,1.9-0.8,3.6-1.8l9.3-22.8h-7.1c-1.7,0-3.4,0.1-5.3,0.4l-2.5-2.5c1.2,0,2.3,0.1,3.2,0.4h11.8c0.2-0.5,0.6-1.1,1.1-1.8
		c0.2-0.7,0.5-1.2,0.7-1.4c0.5-0.5,0.9-0.7,1.4-0.7c3.3,1.4,6.3,3,8.9,4.6c0.5,0.5,0.5,1.1,0,1.8c-1.7,1-2.7,1.7-3.2,2.1l-10.7,24.9
		h5.7c1.2-1.4,2.5-2.7,3.9-3.9c0.5-0.2,0.9-0.2,1.4,0c-0.2-0.2-0.1-0.1,0.4,0.4c1.9,1,4,2.3,6.4,3.9c0.5,0.5,0.5,1.1,0,1.8
		c-0.2,0.2-0.6,0.6-1.1,1.1c-0.7,1-1.2,1.7-1.4,2.1c-0.7,10-2.8,17.9-6.4,23.9c7.6,5.5,17.7,8.2,30.3,8.2h14.2
		c6.6,0,12.9-0.8,18.9-2.5c0.7,0.2,0.8,0.7,0.4,1.4c-3.3,1.4-5,4.6-5,9.6c0,0.5-0.2,0.8-0.7,1.1C558,203,556.6,203.3,555.2,203.3z
		 M524.9,189.4v-9.3h-10c-0.2,0-2.1,0.1-5.7,0.4l-2.1-2.5c0.9,0,1.9,0.1,2.8,0.4h15v-10.7h-6.4c-1.7,0-3.4,0.1-5.3,0.4l-2.5-2.5
		c1.2,0,2.3,0.1,3.2,0.4h11v-11.4h-7.1c-0.2,0-2.1,0.1-5.7,0.4l-2.1-2.5c0.9,0,1.9,0.1,2.8,0.4h12.1v-8.5h-12.8c-2.1,0-4,0-5.7,0
		l-2.1-2.5c0.9,0,1.9,0.1,2.8,0.4h17.8v-9.3h-8.2h-5l-1.8-2.5c0.9,0,1.9,0.1,2.8,0.4h12.1v-12.1c5.5,0,8.8,0.2,10,0.7
		c0.9,0.7,0.9,1.3,0,1.8c-0.5,0.7-1,1.1-1.4,1.1v8.5h8.5c0.5-0.5,1.1-1.1,1.8-1.8c0.9-1.2,1.5-1.8,1.8-1.8c3.1,0.5,6.2,2.1,9.3,5
		c0,0.5-0.5,1.1-1.4,1.8l-0.7,0.7v7.5h1.8c1.4-1.9,3-3.7,4.6-5.3c0.5-0.5,0.8-0.5,1.1,0c3.6,2.6,5.7,4.8,6.4,6.4
		c0,0.2-0.2,0.6-0.7,1.1h-13.2v13.2c-0.2,1-1.2,1.7-2.8,2.1c4,2.8,6.6,5.1,7.8,6.8c0.2,0.7,0.1,1.2-0.4,1.4h-23.9v10.7h12.5
		c1.7-2.6,3.4-4.7,5.3-6.4c0.5-0.5,0.8-0.5,1.1,0c3.3,1.7,6.1,3.9,8.2,6.8c0.2,0.7,0.1,1.2-0.4,1.4h-26.7v7.5
		c-0.2,1.4-1.8,2.5-4.6,3.2C526.2,191.3,524.9,190.8,524.9,189.4z M533.4,132.7v9.3h9.6v-9.3H533.4z M533.4,144.1v8.5h9.6v-8.5
		H533.4z M533.4,154.5v11.4h9.6c0.7-1.4,2.4-3.4,5-6.1c-3.1,0.2-4.8-0.6-5-2.5v-2.8H533.4z"/>
	<path class="st20" d="M650.9,156.2c0.2,1.9,1.1,3,2.5,3.2c4,0.5,6.6-3.2,7.8-11c0.5-0.7,0.9-0.6,1.4,0.4c-0.7,4-0.2,7.4,1.4,10
		c0.7,1.4,1.1,2.5,1.1,3.2c-0.7,3.3-3.3,5-7.8,5H647c-2.6-0.2-4.2-2.1-4.6-5.7v-13.5h-9.6c0.5,1.2,0.5,2.4,0,3.6
		c4,1.2,6.8,3.2,8.2,6.1c0.9,2.6,0.1,4.6-2.5,6.1c-2.8,1.2-4.8,0.5-5.7-2.1c0-0.2,0-0.8,0-1.8c0.5-2.4,0.4-4.4-0.4-6.1
		c-1,5.2-4.3,9.5-10,12.8c2.6,0.5,4.9,1.2,6.8,2.1c0.5,0.5,0.5,1,0,1.4c-0.2,0.5-0.7,1-1.4,1.4c-0.2,0-0.5,0.1-0.7,0.4v3.9h22.8
		c1.2-1.7,3-3.8,5.3-6.4c0.5-0.5,0.9-0.5,1.4,0c3.1,1.9,5.7,4.2,7.8,6.8c0.5,0.7,0.4,1.2-0.4,1.4h-33.5c9.7,9.3,21.5,14.2,35.3,15
		c0.5,0.5,0.6,0.8,0.4,1.1c-4.8,1.7-7.5,4.4-8.2,8.2l-0.4,0.4c-0.7,0.5-1.2,0.6-1.4,0.4c-12.8-4-22.2-12.3-28.1-24.9H627v26
		c-1,1.2-2.8,1.8-5.7,1.8c-1.9-0.2-2.8-1.2-2.8-2.8v-20.3c-13.1,8.8-25.6,15.6-37.8,20.3c-0.2,0.2-0.5,0.1-0.7-0.4
		c0-0.2,0.1-0.5,0.4-0.7c10.4-5.7,19.5-13.7,27.1-23.9h-18.2c-1.9,0-3.8,0.1-5.7,0.4l-2.1-2.5c1.2,0,2.3,0.1,3.2,0.4h33.8v-3.9V168
		c-0.5,0-1.3,0.2-2.5,0.7c-1.2,0.2-2.1,0.5-2.8,0.7c-0.7-0.2-0.8-0.6-0.4-1.1c8.3-3.8,12.1-12.5,11.4-26c0-0.5,0.4-0.7,1.1-0.7
		c1.2,0.7,3.7,2.1,7.5,4.3h8.5c1.7-1.9,2.8-3.1,3.6-3.6c-2.4,0.2-3.8-0.7-4.3-2.8c-0.2-0.5-0.2-1.3,0-2.5c0.5-2.1-0.2-4.3-2.1-6.4
		h-5.7c-3.1,3.8-7.8,7.8-14.2,12.1c2.1,2.1,3.3,3.4,3.6,3.9c0.2,0.7,0,1.1-0.7,1.1h-12.5c0.2,0.2,0,0.6-0.7,1.1
		c-0.2,0.2-0.6,0.6-1.1,1.1c-0.7,0.2-1.1,0.5-1.1,0.7v7.8c4.7-0.2,9.3-0.7,13.5-1.4c0.5,0.2,0.6,0.5,0.4,0.7
		c-13.5,5.7-24,10.3-31.3,13.9c-0.5,0.2-1,0.1-1.4-0.4c-1-3.8-1.9-7.1-2.8-10c0-0.7,0.4-1.1,1.1-1.1c1.4-0.2,3.4-0.5,6.1-0.7
		c2.8-0.2,4.9-0.4,6.1-0.4v-11.4h-4.3c-1.9,0-3.9,0.1-6.1,0.4l-1.8-2.5c1.2,0,2.3,0.1,3.2,0.4h21.4c2.1-2.8,3.7-4.7,4.6-5.7
		c0.5,0,0.8,0,1.1,0l0.7,0.4c0.5,0.5,0.8,0.8,1.1,1.1c5.7-6.2,9.6-14.1,11.8-23.9c0-0.5,0.4-0.7,1.1-0.7c3.8,1,7.5,2.3,11,3.9
		c0,0.7,0,1.2,0,1.4c-1.2,0.2-2.1,0.7-2.8,1.4c-1.4,1.9-2.7,3.6-3.9,5h18.2c2.1-2.8,3.9-5,5.3-6.4c0.2-0.2,0.6-0.2,1.1,0h0.4
		c3.1,1.9,5.7,4.2,7.8,6.8c0.5,0.7,0.4,1.2-0.4,1.4h-24.2c2.8,1,4.9,2.7,6.1,5.3c0.7,2.8-0.5,4.9-3.6,6.1c3.6,1.2,6.4,3,8.5,5.3
		c0,0.5-0.7,1.3-2.1,2.5l-0.7,0.7V156.2z M602.4,130.6h-4.3c-4.5,5.2-9.7,9.7-15.7,13.5c-0.5,0-0.7-0.2-0.7-0.7
		c5.5-6.6,9.5-15.1,12.1-25.3c0.2-0.7,0.7-0.9,1.4-0.7c2.1,0.5,5.8,1.7,11,3.6c0.2,0.2,0.2,0.8,0,1.8c-0.2,0-0.5,0.1-0.7,0.4
		c-1.2,0.5-1.9,0.8-2.1,1.1c-1.4,1.7-2.6,3.2-3.6,4.6h11.8c0.5-0.5,1.2-1.3,2.1-2.5c1.4-1.7,2.4-2.7,2.8-3.2c0.2,0,0.5,0,0.7,0
		c3.1,2.4,5.2,4.5,6.4,6.4c0.2,0.7,0,1.1-0.7,1.1H606c2.6,1,4.5,2.7,5.7,5.3c0.9,2.6,0.1,4.5-2.5,5.7c-2.8,1.2-4.8,0.6-5.7-1.8
		c-0.2-0.5-0.2-1.3,0-2.5C604,134.7,603.6,132.5,602.4,130.6z"/>
	<path class="st20" d="M707.8,139.1h8.9c1.9-1.9,3.2-3.1,3.9-3.6c0.2-0.2,0.6-0.2,1.1,0h0.4c0.2,0.2,0.6,0.5,1.1,0.7
		c3.8,2.1,6.5,3.8,8.2,5c0.5,0.5,0.5,1,0,1.4c-1.4,0.7-2.4,1.4-2.8,2.1c-5.7,29.2-20.2,46.2-43.5,50.9c-0.2,0-0.5-0.1-0.7-0.4
		c0-0.5,0.1-0.7,0.4-0.7c19.2-8.5,30.4-26.4,33.5-53.4h-11.4c-2.4,5.2-5.1,9.9-8.2,13.9c7.4,1.7,11.4,5.1,12.1,10.3
		c0.2,3.1-1,5.3-3.6,6.8c-2.4,1.2-4.3,0.5-5.7-2.1c-0.5-0.9-0.6-2.5-0.4-4.6c0.5-3.8-0.5-7-2.8-9.6c-3.8,5.7-7.8,10.5-12.1,14.2
		c-0.5,0.2-0.8,0.2-1.1,0c-0.2-0.2-0.2-0.5,0-0.7c9.3-15.9,14.5-32.1,15.7-48.4c0-0.5,0.6-0.7,1.8-0.7c0.7,0.2,2,0.7,3.9,1.4
		c4,1.7,7.1,3.1,9.3,4.3c0.5,0.2,0.5,0.6,0,1.1c-0.5,0.2-1.1,0.5-1.8,0.7c-1.2,0.5-1.9,1.1-2.1,1.8
		C710.5,132.6,709.2,135.8,707.8,139.1z M735.9,140.2v-22.8c5.9,0.2,10,1,12.1,2.1c0.7,0.5,0.7,1.1,0,1.8c-0.7,0.7-1.5,1.3-2.5,1.8
		v17.1c0,9.3,0.2,29.2,0.7,59.8c0,1.4-1.8,2.5-5.3,3.2c-3.8,0.5-5.8,0.1-6.1-1.1C735.6,170.1,735.9,149.5,735.9,140.2z M747.3,147
		c13.1,5.5,20.5,12,22.4,19.6c0.7,4-0.4,7-3.2,8.9c-3.1,1.4-5.7,0.6-7.8-2.5c-0.5-1.2-1-3.2-1.4-6.1c-0.7-7.8-4.3-14.2-10.7-19.2
		C746.6,147.5,746.8,147.2,747.3,147z"/>
	<path class="st20" d="M819.5,127.7h3.6c1.7-2.4,2.8-4,3.6-5c0.5,0,0.9,0,1.4,0c1.9,1.9,3.1,4.2,3.6,6.8h-13.2
		c-1.9,2.8-3.6,5.5-5,7.8c1.9,1,2.8,1.5,2.8,1.8h4.6c0.9-1.7,1.8-2.5,2.5-2.5c3.8,1,6.5,2.4,8.2,4.3c0,0.2-0.6,0.8-1.8,1.8l-1.1,1.1
		v9.6c-3.3,2.8-5.6,2.8-6.8,0v-2.8h-5.7v2.8c-0.2,1.2-1.4,1.8-3.6,1.8c2.6,0.7,4.2,2.3,4.6,4.6c-0.2,2.6-1.5,4.3-3.9,5h6.8
		c0.9-1.9,2.3-3.6,3.9-5c0.5-0.5,0.8-0.5,1.1,0c1.4,1,3.4,2.7,6.1,5.3c0.5,0.7,0.2,1.2-0.7,1.4h-11c-0.2,1-1,1.9-2.1,2.8v3.9h2.8
		c0.7-1.4,1.7-2.7,2.8-3.9h0.7c2.4,1.4,4.3,3,5.7,4.6c0.2,0.5,0,0.8-0.7,1.1h-11.4v7.8h1.8c1.2-2.1,2.3-3.4,3.2-3.9
		c0-0.2,0.1-0.2,0.4,0h0.4c3.1,2.1,4.9,3.7,5.3,4.6c0.2,0.5,0,0.8-0.7,1.1h-10.3v8.2h2.8c1.7-2.1,3-3.7,3.9-4.6c0.5,0,0.8,0,1.1,0
		c0.5,0.2,1.4,1.1,2.8,2.5s2.4,2.1,2.8,2.1c5-6.6,7.5-14.8,7.5-24.6c-2.8,0.5-4.4,0.2-4.6-0.7c0-0.5,0-1.4,0-2.8
		c0.5-3.1,0.7-6.6,0.7-10.7v-28.5l-0.7-5.3c0-0.2,0.1-0.4,0.4-0.4c4,0.7,7.5,1.9,10.3,3.6v0.4h11.8c0.5-0.5,0.9-1.1,1.4-1.8
		c1.2-1.4,1.9-2.1,2.1-2.1c2.4,0.2,5.5,1.9,9.3,5c0,0.5-0.4,1.1-1.1,1.8c-0.7,0.5-1.1,0.8-1.1,1.1v38.8c-1.2,1.9-3.6,2.6-7.1,2.1
		c0.5,0.2,0.5,0.7,0,1.4c-0.7,0.7-1.2,1.1-1.4,1.1v21c0,1.2,0.7,1.8,2.1,1.8h1.8c2.8-0.2,5.1-4.5,6.8-12.8c0.2-1.2,0.5-1.2,0.7,0
		c-1,6.2-0.2,10.1,2.1,11.8c0.9,0.7,1.4,1.7,1.4,2.8c-0.2,3.6-3.3,5.5-9.3,5.7h-9.6c-3.3,0.2-4.9-1.4-4.6-5v-28.9
		c5,0,8.2,0.2,9.6,0.7c-0.7-0.2-1.1-0.8-1.1-1.8v-1.8H842v0.7c0,0.7-0.6,1.4-1.8,2.1c1.7,0.2,4.4,1.2,8.2,2.8c0.5,0.2,0.5,0.6,0,1.1
		c-0.5,0.5-1.3,1.1-2.5,1.8c-1.4,14.5-9.5,24.1-24.2,28.9c-0.7,0-0.7-0.2,0-0.7c3.1-1.7,5.7-3.9,7.8-6.8H801v3.9
		c-2.1,2.6-4.8,3.3-7.8,2.1c-0.2-0.5-0.4-1.9-0.4-4.3c0.2-2.1,0.4-3.9,0.4-5.3v-19.6c-2.6,2.6-5.3,5-8.2,7.1c-0.5,0-0.6-0.2-0.4-0.7
		c4.7-6.6,8.7-14.8,11.8-24.6c0.2,0,0.5,0,0.7,0c1.2,0.2,2.3,0.6,3.2,1.1c0-0.2,0-0.5,0-0.7l-0.4-0.4v-2.1h-4.6v1.1
		c-1,2.6-2.8,3.3-5.7,2.1c-0.2-0.2-0.4-1.2-0.4-2.8c0.2-1.7,0.4-3.1,0.4-4.3v-11c2.6,0.5,4.5,1.4,5.7,2.8h2.8
		c1.4-1.9,2.5-2.8,3.2-2.8c3.8,1.2,6.3,2.5,7.5,3.9c0,0.2-0.5,0.6-1.4,1.1l-0.7,0.7v11.4c-0.2,1.2-1.5,1.9-3.9,2.1
		c0.7,0.2,1.5,0.6,2.5,1.1c0.7,0.2,1.2,0.4,1.4,0.4c0,0.5-0.1,1-0.4,1.4c-0.2,0-0.5,0.1-0.7,0.4c-1,0-1.7,0.4-2.1,1.1
		c-1.2,1.4-2.5,3.1-3.9,5h11.8c-0.2,0-0.5-0.1-0.7-0.4c-0.5,0-0.8-0.2-1.1-0.7c-0.7-0.7-1-1.9-0.7-3.6c0.5-1.9,0.2-3.6-0.7-5
		c-0.5-0.7-0.4-1.1,0.4-1.1c0.9,0.2,1.8,0.4,2.5,0.4c-0.2-0.5-0.4-0.8-0.4-1.1v-17.1c0.2,0,0.6,0.1,1.1,0.4c0.5,0.2,0.8,0.4,1.1,0.4
		c0.9-6.4,1.4-12.8,1.4-19.2c0-0.5,0.2-0.7,0.7-0.7c0.2,0,0.5,0,0.7,0c3.6,0.5,5.9,1.1,7.1,1.8c0.2,0,0.2,0.2,0,0.7v0.4
		c-0.2,1-0.8,2.4-1.8,4.3C820.2,125.8,819.8,127,819.5,127.7z M795.7,130.2H791l-4.3,1.1l-2.1-2.8h10.7c-0.2-0.7-0.5-1.9-0.7-3.6
		c-0.7-3.3-1.2-5.7-1.4-7.1c0-0.5,0.2-0.7,0.7-0.7c3.3,0,6.2,0.6,8.5,1.8c0.5,0,0.6,0.2,0.4,0.7c0,0.2-0.1,0.6-0.4,1.1
		c-0.5,0.5-0.6,0.8-0.4,1.1l1.8,12.5c-2.8,2.1-5.3,2.5-7.5,1.1c-0.2-0.5-0.4-1.3-0.4-2.5C795.8,131.5,795.7,130.7,795.7,130.2z
		 M795.3,149.5h4.6v-8.5h-4.6V149.5z M809.5,173.3v-6.8H801v6.8H809.5z M809.5,183v-7.8H801v7.8H809.5z M809.5,192.9v-8.2H801v8.2
		H809.5z M816.3,148.4h5.7v-7.5h-5.7V148.4z M842,137h16.4v-11.4h-14.6c-0.5,0.2-1.1,0.6-1.8,1.1V137z M842,149.5h16.4v-10.7H842
		V149.5z M842,162.6h16.4v-11.4H842V162.6z"/>
</g>
</svg>
