<?xml version="1.0" encoding="UTF-8"?>
<svg id="_圖層_2" data-name="圖層 2" xmlns="http://www.w3.org/2000/svg" xmlns:xlink="http://www.w3.org/1999/xlink" viewBox="0 0 1920 1080">
  <defs>
    <style>
      .cls-1 {
        fill: none;
      }

      .cls-2 {
        clip-path: url(#clippath);
      }

      .cls-3 {
        fill: #f99e48;
      }

      .cls-4 {
        fill: #ec7839;
      }

      .cls-5 {
        fill: #ec722a;
      }

      .cls-6 {
        fill: #f6a24c;
      }

      .cls-7 {
        fill: #ffca32;
      }

      .cls-8 {
        fill: #ee7a3c;
      }
    </style>
    <clipPath id="clippath">
      <rect class="cls-1" width="1920" height="1080"/>
    </clipPath>
  </defs>
  <g id="_圖層_3" data-name="圖層 3">
    <g class="cls-2">
      <g>
        <g>
          <path class="cls-7" d="M69.81-89.62c-5.04,5.8-7.59,13.52-10.98,20.46-4.09,8.4-9.67,15.47-15.91,22.2-10.6,11.41-19.49,22.42-24.82,37.7C15.44-1.61,13.25,6.28,10.45,13.86,7.73,21.27,4.12,27.69,.31,34.41c-4.73,8.36-6.08,16.43-1.5,25.53-.41,.48-.48,1.35,.22,1.95,.66,.56,1.34,1.14,2,1.71,.2,.18,.43,.25,.65,.26,8.7,5.26,16.2-1.75,24.93-2.96,13.37-1.87,27.3,11.12,36.66,20.72,13.24,13.59,30.43,32.91,47.02,19.16,12.66,12.8,29.36,10.15,40.72,.51,6.64,6.27,14.14,11.19,22.98,9.95,9.08-1.29,15.13-5.61,16.59-14.66,10.72,7.23,17.16-6.26,16.25-16.41,8.47,.91,13.68-7.84,16.4-14.64,3.11-7.82,6.19-18.29,4.36-27.55,6.32,.98,9.39-5.78,10.02-11.67,.65-6.17-1.73-12.71-5.97-17.75,4.36,.99,8.36-.19,10.73-4.99,3.76-7.63-.61-17-6.07-23.6-7.71-9.35-16.54-17.83-26.67-24.31-4.62-2.96-9.4-5.74-14.39-7.8-2.9-1.19-6.16-1.26-6.48-4.84-.16-1.76-.47-3.61-.94-5.35-6.48-23.84-33.63-36.6-54.31-29.26-6.82,2.41-13.6,11.68-20.82,2.19-3.69-4.84-8.04-9.35-13.88-11.06-11.4-3.35-22.17,3.01-28.97,10.86Z"/>
          <g>
            <path class="cls-5" d="M-.01,62.31c4.95,4.05,9.81,5.14,15.93,2.61,6.6-2.74,11.45-5.15,18.79-3.42,7.14,1.68,13.8,7.09,19.32,11.63,12.74,10.45,22.49,26.95,38.85,32.12,5.47,1.74,11.99,.1,16.31-3.63,.96-.82,8.96,5.38,10.09,5.84,4.4,1.73,8.35,2.37,13.05,2.15,7.3-.34,16.68-9.85,22.09-5.07,7.38,6.52,15.35,7.61,24.74,5.7,2.87-.58,6.85-3.07,8.41-5.72,1.71-2.91,1.81-8.34,5.36-6.4,3.62,1.98,8.18,.11,10.26-3.25,1.16-1.88,5.73-14.28,3.65-14.65,4.64,.85,9.29-2.86,11.76-6.42,4.99-7.21,7.45-15.62,8.78-24.21,.52-3.43,.63-6.87,.37-10.33-.22-2.85-.43-.46,2.61-1.21,5.66-1.41,6.92-9.12,7.39-13.92,.81-8.31-5.79-16.57-12.17-20.94-.42,.7-.83,1.41-1.24,2.11,12.72,8.07,22.07-.6,18.22-14.9-2.15-7.99-10.04-15.22-15.57-20.81-8.43-8.53-18.55-15.41-29.27-20.66-2.76-1.36-8.48-2.23-8.99-5.94-.57-4.08-1.55-7.77-3.02-11.58-3.08-7.94-9.59-14.07-16.57-18.55-13.42-8.65-30.43-8.35-43.73,.01-10.01,6.3-16.93-10.24-25.69-13.03-7.04-2.25-13.03-1.06-19.54,2.28-8.01,4.09-12.9,11.09-16.84,18.96-6.87,13.73-13.63,24.77-24.26,36.17C22.82-25.33,17.75-6.22,9.82,15.69,3.49,33.14-10.75,44.83,.53,63.21c.72-.4,1.43-.78,2.15-1.18-.26-.38-.5-.77-.75-1.15-.84-1.32-3-.15-2.15,1.18,.25,.38,.5,.78,.74,1.15,.85,1.32,2.98,.16,2.15-1.18C-5.12,49.32-.22,40.54,6.52,28.94,12.77,18.15,15.74,5.54,19.65-6.19c5.47-16.46,14.83-27.95,26.4-40.49,9.45-10.25,14.71-21.66,20.87-33.96,7.99-15.97,27.5-25.02,41.25-10.64,5.51,5.76,7.57,11.37,16.02,7.68,6.65-2.89,11.09-6.53,18.67-7.39,6.15-.69,12.29,.65,18.05,2.6,15.1,5.12,24.64,19.13,25.61,34.77,.04,.58,.33,1.01,.89,1.2,13.35,4.43,24.8,11.98,35.26,21.3,4.22,3.77,7.92,8.05,11.56,12.37,1.93,2.27,3.57,4.71,4.91,7.35,5.18,9.19-4.27,20.5-13.55,14.62-1.33-.85-2.54,1.23-1.24,2.11,5.37,3.68,8.96,9,10.8,15.2,1.42,4.74-1.02,16.98-8.86,14.62-.87-.26-1.74,.6-1.52,1.48,2.67,10.78-2.82,43.87-19.02,40.9-.95-.17-1.67,.54-1.53,1.49,1.2,7.97-3.22,22.83-14.01,14.33-.8-.62-1.74,.25-1.84,1.04-2.9,23.37-26.68,13.9-36.59,4.39-.5-.48-1.21-.47-1.73-.02-12.16,10.54-27.48,11.39-38.94-.51-.48-.5-1.21-.45-1.72-.02-19.15,16.51-38.73-13.48-51.58-25.05-7.23-6.52-15.47-12.39-25.05-14.65-11.31-2.66-20.41,10.77-31.04,2.08-1.19-.98-2.96,.73-1.75,1.71Z"/>
            <g>
              <g>
                <path class="cls-5" d="M206.81,79.99c-15.11-33.59-58.96-53.16-93.64-56.84C74.32,19.02,31.4,37.51,.05,59.27c-.64,.45-.07,1.53,.58,1.08C30.99,39.28,69.22,23.54,106.53,23.98c35.91,.42,83.88,22.49,99.2,56.59,.33,.72,1.4,.12,1.08-.58h0Z"/>
                <path class="cls-5" d="M190.13,94.11c-20.32-30.98-56.09-47.82-91.63-54.07-15.83-2.79-31.45-2.15-47.27,.4-16.62,2.66-35.36,6.9-48.32,18.48-.59,.53,.26,1.4,.85,.88,12.14-10.85,29.13-14.69,44.66-17.62,16.69-3.16,32.99-3.54,49.75-.95,35.05,5.43,71.04,23.23,90.88,53.49,.43,.66,1.5,.07,1.08-.6h0Z"/>
                <path class="cls-5" d="M152.02,98.26c-10.01-25.76-38.35-38.81-63.26-45.67-30.23-8.31-58.01-2.06-86.59,9.88-.73,.31-.14,1.38,.59,1.08,28.64-11.97,55.37-17.46,85.68-9.76,24.57,6.23,52.75,19.96,62.52,45.06,.28,.74,1.35,.14,1.07-.58h0Z"/>
                <path class="cls-5" d="M110.49,97.91c-7.99-18.99-26.5-35.1-45.51-42.47-19.33-7.51-41.86-.71-60.06,7.68-.72,.33-.13,1.4,.58,1.07,16.69-7.71,38.59-14.67,56.57-8.57,19.77,6.69,39.2,23.53,47.35,42.87,.31,.73,1.38,.13,1.07-.59h0Z"/>
                <path class="cls-5" d="M-2.33,48.92C18.17,33.99,34.87,16.4,44.97-7.1c10.11-23.55,12.88-48.92,21.01-73.08,.25-.75-.92-1.07-1.17-.32-7.01,20.75-9.73,42.52-17.1,63.15C37.88,10.22,20.55,30.77-2.92,47.84c-.62,.47-.05,1.55,.59,1.08h0Z"/>
                <path class="cls-5" d="M111.9-87.58c4.92,28.52-19.54,55.17-37.63,73.85C62.62-1.7,51.23,10.6,38.29,21.25,25.32,31.9,10.78,40.53-3.46,49.33c-.67,.41-.09,1.49,.58,1.08,14.38-8.9,28.73-17.77,42-28.29,15-11.89,28.03-26.57,41.21-40.41,16.89-17.72,37.28-43.3,32.75-69.58-.13-.79-1.32-.48-1.18,.29h0Z"/>
                <path class="cls-5" d="M186.59-57.33c-4.86,17.18-27.74,27.31-42.73,33.85-17.11,7.48-35.4,11.75-52.62,19C57.98,9.54,27.06,29.78-1.22,52.15c-.62,.5,.24,1.37,.85,.89C31.28,27.99,66.22,5.92,104.05-8.27c18.45-6.91,37.29-11.59,54.73-21.12,11.46-6.27,25.2-14.23,28.99-27.6,.21-.76-.96-1.09-1.18-.33h0Z"/>
                <path class="cls-5" d="M226.08,5.06c-15.69-12.51-38.41-13.33-57.72-13.68-23.39-.42-45.29,4.67-67.41,11.81C64.19,15.05,31.75,33.52-.67,54.56c-.66,.43-.07,1.51,.58,1.07C30.27,35.93,60.83,17.87,95.2,6.36,114.6-.14,133.44-5.43,153.96-6.97c22.34-1.66,53.02-1.64,71.24,12.89,.6,.49,1.49-.36,.88-.85h0Z"/>
                <path class="cls-5" d="M226.11,36.74c-15.88-13.32-35.74-18.57-55.57-23.06-17.01-3.87-32.28-5.85-49.79-3.89C78.27,14.55,36.72,33.44,1.06,56.53c-.67,.43-.09,1.5,.58,1.06C36.06,35.31,74.62,18.3,115.15,11.78c16.56-2.67,32.15-2.06,48.41,1.59,21.71,4.87,44.18,9.55,61.67,24.22,.6,.5,1.47-.34,.87-.85h0Z"/>
              </g>
              <path class="cls-5" d="M229.98,35.64c-3.62-.09-6.56-1.46-9.56-3.34-.67-.42-1.29,.64-.63,1.06,3.19,2.01,6.34,3.4,10.16,3.52,.79,.03,.82-1.21,.03-1.23h0Z"/>
              <path class="cls-5" d="M230.72,6.67c-5.01-3.3-9.99-6.43-15.71-8.37-.74-.24-1.08,.94-.33,1.19,5.62,1.9,10.49,5,15.41,8.24,.66,.43,1.29-.62,.63-1.06h0Z"/>
              <path class="cls-5" d="M205.66,79.54c-.54-1.31-.69-2.69-1.11-4.02-.53-1.67-1.61-3.07-2.72-4.38-.52-.6-1.39,.26-.88,.86,1.21,1.41,2.2,2.86,2.66,4.69,.3,1.17,.51,2.32,.97,3.45,.31,.72,1.37,.13,1.08-.6h0Z"/>
              <path class="cls-5" d="M191.48,94.22c-2.29-1.72-3.79-3.75-5.28-6.17-.42-.67-1.5-.08-1.08,.59,1.61,2.62,3.26,4.78,5.74,6.64,.62,.47,1.24-.6,.62-1.06h0Z"/>
              <path class="cls-5" d="M148.89,101.36c1.58-1.78,2.87-4.06,1.58-6.35-.39-.7-1.46-.1-1.07,.59,1.01,1.77-.14,3.54-1.35,4.88-.52,.59,.32,1.47,.84,.88h0Z"/>
              <path class="cls-5" d="M157.38,104.01c-2.27-1.85-4.82-4.54-5.93-7.28-.29-.73-1.36-.13-1.07,.59,1.15,2.83,3.78,5.64,6.12,7.53,.6,.48,1.5-.36,.87-.84h0Z"/>
            </g>
            <path class="cls-5" d="M224.65,60.19c-10.06-22.84-33.79-34.26-56.55-40.74-25.65-7.3-54.13-8.46-80.3-2.9-.78,.16-.49,1.34,.29,1.19,25.28-5.37,51.76-3.95,76.7,2.11,23.4,5.68,48.56,17.71,58.79,40.92,.33,.73,1.4,.13,1.07-.59h0Z"/>
            <path class="cls-5" d="M215.01,74.56c-5.69-17.83-26.36-31.64-42-39.57-16.03-8.11-34.3-14.15-52.33-15.22C78.3,17.22,35.01,36.14-.91,57.01c-.48,.28-.07,1.03,.4,.76C33.54,37.98,71.65,22.01,111.34,20.53c16.64-.63,31.64,3.64,47.14,9.23,20.22,7.29,48.59,22.7,55.71,45,.17,.53,1.01,.32,.83-.21h0Z"/>
            <path class="cls-5" d="M220.99,67.95c-15.27-25.93-50.04-45.73-79.4-49.75-31.07-4.26-67.01-1.07-94.54,15.32-.48,.29-.07,1.04,.4,.75,26.05-15.5,59.13-18.73,88.68-15.91,30.99,2.97,68.02,22.7,84.1,50,.29,.48,1.03,.06,.76-.4h0Z"/>
            <path class="cls-5" d="M205.34,84.4c-6.22-15.23-22.29-27.33-36.12-35.08-18.03-10.11-39.46-17.4-59.86-20.59-30.82-4.8-64.28,5.6-91.15,20.49-.48,.27-.08,1.02,.41,.75,25.48-14.11,54.78-22.57,84-21.07,20.13,1.04,41.27,9.28,59.33,17.67,16.25,7.56,35.58,20.96,42.64,38.24,.2,.51,.96,.1,.75-.41h0Z"/>
            <path class="cls-5" d="M202.36,91.96c-2.12-7.56-7.22-13.36-12.93-18.52-9.26-8.36-16.78-16.05-27.69-22.42-14.84-8.67-31.62-15.38-48.58-18.51-37.74-6.98-76.08,4.65-108.04,24.98-.46,.29-.05,1.05,.41,.75,30.39-19.32,64.83-29.63,100.83-25.85,14.62,1.54,28.49,6.71,41.8,12.67,10.86,4.86,21.83,10.91,30.66,18.97,8.35,7.62,19.56,16.91,22.71,28.15,.15,.52,.98,.32,.84-.21h0Z"/>
            <path class="cls-5" d="M199.65,95.58c-15.93-30.71-54.01-49.23-85.94-57.6-27.25-7.14-59.06-3.1-85.04,7.8-.51,.22-.1,.97,.41,.75,25.2-10.58,54.43-13.69,80.99-8.5,32.53,6.35,72.99,27.43,88.83,57.95,.25,.49,1,.08,.74-.41h0Z"/>
            <path class="cls-5" d="M186.68,102.15c-1.52-5.5-5.44-9.13-9.21-13.26-7.42-8.11-15.28-15.52-23.9-22.34-15.47-12.26-32.64-19.45-51.95-23.01-31.52-5.81-73.66-3.4-100.53,16.35-.44,.33-.03,1.08,.41,.76,25.5-18.76,62.8-20.68,92.99-17.3,19.2,2.15,36.78,8.72,52.71,19.57,7.98,5.42,15.25,11.92,22.18,18.63,5.6,5.42,14.32,13.08,16.47,20.82,.15,.53,.98,.32,.83-.21h0Z"/>
            <path class="cls-5" d="M182.96,107.22c-15.39-32.59-54.57-50.34-87.34-58.91-30.33-7.94-66.94-4.65-93.71,12.55-.47,.3-.06,1.05,.41,.75,26.14-16.8,59.86-19.29,89.66-13.25,33.59,6.79,74.82,26.67,90.23,59.29,.24,.5,.99,.08,.75-.41h0Z"/>
            <path class="cls-5" d="M174.72,109.09c-20.16-35.04-59.66-55.69-98.31-61.72-14.88-2.32-30.52-1.36-44.99,2.98-9.06,2.71-22.95,5.22-30.1,11.95-.41,.38,.19,.99,.59,.62,7.08-6.67,20.62-8.96,29.71-11.74,13.5-4.13,27.66-4.82,41.6-3.37,39.27,4.09,80.65,26.75,100.75,61.69,.28,.48,1.03,.07,.75-.41h0Z"/>
            <path class="cls-5" d="M145.16,102.38c-5.4-20.68-29.38-33.6-47.73-41.13-22.15-9.05-46.87-14.03-70.33-6.74-.53,.17-.33,1.01,.2,.83,21.71-6.74,44.33-2.84,65.15,4.85,19.54,7.21,46.23,20.77,51.88,42.4,.14,.53,.96,.32,.84-.21h0Z"/>
            <path class="cls-5" d="M140.27,103.79c-5.68-17.89-22.71-27.77-38.44-35.8-18.04-9.21-35.68-15.76-56.14-16.76-.55-.03-.57,.83-.02,.86,18.41,.9,34.21,6.2,50.63,14.13,17.11,8.27,36.97,18.35,43.14,37.78,.17,.52,1,.31,.83-.21h0Z"/>
            <path class="cls-5" d="M133.68,106.15c-3.96-12.63-17.39-22.36-27.18-30.3-11.85-9.59-26.02-17.54-40.88-21.19-.54-.14-.77,.69-.23,.82,13.97,3.42,25.92,10.73,37.63,18.81,10.37,7.15,25.9,19.52,29.84,32.05,.16,.52,.99,.32,.82-.2h0Z"/>
            <path class="cls-5" d="M126.63,105.29c-13.04-24.18-40.17-46.69-67.47-52.11-.53-.11-.77,.73-.24,.83,27.08,5.37,54.03,27.73,66.95,51.7,.28,.49,1.02,.07,.76-.42h0Z"/>
            <path class="cls-5" d="M106.93,100.27c-7.39-21.06-31.16-37.1-51.43-43.61-17.43-5.61-36-1.63-52.48,5.66-.51,.23-.1,.98,.4,.76,15.38-6.8,32.62-10.47,49.01-6.41,20.76,5.15,46.27,22.76,53.66,43.81,.18,.51,1.01,.32,.83-.21h0Z"/>
            <path class="cls-5" d="M103.27,102.62c-3.64-20.47-26.92-34.04-44.45-41-18.61-7.38-34.47-7.87-53.39-.29-.51,.2-.1,.96,.41,.76,18.26-7.32,32.14-6.23,50.14-.56,18.21,5.74,42.83,20.93,46.46,41.3,.1,.55,.93,.33,.83-.21h0Z"/>
            <path class="cls-5" d="M98.04,102.62c-2.76-14.27-17.63-25.49-29.36-32.6-12-7.27-29.42-16.14-43.89-13.42-.55,.1-.34,.93,.2,.84,13.83-2.62,29.7,5.84,41.38,12.24,12.08,6.62,28.1,18.98,30.84,33.14,.1,.55,.93,.34,.83-.2h0Z"/>
            <path class="cls-5" d="M91.43,103.16c-9.26-16.91-25.22-30.1-41.5-40.1-13.96-8.58-29.18-6.73-43.03,1.25-.48,.27-.07,1.02,.41,.75,15.34-8.84,30.48-9,45.18,.65,15.01,9.84,29.48,21.96,38.19,37.88,.27,.48,1.02,.06,.75-.42h0Z"/>
            <path class="cls-5" d="M60.24-68.17c-7.77,20.65-16.83,40.7-26.87,60.33C23.25,11.91,11.9,33.76-4.21,49.27c-.4,.38,.19,.99,.59,.61C11.65,35.17,22.52,14.86,32.23-3.76c10.87-20.83,20.56-42.19,28.84-64.18,.2-.51-.62-.73-.82-.22h0Z"/>
            <path class="cls-5" d="M54.34-59.48c-7.46,18.49-19.94,34.87-29.01,52.66C17.01,9.54,11.01,32.07-2.19,45.17c-.39,.39,.2,1,.59,.61C11.73,32.55,17.59,10.11,26.07-6.38c9.15-17.82,21.61-34.31,29.09-52.88,.21-.51-.62-.74-.82-.22h0Z"/>
            <path class="cls-5" d="M49.33-51.67c-7.98,13.35-16.71,26.29-24.06,40.01C22.17-5.89,18.69-.4,15.21,5.14c-3.68,5.89-5.45,12.7-8.49,18.91-.24,.49,.48,.93,.73,.42,2.51-5.11,4.3-10.5,6.66-15.69,3.16-6.95,8.24-13.27,11.88-20.01,7.41-13.69,16.08-26.65,24.07-40,.28-.48-.45-.91-.74-.44h0Z"/>
            <path class="cls-5" d="M56.49-50.18c-7.29,16.08-13.91,32.45-21.58,48.35C26.36,15.93,15.29,30.48,1.71,44.65c-.38,.41,.21,1.02,.59,.62C14.04,33.03,23.95,20.85,31.99,5.83c9.59-17.93,16.84-37.06,25.23-55.57,.22-.5-.51-.94-.74-.44h0Z"/>
            <path class="cls-5" d="M104.52-95.31c6.95,15.23-3.24,33.52-10.82,46.59-7.88,13.59-17.61,26.11-27.58,38.18C46.03,13.78,22.78,33.3-3.13,51.19c-.45,.31-.05,1.06,.41,.75C25.74,32.28,50.43,10.47,72.1-16.53c11.01-13.7,21.28-28.23,28.91-44.13,5.11-10.63,9.42-23.75,4.26-35.07-.23-.49-.98-.08-.75,.42h0Z"/>
            <path class="cls-5" d="M99.5-97.74c7.78,18.09-5.33,37.6-14.02,52.7C75.81-28.18,64.46-12.56,52.11,2.41c-8.66,10.5-17.97,20.23-28.71,28.55C15.02,37.45,6.2,43.44-1.87,50.33c-.43,.35,.17,.97,.59,.61,9.35-7.97,19.58-14.85,29.22-22.45C41.38,17.89,52.31,3.92,62.75-9.55c12.71-16.4,23.25-34.11,33.1-52.33,5.68-10.51,9.31-24.87,4.4-36.27-.22-.5-.97-.09-.75,.41h0Z"/>
            <path class="cls-5" d="M95.48-100.44c-31.28,8.65-34.75,54.13-42.21,79.91C44.52,9.73,23.23,30.61-1.97,48.04c-.45,.31-.05,1.06,.4,.75C16.34,36.4,34.17,21.63,45.03,2.52c8.57-15.09,11.82-32.9,16.1-49.5,5.16-20.01,12.04-46.41,34.55-52.63,.53-.14,.33-.98-.2-.83h0Z"/>
            <path class="cls-5" d="M97.69-98.39c-21.8,10.56-26.37,43.8-33.72,64.32C54.59-7.93,40.77,14.31,20.35,33.28c-.41,.38,.18,1,.59,.62C38.05,18.01,51.07-.29,60.17-21.84c4.11-9.71,7.39-19.79,10.7-29.79,5.39-16.32,10.49-37.89,27.22-46,.51-.24,.1-.99-.4-.75h0Z"/>
            <path class="cls-5" d="M97.97-99.44C86.69-51.53,59.61-6.69,26.36,29.07c-.37,.4,.22,1.02,.59,.61C60.31-6.18,87.48-51.15,98.78-99.21c.13-.54-.69-.77-.82-.23h0Z"/>
            <path class="cls-5" d="M184.49-67.31c.41,12.87-17.69,23.22-26.73,28.93-12.35,7.8-26.42,12.75-39.79,18.39C92.2-9.13,66.83,5.44,43.7,21.17c-.45,.31-.05,1.06,.41,.76C71.98,2.97,102.17-12.49,133.18-25.42c13.47-5.63,26.05-12.15,37.61-21.16,6.37-4.96,14.84-11.72,14.56-20.73-.01-.55-.87-.56-.86,0h0Z"/>
            <path class="cls-5" d="M158.75-90.85c-33.52-4.01-44.36,34.76-59.53,57.12C81.11-7.06,51.27,14.45,25.1,32.7c-.45,.32-.04,1.07,.41,.75C47.52,18.09,70.89,.69,88.9-19.31c10.22-11.34,17.65-24.31,24.88-37.69,9.67-17.95,22.44-35.68,44.96-32.99,.54,.07,.56-.79,.02-.86h0Z"/>
            <path class="cls-5" d="M181.12-73.84c-9.21,22.21-33.1,32.48-52.91,42.74-21.57,11.18-43.52,22.73-62.77,37.71-.43,.34,.16,.95,.59,.61,22.52-17.54,48.95-31.32,74.64-43.52,16.27-7.72,34.11-20.04,41.27-37.31,.21-.52-.61-.73-.83-.23h0Z"/>
            <path class="cls-5" d="M169.25-84.99c-28.3-6.12-40.56,19.82-53.48,40.11-7.98,12.54-20.32,22.94-31.34,32.68C71.13-.44,57.11,10.59,42.47,20.58c-.45,.3-.05,1.07,.41,.75C65.59,5.83,87.42-11.95,106.34-32c18.76-19.87,28.48-59.56,62.68-52.17,.53,.12,.78-.7,.23-.83h0Z"/>
            <path class="cls-5" d="M177.1-79.7c-26.18-1.54-39.21,21.79-55.27,38.53C102.22-20.74,79.38-2.84,56.25,13.31c-.45,.32-.05,1.07,.41,.76C76.99-.14,96.39-15.73,114.48-32.74c18.63-17.51,33.62-47.81,62.59-46.1,.55,.03,.57-.82,.03-.86h0Z"/>
            <path class="cls-5" d="M237.6,7.07c-9.52-14.87-31.39-20.13-47.65-21.82-19.95-2.07-41.59,1.78-61.02,6.55C82,3.33,38.14,28-2.17,54.17c-.46,.3-.06,1.05,.41,.75C35.31,30.85,74.6,9.21,116.87-3.95c17.12-5.33,34.76-8.29,52.58-9.85,21.46-1.89,54.42,1.04,67.39,21.28,.3,.46,1.05,.05,.75-.42h0Z"/>
            <path class="cls-5" d="M242.21,.91c-9.31-17.45-31.5-22.92-49.72-23-13.22-.07-26.34,3.87-39.44,5.31-6.39,.69-12.66,2.19-18.88,3.84C85.71-.03,39.43,25.3-1.89,53.39c-.45,.31-.05,1.07,.42,.76C37.08,27.92,79.02,5.62,123.35-8.84c14.72-4.79,29.25-6.6,44.4-9.21,24.38-4.21,59.76-6.76,73.71,19.36,.26,.48,1.01,.07,.75-.41h0Z"/>
            <path class="cls-5" d="M211.68-41.33c-15.72-6.75-29.77,1.24-43.06,9.45-13.63,8.41-27.82,13.18-42.93,18.08C86.7-1.15,48.58,14.4,16.81,41.15c-.43,.36,.17,.97,.59,.61C47.68,16.28,83.76,.95,120.89-11.34c10.79-3.57,21.82-6.66,32.29-11.12,18.75-8,36-27.61,58.06-18.12,.49,.2,.94-.53,.43-.75h0Z"/>
            <path class="cls-5" d="M226.92-29.41c-20.27-12.26-37.68-9.77-58.25,1.34-13.5,7.31-26.04,10.8-40.44,14.88C85.59-1.1,45.55,19.39,10.48,46.69c-.44,.34,.16,.96,.59,.62C45.11,20.81,83.62,1.09,124.8-11.29c7.86-2.37,15.94-3.97,23.77-6.4,10.47-3.24,19.83-9.62,29.65-14.32,16.95-8.09,32.59-6.14,48.26,3.34,.48,.29,.91-.46,.44-.74h0Z"/>
            <path class="cls-5" d="M232.92,34.64c-3.97-8.11-15.47-11.98-23.04-15.94-10.81-5.63-22.87-8.96-34.8-11.21-17.36-3.27-35.78-2.14-53.25-.05C77.14,12.76,35.66,32.38-.91,58.27c-.45,.32-.05,1.07,.4,.75C33.39,35.03,70.85,17.02,111.78,9.78c15.05-2.66,30.35-3.53,45.59-3.25,11.94,.23,23.69,2.65,35.08,6.11,7.12,2.16,13.91,5.2,20.49,8.63,6,3.14,16.13,7.42,19.24,13.78,.25,.5,.99,.08,.75-.42h0Z"/>
            <path class="cls-5" d="M235.46,28.2C216.25,2.13,175.57-1.77,145.96-.09,110.78,1.92,73.91,14.42,42.65,30.67c-.49,.26-.09,1.02,.4,.75C71.99,16.38,106.12,4.66,138.55,1.35c16.82-1.71,33.6-1.75,50.1,2.04,16.47,3.77,35.88,11.43,46.19,25.41,.33,.44,.94-.16,.61-.6h0Z"/>
            <path class="cls-5" d="M236.43,21.15C222.75,2.44,197.39-2.02,175.75-3.89c-16.43-1.41-33.28-.04-49.49,2.93C80.43,7.45,38.06,31.68-1.08,56.08c-.47,.3-.07,1.04,.4,.75C36.29,33.79,75.3,11.89,117.88,1.69c14.63-3.5,29.62-5.08,44.62-5.16,24.66-.13,57.43,3.5,73.18,25.04,.31,.43,1.07,.03,.75-.42h0Z"/>
          </g>
        </g>
        <g>
          <path class="cls-7" d="M185.89,98.79c-8.54,.45-17.79,6.11-26.56,7.67-17.77,3.17-27.73-7.27-37.11-18.94-15.63-19.44-40.69-21.6-68.55-15.23-14.66,3.36-29.4,8.77-44.32,14.24-9.45,3.47-16.01,4.35-23.08,.67-3.6-1.88-6.92-2.42-11.87-.22-.03,.02-.06,.05-.09,.07-.15,.07-.3,.17-.44,.29-.02,.02-.04,.04-.05,.05-.12,.11-.23,.25-.32,.4-.04,.07-.07,.12-.11,.19,0,.01-.01,.02-.02,.04-.11,.09-.22,.23-.29,.38-.06,.09-.11,.19-.12,.32-.01,.04-.01,.09-.01,.13,0,0-.02,.01-.03,0-.02,0-.05,.02-.07,.03-.04,.02-.06,.04-.09,.05-.15,.1-.28,.27-.35,.45,0,.02-.01,.05-.02,.06,0,.03,0,.04,0,.07,0,.05,0,.11,.02,.17h0c.05,.14,.09,.29,.14,.42-.14,.37-.28,.74-.42,1.11-.17,.17-.3,.43-.25,.67,0,.02,.01,.04,.02,.06-.93,2.73-1.69,5.52-2.31,8.34-.21-.18-.69,.03-.78,.53-.66,3.88-.96,7.56-1.01,11.1-.89,9.55-.36,18.76,1.12,26,3.3,16.21,12.47,25.47,24.38,32.1,14.51,8.11,30.53,13.62,45.32,21.26,13.93,7.18,28.24,13.94,41.48,22.26,14.13,8.87,26.98,19.98,34.83,36.63,4.28,9.07,10.08,18.85,21.16,18.05,9.48-.68,27.64-8.29,34.92-21.35,6.03-10.82,.77-16.96-4.66-21.04,15.97-7.16,43.92-32.66,35.58-48.47,11.09-6.48,24.48-27.76,21.69-38.66-.91-3.56-2.53-6.53-4.98-8.53-.64-.52-3.7-1.75-4.04-2.97,.23-.26,.36-.68,.13-.83-.03-.02-.05-.03-.07-.05,.17-1.05,.31-2.05,.17-3.02-.8-5.69-4.82-9.21-9.62-10.12,8.69-13.6-12.97-14.72-19.31-14.37Z"/>
          <g>
            <path class="cls-5" d="M159.15,107.81c-28.21,7.88-59.01,5.32-87.96,6.03-18.16,.44-36.6,1.33-54.14-4.11-7.23-2.25-14.03-6.01-20.96-9.01-2.81-1.22-20.97-8.14-20.92-11.97,0-.62-.95-.74-.95-.12-.07,5.61,23.85,13.98,27.98,15.85,17.86,8.09,34.41,10.75,54.07,10.65,16.89-.09,33.79-.75,50.69-.97,17.58-.23,35.5-.7,52.57-5.47,.59-.16,.22-1.05-.36-.88h0Z"/>
            <path class="cls-5" d="M146.02,107.85c-30.21-4.26-60.82-11.5-91.4-4.8-27.88,6.11-53.51-2.34-78.75-14.3-.56-.27-.92,.63-.36,.9,23.25,11.02,48.74,20.51,74.82,15.33,32.82-6.54,63.09-.76,95.56,3.84,.62,.08,.74-.87,.13-.97h0Z"/>
            <path class="cls-5" d="M135.13,103.68c-24-10.84-47.56-12.45-73.56-10.09-15.93,1.46-31.79,5.14-47.82,4.71-12.27-.33-26.39-4.95-37.26-10.48-.56-.28-.91,.61-.36,.89,22.72,11.56,45.32,11.11,69.92,7.64,30.84-4.34,59.94-4.78,88.72,8.22,.57,.26,.92-.64,.36-.89h0Z"/>
            <path class="cls-5" d="M128.6,97.24c-20.8-14.56-42.89-17.76-67.69-13.86-27.4,4.31-59.13,18.22-86.06,4.86-.55-.27-.91,.62-.36,.9,21.01,10.42,44.86,3.7,66.38-.92,31.23-6.7,59.73-9.4,87.15,9.79,.51,.35,1.08-.42,.57-.77h0Z"/>
            <g>
              <path class="cls-5" d="M-26.59,88.19c-8.1,21-9.5,51.3,4.81,69.71,7.61,9.79,20.88,15.08,31.79,20.02,15.7,7.09,31,14.54,46.33,22.39,13.68,7,27.18,14.07,39.07,23.92,12.01,9.97,16.84,23.31,25.44,35.64,9.8,14.06,26.27,7.2,38.16-.34,5.76-3.65,14.37-10.97,15.02-18.43,.25-2.93,.23-5.73-1.52-8.27-1.04-1.5-1.95-2.86-3.32-4.1-1.07-1.04-2.23-2-3.45-2.88-.95,1.17-.69,1.33,.8,.44,13.9-5.21,27.19-18.62,34.32-31.41,2.67-4.8,3.82-10.25,2.08-15.5-.95-2.86,.24-1.92,3.26-4.26,4.35-3.35,7.62-8.26,10.59-12.8,4.68-7.17,8.36-15.15,6.93-23.77-.47-2.88-2.94-6.43-5.22-8.07-3.86-2.75-2.88-5.23-4.08-9.45-.91-3.19-4.26-5.27-6.94-6.71-3.8-2.01-.18,.08,.08-4.72,.29-5.56-4.3-8.21-9.27-9.27-7.9-1.7-15.3-1.47-22.9,1.28-7.93,2.85-15.51,5.99-24.06,6-12.8,.02-21.93-9.92-28.86-19.42-14.89-20.44-40.76-20.49-63.41-16.56-15.82,2.75-31.61,8.03-46.49,14.03-8.87,3.57-17.1,6.83-26.12,2.15-4.5-2.34-7.59-2.27-12.27-.36-1.64,.67-.6,3.2,1.03,2.54,7.11-2.9,10.47,1.25,16.29,3.1,2.96,.94,6.34,0,9.24-.57,11.62-2.31,22.92-8.22,34.2-11.87,22.54-7.29,51.77-14.46,73.54-1.69,16.54,9.7,22.59,33.32,45.58,31.36,9.79-.83,18.01-5.69,27.42-7.88,6.66-1.54,29.69-.34,20.67,11.52-.63,.82-.1,2.06,.92,2.18,6.69,.78,10.45,5.79,8.73,12.54-.16,.63,.34,1.2,.84,1.45,19.01,9.53,.97,39.72-13.06,45.88-.85,.36-1.07,1.38-.57,2.11,11.47,16.51-22.75,42.49-36.12,46.54-1.01,.31-1.1,1.82-.3,2.38,16.1,11.07,4.06,25.33-8.54,32.33-9.82,5.45-21.06,9.87-29.8,.37-7.09-7.72-10.34-18.92-16.91-27.27-8.15-10.35-19.43-17.89-30.66-24.45-23.48-13.72-48.42-24.63-73.05-36.01-16.85-7.78-28.78-18.09-32.15-37.16-2.51-14.23-.75-32.06,4.47-45.62,.64-1.64-1.89-2.67-2.53-1h0Z"/>
              <path class="cls-5" d="M163.84,224.83c-21.04,8.72-33.9-8.39-47.36-21.54-8.43-8.24-16.16-17.75-25.5-24.95-8.06-6.23-18.59-9.4-28.25-12.08-18.14-5.04-36.67-8.43-53.91-16.26-20.73-9.42-42.48-32.44-35.08-56.8,.17-.59-.71-.95-.89-.35-2.67,8.82-2.47,12.94,.64,21.94,3.41,9.9,9.88,18.31,17.61,25.17,15.6,13.86,37.65,18.77,57.35,23.64,13.49,3.34,27.01,6.56,39.13,13.6,7.68,4.47,12.97,11.92,19.14,18.12,5.44,5.45,11.1,10.66,16.54,16.12,11.82,11.87,23.76,21.41,40.94,14.27,.57-.24,.21-1.12-.36-.89h0Z"/>
              <path class="cls-5" d="M201.44,179.95c1.81-10.93-22.19-20.43-29.56-22.79-21.98-7.03-46.86-6.69-69.71-7.68-24.73-1.06-50.12-2.25-73.46-11.09-10.74-4.07-20.42-10.39-29.5-17.33-9.62-7.35-22.91-17.04-26.09-29.3-.16-.6-1.1-.47-.95,.13,3.95,15.24,22.34,27.33,34.36,35.72,16.22,11.32,34.89,16.92,54.33,19.6,24.88,3.43,50.08,3.08,75.08,5.1,13.04,1.05,26.34,2.78,38.81,6.77,5.87,1.87,27.23,11.82,25.76,20.75-.1,.61,.85,.72,.95,.11h0Z"/>
              <path class="cls-5" d="M215.11,130.93c-16.02-7.06-33.81-7.62-50.92-4.97-24.94,3.87-49.86,8.33-75.16,8.28-21.22-.04-43.23-2.52-63.7-8.1-18.61-5.07-45.64-16.81-51.74-36.7-.18-.59-1.07-.22-.88,.37,4.92,16.07,22.79,25.53,37.34,31.99,19.07,8.45,40.51,10.92,61.12,12.48,23.78,1.8,46.95-.29,70.52-3.82,24.68-3.7,49.21-9.15,73.05,1.36,.56,.25,.93-.64,.36-.9h0Z"/>
              <path class="cls-5" d="M207.89,116.62c-35.56-10.93-73.39-.18-109.27,3.99-44.92,5.22-90.48-.62-124.61-32.22-.46-.42-1.03,.35-.58,.76C3.3,116.81,39.88,123.94,79.64,123.01c42.41-.99,85.97-18.38,127.89-5.49,.59,.17,.95-.71,.36-.9h0Z"/>
              <path class="cls-5" d="M189.03,207.56c-39.19,29.93-64.34-20.24-94.22-37.31-40.13-22.94-128.1-12.66-120.61-81.41,.06-.62-.89-.74-.95-.12-2.76,25.3,10.78,44.69,32.75,55.74,11.98,6.02,26.27,8.15,39.27,10.94,15.84,3.42,31.57,7.1,46.24,14.18,32.22,15.58,57.07,70.07,98.11,38.74,.49-.38-.09-1.13-.59-.76h0Z"/>
              <path class="cls-5" d="M199.14,196.12c3.28-11.02-9.48-19.99-17.76-24.38-20.39-10.84-45.26-8.52-67.56-11.4-51.71-6.68-108.65-15.16-140.22-61.63-.35-.51-1.1,.08-.76,.6,23.43,34.47,60.57,48.29,99.97,55.13,23.82,4.13,47.26,7.93,71.42,9.55,11.43,.77,22.7,2.38,33.31,6.88,8.61,3.64,24.08,13.6,20.71,24.9-.18,.59,.71,.95,.89,.35h0Z"/>
              <path class="cls-5" d="M195.83,200.91c-21.17,11.4-41.39-4.11-58.06-16.28-20.65-15.07-46.02-15.49-69.22-24.51-.57-.22-.94,.67-.36,.89,13.88,5.4,28.61,7.68,42.92,11.63,12.74,3.52,22.61,10.31,33.14,17.89,15.21,10.96,33.55,21.17,51.94,11.27,.54-.28,.18-1.18-.36-.88h0Z"/>
              <path class="cls-5" d="M195.54,201.25c-6.63-20.49-37.17-22.44-54.72-26.5-16.5-3.82-33.13-6.7-49.45-11.28-5.45-1.54-10.69-3.09-16.22-4.22-38.13-7.77-91.28-20.4-102.07-64.23-.15-.6-1.09-.47-.94,.13,9.35,38.02,51.37,53.01,85.25,61.24,16.28,3.96,32.47,7.95,48.73,11.98,15.21,3.77,30.74,6.45,46.01,9.98,15,3.46,37.02,6.25,42.53,23.27,.19,.6,1.08,.23,.88-.36h0Z"/>
              <path class="cls-5" d="M212.68,164.61c-10.74,4.98-20.19-2.4-28.19-8.83-5.99-4.79-11.86-8.03-19.43-9.57-14.44-2.94-30.63-.91-45.36-.61-42.19,.86-87.61-3.86-121.73-30.89-.48-.37-1.05,.39-.57,.77,32.55,25.8,75.67,31.47,116.08,31.15,18.31-.15,38.47-3.15,56.24,1.65,14.83,4.02,26.07,25.22,43.33,17.2,.56-.26,.19-1.15-.37-.88h0Z"/>
              <path class="cls-5" d="M221.28,144.85c-14.03,6.77-25.23-8.76-38.74-10.9-10.71-1.69-22.49-.5-33.32-.09-27.73,1.03-56.15,3.64-83.64-.98-.61-.1-.73,.85-.12,.96,26.66,4.49,54.38,2.2,81.27,1.08,14.25-.59,30.93-2.86,44.43,2.27,11.24,4.25,17.53,14.81,30.49,8.56,.55-.27,.19-1.16-.36-.89h0Z"/>
              <path class="cls-5" d="M218.57,154.19c-18.1,11.68-26.59-8.28-42.11-12.39-11.16-2.97-23.88-1.74-35.31-1.51-42.18,.85-86.43,2.73-125.97-14.22-.56-.24-.92,.65-.35,.9,38.88,16.67,82.49,15.27,124.03,14.33,13.53-.3,32.19-3.1,44.28,4.55,12.16,7.7,21.31,18.6,36.01,9.11,.51-.33-.07-1.09-.59-.76h0Z"/>
              <path class="cls-5" d="M214.98,126.72c-14.45-9.67-32.67-8.93-49.32-7.19-22.85,2.38-45.01,8.52-68.02,9.83-41.14,2.34-96.69-5.37-124.1-40.02-.39-.49-1.14,.11-.76,.59,23.23,29.38,67.04,39.01,102.61,40.54,23.28,1,45.75-2.48,68.57-6.66,22.25-4.06,50.39-9.71,70.45,3.69,.51,.35,1.09-.43,.57-.77h0Z"/>
              <path class="cls-5" d="M167.65,228.87c-21.63,10.56-37.62,4.87-52.63-12.44-13.25-15.27-26.56-27.02-44.23-37.23-19.51-11.28-41.87-14.06-62.34-22.93-25.6-11.11-38.08-34.03-35.84-61.73,.05-.62-.9-.74-.95-.12-1.85,22.91,5.26,42.22,24.03,55.72,21.2,15.26,49.18,16.09,71.91,28.37,13.36,7.21,26.41,15.93,36.99,26.89,6.23,6.45,11.22,13.93,17.74,20.15,13.53,12.86,29.6,12.06,45.68,4.2,.55-.27,.19-1.17-.36-.88h0Z"/>
              <path class="cls-5" d="M172.29,236.02c-18.7,11.91-39.27,8.22-55.91-5.11-7.41-5.93-12.76-14.13-19.55-20.72-7.52-7.31-15.62-13.47-24.67-18.75-38.09-22.26-101.41-29.07-101.44-85.28,0-.62-.94-.48-.95,.13,.03,56.99,65.84,64.91,104.59,87.54,20.06,11.72,31.25,33.06,51.13,44.46,15.24,8.74,32.65,7.88,47.39-1.51,.53-.34-.07-1.09-.58-.76h0Z"/>
              <path class="cls-5" d="M170.86,242.16c-8.35,9.03-18.37,14.64-30.81,13.87-11.27-.7-18.84-8.13-26-16-15.83-17.38-28.54-33.51-49.59-44.8-39.6-21.26-103.68-36.23-94.43-94.18,.09-.62-.85-.73-.95-.11-3.42,21.44,2.86,40.44,18.96,54.86,8.16,7.32,18.62,11.89,28.32,16.71,14.77,7.33,29.73,14.27,44.37,21.84,16.25,8.39,28.37,18.17,40.35,32.02,8,9.27,15.45,20.6,26.26,26.79,15.59,8.93,32.93,1.84,44.28-10.42,.42-.46-.35-1.03-.76-.57h0Z"/>
            </g>
          </g>
        </g>
        <g>
          <path class="cls-7" d="M86.49,104.78c-7.37,1.05-14.16,5.4-21.05,8.53-8.35,3.79-16.9,5.47-25.71,6.4-14.97,1.57-28.44,4.04-42.08,12.45-6.84,4.21-13.48,8.94-20.38,13.01-6.71,3.96-13.45,6.52-20.51,9.18-8.78,3.31-14.94,8.78-17.5,19.28-.6,.09-1.21,.73-1.09,1.7,.11,.92,.22,1.86,.33,2.77,.04,.29,.16,.5,.3,.66,2.88,10.38,12.78,10.11,19.84,15.34,10.8,8,12.47,28.24,13.02,42.53,.78,20.22,.72,47.82,21.49,48.63,.87,19.19,14.57,28.92,28.94,29.31,.74,9.71,2.96,18.94,10.13,24.21,7.35,5.43,14.48,6.28,21.36,.11,3.05,13.36,16.37,7.17,22.24-1.55,5.5,6.74,14.87,3.46,21.2-.04,7.27-4.02,16.21-10.17,20.85-18.87,3.91,5.28,10.46,2.06,14.7-2.18,4.44-4.45,6.92-11.36,7.11-18.38,2.51,3.87,6.14,5.77,10.94,3.63,7.61-3.41,10.49-13.98,10.81-23.12,.47-12.93-.43-25.96-3.55-38.32-1.41-5.63-3.07-11.23-5.32-16.42-1.31-3.01-3.6-5.38-1.54-8.46,1.02-1.52,1.99-3.19,2.76-4.93,10.68-23.59-.63-53.03-20.22-61.85-6.46-2.92-17.3-.34-16.38-13.04,.46-6.46,.23-13.14-2.86-18.66-6.05-10.76-17.88-13.35-27.81-11.92Z"/>
          <g>
            <path class="cls-5" d="M-61.47,176.35c1.05,7.12,4,10.9,10.66,13.66,6.35,2.64,10.85,3.99,14.83,10.29,4.14,6.54,5.37,15.55,6.41,23.03,2.46,17.57-1.71,38.59,8.03,54.32,2.73,4.41,8.13,7.36,13.28,7.46,.83,.01,4.05,13,4.55,14.12,1.58,3.46,4.2,6.19,6.98,8.69,5.88,5.27,18.27,3.63,19.12,11.68,.86,8.1,4.38,15.64,11.27,20.19,6.55,4.33,12.37,4.62,18.94,.03-.08,.06,4.84,6.95,7.77,6.93,6.01-.05,12.32-4.18,15.46-9.33-1.67,2.74,10.86,3.55,11.74,3.34,7.44-1.74,14.26-5.8,20.01-10.82,3.05-2.66,6.12-5.44,8.48-8.76,2.87-4.04,.55-2.41,4.04-.56,5.51,2.94,12.14-3.79,15.23-7.49,5.05-6.05,5.11-16.54,3.5-23.77-.78,.25-1.58,.51-2.36,.77,4.26,16.06,17.35,14.57,23.22-.22,3.55-8.95,2.18-20.84,1.49-30.12-.85-11.44-3.54-22.73-7.47-33.45-2.02-5.48-4.25-8.46-.8-14.26,2.27-3.82,3.48-8.21,4.47-12.48,1.95-8.36,.58-17.2-1.94-25.22-2.45-7.83-7.39-14.64-13.28-20.18-7.07-6.64-25.36-7.1-24.93-18.35,.6-15.68-4.27-27.31-20.46-30.76-7.64-1.62-15.19,.51-22.11,3.83-14.75,7.07-27.96,10.13-44.15,11.88-21.47,2.35-36.83,14.61-54.89,25.39-16.6,9.93-33.59,9.21-37.27,31.27,.8,.19,1.61,.36,2.41,.54,.07-.49,.15-.97,.22-1.45,.22-1.58-2.18-2.13-2.41-.54-.07,.49-.14,.96-.21,1.45-.23,1.57,2.15,2.14,2.41,.54,2.81-16.82,13.34-19.19,27.04-24.97,11.37-4.79,21.37-12.71,31.85-19.14,13.41-8.24,26.86-10.14,42.16-11.8,13.61-1.47,24.5-6.81,36.85-12.25,14.67-6.46,31.36-1.61,35.79,14.5,2.23,8.13-3.3,17.85,5.06,23.01,4.84,3,11.53,2.44,16.7,5.45,7.33,4.26,12.34,11.9,15.78,19.45,6.65,14.63,4.17,31.41-4.97,44.33-.26,.37-.14,.88,.04,1.25,6.25,12.02,9.5,24.84,11.25,38.25,.81,6.14,.93,12.35,.84,18.54,0,3.65-.29,7.28-.89,10.9-1.46,9.97-16.59,14.55-19.44,3.81-.41-1.56-2.7-.78-2.36,.77,1.12,5.04,.73,9.75-.23,14.78-.77,4.03-11.31,21.12-17.45,10.42-.46-.8-1.74-.74-2.14,.09-4.69,9.72-29.93,33.08-39.88,19.12-.56-.78-1.64-.73-2.14,.09-3.27,5.37-16.4,17.6-19.15,1.8-.18-1.04-1.31-1.61-2.14-.79-16.96,16.8-28.09-8.92-29.04-22.49-.05-.71-.6-1.17-1.29-1.18-16.59-.23-27.06-11.66-27.59-28.1-.03-.71-.62-1.17-1.3-1.18-24.9-.5-19.24-39.69-20.9-56.64-.99-10.21-3.08-20.67-8.6-29.41-6.42-10.16-21.51-6.08-23.63-20.4-.23-1.57-2.71-1.46-2.47,.12Z"/>
            <g>
              <g>
                <path class="cls-5" d="M75.94,337.18c10.52-36.7-7.21-82.43-30.04-110.84-24.53-30.54-67.58-47.24-105.31-52.35-.78-.11-1.06,1.09-.27,1.2,37.2,5.05,76.59,21.08,102.35,49.25,24.69,27.02,42.47,76.13,32.06,112.45-.22,.78,.98,1.05,1.21,.28h0Z"/>
                <path class="cls-5" d="M54.86,336.61c5.19-38.27-8.87-76.58-30.6-107.41-9.1-12.9-20.33-23.82-33.24-32.84-14.02-9.79-30.39-20.57-48.14-20.62-.79,0-.74,1.25,.06,1.25,18.43,.04,35.65,11.92,50.05,22.3,12.75,9.19,23.11,20.49,32.18,33.34,20.76,29.44,33.42,67.38,28.49,103.71-.1,.79,1.09,1.06,1.21,.27h0Z"/>
                <path class="cls-5" d="M24.8,312.87c8.84-26.17-1.42-54.65-14.01-77.61-15.99-29.16-39.94-45.46-70.59-57.14-.73-.28-1.32,.82-.59,1.1,28.33,10.81,50.65,25.34,66.93,51.3,14.59,23.22,26.31,54.7,17.04,82.09-.26,.76,.95,1.02,1.21,.26h0Z"/>
                <path class="cls-5" d="M-54.47,164c23.11,2.49,46.11,.95,67.22-9.63,23.84-11.93,42.53-30.67,64.92-44.78,.67-.44,.02-1.48-.66-1.05-18.14,11.43-33.6,26.37-51.86,37.59-24.88,15.28-50.69,19.75-79.36,16.65-.78-.08-1.07,1.13-.27,1.22h0Z"/>
                <path class="cls-5" d="M115.42,136.3c-14.87,26.06-50.04,30.24-76.64,32.34-14.99,1.18-29.93,2.76-44.96,2.24-16.63-.58-33.07-4.14-49.35-7.3-.79-.15-1.06,1.07-.28,1.22,16.47,3.19,32.88,6.37,49.68,7.32,18.75,1.08,38.08-1.44,56.76-3.28,23.74-2.33,53.03-9.46,65.87-31.96,.4-.71-.69-1.28-1.09-.58h0Z"/>
                <path class="cls-5" d="M149.67,213.42c-14.53,10.23-38.79,1.74-53.74-3.82-16.34-6.07-31.29-15.29-47.67-21.3-33.35-12.24-68.59-18.59-104-20.89-.8-.05-.74,1.19,.05,1.25,40.98,2.65,82.75,10.44,120.15,27.82,16.75,7.79,32.77,16.29,50.97,20.2,11.6,2.51,24.48,5.12,34.89-2.21,.65-.46,0-1.51-.66-1.05h0Z"/>
                <path class="cls-5" d="M137.97,291.15c-3.02-19.79-17.4-35.68-30.64-49.73-15.92-16.9-34.67-29.02-55.32-39.16-34.9-17.13-70.59-26.04-108.9-32.54-.78-.12-1.06,1.09-.28,1.22,35.55,6.02,69.65,13.74,102.27,29.35,18.25,8.74,34.96,18.18,50.39,31.54,17.15,14.86,37.67,36.03,41.24,59.38,.11,.78,1.36,.72,1.23-.06h0Z"/>
                <path class="cls-5" d="M117.62,316.41c-2.49-19.4-11.54-36.23-21.74-52.54-9.14-14.59-18.04-27.9-31.12-39.2-33.41-28.87-78.75-44.81-121.68-52.16-.78-.13-1.06,1.09-.27,1.22,41.49,7.1,82.57,22.2,116.23,47.9,13.54,10.33,22.88,22.94,32.08,37.11,11.54,17.77,22.52,36.28,25.27,57.73,.11,.79,1.34,.73,1.24-.06h0Z"/>
              </g>
              <path class="cls-5" d="M151.21,222c-3.06-5.39-9.3-4.5-14.62-3.93,.02,.41,.04,.83,.06,1.24,3.82-.56,7.66-.96,11.49-1.52,.78-.12,.73-1.36-.06-1.25-3.82,.56-7.66,.97-11.48,1.52-.78,.11-.75,1.33,.06,1.24,4.8-.52,10.7-1.61,13.51,3.36,.39,.69,1.44,.02,1.05-.68h0Z"/>
              <path class="cls-5" d="M119.3,146.12c-6.29-.39-11.72,2.31-17.34,4.85,.17,.37,.34,.74,.51,1.11,4.67-3.52,9.31-6.71,12.93-11.41,.49-.63-.41-1.49-.9-.84-3.55,4.6-8.12,7.75-12.69,11.21-.53,.39-.17,1.42,.51,1.12,5.52-2.49,10.84-5.17,17.03-4.79,.8,.05,.73-1.19-.05-1.24h0Z"/>
              <path class="cls-5" d="M121.1,318.32c-2.57-2.68-3.79-5.91-4.72-9.47-.2-.78-1.38-.4-1.17,.38,.97,3.78,2.32,7.15,5.05,10,.56,.57,1.39-.34,.84-.91h0Z"/>
              <path class="cls-5" d="M140.27,295.73c-1.46-6.15-3.02-12.16-5.91-17.81-.36-.71-1.4-.04-1.05,.67,2.84,5.54,4.34,11.48,5.78,17.52,.19,.78,1.37,.4,1.17-.38h0Z"/>
              <path class="cls-5" d="M75.4,336.02c.44-1.42,1.24-2.66,1.79-4.03,.69-1.71,.81-3.55,.84-5.36,.01-.81-1.21-.74-1.24,.06-.04,1.98-.25,3.86-1.11,5.67-.54,1.13-1.12,2.2-1.5,3.41-.25,.76,.96,1.03,1.21,.27h0Z"/>
              <path class="cls-5" d="M55.75,337.67c-.54-2.98-.31-5.71,.16-8.69,.13-.79-1.07-1.06-1.21-.27-.51,3.22-.72,6.13-.14,9.34,.15,.78,1.33,.39,1.18-.39h0Z"/>
              <path class="cls-5" d="M20.53,313.1c2.41-.3,4.71-1.3,5.23-3.93,.16-.79-1.05-1.05-1.21-.28-.4,2.05-2.23,2.72-4.09,2.96-.79,.1-.73,1.35,.06,1.24h0Z"/>
              <path class="cls-5" d="M24.97,321.26c-.46-3.11-.58-6.99,.41-10.01,.25-.76-.97-1.03-1.22-.28-1.01,3.12-.9,7.15-.43,10.35,.12,.78,1.36,.73,1.24-.06h0Z"/>
            </g>
            <path class="cls-5" d="M101.49,334.07c14.7-50.15-31.05-107.03-70.33-131.87-.68-.43-1.25,.68-.59,1.1,38.88,24.58,84.23,80.98,69.71,130.49-.22,.77,.99,1.04,1.21,.28h0Z"/>
            <path class="cls-5" d="M85.32,338.69c6.83-16.92,2.13-39.66-3-56.3-5.67-18.35-15.19-37.43-27.61-52.09-27.79-32.8-72.69-49.61-113.36-58.8-.54-.13-.74,.72-.19,.85,39.2,8.85,78.84,24.44,107.89,53.13,13.06,12.89,21.33,29.75,28.48,46.48,7.88,18.45,15.01,46.59,7.03,66.32-.21,.52,.56,.92,.77,.41h0Z"/>
            <path class="cls-5" d="M93.86,337.65c5.8-32.07-6.58-71.29-25.72-96.8-18.35-24.48-46.83-47.52-77.2-54.03-.54-.12-.74,.74-.19,.85,30.63,6.57,57.7,29.49,76.66,53.64,19.29,24.58,31.24,64.98,25.61,96.15-.1,.56,.74,.75,.84,.19h0Z"/>
            <path class="cls-5" d="M72.02,339.67c5.37-16.7,1.63-37.33-3.4-53.59-6.15-19.87-16.34-39.76-28.2-56.73-18.28-26.18-50.03-42.92-80.31-50.49-.54-.14-.73,.72-.19,.85,30.76,7.69,60.39,24.48,79.76,50.1,11.67,15.41,20.25,34.64,26.82,52.71,6.07,16.68,10.31,39.47,4.68,56.95-.17,.53,.67,.72,.84,.19h0Z"/>
            <path class="cls-5" d="M65.03,343.57c3.89-9.03,3.11-18.39,2.25-27.95-1.09-12.22-1.93-22.79-5.47-34.65-5.13-17.12-12.81-34.19-23.17-48.78-21.99-30.93-56.49-49.41-93.25-56.06-.55-.1-.75,.75-.2,.85,36.21,6.54,68.65,24.39,91.33,53.81,8.88,11.52,15,25.1,20.32,38.57,4.42,11.17,8.1,23.21,9.19,35.23,1.1,12.11,3.14,27.14-1.78,38.55-.22,.51,.54,.93,.77,.41h0Z"/>
            <path class="cls-5" d="M60.76,344.54c8.02-35-6.36-74.35-23.24-104.38-14.31-25.47-40.37-46.21-67.56-56.58-.51-.19-.92,.57-.41,.77,26.43,10.08,49.7,29.36,65.16,52.86,18.99,28.87,33.17,72.44,25.2,107.13-.12,.55,.72,.74,.85,.19h0Z"/>
            <path class="cls-5" d="M47.2,340.56c2.45-5.49,1.97-11.17,1.9-17.09-.1-10.4-.8-20.63-2.21-30.93-2.64-19.36-8.92-37.08-19.36-53.49-18.04-28.39-51.67-60.09-86.59-63.83-.55-.05-.75,.8-.2,.86,32.9,3.52,62.53,31.56,81.52,56.88,10.85,14.46,17.78,30.69,21.75,48.32,2.25,10.02,3.3,20.34,3.96,30.6,.54,8.38,1.96,20.43-1.56,28.3-.23,.52,.54,.92,.77,.4h0Z"/>
            <path class="cls-5" d="M41.27,341.97c9.52-35.53-5.65-75.52-23.04-105.8-16.18-28.19-44.73-53.85-77.31-59.6-.55-.1-.74,.75-.19,.84,32.82,5.79,60.03,31.38,76.78,59.22,17.73,29.48,32.26,70.36,22.93,105.15-.14,.55,.7,.73,.85,.19h0Z"/>
            <path class="cls-5" d="M34.14,337.62c7.83-41.09-6.16-84.55-29.91-117.51-8.98-12.45-20.83-23.41-34.45-30.52-8.43-4.4-20.36-12.47-30.23-12.29-.56,0-.52,.88,.04,.87,9.58-.17,21.44,7.91,29.77,12.19,14.71,7.55,26.5,19.63,36.09,32.93,22.78,31.61,35.3,75.02,27.84,114.14-.1,.56,.74,.74,.85,.19h0Z"/>
            <path class="cls-5" d="M17.2,311.28c9.72-21.17,.06-48.31-8.59-68.26-9.41-21.71-24.05-42.77-45.51-53.63-.5-.25-.91,.51-.41,.77C-15.79,201.04-1.99,221.8,7.78,243.28c8.88,19.53,18.1,47,8.65,67.6-.23,.5,.53,.92,.77,.4h0Z"/>
            <path class="cls-5" d="M12.78,308.95c7.74-19.24,1.05-40.07-5.59-58.52-6.8-18.85-14.96-35.59-28.6-50.47-.38-.41-.97,.23-.6,.63,12.82,13.98,20.71,29.54,27.3,47.21,7.07,18.96,14.75,40.82,6.73,60.74-.21,.51,.55,.92,.76,.41h0Z"/>
            <path class="cls-5" d="M6.53,306.15c5.34-13.05,1.89-30.04-.06-43.42-2.31-15.93-7.27-32.22-15.76-45.89-.29-.48-1.02-.01-.73,.47,7.95,12.81,11.76,27.07,14.95,41.7,2.9,13.27,6.17,33.71,.84,46.72-.22,.51,.55,.93,.76,.42h0Z"/>
            <path class="cls-5" d="M2.01,300.45c6.14-28.36,1.54-65.13-15-89.39-.32-.46-1.05,0-.74,.46C2.68,235.59,7.24,272.13,1.16,300.27c-.12,.56,.73,.75,.85,.19h0Z"/>
            <path class="cls-5" d="M65.81,115.12c-18.78,10.9-38.18,20.46-58.12,29.01-19.75,8.48-42.09,17.91-63.73,18.84-.55,.02-.52,.9,.03,.88,20.52-.89,41.5-9.44,60.28-17.32,21.3-8.93,42-19.08,62.01-30.68,.48-.28,.02-1.01-.47-.73h0Z"/>
            <path class="cls-5" d="M55.99,117.84c-16.84,9.15-36.13,13.37-53.72,20.97-8,3.46-15.85,7-23.66,10.91-9.15,4.59-20.14,10.8-30.55,11.43-.55,.04-.52,.9,.04,.88,17.22-1.05,34.85-14.16,50.43-20.67,18.99-7.94,39.85-12.95,57.93-22.78,.5-.26,.03-1-.46-.73h0Z"/>
            <path class="cls-5" d="M47.36,120.52c-14.32,4.97-28.96,9.12-43.02,14.82-5.93,2.4-11.95,4.3-18.03,6.26-6.5,2.09-12.07,6.24-18.27,9.04-.51,.23-.25,1.05,.26,.83,12.09-5.47,23.97-10.37,36.3-15.32,14.08-5.64,28.7-9.83,43.02-14.81,.53-.17,.27-1.02-.26-.83h0Z"/>
            <path class="cls-5" d="M51.44,126.84c-16.52,8.1-32.65,16.97-49.45,24.5-16.5,7.38-32.93,10.6-50.81,12.18-.56,.05-.52,.92,.04,.87,16.63-1.47,31.61-4.22,47.17-10.57,18.38-7.5,35.7-17.51,53.51-26.26,.51-.24,.05-.98-.45-.72h0Z"/>
            <path class="cls-5" d="M115.08,124.89c-4.8,16.75-23.69,24.43-38.53,29.76-14.18,5.09-29.1,8.11-43.89,10.64-29.99,5.1-59.1,4.11-89.16,0-.55-.07-.74,.77-.19,.85,32.48,4.43,63.49,4.73,95.81-1.1,24.01-4.32,68.69-11.69,76.81-39.96,.16-.54-.7-.72-.85-.18h0Z"/>
            <path class="cls-5" d="M113.05,119.4c-5.43,17.87-24.47,24.71-40.07,30.64-15.48,5.89-31.29,10.24-47.48,13.56-15.09,3.1-30.78,5.57-46.18,4.65-11.47-.68-22.87-2.48-34.36-2.76-.55-.02-.51,.85,.04,.87,12.32,.29,24.57,2.18,36.87,2.91,17.34,1.02,35.12-3.03,52.04-6.53,19.34-3.99,38.47-10.85,56.56-18.75,10.08-4.39,20.15-13.67,23.42-24.42,.16-.54-.68-.72-.84-.19h0Z"/>
            <path class="cls-5" d="M111.91,114.4c-29.45-15.62-62.61,20.95-84.97,35.89-24.35,16.29-52.57,17.03-80.57,13.3-.55-.07-.75,.78-.19,.86,20.87,2.77,43.26,3.67,63.25-3.83,14.87-5.57,27.65-16.24,40.24-25.66,16.98-12.69,40.14-31.29,61.83-19.79,.5,.26,.91-.51,.41-.77h0Z"/>
            <path class="cls-5" d="M112.17,117.61c-22.7-7.13-47.88,16.65-65.84,27.46-23.21,13.97-47.3,21.96-74.45,22.61-.55,0-.52,.88,.04,.87,22.46-.54,43.38-5.83,63.39-16.22,9.86-5.13,19.23-11.23,28.59-17.21,13.76-8.77,31.01-22.02,48.08-16.66,.53,.16,.72-.68,.2-.85h0Z"/>
            <path class="cls-5" d="M113.04,116.96c-38.22,29.59-86.6,46.64-134.12,51.63-.54,.05-.51,.93,.04,.87,47.67-5,96.19-22.08,134.55-51.77,.43-.34-.02-1.08-.47-.73h0Z"/>
            <path class="cls-5" d="M154.58,203.96c-8.09,10.21-27.43,6.01-38.09,4.04-13.71-2.53-26.59-8.55-39.59-13.31-25.69-9.43-53.33-16.16-80.44-20.1-.55-.07-.74,.77-.19,.85,32.98,4.78,65.02,14.28,96.06,26.06,12.73,4.83,25.47,8.25,39.07,9.23,8.12,.59,18.17,.92,23.8-6.18,.35-.44-.28-1.03-.63-.59h0Z"/>
            <path class="cls-5" d="M151.3,167.02c-20.92-25.71-51.64-5.4-76.72,2.4-30.51,9.48-67.73,5.23-98.89,1.16-.55-.07-.74,.78-.19,.85,23.91,3.13,49.94,5.58,74.03,3.57,14.83-1.24,28.87-5.5,42.66-11.03,19.93-8,42.4-16.13,58.39,3.52,.34,.43,1.09-.04,.73-.47h0Z"/>
            <path class="cls-5" d="M156.36,196.36c-20.9,10.95-44.37,2.56-65.19-3.37-22.7-6.48-46.07-12.82-69.7-14.58-.55-.03-.52,.83,.04,.87,26.9,2.01,54.23,9.5,79.84,17.71,17.36,5.55,38.52,9,55.48,.13,.5-.27,.04-.99-.46-.74h0Z"/>
            <path class="cls-5" d="M155.01,179.06c-17.23-25.7-42.46-11.73-66.44-5.39-28.74,7.6-63.71,3.7-92.61-.42-.55-.08-.75,.77-.19,.85,24.76,3.53,50.2,4.7,75.19,2.97,27.96-1.96,63.07-27.73,83.32,2.47,.31,.46,1.05,0,.73-.47h0Z"/>
            <path class="cls-5" d="M157.26,188.85c-16.57-18.4-38.96-11.35-60.61-8.87-28.32,3.26-58.03,.91-86.11-2.75-.55-.07-.75,.78-.2,.85,23.85,3.11,47.94,4.44,72,3.71,24.91-.76,54.87-13.91,74.31,7.69,.37,.42,.96-.22,.6-.64h0Z"/>
            <path class="cls-5" d="M156.04,194.13c-38.5-12.82-80.74-6.26-120.32-14.29-.55-.11-.75,.74-.19,.85,39.58,8.03,81.86,1.5,120.32,14.3,.53,.18,.72-.67,.19-.85h0Z"/>
            <path class="cls-5" d="M144.96,300.92c2.54-17.33-8.34-35.97-18.35-48.92-12.34-15.92-30.25-28.43-47.34-38.8-41.11-24.94-90.06-36.92-137-44.86-.55-.09-.74,.76-.19,.85,42.97,7.27,85.9,18.24,124.86,38.15,16.68,8.52,32.11,19.53,46.2,31.85,15.89,13.9,34.33,38.72,30.98,61.55-.08,.54,.76,.73,.85,.19h0Z"/>
            <path class="cls-5" d="M152.24,299.28c3.84-17.44-4.9-35.07-15.68-48.05-7.59-9.15-17.81-15.56-27.49-22.2-7.55-5.18-14.36-10.91-22.26-15.56-43.01-25.3-94.88-38.43-143.82-45.56-.55-.07-.75,.77-.19,.85,45.7,6.65,91.3,19.06,132.74,39.64,14.27,7.1,26.37,16.8,39.48,25.74,20.33,13.86,42.38,37.72,36.37,64.94-.12,.54,.72,.73,.85,.19h0Z"/>
            <path class="cls-5" d="M157.45,243.96c-5.61-13.33-17.62-19.15-30.96-21.82-17.15-3.46-31.43-8.9-47.03-16.49-36.43-17.73-74.11-32.88-115.19-34.21-.55-.02-.51,.85,.04,.87,39.9,1.29,76.61,15.67,112.07,32.8,9.2,4.45,18.3,9.33,27.95,12.74,19.07,6.72,42.97,4.24,52.28,26.37,.22,.51,1.05,.26,.83-.26h0Z"/>
            <path class="cls-5" d="M160.74,264.28c-5.95-21.47-17.7-33.24-39.27-39.34-15.3-4.33-27.25-9.69-40.9-17.1C42.2,187.03-.26,174.59-43.82,171.36c-.56-.04-.51,.83,.04,.87,42.15,3.13,82.8,15.02,120.25,34.42,8.15,4.23,15.84,9.45,24.31,13,11.13,4.66,23.21,6.11,34.24,11.13,14.59,6.65,20.84,19.11,24.9,33.77,.16,.53,.98,.27,.83-.26h0Z"/>
            <path class="cls-5" d="M159.81,282.42c-2.02-16.65-10.15-28.97-22.34-40-7.58-6.84-16.3-11.46-25.35-16.02-8.87-4.48-16.93-10.51-25.62-15.33-.49-.27-.91,.5-.41,.78,13.85,7.67,28.2,15.55,41.55,24.04,16.54,10.53,28.91,26.79,31.31,46.57,.07,.56,.93,.52,.86-.04h0Z"/>
            <path class="cls-5" d="M123.87,319.57c2.36-9.3-3.38-20.37-6.33-29.04-3.69-10.85-9.43-21.06-15.68-30.58-10.3-15.67-24.68-28.63-39.34-40.08-35.17-27.49-78.03-41.89-121.98-47.38-.54-.06-.75,.78-.19,.85,42.18,5.26,82.39,18.76,117.02,43.74,12.73,9.19,24.63,19.92,34.97,31.75,7.32,8.38,13.18,17.98,18.28,27.85,5.29,10.26,15.42,30.79,12.4,42.71-.13,.55,.71,.73,.85,.18h0Z"/>
            <path class="cls-5" d="M129.83,316.26c2.78-32.51-21.54-63.97-44.09-84.24-26.58-23.88-61.86-40.97-96.14-50.61-.54-.15-.73,.7-.19,.85,31.53,8.86,64.39,24.54,89.78,45.28,25.05,20.47,52.76,53.88,49.77,88.75-.05,.56,.82,.5,.87-.04h0Z"/>
            <path class="cls-5" d="M135.07,311.2c3.46-38.75-33.79-74-62.79-94.17-38.14-26.51-85.51-37.84-130.45-46.4-.55-.1-.74,.76-.2,.86,42.26,8.04,85.22,18.66,122.32,41.17,13.36,8.09,25.41,18.1,36.39,29.19,17.56,17.74,36.23,42.91,33.86,69.39-.04,.56,.83,.51,.87-.04h0Z"/>
          </g>
        </g>
        <g>
          <path class="cls-7" d="M32.2,336.31c-1.66-7.21-6.32-13.52-9.87-20.06-4.29-7.92-6.64-16.23-8.29-24.89-2.82-14.7-6.36-27.84-15.44-40.56-4.55-6.37-9.56-12.49-13.98-18.93-4.31-6.29-7.3-12.72-10.43-19.46-3.88-8.39-9.54-13.96-19.58-15.47-.15-.58-.79-1.12-1.69-.9-.85,.19-1.7,.39-2.56,.6-.25,.07-.45,.21-.59,.37-9.41,3.89-8.27,13.68-12.5,21.21-6.48,11.53-25.22,15.19-38.5,17.15-18.8,2.78-44.55,5.46-43.42,26.17-17.82,2.75-25.67,17.33-24.72,31.64-8.98,1.7-17.4,4.82-21.67,12.45-4.39,7.84-4.54,15,1.84,21.22-12.18,4.36-5.21,16.97,3.47,21.94-5.78,6.12-1.88,15.11,1.96,21.05,4.41,6.82,10.96,15.09,19.49,18.84-4.57,4.39-.97,10.58,3.38,14.37,4.56,3.97,11.22,5.76,17.8,5.25-3.39,2.87-4.83,6.67-2.4,11.21,3.88,7.22,14.01,9.03,22.56,8.44,12.1-.82,24.17-3.01,35.42-7.32,5.12-1.96,10.21-4.16,14.84-6.92,2.69-1.61,4.7-4.12,7.75-2.37,1.5,.86,3.17,1.65,4.85,2.26,22.98,8.26,49.42-5.89,55.88-26.22,2.13-6.7-1.26-17.2,10.66-17.56,6.09-.18,12.3-1.08,17.15-4.7,9.5-7.07,10.83-19.08,8.6-28.8Z"/>
          <g>
            <path class="cls-5" d="M-48.13,196.54c-6.71,1.8-9.82,5.41-11.71,12.04-2.13,7.4-3.45,12.4-10.35,17.08-5.53,3.75-12.48,5.58-18.86,7.22-15.04,3.89-35.71,1.82-48.4,12.17-4.9,3.98-7,8.62-7.22,14.88-.05,1.4-11.05,5.08-12.84,6.19-3.12,1.92-5.39,4.87-7.44,7.84-1.97,2.85-2.97,6.34-3.78,9.64-1.24,5.05,.96,9.01-5.42,10.43-9.11,2.02-14.86,7.42-18.95,15.65-2.91,5.87-.71,11.73,3.03,16.37-.65-.82-6.65,7.15-5.64,10.33,.54,1.73,7.95,14.17,9.79,12.48-4.2,3.87-2.53,10.65-.81,15.13,2.59,6.78,7.8,12.68,12.9,17.67,2.53,2.47,5.4,4.6,8.42,6.42,2.24,1.33,.96,.14-.63,2.87-2.6,4.41,3.52,11.03,6.55,13.23,6.88,4.98,16.22,5.2,24.11,2.42-.21-.76-.42-1.54-.62-2.31-3.82,1.52-11.46,4.69-10.78,10.23,.67,5.43,4.49,10.24,9.89,11.88,19.46,5.93,44.51-2.42,61.94-11.4,5.45-2.81,7.18-4.51,13.24-2.09,3.87,1.55,7.86,2.91,12.06,3.16,9.28,.56,17.68-1.48,25.9-5.87,6.92-3.68,12.39-9.64,16.49-16.24,1.89-3.03,3.15-6.55,3.76-10.05,.3-1.77,.35-3.77,.49-5.55,.75-9.19,5.55-8.37,11.55-8.55,15.71-.48,23.7-11.18,24.48-26.04,.43-8.1-3.87-15.64-7.74-22.36-7.28-12.59-10.32-25.09-13.1-39.25-4.33-22.09-18.82-36.69-30.66-54.92-9.58-14.74-10.42-29.4-30.7-30.81,0,.8,0,1.6,0,2.4,.46,.02,.92,.04,1.38,.06,1.54,.08,1.53-2.34-.01-2.4-.46-.03-.92-.05-1.37-.07-1.55-.08-1.52,2.29,0,2.4,16.08,1.12,19.18,11.76,25.49,24.25,5.62,11.11,14.32,20.56,21.42,30.69,8.61,12.3,11.44,25.51,14.27,40.02,2.51,12.8,7.91,22.73,14.08,33.95,8.31,15.1,5.44,33.72-12.49,39.16-5.16,1.57-16.16-1.64-18.03,6.14-1.42,5.86-1.15,11.59-3.59,17.27-2.92,6.79-8.54,12.12-14.45,16.3-13.28,9.41-30.43,9.18-43.97,1-.34-.21-.87-.24-1.21,0-9.63,6.69-20.2,11.07-31.44,14.24-6.66,1.87-13.54,2.88-20.4,3.49-2.36,.25-4.72,.37-7.08,.37-2.17-.22-4.34-.43-6.51-.65-11.15-2.33-11.91-8.48-2.29-18.44,1.41-.55,.87-2.83-.62-2.31-5.55,1.95-10.89,1.89-16.58,.77-4.59-.88-16.31-10.04-8.82-15.73,.86-.66,.74-1.81-.28-2.2-10.19-3.95-33.21-26.73-21.21-37.81,.55-.5,.45-1.54-.23-1.89-1.74-.78-3.31-1.83-4.71-3.15-3.94-3.28-10.32-12.41,1.27-15.84,.82-.24,1.24-1.4,.54-2.01-8.81-7.78-6-17.34,1.22-24.69,4.33-4.41,11.34-5.52,17.13-6.58,.49-.08,.92-.67,.89-1.17-1.25-16.05,7.69-28.14,23.81-30.42,.5-.07,.93-.69,.89-1.17-1.8-24.69,34.5-23.1,51.04-26.6,9.52-2.01,19.04-5.2,26.63-11.51,8.99-7.47,3.51-21.85,16.91-25.44,1.49-.4,.88-2.72-.62-2.32Z"/>
            <g>
              <g>
                <path class="cls-5" d="M-35.86,202.28c-.26,24.46,3.97,47.48,16.73,68.43,12.87,21.15,31.48,37.35,45.98,57.24,.45,.61,1.49,.02,1.04-.6-13.16-18.04-29.79-32.96-42.31-51.5-15.09-22.35-20.53-46.68-20.24-73.57,0-.78-1.19-.77-1.2,0h0Z"/>
                <path class="cls-5" d="M5.5,368.21c-26.7-12.75-33.13-48.2-37.45-74.52-2.68-16.26-5.69-32.35-6.1-48.89-.36-14.61,1.23-29.25,2.52-43.78,.07-.78-1.13-.75-1.2,.01-1.51,17.02-3.02,33.97-2.27,51.05,.73,16.47,4.33,32.87,7.08,49.07,4.17,24.53,12.29,56.37,36.81,68.08,.7,.34,1.3-.7,.61-1.03h0Z"/>
              </g>
              <path class="cls-5" d="M-3.37,373.07c-.19-6.3-3.22-11.48-6.13-16.89-.31,.24-.63,.48-.94,.73,3.68,4.26,7.08,8.55,11.83,11.7,.64,.43,1.25-.61,.61-1.04-4.67-3.11-7.97-7.32-11.59-11.51-.46-.53-1.26,.14-.94,.72,2.8,5.2,5.77,10.22,5.97,16.3,.02,.77,1.22,.77,1.2-.01h0Z"/>
            </g>
            <path class="cls-5" d="M20.73,316.87c-11.93-17.66-22.62-36.02-32.41-54.94-9.72-18.83-20.61-39.97-23.33-61.32-.07-.54-.91-.53-.84,0,2.41,18.92,11.49,37.84,19.89,54.73,10.64,21.42,22.6,42.13,35.97,61.95,.31,.44,1.04,.02,.73-.42h0Z"/>
            <path class="cls-5" d="M17.28,307.36c-9.73-15.18-14.95-32.96-23.25-48.98-4.58-8.83-9.27-17.5-14.31-26.07-4.97-8.45-11.22-18.15-12.68-27.94-.08-.53-.89-.31-.81,.23,2.54,17.01,16.04,32.49,23.63,47.53,9.17,18.2,15.71,38.51,26.71,55.66,.28,.45,1.02,.03,.72-.42h0Z"/>
            <path class="cls-5" d="M13.95,298.96c-5.94-13.72-11.12-27.82-17.73-41.25-2.78-5.66-4.85-11.58-7.47-17.29-2.8-6.12-6.91-11.34-10.1-17.24-.26-.47-.99-.05-.73,.43,2.63,4.84,5.86,9.25,8.62,14.01,3.64,6.29,5.76,13.93,8.96,20.53,6.55,13.43,11.78,27.53,17.73,41.25,.21,.5,.94,.07,.73-.42h0Z"/>
            <path class="cls-5" d="M8.48,303.74c-9.2-15.83-19.12-31.23-27.74-47.42-8.29-15.58-12.59-31.31-15.62-48.61-.1-.53-.91-.3-.81,.23,2.81,16.05,6.72,30.74,13.92,45.35,8.68,17.58,19.68,33.95,29.51,50.88,.27,.46,1,.04,.73-.43h0Z"/>
            <path class="cls-5" d="M16.09,366.72c-15.52-3.02-23.93-19.45-30.07-32.55-6.74-14.38-11.2-29.89-15.12-45.26-7.48-29.27-9.21-58.43-8.11-88.65,.02-.54-.81-.54-.83,0-1.17,31.85,1.22,61.85,9.09,92.6,4.15,16.22,9.47,32.22,16.89,47.22,5.75,11.6,14.36,24.81,27.94,27.44,.53,.1,.75-.71,.22-.81h0Z"/>
            <path class="cls-5" d="M21.03,364.14c-17.44-3.66-25.28-21.8-32.05-36.29-7.49-16.02-13.32-32.53-18.1-49.55-4.02-14.32-7.27-29.07-7.67-44.01-.29-10.81,.26-21.67-.49-32.46-.04-.54-.87-.53-.84,.01,.86,12.39,.17,24.88,.65,37.3,.65,17.08,5.96,34.1,10.69,50.36,4.91,16.88,12.23,32.9,19.74,48.73,5.47,11.54,14.6,23.94,27.85,26.73,.53,.1,.75-.72,.22-.82h0Z"/>
            <path class="cls-5" d="M25.56,362.45c11.74-29.38-22.99-57.86-38.95-77.81-18.98-23.71-22.97-51.99-21.98-81.7,.01-.55-.83-.54-.84,.01-.7,21.33,.51,43.86,9.75,63.27,7.07,14.85,19.16,27.11,29.67,39.47,12.78,15.02,30.01,35.38,21.55,56.54-.2,.5,.61,.72,.81,.22h0Z"/>
            <path class="cls-5" d="M22.57,363.14c4.58-23.17-19.4-45.28-31.41-62.45-15.26-21.82-24.99-45.19-28.03-71.89-.06-.54-.89-.53-.84,0,2.55,22.41,9.46,42.85,21.25,61.96,5.35,8.67,11.48,16.88,17.52,25.07,9.68,13.13,24.17,29.47,20.69,47.09-.1,.53,.7,.75,.81,.22h0Z"/>
            <path class="cls-5" d="M23.23,363.85c-31.43-35.36-51.44-81.79-60.32-128.07-.09-.53-.9-.31-.81,.22,8.91,46.47,28.98,92.95,60.53,128.44,.37,.42,.96-.18,.6-.59h0Z"/>
          </g>
        </g>
      </g>
      <g>
        <g>
          <path class="cls-3" d="M1696.86,43.69c-4.77-5.64-11.98-9.04-18.24-13.17-7.57-5.01-13.49-11.3-18.91-18.21-9.21-11.75-18.38-21.75-32.61-28.76-7.13-3.52-14.59-6.59-21.63-10.24-6.85-3.55-12.54-7.85-18.5-12.37-7.4-5.62-15.22-7.9-25.36-4.51-.39-.45-1.25-.63-2-.01-.71,.58-1.44,1.17-2.14,1.75-.22,.18-.33,.39-.4,.61-7.16,7.9-1.72,16.07-2.36,24.76-.99,13.3-17.04,25.39-28.7,33.41-16.5,11.34-39.62,25.87-29.33,43.74-15.59,10.87-16.5,27.52-9.25,39.79-7.73,5.76-14.28,12.5-14.91,21.3-.66,9.04,2.38,15.48,11.18,17.99-9.56,9.62,2.64,17.53,13.03,17.86-2.73,8.18,4.94,14.32,11.22,17.78,7.19,3.98,17.06,8.24,26.78,7.54-2.35,6.07,3.79,9.87,9.58,11.19,6.06,1.38,13.15-.19,19.12-3.74-1.92,4.15-1.59,8.21,2.73,11.1,6.86,4.59,17.22,1.42,25.03-3.14,11.06-6.44,21.48-14.08,30.17-23.23,3.96-4.16,7.78-8.51,10.92-13.15,1.83-2.69,2.6-5.87,6.26-5.77,1.81,.06,3.72-.02,5.58-.29,25.36-3.5,44.01-28.55,41.06-49.66-.97-6.97-8.84-14.7,2.27-20.65,5.65-3.02,11.11-6.75,14.09-12.26,5.81-10.76,1.73-22.07-4.71-29.66Z"/>
          <g>
            <path class="cls-8" d="M1558.96-42.75c-5.4,4.65-7,9.12-5.8,16.17,1.14,6.72,2.39,11.22-.78,17.89-3.28,6.93-10.17,12.72-15.88,17.55-13.39,11.35-33.18,18.96-41.19,35.45-2.24,4.62-1.87,10.72,.76,15.09,.43,.71-8.74,10.28-9.41,11.29-2.06,3.15-2.96,6.8-3.58,10.45-1.31,7.73,6.6,17.26,.32,22.23-6.32,5.01-10.77,11.94-10.94,20.14-.16,7.79,2.66,12.83,9.97,15.92-.09-.04-3.26,7.74-1.7,10.18,3.21,5.02,9.99,8.14,15.96,8.05-3.18,.05,2.76,11,3.4,11.63,5.38,5.33,12.37,8.92,19.61,11.09,3.83,1.16,7.78,2.27,11.8,2.49,4.89,.27,2.31-.81,2.6,3.1,.45,6.18,9.57,8.2,14.29,8.83,7.72,1.05,16.53-4.44,21.73-9.62-.62-.52-1.26-1.06-1.89-1.58-11.18,12.06-3.04,22.27,12.44,19.38,9.36-1.75,18.58-9.18,25.98-14.67,9.12-6.76,17.14-14.98,24.03-23.95,3.52-4.59,4.83-8.04,11.5-8.21,4.39-.11,8.7-1.42,12.8-2.84,8.02-2.78,14.69-8.6,20.07-14.95,5.26-6.19,8.34-13.95,9.87-21.81,1.83-9.44-7.44-25.05,2.19-30.63,13.43-7.79,20.58-18.02,14.93-33.44-2.67-7.27-8.44-12.49-14.86-16.55-13.69-8.65-23.22-18.13-33.23-30.8-13.29-16.79-31.65-23.22-50.19-32.68-17.06-8.7-25.42-23.35-45.81-14.78,.27,.77,.54,1.54,.82,2.31,.45-.2,.89-.39,1.33-.58,1.44-.65,.63-2.96-.82-2.31-.45,.2-.87,.39-1.32,.59-1.43,.64-.65,2.94,.82,2.31,15.55-6.53,23.09,1.06,35.15,9.51,10.01,7.02,21.91,11.23,32.81,16.64,13.96,6.91,22.65,17.2,32.11,29.17,8.41,10.65,18.62,16.98,29.68,24.47,13.14,8.91,17.89,25.49,6.75,37.72-5.63,6.17-16.67,6.66-16.58,16.41,.05,5.65,4.04,10.97,4.25,16.91,.31,8.4-3.44,16.65-7.95,23.53-8.73,13.31-24.07,20.1-39.69,19.25-.44-.03-.81,.35-1.03,.7-6.75,11.6-15.76,21.1-26.05,29.66-4.71,3.92-9.84,7.31-15.06,10.51-3.05,1.92-6.24,3.61-9.58,5.01-9.1,4.04-20.92-6.24-13.44-14.31,1.09-1.17-.77-2.68-1.89-1.58-3.62,3.6-7.77,5.77-12.48,7.62-3.78,1.49-23.63,1.66-17.92-9.14,.42-.81-.3-1.85-1.2-1.75-10.6,1.2-43.45-7.65-37.03-23.39,.35-.88-.25-1.77-1.2-1.75-6.22,.09-23.37-4.47-11.61-15.13,.78-.7,.66-1.95-.47-2.21-23-5.37-7.36-28.3,3.5-36.27,.57-.42,.66-1.12,.31-1.7-8.56-14.06-4.52-28.88,8.95-38.02,.58-.4,.65-1.14,.3-1.71-12.72-21.18,23.05-37.13,36.34-47.48,8.02-6.23,15.66-13.51,20.06-22.76,5.11-10.76-6.26-21.28,4.59-30.62,1.19-1.03-.21-3.05-1.41-2.01Z"/>
            <g>
              <g>
                <path class="cls-8" d="M1496.93,157.63c36.24-10.56,65.13-49.61,76.85-83.79,12.6-36.74,3.85-81.72-11.77-116.1-.32-.72-1.47-.31-1.15,.41,15.4,33.91,22.77,75.46,12.8,111.98-9.57,35.01-41.27,75.9-77.13,86.35-.77,.23-.36,1.38,.4,1.16h0Z"/>
                <path class="cls-8" d="M1486.29,139.62c34.75-15.87,59.37-47.91,73.69-82.46,5.99-14.45,9.2-29.66,9.93-45.27,.79-16.95,1.17-36.39-8.15-51.33-.43-.66-1.44,.04-1.02,.71,9.69,15.5,8.84,36.24,7.75,53.81-.96,15.56-4.95,30.23-10.91,44.64-13.68,32.99-38.72,63.67-71.7,78.73-.72,.33-.31,1.48,.41,1.16h0Z"/>
                <path class="cls-8" d="M1490.29,101.83c26.55-6.4,44.96-30.07,57.52-52.78,15.95-28.84,16.95-57.57,10.55-89.47-.15-.76-1.38-.68-1.23,.08,5.9,29.5,5.52,55.93-7.6,83.32-11.72,24.52-31.87,50.99-59.66,57.69-.77,.18-.35,1.33,.42,1.15h0Z"/>
                <path class="cls-8" d="M1499.55,61.24c21.49-5.79,42.53-22.65,53.87-41.69,9.97-16.74,8.1-39.25,3.69-57.51-.19-.77-1.35-.35-1.16,.41,4.64,19.22,5.99,41.85-5.2,58.96-11.55,17.63-31.13,33.15-51.62,38.67-.76,.2-.34,1.36,.42,1.15h0Z"/>
                <path class="cls-8" d="M1572.98-43.4c10.11,20.73,23.53,39.23,43.51,51.36,22.55,13.72,48.09,19.51,71.7,30.86,.72,.34,1.24-.77,.53-1.11-19.13-9.2-39.78-14.28-58.79-23.69-25.9-12.82-43.26-32.13-55.79-57.85-.35-.7-1.51-.3-1.17,.42h0Z"/>
                <path class="cls-8" d="M1685.76,84.63c-29.64,1.29-51.68-26.04-67.47-47.27-8.89-11.97-18.1-23.68-25.59-36.58-8.29-14.28-13.98-29.96-19.92-45.3-.29-.74-1.45-.33-1.16,.41,6.02,15.52,12.02,30.97,20.08,45.59,8.98,16.31,21.3,31.22,32.68,45.94,14.47,18.7,35.89,39.54,61.48,38.43,.8-.04,.71-1.25-.09-1.22h0Z"/>
                <path class="cls-8" d="M1639.33,154.15c-16.22-6.79-21.92-31.65-25.15-47.15-3.54-16.93-3.71-34.36-7.34-51.29-7.36-34.47-20.64-67.43-37.39-98.38-.38-.7-1.39,0-1.02,.7,19.4,35.82,34.92,75.01,40.12,115.61,2.32,18.18,3.66,36.12,9.99,53.48,4.02,11.07,8.63,23.26,20.26,28.13,.73,.31,1.26-.8,.53-1.11h0Z"/>
                <path class="cls-8" d="M1568.15,185.4c14.96-13,20.66-33.47,25.43-52.01,5.74-22.3,5.98-44.45,3.57-67.15-4.08-38.36-15.46-73.04-30.23-108.65-.31-.72-1.47-.32-1.17,.41,13.72,33.04,25.25,65.76,29.4,101.4,2.32,19.95,3.24,38.96,.2,58.98-3.38,22.26-10.26,50.68-27.91,66.02-.59,.51,.11,1.52,.7,1h0Z"/>
                <path class="cls-8" d="M1536.29,181.66c14.91-12.34,24.22-28.84,32.47-46.02,7.38-15.39,13.81-29.89,16.37-46.85,6.53-43.31-4.07-89.81-20.57-129.75-.3-.72-1.47-.31-1.16,.42,15.95,38.6,24.99,81.08,21.25,122.92-1.5,16.83-7.12,31.34-14.12,46.55-8.78,19.08-18.46,38.08-34.95,51.73-.61,.51,.09,1.52,.7,1.01h0Z"/>
              </g>
              <path class="cls-8" d="M1632.97,159.98c2.89-5.42-1.14-10.19-4.43-14.35-.34,.23-.68,.47-1.01,.71,2.48,2.91,4.84,5.93,7.33,8.85,.51,.59,1.52-.1,1.01-.71-2.48-2.91-4.85-5.92-7.33-8.84-.5-.59-1.51,.07-1.01,.71,2.97,3.76,6.99,8.14,4.32,13.12-.37,.7,.74,1.22,1.12,.52h0Z"/>
              <path class="cls-8" d="M1679.6,93.08c-2.99-5.49-8.11-8.62-13.2-12-.22,.33-.44,.68-.66,1.02,5.41,2.06,10.52,4.27,16.36,4.83,.79,.08,1.03-1.13,.23-1.2-5.72-.55-10.76-2.72-16.07-4.74-.61-.24-1.28,.61-.66,1.02,4.99,3.32,10.04,6.37,12.98,11.77,.38,.7,1.39-.02,1.01-.7h0Z"/>
              <path class="cls-8" d="M1536.53,185.58c.89-3.57,2.94-6.31,5.43-8.96,.55-.58-.4-1.37-.94-.78-2.64,2.81-4.76,5.73-5.7,9.52-.19,.77,1.02,.99,1.21,.22h0Z"/>
              <path class="cls-8" d="M1565.53,189.75c4.37-4.47,8.58-8.96,11.77-14.37,.41-.68-.71-1.2-1.11-.52-3.14,5.31-7.31,9.71-11.6,14.11-.56,.57,.38,1.36,.94,.79h0Z"/>
              <path class="cls-8" d="M1497.62,156.56c1.42-.38,2.88-.36,4.32-.63,1.79-.32,3.4-1.2,4.93-2.13,.69-.42-.02-1.4-.7-1.01-1.68,1.02-3.36,1.83-5.33,2.06-1.23,.14-2.43,.22-3.64,.54-.77,.2-.35,1.35,.42,1.16h0Z"/>
              <path class="cls-8" d="M1485.88,140.94c2.21-2.03,4.61-3.28,7.35-4.46,.73-.31,.32-1.46-.41-1.15-2.96,1.27-5.5,2.64-7.89,4.82-.58,.54,.37,1.32,.95,.79h0Z"/>
              <path class="cls-8" d="M1487.84,98.38c1.52,1.86,3.57,3.27,6.05,2.32,.74-.29,.32-1.44-.41-1.16-1.93,.75-3.45-.43-4.63-1.87-.5-.61-1.51,.1-1.01,.71h0Z"/>
              <path class="cls-8" d="M1483.36,106.41c2.36-2.03,5.55-4.18,8.58-4.95,.77-.19,.35-1.35-.41-1.17-3.14,.81-6.45,3.02-8.88,5.1-.59,.52,.11,1.52,.71,1.01h0Z"/>
            </g>
            <path class="cls-8" d="M1513.01,177.45c49.7-14.15,73.14-82.63,73.19-128.74,0-.8-1.23-.7-1.23,.08-.04,45.64-23.29,113.53-72.36,127.5-.77,.22-.35,1.38,.41,1.16h0Z"/>
            <path class="cls-8" d="M1500.62,166.3c17.75-3.21,34.29-19.16,45.5-32.27,12.36-14.46,23.29-32.53,29-50.71,12.77-40.68,3.15-87.26-10.62-126.27-.18-.52-.99-.24-.81,.29,13.27,37.6,21.15,79.13,12.48,118.68-3.9,17.78-13.63,33.64-23.85,48.47-11.27,16.36-31.05,37.22-51.76,40.95-.54,.1-.48,.96,.07,.86h0Z"/>
            <path class="cls-8" d="M1505.99,172.93c29.88-12.07,56.15-43.2,67.39-72.75,10.79-28.35,15.04-64.44,4.47-93.38-.18-.51-1.01-.23-.81,.29,10.66,29.2,5.77,64.04-4.42,92.73-10.38,29.18-37.87,60.57-66.91,72.31-.52,.21-.24,1.02,.28,.8h0Z"/>
            <path class="cls-8" d="M1492.79,155.65c16.8-4.31,32.08-18.36,43.02-31.17,13.37-15.66,24.63-34.73,32.57-53.66,12.25-29.19,9.51-64.69-.14-94.12-.17-.52-.99-.23-.81,.29,9.8,29.9,11.38,63.66,.18,93.46-6.74,17.94-18.29,35.3-29.94,50.37-10.75,13.91-27.57,29.51-45.16,34.02-.53,.14-.25,.95,.28,.81h0Z"/>
            <path class="cls-8" d="M1485.83,151.84c9.6-1.5,17.02-7.11,24.56-12.88,9.64-7.37,18.04-13.67,26.09-22.9,11.62-13.35,21.84-28.83,28.57-45.23,14.27-34.81,11.52-73.55-2.31-107.93-.21-.51-1.02-.23-.82,.28,13.63,33.87,15.81,70.54,3.17,105.14-4.95,13.55-13.08,25.86-21.54,37.45-7.01,9.62-15.14,19.06-24.61,26.34-9.54,7.32-21.05,16.98-33.18,18.88-.54,.09-.49,.95,.06,.86h0Z"/>
            <path class="cls-8" d="M1482.77,148.77c33.5-11.76,58.82-44.63,75.03-74.67,13.75-25.48,17.36-58.32,11.68-86.64-.11-.53-.97-.47-.86,.06,5.51,27.52,1.66,57.25-9.84,82.66-14.12,31.2-43.09,66.13-76.3,77.77-.52,.19-.23,1,.29,.82h0Z"/>
            <path class="cls-8" d="M1478.94,135.28c5.89-.84,10.38-4.25,15.3-7.43,8.65-5.58,16.83-11.57,24.71-18.2,14.8-12.45,26.31-27.09,34.52-44.53,14.22-30.15,23-75.14,7.71-106.45-.25-.49-1.06-.2-.82,.29,14.41,29.49,6.59,69.19-4.56,98.52-6.37,16.75-16.28,31.15-28.93,43.8-7.19,7.18-15.27,13.52-23.5,19.49-6.72,4.88-16.05,12.44-24.48,13.64-.55,.08-.48,.94,.07,.86h0Z"/>
            <path class="cls-8" d="M1474.64,131.04c34.74-10.78,60.18-44.65,76.33-75.26,15.04-28.48,21.44-66.02,9.06-96.42-.21-.51-1.02-.23-.81,.28,12.47,30.63,5.42,67-9.02,95.77-15.31,30.47-41.83,64.27-75.85,74.81-.53,.18-.24,.98,.29,.81h0Z"/>
            <path class="cls-8" d="M1474.52,122.75c38.49-15.14,67.46-49.85,82.49-87.21,5.68-14.12,8.59-29.86,7.35-45.06-.76-9.4-.31-23.69-5.67-31.88-.3-.47-1.01,.02-.7,.49,5.2,7.95,4.69,22.19,5.51,31.44,1.44,16.35-2.44,32.63-8.5,47.71-14.42,35.84-44.12,69.29-80.77,83.69-.52,.21-.23,1.02,.29,.82h0Z"/>
            <path class="cls-8" d="M1487.61,94.61c22.83-3.03,40.44-25.47,52.56-43.29,13.19-19.37,23.08-42.79,20.85-66.56-.05-.55-.91-.49-.86,.06,2.25,23.84-7.83,46.39-20.64,65.95-11.65,17.78-29.76,40.04-51.97,42.98-.54,.07-.49,.93,.07,.86h0Z"/>
            <path class="cls-8" d="M1487.23,89.67c20.17-3.66,34.06-20.29,45.99-35.62,12.18-15.67,21.88-31.37,27.12-50.69,.14-.54-.7-.69-.84-.17-4.93,18.15-13.78,33-25.08,47.87-12.13,15.96-26.36,33.96-47.25,37.75-.54,.1-.48,.95,.06,.86h0Z"/>
            <path class="cls-8" d="M1486.27,82.94c13.73-2.41,26.12-14.29,36.28-23,12.1-10.36,23.11-23.13,30.06-37.48,.24-.5-.53-.87-.78-.36-6.52,13.45-16.43,24.18-26.99,34.59-9.57,9.45-24.94,22.99-38.63,25.39-.54,.08-.49,.95,.05,.86h0Z"/>
            <path class="cls-8" d="M1488.65,76.14c26.96-9.84,55.28-33.13,66.85-59.83,.21-.51-.56-.88-.77-.37-11.48,26.49-39.63,49.64-66.37,59.39-.53,.2-.24,1.01,.29,.81h0Z"/>
            <path class="cls-8" d="M1498.03,57.43c22.79-4.87,43.58-25.55,54.76-45.11,9.11-15.94,9.38-34.44,5.53-52.04-.11-.54-.93-.25-.81,.28,3.59,16.35,3.35,33.53-4.07,48.72-9.95,20.38-32.89,42.46-55.69,47.34-.54,.11-.25,.93,.29,.81h0Z"/>
            <path class="cls-8" d="M1496.33,53.59c21.42-1.19,39.6-21.8,50.55-38.3,11.16-16.84,15.64-32.25,11.94-52.42-.1-.55-.95-.49-.86,.06,3.33,18.13-.15,31.2-8.81,46.84-10.16,18.36-30.29,41.72-52.88,42.97-.55,.03-.49,.88,.06,.86h0Z"/>
            <path class="cls-8" d="M1497.46,48.47c15.13-1.01,29.33-14.12,39.06-24.85,9.6-10.58,22.52-26.38,22.88-41.35,.02-.56-.85-.48-.86,.06-.36,14.34-12.42,28.57-21.2,39.04-9.36,11.17-24.83,25.24-39.95,26.26-.56,.03-.49,.89,.07,.85h0Z"/>
            <path class="cls-8" d="M1498.33,41.94c18.82-6.98,34.63-20.52,48.36-34.9,11.67-12.23,14.28-27.46,8.81-43.22-.19-.53-1-.24-.81,.29,5.79,16.65,2.02,31.18-9.98,43.76-13.15,13.77-28.7,26.59-46.66,33.25-.52,.19-.24,1,.29,.81h0Z"/>
            <path class="cls-8" d="M1677.31,31.79c-19.02-10.02-37.26-21.25-54.93-33.48-17.5-12.1-37.18-25.88-49.38-43.57-.31-.45-1.03,.04-.72,.49,11.57,16.76,29.79,29.86,46.29,41.47,18.7,13.17,38.12,25.19,58.37,35.87,.49,.26,.86-.52,.36-.78h0Z"/>
            <path class="cls-8" d="M1669.85,24.97c-16.54-9.31-30.24-23.28-45.88-34.04-7.12-4.89-14.22-9.61-21.6-14.11-8.66-5.26-19.66-11.21-25.68-19.62-.33-.44-1.03,.04-.71,.5,9.96,13.91,30.23,21.79,43.89,31.42,16.66,11.76,31.85,26.62,49.61,36.61,.48,.28,.85-.5,.37-.77h0Z"/>
            <path class="cls-8" d="M1663.05,19.14c-11.72-9.4-22.9-19.51-35.09-28.3-5.13-3.72-9.9-7.77-14.75-11.84-5.18-4.35-11.59-6.84-17.2-10.56-.46-.31-1.01,.35-.56,.66,10.95,7.26,21.31,14.65,31.96,22.39,12.15,8.84,23.36,18.91,35.08,28.31,.42,.35,1-.31,.56-.66h0Z"/>
            <path class="cls-8" d="M1659.92,25.91c-15.49-9.59-31.42-18.46-46.57-28.59-14.88-9.96-26.23-22.06-36.98-36.23-.33-.44-1.04,.05-.71,.49,10,13.19,20.2,24.31,33.72,34.03,15.96,11.47,33.48,20.73,50.18,31.06,.47,.3,.84-.48,.37-.76h0Z"/>
            <path class="cls-8" d="M1695.13,78.33c-16.54,4.82-32.93-6.99-45.21-16.63-11.74-9.22-22.14-20.15-32.05-31.24-20.08-22.49-34.61-47.46-47.03-74.87-.23-.5-1.04-.21-.81,.29,13.43,29.62,29.54,55.82,51.46,79.88,16.28,17.88,46.01,51.51,73.93,43.39,.53-.15,.23-.97-.29-.81h0Z"/>
            <path class="cls-8" d="M1698.64,73.71c-17.81,4.88-33.57-7.49-46.76-17.46-13.09-9.89-25.07-20.87-36.39-32.7-10.55-11.03-20.9-22.91-28.25-36.33-5.48-9.99-9.99-20.52-15.82-30.31-.28-.48-.99,.02-.71,.49,6.25,10.5,11.14,21.78,17.02,32.51,8.29,15.1,21.07,27.9,32.91,40.26,13.53,14.13,29.36,26.58,45.52,37.6,8.99,6.14,22.06,9.7,32.78,6.76,.53-.15,.25-.95-.29-.8h0Z"/>
            <path class="cls-8" d="M1702.23,70.11c-2.48-32.99-50.55-41.51-74.84-52.39-26.47-11.84-41.98-35.15-53.63-60.63-.23-.5-1.05-.22-.82,.29,8.69,18.99,19.75,38.27,36.57,51.1,12.5,9.55,28.17,14.64,42.69,20.23,19.57,7.55,47.34,17.18,49.17,41.46,.04,.56,.9,.49,.86-.06h0Z"/>
            <path class="cls-8" d="M1699.68,72.03c-6.01-22.83-39.18-31.41-57.7-40.78-23.93-12.11-43.32-28.12-58.18-50.58-.3-.46-1.01,.03-.71,.49,12.3,18.58,27.76,33.35,47,44.67,9.49,5.57,19.54,10.21,29.48,14.91,14.59,6.92,34.78,14.41,39.29,31.57,.15,.53,.95,.24,.82-.29h0Z"/>
            <path class="cls-8" d="M1700.68,72.42c-44.9-16.47-84.69-48.09-113.92-85.35-.33-.43-1.05,.06-.71,.5,29.33,37.39,69.21,69.11,114.27,85.64,.51,.19,.89-.59,.36-.78h0Z"/>
            <path class="cls-8" d="M1649.84,153.28c-12.81-1.4-19.5-19.86-23.47-29.85-5.12-12.85-6.87-26.84-9.75-40.28-5.67-26.56-14.62-53.33-25.62-78.17-.23-.5-1.03-.22-.82,.29,13.4,30.22,22.35,62.15,28.88,94.44,2.68,13.25,6.54,25.74,12.89,37.69,3.79,7.13,8.81,15.75,17.73,16.72,.55,.06,.71-.78,.17-.84h0Z"/>
            <path class="cls-8" d="M1679,131.01c10.47-31.16-22.73-46.22-42.48-63.16-24.02-20.62-40.1-54.12-53.14-82.44-.23-.5-1.04-.21-.81,.28,10,21.73,21.67,44.89,36.07,64.06,8.86,11.8,19.83,21.34,31.73,30,17.2,12.51,35.86,27.09,27.86,50.9-.18,.52,.6,.89,.78,.36h0Z"/>
            <path class="cls-8" d="M1657.12,150.75c-20.18-11.77-25.55-35.91-31.57-56.53-6.56-22.49-13.58-45.46-24.57-66.24-.26-.48-.96,0-.7,.49,12.51,23.66,20.66,50.57,27.31,76.41,4.51,17.51,12.79,37.11,29.16,46.66,.48,.28,.85-.5,.38-.78h0Z"/>
            <path class="cls-8" d="M1673.46,139.57c6.72-26.05-13.19-41.65-28.11-59.5-17.89-21.4-32.07-53.18-43.28-79.83-.21-.5-.8-.3-.58,.2,9.6,22.84,20.88,45.23,33.63,65.97,14.27,23.2,45.62,42.13,37.73,72.74-.12,.47,.49,.9,.61,.42h0Z"/>
            <path class="cls-8" d="M1663.89,147.54c6.65-23.64-11.06-38.72-24.55-55.58-17.66-22.06-31.37-48.25-43.13-73.77-.24-.5-1.05-.21-.82,.29,9.98,21.67,21.58,42.61,34.88,62.43,13.77,20.52,40.57,38.73,32.77,66.47-.16,.53,.69,.69,.85,.17h0Z"/>
            <path class="cls-8" d="M1658.83,149.31c-9.59-39.11-37.36-71.12-51.52-108.6-.2-.52-1.01-.24-.81,.28,14.16,37.48,41.93,69.54,51.51,108.6,.13,.54,.94,.25,.81-.29h0Z"/>
            <path class="cls-8" d="M1563.66,196.43c15.84-7.02,25.69-26.01,31.23-41.26,6.81-18.77,7.82-40.43,7.48-60.26-.83-47.7-16.63-95.14-34.74-138.76-.21-.51-1.03-.22-.81,.29,16.59,39.93,30.06,81.78,33.96,125.02,1.67,18.51,.61,37.28-2.27,55.62-3.24,20.69-14.28,49.29-35.13,58.54-.49,.22-.21,1.02,.29,.81h0Z"/>
            <path class="cls-8" d="M1568.88,201.68c16.61-5.98,26.74-22.65,31.91-38.56,3.65-11.21,3.62-23.18,4.06-34.82,.35-9.07,1.55-17.82,1.27-26.91-1.53-49.49-17.91-99.98-37.76-144.86-.23-.5-1.04-.22-.81,.29,18.55,41.89,32.22,86.74,36.87,132.43,1.59,15.74-.14,31.02-.7,46.76-.87,24.4-9.19,55.52-35.13,64.86-.51,.19-.23,1,.29,.81h0Z"/>
            <path class="cls-8" d="M1617.89,176.82c8.19-11.75,6.72-24.91,1.92-37.53-6.16-16.23-9.13-31.1-11.02-48.21-4.38-39.96-11.6-79.61-32.15-114.81-.27-.48-.98,.02-.71,.49,19.97,34.18,27.31,72.62,31.69,111.46,1.13,10.07,1.85,20.3,4.09,30.2,4.44,19.56,19.12,38.33,5.52,57.84-.32,.45,.34,1.02,.65,.56h0Z"/>
            <path class="cls-8" d="M1602.64,190.33c14.82-16.34,18.46-32.43,12.19-53.77-4.45-15.14-6.27-28.01-7.28-43.39-2.83-43.22-14.83-85.45-35.11-123.75-.26-.49-.96,0-.71,.49,19.62,37.05,31.12,77.47,34.65,119.17,.76,9.08,.45,18.3,1.95,27.29,1.97,11.81,7.14,22.72,8.75,34.63,2.13,15.77-4.99,27.6-15.1,38.76-.36,.42,.29,.97,.66,.56h0Z"/>
            <path class="cls-8" d="M1586.97,199.12c12.85-10.49,18.88-23.83,21.67-39.89,1.72-9.97,.98-19.75,.03-29.76-.93-9.81-.14-19.78-.69-29.61-.03-.55-.9-.5-.87,.07,.89,15.69,1.87,31.9,1.81,47.6-.08,19.46-7.16,38.44-22.43,50.91-.43,.35,.06,1.05,.49,.7h0Z"/>
            <path class="cls-8" d="M1536.94,188.58c9.03-2.93,15.26-13.6,20.95-20.66,7.13-8.84,12.63-19.05,17.31-29.33,7.68-16.93,10.92-35.85,12.77-54.21,4.44-44.06-6.13-87.66-24.72-127.47-.23-.49-1.05-.22-.81,.29,17.86,38.2,27.77,79.1,25.15,121.38-.97,15.54-3.67,31.21-8.1,46.14-3.14,10.58-8.09,20.57-13.65,30.07-5.79,9.87-17.61,29.22-29.18,32.98-.53,.18-.24,.98,.3,.81h0Z"/>
            <path class="cls-8" d="M1542.86,191.84c28.66-14.84,42.14-51.89,47.2-81.54,5.95-34.95,1.63-73.6-8.39-107.48-.16-.53-.97-.24-.81,.29,9.22,31.16,13.45,67.04,9.49,99.32-3.91,31.86-17.23,72.78-47.97,88.7-.49,.26,.01,.96,.49,.71h0Z"/>
            <path class="cls-8" d="M1549.85,193.56c34.23-17.57,44.07-67.48,45.63-102.49,2.06-46.04-13.46-91.81-30.01-134.07-.21-.51-1.03-.22-.82,.29,15.57,39.74,29.35,81.43,30.09,124.48,.28,15.49-1.73,30.9-5.21,45.98-5.58,24.12-16.77,53.1-40.17,65.1-.49,.26,.01,.96,.49,.71h0Z"/>
          </g>
        </g>
        <g>
          <path class="cls-6" d="M1474.59,120.43c5.16-5.2,7.97-12.45,11.57-18.89,4.36-7.79,10.08-14.15,16.44-20.11,10.8-10.14,19.93-20.05,25.78-34.4,2.93-7.19,5.41-14.63,8.46-21.75,2.99-6.94,6.79-12.85,10.77-19.04,4.97-7.69,6.64-15.39,2.61-24.62,.41-.43,.52-1.26-.14-1.9-.61-.61-1.23-1.22-1.85-1.83-.19-.18-.41-.27-.62-.3-8.22-5.85-15.8,.28-24.33,.71-13.06,.65-26-13.15-34.65-23.27-12.24-14.32-28.07-34.53-44.79-22.63-11.71-13.51-28.03-12.4-39.5-4.04-6.16-6.65-13.21-12.07-21.85-11.62-8.87,.46-14.94,4.12-16.77,12.75-10.07-7.93-16.94,4.59-16.51,14.51-8.17-1.62-13.63,6.41-16.57,12.77-3.38,7.3-6.83,17.18-5.47,26.32-6.09-1.52-9.36,4.78-10.24,10.43-.92,5.93,1.1,12.47,5,17.72-4.19-1.33-8.13-.54-10.65,3.91-3.99,7.08-.16,16.53,4.84,23.4,7.07,9.73,15.26,18.71,24.81,25.88,4.35,3.27,8.87,6.38,13.61,8.8,2.77,1.41,5.93,1.77,6.07,5.26,.08,1.72,.29,3.53,.67,5.26,5.22,23.67,31,38.39,51.41,33.08,6.73-1.75,13.72-10.15,20.31-.32,3.36,5.02,7.39,9.76,12.98,11.92,10.92,4.24,21.67-.99,28.62-8Z"/>
          <g>
            <path class="cls-4" d="M1549.1-20.88c-5.04-4.69-9.71-5.38-16.24-3.47-7.31,2.12-12.19,3.65-19.74,.33-6.05-2.66-11.24-7.53-15.99-12.03-11.19-10.58-20.35-29.03-35.71-34.21-5.92-2.02-10.9-1.32-16.25,1.8-1.19,.7-10.08-6.6-11.95-7.52-3.25-1.61-6.91-1.96-10.48-2.11-3.42-.14-6.87,.86-10.06,1.92-4.87,1.63-7.03,5.57-11.58,.96-6.5-6.58-14.05-8.56-23.09-7.64-6.44,.66-10.18,5.6-12.1,11.2,.34-.98-9.49-1.8-11.61,.72-1.16,1.37-7.66,14.17-5.28,14.82-5.45-1.48-10.24,3.5-13.09,7.31-4.31,5.76-6.49,13.26-7.97,20.17-.73,3.43-1,6.97-.92,10.47,.07,2.59,.39,.89-2.74,.99-5.06,.15-7.37,8.78-7.61,12.49-.54,8.42,4.21,16.37,10.69,21.53,.52-.58,1.07-1.16,1.6-1.74-3.29-2.41-9.97-7.14-14.24-3.64-4.19,3.43-6.2,9.18-4.72,14.58,5.31,19.48,25.5,36.1,42.21,45.99,5.22,3.09,7.56,3.65,8.73,10.01,.74,4.06,1.71,8.13,3.72,11.8,4.43,8.09,10.57,14.06,18.57,18.65,6.73,3.87,14.6,5.31,22.28,5.27,3.53-.01,7.14-.82,10.39-2.15,1.64-.68,3.33-1.7,4.9-2.52,8.08-4.22,9.92,.24,13.24,5.18,8.69,12.94,21.86,13.99,34.69,6.8,7-3.92,11.04-11.51,14.62-18.32,6.69-12.76,15.54-21.92,25.91-31.74,16.2-15.31,20.76-35.19,29.76-54.77,7.27-15.83,19.09-24.29,9.57-42.07-.67,.42-1.33,.85-2.01,1.27,.22,.39,.45,.79,.67,1.19,.75,1.33,2.76,.04,2-1.28-.22-.4-.44-.79-.67-1.19-.76-1.34-2.72-.06-2.01,1.27,7.54,14.1,.28,22.32-6.84,34.22-6.33,10.59-9.64,22.89-14.37,34.21-5.75,13.73-15.3,23.08-25.94,33.13-9.38,8.87-14.84,18.66-20.96,29.76-8.25,14.96-25.33,22.38-39.33,10.2-4.03-3.51-7.15-14.44-14.65-11.9-5.65,1.9-10.3,5.16-16.33,6.11-7.22,1.13-14.64-.77-21.25-3.52-14.88-6.18-23.73-20.71-24.03-36.4,0-.4-.25-.86-.63-1.02-10.67-4.55-19.91-11.11-28.49-18.88-5.08-4.61-9.55-9.85-13.68-15.29-1.45-1.85-2.8-3.77-4.05-5.75-.96-1.94-1.93-3.87-2.89-5.81-3.93-10.59,.81-14.48,14.22-11.67,1.2,.89,2.82-.77,1.6-1.74-4.56-3.63-7.32-8.14-9.39-13.52-1.68-4.32-.2-19,8.51-15.72,1.01,.38,1.9-.33,1.69-1.4-2.08-10.64,4.83-42.02,20.43-37.8,.71,.2,1.53-.44,1.46-1.19-.27-1.87-.22-3.74,.15-5.62,.66-5.05,4.94-15.22,13.92-7.31,.63,.56,1.82,.3,1.96-.61,1.86-11.51,11.34-14.2,21.29-12.02,5.97,1.31,10.6,6.61,14.54,10.91,.33,.37,1.05,.42,1.44,.13,12.77-9.53,27.59-8.41,38,3.92,.32,.39,1.06,.41,1.44,.13,19.69-14.56,37.52,16.77,49.17,28.81,6.7,6.93,14.39,13.24,23.67,16.29,10.99,3.6,20.12-8.6,30.2,.76,1.12,1.04,2.74-.7,1.61-1.75Z"/>
            <g>
              <g>
                <path class="cls-4" d="M1349.18-55.9c12.62,32.47,51.52,54.67,84.02,62.41,38.35,9.12,82.88-5.17,115.84-24.36,.67-.39,.03-1.39-.64-1-32.51,18.94-73.76,31.48-111.6,24.9-33-5.73-73.98-30.11-86.48-62.29-.27-.71-1.41-.36-1.15,.35h0Z"/>
                <path class="cls-4" d="M1550.78-7.54c-20.59,12.71-37.61,28.42-48.41,50.21-10.9,21.99-14.63,46.17-23.61,68.86-.28,.7,.77,1.26,1.05,.55,8.14-20.58,11.85-42.43,20.75-62.75,10.73-24.48,28.21-41.91,50.85-55.87,.66-.4,.02-1.41-.63-1h0Z"/>
                <path class="cls-4" d="M1433.83,114.87c-3.42-29.16,22.83-53.29,42.57-70.83,12.19-10.84,24.05-21.87,37.67-30.96,12.02-8.02,25.11-14.42,37.94-21.02,.69-.35,.03-1.35-.64-1-15.03,7.72-30,15.41-43.89,25.07-13.39,9.32-25.2,21-37.3,31.88-18.31,16.46-40.66,40.1-37.52,66.89,.09,.76,1.27,.73,1.19-.04h0Z"/>
                <path class="cls-4" d="M1362.69,78.92c5.28-15.93,28.55-24.13,42.9-29,16.27-5.52,33.39-8,49.76-13.15,33.63-10.56,65.41-27.9,94.47-47.55,.64-.43,0-1.43-.64-1-32.75,22.12-68.68,40.97-107.05,51.16-18.59,4.94-37.21,8.11-54.63,16.66-10.48,5.14-22.08,10.88-25.97,22.62-.24,.73,.92,.99,1.16,.27h0Z"/>
                <path class="cls-4" d="M1327.2,15.16c14.42,13.34,36.43,16.16,55.26,18.19,21.35,2.3,41.9-.09,62.67-4.81,37.47-8.52,70.7-23.51,104.41-41.78,.67-.36,.03-1.37-.64-1-31.41,17.03-62.76,31.92-97.65,40.16-19.41,4.57-38.18,7.62-58.22,6.98-20.98-.69-49.03-3.82-65.03-18.61-.56-.52-1.36,.36-.8,.87h0Z"/>
                <path class="cls-4" d="M1328.59-15.54c12.6,12.24,28.6,18.99,45.05,24.58,16.01,5.47,31.4,10.18,48.41,10.67,43.53,1.26,88.17-14.64,125.9-35.02,.68-.36,.03-1.36-.64-.99-36.51,19.72-77.59,33.58-119.38,34.82-15.93,.46-30.03-3-45.04-7.72-19.29-6.07-38.73-12.89-53.5-27.21-.55-.54-1.35,.34-.81,.87h0Z"/>
              </g>
              <path class="cls-4" d="M1356.47,73.58c5.7,2.14,9.96-2.27,13.82-5.91-.29-.26-.59-.53-.88-.8-2.67,2.7-5.45,5.3-8.11,8.01-.55,.54,.34,1.35,.87,.81,2.68-2.71,5.45-5.31,8.12-8.02,.54-.55-.33-1.32-.88-.8-3.33,3.14-7.33,7.56-12.39,5.66-.71-.27-1.27,.78-.56,1.05h0Z"/>
              <path class="cls-4" d="M1425.08,109.99c5.17-3.49,7.91-8.77,10.89-14.07-.37-.14-.74-.27-1.11-.41-1.62,5.34-3.41,10.47-3.55,16.12-.02,.76,1.17,.73,1.19-.04,.13-5.56,1.92-10.56,3.51-15.82,.2-.67-.78-.99-1.1-.41-2.87,5.1-5.5,10.25-10.48,13.62-.63,.43,0,1.43,.64,1h0Z"/>
              <path class="cls-4" d="M1322.64,13.09c4.7,3.63,9.38,7.12,14.85,9.49,.7,.3,1.27-.74,.57-1.05-5.39-2.33-10-5.75-14.62-9.31-.6-.47-1.41,.41-.8,.87h0Z"/>
            </g>
            <path class="cls-4" d="M1330.97-38.27c8.53,22.47,30.15,35.55,51.64,43.91,24.66,9.61,52.86,13.54,79.18,10.34,.77-.09,.73-1.27-.04-1.18-23.6,2.87-47.64-.38-70.26-7.31-24.03-7.36-50.04-21.46-59.39-46.09-.26-.72-1.41-.37-1.14,.35h0Z"/>
            <path class="cls-4" d="M1341.02-51.24c4.32,16.26,21.45,30.46,34.76,39.34,15.71,10.5,34.96,18.9,53.77,21.82,40.75,6.34,84.13-8.22,120.32-25.5,.47-.24,.03-.93-.45-.7-36.01,17.19-76.91,30.19-117.31,25.71-16.54-1.84-32.09-9.02-46.69-16.62-16.55-8.63-38.53-25.19-43.6-44.28-.14-.52-.94-.26-.8,.24h0Z"/>
            <path class="cls-4" d="M1334.94-45.35c13.85,26.83,46.4,48.06,75.27,55.17,29.14,7.17,64.75,6.59,92.03-6.8,.48-.23,.03-.93-.44-.7-26.73,13.11-60.08,13.04-88.73,7.28-29.64-5.96-63.43-28.29-77.42-55.4-.24-.47-.95-.03-.71,.45h0Z"/>
            <path class="cls-4" d="M1350.83-60.04c4.81,13.76,18.48,27.16,30.39,35.11,16.67,11.12,35.27,19.56,54.38,25.66,30.61,9.78,66.71,2.55,95.24-10.37,.49-.22,.25-1.02-.24-.8-26.2,11.86-55.79,17.42-84.45,12.83-17.9-2.87-35.77-11.59-51.62-20.12-16.69-8.97-36.41-23.93-42.91-42.56-.19-.51-.98-.26-.8,.24h0Z"/>
            <path class="cls-4" d="M1354.09-67c2.13,8.92,8.18,15.3,14.33,21.78,8.76,9.19,16.73,17.18,27.52,24.16,13.49,8.72,28.51,15.9,44.14,19.91,35.36,9.06,72.23,1.41,103.95-15.41,.48-.25,.03-.94-.45-.69-30.62,16.22-64.58,22.98-98.92,16.29-13.53-2.65-26.06-8.43-38.15-14.86-11.11-5.92-22.15-13.04-30.87-22.15-7.89-8.26-18.04-17.99-20.74-29.26-.14-.53-.92-.28-.8,.24h0Z"/>
            <path class="cls-4" d="M1484.8,100.53c8.48-19.35,18.19-38.03,28.85-56.25,10.62-18.11,22.55-38.43,38.97-52,.41-.34-.04-1.04-.45-.71-14.55,12.03-25.58,29.64-35.28,45.62-12.3,20.26-23.31,41.24-32.83,62.94-.21,.49,.53,.88,.74,.39h0Z"/>
            <path class="cls-4" d="M1490.93,92.61c7.57-16.19,19.68-29.97,28.7-45.41,4.97-8.51,9.74-17.03,14.25-25.79,4.44-8.63,9.26-19.01,16.68-25.41,.41-.35-.21-.91-.62-.56-12.89,11.12-18.71,30.64-27.29,44.96-10.38,17.32-23.92,33.55-32.46,51.84-.23,.48,.51,.87,.73,.38h0Z"/>
            <path class="cls-4" d="M1496.2,85.38c8.34-12.24,17.4-24.04,25.14-36.69,3.27-5.33,7.13-10.2,10.52-15.41,3.64-5.59,5.84-11.8,9.09-17.59,.26-.46-.48-.86-.74-.39-2.66,4.76-4.65,9.81-7.17,14.64-3.34,6.38-8.62,12.2-12.44,18.37-7.78,12.6-16.81,24.44-25.14,36.68-.31,.44,.44,.83,.74,.39h0Z"/>
            <path class="cls-4" d="M1489.32,83.31c8.39-16.1,16.03-32.56,25.02-48.35,8.66-15.2,19.55-27.12,32.41-38.8,.39-.36-.23-.92-.61-.56-11.94,10.84-22.17,21.89-30.58,35.66-10.13,16.58-18.01,34.47-26.98,51.67-.24,.47,.49,.86,.74,.39h0Z"/>
            <path class="cls-4" d="M1440.66,122.98c-5.66-14.63,3.64-30.37,11.36-42.45,8.48-13.26,19.09-25.19,29.87-36.61,20.53-21.75,44.01-38.61,69.86-53.65,.46-.27,.02-.97-.45-.7-27.26,15.85-51.08,33.7-72.65,56.57-11.37,12.06-21.95,24.98-30.58,39.13-6.67,10.96-13.18,25.17-8.21,37.96,.19,.5,.99,.25,.79-.24h0Z"/>
            <path class="cls-4" d="M1445.42,125.77c-6.13-16.58,4.9-32.75,13.44-46.09,9.45-14.76,20.18-28.38,31.9-41.38,9.86-10.95,20.48-21.46,32.76-29.69,8.89-5.95,18.26-11.23,26.89-17.56,.43-.31-.02-1.01-.45-.7-9.91,7.27-20.71,13.29-30.85,20.25-13.94,9.57-25.38,23.03-36.48,35.59-11.53,13.04-21.06,27.65-30.34,42.33-6.76,10.7-12.32,24.91-7.66,37.51,.19,.49,.99,.25,.8-.25h0Z"/>
            <path class="cls-4" d="M1449.23,128.67c30.77-5.67,36.26-49.88,44.53-73.82,9.82-28.47,31.37-46.76,56.73-61.63,.46-.28,.02-.98-.45-.7-18.21,10.68-36.41,23.6-47.77,41.62-8.69,13.78-12.57,30.42-17.36,45.77-5.81,18.67-13.76,43.89-35.92,47.97-.53,.1-.28,.89,.24,.79h0Z"/>
            <path class="cls-4" d="M1447.07,126.52c21.79-8.4,27.63-40.22,35.66-59.37,10.2-24.35,24.61-44.87,45.34-61.52,.42-.33-.02-1.03-.44-.7-17.4,13.98-30.84,30.59-40.61,50.59-4.43,9.08-8.06,18.56-11.72,27.96-5.87,15.07-11.9,35.87-28.47,42.25-.5,.19-.26,.98,.24,.8h0Z"/>
            <path class="cls-4" d="M1446.82,127.45c12.99-45.08,41.27-86.42,75.29-118.33,.4-.36-.22-.92-.61-.56-34.16,32.04-62.45,73.45-75.49,118.7-.16,.53,.66,.71,.81,.19h0Z"/>
            <path class="cls-4" d="M1364.27,88.8c.47-12.45,18.01-20.83,27.55-25.82,13.28-6.97,28.31-10.58,42.46-15.32,24.23-8.12,48.52-19.71,70.67-32.38,.47-.27,.02-.96-.44-.7-28.5,16.29-58.99,28.58-90.17,38.66-14,4.52-26.61,10.35-38.72,18.7-5.77,3.98-11.9,9.41-12.17,16.88-.04,.54,.8,.51,.83-.03h0Z"/>
            <path class="cls-4" d="M1388.13,113.9c33.41,6.68,45.55-31.99,62.44-52.66,18.71-22.9,47.6-40.58,72.96-55.5,.45-.28,0-.97-.45-.71-21.07,12.4-43.45,26.59-61.41,43.24-10,9.26-17.94,20.01-25.08,31.52-11.09,17.88-23.95,38.16-48.26,33.3-.53-.11-.71,.7-.2,.81h0Z"/>
            <path class="cls-4" d="M1367.23,95.52c10.15-20.73,33.44-28.58,53.24-36.86,21.39-8.94,43.27-18.23,62.63-31.09,.45-.3,0-1-.44-.7-21.9,14.54-47.12,25.3-71.64,34.67-17.16,6.56-36.11,16.41-44.54,33.6-.23,.48,.51,.87,.74,.38h0Z"/>
            <path class="cls-4" d="M1378.3,107.32c30.32,9.04,41.05-20.39,57.61-38.89,19.04-21.29,45.56-38.31,70.21-52.46,.47-.26,.01-.97-.45-.7-21.09,12.11-41.26,26.27-59.6,42.21-7.5,6.51-13.78,13.53-19.35,21.7-11.69,17.13-24.93,34.29-48.22,27.34-.52-.16-.71,.66-.2,.8h0Z"/>
            <path class="cls-4" d="M1370.83,101.49c23.76,3.53,37.14-15.12,52.42-29.77,20.34-19.52,44.95-35.65,69.17-49.92,.47-.28,.02-.97-.44-.71-20.68,12.19-40.52,25.86-59.07,41.07-18.71,15.33-34.27,42.62-61.88,38.51-.54-.08-.72,.73-.19,.81h0Z"/>
            <path class="cls-4" d="M1368.73,96.94c37.68-13.76,66.81-43.98,102.49-61.9,.48-.24,.04-.95-.45-.7-35.59,17.89-64.69,48.09-102.28,61.81-.5,.18-.26,.98,.24,.8h0Z"/>
            <path class="cls-4" d="M1316.08,12.21c8.64,15.37,29.87,22.37,46.07,25.36,19.34,3.58,40.57,1.71,59.9-1.39,45.43-7.26,88.8-27.14,128.9-48.9,.48-.25,.02-.96-.45-.7-37.31,20.23-76.67,37.83-118.35,46.85-17.16,3.72-34.71,4.99-52.24,4.84-20.84-.16-51.86-6.48-63.14-26.52-.26-.46-.97-.02-.7,.45h0Z"/>
            <path class="cls-4" d="M1311.32,17.79c7.7,16.51,26.92,23.79,43.83,26.23,12.51,1.81,25.46-.69,37.97-1.32,6.83-.34,13.46-.62,20.22-1.79,48.27-8.37,95.04-28.75,137.31-52.89,.46-.27,.01-.97-.46-.71-39.13,22.35-81.41,40.5-125.5,50.52-16.73,3.8-33.46,4.07-50.49,5.45-22.07,1.79-51.74-3.55-62.18-25.95-.22-.48-.92-.03-.71,.45h0Z"/>
            <path class="cls-4" d="M1339.08,61.35c11.88,6.28,24.51,3.48,35.86-2.21,15.04-7.55,28.71-12.4,44.98-16.15,39.62-9.14,78.59-20.62,111.94-44.67,.43-.32,0-1.02-.45-.71-30.94,22.33-66.97,34.03-103.77,42.74-11.14,2.63-22.72,4.56-33.42,8.69-17.75,6.82-35.07,21.98-54.74,11.58-.47-.25-.87,.48-.4,.74h0Z"/>
            <path class="cls-4" d="M1324.73,48.41c17.41,12.42,33.42,13.54,53.34,5.24,13.46-5.62,25.47-9.14,39.6-11.68,43.07-7.75,84.16-24.34,120.59-48.46,.44-.3,0-1-.45-.71-34.26,22.69-72.37,38.41-112.59,46.86-7.92,1.66-15.99,2.54-23.9,4.24-10.51,2.26-20.16,7.87-30.18,11.58-17.13,6.33-31.57,2.5-45.84-7.68-.43-.31-1.01,.3-.57,.61h0Z"/>
            <path class="cls-4" d="M1315.1,34.65c11.33,11.13,24.88,15.07,40.51,15.79,9.89,.45,19.23-1.39,28.8-3.48,9.58-2.09,19.48-2.51,29.13-4.24,.52-.09,.28-.89-.25-.79-15.14,2.71-30.99,5.57-46.23,7.37-18.66,2.21-37.81-1.91-51.39-15.25-.38-.38-.94,.23-.57,.61h0Z"/>
            <path class="cls-4" d="M1321.82-14.2c2.41,6.46,9.68,9.6,15.12,13.28,9.27,6.28,19.17,11.1,29.68,14.96,18.42,6.78,38.4,8.15,57.88,7.92,44.74-.53,87.4-16.06,125.42-38.75,.47-.28,.02-.98-.45-.7-35.82,21.37-74.86,35.75-116.73,38.31-16.25,1-32.95,.24-48.93-2.84-10.46-2.02-20.54-5.76-30.18-10.21-8.63-3.99-27.47-12.74-31.03-22.23-.19-.5-.98-.25-.79,.25h0Z"/>
            <path class="cls-4" d="M1319.03-8.18c15.7,24.46,51.52,33.34,78.65,34.94,36.45,2.18,75.08-6.51,108.62-20.54,.49-.2,.25-1-.24-.79-28.98,12.12-62.71,20.48-94.16,20.87-16.49,.2-32.81-1.28-48.54-6.33-15.86-5.1-34.44-14.28-43.62-28.59-.29-.46-.99,0-.71,.45h0Z"/>
            <path class="cls-4" d="M1317.85-1.33c11.68,18.15,34.1,24.8,54.19,28.84,16.52,3.33,33.9,3.64,50.65,2.18,45.01-3.91,87.75-23.89,127.29-44.36,.47-.25,.03-.95-.46-.7-37.73,19.54-77.57,37.76-120.1,43.48-14.75,1.99-29.69,1.93-44.48,.44-23.48-2.38-52.84-9.26-66.39-30.33-.29-.45-.99,0-.71,.45h0Z"/>
          </g>
        </g>
      </g>
    </g>
  </g>
</svg>