<?xml version="1.0" encoding="UTF-8"?>
<svg id="_圖層_2" data-name="圖層 2" xmlns="http://www.w3.org/2000/svg" viewBox="0 0 613.33 245.33">
  <defs>
    <style>
      .cls-1 {
        fill: #f8b62d;
      }

      .cls-2 {
        fill: #fff;
      }

      .cls-3 {
        fill: #7a6a56;
      }
    </style>
  </defs>
  <g id="pic">
    <rect class="cls-2" width="613.33" height="245.33"/>
  </g>
  <g id="_字" data-name="字">
    <g>
      <path class="cls-1" d="M90.6,60.05c-1.4-.16-2.8-.22-4.63-.22h-18.02c-1.7,0-3.29,.1-4.66,.22v-4.24c1.31,.16,2.68,.22,4.66,.22h18.02c2.04,0,3.44-.06,4.63-.22v4.24Z"/>
      <path class="cls-1" d="M95.98,52.59c-.91,0-1.43,.03-2.04,.13v-3.37c.58,.1,1.07,.13,2.04,.13h1.13v-2.54c0-1.64-.06-2.51-.18-3.34h3.35c-.09,.87-.15,1.86-.15,3.34v2.54h.34c.76,0,1.19-.03,1.8-.13v3.37c-.55-.1-1.07-.13-1.73-.13h-.21c.52,1.86,1.58,3.76,3.14,5.56-.67,.77-1.07,1.41-1.64,2.67-.7-1.09-1.28-2.25-1.8-3.6,.03,.45,.03,.77,.06,.96q.03,.74,.06,3.31v7.97c0,1.7,.06,2.96,.18,3.92h-3.38c.12-1.03,.18-2.32,.18-3.92v-6.65q.12-2.64,.24-3.86c-.94,3.12-1.64,4.85-2.71,6.81-.58-1.38-.91-1.96-1.76-3.15,1.83-2.86,3.23-6.4,3.93-10.03h-.82Zm10.71,2.32c-1.31,0-2.01,.03-2.71,.1,.09-.74,.12-1.45,.12-2.51v-1c-.52,.03-.73,.06-1.16,.13v-2.76c.4,.06,.52,.1,1.16,.13v-.9c0-1.13-.03-1.8-.12-2.7,.79,.1,1.52,.13,2.65,.13h3.62c0-1.06-.03-1.41-.12-2.03h3.2c-.12,.58-.15,1-.15,2.03h3.9c1.19,0,1.92-.03,2.59-.13-.09,.93-.12,1.42-.12,2.6v1c.73-.03,1.19-.06,1.73-.16v2.8c-.58-.06-1-.1-1.73-.13v.87c0,1.25,.03,1.9,.12,2.64-.82-.06-1.43-.1-2.43-.1h-4.05v1h4.44c1.22,0,1.77-.03,2.41-.1-.06,.61-.09,1.03-.09,1.9v2.19c0,.87,.03,1.29,.09,1.9-.76-.06-1.31-.1-2.47-.1h-5.2c-.3,.55-.4,.71-.64,1.16h6.45c1.52,0,2.25-.03,3.01-.19v3.12c-.76-.13-1.58-.19-2.92-.19h-.88c-.76,1.38-1.22,2.06-2.1,2.99q3.8,1.35,5.78,2.15l-1.86,2.73c-2.56-1.26-4.11-1.96-6.36-2.83-2.56,1.58-5.33,2.35-9.89,2.67-.27-1.09-.55-1.7-1.28-2.96,3.1,0,5.24-.29,7.37-1-1.83-.55-2.68-.74-4.93-1.19,1.19-1.19,1.58-1.64,2.31-2.57h-1.22c-1.46,0-2.1,.03-2.86,.16v-3.09c.73,.16,1.49,.19,2.98,.19h3.01c.3-.51,.4-.64,.64-1.16h-2.74c-1.13,0-1.67,.03-2.44,.1,.06-.64,.09-1.12,.09-1.9v-2.15c0-.9-.03-1.22-.09-1.93,.61,.1,.94,.1,2.41,.1h4.05v-1h-3.56Zm.15,3.22v1.25h3.41v-1.25h-3.41Zm3.41-10.29h-3.35v1.16h3.35v-1.16Zm-3.35,3.66v1.16h3.35v-1.16h-3.35Zm3.04,14.08c-.4,.55-.43,.58-.82,1.16,.85,.22,1.92,.51,3.13,.87,.79-.61,1.19-1.06,1.77-2.03h-4.08Zm6.67-16.59v-1.16h-3.44v1.16h3.44Zm-3.44,3.66h3.44v-1.16h-3.44v1.16Zm0,6.72h3.8v-1.25h-3.8v1.25Z"/>
      <path class="cls-1" d="M128.41,69.21c0,1.93,.06,3.05,.18,3.95h-3.59c.12-1.03,.18-2.15,.18-3.98v-21.05c0-1.71-.03-2.6-.12-3.63,.88,.1,1.58,.13,3.11,.13h5.39c1.58,0,2.28-.03,3.1-.13-.06,.9-.09,1.73-.09,2.99v6.3c0,1.51,.03,2.15,.09,2.86-.73-.03-1.73-.06-2.8-.06h-5.45v12.63Zm0-19.74h5.17v-2.06h-5.17v2.06Zm0,4.53h5.17v-2.03h-5.17v2.03Zm22.04,15.17c0,3.09-.82,3.66-5.21,3.66-.55,0-1.25-.03-2.5-.06-.18-1.54-.4-2.44-.82-3.5,1.52,.19,2.74,.29,4.11,.29,.94,0,1.16-.13,1.16-.8v-12.15h-5.72c-1.1,0-2.16,.03-2.8,.1,.06-.74,.09-1.54,.09-2.92v-6.3c0-1.09-.03-1.99-.09-2.99,.88,.1,1.52,.13,3.1,.13h5.66c1.55,0,2.25-.03,3.16-.13-.12,1.12-.15,1.99-.15,3.6v21.09Zm-8.64-19.71h5.39v-2.06h-5.39v2.06Zm0,4.53h5.39v-2.03h-5.39v2.03Z"/>
      <path class="cls-1" d="M166.71,45.04c0-.48-.06-1.09-.15-1.86h3.56c-.09,.58-.15,1.19-.15,1.86h8.22c1.61,0,2.41-.03,3.65-.19v3.15c-.73-.06-2.37-.13-3.74-.13h-19.33v4.24c-.03,6.91-.15,10.06-.64,13.34-.52,3.63-1.13,5.66-2.31,7.91-.88-1.22-1.31-1.64-2.53-2.41,.91-1.67,1.52-3.54,1.95-6.27,.46-2.7,.61-6.01,.61-13.5,0-3.34-.03-4.89-.12-6.27,.79,.1,1.49,.13,3.26,.13h7.73Zm-6.18,19.51c-.58,0-1.28,.03-1.61,.1v-2.51c.4,.1,.79,.13,1.71,.13h2.59c.97,0,1.13,0,1.58-.1v2.44c-.4-.03-.91-.07-1.55-.07h-.27v1.26h.15c1.03,0,1.19-.03,1.49-.1v2.35q-.15-.03-.43-.06s-.03,0-1.03-.03h-.18v1.22c.79-.13,1.07-.19,1.95-.39v2.22c-1.67,.42-1.73,.45-5.54,1.09q-.3,.03-.91,.16l-.43-2.64h.49c.46,0,.91-.03,2.22-.19v-1.48c-.52,.03-1.07,.06-1.61,.1v-2.38c.4,.1,.67,.13,1.61,.13v-1.26h-.21Zm-.15-13.37c-.46,.03-.61,.03-1,.13v-2.6c.52,.1,1.1,.13,2.13,.13h4.87c1.22,0,1.73-.03,2.13-.13v2.57q-.43-.06-.61-.1v19.71c.79-1.58,1.25-3.18,1.61-5.88l2.16,.84c-.4,2.83-.94,4.79-1.83,6.65l-1.95-1.45c0,1,.03,1.83,.12,2.35h-2.8c.09-.64,.18-2.32,.18-3.25v-9.39c-1.19,.19-2.1,.35-3.71,.55q-1.43,.16-2.16,.29l-.49-2.6c.33,.03,.61,.03,.76,.03,.12,0,.24,0,.58-.03v-7.81Zm2.47,1.09h2.56v-1.13h-2.56v1.13Zm0,3.09h2.56v-.96h-2.56v.96Zm0,3.44c1.09-.1,1.52-.16,2.56-.32v-.96h-2.56v1.29Zm8.43,4.69c-.85,0-2.04,.06-2.53,.13v-2.73c.7,.13,1.07,.16,2.5,.16h8.1c1.37,0,1.74-.03,2.62-.16v2.73c-.91-.1-1.67-.13-2.59-.13h-3.99c1.13,.84,1.61,1.29,2.47,2.25l-1.71,1.7c-.76-1.03-1.07-1.38-1.64-1.93q-.06,1-.06,1.77v2.51c0,.55,.15,.64,.97,.64,1.28,0,1.37-.16,1.4-2.57,.82,.48,1.28,.61,2.34,.74-.09,2.25-.24,2.99-.7,3.63-.52,.68-1.4,.93-3.29,.93-2.59,0-3.2-.42-3.2-2.25v-3.5c0-.61-.06-1.35-.12-2.28h2.22c-.4-.35-.58-.48-1.09-.9l.88-.74h-2.59Zm.21-11.15c-.82,0-1.8,.06-2.37,.13v-2.8c.58,.13,1.07,.16,2.5,.16h2.28c0-.16-.03-.26-.03-.35,0-.35-.03-.42-.06-.64,0-.16,0-.19-.03-.35h2.89c-.06,.48-.09,.68-.09,1.35h2.8c1.37,0,1.86-.03,2.62-.16v2.8c-.64-.06-1.83-.13-2.59-.13h-2.83v1.25h2.34c1.4,0,1.77,0,2.46-.1-.06,.61-.06,.77-.06,1.83v2.86c0,1.16,0,1.35,.06,1.83q-.24-.03-.73-.06-.12,0-1.73-.03h-7.31c-.82,0-1.61,.03-2.37,.07q.06-.45,.09-1.77v-2.93q-.03-1.41-.09-1.8c.52,.1,.85,.1,2.31,.1h2.37v-1.25h-2.44Zm-.15,5.17h1.34v-1.61h-1.34v1.61Zm3.26,0h1.34v-1.61h-1.34v1.61Zm3.26,0h1.37v-1.61h-1.37v1.61Zm2.44,7.39c1.13,2.32,1.55,3.44,2.31,6.08l-2.31,1.25c-.76-3.25-1.1-4.24-2.16-6.3l2.16-1.03Z"/>
      <path class="cls-1" d="M195.7,56.13c-.88-3.31-1.16-4.11-1.83-5.75v2.54c-.55-.06-1-.1-1.67-.1h-.88v4.6c.91-.32,1.46-.55,2.95-1.19l.03,3.09c-1.25,.58-1.52,.71-2.98,1.32v9.48c0,2.44-.91,3.15-4.05,3.15-.37,0-.73-.03-1.49-.1-.15-1.38-.27-2.06-.73-3.28,.97,.13,1.73,.19,2.31,.19,.61,0,.76-.16,.76-.9v-7.33c-.37,.13-1.19,.39-1.98,.61-.58,.19-.64,.22-1.07,.39l-.64-3.54c.79-.06,1.49-.26,3.68-.87v-5.63h-1.28c-.76,0-1.37,.03-2.13,.16v-3.41c.7,.13,1.25,.16,2.16,.16h1.25v-2.57c0-1.54-.03-2.31-.18-3.34h3.53c-.12,1.03-.15,1.8-.15,3.34v2.57h.88c.58,0,.94-.03,1.34-.06-.15-.32-.24-.48-.49-.96l2.62-1.41c1.73,4.15,1.73,4.21,2.4,6.72v-6.49c0-1.67-.06-2.7-.18-3.63h3.44c-.12,.8-.15,1.67-.15,3.28v7.97c0,6.59-.82,10.77-2.8,14.02-1,1.64-2.07,2.76-4.11,4.37-.7-1.12-1.22-1.77-2.31-2.89,2.22-1.41,3.01-2.18,4.05-3.95,.88-1.51,1.43-3.18,1.73-5.34-.64,.48-1.4,1.03-2.13,1.54q-.34,.26-1.34,.87c-.3,.19-.33,.22-.79,.55l-.94-3.5c1.95-.71,3.32-1.48,5.51-3.05,.03-.74,.03-1,.03-1.57v-1.61l-2.37,1.58Zm10.56,13.02c0,.48,.27,.61,1.34,.61,1.28,0,1.73-.16,1.98-.74,.21-.51,.4-2.35,.49-4.34,1.19,.64,1.92,.93,2.95,1.16-.24,3.28-.7,5.14-1.46,5.98-.79,.9-1.67,1.09-4.75,1.09-2.68,0-3.65-.64-3.65-2.48v-23.43c0-1.45-.03-2.19-.15-3.12h3.41c-.12,.97-.15,1.74-.15,3.44v5.88c2.13-3.25,2.37-3.66,3.17-6.04l2.77,1.74c-1.4,2.96-2.13,4.21-3.8,6.56l-2.13-1.67v2.77c2.41,1.61,3.74,2.73,6.09,5.01l-2.01,2.67c-1.67-1.9-2.5-2.73-4.08-4.08v9Z"/>
      <path class="cls-1" d="M227.13,45.55c0-.74-.06-1.38-.18-2.02h3.74c-.12,.67-.18,1.28-.18,1.99v.42h8.98c1.37,0,2.22-.06,3.2-.19v3.25c-1-.13-1.77-.16-3.17-.16h-21c-1.37,0-2.13,.03-3.14,.16v-3.25c.97,.13,1.89,.19,3.32,.19h8.43v-.39Zm-10.9,15.78c0-1.09-.03-1.93-.12-2.92,.97,.1,1.86,.13,3.17,.13h19.72c1.46,0,2.19-.03,2.98-.13-.09,1-.12,1.73-.12,2.89v8.2c0,1.61-.15,2.22-.73,2.77-.61,.58-1.52,.77-3.65,.77-.64,0-.79,0-1.77-.06q-.49-.03-.97-.03c-.06-1.45-.21-2.19-.67-3.21,1.67,.19,2.98,.29,3.84,.29,.58,0,.73-.16,.73-.67v-8.01h-19.18v8.55c0,1.64,.03,2.41,.18,3.54h-3.59c.12-.67,.18-2.02,.18-3.54v-8.55Zm3.78-9.03c0-1.03-.03-1.57-.09-2.35,.88,.1,1.61,.13,2.95,.13h12.66c1.22,0,1.86-.03,2.71-.13-.06,.84-.09,1.32-.09,2.35v2.77c0,1.25,.03,1.61,.09,2.38-.82-.1-1.52-.13-2.86-.13h-12.6c-1.19,0-1.98,.03-2.86,.13,.06-.67,.09-1.28,.09-2.38v-2.77Zm15.52,14.98c0,.93,.03,1.57,.09,2.15-.58-.06-1.7-.1-2.53-.1h-7.67v1.61h-3.14c.09-.61,.12-1.32,.12-2.6v-3.73c0-.93-.03-1.48-.09-2.12,.7,.06,1.34,.1,2.46,.1h8.34c1.16,0,1.58-.03,2.5-.1-.06,.61-.09,1.09-.09,2.06v2.73Zm-12.36-12.63h11.78v-1.96h-11.78v1.96Zm2.25,12.15h7.18v-1.77h-7.18v1.77Z"/>
      <path class="cls-1" d="M265.19,65.35c-1.13-.16-1.77-.19-3.04-.22h-1.1v2.28c0,1.64,.06,2.47,.24,3.66h-4.32c.18-1.12,.24-2.12,.24-3.73v-2.22h-8.43c-1.8,0-2.77,.03-3.8,.13v-3.95c1.03-1.19,1.37-1.61,2.43-2.96l7.21-9.32c1.34-1.7,1.83-2.38,2.53-3.54h4.11c-.18,1.86-.21,2.99-.21,5.43v10.54h1.07c1.22,0,1.95-.06,3.07-.22v4.11Zm-7.94-10.51c0-1.51,.03-2.54,.15-3.86-.61,.93-.97,1.45-2.07,2.86l-5.84,7.65h7.76v-6.65Z"/>
      <path class="cls-1" d="M290.87,54.94c1.52,0,2.74-.06,3.68-.19v3.79c-1.07-.13-2.25-.19-3.68-.19h-6.51c.85,1.25,2.16,2.8,3.47,3.99,1.95,1.8,4.72,3.57,7.73,4.85-.91,1.12-1.28,1.7-2.25,3.57-3.2-1.96-5.11-3.37-6.88-5.14-1.7-1.67-2.68-2.96-3.96-5.27,0,.29,.03,.52,.03,.68q.06,.8,.09,2.31v5.98c0,1.41,.06,2.77,.21,4.02h-3.84c.15-1.13,.21-2.51,.21-4.05v-5.88c0-1.19,.03-2.03,.12-2.99-1.37,2.44-2.62,4.02-4.87,6.2-1.77,1.67-3.17,2.73-5.45,4.08-.58-1.32-1.25-2.35-2.19-3.37,4.2-1.86,7.88-5.02,10.44-8.97h-5.78c-1.49,0-2.65,.06-3.74,.19v-3.79c.91,.13,1.98,.19,3.74,.19h7.73v-8c0-1.32-.06-2.15-.18-3.12h3.8c-.15,.87-.21,1.73-.21,3.12v8h8.28Zm-16.95-.68c-1.1-2.6-2.04-4.37-3.99-7.2l2.86-1.9c2.01,3.02,2.92,4.56,4.14,7.1l-3.01,1.99Zm11.02-1.83c1.98-2.6,2.98-4.31,4.2-7.27l3.13,1.8c-1.52,3.05-2.65,4.85-4.63,7.46l-2.71-1.99Z"/>
      <path class="cls-1" d="M301.9,71.08c-2.37,0-2.86,.03-3.93,.16,.18-1.83,.4-2.96,.79-4.11,.82-2.35,2.19-4.4,4.17-6.3,1.07-1,1.98-1.73,5.02-3.89,2.8-2.03,3.65-3.09,3.65-4.73,0-2.18-1.61-3.53-4.2-3.53-1.77,0-3.1,.64-3.87,1.9-.52,.77-.73,1.48-.94,2.96l-4.35-.54c.43-2.44,.97-3.76,2.1-5.14,1.52-1.86,3.93-2.86,6.97-2.86,5.33,0,8.61,2.7,8.61,7.1,0,2.12-.67,3.66-2.16,5.14-.85,.84-1.16,1.09-5.11,3.95-1.34,1-2.86,2.35-3.62,3.22-.91,1.03-1.28,1.67-1.74,2.89h8.52c1.92,0,3.44-.1,4.44-.26v4.24c-1.43-.13-2.65-.19-4.6-.19h-9.77Z"/>
      <path class="cls-1" d="M323.62,69.69c0,2.77-.76,3.89-3.14,4.82l-1.09-1.7c1.8-.52,2.31-1.19,2.31-3.12h-2.56v-4.69h4.47v4.69Z"/>
      <path class="cls-1" d="M341.72,48.8c-1.31,1.86-3.04,3.79-4.69,5.14-.64-1-1.16-1.51-2.37-2.44,2.01-1.45,3.5-3.09,4.81-5.24,.76-1.29,1.19-2.25,1.37-3.15l3.59,.87c-.06,.1-.09,.16-.12,.19q-.09,.23-.43,.97c-.12,.26-.21,.42-.43,.8h13.79c1.86,0,2.77-.06,3.8-.22v3.25c-1.07-.1-2.25-.16-3.8-.16h-15.52Zm-1.89,13.37c-.7-1.25-1.28-2.06-2.16-2.96l2.31-1.54c1,1.03,1.67,1.83,2.56,3.21l-1.95,1.29h3.29v-1.83c0-1-.03-1.64-.12-2.41h3.35c-.06,.64-.09,1.35-.09,2.35v1.9h2.95l-1.86-1.06c1.07-1.16,1.49-1.8,2.25-3.44l2.77,1.54c-.79,1.16-1.67,2.32-2.28,2.96h.73c1.37,0,2.5-.06,2.98-.16v2.92c-.7-.06-1.31-.1-3.1-.1h-2.74c1.25,1.29,1.83,1.8,2.83,2.51,1.49,1.03,2.62,1.61,4.32,2.25-1.13,1.41-1.46,1.86-1.98,2.8-1.22-.64-2.25-1.29-3.35-2.15-1.61-1.29-2.56-2.25-3.68-3.92,.09,.87,.15,2.03,.15,2.64v1.58c0,1.09,.03,1.83,.18,2.67h-3.5c.12-.97,.18-1.7,.18-2.73v-1.42c0-.54,.03-1.45,.09-2.67-2.04,2.73-4.08,4.43-7,5.98-.61-1.06-1.25-1.83-2.19-2.77,1.77-.67,3.1-1.38,4.63-2.51,.82-.58,1.34-1.06,2.47-2.25h-3.41c-1.13,0-2.1,.03-3.1,.16v-2.99c.88,.13,1.83,.16,3.1,.16h1.37Zm-3.5-7.97c.94,.13,1.92,.19,3.26,.19h14.91c1.92,0,2.89-.03,3.78-.13-.12,1.03-.15,2.22-.15,3.6,0,4.21,.3,7.39,.94,9.26,.34,.96,.58,1.41,.82,1.41,.3,0,.52-1,.82-4.34,.85,1.06,1.52,1.64,2.34,2.12-.3,2.35-.64,3.79-1.16,5.02-.4,.93-1.16,1.54-1.89,1.54-1.31,0-2.77-1.57-3.62-3.95-1-2.7-1.43-6.14-1.46-11.7h-15.01c-1.55,0-2.47,.03-3.59,.16v-3.18Zm4.51-4.02c.49,.1,1.03,.13,2.04,.13h12.66c1.61,0,2.37-.03,3.2-.16v2.89c-.91-.13-1.7-.16-3.2-.16h-11.78c-1.22,0-2.13,.06-2.92,.16v-2.86Z"/>
      <path class="cls-1" d="M371.32,62.94c-1.37,4.66-1.92,6.08-3.87,10.16l-2.77-2.64c.46-.52,.67-.84,1.28-2.06,.91-1.77,1.61-3.76,2.71-7.52l2.65,2.06Zm-4.72-10.93c2.37,1.48,3.14,2.03,5.33,3.89l-1.86,2.86c-2.44-2.25-2.98-2.67-5.33-4.18l1.86-2.57Zm1.19-8.04c2.13,1.51,3.04,2.28,4.93,4.18l-1.92,2.7c-2.13-2.22-2.92-2.89-5.08-4.37l2.07-2.51Zm25.26,14.59c-.43,.29-.73,.52-.94,.64-2.01,1.41-2.31,1.61-3.62,2.32,.64,2.15,1.13,3.41,1.77,4.6,.82,1.48,1.73,2.67,3.07,4.02-.91,1-1.46,1.74-2.34,3.22-2.28-2.67-3.59-5.08-4.81-8.78-1-3.09-1.46-5.43-2.01-10-.58,.1-.88,.16-1.67,.29v14.66c0,1.61,.06,2.73,.18,3.73h-3.53c.12-1.13,.18-2.28,.18-3.73v-14.27q-1.07,.06-2.53,.13c-.21,9.1-1.13,13.66-3.59,17.97-.88-1.19-1.4-1.67-2.65-2.57,.97-1.54,1.55-2.92,2.04-5.14,.82-3.44,1.13-7.14,1.13-13.15,0-3.37-.03-4.47-.15-5.95,.52,.03,.67,.03,.82,.03,1.22,0,3.07-.16,5.21-.42,3.87-.52,7.15-1.45,9.19-2.6l2.56,2.86q-.3,.1-.85,.32c-.97,.39-2.01,.74-3.32,1.09-3.53,1.03-6.18,1.45-10.35,1.73v2.83c3.29-.06,7.61-.77,10.2-1.67,1.19-.42,2.04-.8,2.74-1.32l2.28,2.73c-.3,.13-.43,.16-.7,.29-1.34,.58-2.68,1.06-4.29,1.51,.18,1.9,.34,2.96,.64,4.53,1.34-.77,2.28-1.48,3.38-2.51l1.98,2.6Z"/>
      <path class="cls-1" d="M395.26,55.77c.76,.13,1.25,.16,2.44,.16h2.28c1.07,0,1.52-.03,2.31-.13-.12,.93-.12,1.51-.12,3.47v6.75c.49,.93,.73,1.25,1.37,1.7,1.55,1.12,3.23,1.42,8.19,1.42,4.57,0,9.35-.23,12.05-.58-.64,2.06-.73,2.41-.91,3.86-2.74,.13-6.91,.19-10.38,.19-3.65,0-6.36-.23-7.79-.68-1.8-.51-2.68-1.16-4.14-2.99-.85,.9-2.1,2.03-2.71,2.51-.49,.35-.85,.67-1.16,.9q-.3,.29-.55,.48l-1.49-3.66c1.1-.48,2.83-1.77,4.32-3.18v-6.91h-1.67c-.85,0-1.31,.03-2.04,.16v-3.47Zm2.74-11.73c2.22,2.03,3.5,3.41,5.24,5.63l-2.62,2.64c-1.77-2.57-2.83-3.79-5.05-5.85l2.44-2.41Zm9.8,17.33c1.52-.61,1.95-.77,3.47-1.48l.06,3.31c-2.34,1.09-2.71,1.25-5.84,2.44-1,.39-1.19,.48-1.64,.67l-1-3.54c.12-.03,.24-.06,.3-.06q.7-.13,1.46-.35v-13.15c0-1.64-.03-2.31-.12-3.12,2.5-.22,5.84-1.38,7.27-2.51l1.67,2.19h6.18c1.52,0,2.28-.03,2.74-.1-.09,.74-.12,1.48-.12,2.83v13.4c0,2.48-1.04,3.15-4.84,3.15h-.67c-.15-1.45-.3-2.19-.67-3.31,.7,.16,1.37,.23,2.1,.23s.88-.16,.88-.87v-12.28h-3.56v16.04c0,1.64,.03,2.6,.15,3.44h-3.56c.12-.84,.18-1.86,.18-3.44v-16.33c0-.45-.03-.74-.03-1.29-1.46,.64-2.68,1.09-4.41,1.58v12.54Z"/>
      <path class="cls-1" d="M430.31,59.76c-.94,.23-1.55,.35-3.53,.74-.4-1.16-.7-1.8-1.28-2.86,4.47-.45,7.85-1.16,12.11-2.54v-3.37h-3.84l2.13,1.45c-2.8,1.86-4.41,2.6-7.82,3.63-.46-.93-.82-1.51-1.55-2.35,2.28-.51,3.71-.96,5.27-1.73,.52-.26,.79-.42,1.61-1h-.88c-1.03,0-1.7,.03-2.28,.13v-2.7c.76,.1,1.4,.13,2.31,.13h14.27c.91,0,1.52-.03,2.28-.13v2.7c-.58-.1-1.16-.13-2.22-.13,1.83,1.03,3.53,1.64,6.27,2.28-.64,.87-.97,1.51-1.43,2.64-3.26-1.09-5.17-2.03-7.61-3.76l2.07-1.16h-5.48v2.25c1-.45,1.46-.71,1.95-1.06l2.65,1.64c-.52,.26-.73,.35-1.49,.74-1.07,.55-1.43,.71-2.31,1.06h4.93c1.49,0,2.28-.03,3.2-.13-.06,.93-.09,2.06-.09,3.73v5.4c0,1.8,.03,2.73,.12,3.5-.88-.1-1.55-.13-3.35-.13h-.46c2.04,.9,4.02,1.32,8.07,1.74-.76,1.25-.82,1.38-1.58,3.02-4.93-.87-6.57-1.41-10.44-3.47l1.83-1.29h-8.16l1.7,1.29c-3.32,1.86-5.26,2.57-10.2,3.57-.33-.84-.91-1.9-1.64-3.02,3.93-.45,6.18-.97,8.16-1.83-1.83,0-2.46,.03-3.44,.13,.12-.87,.15-1.86,.15-3.63v-5.47Zm7.4-14.4c-.03-.8-.06-1.29-.15-1.93h3.68c-.09,.55-.15,1-.15,1.93h7.97c2.1,0,2.92-.03,3.9-.13-.09,.8-.12,1.29-.12,2.28v1.64c0,1.22,.03,1.73,.12,2.41h-3.23v-3.53h-20.09v3.5h-3.23c.09-.61,.12-1.22,.12-2.41v-1.7c0-.8-.03-1.35-.12-2.18,1.03,.1,1.86,.13,3.8,.13h7.49Zm-4.23,14.43h12.91v-1.16h-11.47q-.79,.19-1.43,.35v.8Zm0,3.25h12.91v-1.16h-12.91v1.16Zm0,3.31h12.91v-1.22h-12.91v1.22Z"/>
      <path class="cls-3" d="M64.56,97.73c-.91,0-1.19,.02-1.74,.11v-1.54c.54,.11,.96,.14,1.85,.14h2.5c.85,0,1.26-.02,1.8-.14v1.51c-.57-.07-.96-.09-1.67-.09h-.67v5.14h.67c.65,0,.89-.02,1.43-.11v1.47c-.5-.07-.85-.09-1.43-.09h-.67v5.67c.8-.39,1.28-.67,2.32-1.31v1.51c-1.26,.78-2.78,1.54-5.5,2.73-.13,.07-.24,.11-.43,.25l-.41-1.61c.65-.11,1.48-.41,2.72-.96v-6.28h-.74c-.61,0-.98,.02-1.46,.11v-1.49c.48,.09,.83,.11,1.48,.11h.72v-5.14h-.76Zm14.81,9.04c.98,0,1.43-.02,2-.11v1.4c-.78-.09-1.24-.11-1.95-.11h-2.56v2.09h2.54c.98,0,1.41-.02,2-.11v1.4c-.78-.09-1.24-.12-1.95-.12h-2.58v2.39h3.39c1,0,1.45-.02,2-.11v1.47c-.76-.09-1.41-.14-2.15-.14h-8.49v1.22h-1.39c.11-.69,.15-1.47,.15-2.46v-5.87c0-.85,.02-1.65,.04-1.99-.65,.99-1,1.4-1.65,2.06-.33-.46-.48-.6-.96-.94,1.09-1.03,1.65-1.68,2.35-2.73,.74-1.15,1.15-1.93,1.63-3.14l1.26,.57c-.35,.67-.83,1.54-1.11,1.93h3.58c.56-.92,.89-1.6,1.15-2.52l1.28,.41c-.72,1.44-.91,1.79-1.11,2.11h3.21c.87,0,1.45-.04,2.04-.14v1.44c-.59-.07-1.22-.11-1.93-.11h-3.3v2.13h2.52Zm-4.39-9.68c0-.82-.04-1.33-.13-1.79h1.52c-.09,.46-.11,.96-.11,1.79v2.18h4v-1.28c0-.73-.02-1.24-.09-1.67h1.5c-.09,.46-.11,.96-.11,1.67v1.17c0,.57,.02,.92,.07,1.35-.93-.04-1.06-.04-1.63-.04h-8.71c-.87,0-1.13,0-1.56,.04,.02-.5,.04-.92,.04-1.38v-1.15c0-.57-.04-1.17-.11-1.67h1.5c-.06,.41-.09,.99-.09,1.7v1.26h3.91v-2.18Zm.63,9.68v-2.13h-4.02v2.13h4.02Zm-4.02,3.26h4.02v-2.09h-4.02v2.09Zm0,3.56h4.02v-2.39h-4.02v2.39Z"/>
      <path class="cls-3" d="M86.45,97.78c-.89,0-1.28,.02-1.76,.11v-1.51c.56,.11,1,.14,1.82,.14h2.35c.8,0,1.24-.02,1.78-.14v1.49c-.52-.07-.93-.09-1.67-.09h-.67v5.12h.46c.69,0,.89,0,1.3-.07v1.38c-.48-.05-.87-.07-1.33-.07h-.43v5.96c1.28-.57,1.48-.64,2.39-1.08v1.35c-1.52,.82-2.26,1.12-5.15,2.2-.28,.09-.65,.23-.93,.37l-.37-1.56c.67-.11,1.67-.39,2.76-.78v-6.47h-.7c-.56,0-.89,.02-1.39,.11v-1.47c.5,.09,.76,.12,1.39,.12h.7v-5.12h-.54Zm8.9,.92c.52,0,.8-.02,1.17-.07l.63,.73c-.09,.18-.11,.23-.22,.46-.69,1.61-1.19,2.43-2.13,3.53-1.15,1.4-2.5,2.48-4.37,3.44-.24-.41-.41-.6-.8-1.01,1.61-.73,2.67-1.45,3.71-2.48-.44-.5-.85-.85-1.56-1.28l.72-.85c.7,.46,1.13,.8,1.61,1.31,.67-.82,1.13-1.6,1.59-2.73h-2.82c-.69,1.22-1.28,1.84-2.71,2.94-.15-.39-.33-.64-.65-.96,1.39-.94,2.28-1.97,2.67-3.1,.35,.04,.72,.07,1.19,.07v-2.09c0-.67-.02-1.15-.09-1.6h1.33c-.06,.46-.09,.82-.09,1.4h.78c.61,0,.91-.02,1.3-.09v1.22c-.35-.07-.69-.09-1.3-.09h-.78v1.26h.83Zm5.95,9.98c.89,0,1.52-.05,2.06-.14v1.47c-.61-.09-1.28-.14-2.08-.14h-2.93c.56,.62,1.48,1.38,2.32,1.95,1.26,.89,2.3,1.4,3.97,1.97-.41,.46-.61,.8-.78,1.24-1.46-.6-2.24-1.03-3.35-1.81-1.06-.78-2.06-1.72-2.87-2.71q.02,.21,.04,.76c.02,.28,.04,.8,.04,1.08v1.9c0,.8,.04,1.33,.13,1.86h-1.5c.09-.55,.13-1.08,.13-1.84v-1.93c0-.69,.02-1.21,.06-1.81-1.61,2.02-3.19,3.19-6.15,4.56-.2-.48-.39-.82-.74-1.19,2.56-.99,4.52-2.27,6.15-4.04h-2.76c-.76,0-1.26,.02-1.87,.09v-1.38c.41,.07,.87,.09,1.76,.09h3.54v-2.04c0-.76-.02-1.15-.11-1.63h1.46c-.09,.44-.11,.85-.11,1.6v2.07h3.56Zm-7.51-3.28c.56,.76,.72,.99,1.33,2.29l-1.06,.57c-.46-1.08-.69-1.51-1.28-2.32l1.02-.55Zm10.01-8.1q-.04,.09-.11,.23c-.07,.11-.15,.3-.28,.64-.52,1.26-1.3,2.55-2.11,3.46,.98,1.03,1.85,1.63,3.32,2.32-.26,.39-.35,.53-.54,1.01l-.09,.23c-1.45-.8-2.61-1.67-3.52-2.71-1.06,.92-1.76,1.35-3.34,2.11-.13-.39-.35-.74-.72-1.13,1.37-.53,2.52-1.17,3.32-1.9-.67-.99-1.37-2.5-1.78-3.9-.37,.02-.54,.05-.8,.09v-1.33c.46,.07,.8,.09,1.61,.09h3c.7,0,1-.02,1.35-.09l.69,.87Zm-4.73,.37c.35,1.15,.83,2.13,1.5,3.1,.76-.83,1.24-1.67,1.8-3.1h-3.3Zm3.11,7.84c-.87,1.4-1.13,1.74-2.11,2.78l-.91-.76c.89-.96,1.3-1.56,1.85-2.71l1.17,.69Z"/>
      <path class="cls-3" d="M108.85,113.31c0,1.28,.04,1.99,.13,2.57h-1.63c.09-.64,.13-1.38,.13-2.59v-14.89c0-1.12-.02-1.79-.09-2.52,.59,.07,1.19,.09,2.26,.09h3.15c1.09,0,1.61-.02,2.21-.09-.04,.62-.06,1.26-.06,2.18v3.6c0,.99,.02,1.49,.06,2.11-.48-.04-1.3-.07-2.19-.07h-3.97v9.61Zm0-14.11h4.84v-2.06h-4.84v2.06Zm0,3.33h4.84v-2.18h-4.84v2.18Zm15.88,10.99c0,1.63-.46,2.02-2.35,2.02-.7,0-1.61-.02-2.52-.09-.09-.62-.17-.99-.39-1.54,1.02,.16,1.98,.25,2.65,.25,1.06,0,1.24-.09,1.24-.6v-9.86h-4.23c-.93,0-1.72,.02-2.19,.07,.04-.62,.06-1.24,.06-2.11v-3.6c0-.8-.02-1.49-.06-2.18,.59,.07,1.15,.09,2.21,.09h3.41c1.06,0,1.67-.02,2.28-.09-.09,.8-.11,1.49-.11,2.52v15.11Zm-6.47-14.31h5.1v-2.06h-5.1v2.06Zm0,3.33h5.1v-2.18h-5.1v2.18Z"/>
      <path class="cls-3" d="M137.4,96.33c0-.73-.02-1.03-.11-1.58h1.59c-.09,.5-.13,.89-.13,1.58h6.15c.98,0,1.56-.02,2.37-.14v1.45c-.63-.09-1.37-.11-2.39-.11h-14.4v3.46c0,4.82-.11,7.23-.41,9.33-.33,2.25-.74,3.62-1.67,5.46-.37-.48-.59-.67-1.09-.96,1.61-3,1.91-5.48,1.91-15.14,0-1.51-.02-2.52-.09-3.46,.63,.09,1.26,.11,2.19,.11h6.08Zm-5.21,13.12c-.52,0-.93,.02-1.3,.09v-1.19c.3,.07,.7,.09,1.37,.09h1.67c.74,0,.87,0,1.24-.07v1.15c-.37-.04-.63-.07-1.24-.07h-.46v1.42h.39c.76,0,.89,0,1.17-.07v1.12c-.5-.07-.67-.07-1.15-.07h-.41v1.54c.63-.11,.96-.18,1.85-.39l-.02,.99c-1.13,.3-1.87,.46-3.06,.69q-1.04,.18-1.65,.32l-.3-1.21c.59,0,.91-.05,2.17-.23v-1.7h-.2c-.52,0-.8,.02-1.3,.07v-1.15c.35,.07,.67,.09,1.33,.09h.17v-1.42h-.26Zm-.15-9.68c-.41,.02-.65,.04-.96,.11v-1.28c.43,.09,.85,.11,1.54,.11h3.56c.74,0,1.15-.02,1.43-.11v1.26c-.28-.05-.41-.07-.78-.09v13.85c0,1.15,.02,1.86,.11,2.29h-1.33c.06-.53,.11-1.4,.11-2.34v-6.58c-1.11,.21-1.72,.3-3.91,.6-.22,.02-.24,.04-.65,.14l-.26-1.26h.48c.13,0,.28,0,.65-.02v-6.67Zm1.11,1.44h2.58v-1.44h-2.58v1.44Zm0,2.43h2.58v-1.45h-2.58v1.45Zm0,2.71c1.13-.14,1.74-.21,2.58-.39v-1.31h-2.58v1.7Zm6.36,4.52c-.35,1.9-.69,3.03-1.35,4.43l-1-.66c.67-1.31,1-2.32,1.3-4.2l1.04,.43Zm-1.85-3.26c.52,.09,.91,.11,1.82,.11h6.08c.89,0,1.32-.02,1.85-.11v1.33c-.59-.09-1.04-.11-1.82-.11h-6.08c-.78,0-1.37,.02-1.85,.11v-1.33Zm2.13-6.86c-.78,0-1.37,.04-1.8,.11v-1.33c.39,.09,.89,.11,1.82,.11h2.06c0-.8-.02-.96-.11-1.54h1.35c-.07,.46-.09,.71-.09,1.54h2.61c.89,0,1.3-.02,1.82-.11v1.33c-.41-.07-1.06-.11-1.8-.11h-2.63v1.4h2.06c.93,0,1.35-.02,1.85-.09-.04,.5-.06,.85-.06,1.51v1.54c0,.78,0,1.01,.06,1.42-.63-.07-1.06-.09-1.82-.09h-5.17c-1.04,0-1.35,0-1.8,.07,.04-.37,.07-.62,.07-1.4v-1.54c0-.85-.02-1.15-.07-1.49,.44,.07,.72,.07,1.8,.07h1.93v-1.4h-2.08Zm-.56,4.65h1.52v-2.25h-1.52v2.25Zm2.26,5.07c-.09,.46-.11,.96-.11,1.77v1.7c0,.51,.11,.55,1.3,.55,1.09,0,1.33-.09,1.46-.6,.11-.32,.13-.64,.13-1.26,.43,.28,.69,.37,1.13,.44-.15,2.27-.56,2.64-2.85,2.64-1.95,0-2.3-.21-2.3-1.4v-1.99c0-.87-.02-1.19-.11-1.84h1.35Zm.28-1.45c1.09,.85,1.56,1.28,2.32,2.18l-.8,.8c-.87-1.15-1.32-1.63-2.32-2.39l.8-.6Zm-.02-3.62h1.52v-2.25h-1.52v2.25Zm2.52,0h1.56v-2.25h-1.56v2.25Zm1.82,4.95c.85,1.63,1.13,2.27,1.74,4.06l-1.06,.64c-.59-2.04-.89-2.75-1.65-4.18l.98-.53Z"/>
      <path class="cls-3" d="M154.28,98.76c-1.06,1.72-2.15,3.03-3.76,4.47-.3-.55-.54-.85-.96-1.24,1.98-1.51,3.37-3.26,4.47-5.6,.3-.64,.5-1.19,.61-1.6l1.52,.41c-.26,.46-.35,.62-.89,1.77-.09,.16-.13,.25-.24,.46h10.88c1.26,0,1.98-.05,2.74-.16v1.63c-.85-.09-1.56-.14-2.74-.14h-11.64Zm-2.54,8.6c-1.04,0-1.56,.02-2.08,.14v-1.61c.54,.11,1.09,.14,2.15,.14h1.33c.39-2.87,.52-4.06,.52-4.82,0-.18,0-.21-.02-.41,.43,.05,.72,.05,1.56,.05h9.03c1.09,0,1.69-.02,2.19-.09q-.09,.76-.09,1.03c-.09,1.4-.17,2.8-.26,4.24h1.3c.96,0,1.5-.02,2-.12v1.56c-.57-.09-1.09-.11-2.02-.11h-1.37c-.09,1.51-.17,2.36-.41,4.13h1.22c.54,0,1-.02,1.45-.11v1.56c-.54-.09-.98-.11-1.54-.11h-1.35c-.5,2.57-1.02,3.12-2.98,3.12-.63,0-1.11-.02-2.13-.11-.07-.76-.11-1.01-.35-1.58,.93,.18,1.74,.27,2.41,.27,1.04,0,1.35-.3,1.63-1.7h-10.77c-.15,.5-.28,.96-.39,1.38l-1.59-.04c.83-2.27,1.33-4.27,1.74-6.79h-1.19Zm2.58,0c-.24,1.45-.46,2.62-.83,4.13h10.69c.15-1.19,.33-2.87,.41-4.13h-10.27Zm10.36-1.33q.15-2.78,.2-3.88h-9.93c-.11,1.21-.3,3.01-.43,3.88h10.16Zm-6.06,1.56c.87,.82,1.5,1.51,2.32,2.64l-1.04,.92c-.76-1.17-1.32-1.86-2.26-2.75l.98-.8Zm.35-5.18c1.15,1.05,1.41,1.33,2.32,2.48l-1.04,.89c-.96-1.33-1.11-1.49-2.28-2.62l1-.76Z"/>
      <path class="cls-3" d="M181.96,104.54c.78,2.45,1.61,3.97,2.98,5.48,1.59,1.77,3.52,3.03,6.15,4.04-.41,.53-.59,.82-.89,1.54-2.74-1.28-4.71-2.75-6.41-4.77-1.15-1.35-2.06-3.07-2.8-5.23-.65,2.5-1.74,4.54-3.39,6.26-1.39,1.49-2.84,2.48-5.32,3.65-.3-.69-.46-.92-.93-1.42,2.8-1.06,4.93-2.59,6.34-4.54,1.04-1.47,1.69-3,2.06-5h-4.91c-.89,0-1.63,.05-2.3,.14v-1.63c.65,.09,1.32,.14,2.3,.14h5.12c.22-1.7,.24-2.2,.28-4.93h-6.12c-1.13,0-1.8,.05-2.41,.16v-1.7c.56,.12,1.37,.16,2.41,.16h14.25c1.02,0,1.82-.04,2.41-.16v1.7c-.61-.11-1.28-.16-2.41-.16h-6.69c-.02,2.55-.09,3.46-.26,4.93h6.23c.98,0,1.63-.05,2.32-.14v1.63c-.72-.09-1.41-.14-2.32-.14h-5.69Z"/>
      <path class="cls-3" d="M193.14,104.15c.52,.09,.87,.12,1.69,.12h1.13c.67,0,1.11-.02,1.67-.12-.09,.67-.11,1.24-.11,2.43v4.47c.44,.94,.67,1.26,1.28,1.67,1.19,.85,2.45,1.08,5.91,1.08s6.43-.14,8.38-.43c-.35,.89-.39,1.03-.5,1.72-2.15,.09-4.6,.14-6.89,.14-3.39,0-4.71-.12-5.84-.48-1.37-.46-2.08-1.03-3.06-2.5-.98,1.03-1.52,1.54-2.63,2.43-.04,.04-.24,.21-.78,.69l-.72-1.49c.98-.48,2.28-1.51,3.5-2.8v-5.53h-1.43c-.74,0-1.11,.02-1.61,.11v-1.51Zm1.56-8.42c1.46,1.45,2.28,2.39,3.45,4.01l-1.11,1.03c-1.22-1.86-1.89-2.68-3.37-4.13l1.02-.92Zm6.58,12.82c1.26-.48,2.04-.82,3.41-1.49l.09,1.35c-1.89,.94-2.76,1.31-5.02,2.18-.3,.11-.63,.25-.96,.41l-.46-1.58c.41-.04,.67-.11,1.59-.41v-9.43c0-1.13-.02-1.72-.09-2.27,.93-.12,2.11-.48,3.5-1.06,.76-.3,1.22-.57,1.61-.92l1.04,1.24c-1.78,.83-3.15,1.38-4.71,1.81v10.16Zm4.08-9.68c0-.96-.02-1.51-.06-1.97,.5,.05,.83,.07,1.85,.07h2.98c1.04,0,1.52-.02,1.87-.07-.09,.53-.11,1.03-.11,1.9v9.54c0,.74-.24,1.26-.63,1.45-.35,.16-1.11,.28-1.87,.28-.52,0-1.06-.02-1.48-.05-.04-.57-.13-.94-.3-1.47,.74,.14,1.41,.18,2.17,.18,.59,0,.74-.14,.74-.71v-9.77h-3.78v12.29c0,1.08,.04,1.93,.13,2.43h-1.61c.06-.53,.11-1.4,.11-2.39v-11.72Z"/>
      <path class="cls-3" d="M221.17,105.94c-.89,.48-1.24,.64-2.15,1.05v7.2c0,.85-.24,1.26-.83,1.45-.33,.09-1.11,.18-1.78,.18-.22,0-.39,0-.74-.05-.09-.6-.15-.92-.37-1.42,.54,.09,1.09,.14,1.48,.14,.69,0,.89-.11,.89-.55v-6.38c-.78,.32-.98,.41-1.43,.6-.56,.21-.91,.35-1.19,.51l-.39-1.58c.7-.09,1.41-.34,3.02-.96v-5.02h-1.13c-.61,0-1.11,.02-1.61,.09v-1.51c.52,.09,1,.14,1.63,.14h1.11v-2.2c0-.96-.04-1.58-.15-2.32h1.65c-.11,.69-.15,1.35-.15,2.29v2.23h.69c.76,0,1-.02,1.5-.09v1.47c-.43-.07-.85-.09-1.48-.09h-.72v4.47c.85-.37,1.22-.55,2.06-1.01v-1.42c.43,.09,1,.11,1.93,.11h5.69c.78-1.21,1.24-2.22,1.76-3.87l1.28,.41c-.59,1.49-1.02,2.38-1.69,3.46h2.37c1.06,0,1.67-.02,2.13-.11v1.49c-.48-.09-1.09-.11-2.11-.11h-9.4c-.85,0-1.43,.02-1.89,.09l.02,1.33Zm10.23,2.41c-.56,1.65-1.3,2.82-2.5,3.99,1.76,.78,2.74,1.31,4.95,2.64l-1.02,1.21c-2.06-1.4-3.08-1.99-5.06-2.91-1.95,1.35-4.08,2.13-7.19,2.68-.2-.57-.35-.85-.72-1.35,2.76-.25,4.71-.85,6.54-1.95-1.48-.62-2.28-.89-4.3-1.51,.91-.99,1.37-1.56,2.17-2.8h-1.3c-.98,0-1.52,.02-2.04,.11v-1.49c.52,.09,1.06,.11,2.04,.11h2.08c.52-.92,.87-1.67,1.04-2.27l1.48,.35c-.15,.32-.28,.55-1.04,1.92h5.91c1.04,0,1.65-.02,2.11-.11v1.49c-.5-.09-1.06-.11-2.08-.11h-1.06Zm.44-10.5c1.09,0,1.67-.02,2.17-.11v1.49c-.46-.09-1.06-.11-2.11-.11h-8.14c-1.02,0-1.61,.02-2.08,.11v-1.49c.52,.09,1.09,.11,2.15,.11h3.04v-.74c0-.69-.04-1.28-.13-1.74h1.59c-.09,.62-.11,1.12-.11,1.77v.71h3.63Zm-7.17,1.63c.61,1.15,.89,1.81,1.33,3.05l-1.22,.48c-.39-1.24-.65-1.86-1.28-3.05l1.17-.48Zm1.11,8.87c-.69,1.08-.96,1.45-1.59,2.23,1.69,.55,2.32,.78,3.45,1.24,1.22-1.06,1.87-2.02,2.35-3.46h-4.21Z"/>
      <path class="cls-3" d="M239.9,101.19c-1.17,0-1.76,.02-2.28,.11v-1.6c.63,.09,1.26,.14,2.28,.14h12.88c.98,0,1.65-.04,2.28-.14v1.6c-.61-.09-1.15-.11-2.28-.11h-5.82v4.89h4.73c.98,0,1.59-.02,2.11-.11v1.58c-.61-.09-1.06-.11-2.11-.11h-4.73v5.96h6.78c.96,0,1.69-.05,2.35-.14v1.68c-.83-.12-1.45-.16-2.35-.16h-14.57c-.91,0-1.65,.04-2.39,.16v-1.68c.65,.09,1.35,.14,2.37,.14h6.3v-5.96h-4.3c-1.02,0-1.61,.02-2.17,.11v-1.58c.54,.09,1.06,.11,2.11,.11h4.37v-4.89h-5.54Zm4-6.12c2.3,.99,3.06,1.4,5.19,2.84l-.89,1.24c-1.89-1.4-3.04-2.06-5.26-2.96l.96-1.12Z"/>
      <path class="cls-3" d="M268.99,95.51c-.07,.39-.11,1.31-.11,2.04,0,1.35,.22,3.69,.48,4.98,.37,1.84,1.54,4.54,2.8,6.42,.87,1.29,2.04,2.59,3.21,3.62,.7,.62,1.26,1.01,2.52,1.79-.52,.5-.76,.78-1.13,1.44-2.65-1.9-4.21-3.51-5.75-5.87-1.35-2.09-2.17-4.22-2.82-7.29-.39,2.18-.76,3.42-1.5,5.11-.76,1.77-1.72,3.23-3.11,4.7-1.22,1.33-2.11,2.09-4,3.35-.37-.62-.63-.92-1.17-1.35,2.19-1.28,3.17-2.04,4.43-3.46,3.02-3.42,4.5-7.82,4.5-13.46,0-.96-.02-1.42-.09-2.02h1.74Z"/>
      <path class="cls-3" d="M297.19,116.03v-1.35h-14.83v1.35h-1.54c.09-.69,.13-1.4,.13-2.75v-14.2c0-1.15-.04-1.95-.13-2.82,.78,.09,1.41,.11,2.54,.11h12.79c1.15,0,1.78-.02,2.58-.11-.09,.87-.13,1.63-.13,2.82v14.24c0,1.33,.04,2.13,.13,2.71h-1.54Zm-14.83-2.68h14.83v-15.64h-14.83v15.64Zm9.27-12.06c1.09,0,1.69-.02,2.26-.09-.06,.48-.09,.94-.09,1.77v5c0,.83,.02,1.22,.09,1.77-.67-.07-1.26-.09-2.26-.09h-3.82c-1.26,0-1.63,.02-2.26,.09,.07-.53,.09-1.03,.09-1.77v-5c0-.76-.02-1.19-.09-1.77,.57,.07,1.17,.09,2.26,.09h3.82Zm-4.65,7.09h5.47v-5.83h-5.47v5.83Z"/>
      <path class="cls-3" d="M310.08,103.28c1.87,1.72,3.11,5.21,3.11,8.76,0,1.47-.22,2.52-.63,3.05-.39,.5-.96,.71-2.02,.71-.67,0-1.59-.07-2.56-.16-.04-.67-.13-.99-.35-1.54,1.09,.23,2,.35,2.8,.35,1.11,0,1.41-.55,1.41-2.75,0-.67-.02-1.06-.09-1.72-2.3,1.99-5.17,3.51-9.16,4.89-.28-.55-.48-.85-.85-1.28,3.93-1.06,7.3-2.8,9.75-5.02-.17-.78-.33-1.24-.61-1.93-2.24,1.63-4.91,2.91-8.12,3.9-.24-.55-.43-.83-.8-1.26,1.98-.5,3.17-.92,4.97-1.74,1.33-.62,2.28-1.17,3.39-2-.43-.73-.76-1.15-1.26-1.6-1.61,.94-3.24,1.63-5.8,2.36-.3-.6-.43-.8-.8-1.21,3.39-.78,5.52-1.65,7.58-3.14h-3.19c-.78,0-1.45,.04-2.11,.11v-1.47c.56,.09,1.13,.14,2.11,.14h9.19c1.02,0,1.59-.02,2.13-.14v1.47c-.65-.07-1.3-.11-2.13-.11h-2.35c.48,2.09,.69,2.87,1.3,4.29,1.54-1.19,2.87-2.57,3.32-3.42l1.22,1.05q-.48,.41-1.3,1.24c-.7,.71-1.3,1.24-2.65,2.32,1.37,2.55,2.98,4.17,5.73,5.87-.37,.34-.67,.71-1.06,1.28-1.78-1.35-2.61-2.09-3.52-3.19-1.63-1.93-2.91-4.43-3.71-7.25-.17-.6-.26-.96-.54-2.2h-.65c-.63,.57-.87,.76-1.56,1.24l-.17,.12Zm.44-6.7c0-.5-.04-.92-.15-1.42h1.69c-.09,.5-.13,.89-.13,1.4v.73h6.43c.93,0,1.5-.02,2.19-.09-.06,.44-.09,.83-.09,1.52v1.42c0,.71,.02,1.08,.09,1.56h-1.41v-3.14h-15.36v3.14h-1.41c.06-.53,.09-.89,.09-1.58v-1.4c0-.62-.02-1.03-.09-1.52,.69,.07,1.24,.09,2.17,.09h5.97v-.71Z"/>
      <path class="cls-3" d="M325.34,114.09c0,1.7-.28,2.27-1.37,2.94l-.59-.76c.83-.39,1.04-.78,1.04-1.99v-.18h-1.26v-2.27h2.17v2.27Z"/>
      <path class="cls-3" d="M338.77,104.43c-1.26,1.51-2.22,2.45-3.97,3.85-.26-.51-.43-.71-.96-1.17,1.61-1.08,2.95-2.32,4.28-3.9,.98-1.15,1.72-2.27,2.45-3.74h-3.76c-1,0-1.69,.04-2.41,.14v-1.65c.69,.09,1.37,.14,2.41,.14h4.37c.48-1.26,.67-1.93,.8-2.94l1.59,.21c-.11,.25-.13,.32-.43,1.26-.2,.55-.3,.89-.54,1.47h8.67c1,0,1.67-.05,2.37-.14v1.65c-.65-.09-1.45-.14-2.37-.14h-9.27c-.54,1.12-.83,1.6-1.48,2.59h7.93c1.11,0,1.67-.02,2.32-.11-.07,.69-.09,1.49-.09,2.68v9.2c0,.71-.2,1.19-.59,1.47-.33,.23-.78,.3-1.78,.3-.63,0-1.5-.02-2.43-.09-.06-.62-.13-.92-.33-1.47,1.04,.16,1.87,.23,2.74,.23s1.02-.11,1.02-.69v-2.8h-9.16v2.45c0,1.15,.02,1.88,.11,2.62h-1.61c.09-.8,.13-1.63,.13-2.62v-8.81Zm10.53-1.06h-9.16v2.43h9.16v-2.43Zm-9.16,3.67v2.5h9.16v-2.5h-9.16Z"/>
      <path class="cls-3" d="M359.22,99.8c.39-2,.65-3.65,.65-4.4,0-.05-.02-.11-.02-.23l1.67,.16q-.15,.62-.54,2.66s-.15,.8-.37,1.81h2.19c.95,0,1.5-.02,1.98-.09-.04,.34-.04,.48-.09,.89-.43,4.36-1.04,6.65-2.43,9.33,1,.85,1.58,1.38,3.06,2.78l-.89,1.33c-1.33-1.44-1.85-1.95-2.89-2.89-1.15,1.72-2.21,2.77-4.54,4.45-.22-.43-.59-.92-.98-1.26,2.15-1.33,3.28-2.38,4.45-4.13-1.32-1.12-2.06-1.65-3.78-2.77,.95-2.11,1.61-3.9,2.22-6.35h-1.06c-.69,0-1.19,.04-1.78,.14v-1.56c.56,.09,1.11,.14,1.91,.14h1.24Zm1.09,1.28c-.33,1.51-1.17,4.08-1.93,5.87,1.45,1.06,1.95,1.42,2.8,2.11,1.15-2.13,1.67-4.15,2.08-7.98h-2.95Zm7.62,14.36h-1.5c.09-.64,.13-1.28,.13-2.64v-12.84c0-.9-.04-1.65-.13-2.41,.5,.09,.98,.11,1.76,.11h4.71c.74,0,1.24-.02,1.76-.11-.09,.69-.11,1.33-.11,2.41v13.21c0,.99,.02,1.74,.11,2.27h-1.52v-1.67h-5.21v1.67Zm.02-3.03h5.19v-13.39h-5.19v13.39Z"/>
      <path class="cls-3" d="M381.23,100.21c-1.24,0-1.85,.02-2.34,.07,.06-.5,.09-.94,.09-1.61v-1.1c0-.69-.02-1.12-.09-1.65,.63,.07,1.32,.09,2.43,.09h12.34c1.09,0,1.91-.02,2.43-.09-.06,.53-.09,.94-.09,1.65v1.1c0,.71,.02,1.12,.09,1.61-.52-.05-1.06-.07-2.37-.07h-5.15q-.15,.76-.3,1.35h6.3c.98,0,1.56-.05,2.22-.14v1.44c-.65-.09-1.28-.14-2.22-.14h-6.62c-.15,.53-.15,.55-.41,1.33h5.02c1.02,0,1.67-.02,2.19-.09-.04,.6-.07,1.38-.07,2.5v3.76c0,1.24,.02,1.79,.09,2.25-.65-.07-1.35-.09-2.37-.09h-7.36c-1.02,0-1.72,.02-2.37,.09,.07-.55,.09-1.19,.09-2.25v-3.76c0-1.03-.02-1.81-.06-2.48,.67,.04,1.17,.07,2.19,.07h1.35c.22-.62,.26-.78,.44-1.33h-6.6c-.93,0-1.52,.04-2.24,.14v-1.44c.65,.09,1.26,.14,2.24,.14h6.93c.13-.53,.15-.69,.28-1.35h-6.04Zm13.62,13.56c.98,0,1.59-.05,2.22-.14v1.49c-.67-.09-1.28-.14-2.22-.14h-14.38v1.01h-1.48c.09-.62,.13-1.17,.13-2.02v-7.8c0-.76-.04-1.35-.13-1.95h1.61c-.11,.64-.13,1.13-.13,1.95v7.59h14.38Zm-10.68-16.61h-3.89v1.95h3.89v-1.95Zm-.13,9.27h9.34v-1.31h-9.34v1.31Zm0,2.41h9.34v-1.38h-9.34v1.38Zm0,2.48h9.34v-1.45h-9.34v1.45Zm5.32-14.15h-3.97v1.95h3.97v-1.95Zm5.34,1.95v-1.95h-4.13v1.95h4.13Z"/>
      <path class="cls-3" d="M412.97,108.31c-3.52,3.03-7.88,5.53-12.77,7.32-.24-.53-.52-.96-.89-1.33,4.39-1.35,8.17-3.33,11.86-6.19-2.67,.46-6.54,.94-10.16,1.26-.56,.07-.93,.11-1.33,.18l-.28-1.51h.46c.37,0,1.41-.04,2.72-.14v-8.67c0-.78-.02-1.33-.07-2.02,.52,.07,.96,.09,1.82,.09h2.06c.46-.69,.83-1.44,1.15-2.38l1.48,.32c-.52,.99-.8,1.49-1.19,2.06h4.67c.91,0,1.37-.02,1.89-.09-.07,.62-.09,1.19-.09,2.09v5.96c1.41-1.49,2.22-2.52,2.65-3.4l1.11,1.03c-.15,.14-.41,.41-.69,.8t-1.37,1.63c-.37,.46-.89,.99-1.69,1.77v6.7c0,1.31-.5,1.65-2.37,1.65-.72,0-1.65-.02-2.87-.09-.02-.55-.11-.92-.33-1.52,1.28,.16,2.17,.23,3.15,.23,.89,0,1.09-.12,1.09-.64v-5.11Zm0-9.79h-9.06v2.2h9.06v-2.2Zm-9.06,5.48h9.06v-2.11h-9.06v2.11Zm9.06,2.59v-1.42h-9.06v2.61q6.17-.62,8.93-1.08l.13-.11Z"/>
      <path class="cls-3" d="M420.78,98.74c0-.96-.02-1.6-.09-2.2q.46,.04,2,.07h1.61c1.11,0,1.48-.02,1.96-.07-.07,.55-.07,.92-.07,2.25v12.57c0,1.1,.02,1.7,.07,2.2h-1.35v-1.15h-2.85v1.88h-1.41c.09-.69,.13-1.47,.13-2.43v-13.12Zm1.28,4.84h2.85v-5.69h-2.85v5.69Zm0,7.55h2.85v-6.31h-2.85v6.31Zm7.58-11.83c-.76,0-1.54,.04-2.08,.11v-1.52c.54,.09,1.15,.14,2.06,.14h2.3v-.74c0-.71-.04-1.24-.13-1.86h1.61c-.09,.6-.13,1.1-.13,1.86v.74h3.08c.89,0,1.5-.05,2.06-.14v1.52c-.56-.07-1.24-.11-2.06-.11h-3.08v2.98h3.84c.96,0,1.65-.04,2.19-.14v1.54c-.59-.09-1.22-.14-2.11-.14h-.72v2.68h.67c.96,0,1.59-.05,2.13-.14v1.58c-.63-.09-1.22-.14-2.13-.14h-.67v6.42c0,1.47-.48,1.81-2.5,1.81-.35,0-.7-.02-1.95-.09-.04-.6-.13-1.01-.35-1.51,.85,.16,1.82,.27,2.48,.27,.83,0,.98-.09,.98-.6v-6.31h-6.12c-.8,0-1.54,.04-2.17,.14v-1.58c.54,.09,1.19,.14,2.19,.14h6.1v-2.68h-6.1c-.89,0-1.54,.05-2.19,.14v-1.54c.54,.09,1.26,.14,2.19,.14h2.89v-2.98h-2.28Zm1.67,13.78c-1.13-1.74-1.74-2.55-3.02-3.85l1.06-.8c1.3,1.31,2.02,2.16,3.13,3.74l-1.17,.92Z"/>
      <path class="cls-3" d="M449.96,97.16c0-.83-.04-1.47-.13-2.09h1.63c-.09,.57-.13,1.19-.13,2.09v4.82h5.93c.87,0,1.41-.02,2.06-.09-.06,.6-.09,1.06-.09,1.86v10.16c0,.76-.26,1.26-.8,1.54-.35,.18-.76,.25-1.59,.25-.63,0-1.46-.02-2.37-.09-.09-.6-.17-.94-.41-1.47,.98,.14,1.93,.23,2.67,.23,.93,0,1.13-.11,1.13-.64v-10.41h-14.05v10.09c0,1.12,.02,1.81,.11,2.52h-1.61c.09-.74,.13-1.47,.13-2.52v-9.5c0-.8-.02-1.4-.09-2.02,.63,.07,1.17,.09,2.06,.09h5.54v-4.82Zm-5.91-1.28c1.41,1.7,2.06,2.59,3.13,4.45l-1.17,.83c-1.04-2-1.65-2.89-3.08-4.57l1.13-.71Zm10.81,14.33c0,.83,.02,1.24,.09,2.02-.59-.07-1.19-.09-1.98-.09h-5.04v1.42h-1.41c.06-.6,.11-1.24,.11-1.97v-3.97c0-.94-.02-1.56-.09-2.04,.63,.07,1.13,.09,2.04,.09h4.37c.91,0,1.39-.02,2-.09-.06,.64-.09,1.17-.09,1.95v2.68Zm-6.93,.67h5.62v-3.97h-5.62v3.97Zm10.47-14.33c-1.39,2.48-2.04,3.39-3.37,4.84l-1.13-.8c1.43-1.4,2.24-2.59,3.21-4.77l1.28,.74Z"/>
      <path class="cls-3" d="M467.87,102.92c.67,0,1.17-.02,1.54-.09v1.42c-.46-.07-.91-.09-1.54-.09h-.82c.17,.53,.26,.78,.56,1.35,.76,1.42,1.3,2.2,2.39,3.46-.26,.34-.46,.69-.69,1.21-1.13-1.49-1.72-2.57-2.39-4.4,.06,1.86,.11,2.94,.11,3.44v4.31c0,1.22,.02,1.95,.13,2.55h-1.52c.09-.64,.13-1.35,.13-2.55v-3.67c0-.67,.04-2.59,.09-3.6-.65,2.77-1.41,4.59-2.69,6.56-.28-.6-.46-.87-.83-1.26,1.45-1.86,2.54-4.31,3.28-7.41h-1.22c-.7,0-1.15,.02-1.56,.09v-1.42c.37,.07,.78,.09,1.56,.09h1.37v-5.3c0-1.17-.04-1.86-.13-2.48h1.5c-.09,.57-.11,1.31-.11,2.45v5.32h.85Zm-4.21-6.08c.52,1.33,.91,2.7,1.3,4.52l-1.06,.48c-.39-2-.72-3.17-1.3-4.57l1.06-.43Zm6.17,.32c-.39,2.25-.59,3.01-1.15,4.63l-.98-.43c.54-1.56,.8-2.82,1-4.63l1.13,.44Zm5.04,3.76h-2.06c-.85,0-1.35,.02-1.98,.12v-1.31c.52,.07,1.04,.09,1.98,.09h2.06v-1.6h-2.48c-.91,0-1.41,.02-2,.11v-1.4c.56,.09,1.09,.14,2.04,.14h2.43c-.02-.94-.02-1.24-.13-1.88h1.5c-.09,.62-.11,1.01-.11,1.88h3.19c1.02,0,1.5-.02,2.11-.14v1.4c-.59-.09-1.15-.11-2.06-.11h-3.23v1.6h2.45c.98,0,1.48-.02,2.02-.09v1.28c-.7-.07-1.11-.09-2.02-.09h-2.45v1.7h3.65c1,0,1.59-.05,2.17-.14v1.45c-.63-.11-1.17-.14-2.17-.14h-7.67c-1.04,0-1.61,.02-2.22,.14v-1.45c.54,.09,1.15,.14,2.22,.14h2.76v-1.7Zm-2.67,12.68c0,1.19,.02,1.93,.11,2.48h-1.5c.06-.6,.11-1.24,.11-2.48v-6.51c0-1.05-.02-1.4-.06-1.99,.54,.07,1.17,.09,2.02,.09h5.5c1,0,1.56-.02,2-.11-.06,.55-.09,1.26-.09,2.45v6.58c0,1.31-.48,1.77-1.82,1.77-.63,0-1.39-.04-2.24-.09-.09-.67-.17-.94-.37-1.45,.87,.16,1.67,.25,2.41,.25,.59,0,.74-.11,.74-.62v-1.86h-6.8v1.49Zm6.8-5.55v-1.7h-6.8v1.7h6.8Zm0,2.91v-1.77h-6.8v1.77h6.8Z"/>
      <path class="cls-3" d="M484.82,108.12c0-.89-.02-1.54-.09-2.23,.63,.07,1.15,.09,2,.09h4.1c.69,0,1.19-.02,1.76-.07-.04,.48-.06,.87-.06,2.16v5.3c0,1.12,.02,1.7,.09,2.25h-1.41v-1.01h-5.04v1.45h-1.45c.09-.6,.11-1.21,.11-2.38v-5.55Zm1.35,5.21h5.04v-6.06h-5.04v6.06Zm1.78-15.48c0-.78-.02-1.33-.09-1.93,.67,.09,1.28,.11,2.43,.11h7.1c1.26,0,1.87-.02,2.45-.11-.07,.6-.09,1.08-.09,1.9v3.87c0,.87,.02,1.47,.09,2.02-.61-.07-1.22-.09-2.28-.09h-7.41c-1.04,0-1.72,.02-2.3,.09,.06-.62,.09-1.21,.09-1.99v-3.88Zm1.37,4.47h9.06v-4.98h-9.06v4.98Zm5.36,5.57c0-1.08,0-1.42-.06-1.97,.54,.05,1.02,.07,1.76,.07h4.78c.83,0,1.35-.02,1.87-.09-.06,.6-.09,1.28-.09,2.25v5.53c0,1.24,.02,1.81,.11,2.38h-1.48v-1.45h-5.56v1.45h-1.41c.07-.6,.09-1.19,.09-2.25v-5.92Zm1.33,5.43h5.58v-6.06h-5.58v6.06Z"/>
      <path class="cls-3" d="M511.59,95.53c.78,1.49,2.13,2.89,3.74,3.88-.39,.39-.63,.67-.89,1.1-1.56-1.17-2.67-2.34-3.5-3.67-1.33,1.99-2.74,3.51-4.6,4.97q-.28-.64-.76-1.31c2.04-1.38,3.69-3.14,4.63-4.98h1.39Zm1.48,17.98c-.15-.34-.2-.46-.33-.71-1.91,.76-2.82,1.08-5.71,1.95-.26,.09-.48,.16-.83,.28l-.44-1.47c.41-.02,.7-.09,1.54-.3v-9.75c0-.87-.02-1.52-.07-2.23,.44,.05,.89,.07,1.67,.07h1.35v-.89c0-.6-.02-.92-.11-1.4h1.43c-.09,.39-.11,.78-.11,1.4v.89h.89c.85,0,1.37-.02,1.82-.09-.04,.6-.06,1.08-.06,1.9v3.56c0,.89,.02,1.44,.06,2.04-.43-.07-1.06-.09-1.78-.09h-3.8v4.24c1.52-.46,2.43-.76,3.58-1.19-.41-.76-.65-1.15-1.3-2.09l1.06-.6c.96,1.4,1.37,2.09,2.19,3.72l-1.09,.76Zm-.15-9.13v-1.88h-4.3v1.88h4.3Zm-4.3,3.14h4.3v-2h-4.3v2Zm13.53-5.55c.93,0,1.5-.02,1.91-.11l.63,.76c-.13,.37-.17,.53-.37,1.38-.61,2.68-1.41,4.77-2.65,6.86,1.15,1.6,2.52,2.84,4.34,3.94-.37,.39-.65,.8-.87,1.28-1.87-1.26-2.85-2.22-4.24-4.11-1.17,1.65-2.04,2.52-4.21,4.27-.3-.5-.59-.83-1-1.19,1.82-1.17,3.26-2.57,4.43-4.29-.67-1.17-1.28-2.59-1.72-4.01-.33-1.12-.48-1.81-.74-3.49h-.48c-.02,.62-.04,1.08-.06,1.4-.17,3.53-.52,5.64-1.24,7.8-.43,1.31-.96,2.29-1.87,3.56-.35-.37-.67-.6-1.19-.9,1.09-1.33,1.54-2.2,2.02-3.78,.76-2.57,1.09-6.01,1.09-11.84,0-1.65-.02-2.27-.09-3.17,.72,.07,1.43,.12,2.26,.12h5.26c.89,0,1.52-.05,2.13-.14v1.56c-.56-.09-1-.11-2.06-.11h-6.15v1.45c0,1.12,0,1.38-.04,2.77h4.91Zm-3.28,1.28c.39,2.57,.93,4.29,2.02,6.28,1.06-1.93,1.69-3.69,2.19-6.28h-4.21Z"/>
      <path class="cls-3" d="M537.07,96.61c0-.71-.04-1.17-.13-1.6h1.63c-.09,.41-.13,.85-.13,1.6v.99h6.06c1.17,0,1.87-.04,2.41-.14v1.56c-.57-.09-1.22-.11-2.41-.11h-13.47c-.02,10.23-.48,13.3-2.43,16.79-.43-.5-.54-.62-1.19-1.08,1.76-2.8,2.24-5.92,2.24-14.36,0-1.45-.02-2.09-.09-2.78,.69,.07,1.41,.11,2.28,.11h5.23v-.99Zm.69,5.02c0-1.17-.02-1.56-.11-2.04h1.56c-.09,.46-.11,.85-.11,2.06v1.06h4.95c1.02,0,1.67-.05,2.13-.14v1.58c-.52-.09-1.17-.14-2.08-.14h-5v3.6h4.21c.83,0,1.28-.02,1.82-.09-.07,.62-.09,1.17-.09,2.09v3.53c0,1.33,.04,2.13,.13,2.78h-1.48v-1.1h-9.38v1.1h-1.48c.09-.67,.13-1.45,.13-2.75v-3.65c0-.87-.02-1.4-.09-1.99,.54,.07,1,.09,1.85,.09h3.02v-5.99Zm-3.43,11.88h9.38v-4.59h-9.38v4.59Z"/>
      <path class="cls-3" d="M551.27,114.09c0,1.7-.28,2.27-1.37,2.94l-.59-.76c.83-.39,1.04-.78,1.04-1.99v-.18h-1.26v-2.27h2.17v2.27Z"/>
      <path class="cls-3" d="M65.39,156.91c0,1.28,.04,1.99,.13,2.57h-1.63c.09-.64,.13-1.38,.13-2.59v-14.89c0-1.12-.02-1.79-.09-2.52,.59,.07,1.19,.09,2.26,.09h3.15c1.09,0,1.61-.02,2.21-.09-.04,.62-.06,1.26-.06,2.18v3.6c0,.99,.02,1.49,.06,2.11-.48-.04-1.3-.07-2.19-.07h-3.97v9.61Zm0-14.11h4.84v-2.06h-4.84v2.06Zm0,3.33h4.84v-2.18h-4.84v2.18Zm15.88,10.99c0,1.63-.46,2.02-2.35,2.02-.7,0-1.61-.02-2.52-.09-.09-.62-.17-.99-.39-1.54,1.02,.16,1.98,.25,2.65,.25,1.06,0,1.24-.09,1.24-.6v-9.86h-4.23c-.93,0-1.72,.02-2.19,.07,.04-.62,.06-1.24,.06-2.11v-3.6c0-.8-.02-1.49-.06-2.18,.59,.07,1.15,.09,2.21,.09h3.41c1.06,0,1.67-.02,2.28-.09-.09,.8-.11,1.49-.11,2.52v15.11Zm-6.47-14.31h5.1v-2.06h-5.1v2.06Zm0,3.33h5.1v-2.18h-5.1v2.18Z"/>
      <path class="cls-3" d="M93.94,139.93c0-.73-.02-1.03-.11-1.58h1.59c-.09,.5-.13,.89-.13,1.58h6.15c.98,0,1.56-.02,2.37-.14v1.45c-.63-.09-1.37-.11-2.39-.11h-14.4v3.46c0,4.82-.11,7.23-.41,9.33-.33,2.25-.74,3.62-1.67,5.46-.37-.48-.59-.67-1.09-.96,1.61-3,1.91-5.48,1.91-15.14,0-1.51-.02-2.52-.09-3.46,.63,.09,1.26,.11,2.19,.11h6.08Zm-5.21,13.12c-.52,0-.93,.02-1.3,.09v-1.19c.3,.07,.7,.09,1.37,.09h1.67c.74,0,.87,0,1.24-.07v1.15c-.37-.04-.63-.07-1.24-.07h-.46v1.42h.39c.76,0,.89,0,1.17-.07v1.12c-.5-.07-.67-.07-1.15-.07h-.41v1.54c.63-.11,.96-.18,1.85-.39l-.02,.99c-1.13,.3-1.87,.46-3.06,.69q-1.04,.18-1.65,.32l-.3-1.21c.59,0,.91-.05,2.17-.23v-1.7h-.2c-.52,0-.8,.02-1.3,.07v-1.15c.35,.07,.67,.09,1.33,.09h.17v-1.42h-.26Zm-.15-9.68c-.41,.02-.65,.04-.96,.11v-1.28c.43,.09,.85,.11,1.54,.11h3.56c.74,0,1.15-.02,1.43-.11v1.26c-.28-.05-.41-.07-.78-.09v13.85c0,1.15,.02,1.86,.11,2.29h-1.33c.06-.53,.11-1.4,.11-2.34v-6.58c-1.11,.21-1.72,.3-3.91,.6-.22,.02-.24,.04-.65,.14l-.26-1.26h.48c.13,0,.28,0,.65-.02v-6.67Zm1.11,1.44h2.58v-1.44h-2.58v1.44Zm0,2.43h2.58v-1.45h-2.58v1.45Zm0,2.71c1.13-.14,1.74-.21,2.58-.39v-1.31h-2.58v1.7Zm6.36,4.52c-.35,1.9-.69,3.03-1.35,4.43l-1-.66c.67-1.31,1-2.32,1.3-4.2l1.04,.43Zm-1.85-3.26c.52,.09,.91,.11,1.82,.11h6.08c.89,0,1.32-.02,1.85-.11v1.33c-.59-.09-1.04-.11-1.82-.11h-6.08c-.78,0-1.37,.02-1.85,.11v-1.33Zm2.13-6.86c-.78,0-1.37,.04-1.8,.11v-1.33c.39,.09,.89,.11,1.82,.11h2.06c0-.8-.02-.96-.11-1.54h1.35c-.07,.46-.09,.71-.09,1.54h2.61c.89,0,1.3-.02,1.82-.11v1.33c-.41-.07-1.06-.11-1.8-.11h-2.63v1.4h2.06c.93,0,1.35-.02,1.85-.09-.04,.5-.06,.85-.06,1.51v1.54c0,.78,0,1.01,.06,1.42-.63-.07-1.06-.09-1.82-.09h-5.17c-1.04,0-1.35,0-1.8,.07,.04-.37,.07-.62,.07-1.4v-1.54c0-.85-.02-1.15-.07-1.49,.44,.07,.72,.07,1.8,.07h1.93v-1.4h-2.08Zm-.56,4.65h1.52v-2.25h-1.52v2.25Zm2.26,5.07c-.09,.46-.11,.96-.11,1.77v1.7c0,.51,.11,.55,1.3,.55,1.09,0,1.33-.09,1.46-.6,.11-.32,.13-.64,.13-1.26,.43,.28,.69,.37,1.13,.44-.15,2.27-.56,2.64-2.85,2.64-1.95,0-2.3-.21-2.3-1.4v-1.99c0-.87-.02-1.19-.11-1.84h1.35Zm.28-1.45c1.09,.85,1.56,1.28,2.32,2.18l-.8,.8c-.87-1.15-1.32-1.63-2.32-2.39l.8-.6Zm-.02-3.62h1.52v-2.25h-1.52v2.25Zm2.52,0h1.56v-2.25h-1.56v2.25Zm1.82,4.95c.85,1.63,1.13,2.27,1.74,4.06l-1.06,.64c-.59-2.04-.89-2.75-1.65-4.18l.98-.53Z"/>
      <path class="cls-3" d="M109.35,141.15c0-1.31-.02-1.86-.11-2.36h1.52c-.09,.57-.11,1.17-.11,2.34v2.16h.87c.63,0,.96-.02,1.39-.09v1.4c-.41-.04-.85-.07-1.37-.07h-.85c.52,1.63,1.19,2.82,2.28,4.04-.33,.46-.56,.89-.74,1.28-.78-1.12-1.15-1.88-1.67-3.49,.07,1.74,.09,2.96,.09,3.79v6.93c0,1.28,.04,1.99,.13,2.66h-1.56c.09-.64,.13-1.47,.13-2.66v-6.51c0-.89,.04-2.16,.13-3.72-.67,2.94-1.52,4.95-2.89,6.9-.24-.55-.43-.9-.8-1.35,1.61-2.04,2.76-4.73,3.37-7.87h-1.22c-.67,0-1.13,.02-1.52,.09v-1.42c.39,.07,.83,.09,1.52,.09h1.41v-2.13Zm4.95,10.67c-.5,0-.83,0-1.59,.04,.56-2.06,.89-3.78,1-5.5,.54,.07,.87,.09,2.04,.09h2.45l-.02-2.77h-2.91c-.83,0-1.48,.02-2,.09v-1.47c.52,.09,1.17,.14,2.04,.14h4.52c.91-1.45,1.28-2.23,1.78-3.69l1.28,.55c-.67,1.45-1.02,2.11-1.65,3.14h1.95c.74,0,1.22-.02,1.61-.09-.07,.48-.09,1.01-.09,1.77v1.9c0,.76,.02,1.24,.06,1.74-.56-.02-1.13-.04-1.69-.04h-3.58l.04,2.87h4.32c.67,0,1.17-.02,1.65-.07q-.06,.55-.15,1.81c-.15,2.16-.5,3.88-.91,4.43-.35,.5-.83,.67-1.8,.67-.37,0-1.13-.07-1.69-.14-.07-.62-.11-.87-.3-1.42,.83,.16,1.35,.23,1.98,.23s.8-.16,1-.78c.17-.6,.37-1.97,.48-3.49h-4.56l.09,5.6c.02,.85,.07,1.6,.17,2.32h-1.56c.09-.71,.13-1.22,.13-2.04v-.28l-.09-4.77c-1.48,2.36-3.48,4.27-6.12,5.85-.28-.48-.46-.69-.91-1.17,2.72-1.42,4.89-3.35,6.21-5.5h-3.17Zm.61-4.11c-.2,1.15-.37,2.02-.59,2.87h3.95l-.04-2.87h-3.32Zm1.06-8.92c.8,1.17,1.11,1.7,1.65,2.91l-1.13,.64c-.52-1.21-.8-1.74-1.63-2.94l1.11-.62Zm7.45,7.66v-2.77h-3.97l.04,2.77h3.93Z"/>
      <path class="cls-3" d="M137.4,139.93c0-.73-.02-1.03-.11-1.58h1.59c-.09,.5-.13,.89-.13,1.58h6.15c.98,0,1.56-.02,2.37-.14v1.45c-.63-.09-1.37-.11-2.39-.11h-14.4v3.46c0,4.82-.11,7.23-.41,9.33-.33,2.25-.74,3.62-1.67,5.46-.37-.48-.59-.67-1.09-.96,1.61-3,1.91-5.48,1.91-15.14,0-1.51-.02-2.52-.09-3.46,.63,.09,1.26,.11,2.19,.11h6.08Zm-5.21,13.12c-.52,0-.93,.02-1.3,.09v-1.19c.3,.07,.7,.09,1.37,.09h1.67c.74,0,.87,0,1.24-.07v1.15c-.37-.04-.63-.07-1.24-.07h-.46v1.42h.39c.76,0,.89,0,1.17-.07v1.12c-.5-.07-.67-.07-1.15-.07h-.41v1.54c.63-.11,.96-.18,1.85-.39l-.02,.99c-1.13,.3-1.87,.46-3.06,.69q-1.04,.18-1.65,.32l-.3-1.21c.59,0,.91-.05,2.17-.23v-1.7h-.2c-.52,0-.8,.02-1.3,.07v-1.15c.35,.07,.67,.09,1.33,.09h.17v-1.42h-.26Zm-.15-9.68c-.41,.02-.65,.04-.96,.11v-1.28c.43,.09,.85,.11,1.54,.11h3.56c.74,0,1.15-.02,1.43-.11v1.26c-.28-.05-.41-.07-.78-.09v13.85c0,1.15,.02,1.86,.11,2.29h-1.33c.06-.53,.11-1.4,.11-2.34v-6.58c-1.11,.21-1.72,.3-3.91,.6-.22,.02-.24,.04-.65,.14l-.26-1.26h.48c.13,0,.28,0,.65-.02v-6.67Zm1.11,1.44h2.58v-1.44h-2.58v1.44Zm0,2.43h2.58v-1.45h-2.58v1.45Zm0,2.71c1.13-.14,1.74-.21,2.58-.39v-1.31h-2.58v1.7Zm6.36,4.52c-.35,1.9-.69,3.03-1.35,4.43l-1-.66c.67-1.31,1-2.32,1.3-4.2l1.04,.43Zm-1.85-3.26c.52,.09,.91,.11,1.82,.11h6.08c.89,0,1.32-.02,1.85-.11v1.33c-.59-.09-1.04-.11-1.82-.11h-6.08c-.78,0-1.37,.02-1.85,.11v-1.33Zm2.13-6.86c-.78,0-1.37,.04-1.8,.11v-1.33c.39,.09,.89,.11,1.82,.11h2.06c0-.8-.02-.96-.11-1.54h1.35c-.07,.46-.09,.71-.09,1.54h2.61c.89,0,1.3-.02,1.82-.11v1.33c-.41-.07-1.06-.11-1.8-.11h-2.63v1.4h2.06c.93,0,1.35-.02,1.85-.09-.04,.5-.06,.85-.06,1.51v1.54c0,.78,0,1.01,.06,1.42-.63-.07-1.06-.09-1.82-.09h-5.17c-1.04,0-1.35,0-1.8,.07,.04-.37,.07-.62,.07-1.4v-1.54c0-.85-.02-1.15-.07-1.49,.44,.07,.72,.07,1.8,.07h1.93v-1.4h-2.08Zm-.56,4.65h1.52v-2.25h-1.52v2.25Zm2.26,5.07c-.09,.46-.11,.96-.11,1.77v1.7c0,.51,.11,.55,1.3,.55,1.09,0,1.33-.09,1.46-.6,.11-.32,.13-.64,.13-1.26,.43,.28,.69,.37,1.13,.44-.15,2.27-.56,2.64-2.85,2.64-1.95,0-2.3-.21-2.3-1.4v-1.99c0-.87-.02-1.19-.11-1.84h1.35Zm.28-1.45c1.09,.85,1.56,1.28,2.32,2.18l-.8,.8c-.87-1.15-1.32-1.63-2.32-2.39l.8-.6Zm-.02-3.62h1.52v-2.25h-1.52v2.25Zm2.52,0h1.56v-2.25h-1.56v2.25Zm1.82,4.95c.85,1.63,1.13,2.27,1.74,4.06l-1.06,.64c-.59-2.04-.89-2.75-1.65-4.18l.98-.53Z"/>
      <path class="cls-3" d="M152.42,140.92c0-1.06-.02-1.56-.13-2.11h1.63c-.09,.5-.13,1.12-.13,2.11v.64h3.58c.87,0,1.33-.04,1.8-.14v1.56c-.61-.12-1.09-.14-1.8-.14h-3.58v3.74c2.06-.37,2.76-.53,5.5-1.19v1.24c-2.98,.76-5.41,1.28-7.64,1.7-.91,.16-1.28,.23-1.67,.37l-.24-1.58c.78-.02,1.06-.05,2.69-.3v-5.89Zm11.47,8.69c1.11,0,1.63-.02,2.35-.11-.07,.69-.09,1.17-.09,2.52v5.23c0,1.06,.04,1.68,.13,2.29h-1.48v-1.06h-10.53v1.06h-1.45c.09-.62,.13-1.28,.13-2.29v-5.23c0-1.26-.02-1.77-.09-2.52,.72,.09,1.22,.11,2.32,.11h2.61c.41-.73,.65-1.33,.89-2.11l1.48,.39c-.41,.89-.56,1.17-.89,1.72h4.63Zm-9.62,3.69h10.53v-2.48h-10.53v2.48Zm0,3.92h10.53v-2.73h-10.53v2.73Zm7.36-11.51c0,.69,.22,.76,2.58,.76,1.91,0,2.54-.09,2.8-.39,.26-.32,.43-1.26,.54-3.1,.54,.37,.67,.43,1.28,.6-.22,2.52-.48,3.39-1.11,3.81-.52,.3-1.33,.39-3.91,.39-2.98,0-3.56-.28-3.56-1.61v-5.34c0-.85-.04-1.4-.13-2.02h1.63c-.11,.5-.13,1.03-.13,1.99v1.4c1.3-.39,1.48-.46,2.56-.89,1.85-.76,2.56-1.12,3.41-1.74l.93,1.24q-1.06,.46-2.24,1.01c-1.15,.53-2.87,1.15-4.67,1.65v2.25Z"/>
      <path class="cls-3" d="M173.08,144.73c-.54,0-1.04,.05-1.61,.14v-1.56c.54,.09,1,.14,1.63,.14h1.24v-2.2c0-.96-.04-1.56-.15-2.32h1.65c-.11,.69-.15,1.35-.15,2.29v2.22h.54c.74,0,1.09-.02,1.48-.11v1.49c-.48-.07-.85-.09-1.45-.09h-.56v4.36c.83-.39,1.13-.53,2-1.03v1.45c-.8,.41-1.04,.53-2,.99v7.25c0,1.35-.46,1.67-2.32,1.67-.33,0-.85-.02-1.35-.04-.04-.6-.11-.94-.3-1.45,.76,.11,1.26,.16,1.82,.16,.63,0,.8-.14,.8-.64v-6.33c-.74,.32-1,.41-1.48,.62-.43,.18-.7,.3-1.06,.5l-.39-1.58c.78-.14,1.48-.37,2.93-.96v-4.95h-1.26Zm15.72,5.16c.8,0,1.48-.04,2.06-.14v1.51c-.61-.09-1.3-.14-2.06-.14h-3.89c1.61,2.48,3.69,4.26,6.56,5.64-.41,.48-.63,.82-.89,1.4-2.71-1.67-4.37-3.26-6.17-5.99,.07,.5,.11,1.33,.11,2.2v2.96c0,.9,.04,1.67,.13,2.34h-1.54c.09-.69,.13-1.47,.13-2.34v-2.91c0-.83,.04-1.63,.11-2.23-1.52,2.55-3.02,4.06-5.8,5.85-.35-.6-.5-.78-1-1.24,2.61-1.31,4.78-3.28,6.28-5.69h-3.04c-.95,0-1.56,.02-2.11,.11v-1.47c.52,.09,1.09,.11,2.11,.11h3.45v-.28c0-.69-.02-1.08-.11-1.47h1.5c-.09,.39-.11,.76-.11,1.47v.28h4.28Zm1.35-9.63q-.28,.09-.98,.34c-2.69,1.03-6.47,1.72-10.77,1.97-.17-.6-.28-.85-.54-1.33,2.82-.05,5.34-.35,7.67-.92,1.63-.39,2.89-.85,3.63-1.33l1,1.26Zm-9.84,7.98c-.5-1.74-.93-2.75-1.8-4.29l1.13-.48c.89,1.51,1.22,2.27,1.87,4.22l-1.19,.55Zm3.76-.82c-.37-1.7-.69-2.57-1.54-4.15l1.19-.39c.8,1.45,1.17,2.43,1.61,4.15l-1.26,.39Zm2.22,.5c1.45-2.04,2.13-3.44,2.82-5.82l1.3,.69c-.98,2.5-1.69,3.85-3,5.71l-1.13-.57Z"/>
      <path class="cls-3" d="M203.39,156.31c0,1.21,.02,1.95,.11,2.5h-1.56c.09-.6,.11-1.28,.11-2.5v-4.33h-5.95c-.33,3.46-.89,5.34-2.34,7.52-.48-.48-.69-.64-1.26-.99,.93-1.28,1.41-2.32,1.76-3.87,.48-2.11,.67-5.46,.67-11.12,0-2.32,0-2.75-.09-3.74,.65,.07,1.3,.09,2.39,.09h11.68c1.09,0,1.67-.02,2.3-.09-.06,.62-.09,1.21-.09,2.25v15.39c0,1.45-.5,1.79-2.61,1.79-.69,0-1.78-.04-2.69-.11-.04-.53-.13-.92-.33-1.49,1.26,.16,2.32,.25,3.11,.25,.96,0,1.15-.12,1.15-.69v-5.18h-6.36v4.33Zm-7.1-9.75c-.02,.64-.02,1.19-.02,1.52-.02,1.42-.02,1.51-.09,2.57h5.86v-4.08h-5.76Zm5.76-5.32h-5.71v2.73l-.02,1.28h5.73v-4.01Zm7.71,4.01v-4.01h-6.36v4.01h6.36Zm-6.36,5.39h6.36v-4.08h-6.36v4.08Z"/>
      <path class="cls-3" d="M223.14,140.23c0-.6-.04-1.03-.13-1.56h1.65c-.09,.5-.13,.94-.13,1.54v.46h6.78c.91,0,1.48-.04,2.15-.14v1.51c-.69-.09-1.28-.11-2.15-.11h-14.62c-.85,0-1.48,.02-2.15,.11v-1.51c.63,.09,1.26,.14,2.19,.14h6.41v-.43Zm-7.88,11.28c0-.8-.02-1.38-.09-2.06,.63,.07,1.24,.09,2.15,.09h13.46c1.06,0,1.54-.02,2.11-.09-.07,.71-.09,1.21-.09,2.02v6.08c0,.78-.13,1.17-.5,1.42-.35,.25-.72,.32-1.87,.32-.5,0-.63,0-2.02-.07-.04-.62-.11-.9-.28-1.42,.87,.14,1.69,.21,2.45,.21s.89-.07,.89-.53v-6.72h-14.88v6.61c0,1.01,.02,1.56,.13,2.34h-1.61c.09-.62,.13-1.42,.13-2.32v-5.87Zm2.89-6.45c0-.74-.02-1.26-.06-1.74,.56,.07,1.13,.09,2.06,.09h8.06c.85,0,1.24-.02,1.85-.09-.04,.67-.06,.99-.06,1.77v1.24c0,1.01,0,1.28,.06,1.79-.63-.07-1.06-.09-2-.09h-8.01c-.83,0-1.26,.02-1.95,.09,.04-.48,.06-.89,.06-1.79v-1.26Zm1.33,1.79h9.19v-2.25h-9.19v2.25Zm8.86,8.37c0,.82,.02,1.17,.07,1.63-.57-.04-1.24-.07-2-.07h-5.52v1.26h-1.41c.06-.48,.11-1.08,.11-1.9v-2.29c0-.74-.02-1.19-.06-1.67,.5,.04,.96,.07,1.76,.07h5.21c.83,0,1.35-.02,1.91-.07-.04,.46-.07,.8-.07,1.56v1.49Zm-7.47,.41h6.21v-2.25h-6.21v2.25Z"/>
      <path class="cls-3" d="M236.19,148.7c.67,.02,.76,.02,1.06,.02h.72c.61-.8,.67-.89,1.52-2.16-1.15-1.47-1.82-2.18-3.28-3.46l.76-1.1c.54,.48,.7,.64,1.02,.99,1.09-1.72,1.85-3.26,2.08-4.15l1.35,.64c-.2,.3-.28,.43-.52,.89-.85,1.63-1.17,2.18-2.06,3.51,.72,.78,.85,.94,1.35,1.6,1.41-2.23,2.06-3.44,2.32-4.24l1.28,.76c-.22,.32-.33,.5-.76,1.21-1.15,1.9-2.63,4.13-3.63,5.41,2-.16,2.32-.18,3.52-.37-.33-.74-.48-1.03-.96-1.86l.98-.51c1,1.74,1.41,2.62,2.02,4.31l-1.06,.57c-.22-.71-.3-.92-.5-1.42q-1.5,.21-2.24,.3v7.62c0,.96,.04,1.65,.13,2.34h-1.54c.09-.74,.13-1.4,.13-2.36v-7.45q-.59,.07-.82,.09c-.78,.07-1.3,.11-1.5,.14-.61,.04-.78,.04-1.11,.14l-.26-1.47Zm2.54,2.94c-.48,3.62-.7,4.66-1.3,6.33l-1.22-.57c.67-1.58,.93-2.8,1.3-6.01l1.22,.25Zm4.3-.6c.44,1.49,.65,2.48,.87,4.01l-1.09,.41c-.17-1.63-.37-2.59-.83-4.08l1.04-.34Zm12.21-4.54c-.07,.21-.17,.6-.33,1.17-.89,3.01-1.69,4.79-3,6.65,1.09,1.38,2.32,2.46,4.26,3.74-.5,.6-.52,.66-.87,1.4-1.85-1.4-3.06-2.55-4.23-4.04-1.39,1.6-2.69,2.68-4.86,3.97-.22-.43-.46-.73-.91-1.17,2.15-1.1,3.58-2.22,4.97-3.92-1.54-2.32-2.26-4.43-2.87-8.21-.2,3.46-.57,5.73-1.3,7.98-.67,2.06-1.65,3.92-2.84,5.46-.35-.44-.65-.71-1.13-.99,1.67-1.95,2.76-4.29,3.45-7.5,.41-1.88,.65-3.97,.78-6.63q.02-.5,.06-3.28h-.46c-.89,0-1.39,.02-2,.11v-1.54c.63,.09,1.3,.14,2.24,.14h4.93c.89,0,1.41-.02,2.02-.09q-.11,.55-.43,2.09c-.26,1.31-.61,2.84-.96,4.08h1.17c.85,0,1.33-.02,1.72-.09l.59,.67Zm-7.49-5.37c.22,3.19,.41,4.59,.93,6.58,.59,2.16,1.3,3.79,2.41,5.48,1.15-1.72,1.87-3.37,2.56-5.99h-2.35c-.59,0-.89,0-1.28,.02,.61-1.99,.98-3.46,1.48-6.1h-3.76Z"/>
      <path class="cls-3" d="M259.78,149.36c.3,1.38,.61,2.16,1.35,3.46,.63-1.6,.91-2.66,1.24-5.14h-1.87c-.61,0-1.37,.02-1.98,.07,1.56-2.41,2.58-4.29,3.52-6.47h-2.61c-.61,0-1,.02-1.48,.11v-1.49c.48,.09,.85,.11,1.5,.11h2.06c.8,0,1.24-.02,1.61-.09l.63,.87c-.13,.21-.26,.48-.48,.94-.63,1.42-1.67,3.35-2.56,4.7h1.41c.96,0,1.35-.02,1.72-.09q-.07,.35-.17,1.15c-.28,2.43-.89,4.75-1.72,6.6,1.85,2.48,4.17,3.37,8.73,3.37,2.15,0,4.78-.14,6.78-.32-.28,.69-.35,.85-.46,1.58-1.61,.04-4.34,.09-6.02,.09-5.15,0-7.36-.8-9.64-3.53-.85,1.56-1.59,2.55-3.02,4.04-.35-.55-.65-.87-1.02-1.12,1.54-1.44,2.32-2.45,3.19-4.06-.52-.8-.91-1.58-1.48-2.98q-.26-.64-.54-1.26l1.3-.55Zm9.53-7.8h-2.78c-.63,0-1.06,.02-1.56,.09v-1.35c.48,.09,.87,.11,1.61,.11h2.74c-.02-.85-.04-1.19-.11-1.74h1.48c-.09,.48-.11,.89-.11,1.74h3.43c.72,0,1.19-.02,1.59-.07q0,.11-.02,.39c-.02,.23-.02,.71-.02,1.05v1.63h.11c.67,0,1.11-.04,1.63-.14v1.38c-.48-.07-.89-.09-1.63-.09h-.11v1.88c0,.48,.02,1.08,.04,1.31-.69-.04-.98-.04-1.54-.04h-3.48v1.97h3.48c.74,0,1.33-.02,1.93-.11v1.35c-.57-.07-1.11-.09-1.96-.09h-3.45v2.02h4.45c.89,0,1.48-.04,2.02-.14v1.4c-.52-.07-1.13-.09-2.02-.09h-4.45v.57c0,1.01,.02,1.54,.11,2.13h-1.48c.07-.64,.11-1.17,.11-2.11v-.6h-3.48c-.85,0-1.33,.02-1.93,.12v-1.42c.52,.09,1.11,.14,1.95,.14h3.45v-2.02h-2.91c-.69,0-1.26,.04-1.78,.11v-1.38c.52,.09,1.09,.11,1.78,.11h2.91v-1.97h-2.85c-.61,0-1,.02-1.52,.09v-1.35c.46,.09,.82,.11,1.59,.11h2.78v-1.99h-3.63c-.91,0-1.45,.02-2,.11v-1.4c.57,.09,1.04,.14,2.02,.14h3.61v-1.86Zm4.97,1.86v-1.86h-3.71v1.86h3.71Zm-3.71,3.14h3.71v-1.99h-3.71v1.99Z"/>
      <path class="cls-3" d="M285.05,144.61c.65,1.88,1.65,3.37,3.19,4.77-.35,.39-.56,.71-.83,1.28-1.22-1.33-1.85-2.34-2.61-4.22,.11,1.49,.15,2.82,.15,4.47v6.33c0,1.08,.04,1.79,.13,2.43h-1.63c.09-.6,.13-1.4,.13-2.43v-6.03c0-1.26,.04-3.17,.11-4.31-.85,3.14-1.91,5.39-3.52,7.59-.33-.66-.5-.94-.89-1.33,1.87-2.27,3.06-4.77,4.08-8.56h-1.56c-.74,0-1.24,.05-1.85,.14v-1.56c.54,.11,.95,.14,1.89,.14h1.74v-2.38c0-.89-.04-1.49-.13-2.16h1.63c-.11,.62-.13,1.08-.13,2.13v2.41h1.37c.61,0,1.11-.04,1.63-.11v1.51c-.5-.07-1.04-.11-1.63-.11h-1.28Zm5.84,.02c-1,0-1.63,.02-2.24,.11v-1.52c.63,.09,1.19,.11,2.22,.11h3.87v-1.97c0-1.01-.04-1.77-.13-2.52h1.63c-.11,.8-.13,1.47-.13,2.52v1.97h1.06c.87,0,1.41-.04,2-.14v1.56c-.56-.09-1.15-.14-2-.14h-1.06l.09,12.73c0,1.47-.44,1.81-2.39,1.81-.76,0-1.59-.04-2.43-.14-.07-.57-.15-.96-.37-1.51,1.11,.18,1.82,.25,2.63,.25,.98,0,1.15-.09,1.15-.57l-.02-10.96c-.74,1.65-1.59,3.12-2.65,4.52-1.3,1.74-2.43,2.89-4.6,4.59-.28-.48-.61-.85-1-1.17,1.91-1.24,3.95-3.23,5.36-5.3,.82-1.24,1.63-2.68,2.3-4.24h-3.28Z"/>
      <path class="cls-3" d="M307.8,155.94c0,1.9-1.45,3.44-3.26,3.44s-3.26-1.54-3.26-3.44,1.45-3.44,3.26-3.44,3.26,1.54,3.26,3.44Zm-5.28,0c0,1.17,.91,2.13,2.02,2.13s2.02-.96,2.02-2.13-.91-2.13-2.02-2.13-2.02,.96-2.02,2.13Z"/>
      <path class="cls-3" d="M64.8,192.87c0-1.22,.02-1.67,.06-2.68-.5,1.15-.93,1.88-1.89,3.26-.3-.53-.54-.85-.91-1.22,1.33-1.63,2.26-3.28,3.15-5.46,.67-1.68,1.11-3.21,1.3-4.57l1.43,.5c-.13,.32-.17,.48-.37,1.1-.52,1.77-.78,2.5-1.48,4.08v12.71c0,1.06,.04,1.9,.11,2.68h-1.54c.09-.87,.13-1.58,.13-2.75v-7.66Zm14.66,4.79q-.2,.18-.46,.46c-.78,.8-1.76,1.6-2.76,2.22,1.67,.69,3.56,1.06,6.38,1.28-.33,.55-.46,.83-.63,1.38-3.34-.55-5.13-1.05-6.93-1.99-2.15,1.03-4.34,1.63-7.34,1.99-.11-.46-.26-.78-.56-1.24,2.63-.16,4.6-.6,6.69-1.47-.93-.62-1.56-1.15-2.32-1.9-1.09,.92-1.85,1.38-3.3,2.02-.28-.43-.41-.6-.8-.94,1.35-.46,2.35-1.01,3.39-1.83,.72-.57,1.09-.94,1.69-1.77-.69-.14-.87-.37-.87-1.15v-.76c0-.43-.02-.76-.09-1.08h1.26c-.07,.37-.09,.64-.09,1.1v.41c0,.5,.26,.57,2.02,.57s2.24-.07,2.43-.37c.13-.18,.22-.48,.37-1.26,.5,.37,.59,.39,1.06,.55-.5,2.02-.61,2.07-4.06,2.07h-.74c-.37,.48-.46,.57-.74,.92h3.89c.91,0,1.37-.02,1.69-.09l.8,.87Zm-8.95-13.21c-.93,0-1.67,.04-2.26,.14v-1.38c.5,.09,1.26,.14,2.26,.14h9.19c1,0,1.76-.05,2.28-.14v1.38c-.56-.09-1.32-.14-2.26-.14h-4.5c-.24,.6-.26,.67-.48,1.12h2.95c.93,0,1.65-.02,2.28-.11-.04,.48-.06,.78-.06,1.42v4.47c1.13,0,1.76-.02,2.45-.11-.04,.46-.07,.89-.07,1.4v.34c0,.57,.02,1.01,.09,1.38h-1.3v-1.97h-12.27v2.34h-1.28c.04-.39,.06-.87,.06-1.35v-.73c0-.44-.02-.99-.06-1.4,.69,.09,1.26,.11,2.39,.11v-4.47c0-.53-.02-.96-.06-1.42,.65,.07,1.37,.11,2.34,.11h1.24c.07-.14,.11-.25,.13-.32,.09-.14,.13-.25,.13-.28,.15-.3,.17-.37,.2-.53h-3.39Zm.46,9.24c-.63,1.38-1.09,2.06-2.06,3.14l-.89-.78c1.04-.96,1.48-1.58,2-2.91l.96,.55Zm7.75-6.15v-.99h-7.6v.99h7.6Zm0,1.88v-.99h-7.6v.99h7.6Zm0,1.93v-1.03h-7.6v1.03h7.6Zm-6.21,6.56c.76,.71,1.39,1.17,2.52,1.81,.96-.5,1.52-.89,2.56-1.81h-5.08Zm1.74-5.43c.89,.5,1.15,.67,1.93,1.31l-.67,.8c-.67-.64-1.04-.92-1.93-1.42l.67-.69Zm5.26,.5c1.15,1.28,1.59,1.84,2.39,3.01l-.89,.8c-.83-1.35-1.37-2.06-2.41-3.21l.91-.6Z"/>
      <path class="cls-3" d="M90.2,192.6c-1.24,2.84-3.08,5.41-5.19,7.29-.33-.69-.46-.9-.85-1.31,2.08-1.56,3.78-3.76,5.17-6.74h-3.3c-.8,0-1.22,.02-1.67,.11v-1.47c.5,.09,.93,.11,1.67,.11h.2v-5.6c-.65,.02-.91,.02-1.3,.09v-1.47c.5,.09,1,.12,1.76,.12h4.73c.72,0,1.11-.02,1.54-.12v1.47c-.43-.07-.8-.09-1.37-.09h-.11v5.6h.28c.67,0,1-.02,1.39-.09v1.42c-.44-.07-.85-.09-1.39-.09h-.28v9.13c0,.85-.2,1.35-.59,1.58-.3,.16-.83,.28-1.3,.28-.65,0-1.48-.07-2.41-.23-.02-.55-.07-.76-.26-1.47,1.13,.28,1.89,.39,2.61,.39,.52,0,.67-.18,.67-.78v-8.14Zm0-7.59h-2.76v5.6h2.76v-5.6Zm11.86,15.55c1.22,0,1.61-.02,2.15-.14v1.56c-.52-.09-1.17-.11-2.15-.11h-6.6v1.31h-1.45c.09-.6,.13-1.28,.13-2.36v-12.04c-.44,.69-.57,.85-1,1.4-.33-.43-.52-.62-.96-.92,1.35-1.49,2.41-3.33,3.15-5.41,.15-.44,.37-1.22,.44-1.61l1.45,.35q-.13,.32-.26,.69c-.35,.92-.85,2.06-1.33,2.96h3.15c.74-1.38,1.09-2.32,1.43-3.76l1.35,.39c-.48,1.38-.78,2.11-1.45,3.37h1.54c.91,0,1.69-.05,2.17-.14v1.54c-.46-.07-1.15-.11-2.17-.11h-1.59v3.26h1.32c.89,0,1.54-.04,2-.14v1.51c-.41-.07-1.06-.11-1.98-.11h-1.35v3.42h1.3c.87,0,1.56-.04,2-.14v1.51c-.13-.04-.22-.04-.28-.04h-.28l-1.46-.07h-1.28v3.85h2Zm-3.28-9.79v-3.26h-3.32v3.26h3.32Zm-3.32,4.68h3.32v-3.42h-3.32v3.42Zm0,5.11h3.32v-3.85h-3.32v3.85Z"/>
      <path class="cls-3" d="M107.28,185.94c0-.96-.02-1.6-.09-2.2q.46,.04,2,.07h1.61c1.11,0,1.48-.02,1.96-.07-.07,.55-.07,.92-.07,2.25v12.57c0,1.1,.02,1.7,.07,2.2h-1.35v-1.15h-2.85v1.88h-1.41c.09-.69,.13-1.47,.13-2.43v-13.12Zm1.28,4.84h2.85v-5.69h-2.85v5.69Zm0,7.55h2.85v-6.31h-2.85v6.31Zm7.58-11.83c-.76,0-1.54,.04-2.08,.11v-1.52c.54,.09,1.15,.14,2.06,.14h2.3v-.74c0-.71-.04-1.24-.13-1.86h1.61c-.09,.6-.13,1.1-.13,1.86v.74h3.08c.89,0,1.5-.05,2.06-.14v1.52c-.56-.07-1.24-.11-2.06-.11h-3.08v2.98h3.84c.96,0,1.65-.04,2.19-.14v1.54c-.59-.09-1.22-.14-2.11-.14h-.72v2.68h.67c.96,0,1.59-.05,2.13-.14v1.58c-.63-.09-1.22-.14-2.13-.14h-.67v6.42c0,1.47-.48,1.81-2.5,1.81-.35,0-.69-.02-1.95-.09-.04-.6-.13-1.01-.35-1.51,.85,.16,1.82,.27,2.48,.27,.83,0,.98-.09,.98-.6v-6.31h-6.12c-.8,0-1.54,.04-2.17,.14v-1.58c.54,.09,1.19,.14,2.19,.14h6.1v-2.68h-6.1c-.89,0-1.54,.05-2.19,.14v-1.54c.54,.09,1.26,.14,2.19,.14h2.89v-2.98h-2.28Zm1.67,13.78c-1.13-1.74-1.74-2.55-3.02-3.85l1.06-.8c1.3,1.31,2.02,2.16,3.13,3.74l-1.17,.92Z"/>
      <path class="cls-3" d="M136.46,184.36c0-.83-.04-1.47-.13-2.09h1.63c-.09,.57-.13,1.19-.13,2.09v4.82h5.93c.87,0,1.41-.02,2.06-.09-.06,.6-.09,1.06-.09,1.86v10.16c0,.76-.26,1.26-.8,1.54-.35,.18-.76,.25-1.59,.25-.63,0-1.46-.02-2.37-.09-.09-.6-.17-.94-.41-1.47,.98,.14,1.93,.23,2.67,.23,.93,0,1.13-.11,1.13-.64v-10.41h-14.05v10.09c0,1.12,.02,1.81,.11,2.52h-1.61c.09-.74,.13-1.47,.13-2.52v-9.5c0-.8-.02-1.4-.09-2.02,.63,.07,1.17,.09,2.06,.09h5.54v-4.82Zm-5.91-1.28c1.41,1.7,2.06,2.59,3.13,4.45l-1.17,.83c-1.04-2-1.65-2.89-3.08-4.57l1.13-.71Zm10.82,14.33c0,.83,.02,1.24,.09,2.02-.59-.07-1.19-.09-1.98-.09h-5.04v1.42h-1.41c.06-.6,.11-1.24,.11-1.97v-3.97c0-.94-.02-1.56-.09-2.04,.63,.07,1.13,.09,2.04,.09h4.37c.91,0,1.39-.02,2-.09-.06,.64-.09,1.17-.09,1.95v2.68Zm-6.93,.67h5.62v-3.97h-5.62v3.97Zm10.47-14.33c-1.39,2.48-2.04,3.39-3.37,4.84l-1.13-.8c1.43-1.4,2.24-2.59,3.21-4.77l1.28,.74Z"/>
      <path class="cls-3" d="M153.39,196.29c-1.04,0-1.54,.02-2.15,.14v-1.58c.61,.11,1.04,.14,2.08,.14h10.56c.95,0,1.63-.04,2.26-.14v1.58c-.65-.09-1.28-.14-2.19-.14h-4.71v4.5h6.51c.98,0,1.78-.05,2.35-.14v1.63c-.76-.11-1.46-.16-2.35-.16h-14.07c-.96,0-1.65,.05-2.41,.16v-1.63c.52,.09,1.46,.14,2.41,.14h6.15v-4.5h-4.43Zm4.39-12.32c0-.64-.04-1.13-.15-1.65h1.69c-.11,.48-.15,.99-.15,1.65v1.1h6.28c.82,0,1.39-.02,2.19-.11-.06,.48-.09,.89-.09,1.58v.62c0,.62,.02,1.08,.11,1.6h-1.45v-2.38h-5.17v4.26c0,.35,.09,.46,.37,.53,.3,.07,.85,.09,1.72,.09,2.8,0,2.82-.02,2.91-1.99,.52,.28,.78,.39,1.3,.5-.2,2.55-.54,2.78-4.23,2.78-2.91,0-3.39-.21-3.39-1.38v-4.79h-2.69c-.11,1.95-.54,3.26-1.48,4.38-1.04,1.24-2.39,2.04-5.23,3.1-.22-.48-.48-.85-.89-1.31,2.65-.67,4.02-1.4,5.1-2.71,.74-.89,1.06-1.86,1.15-3.46h-4.47v3.19h-1.45c.09-.6,.11-1.15,.11-1.81v-1.22c0-.64-.02-1.1-.09-1.58,.8,.09,1.37,.11,2.19,.11h5.82v-1.1Z"/>
      <path class="cls-3" d="M172.95,200.55c0,1.29,.04,1.97,.13,2.57h-1.61c.09-.62,.13-1.33,.13-2.57v-14.82c0-1.12-.02-1.79-.09-2.52,.61,.07,1.17,.09,2.28,.09h3.11c1.09,0,1.61-.02,2.22-.09-.04,.64-.07,1.33-.07,2.18v2.85c0,.92,.02,1.56,.07,2.13-.59-.04-1.33-.07-2.19-.07h-3.97v10.25Zm0-14.29h4.86v-1.83h-4.86v1.83Zm0,2.94h4.86v-1.86h-4.86v1.86Zm11.4,8.69c0,.87,.02,1.49,.06,2.09-.61-.05-1.33-.07-2.22-.07h-4.76v1.6h-1.35c.09-.62,.11-1.21,.11-2.16v-5.09c0-.82-.02-1.49-.07-2.16,.65,.07,1.17,.09,2.15,.09h3.97c1,0,1.5-.02,2.15-.09-.04,.64-.06,1.24-.06,2.16v3.62Zm-6.91-2.5h5.67v-2.04h-5.67v2.04Zm0,3.37h5.67v-2.23h-5.67v2.23Zm11.64,2.13c0,1.51-.46,1.9-2.22,1.9-.46,0-1.63-.04-2.17-.09-.09-.62-.2-.99-.39-1.47,1.02,.14,1.93,.23,2.39,.23,.89,0,1.06-.11,1.06-.67v-10.5h-4.45c-.91,0-1.61,.02-2.19,.07,.04-.6,.06-1.28,.06-2.13v-2.85c0-.8-.02-1.49-.06-2.18,.61,.07,1.11,.09,2.22,.09h3.58c1.13,0,1.65-.02,2.28-.09-.09,.89-.11,1.49-.11,2.52v15.16Zm-6.67-14.63h5.34v-1.83h-5.34v1.83Zm0,2.94h5.34v-1.86h-5.34v1.86Z"/>
      <path class="cls-3" d="M202.83,191.75c.78,2.45,1.61,3.97,2.98,5.48,1.59,1.77,3.52,3.03,6.15,4.04-.41,.53-.59,.82-.89,1.54-2.74-1.28-4.71-2.75-6.41-4.77-1.15-1.35-2.06-3.07-2.8-5.23-.65,2.5-1.74,4.54-3.39,6.26-1.39,1.49-2.84,2.48-5.32,3.65-.3-.69-.46-.92-.93-1.42,2.8-1.06,4.93-2.59,6.34-4.54,1.04-1.47,1.69-3,2.06-5h-4.91c-.89,0-1.63,.05-2.3,.14v-1.63c.65,.09,1.32,.14,2.3,.14h5.12c.22-1.7,.24-2.2,.28-4.93h-6.12c-1.13,0-1.8,.05-2.41,.16v-1.7c.56,.12,1.37,.16,2.41,.16h14.25c1.02,0,1.82-.04,2.41-.16v1.7c-.61-.11-1.28-.16-2.41-.16h-6.69c-.02,2.55-.09,3.46-.26,4.93h6.23c.98,0,1.63-.05,2.32-.14v1.63c-.72-.09-1.41-.14-2.32-.14h-5.69Z"/>
      <path class="cls-3" d="M224.55,191.75c.78,2.45,1.61,3.97,2.98,5.48,1.59,1.77,3.52,3.03,6.15,4.04-.41,.53-.59,.82-.89,1.54-2.74-1.28-4.71-2.75-6.41-4.77-1.15-1.35-2.06-3.07-2.8-5.23-.65,2.5-1.74,4.54-3.39,6.26-1.39,1.49-2.84,2.48-5.32,3.65-.3-.69-.46-.92-.93-1.42,2.8-1.06,4.93-2.59,6.34-4.54,1.04-1.47,1.69-3,2.06-5h-4.91c-.89,0-1.63,.05-2.3,.14v-1.63c.65,.09,1.32,.14,2.3,.14h5.12c.22-1.7,.24-2.2,.28-4.93h-6.12c-1.13,0-1.8,.05-2.41,.16v-1.7c.56,.12,1.37,.16,2.41,.16h14.25c1.02,0,1.82-.04,2.41-.16v1.7c-.61-.11-1.28-.16-2.41-.16h-6.69c-.02,2.55-.09,3.46-.26,4.93h6.23c.98,0,1.63-.05,2.32-.14v1.63c-.72-.09-1.41-.14-2.32-.14h-5.69Z"/>
      <path class="cls-3" d="M236.69,184.8c0-.62-.02-1.17-.06-1.74,.33,.04,.76,.07,1.45,.07h2.54c.69,0,1.06-.02,1.37-.09l.61,.83c-.15,.3-.2,.43-.35,.87-.59,1.74-1.35,3.6-2.06,5.11,.8,1.08,1.13,1.65,1.45,2.59,.37,.99,.54,2.04,.54,3.1,0,1.28-.33,2.11-.98,2.38-.37,.16-.96,.25-1.63,.25-.02,0-.3,0-.87-.04-.02-.6-.07-.87-.24-1.4,.54,.09,.93,.14,1.32,.14,.89,0,1.09-.28,1.09-1.47,0-.62-.07-1.19-.22-1.84-.33-1.42-.74-2.23-1.8-3.53,1.04-2.27,1.45-3.37,2.13-5.62h-2.98v16.22c0,.96,.04,1.74,.11,2.43h-1.56c.09-.64,.13-1.54,.13-2.45v-15.8Zm16.46-.04c1,0,1.37-.02,1.91-.07-.07,.53-.09,.94-.09,1.72,0,3.39-.2,8.28-.44,10.71-.28,2.84-.65,4.38-1.24,5-.46,.5-1,.69-2.02,.69-.67,0-1.5-.07-2.74-.18-.02-.55-.06-.94-.22-1.49,1.06,.18,2.28,.32,2.93,.32,.69,0,.98-.09,1.17-.39,.37-.53,.65-2,.85-4.4,.24-2.82,.3-4.68,.35-10.6h-8.93c-.72,1.33-1.26,2.09-2.39,3.37-.24-.37-.54-.71-.91-1.01,1.5-1.51,2.34-2.91,3.21-5.18,.22-.55,.33-.89,.37-1.19l1.41,.46c-.17,.34-.24,.48-.59,1.24-.22,.5-.28,.66-.46,1.01h7.8Zm-5.04,7.73h2.5c.93,0,1.32-.02,1.87-.09v1.4c-.56-.09-1.02-.11-1.85-.11h-2.52v4.22h2.39v-1.24c0-.76-.02-1.31-.11-1.84h1.41c-.06,.55-.09,1.08-.09,1.86v1.33c0,.6,0,.85,.02,1.12-.33-.02-.69-.02-1.37-.02h-5.84v1.81h-1.35c.09-.55,.13-1.12,.13-1.86v-2.36c0-.78-.02-1.33-.09-1.88h1.41c-.09,.55-.11,1.01-.11,1.81v1.26h2.37v-4.22h-2.43c-.78,0-1.22,.02-1.69,.11v-1.4c.48,.07,.89,.09,1.69,.09h2.43v-2.62h-1.63c-.5,.83-.78,1.19-1.5,1.95-.28-.39-.5-.6-.89-.87,1.13-1.15,1.85-2.25,2.39-3.65,.09-.25,.15-.44,.2-.71l1.22,.46c-.11,.21-.13,.23-.39,.83-.11,.25-.2,.43-.39,.82h4.08c.76,0,1.17-.02,1.72-.11v1.4c-.54-.09-.96-.11-1.76-.11h-1.82v2.62Z"/>
      <path class="cls-3" d="M262.56,193.97c-1.06,2.77-1.61,3.92-3.21,6.84-.28,.5-.46,.85-.56,1.06l-1.33-1.19c.35-.34,.67-.78,1.11-1.51,1.06-1.81,1.96-3.74,2.87-6.28l1.13,1.1Zm-3.32-10.8c1.39,1.51,2.19,2.55,3.3,4.29l-1.17,.96c-1.11-1.9-1.85-2.89-3.28-4.36l1.15-.89Zm2.74,6.45c.41,.04,.7,.07,1.22,.07,.3,0,.52,0,1-.02,1.74-2.91,3.24-6.15,3.47-7.57l1.61,.6q-.17,.32-.96,2.06c-.63,1.35-1.52,3.05-2.56,4.84,4.58-.3,5.89-.41,8.17-.69-.78-1.24-1.26-1.88-2.52-3.44l1.17-.69c2.02,2.59,2.98,4.04,4.6,6.93l-1.26,.82c-.65-1.26-.87-1.67-1.3-2.45-3.11,.41-6.12,.69-10.77,.99-.95,.07-1.24,.09-1.56,.18l-.3-1.63Zm3.45,13.23h-1.48c.09-.83,.11-1.35,.11-2.68v-4.79c0-.96-.02-1.63-.09-2.13,.54,.07,1.19,.09,2,.09h6.89c1.04,0,1.65-.02,2.13-.09-.09,.55-.11,1.05-.11,2.38v4.5c0,1.54,.02,2.13,.13,2.71h-1.5v-1.33h-8.08v1.35Zm0-2.68h8.06v-5.5h-8.06v5.5Z"/>
      <path class="cls-3" d="M278.95,198.67c.87-1.51,1.19-2.23,1.67-3.81,.59-1.86,.83-2.98,1.13-5.3l1.45,.41c-.41,2.52-.67,3.69-1.24,5.55-.48,1.63-.78,2.38-1.63,4.04l-1.39-.89Zm7.62,1.47c0,.71,.5,.85,3.02,.85,1.28,0,2.3-.09,2.78-.28,.43-.14,.65-.5,.8-1.33,.17-.94,.26-1.95,.3-3.78,.54,.3,.93,.46,1.48,.6-.22,2.84-.41,4.11-.83,4.95-.52,1.08-1.3,1.29-4.67,1.29-3.73,0-4.34-.28-4.34-1.97v-10.99c0-.73-.04-1.28-.15-2.18h1.76c-.11,.71-.15,1.31-.15,2.16v10.69Zm5.62-12.8c-2.24-1.6-3.84-2.45-7.04-3.69l.85-1.26c3.08,1.19,4.67,1.97,7.17,3.6l-.98,1.35Zm5.63,11.58c-.59-2.11-.93-3.17-1.61-4.79-.63-1.58-1.04-2.39-2-4.06l1.28-.71c1.74,3.07,2.54,4.95,3.73,8.72l-1.41,.85Z"/>
      <path class="cls-3" d="M301.03,192.3c.35,.04,.72,.07,1.22,.07h.72c.91-1.31,.93-1.33,1.5-2.25-1.37-1.74-1.87-2.32-3.24-3.62l.78-1.06c.46,.48,.59,.6,.91,.94,1.06-1.84,1.72-3.28,1.91-4.2l1.32,.57q-.22,.34-.85,1.65c-.43,.87-1.02,1.93-1.59,2.87,.63,.71,.85,.96,1.43,1.7,1.22-2.06,1.91-3.44,2.17-4.24l1.28,.71c-.2,.25-.28,.41-.54,.87-1.35,2.43-2.45,4.2-3.74,5.99,1.39-.07,1.98-.11,3.15-.25-.41-.94-.48-1.1-.89-1.88l.96-.46c.85,1.7,1.24,2.55,1.74,3.97l-1.02,.5c-.15-.48-.22-.69-.33-.99q-.98,.11-1.93,.21v7.45c0,1.01,.02,1.63,.13,2.29h-1.52c.09-.69,.13-1.33,.13-2.29v-7.34q-.52,.02-2.72,.14c-.3,.02-.52,.04-.8,.09l-.2-1.45Zm2.58,2.98c-.37,3.12-.65,4.54-1.35,6.42l-1.17-.62c.76-1.86,1.04-3.26,1.3-6.1l1.22,.3Zm4.39-.37c.5,1.9,.65,2.77,.96,4.95l-1.17,.35c-.2-2.06-.41-3.44-.87-5l1.09-.3Zm2.45-4.15c-.72,0-1.3,.02-1.8,.09v-1.45c.52,.09,.98,.12,1.87,.12h2.19v-2.98h-1.67c-.7,0-1.17,.02-1.65,.09v-1.42c.46,.07,.93,.09,1.63,.09h1.69v-1.1c0-.89-.02-1.33-.13-1.86h1.54c-.11,.53-.13,.92-.13,1.84v1.13h1.69c.67,0,1.13-.02,1.5-.09v1.42c-.46-.07-.87-.09-1.46-.09h-1.74v2.98h1.04c.93-1.01,1.63-1.88,2.48-3.1l.24-.37c.85-1.4,1.22-2.13,1.41-2.8l1.35,.8c-.22,.3-.35,.5-.67,1.03-.96,1.63-1.89,2.89-3.21,4.43h2.15c.93,0,1.39-.02,1.89-.12v1.47c-.59-.09-.98-.11-1.87-.11h-3.32c-1.28,1.28-1.82,1.77-2.48,2.29h4.43c.96,0,1.5-.02,2.02-.09-.06,.53-.09,1.08-.09,2.02v5.85c0,.87,.04,1.51,.13,2.27h-1.41v-1.17h-6.12v1.17h-1.39c.09-.66,.13-1.4,.13-2.27v-5.99c-.72,.5-.87,.6-1.48,.99-.2-.39-.39-.67-.78-1.08,2-1.12,3.43-2.18,5.39-3.99h-3.37Zm1.5,6.08h6.12v-2.57h-6.12v2.57Zm0,3.88h6.12v-2.68h-6.12v2.68Z"/>
      <path class="cls-3" d="M324.69,201.29c0,1.7-.28,2.27-1.37,2.94l-.59-.76c.83-.39,1.04-.78,1.04-1.99v-.18h-1.26v-2.27h2.17v2.27Z"/>
      <path class="cls-3" d="M350.65,203.24v-1.35h-14.83v1.35h-1.54c.09-.69,.13-1.4,.13-2.75v-14.2c0-1.15-.04-1.95-.13-2.82,.78,.09,1.41,.11,2.54,.11h12.79c1.15,0,1.78-.02,2.58-.11-.09,.87-.13,1.63-.13,2.82v14.24c0,1.33,.04,2.13,.13,2.71h-1.54Zm-14.83-2.68h14.83v-15.64h-14.83v15.64Zm9.27-12.06c1.09,0,1.69-.02,2.26-.09-.06,.48-.09,.94-.09,1.77v5c0,.83,.02,1.22,.09,1.77-.67-.07-1.26-.09-2.26-.09h-3.82c-1.26,0-1.63,.02-2.26,.09,.07-.53,.09-1.03,.09-1.77v-5c0-.76-.02-1.19-.09-1.77,.57,.07,1.17,.09,2.26,.09h3.82Zm-4.65,7.09h5.47v-5.83h-5.47v5.83Z"/>
      <path class="cls-3" d="M363.54,190.49c1.87,1.72,3.11,5.21,3.11,8.76,0,1.47-.22,2.52-.63,3.05-.39,.5-.96,.71-2.02,.71-.67,0-1.59-.07-2.56-.16-.04-.67-.13-.99-.35-1.54,1.09,.23,2,.35,2.8,.35,1.11,0,1.41-.55,1.41-2.75,0-.67-.02-1.06-.09-1.72-2.3,1.99-5.17,3.51-9.16,4.89-.28-.55-.48-.85-.85-1.28,3.93-1.06,7.3-2.8,9.75-5.02-.17-.78-.33-1.24-.61-1.93-2.24,1.63-4.91,2.91-8.12,3.9-.24-.55-.43-.83-.8-1.26,1.98-.5,3.17-.92,4.97-1.74,1.33-.62,2.28-1.17,3.39-2-.43-.73-.76-1.15-1.26-1.6-1.61,.94-3.24,1.63-5.8,2.36-.3-.6-.43-.8-.8-1.21,3.39-.78,5.52-1.65,7.58-3.14h-3.19c-.78,0-1.45,.04-2.11,.11v-1.47c.56,.09,1.13,.14,2.11,.14h9.19c1.02,0,1.59-.02,2.13-.14v1.47c-.65-.07-1.3-.11-2.13-.11h-2.35c.48,2.09,.69,2.87,1.3,4.29,1.54-1.19,2.87-2.57,3.32-3.42l1.22,1.05q-.48,.41-1.3,1.24c-.7,.71-1.3,1.24-2.65,2.32,1.37,2.55,2.98,4.17,5.73,5.87-.37,.34-.67,.71-1.06,1.28-1.78-1.35-2.61-2.09-3.52-3.19-1.63-1.93-2.91-4.43-3.71-7.25-.17-.6-.26-.96-.54-2.2h-.65c-.63,.57-.87,.76-1.56,1.24l-.17,.12Zm.44-6.7c0-.5-.04-.92-.15-1.42h1.69c-.09,.5-.13,.89-.13,1.4v.73h6.43c.93,0,1.5-.02,2.19-.09-.06,.44-.09,.83-.09,1.52v1.42c0,.71,.02,1.08,.09,1.56h-1.41v-3.14h-15.36v3.14h-1.41c.06-.53,.09-.89,.09-1.58v-1.4c0-.62-.02-1.03-.09-1.52,.69,.07,1.24,.09,2.17,.09h5.97v-.71Z"/>
      <path class="cls-3" d="M376.52,198.67c.87-1.51,1.19-2.23,1.67-3.81,.59-1.86,.83-2.98,1.13-5.3l1.45,.41c-.41,2.52-.67,3.69-1.24,5.55-.48,1.63-.78,2.38-1.63,4.04l-1.39-.89Zm7.62,1.47c0,.71,.5,.85,3.02,.85,1.28,0,2.3-.09,2.78-.28,.43-.14,.65-.5,.8-1.33,.17-.94,.26-1.95,.3-3.78,.54,.3,.93,.46,1.48,.6-.22,2.84-.41,4.11-.83,4.95-.52,1.08-1.3,1.29-4.67,1.29-3.73,0-4.34-.28-4.34-1.97v-10.99c0-.73-.04-1.28-.15-2.18h1.76c-.11,.71-.15,1.31-.15,2.16v10.69Zm5.62-12.8c-2.24-1.6-3.84-2.45-7.04-3.69l.85-1.26c3.08,1.19,4.67,1.97,7.17,3.6l-.98,1.35Zm5.63,11.58c-.59-2.11-.93-3.17-1.61-4.79-.63-1.58-1.04-2.39-2-4.06l1.28-.71c1.74,3.07,2.54,4.95,3.73,8.72l-1.41,.85Z"/>
      <path class="cls-3" d="M398.2,192.85c.65-2.16,.78-2.96,.91-6.08l1.19,.34c-.15,2.94-.3,3.97-.93,6.31l-1.17-.57Zm2.82,10.37c.11-.74,.15-1.7,.15-2.64v-15.9c0-.87-.04-1.54-.15-2.31h1.67c-.11,.73-.15,1.42-.15,2.31v15.92c0,.99,.04,1.84,.15,2.62h-1.67Zm2.82-13.72c-.26-1.26-.52-2.04-1-3.12l.98-.44c.41,.94,.69,1.74,1.09,3.03l-1.06,.53Zm3.02-4.17c-.98,0-1.48,.02-2.04,.11v-1.42c.57,.12,1.04,.14,2.06,.14h3.24c0-.89-.02-1.19-.13-1.79h1.54c-.11,.6-.13,.87-.13,1.79h4.02c1.09,0,1.54-.02,2.13-.14v1.42c-.59-.09-1.13-.11-2.11-.11h-4.04v1.56h3.39c.93,0,1.43-.02,2-.11v1.35c-.59-.09-1.13-.11-2.02-.11h-3.37v1.7h4.39c.98,0,1.61-.05,2.15-.14v1.47c-.7-.09-1.37-.14-2.15-.14h-9.23c-1.02,0-1.65,.04-2.22,.14v-1.47c.54,.09,1.15,.14,2.22,.14h3.56v-1.7h-2.61c-.87,0-1.35,.02-1.98,.11v-1.35c.56,.09,1.09,.11,2,.11h2.58v-1.56h-3.26Zm.15,15.37c0,1.19,.04,1.9,.13,2.48h-1.56c.09-.6,.11-1.24,.11-2.48v-6.47c0-1.06,0-1.38-.06-2,.54,.07,1.19,.09,2.02,.09h6.67c1.02,0,1.56-.02,2-.11-.06,.55-.09,1.26-.09,2.45v6.51c0,1.42-.41,1.79-2.04,1.79-.59,0-1.28-.04-2.21-.11-.07-.6-.15-.94-.35-1.45,1,.18,1.82,.28,2.43,.28,.72,0,.85-.09,.85-.62v-1.79h-7.88v1.42Zm7.88-5.46v-1.74h-7.88v1.74h7.88Zm0,2.87v-1.72h-7.88v1.72h7.88Z"/>
      <path class="cls-3" d="M426.93,185.37c.59-1.15,.89-1.99,1.17-3.21l1.56,.3c-.46,1.24-.8,2.07-1.24,2.91h5.23c1.22,0,1.87-.02,2.63-.11-.09,.76-.11,1.42-.11,2.84v12.2c0,1.4,.02,2.02,.13,2.66h-1.52v-1.35h-11.47v1.35h-1.5c.09-.67,.13-1.38,.13-2.68v-12.18c0-1.35-.02-2.04-.11-2.84,.74,.09,1.39,.11,2.56,.11h2.52Zm-3.61,4.86h11.49v-3.51h-11.49v3.51Zm0,4.95h11.49v-3.62h-11.49v3.62Zm0,5.07h11.49v-3.74h-11.49v3.74Z"/>
      <path class="cls-3" d="M443.05,189.71c.93,.64,1.67,1.26,2.28,1.99,.46-.55,.91-1.21,1.3-1.88-.69-.74-1.35-1.24-2.32-1.81l.67-.96c1.02,.62,1.74,1.17,2.24,1.72,.43-.85,.76-1.74,1.13-3.07h-3.45c-.96,2.06-2.19,3.67-4.04,5.3-.26-.41-.52-.69-.91-1.03,1.76-1.35,3.04-3.01,3.91-5.04,.44-.96,.61-1.63,.72-2.48l1.48,.3c-.13,.25-.3,.71-.48,1.26-.06,.16-.09,.25-.17,.48h1.95c.63,0,1.17-.02,1.65-.09l.78,.74c-.46,1.83-1.15,3.67-1.95,5.11-1,1.81-2.34,3.46-3.93,4.77-.91,.73-1.59,1.19-2.89,1.9-.26-.5-.43-.76-.89-1.15,1.93-.94,3.06-1.74,4.39-3.12-.61-.78-1.32-1.42-2.24-2.02l.78-.92Zm-2.82,12.64c.93-.96,1.35-1.47,1.89-2.41,.52-.89,.76-1.45,1.11-2.66l1.22,.62c-.83,2.43-1.5,3.67-3.04,5.44l-1.17-.99Zm6.88,.69c-.07-2.04-.26-3.44-.67-5.23l1.26-.21c.48,1.95,.65,3.07,.83,5.23l-1.41,.21Zm6.82-13.99c.5,1.42,.93,2.22,1.67,3.21,1.06,1.38,2.24,2.38,3.87,3.3-.37,.41-.59,.74-.82,1.31-2.76-1.81-4.56-4.01-5.5-6.74-.39,1.31-.89,2.36-1.59,3.37-.87,1.26-1.87,2.13-3.56,3.14-.22-.41-.52-.78-.91-1.15,1.95-1.01,3.11-2.06,4-3.69,.44-.78,.85-1.9,1.02-2.75h-.76c-.91,0-1.35,.02-2,.11v-1.52c.52,.07,1.11,.12,2,.12h1c.13-1.03,.17-1.95,.17-3.35,0-.62-.04-1.19-.13-1.72h1.61c-.11,.55-.13,.89-.13,1.84,0,1.05-.09,2.29-.22,3.23h3.19c.87,0,1.54-.05,2.13-.14v1.56c-.61-.09-1.22-.14-2.06-.14h-2.98Zm-1.74,13.74c-.37-1.93-.8-3.28-1.59-5.02l1.22-.35c.8,1.81,1.26,3.1,1.74,5l-1.37,.37Zm3.54-19.63c.98,1.03,1.59,1.79,2.22,2.78l-1,.78c-.72-1.26-1.15-1.81-2.22-2.89l1-.67Zm2.37,19.91c-1.02-2.23-1.72-3.35-3.13-5.14l1.06-.73c1.61,2.02,2.26,3.05,3.3,5.05l-1.24,.82Z"/>
      <path class="cls-3" d="M463.65,188.58c-.24,1.35-.46,2.11-.96,3.46-.52-.34-.74-.46-1.19-.64,.54-1.28,.8-2.23,1.06-3.72,.2-1.03,.3-2.13,.3-2.89,0-.18,0-.34-.02-.62l1.39,.23c-.04,.28-.04,.35-.09,.74-.04,.57-.13,1.21-.26,2.16h1.54v-3.03c0-.76-.04-1.28-.15-1.9h1.63c-.11,.6-.15,1.12-.15,1.9v3.03h.48c.83,0,1.37-.05,1.89-.14v1.54c-.56-.07-1.13-.11-1.85-.11h-.52v4.52c.89-.43,1.26-.62,2.28-1.19l.02,1.38-.09,.05c.52,.09,1.13,.11,2,.11h6.3v-2.66h-6.3c-.98,0-1.61,.04-2.22,.14v-1.56c.59,.09,1.22,.14,2.22,.14h3.06v-3.05h-2.39c-.8,0-1.5,.05-2.06,.11v-1.51c.54,.09,1.17,.14,2.06,.14h2.39v-.94c0-.69-.04-1.28-.13-1.86h1.58c-.09,.6-.13,1.1-.13,1.86v.94h3c.89,0,1.52-.04,2.06-.14v1.51c-.59-.07-1.26-.11-2.06-.11h-3v3.05h3.74c.98,0,1.61-.04,2.22-.14v1.56c-.59-.09-1.3-.14-2.15-.14h-.54v2.66h.56c.95,0,1.54-.05,2.11-.14v1.56c-.63-.09-1.26-.14-2.11-.14h-.56v6.51c0,1.29-.52,1.68-2.26,1.68-.61,0-1.39-.05-2.22-.09-.04-.67-.13-1.01-.33-1.56,.98,.18,1.89,.3,2.5,.3,.8,0,.96-.09,.96-.62v-6.21h-6.39c-.87,0-1.46,.04-2.11,.14v-1.42c-.87,.5-.98,.57-2.02,1.1v6.33c0,.85,.04,1.63,.15,2.41h-1.63c.11-.62,.15-1.44,.15-2.41v-5.69q-.22,.09-.8,.34c-.54,.23-1.02,.44-1.37,.6q-.13,.05-.54,.23c-.22,.09-.3,.14-.52,.25l-.48-1.6c.89-.16,1.95-.53,3.71-1.28v-5.14h-1.78Zm7.67,7c1.28,1.28,2.06,2.22,3.11,3.74l-1.15,.89c-.93-1.54-1.78-2.62-3.02-3.85l1.06-.78Z"/>
      <path class="cls-3" d="M486.75,190.19c-1.13,0-1.78,.02-2.41,.09,.07-.66,.09-1.21,.09-2.16v-2.61c0-.94-.02-1.45-.09-2.16,.54,.09,1.28,.11,2.5,.11h4.17c1.39,0,1.98-.02,2.48-.11-.07,.76-.09,1.19-.09,2.13v2.71c0,1.06,.02,1.49,.09,2.09-.67-.07-1.39-.09-2.48-.09h-2.69q-.04,1.54-.13,2.82h3.17c.96,0,1.5-.02,2.08-.11-.07,.48-.09,.6-.09,1.4-.04,3.88-.28,6.47-.65,7.34-.3,.76-.83,1.01-2.06,1.01-.56,0-1.19-.05-2.19-.18-.02-.6-.09-.96-.26-1.51,1.06,.23,1.74,.32,2.45,.32,.63,0,.85-.18,.96-.8,.22-1.31,.35-3.37,.37-6.17h-3.91c-.46,3.83-1.56,6.35-3.84,8.69-.26-.5-.52-.8-1.04-1.19,1.02-.94,1.54-1.6,2.15-2.75,.87-1.65,1.26-3.26,1.48-6.19,.07-.92,.09-1.35,.11-2.66h-.15Zm-.98-1.28h6.28v-4.15h-6.28v4.15Zm11.68-5.3c-.09,.62-.13,1.31-.13,2.62v8.85c0,1.56,.02,2.02,.11,2.66h-1.61c.09-.64,.11-1.12,.11-2.66v-8.85c0-1.26-.04-1.95-.13-2.62h1.65Zm4.84-.96c-.11,.71-.15,1.61-.15,2.89v15.05c0,1.7-.44,2.06-2.5,2.06-.63,0-1.3-.02-2.3-.09-.11-.6-.22-1.01-.43-1.54,1,.16,2.17,.25,2.82,.25,.85,0,1.02-.12,1.02-.69v-15.05c0-1.26-.04-2.13-.15-2.89h1.69Z"/>
      <path class="cls-3" d="M512.41,200.88c-1-1.31-1.39-1.77-2.15-2.57-1.24,2-2.19,3.01-4.28,4.54-.3-.5-.56-.85-.96-1.22,1.91-1.24,3.13-2.48,4.23-4.29-1.15-1.06-1.82-1.56-3.47-2.64,.85-2.04,1.46-3.95,2.04-6.4h-.65c-.7,0-1.24,.05-1.78,.14v-1.56c.54,.09,1.13,.14,1.91,.14h.78c.39-1.86,.61-3.44,.61-4.36,0-.07,0-.18-.02-.32l1.59,.16c-.09,.34-.13,.64-.24,1.4-.13,.83-.35,2.18-.54,3.12h1.89c.89,0,1.48-.02,1.98-.09q-.04,.32-.11,1.03c-.35,3.85-1.04,6.63-2.28,9.08,.89,.85,1.3,1.31,2.41,2.61l-.96,1.22Zm-3.21-12.57c-.61,2.48-1,3.76-1.78,5.87,1.26,.89,1.69,1.22,2.52,1.93,1.04-2.18,1.56-4.33,1.91-7.8h-2.65Zm9.17,2.89c0-.83-.04-1.42-.15-2.25h.76c1.39-1.17,2.24-2.13,3.34-3.79h-6.12c-.8,0-1.59,.05-2.13,.14v-1.63c.56,.09,1.28,.14,2.19,.14h5.58c.89,0,1.33-.02,1.67-.11l.8,1.06q-.15,.18-1.28,1.7c-.93,1.26-1.76,2.13-3.28,3.49v2.23h3.58c.93,0,1.37-.02,1.93-.14v1.63c-.59-.11-1.04-.14-1.93-.14h-3.58v7.5c0,1.54-.39,1.86-2.15,1.86-.56,0-1.45-.07-2.61-.18-.04-.67-.11-.94-.3-1.56,1.24,.21,2.22,.32,2.78,.32,.74,0,.89-.09,.89-.48v-7.46h-2.93c-.87,0-1.39,.05-1.98,.14v-1.63c.52,.11,.96,.14,1.95,.14h2.95v-.96Z"/>
      <path class="cls-3" d="M533.55,199.54c0,1.9-1.45,3.44-3.26,3.44s-3.26-1.54-3.26-3.44,1.45-3.44,3.26-3.44,3.26,1.54,3.26,3.44Zm-5.28,0c0,1.17,.91,2.13,2.02,2.13s2.02-.96,2.02-2.13-.91-2.13-2.02-2.13-2.02,.96-2.02,2.13Z"/>
    </g>
  </g>
</svg>