<?xml version="1.0" encoding="utf-8"?>
<!-- Generator: Adobe Illustrator 27.0.0, SVG Export Plug-In . SVG Version: 6.00 Build 0)  -->
<svg version="1.1" id="圖層_1" xmlns="http://www.w3.org/2000/svg" xmlns:xlink="http://www.w3.org/1999/xlink" x="0px" y="0px"
	 viewBox="0 0 192 157" style="enable-background:new 0 0 192 157;" xml:space="preserve">
<style type="text/css">
	.st0{clip-path:url(#SVGID_00000136413525877328525390000008453500085769689993_);}
	.st1{fill:#F7F8B8;}
</style>
<g>
	<defs>
		<rect id="SVGID_1_" x="12.5" y="16.5" width="166.9" height="123.2"/>
	</defs>
	<clipPath id="SVGID_00000023271748657394825960000006685905852016223109_">
		<use xlink:href="#SVGID_1_"  style="overflow:visible;"/>
	</clipPath>
	<g style="clip-path:url(#SVGID_00000023271748657394825960000006685905852016223109_);">
		<path class="st1" d="M12.5,112.5l1.8-4h4.5c4,0,6.4-0.6,7.4-1.8c1-1.2,2.2-5.5,3.8-12.8l6.4-32.4c0.9-4.7,1.4-7.8,1.4-9.5
			c0-2-1.9-3.1-5.7-3.4L26.2,48l-0.1-4l28.1-3.6l-4.9,20.8l-6.4,32.1c-1.3,6.8-1.9,10.5-1.9,11.1c0,2.7,1.9,4.1,5.6,4.1h5.8l0.2,4
			L12.5,112.5L12.5,112.5z"/>
		<path class="st1" d="M107.6,68.1l4.6-5.2h6.9l8.2-41.3c-8.9,0-16,2.4-21.6,7.2s-8.3,11-8.3,18.7l0.1,1.4L84.9,55
			c1.1-13.3,6.3-23,15.5-29.2c9.2-6.2,23.1-9.3,41.6-9.3h37.4l-5.8,18.3h-4.2c0.6-1.7,0.8-3.4,0.8-5.1c0-5.6-8.8-8.4-26.5-8.4h-2.8
			l-8.2,41.6h28.3l-6.4,6.6c-6.9-0.9-13.5-1.4-19.7-1.4h-3.2l-3.8,19c-3.2,16-9.3,28.8-18.3,38.3c-9.1,9.5-19.6,14.3-31.6,14.3
			c-6.5,0-12.3-2.4-17.4-7.3l9.5-9.7c3.4,7.1,8.9,10.6,16.5,10.6c6.9,0,12.3-3.1,16.3-9.4s7.5-17.3,10.7-33.2l4.5-22.7L107.6,68.1
			L107.6,68.1z"/>
	</g>
</g>
</svg>
