<svg width="192" height="157" viewBox="0 0 192 157" fill="none" xmlns="http://www.w3.org/2000/svg">
<g clip-path="url(#clip0_34_186036)">
<path d="M0 113.62L9.6 104.02H10.44C10.66 104.02 11.11 104.08 11.8 104.21C12.54 104.34 13.36 104.4 14.26 104.4C18.67 104.4 22.09 102.79 24.54 99.5699C26.98 96.3499 28.98 90.8499 30.54 83.0699L42.54 22.6999C33.63 22.6999 26.43 25.0899 20.95 29.8799C15.46 34.6699 12.71 40.9099 12.71 48.6199V50.0499L0.13 56.1499C1.3 42.8199 6.47 33.0699 15.66 26.8999C24.85 20.7299 38.78 17.6499 57.46 17.6499C72.03 17.6499 82.23 19.0499 88.07 21.8399C93.91 24.6299 96.82 29.5099 96.82 36.4799C96.82 47.9899 88.41 57.8099 71.59 65.9499L87.15 92.0499C92.68 101.33 96.79 105.98 99.47 105.98C102.41 105.98 107.68 102.15 115.29 94.4999L114.06 100.66C104.59 110.39 97.61 115.25 93.11 115.25C87.27 115.25 80.83 108.74 73.78 95.7299L59.19 68.8199H46.93L45.76 74.6599C43.21 87.4999 36.03 97.6599 24.23 105.14L49.59 105.66L40.64 115.26L0 113.62ZM47.73 64.8499H64.92C76.72 59.0499 82.62 50.1499 82.62 38.1599C82.62 27.1199 74.71 21.5999 58.88 21.5999H56.35L47.73 64.8499Z" fill="#F7F8B8"/>
<path d="M75.23 155.96L84.5 146.3C88.65 147.99 92.89 148.83 97.21 148.83C103.39 148.83 108.16 146.73 111.51 142.54C114.86 138.35 117.36 131.41 119 121.72L131.45 47.99H116.92L121.46 43.19H132.42L132.62 42.35C135.08 29.81 140.77 19.62 149.67 11.77C158.58 3.92 168.91 0 180.67 0C184.43 0 187.91 0.37 191.11 1.1L181.84 10.96C177.82 8.45 173.69 7.2 169.45 7.2C162.96 7.2 158.14 9.11 154.99 12.94C151.83 16.77 149.24 23.78 147.21 33.98L145.33 43.19H169.58L164.33 48.96C158.84 48.31 153.33 47.99 147.79 47.99H144.42L134.95 103.76C132.1 120.71 126.41 133.79 117.89 142.99C109.37 152.2 98.69 156.8 85.85 156.8C82.48 156.8 78.93 156.52 75.21 155.96H75.23Z" fill="#F7F8B8"/>
</g>
<defs>
<clipPath id="clip0_34_186036">
<rect width="191.11" height="156.81" fill="white"/>
</clipPath>
</defs>
</svg>
