<?xml version="1.0" encoding="utf-8"?>
<!-- Generator: Adobe Illustrator 27.0.0, SVG Export Plug-In . SVG Version: 6.00 Build 0)  -->
<svg version="1.1" id="圖層_1" xmlns="http://www.w3.org/2000/svg" xmlns:xlink="http://www.w3.org/1999/xlink" x="0px" y="0px"
	 viewBox="0 0 30 30" style="enable-background:new 0 0 30 30;" xml:space="preserve">
<style type="text/css">
	.st0{fill:#B28247;}
</style>
<path class="st0" d="M12.3,6.4C11,6.1,9.2,5.3,9.2,3.3c0-1.4,1.1-2.4,2.6-2.4c1.4,0,2.6,1,2.6,3.1c0,2.7-1.3,5.6-4.8,7.1l-0.6-1
	C11.1,9.1,12.2,7.4,12.3,6.4z M19.4,6.4c-1.3-0.3-3.1-1.1-3.1-3.2c0-1.4,1.1-2.4,2.5-2.4c1.5,0,2.7,1,2.7,3.1c0,2.7-1.3,5.6-4.8,7.1
	l-0.6-1C18.2,9.1,19.3,7.4,19.4,6.4z"/>
</svg>
