<?xml version="1.0" encoding="utf-8"?>
<!-- Generator: Adobe Illustrator 27.0.0, SVG Export Plug-In . SVG Version: 6.00 Build 0)  -->
<svg version="1.1" id="圖層_1" xmlns="http://www.w3.org/2000/svg" xmlns:xlink="http://www.w3.org/1999/xlink" x="0px" y="0px"
	 viewBox="0 0 30 30" style="enable-background:new 0 0 30 30;" xml:space="preserve">
<style type="text/css">
	.st0{fill:#B28247;}
</style>
<path class="st0" d="M17.7,5.6c1.3,0.3,3.1,1.1,3.1,3.2c0,1.4-1.1,2.4-2.6,2.4c-1.4,0-2.6-1-2.6-3.1c0-2.7,1.3-5.6,4.8-7.1l0.6,1
	C18.9,2.9,17.8,4.6,17.7,5.6z M10.7,5.6c1.3,0.3,3.1,1.1,3.1,3.2c0,1.4-1.1,2.4-2.6,2.4c-1.5,0-2.7-1-2.7-3.1c0-2.7,1.3-5.6,4.8-7.1
	l0.6,1C11.8,2.9,10.7,4.6,10.7,5.6z"/>
</svg>
